<svg width="600" xmlns="http://www.w3.org/2000/svg" xmlns:xlink="http://www.w3.org/1999/xlink" height="400">
  <path fill="#090" d="M0 0h600v400H0z"/>
  <path fill="#bf0000" d="M0 0h400v400H0z"/>
  <path d="M0 0h200v400H0z"/>
  <g stroke="#bd6b00" fill-rule="evenodd" fill="#fff">
    <path d="M320 226h8c0 3 2 6 4 8h-16c3-2 4-5 3-8z"/>
    <path d="M267 179l4 5h57l5-5-15-1-7-5h-23l-6 6h-15z" stroke="none"/>
    <path d="M290 173h20c2-2 3-6 3-9 0-7-5-11-10-11l-2-1-1-3-1 3-2 1c-6 0-11 5-10 11 0 4 0 7 3 9z"/>
    <path d="M258 243h84l-7-6h-70l-7 6z" stroke="none"/>
    <path d="M296 220l2 4h3l-2-4h-3zm-2 4l1 5h4l-1-5h-4zm7 0l3 5h6l-5-5h-4zm-34 11c3-3 5-6 5-9h8l1 3h8v-5h-6v-24c0-9 11-14 15-14h-26v-1h55l1 1h-27c8 0 15 7 15 14v7h-1v-7c0-7-8-14-15-13-6 0-16 6-16 13v2h15v2l2 2 4 1v4l3 1v4l4 1v4l3 2v4l3 2h-8l5 5h-7l-4-5h-5l3 5h-5l-2-5h-6v6h-22zm22-15v4h5l-1-4h-4z"/>
    <path fill="none" d="M289 212h3v8h-3z"/>
    <path d="M285 220h3v-6c0-2 2-5 3-5s3 3 3 5v6h4v-15h-13v15zm25 3h4v3h-4zm-2-5h4v3h-4zm-4-6h4v3h-4zm-3-4h4v3h-4z" fill="none"/>
    <path d="M298 220h4l8 6v-3l-3-2v-3l-4-2v-4l-3-1v-4l-2-2v15z" fill="none"/>
    <path d="M315 210h1v7h-1z"/>
    <g id="a">
      <path d="M257 187c-1-2-2 2-7 6-3 1-4 6-4 9v5c-1 1-2 4-1 5l6 6c2 1 3-5 3-8 1-3 1-6 4-9l6-5-7-9z"/>
      <path d="M257 202l-2-3-2-1-2-2-1-1v-2c-3 1-4 6-5 9v2l1 1 1 1 3 1 3 2 1 2v-1l3-8z" fill="#bf0000"/>
      <path d="M250 192c-1 4 1 5 3 6 2 0 3 2 4 4m-12 1c1 3 3 3 5 4 2 0 4 3 4 4" fill="none"/>
      <path d="M256 184h1l17 30h-1l-17-30z"/>
      <path d="M258 183a2 2 0 1 1-5 0 2 2 0 1 1 5 0zm15-24h7v2h-7zm0 3h7v14h-7zm-1-5h8c1-2-2-5-4-5-1 0-4 3-4 5z"/>
      <path stroke="none" d="M293 156c-2 0-3 2-4 4v8h1l1-1v-5c0-2 1-3 3-5v-1h-1zm0 0h1v1l-4 5v6l-1-1v-1l1-6c0-2 1-3 3-4z" fill="#bd6b00"/>
      <path stroke="none" d="M295 158l-3 4v6l1 2h1v-7l2-4h1v-1h-2zm0 0h2l-1 1-2 4v6l-2-1 1-6 2-4z" fill="#bd6b00"/>
      <path d="M272 187h8v11h-8zm1 18h8v2h-8zm0 4h8v9h-8zm-1 10h9v5h-9zm1-16h7l1-3h-9l1 3zm10-9v-6h4l-4 6z"/>
      <path d="M274 197h1v-6h3v6h1v-7c0-2-5-2-5 0v7zm0 13h6v7h-6z" fill="none"/>
      <path d="M277 213h2v1h-2zm-3 0h2v1h-2zm2-3h2v3h-2zm0 4h2v3h-2zm-32-75c0 6-1 9-4 8-1-3 1-5 4-8zm-6 12c-3-1-1-11 0-15 1 5 2 13 0 15z"/>
      <path d="M238 152c5 1 8-3 10-9-4 5-10 5-10 9zm-3 5c-3-1-1-12-1-16 1 4 3 14 1 16z"/>
      <path d="M236 157c0-4 4-3 7-5-1 2-2 5-7 5zm-4 5c-3-1-1-13-1-18 1 4 4 16 1 18zm2-1c2 1 6-1 6-4-2 1-6 0-6 4z"/>
      <path d="M230 167c-4 0-2-10-2-19 1 8 4 16 2 19zm1-1c2 1 6 0 7-4-4 2-7 0-7 4zm25-22c0 5-2 8-5 7-1-3 1-5 5-7z"/>
      <path d="M248 157c5 0 7-4 10-8-4 3-10 4-10 8z"/>
      <path d="M247 156c-3-3 0-7 2-11 0 5 1 8-2 11zm-1 5c0-3 5-4 7-5 0 1-2 6-7 5z"/>
      <path d="M245 161c-4 0-2-6 0-10-1 5 2 8 0 10z"/>
      <path d="M242 167c-4-2-1-8 0-11-1 4 3 8 0 11z"/>
      <path d="M243 166c2 3 6-1 7-5-4 3-6 2-7 5zm-10 20c0-4 3-12 1-16-1 0 0-2 1-1s2 6 3 4c0-2 0-5 2-5 1-1 2-1 1 1v3l4-3c1 0 2 1 1 2-5 4-10 6-13 15zm-8 65h-1c6 7 7 9 15 8 9-1 11-3 17-6 3-2 7-3 11-1 1 0 2 0 1-1l-4-4c-3-2-8-3-12-2-6 0-12 4-18 6h-9zm47 12c1 0 2 3 3 1l-1-4-2 3z"/>
      <path stroke="none" d="M221 183c-2-1-1-2 1-2h5l1-5c0-1 1-2 2 0 3 6 8 13 10 20 1 3 0 9-4 13 1-3-1-5-2-8l-13-18z"/>
      <path d="M236 213c4 0 4-5 4-6-2 0-5 3-4 6zm34 52c3 1 3-6 0-9 1 5-2 9 0 9zm-1 0c0 3-8 0-10-3 5 2 10 1 10 3zm-4-4c1 3-7 0-9-3 5 2 9 0 9 3zm2 0c2 1 2-6-1-9 2 5-2 8 1 9zm-3-4c2 0 1-6-1-8 0 4-1 7 1 8z"/>
      <path d="M262 257c0 3-5 0-8-3 5 2 8 0 8 3zm-1-3c1-1-1-5-4-4 0 2 2 5 4 4zm14 15c0 3-8 1-11-2 5 1 10-1 11 2zm-33-6c0 3-8 0-11-3 5 1 11 0 11 3zm6 1c1-1-2-4-5-5 0 2 3 7 5 5zm0 3c0 3-9 1-12-2 8 2 12-1 12 2z"/>
      <path d="M253 269c1 2-9 2-12 0 6 0 11-2 12 0zm4 2c1 2-7 2-12 1 6 0 11-4 12-1zm6 1c2 3-7 3-10 2 5-1 9-4 10-2zm-10-5c-3 2-3-4-5-7 3 3 7 5 5 7z"/>
      <path d="M258 269c-3 2-4-5-7-9 4 3 9 7 7 9zm7 2c-2 2-8-7-11-12 4 4 12 10 11 12zm-6 7c-1 4-16-3-18-7 9 5 18 4 18 7zm-49-74l-1 2c0 1 2 9 6 11 3 2 17 5 24 7 3 1 6 2 9 5l-3-10c-2-3-5-6-8-6-6 0-14-1-20-3l-7-6z"/>
      <path d="M246 235c1 1 4-4 1-9 0 5-4 7-1 9z"/>
      <path d="M247 240c3 0 4-4 2-8 0 4-4 6-2 8z"/>
      <path d="M249 243c3 2 4-3 2-7 0 5-4 6-2 7z"/>
      <path d="M248 244c-1 3-7-3-8-6 4 4 9 3 8 6zm-2-5c-1 3-9-5-11-9 4 4 12 7 11 9z"/>
      <path d="M244 234c-1 4-9-6-11-9 3 4 12 7 11 9zm0-3c3-1 0-3-4-7 0 4 1 7 4 7z"/>
      <path d="M239 229c1-2-1-2-4-6-1 3 3 7 4 6zm14 15c2 1 3-3 1-5-1 3-2 4-1 5zm-34-21c-4 2-9-6-10-9 3 4 10 7 10 9z"/>
      <path d="M222 228c-2 2-8-3-10-6 3 2 10 3 10 6z"/>
      <path d="M225 232c-1 3-9-3-11-6 3 3 11 3 11 6z"/>
      <path d="M224 235c-2 3-9-3-10-7 4 4 11 5 10 7zm-4-12c2-2 1-3 0-7-1 4-3 5 0 7zm3 4c4 0 0-4-1-8 0 4-1 8 1 8z"/>
      <path d="M225 231c3 0 2-4 0-9 1 5-2 8 0 9zm-1 8c-1 3-8-4-10-7 4 3 11 4 10 7z"/>
      <path d="M229 244c-1 3-9-4-12-7 5 4 13 4 12 7z"/>
      <path d="M234 248c-1 5-10-2-13-5 6 4 14 2 13 5zm-8-11c2 2 3-5 2-10 0 5-5 9-2 10z"/>
      <path d="M230 243c3 0 2-7-1-11 0 4-2 9 1 11zm5 5c3 0 1-7-2-10 1 5-1 9 2 10zm-6 2c-1 2-3-1-7-3 4 1 8 2 7 3zm-1-53c2-2 0-6 0-10-1 4-4 9 0 10zm-1 6c-4-1-3-6-3-10 1 5 4 6 3 10zm1-1c4 0 4-4 4-9-2 4-4 5-4 9z"/>
      <path d="M228 207c-3 1-4-2-5-7 3 4 5 3 5 7zm1 0c4 0 3-4 3-7-1 3-4 4-3 7z"/>
      <path d="M223 205c1 3 2 8 5 7 1-4-2-4-5-7zm6 7c-1-2 3-4 4-7 0 5 0 8-4 7zm-12-29c2-3 0-7 0-10-1 3-3 8 0 10z"/>
      <path d="M217 187c-4 1-5-7-5-11 1 5 6 7 5 11zm1 0c3-1 2-4 3-7-2 3-4 4-3 7z"/>
      <path d="M217 193c-4 0-7-9-7-13 2 5 8 8 7 13zm1 0c4-1 3-4 3-8-1 4-4 3-3 8z"/>
      <path d="M217 198c-5 1-4-7-8-12 3 4 9 9 8 12zm1 0c4 0 4-5 4-8-1 3-5 5-4 8z"/>
      <path d="M210 192c2 6 4 12 7 11 1-3-3-3-7-11zm8 10c-1-2 3-3 4-6 0 4 0 7-4 6z"/>
      <path d="M211 199c2 5 4 11 7 10 1-4-4-5-7-10z"/>
      <path d="M219 208c-2-3 2-4 3-7 1 4 0 8-3 7zm7-35c2 1 5-2 4-6-3 1-4 3-4 6zm-8-2c0 2 2 2 1 0v-8h-1v8zm23 16c-1 2-3 1-2-1l4-4 2-7c1-1 2 1 1 2l-2 5c0 2-2 4-3 5zm-3-2c-1 1-3 1-2-2l2-4 4-4c1-1 2 0 1 1s-3 2-3 4c-2 2-1 4-2 5zm-16-7c0 2 2 2 2-1s-3-5-1-10v-8c0-2-2-1-1 1l-1 7c-1 6 1 8 1 11zm5-11c-1 2-2 2-2-1v-12c1-2 2-1 2 0l-1 6v7zm-16 37c1 1 2 0 1-1l-1-2-2-3h-1l1 3 2 3zm20 25c3 1 5 4 5 6 0 3 0 5 2 7-2 0-3-3-4-6 0-4-2-5-3-7z"/>
      <path d="M236 234l5 7 1 6c-2-1-3-1-3-5-1-3-3-5-3-8z"/>
      <path stroke="none" d="M289 263c1 2 2 5 4 4l-4-4zm3 1c4 2 7 1 7 4-3 0-4-2-7-4zm-16-13l5 8 4 8c-3-2-5-5-6-8l-3-8zm3 0c3 2 5 5 6 8l3 8c-3-2-4-5-5-8 0-3-2-5-4-8zm9 7l1-1 3-1 1 1v2l-1 1-2 1-1-1-1-2zm11 0l-1-1h-2l-1 1v3h4v-3z"/>
    </g>
    <use x="-600" xlink:href="#a" transform="scale(-1 1)"/>
    <g stroke="none">
      <path d="M329 287v3c-4-2-9-1-13 1-2 1-4-1-2-3 3-2 10-1 15-1zm-58 0v3c4-2 9-1 13 1 3 1 4-1 3-2l-5-2h-11zm4-22c-1-1-3 0-4 1l-14 12c-1 1-3 4 4 6l8 2 1 2-1 3c-2 0 0 2 1 1 3-3 9-1 15 1 1 0 4 0 4-2l2-4 18 1c2-1 2 2 3 4h6c4-2 10-2 12 0 1 0 2 0 1-1l-1-2c-1-2 0-3 1-3 11-1 15-5 11-8l-13-12c-1-2-2-2-4-1-7 3-17 6-26 6-8 0-19-4-24-6z"/>
      <path d="M327 266h-2c-9 3-17 5-26 5-8 0-17-2-25-5h-2l-12 11v2c9 3 17 8 40 8s32-5 39-8l1-1v-2c-4-3-9-6-12-10h-1zm0 0h1c3 5 7 7 12 11v1l-1 1c-8 2-16 8-39 8s-31-6-40-9v-1a116 116 0 0 0 13-11h1c8 3 17 6 25 6a77 77 0 0 0 28-6z" fill="#bd6b00"/>
      <path d="M270 115c0-2 2-2 2 0-1 2 4 8 4 12 1 2-1 5-3 6-2 2-5 1-7 0l-1-4c1 0 2 4 4 4 3 0 6-3 6-5 0-4-5-10-5-13zm9 9c1 0 2 1 1 2l-1-2zm2-3l-1-1 4-3v1l-3 3zm12-10l3-2v1l-2 1h-1zm5 0l2-4 1 1-3 3s-1 0 0 0zm-4 3h2c1 0 0-3-1-1l-1 1zm-7 5c-2-1 0-2 1-1 3 2-4 9-7 13-1 1-2-1-1-2l7-7v-3zm15-7l-2-1h3c1 1 0 4-2 4s-5 2-5 3l9 1c2-1 1 1-1 1l-4 1c-2 0-3 3-4 4l-1-1 3-4-3-1v-2l4-4c2 1 3 0 3-1zm5 1l1-2 1 1-1 1h-1zm6-3l1 2-1-2zm-2 5c0 2 1 2 2 2 2 0 3 0 3-2l-1-1-1 2h-1l-1-1h-1zm-9 8l1 4 5-6h1v7l4-2v-6l1-1v8c0 1 3 2 3-1 1-1 2-3 0-5-1-2 1-1 2 0v5c0 2-2 4-3 4l-3-2-3 2c-4 0-2-5-3-5-1-1-3 5-4 4-1 0-3-4-2-5 0-2 1-2 1-1zm17-8c-2-1 0-4 1-3l4 7 1-5c1-2 2-1 2 0l-2 7c1 3 3 5 3 8h-1l-2-6-2 7h-1l2-9-5-6z"/>
      <path d="M322 131s-1 1 1 2c3 0 7-1 8-4l2-8 2-4c-1-2-2-1-2 0l-3 11c-2 3-4 4-8 3z"/>
      <path d="M328 119l-1 1 2 1 2-1-1-1h-2zm1-3v1l4-1-1-1-3 1zm9 2a612 612 0 0 1-5 12l5-12zm-8 15c0-1-1-2-1 0 0 4 5 3 7 1 1-1 0 5 2 5 1 1 3-1 4-2l7-12c1-1 0-2-1-1-2 4-5 11-8 13s-2-2-2-3-1-2-2-1-3 2-4 1l-2-1z"/>
      <path d="M340 126s-2 0-1 1l1 1v-2zm-3 4v2l4-1v-1h-4zm-62-16l2 2-2-1v-1zm-5 10c-1 1 0 2 1 1 3-1 7-3 8-7l3-4c1 0 2 2 3 0h3l1-3h-2v1l-1 1v-1h-1c-1 1-1 2-2 1s-2-3-2 0l-3 2c-1 0-1-3-3-2l-1 3 4 1c-1 3-5 6-8 7zm-23 13l1 2 1-2h-2zm4 5c-1 0-2 1-1 2h3v-6l4 3c3 0 2-5 5-4 2 0 2-2 2-4l-4-5c-1-1-2 1-1 2l3 4c1 1-1 2-2 2l-3-5c-1 0-2 0-1 1l3 4-2 3-4-4-1 1v5c0 2-1 2-1 1zm-4-8l1 1 1-3-3-2c0 2 3 2 2 2l-1 2zm4-9s0 3 1 2-1-2-1-2zm1 4l-1 1h3c0-1 3 0 2-3l-2-1c0-1-1 0 0 0l1 2h-2v1h-1zm5-9l-1 2h1l1-2h-1zm3-1c-1-1 1-2 2 0l6 10c1 2 0 2-1 1l-7-11zm5 1l3-4-2-1v1l-1 3v1zm78 3c0-1 1-3 2-2 2 3 3 11 4 18l-1 1c0-4-2-15-5-17zm-53-9c-1-2 1-2 2-1 1 6 4 10 6 14 1 1 1 2-1 1l-3-4c-1 0-4 5-9 3-2 0-2-4-2-6h1c0 2 0 5 2 5 2 1 6-2 7-4s-2-6-3-8z"/>
      <path d="M345 138l6-12c1-1 2 1 1 3-2 1-6 8-6 10-1 1-2 1-1-1z"/>
      <path d="M354 129c1-4 4 1 2 3-4 4-5 10-10 11l-5-1c-1 0 0-2 1-1h5c4-3 6-7 7-12zm-57 13l-1 1v3c0 2-1 2-1 1v-5l2-1v1z"/>
      <path d="M297 140l-5 3v3l-2 1-1-1-2 2-1-2c2 0 2-2 3-2l1 1 2-3 4-3v1zm5 5l-1 2 2-1c0-1 0 3 2 1 1-1 3 1 4-1v-2h-1l-1 2v-2h-1l-1 2-1-1h-2zm9-3l2-1v1l-1 1v4h-1v-5zm-5-3v3h1v-2l-1-1zm-6-9l-2 6-2-4v4l-4-5 1 5-4-3 2 4-7-5 5 5-6-2 4 3-9-3 9 4c3-2 8-3 12-3 5 0 10 1 13 3l9-4-9 3 4-3-6 2 5-5-7 5 2-4-4 3 1-5-4 5v-4l-2 4-1-6z"/>
    </g>
  </g>
  <path d="M292 252v2h-1v-2a9 9 0 0 0-2-4l1-2 1 1v2a9 9 0 0 1 1 3m6-4v1l-1 1v1a6 6 0 0 1 0 2v1a8 8 0 0 0-1-2 34 34 0 0 0-1-2l-1-2 1-2 1 1 1 1 1-2a9 9 0 0 0 0 2m6 4v2l-1-1v-2h-1l-2-1 1-3 1-1 1 1v2l1 2v1m-2-3v-1h-1v1h1m9 3l-1 2-1-2-1-4a48 48 0 0 1-2 6h-1v-2l1-2 1-1v-3h1l1 3a8 8 0 0 0 2 3" fill="#fff"/>
  <path d="M329 275l1 1v1h-1a7 7 0 0 0-2-2 43 43 0 0 0-4-4v-2l2 2a42 42 0 0 1 4 4m-9-6v2h-3v-2h3m8 9l-7 2-2-2 7-2-1-1h-1v1h-4l-1-3 1-1h3l3 3 2 3m-6-4v-1l-1 1v1a1 1 0 0 0 1-1m-7-2l-1 2h-3l1-2h3m7 8h-5l-1 1h-3l-1-1 1-1h2l-1-1h-1v-2l1-1h3l1 1v2h3l1 2m-8 1l-1 1-2-1-2-2-1-2v-1l-1-1v-2l2 1v2l1 1 1 2 1 1 2-1v2m-6-7l-1 2-3-1 1-1h3m1 8l-7 1v-2l6-1-1-1h-1l1-2 1 1 1 2v2m-5 1h-2l-2-1a5 5 0 0 1-3 1h-2l-1-1h-2l-2 1h-1v-2h2l2-1 1-1a26 26 0 0 0 0 1h1l1 1h3l1-1v-1h1v2a8 8 0 0 0 2 0l-1-1v-1l1-1 1 1v4m-11-8l-2 1-1-1-1 1-2-1 2-1 1 1 1-1 2 1m-3 7l-7-1 1-2 6 1v-1h-1l2-2v4l-1 1m-6 0l-1-1-1-1v-2l1-2 1-2h-1l3-2v2l-1 1-1 2v2l2 1-2 2m-3-8l-2 1-2-1 2-1 2 1m-1 6l-2 2h-6l-3-2v-2l2-2 3-1h1l-3 1-1 1v2l3 1 3 1 2-1 1-1v-1l2-2v2l-1 1-1 1" fill="#bf0000"/>
</svg>
