<svg xmlns="http://www.w3.org/2000/svg" width="1200" height="600">
  <clipPath id="a">
    <path d="M0 0v150h700v150H600zm600 0H300v350H0v-50z"/>
  </clipPath>
  <path fill="#00247d" d="M0 0h1200v600H0z"/>
  <path d="M0 0l600 300m0-300L0 300" stroke="#fff" stroke-width="60"/>
  <path d="M0 0l600 300m0-300L0 300" stroke="#cf142b" stroke-width="40" clip-path="url(#a)"/>
  <path d="M300 0v350M0 150h700" stroke="#fff" stroke-width="100"/>
  <path d="M300 0v350M0 150h700" stroke="#cf142b" stroke-width="60"/>
  <path d="M0 300h600V0h200v400H0z" fill="#00247d"/>
  <path fill="#cc3" d="M781 154c0 149 11 202 52 243 41 40 56 47 68 53 13-7 28-15 65-52 36-37 54-89 54-247-27 12-40 16-63 16-17 1-44-10-60-17-10 7-25 14-52 15-31 2-41-3-64-11z"/>
  <path fill="#fff" d="M788 163c0 46-3 109 7 146 10 36 12 41 19 54l171-1c11-19 11-30 19-59s10-94 10-143c-17 9-39 15-61 12-18-1-34-5-53-15-16 10-22 14-49 15-21 1-38 3-63-9z"/>
  <path fill="#9cf" d="M815 362c12 25 69 71 86 81 19-11 70-57 84-81H815z"/>
  <path fill="#f90" d="M904 232c6 12 23 25 28 32-6 6-8 6-7 18 11-11 11-12 18-10 15 14 2 44-10 51s-10 0-28 9c8 6 18-2 26 1 4 5-2 13 1 22 7-1 6-14 8-19 5-18 36-31 38-48 6-2 13 0 21 4-4-16-17-16-21-20-8-13-15-27-33-30-14-3-13 1-22-5-5-4-21-12-19-5z"/>
  <path fill="#f90" d="M861 283c9-10 13-31 17-38 9 2 9 3 20-3-15-4-16-4-18-10 6-19 40-23 52-16s4 9 21 20c3-10-9-15-11-23 3-6 14-4 20-11-4-6-16 1-21 2-20 4-46-16-62-10-6-4-7-10-7-19-12 11-6 22-9 27-7 13-17 25-12 42 4 13 7 10 6 20-1 7-1 24 4 19z"/>
  <path fill="#f90" d="M932 290c-14-2-35 6-43 6-3-8-2-9-13-14 4 14 5 14 0 19-21 5-42-21-41-34 0-14 5-8 7-28-11 4-9 16-15 21-6 1-11-9-21-10-3 6 10 12 14 16 13 14 9 45 23 55-1 7-6 11-14 16 16 4 22-6 29-7 15 0 31 1 44-12 9-10 5-11 15-15 6-2 22-12 15-13z"/>
  <circle fill="#fff" cx="266" cy="122" r="1" transform="matrix(3.50845 0 0 3.34488 6 -163)"/>
  <circle fill="#fff" cx="266" cy="122" r="1" transform="matrix(-1.639 -2.95744 3.10207 -1.56258 914 1224)"/>
  <circle fill="#fff" cx="266" cy="122" r="1" transform="matrix(-1.80698 2.86712 -3.00733 -1.72273 1749 -240)"/>
</svg>
