<svg xmlns="http://www.w3.org/2000/svg" xmlns:xlink="http://www.w3.org/1999/xlink" width="700" height="500">
  <path fill="#e41e20" d="M0 0h700v500H0z"/>
  <path id="a" d="M300 97c-5 0-13 2-13 5-13-2-15 4-14 9l4-4 6 2 5 4h-12l-6-2-5-5c-3-3-6-2-5 2 2 5 6 7 11 7l9 1h10c-1 1-3 3-6 3-3 1-8-2-11-2 1 2 4 4 10 6 10 2 18 3 24 6 5 3 9 7 11 10 5 6 5 10 5 11 1 10-2 15-8 16-3 1-8 0-10-3-2-2-4-6-3-12 0-2 3-9 1-10l-34-16c-3-1-5 3-6 4-16-2-30-13-37-24-4-8-12 0-11 7 2 8 9 14 16 19 8 4 18 8 28 8 5 1 5 8-1 9-13 1-23 0-32-9-7-7-11 1-9 6 3 13 23 17 42 13 8-1 4 7 1 7-8 6-23 11-36 0-6-5-10-1-7 6 5 17 27 13 43 5 3-2 7 3 2 6-19 14-28 14-36 9-11-5-12 7-6 11 7 4 25 1 38-7 6-4 6 2 3 5-16 13-22 17-38 15-8-1-8 9-2 13 9 5 26-4 39-15 5-2 6 2 3 8-8 10-15 16-22 19-8 3-15 2-19 0-6-2-7 5-4 10 2 4 10 5 19 2s19-11 25-20c6-5 5 2 3 7-13 21-25 28-41 27-7-1-9 4-4 9 7 7 17 7 26 0 8-7 22-23 30-32 5-4 7 0 6 9-2 5-6 11-15 14-7 4-2 10 3 10 3 0 8-4 13-8 5-7 6-11 9-21 3-5 8-3 8 2-2 10-5 12-10 16-5 5 4 6 6 5 9-6 12-13 14-19 2-5 8-3 5 5-6 18-16 25-34 29-2 0-3 1-3 3l8 7-32 9-15-10c-2-4-2-9-11-5-5-3-8-2-11 1 5 0 7 1 8 3 3 6 8 6 13 5l9 8-17-1c-7-6-11-6-16-1-3 1-5 1-7 5 4-2 6-2 8 0 6 3 10 3 14 0l18 1-8 5c-9-3-14 1-16 8-1 3-2 7-1 10 1-3 2-6 5-7 8 2 11-2 12-7l14-7 12 4c2 5 5 7 12 6 7 0 6 3 6 6 2-4 2-7-2-10-2-5-6-7-10-4-5-2-6-4-11-5 12-4 20-4 31-8l8 7h4c7-10 11-20 17-26 3-3 6-7 10-8l5 1 2 9c-1 6-2 8-4 11l-6 9c-4 6-10 9-13 11-6 4-9 2-14 2-7 1-9 4-3 9 5 2 9 3 13 2l10-7c3-4 7 1 4 5-6 7-12 12-20 12-8 1-6 5-1 7 10 4 18-3 23-8 3-4 5-4 5 2-4 10-8 14-16 15-6-1-6 4-1 7 10 7 17-5 20-12s7-3 7 2c0 7-3 13-12 20l21 32 20-223-20-35-11-12v-1l5-1c-5-4-8-6-16-8l9-1c-2-3-7-8-14-10l10-7-20-4-13-4zm1 9c4 0 6 1 6 3s-2 3-6 3-7-2-7-3c0-2 3-3 7-3z"/>
  <use xlink:href="#a" transform="matrix(-1 0 0 1 700 0)"/>
</svg>
