<svg xmlns="http://www.w3.org/2000/svg" xmlns:xlink="http://www.w3.org/1999/xlink" width="450" height="300">
  <path d="M0 0h450v300H0z"/>
  <path fill="#ce1126" d="M0 0h450v150H0z"/>
  <g fill="#f9d616">
    <path d="M231 92a59 59 0 1 1-43 103l-9 11a72 72 0 1 0 54-128z"/>
    <g id="b">
      <path id="a" d="M303 142v16l-15-2v-12z"/>
      <use xlink:href="#a" transform="rotate(23 225 150)"/>
      <use xlink:href="#a" transform="rotate(45 225 150)"/>
    </g>
    <use xlink:href="#b" transform="rotate(-67 225 150)"/>
    <use xlink:href="#b" transform="rotate(68 225 150)"/>
    <path d="M199 115h52l-42 30 16-49 16 49zm89 101l13 11 9 10c3 5-1 12-6 8-3-2-5-7-9-12-3-3-6-5-14-7v-1z"/>
    <path fill="#000" d="M231 198l21 12 4 17 23-2 10-12-37-26-21 11z"/>
    <path d="M280 224c-26-18-43-27-68-41-10-6-25-20-13-43 1 15 62 57 87 76z"/>
    <path fill="none" stroke="#000" stroke-width="2" stroke-linecap="round" d="M216 168c20 18 45 34 68 51"/>
    <circle id="c" cx="290" cy="222" r="1" fill="#000"/>
    <use xlink:href="#c" x="7" y="6"/>
    <use xlink:href="#c" x="14" y="13"/>
  </g>
</svg>
