<svg xmlns="http://www.w3.org/2000/svg" height="504" width="720" version="1" xmlns:xlink="http://www.w3.org/1999/xlink" viewBox="-2100 -1470 4200 2940">
  <defs>
    <path id="i" fill-rule="evenodd" d="M-31 0H2a30 30 0 0 0 30-30v-10A30 30 0 0 0 2-70h-33zm13-13H1a19 19 0 0 0 19-19v-6A19 19 0 0 0 1-57h-19z"/>
    <path id="j" transform="translate(-31)" d="M0 0h63v-13H12v-18h40v-12H12v-14h48v-13H0z"/>
    <path id="l" d="M-26 0h52v-12h-40v-16h33v-12h-33v-11h39v-12h-51z"/>
    <g id="m">
      <clipPath id="b">
        <path d="M-31 0v-70h63V0zM0-47v12h32v-12z"/>
      </clipPath>
      <use xlink:href="#a" clip-path="url(#b)"/>
      <path d="M5-35h27v10H5z"/>
      <path d="M22-35h10V0H22z"/>
    </g>
    <path id="k" d="M-31 0h12v-48L-5 0H6l14-48V0h12v-70H14L0-22l-14-48h-17z"/>
    <path id="a" fill-rule="evenodd" d="M0 0a32 35 0 0 0 0-70A32 35 0 0 0 0 0m0-13a19 22 0 0 0 0-44 19 22 0 0 0 0 44"/>
    <path id="c" fill-rule="evenodd" d="M-31 0h13v-26h28a22 22 0 0 0 0-44h-40zm13-39H9a9 9 0 0 0 0-18h-27z"/>
    <g id="h">
      <use xlink:href="#c"/>
      <path d="M28 0c0-10 0-32-15-32H-6c22 0 22 22 22 32"/>
    </g>
    <path id="n" d="M-16-22c0 7 7 11 17 11s15-4 15-8c0-14-47-5-47-30 1-22 25-21 34-21s26 4 26 21H14c0-7-7-10-15-10s-14 1-14 9c0 11 47 4 47 28C32-3 14 0 0 0c-11 0-32-4-31-22z"/>
    <g id="f" fill="#fff">
      <g id="e">
        <path id="d" transform="rotate(18 0 -1)" d="M0-1v1h1"/>
        <use xlink:href="#d" transform="scale(-1 1)"/>
      </g>
      <use xlink:href="#e" transform="rotate(72)"/>
      <use xlink:href="#e" transform="rotate(-72)"/>
      <use xlink:href="#e" transform="rotate(144)"/>
      <use xlink:href="#e" transform="rotate(216)"/>
    </g>
    <use id="o" xlink:href="#f" transform="scale(31.5)"/>
    <use id="p" xlink:href="#f" transform="scale(26.25)"/>
    <use id="r" xlink:href="#f" transform="scale(21)"/>
    <use id="q" xlink:href="#f" transform="scale(15)"/>
    <use id="s" xlink:href="#f" transform="scale(10.5)"/>
  </defs>
  <rect y="-50%" x="-50%" height="100%" fill="#009b3a" width="100%"/>
  <path d="M-1743 0L0 1113 1743 0 0-1113z" fill="#fedf00"/>
  <circle r="735" fill="#002776"/>
  <clipPath id="g">
    <circle r="735"/>
  </clipPath>
  <path fill="#fff" d="M-2205 1470a1785 1785 0 0 1 3570 0h-105a1680 1680 0 1 0-3360 0z" clip-path="url(#g)"/>
  <g transform="translate(-420 1470)" fill="#009b3a">
    <use y="-1698" xlink:href="#a" transform="rotate(-7)"/>
    <use y="-1698" xlink:href="#h" transform="rotate(-4)"/>
    <use y="-1698" xlink:href="#i" transform="rotate(-1)"/>
    <use y="-1698" xlink:href="#j" transform="rotate(2)"/>
    <use y="-1698" xlink:href="#k" transform="rotate(5)"/>
    <use y="-1698" xlink:href="#l" transform="rotate(10)"/>
    <use y="-1698" xlink:href="#c" transform="rotate(15)"/>
    <use y="-1698" xlink:href="#h" transform="rotate(18)"/>
    <use y="-1698" xlink:href="#a" transform="rotate(21)"/>
    <use y="-1698" xlink:href="#m" transform="rotate(24)"/>
    <use y="-1698" xlink:href="#h" transform="rotate(27)"/>
    <use y="-1698" xlink:href="#j" transform="rotate(30)"/>
    <use y="-1698" xlink:href="#n" transform="rotate(33)"/>
    <use y="-1698" xlink:href="#n" transform="rotate(36)"/>
    <use y="-1698" xlink:href="#a" transform="rotate(39)"/>
  </g>
  <use y="-132" x="-600" xlink:href="#o"/>
  <use y="177" x="-535" xlink:href="#o"/>
  <use y="243" x="-625" xlink:href="#p"/>
  <use y="132" x="-463" xlink:href="#q"/>
  <use y="250" x="-382" xlink:href="#p"/>
  <use y="323" x="-404" xlink:href="#r"/>
  <use y="-228" x="228" xlink:href="#o"/>
  <use y="258" x="515" xlink:href="#o"/>
  <use y="265" x="617" xlink:href="#r"/>
  <use y="323" x="545" xlink:href="#p"/>
  <use y="477" x="368" xlink:href="#p"/>
  <use y="551" x="367" xlink:href="#r"/>
  <use y="419" x="441" xlink:href="#r"/>
  <use y="382" x="500" xlink:href="#p"/>
  <use y="405" x="365" xlink:href="#r"/>
  <use y="30" x="-280" xlink:href="#p"/>
  <use y="-37" x="200" xlink:href="#r"/>
  <use y="330" xlink:href="#o"/>
  <use y="184" x="85" xlink:href="#p"/>
  <use y="118" xlink:href="#p"/>
  <use y="184" x="-74" xlink:href="#r"/>
  <use y="235" x="-37" xlink:href="#q"/>
  <use y="495" x="220" xlink:href="#p"/>
  <use y="430" x="283" xlink:href="#r"/>
  <use y="412" x="162" xlink:href="#r"/>
  <use y="390" x="-295" xlink:href="#o"/>
  <use y="575" xlink:href="#s"/>
</svg>
