<svg xmlns="http://www.w3.org/2000/svg" width="900" height="600">
  <path fill="#ffd520" d="M0 0h900v600H0z"/>
  <path d="M0 600h900V0z" fill="#ff4e12"/>
  <g stroke="#000">
    <g fill="#fff">
      <path d="M482 188c-5-2-8 0-8 7 0 6 3 10 8 8v-15z"/>
      <path d="M486 176c-4-4-8-2-10 4s0 11 6 10l4-14z"/>
      <path d="M493 164c-4-4-8-3-10 2-3 6-2 11 3 11l7-13zM489 221c-7 2-7 10-3 15 3 6 11 6 14 0l-11-15z"/>
      <path d="M481 203c-5-2-11 6-11 13-2 9-14 12-7 25 1-9 7-13 11-14 5 0 12-1 15-6l-8-18zM500 237c-7 2-8 11-3 17 4 6 17 5 17-1l-14-16zM519 292c0-6-9-8-14-7-4 1-13-1-15-5-1 4 1 8 8 10 4 1 4 5 3 7 4 0 15 0 18-5z"/>
      <path d="M514 255c-7-3-11 1-13 5-4 7-16-1-19 7 5-2 10 3 13 4 7 5 20 3 22-8l-3-8z"/>
      <path d="M517 262c-6 5-9 11-9 15 1 4 6 13 12 14 4-8 6-23-3-29zM490 293c0-2 4-3 6-2s6 3 5 6l-11-4zM454 280c-1-3 4-8 10-5s7 8 5 10l-15-5z"/>
      <path d="M469 285c0-1 4-4 12-2 7 1 9 6 9 10l-21-8zM453 280c4-3 2-9-1-10-7-4-4-12-9-14-4-1-8-4-8-7-2 4-1 8 2 10 3 3-2 13 2 16l14 5zM367 278c-4-5-12-4-15-1-4 4-3 9 0 12l15-11zM386 270c-1-7-10-8-15-6-4 2-7 9-4 14l19-8z"/>
      <path d="M399 269c3-6-3-15-10-16-5-1-12-1-14-7-2 5 2 8 6 11s-1 10 6 14l12-2z"/>
      <path d="M398 269c-1-4 2-10 7-9 6 0 10 4 7 10l-14-1z"/>
      <path d="M411 270c-1-5 3-10 9-9s8 6 5 11l-14-2z"/>
      <path d="M424 272c-1-5 3-10 9-8 5 1 8 6 4 11l-13-3zM327 345c-11 0-14 3-15 14-2 14 17 15 15-14z"/>
      <path d="M332 331c-17-6-26 20-42 15 5 9 20 0 25 1 9 2 28-2 17-16zM321 367c-8-4-17 9-16 14 2 7 21 1 16-14zM282 421c5 1 10 4 9 12-1 9-17 27-32 28s-20 19-33 14c12-3 12-16 22-20-7-3-11 13-19 13-9 0-13 13-24 12-10-1-12 17-33 17-16 1-36 20-43 11 15-2 22-11 31-20 15-16 32-9 38-22-7 4-15 7-23 6-10 0-21 16-32 9 7-1 11-3 18-11 7-7 17-2 25-10 12-11 23-1 35-16-3-2-10 0-17 3-7 4-16-2-23 2 1-10 19-4 30-11 13-7 23-5 33-4-14 0-19-13-38-10-9 2-16-11-24-4 0-5 9-9 18-5 9 5 13-4 31 7 7 5 20-2 28 3-1-4-6-5-11-5 3-7 25-6 34 1z"/>
      <path d="M297 410c-7-5-17 2-24-1 0 4 2 11 10 14l14-13z"/>
      <path d="M308 395c-11-6-13 8-22 5 0 4 4 9 11 10l11-15z"/>
      <path d="M314 382c-16-6-18 9-28 6 3 6 16 9 24 7l4-13zM337 313c-4-6-14-1-15 6s2 17 8 15l7-21z"/>
      <path d="M348 294c-7-2-16-1-15 6-3 1-4 11 4 13l11-19z"/>
      <path d="M353 289c-7-9-16-9-20-5-9 7-17 3-17 10 5-4 9 0 14-1 4-2 7 6 18 3l5-7zM335 419c1 2 8 3 12-1 4-5-1-18-8-19s-8 15-4 20z"/>
      <path d="M327 419c10 4 15-5 9-10l-9 10z"/>
      <path d="M289 433c-2 6-12 7-23 25s-22 10-25 22c14-11 24-3 32-14 13-16 23-14 27-25 7-16 37-16 38-40-10-2-41 24-49 32zM543 189c13 5 13 21 28 27 15 5 17 18 29 15-12-3-11-16-23-19-13-4-19-25-30-28M602 277c3 5 2 14-6 17 5 2 11 0 15-6-6 11-2 22 6 24-4-8 5-12 2-17 6 2 10 9 10 14 7-8-5-18-3-25l-24-7zM519 360c-8-7-11 1-15-2s-9-3-11 0c7 0 4 5 17 7-13 1-11 15-19 14 9 9 14-7 21-5-2 1 4 6 0 13 6 0 9-9 10-13l-3-14zM345 435c-3-3-11-4-14-2s-2 2 2 3c3 0 8 6 0 7-4 0-3 9-11 10 4 4 13 1 16-3 0 3 5 7 3 11 6 1 2-12 12-11-4 0-3 9 4 7-4 2-2 6 3 5-3 1-4 5 0 7 4-5-1-24-15-34zM696 257a22 22 0 1 0 0-45 22 22 0 0 0 0 45z"/>
      <path d="M579 284c7-6 17-10 24-5 8 5 31 11 43 3 11-8 17-12 22-12 4 6 8 9 14 10l12 3c5 1 11-1 16-6 8 1 15-5 18-14 8-1 9-10 3-16-4-1-1-17-18-14 7 5 2 14 8 18-5 0-10 2-11 8 1-4 0-7-2-8 1-4-8-13-15-10 5 1 2 10 6 14-3 0-6 1-8 4-2-4-9-8-14-8v-5c-2-4-4-9-3-14-4 4-7 10-9 14-6-4-22 2-29 3-7 2-31-2-36-8-6-6-16-9-26-12-14-4-14-19-29-29 0 18 28 78 34 84zM422 426a22 22 0 1 0 0-43 22 22 0 0 0 0 43z"/>
      <path d="M370 410c4 5 12 5 15 5 2 6 11 6 14 10 4 4 16 3 19 1-3 0-7-2-11-5-5-5-3-13-7-16 3-3 4-8 3-10l6-6c5-1 10-3 12-5 2 2 9-1 13 3 1-11-9-16-16-13-3-1-10 0-11 2-3-1-9 2-12 4 4-2 4-7 3-9 2-1 6-5 6-7l12-2c-4-5-11-7-18-7-7 1-11 6-12 11-4 3-5 12-4 15l-6 3-11-2M366 373c-1-4 1-8 2-11 2-9 1-11-7-10 0 4 3 18 5 21z"/>
      <path d="M361 353c2 2 9 3 9-3 1-7-2-10-8-7l-1 10z"/>
      <path d="M362 342c3 1 8 4 11-2 3-5 0-9-6-9l-5 11z"/>
      <path d="M367 331c1 1 7 8 12 3 5-4 5-11-2-14-2 0-8 7-10 11z"/>
      <path d="M377 320c1 4 6 11 14 8s5-14 1-16c-2 0-12 4-15 8z"/>
      <path d="M392 312c-1 4 0 13 11 13 12 0 9-13 6-15-5 0-13 0-17 2z"/>
      <path d="M409 310c-1 3-4 21 18 16 3-1 11-17-18-16z"/>
      <path d="M421 312c-2 2 4 20 19 17s2-20-19-17z"/>
      <path d="M434 314c-2 5 1 20 20 20 17 0-1-19-20-20z"/>
      <path d="M449 319c-1 3-3 18 19 20 16 1 12-22-19-20z"/>
      <path d="M473 325c-3 5-6 17 18 18 16 1 6-17-18-18z"/>
      <path d="M493 329c-4 5-1 14 8 16 11 2 13-8 5-13s-13-3-13-3z"/>
      <path d="M504 331c-3 5-1 16 16 16 3 0 17-14-16-16zM371 541a25 25 0 1 0 0-50 25 25 0 0 0 0 50z"/>
      <path d="M555 177l-7 10c-8 25 14 44 27 71 11 21 9 55-7 76-5 7-4 9-11 17-2 3-5 6-4 16 4-1 11 3 12 7 3-2 8-1 9 0 6-2 10-1 15 4 4 0 9 0 13 5 2-5 7-6 10-5-1-6 5-10 10-8-1-8 6-14 13-11 5-5 17-5 23 2-10-3-10 8-19 7 2 6-3 10-9 12 4-2 8-4 9-2 3-2 10-1 11 0 4-1 8 0 10 5 6 3 10 12 6 19-1-7-6-7-8-9-5 1-9 1-10-2-3 3-12 5-16 1-1 6-6 11-12 11 2 4-3 12-6 16 5 3 4 9 2 13 9 1 2 9 16 14-7 2-21 0-23-9-7 0-12-7-11-15-6-5-7-12 1-18-7 2-10-8-19-4-5 2-17-1-17-6-2 4-14 2-15-3-4 2-13-2-13-7-5 2-12-2-12-7-4 0-5-5-4-8-5-2-3-6-2-11-3-3-1-8 1-12-3-3-3-7-2-11-15-2-35-5-79-19-67-21-85 28-70 58 17 35-2 42 4 68 6 2 9 7 9 12 3 0 6 4 5 10 3 0 7 1 9 3 2-4 10-5 14 0 8-1 12 6 12 14 4 8 3 18-2 25v-12c0-5-8-6-7-10-4 0-8-2-9-5-2 2-5 3-8 2 4 2 8 9 6 14 3 4 2 11-1 14-1 7-6 9-12 6 3-2 5-6 5-9-3-2-4-6-4-8-6 1-15-5-17-7-13 0-25 11-25 25 0-5-7-10-6-14-4-12 2-23 17-26-1-4 5-9 3-14-4-7-10-15-19-25 6-9 4-22 1-30-5-11-9-8-25 10-27 29-63 21-94 41-9 5-17 7-8-2s33-18 48-26c29-15 54-39 63-86 23-110 106-74 159-53 50 19 41-25 16-51-30-32-24-57-10-77 25-3 74 6 64 14z"/>
      <path d="M645 448a28 28 0 1 0 0-55 28 28 0 0 0 0 55z"/>
    </g>
    <g fill="none">
      <path d="M540 178c-6 27-1 40 8 52 18 24 33 80 12 117"/>
      <g stroke-linecap="round">
        <path d="M572 315c2-1 7-4 8-9M574 304c1-5 8-7 8-12M574 285c-1-4 7-9 6-14M570 268c-1-3 6-8 4-12M564 251c-1-3 4-6 2-10M557 238c-1-2 2-7 1-10M549 222c1-1 3-3 2-5M544 210c1-1 4-1 4-4"/>
        <path stroke-linejoin="round" d="M383 514c-7-3-15 1-17 6M371 525c1-5 9-8 12-5-5-3-8 7-3 7M423 398c-4 2-5 9 0 14M429 399c-3 3-3 9 1 11-3-3 0-7 3-7 2 0 4 3 1 6M655 415c-9-2-16 8-8 18 0-9 6-15 14-14M658 425c-3 0-4 2-4 4s2 3 4 3 3-1 3-3M689 228c2 5 9 8 15 6M704 231c-4 0-8-4-8-8 0 3 6 4 8 2"/>
        <path d="M385 415c-1-4 4-7 4-10s6-5 11 0M398 371l-3 2M409 389l-6-1M403 395l-5 2M348 492c0 3 3 7 4 8M361 485c-2 2-3 7-2 10M385 495c-3-2-1-7-2-10 0-4 4-9 11-4M357 476l8 1M394 467l-2 5M408 467c-3 0-4 1-5 3M376 384c3 1 10 5 10 10M404 364c-8-1-11-9-5-9M418 374c-3 2-2 7 3 9M399 425c-1-2 1-8 6-6M411 484c0-5 6-8 9-3M388 498c0-6 2-8 5-8 2 0 6 2 7 5M340 502c0-4 3-7 6-6M635 359c-2 1-4 8 4 9M622 370l2 2M660 383c-2-2-7 5-2 10M609 437c-1-5 3-6 7-5M599 404l8-4M598 422c0-4 2-7 3-8M612 378c-1 4 1 9 3 11M650 378l-5 4M648 391l3-3M708 251c0 4-5 7-9 4M721 251c2 2 11 0 9-5M710 277c-2-1-5-2-6-4M728 263h-6M682 280c2 0 6-1 8-3M677 251l-4 1M710 259c-1 2-2 5-4 6"/>
        <path stroke-linejoin="round" d="M672 266c4-2 9 12 19 7M691 259l-2 7"/>
      </g>
      <path d="M499 238l4-2M333 388c5 3 8 7 6 14M555 223h9M568 226c0 3 1 11-4 13M566 238c4 1 12 1 15-7M575 237c2 4 3 10-3 13M577 243c4 1 15 2 14-8M587 243c4 4 18 10 15 0M574 256c6 1 14-3 10-12M600 249c1 3 19 7 16-1M613 253c3 7 21 7 15-4M626 257c3 5 19 2 13-8M638 257c10 8 22-3 9-11M653 255c9 7 19-6 12-9M584 252c3 1 9 0 10-5M592 251c-1 7 12 10 15 2M603 257c2 5 13 7 15 0M616 260c2 5 11 5 14 0M626 263c3 6 15 6 18-3M642 264c4 3 14 2 13-7M654 263c6 6 16 0 11-9M665 270c4 0 6-8 2-9M579 272c8-4 9-11 4-18M586 265c5 3 14 0 15-8M592 266c3 3 4 7 0 11M595 270c8-5 19 5 11 10M604 270c2-1 6-4 6-9M608 273c4-3 28 4 13 12M620 263c4 2 7 8 0 11M626 279c5-5 21-2 15 5M637 277c3-10 20-4 15 0M634 267c0 2 0 7-3 10M648 265c1 2 1 5-1 7M659 266c1 1 3 5-1 7M521 191c1 10 4 16 16 10M525 202c-6 9 1 17 13 9M506 206c9 9 24 3 14-11M530 214c-1 9 6 11 12 7M499 208c1 9 11 16 19 10M510 220c0 13 17 14 21 1M525 229c6 12 18 7 22 0M513 211c2 5 7 12 17 7M481 208c1 5 9 10 19 4M487 214c-6 7 5 14 17 3M493 223c2 11 6 19 21 6M507 234c5 7 13 11 21 0"/>
      <path d="M534 236c0 8 1 12 7 12 5 0 10-4 13-9M540 248c0 9 7 16 21 7M546 259c-3 7 5 18 20 12M514 240c-1 9 7 15 20 4M520 250c1 7 9 16 21 3M526 259c-1 13 11 16 20 7M509 250c3 0 5-2 6-4M514 259c3 1 7-2 8-4M520 274c3 2 11 1 12-3M530 274c5 11 17 10 23-2M550 276c3 7 9 11 19 9M555 283c-5 9 2 20 14 9M558 297c0 5 5 12 12 13M534 280c-2 13 8 19 20 12M521 286c3 2 8 3 13 1M541 294c-3 11 8 19 18 7M525 288c0 5 6 11 15 10M567 309c-7 4-8 12 1 17M551 307c0 6 3 10 11 11M541 303c-9 9 0 19 12 11M548 317c-3 10 9 16 16 5M528 295c-3 10 1 17 9 16M516 293c0 6 5 8 11 7M519 299c-4 9 3 13 11 10M557 328c-2 5-1 9 7 11M557 335c-9 5-10 14-3 20M549 325c-5 4-4 12 2 15M507 296c-5 5 0 20 12 12M539 314c-8 7-4 18 8 15M526 310c-4 11 0 15 9 15"/>
      <path d="M499 295c-6 5-5 12-2 15 3 4 9 2 10-2M485 291c-7 9 0 21 11 17M525 319c-8 3-13 10-9 16 3 3 15 4 18-10M511 310c-4 6-3 12 5 15M511 322c-5 2-8 5-7 11M500 312c-2 8 1 12 5 15M500 321c-7 0-11 3-8 10M492 323c-7-3-8-9-5-15M486 317c-8 1-11 4-11 10"/>
      <path d="M476 287c-6 2-8 10-6 14s9 5 13 2M460 281c-5 6 1 17 10 14M447 277c-5 6 0 18 13 14M460 323c-1-8 7-14 18-3M473 304c-3 2-5 7-4 10M433 273c-5 9 2 17 13 14M463 295c-7 8-5 15 1 20M458 304c-11 0-12 13-2 18M450 291c-5 3-6 12 2 15M449 311c-4-3-10 0-10 6M442 311c-4-11-17-9-16 2M446 298c-3 1-9 2-11 6M436 286c-5 6-1 13 3 15M421 270c-1 7 2 10 10 10M424 279c-3 8 1 12 10 12M426 289c-5 6-2 13 3 16M423 297c-9-1-10 10-7 15"/>
      <path d="M416 269c-6 3-9 10-6 14 3 5 9 3 13 1M412 285c-4 7 0 13 5 15"/>
      <path d="M394 269c-4 3-1 11 8 11 7 1 11-6 8-11M400 280c-2 7-1 14 10 13M415 303c-7-3-16 0-12 8M402 291c-3 4-2 10 1 13M402 302c-5 1-9 3-7 10M395 306c-6-2-13 3-9 9M385 309c-5-1-11 4-6 10M377 314c-4 2-10 7-5 11M400 289c-7 3-7 10-4 16M393 276c-10 4-9 16 1 20M390 294c-6 3-7 9-3 14M380 271c-4 1-4 13 6 13M369 275c-8 5 2 18 14 9M376 287c-1 5 0 11 9 12M377 294c-6 2-8 15 3 16M357 283c-8 7 7 13 12 3M346 295c-4 4 10 17 16-4M363 291c1 5 3 8 9 8M372 304c-9 1-12 13-2 16M355 302c-1 5 4 8 9 7M369 319c-8 2-10 13-2 13M363 342c-7-2-7-10-1-14"/>
      <path d="M357 335c-6 3-4 12 0 14 3 1 5-1 6-3M362 358c1 4-15 2-7-11M355 359c-5 8 4 15 9 8M356 369c-2 6 6 11 11 6M339 307c-3 6 11 8 12-4M335 316c-3 11 19 9 13-6M348 318c4 1 13 1 15-8M356 318l6 8M346 321c-1 6 5 11 12 11M347 327c-4 5-5 14 6 15M330 329c-2 5 9 10 15 2M327 341c-1 4 8 9 14-7M337 342c2 4 9 8 14 0M343 346c-1 6 4 11 10 10M331 345c-1 8 8 13 14 9M325 349c-2 10 11 14 16 6M337 358c1 6 10 11 17 6M321 363c0 3 10 5 12-4M328 365c2 7 11 9 16 0M341 369c1 6 9 9 16 5M360 376c-2 9 6 15 12 11M346 375c-3 9 9 14 15 9M333 370c-1 9 5 14 13 10M318 371c-2 6 10 10 15 6M311 386c3 4 13 0 14-8M323 384c3 5 13 7 16-3M336 386c0 7 12 12 16 0M367 388c-1 3 1 9 7 10M357 386c-1 4 4 9 10 7M369 395c-2 4-1 10 5 10M369 403c-4 3-2 9 4 10M367 408c-6 4-4 13 4 13M349 391c0 9 11 10 13 2M358 398c-2 6 2 11 9 9M359 461c1 2 7-2 6-5s-8-2-8 2M363 454c1-7-7-8-9-2M357 449c2-4-5-9-8-4M351 443c2-5-6-7-6-3M343 434c1-3 10-1 6 4M356 445c3-4-3-10-6-8M380 454c-3 1-6 3-4 8s8 5 9 2"/>
      <path d="M376 457c-3-1-9 2-6 7 2 5 7 3 8 1M360 466c2 2 8 1 10-2M365 458c1-1 4 0 5 1M364 418c-4 3-1 12 6 10M363 426c-4 2 0 11 7 8M364 434c-3 3 0 10 7 8M363 438c-1-1-5-1-7 2M359 405c-4 3-2 10 5 11M358 412c-5 3-5 13 5 13M357 423c-3 3-1 11 6 10M360 433c-1 1-2 4-1 5M356 430c-2 0-6 2-7 4M345 425c1-3 9-3 9 5M355 421l-4 3M352 397c-4 4-5 13 5 15M345 418c0-3 7-5 9-1M340 403c1 2 6 5 9 3M314 388c0 4 4 9 9 8s7-5 5-8M324 396c-4 4 1 11 5 9M328 393c2-1 9-2 11 1M306 394c-2 3 8 5 11 0M314 397c0 3 1 9 9 6"/>
      <path d="M325 408c1-2-5-7-10-2-4 5 1 11 4 9M303 398c-2 4 7 11 13 4"/>
      <path d="M297 405c-3 3 1 10 6 8s5-8 3-9"/>
      <path d="M291 411c-3 3 0 9 3 9 4 0 6-3 6-7M306 411c0 3 5 6 9 3M315 407l-1-3M285 416c-3 3 3 10 8 3M309 415c-2 2 1 7 4 5M298 418c0 4 7 6 12 1M302 422c-1 2 1 5 3 5M366 442c-3 5 5 10 11 4M372 449c-2 3 0 6 2 8M364 455c1-3 4-5 7-4M360 448c0-2 3-4 5-4M549 348c-11 0-6 18 4 15M546 361c-3 4 2 10 7 6M551 368c-3 6 9 14 14 6M561 377c0 5 16 9 13-2M573 381c4 6 17 7 16-3M586 385c3 4 16 7 16-2M531 332c2 5 9 7 16 4M527 335c4 3-2 16-9 11M527 344c5 2 11 0 13-7M537 343c0 3 5 6 12 5M524 346c7 6-3 17-7 12M527 351c3 2 11 1 11-5M535 351c1 4 4 5 8 5M525 356c3 4 11 6 15 0M536 359c0 5 5 8 10 7M519 369c4 2 8-6 5-11M523 377c5 1 6-7 1-11M535 384c4-1 3-10-7-11M548 391c4-1 0-11-11-11M563 394c3-4-6-11-14-7M570 400c5 2 9-12-7-9M580 400c4-1 7-9-6-6M589 401c4 2 6-9-6-6M524 366c5 3 13-1 12-7M534 365c2 2 1 8-2 9M535 371c3 2 7 0 10-5M540 371c1 3 2 7 0 9M541 375c4 2 8-1 10-4M548 374c3 2 5 9 1 12M551 383c3 0 8 0 11-4M560 381c2 1 6 5 4 9M565 389c3 0 8-2 9-6M573 385c3 2 4 5 4 8M577 391c3 0 6-2 7-5M583 388c2 1 5 3 5 6M588 392c2 0 4-1 5-4M599 388c3 3-1 13-7 11M537 193c-6 3-23 2-14-12M539 183c-12 5-26-4-11-14M524 166c-10 0-17 16-3 21M486 173c-3 5 6 10 12 5 5-4 5-14 2-18M481 185c-4 10 20 11 16-6M479 200c1 8 23 6 16-10M498 185c1 2 6 7 14 6M501 174c1 2 6 5 12 3M282 419c-6 3 3 10 6 3M277 422c-5 4 3 10 6 3M273 425c-6 3 3 10 6 3M268 427c-5 3 1 10 6 4M263 430c-6 3 1 10 6 4M290 422c0 4 7 5 10-1M295 425c-3 3 2 7 4 6M284 425c0 3 7 5 10 2M288 429c-2 2 2 6 5 5M280 428c0 3 4 6 8 4M282 432c-1 1-1 5 2 6M274 431c-1 3 3 7 8 4M275 434c-3 2-3 5 1 6M269 434c-1 2 1 4 4 4M255 434c-3 1 4 8 8 2M248 437c-3 1 5 9 9 1M269 436c-2 1-4 5-2 6M261 438c0 1 3 4 5 3M259 438c-2 2-1 6 2 6M250 441c-2 2 0 5 3 4M255 441l3 2M243 440c-3 1-3 8 6 4M236 442c-4 2-2 8 6 3M243 445c-1 1-2 4 2 3M236 447c-2 1-1 4 3 3M227 447c-2 2 4 4 8 0M229 449c-1 1-1 5 2 4M221 451c-2 1 1 3 8 0M224 453c-3 2-2 4 1 3M217 454c-3 2 1 4 5 2M217 456c-4 2-2 6 0 4M359 469c-1 2 3 4 6 3 3 0 5-3 3-6M368 470c3 2 8 0 8-4"/>
    </g>
    <g fill="#fff">
      <path d="M546 129c-13-7-40-19-47-9 7-3 27 0 44 16l3-7z"/>
      <path d="M554 128c-15-17-24-13-35-19-10-6-26-7-29 2 15-7 28 4 37 5 11 2 18 11 21 15l6-3zM610 126c-8-18-24-13-32-21-10-11-37-21-48-13 24-1 35 17 48 23 9 4 19 14 32 11z"/>
      <path d="M581 124c-13-16-34-31-43-25 12 0 16 9 25 14 9 6 5 14 18 11zM518 153c-14-5-41-8-53 8 21 4 52 2 53-8z"/>
      <path d="M516 159c-14-6-25 3-38 1-25-2-43-1-45 11 14-12 38-2 48-4 9-3 45-1 56 4-5-7-14-9-21-12zM559 122c-3-10-3-22 13-21-4-5-19-7-21 11-18-13-37-15-41-4 9-8 23-2 40 17l9-3z"/>
      <path d="M535 137c-10-7-24-17 0-21-10-6-25-3-23 15-27-11-47-7-51 4-4 12 12 18 15 11-3 1-13-2-8-9 6-7 34-2 60 12 8 4 33 3 7-12z"/>
      <path d="M528 155c-8-16-33-2-38-17-7 22 36 10 38 17zM687 172c5 2 9-2 1-5 6 3 10-1 2-5 5 3 10-1 2-4-2 2-5 10-5 14zM689 141c12-12-1-16 14-29 11-10 2-17 13-25 3-2 11-7 12-13 4 12-15 14-13 32 0 12-8 11-11 31 0 4-3 14-15 4z"/>
      <path d="M695 147c6-14 13-14 17-19 7-10 21 2 33-8-2 13-18 9-25 17-7 9-13 12-25 10z"/>
      <path d="M696 151c11-9 20-3 28-7 19-12 27 2 45-4-5 12-31 2-42 10-12 9-51 17-31 1zM663 216c0-6-5-12-11-13-7-1-10-8-15-8s-9-11-16-11c-7 1-10 10 7 18 16 8 35 18 35 14zM642 220c-7 0-8 11-14 11 9 5 16-2 21-9l-7-2z"/>
      <path d="M648 221c-6 5-8 16 1 19-5-7 10-10 5-17l-6-2z"/>
      <path d="M654 222c-5 9 8 10 5 17 7-2 8-15 1-18l-6 1z"/>
      <path d="M607 202c12-1 22 5 29 15 5 7 20 9 25 4s2-16-11-12c-3-6-12-4-17-8-4-5-22-18-26 1z"/>
      <path stroke-linecap="round" d="M650 209c-3 0-4 6-2 8M657 212v5M625 202c6 0 7 5 14 6"/>
      <path d="M621 187c21 6 37 10 47 16 11 6 26 7 40 3 14-3 40-7 39 10 7-8-2-18-20-19 0-9-9-16-16-11 6-1 12 10 0 15 2-9-6-16-15-13 6 2 11 11-1 15-8 2-19-1-28-6-8-5-56-24-46-10z"/>
      <path d="M673 179c-6 3-2 10-12 14-10 3-17 12-15 20 7-15 19-14 23-20s11-14 4-14z"/>
      <path d="M675 180c0 12-9 7-6 24 1 5 3 14 0 22 10-8 4-24 8-30 2-2 5-7 6-11-2 7-2 19 5 23-6-13 14-23 1-38-2 4-8 10-14 10zM642 168c2 3 3 9 2 12 3-2 8-7 9-10 7 1 10 9 3 13 4 0 11 0 14-5-4-5-18-12-28-10z"/>
      <path d="M542 145l-6-2c-10-2-5-11 4-11 17-19 27-4 49-11 8-2 13-1 17 1 9-7 21-5 29 3 1-2 2-3 4-3 7-3 14 4 16 12 6-1 12 2 17 6 6-3 10-3 12 0 5-2 12-4 16 5 3 8-9 6-11 24-1 11-13 16-23 9-16-11-32-12-40 4-7 16-13 26-32 21-7-2-16 0-21 8-6 7-14 0-24 1 13-2 8-5 19-6 10-1 7-10 14-11-26 6-25-3-45 3 9-11 23-5 30-12-19 0-27-12-35-7-14 8-8 31-42 29-17-1-28 1-38 11 18-36 41-16 53-27 7-7 12-12 15-19l5-4c-28-9-11-23 17-24z"/>
      <path stroke-linecap="round" d="M684 140v4c0 7-10 7-11 18 0 5-1 8-5 7-3 0-7-6-3-13"/>
      <path d="M547 135c-2-2-5-3-7-3M606 122c8 3 12 12 25 13 12 0 19 17 39 6l2-1M635 125c-2 2-2 6-2 10M596 161c-15 0-19 8-19 15 0 8 7 17 20 17 12 0 19-8 19-16s-8-16-20-16z"/>
      <path d="M599 193c-1-4-8-4-8-7 1-3 4-4 4-9 0-4 7-5 9-1 3 3 9 10 11 7M604 176c-3 3-5 11 0 16M609 181v9"/>
      <path fill="none" d="M669 169c12 1 14-12 5-12M655 134c-4-5-14-7-14 4"/>
      <path d="M640 151c-4-10-14-11-20-6-4 4-4 15 5 17 4-4 10-10 15-11zM636 145c-6-5-15 4-7 13M525 169c4-1 10 1 19 5 5 3 21 8 32 3-11 4-19-12-27-10-8 1-23 4-29-1 15 1 23-11 41-1 4 3 11 5 16 4-14-17-33-6-35-20 9 10 30-2 40 16M545 152c-2-2-1-5-3-7"/>
    </g>
    <path d="M655 134c-4-3-11 0-9 7 1-3 5-6 9-7zM633 155l7-4c-1-3-3-5-5-6-2-2-7 5-2 10z" stroke="none"/>
    <g fill="none" stroke-linecap="round">
      <path d="M623 142c-5-4-11-4-12 0-5-1-8 2-8 9M612 153c-7-5-17-3-16 8M592 167c3-3 8-5 12 0M643 156c-1 2-2 5 0 9-2-3-9-3-16 6M659 156c-9 1-9 6-2 9M599 135c-7-1-12 3-2 7M613 131c-10-3-14 0-10 2M584 171c-1 3 1 8 7 3M586 181l-1 3M563 134c-7-2-8-7-1-7M560 147c-6-2-6-9-1-8M573 144c-8-2-8-8-2-7M574 127c-4 0-11 4 0 7M586 136c-10-1-10 3-4 6M593 127c-7-1-10 3-5 5M569 155c-2-2-3-9 6-7M588 153c-6-2-12 4-6 7M596 146c-7-1-12 0-9 3"/>
    </g>
    <path fill="#fff" d="M654 134c-3 1-6 3-8 7"/>
  </g>
</svg>
