<svg xmlns="http://www.w3.org/2000/svg" xmlns:xlink="http://www.w3.org/1999/xlink" width="750" height="500">
  <defs>
    <radialGradient id="a">
      <stop stop-color="#ffef5d" offset="0"/>
      <stop stop-color="#ea5700" offset="1"/>
    </radialGradient>
    <radialGradient id="b">
      <stop stop-color="#952d1a" offset="0"/>
      <stop stop-color="#570a00" offset="1"/>
    </radialGradient>
  </defs>
  <path fill="#ce1126" d="M0 0h750v500H0z"/>
  <path fill="#003f87" d="M0 36h750v429H0z"/>
  <circle cx="375" cy="250" r="196" fill="#fff"/>
  <circle cx="375" cy="249" r="163" fill="none" stroke="#552300" stroke-width="4"/>
  <g fill="#007f00">
    <path d="M356 76c15-16 28 3 28 11 0 9-15 28-29 12 14 4 18-12 25-12-7 0-10-15-24-11zM203 200c-8-20 15-24 22-20 8 4 18 26-2 31 10-11-2-21 1-27-3 6-19 2-21 16zM533 180c20 8 8 27 0 30s-31-4-22-22c2 14 18 12 21 19-3-7 10-15 1-27zM270 393c-22-2-15-24-8-28 7-5 31-5 27 15-6-13-21-7-25-13 4 6-6 17 6 26zM488 378c0 21-22 17-28 11-6-7-8-31 12-29-12 7-5 21-10 26 5-5 18 4 26-8zM219 159c-2-21 20-19 26-13 7 6 11 30-10 30 12-8 4-22 8-27-4 5-18-3-24 10zM242 360c-22-3-14-24-6-29 7-4 31-2 26 17-5-13-20-8-24-14 4 6-8 17 4 26zM411 77c19-9 25 12 22 20-4 8-24 20-31 2 11 8 21-5 27-3-6-2-3-18-18-19zM452 404c-10 20-28 6-30-2-2-9 7-31 24-20-14 0-14 17-20 19 6-2 14 11 26 3zM546 218c17 15-1 28-10 28s-28-14-13-28c-3 14 12 18 13 25-1-7 15-11 10-25zM272 105c5-21 26-12 30-4s0 31-19 25c14-4 10-20 16-23-6 3-16-9-27 2zM208 285c-19-11-4-28 4-30 9-1 31 8 19 25 0-14-16-14-18-21 2 7-12 13-5 26zM483 118c21-3 20 20 14 26-5 7-29 12-30-8 9 11 22 2 28 6-6-4 2-18-12-24zM361 425c-20 9-25-13-21-21 3-8 24-19 31 0-12-9-22 4-28 2 6 2 3 17 18 19zM538 305c9 20-13 25-21 21-7-4-19-24 0-31-9 12 4 21 2 28 2-7 18-3 19-18zM200 242c-13-18 8-27 16-25 9 3 24 21 6 31 7-13-8-20-6-27-2 7-17 6-16 21zM317 412c-21 8-24-15-20-22 4-8 26-18 31 2-11-10-21 2-28-1 7 3 2 18 17 21zM311 85c12-18 28-2 29 7 1 8-11 29-27 16 15 1 16-15 23-16-7 1-12-13-25-7zM519 348c2 21-21 18-27 12s-9-30 11-29c-12 7-4 21-9 26 5-5 18 4 25-9zM514 145c21 4 12 25 5 29-8 4-32 2-26-18 4 14 20 9 24 15-4-6 8-16-3-26zM245 130c0-22 22-17 27-10 6 6 8 30-12 28 12-7 5-21 10-26-5 5-18-5-25 8zM218 324c-20-10-6-28 3-30 8-2 30 7 19 24 0-14-16-14-18-20 2 6-12 13-4 26zM450 95c20-8 24 14 20 22-4 7-26 18-31-2 11 10 21-3 28 0-7-3-2-18-17-20zM407 423c-16 15-28-5-27-13 1-9 17-26 29-10-13-5-18 10-25 10 7 0 8 16 23 13zM545 258c15 16-4 28-13 27-8-1-26-17-10-30-5 14 11 19 10 26 1-7 16-8 13-23z"/>
  </g>
  <g fill="#005800">
    <path d="M355 99c14 4 18-11 25-11-4 4-15 17-25 11zM356 76c15-16 28 3 28 11-12-21-16-17-28-11zM223 211c10-11-2-20 1-27 2 6 9 21-1 27zM203 200c-8-20 15-24 22-20-24 2-23 7-22 20zM511 188c2 14 18 12 20 18-6-2-22-7-20-18zM533 180c20 8 8 27 0 30 15-19 11-21 0-30zM289 380c-6-13-20-7-25-12 7 0 23 1 25 12zM270 393c-22-2-15-24-8-28-10 22-5 23 8 28zM472 360c-12 7-4 21-9 25-1-6-2-22 9-25zM488 378c0 21-22 17-28 11 23 6 24 2 28-11zM235 176c12-8 3-21 8-27 1 7 3 23-8 27zM219 159c-2-21 20-19 26-13-23-5-23 0-26 13zM262 348c-5-13-20-8-24-13 7 0 23 2 24 13zM242 360c-22-3-14-24-6-29-11 22-6 23 6 29zM402 99c11 8 20-5 27-3-6 3-20 11-27 3zM411 77c19-9 25 12 22 20-4-24-9-22-22-20zM446 382c-14 0-13 16-20 18 3-6 10-21 20-18zM452 404c-10 20-28 6-30-2 18 16 20 12 30 2zM523 218c-3 14 12 17 13 24-5-4-18-14-13-24zM546 218c17 15-1 28-10 28 21-12 17-16 10-28zM283 126c14-4 9-19 15-23-1 7-4 23-15 23zM272 105c5-21 26-12 30-4-21-12-23-8-30 4zM231 280c0-14-16-14-17-21 5 3 20 10 17 21zM208 285c-19-11-4-28 4-30-17 17-13 20-4 30zM467 136c9 11 21 2 27 6-6 1-23 4-27-6zM483 118c21-3 20 20 14 26 4-23-1-23-14-26zM371 404c-12-9-21 4-27 2 5-3 20-11 27-2zM361 425c-20 9-25-13-21-21 2 24 7 23 21 21zM517 295c-9 12 4 21 2 27-3-5-11-20-2-27zM538 305c9 20-13 25-21 21 24-3 23-7 21-21zM222 248c7-13-8-20-6-26 4 5 14 18 6 26zM200 242c-13-18 8-27 16-25-23 8-20 12-16 25zM328 392c-11-10-21 2-27-1 6-2 21-8 27 1zM317 412c-21 8-24-15-20-22 1 24 6 23 20 22zM313 108c15 1 16-14 23-16-4 6-12 20-23 16zM311 85c12-18 28-2 29 7-15-19-18-15-29-7zM503 331c-12 7-3 21-8 26-1-7-3-23 8-26zM519 348c2 21-21 18-27 12 24 6 24 1 27-12zM493 156c4 14 19 9 23 15-6-1-22-4-23-15zM514 145c21 4 12 25 5 29 11-21 7-22-5-29zM260 148c12-7 4-21 10-25 0 6 0 22-10 25zM245 130c0-22 22-17 27-10-22-8-23-3-27 10zM240 318c0-14-16-13-18-20 6 3 21 10 18 20zM218 324c-20-10-6-28 3-30-17 18-13 20-3 30zM439 115c11 10 21-3 27 0-6 3-21 9-27 0zM450 95c20-8 24 14 20 22-2-24-6-23-20-22zM410 400c-14-5-19 10-26 10 5-5 16-16 25-10zM407 423c-16 15-28-5-27-13 11 21 15 19 27 13zM522 255c-5 14 11 19 10 26-4-5-16-16-10-26zM545 258c15 16-4 28-13 27 22-11 19-15 13-27z"/>
  </g>
  <g>
    <g fill="#730000" stroke="#000">
      <path d="M405 125s1-1 2 0l1 4-1 1s1-1-2-5zM396 157v-3l1-1v4h-1M424 152l-4 2 2 1 5-3h-3M372 167l-1 3-2 3v4c0 1 3 9 2 14v9l2 3c2 0 1-1 1-2 2-3 0-23 0-29l-3-9-1-2c-1-4-3-7-3-15 0 0-5 2-10-8-2-5-5-5-9-6l2-1 5 1c2 0 1-3 1-3l1-2v8c0 3 5 7 8 9 1 0 3-3 3-6v-8l2 2-1 2c1 1 2-1 3-2h1l-3 5-1 8 1 8 4 8 1 3c2 2 2 3 2 5 1 1 2 3 2 7l1 8c0 2 2 0 5-1 2-2 2-7 2-7h2c-1 1 1 2 1 2-2 3-1 3 1 3l6-5h4l-2 2h4l-7 4-9 4c-2 1-7 4-7 6v11l-1 11h-11s2-8 0-10c-2-3-7-9-11-11-3-3 3-1 3-1v-2l5 6s8-8 0-18l-8-9h-7c-4 1-13 1-17-5h3l3-2s-1 4 6 4c8 0 9 0 9-7l2-1 1 2v5c0 2 3 3 5 5h3l2-1 3-3 1-2 1 3z"/>
      <path d="M374 161l2-3 4-6c2-2 2-5 2-8l1 1v4l3-2h1s-6 7-12 17l-1-3zM321 140c0 2 1 4 4 7l1-1-4-6h-1M330 138s1 5-1 7l2-1 1-5-2-1zM384 121l1 12h2l1-2c2-1 6-2 7-4v-2l-4 3-4 1c-1 0-2-2-1-6l-2-2M405 156v7h2s-1-6 0-6l-2-1M413 160s-2 3-4 3l3-1 3-2h-2"/>
    </g>
    <g fill="#289400" stroke="#030">
      <path d="M382 144l1 1h2l3 3h1l1 3h1v3l2-1 2 2 2-2 2-1c-6-2-8-5-6-8 2-4 7-1 8-1l20 11s1-1 0-2l-1-3 4 2 3 1v-1l3 4 2-2c-1-1 4 1 4 3l1-1 1-5 2-2 2-2-1-1-2-2 2-1 1-1-4-2s0-3-2-3h1l-3-3 2-1s-2-2-4-1l1-1s-1-1-5-1c0 0 1-1-1-2l-1 1-3-1 1 1-4-1v-3l-2 2-1-1-2 1-1-2-1 2v-2l-2 3s-2 1-2 3c0 0-1-2-2 0v1h-1v1h-2v1s-3 0-3-2h-2l-2 1-1-1-1 1-1-1v1s-2-2-1-3c0 0-2 2-1 3l-1 1v-1l-2 1v-3s-2 0-2 3h-3c-1 1 1 1 1 1l-3 1 1 1h-2-3v1h-4l2 2s-2 0-3 2h2l-1 2h1l-2 3 3-1c2-1 0-1 0-1v1l2-1c0-1 0 0 0 0l2-1 2 1z"/>
      <path d="M380 112l-1-2 6 1 1-2 3 2s5-2 6-1l-1 2 6 1v2l7 1c2 2 2 3 1 3l3 5-6 1-1-1-1 3-4-2v2l-5-3s-3 0-3 2l-3-4-2 1-2-2-1 2-1-2-2-2-2 2-1-2h-4s-1-4 3-6l4-1z"/>
      <path d="M360 126l-2 2-1-1-2 3v-2l-1 2h-2l-1 1h-1l-2 1v-2l-2 2h-1l-1 1-1-1-2 1v-1l1-2-1-2 1-1h-2l2-3v-3l3-1v-3l3-2v-2h5l1-2 4 1 4-2 2 3 4 1v3l5 2-1 3 4-1v4l6 2-2 2v5l-3-2-1 2-2-1h-1l-1-1v-1l-2 1-2-2v-2l-2 2-1-2-1 2-1-3v2s-2-1-3-3z"/>
      <path d="M328 136l4 3v-3l2 2v-3c-1-1 4-2 5 0 0 0 2-2-3-4 0 0 0-2 3-2l-1-1h3l-5-2c-2 0-1-1-1-1v-3l-2 1v-1h-3l-2-2-2 1s-1 2-3 2l-2-1-1 3h-2v1h-4s2 2 1 3l-3 1h1l-3 2 1 1-1 1 1 1-3 1h2l-1 1h1l-1 6 3-3-2 3 4-1v-1 1l2-2 2 1v-1h5v1l1-1h1l1-4h2zM314 151l1 3-3 2-1 5v3l8-5 9-5 1 1 3-2 1 5-1 1 2 5 2-1 3-1v1l3-1 1 1 3-2 2 1 1-2 3-1 1 1 3-2 1 2 4 1 1-2 4 1-2-4 2-2h-2l2-2h-2v-1l-2-1 1-3-7-2 1-2-1-1h-6l-2-2-2 2h-4v1l-3-3-3 4s0 2-1 0l-3-1-3 2h-3l-3 3-4-1v2l-5 2zM360 192v-2l2 1 2-1 1 2 2-2v3l2-3 2 1v-2l1-4 2-1-4-3-2-1-3-2h-3l-2-2-1 2-2-2c-2-1-1 1-1 1l-5-1 1 1-4-1v2l-3-1v2h-4v2l-2-1v2l-3 1 1 1-5 2c-1 1 1 2 1 2l-4-1 2 2-4 3 3 2-2 3h4l2 3h3v3l5-4 4 2v-4h2v-2l1 1 2-3 3 4 2-6 4 1zM380 180l-1-5-1 1v-4h-2l1-5h-2l1-2 1-2 3-3 7 1 1-3 5 1c1 1 3-2 3-2h1l1 2 5 1-2 3h4l3 1 2-1 3-1 1 2h3l-1 1 4 2-1 1h5s1 2 0 3c0 0 1 3 3 3l3 2s0 3-3 3v3l-2 2-2-1-1 3-5-5c-2 0-1 3-1 3l-4-4-1 3-3-3-2 1-3-3h-4l2-2h-4l-1-3-1 3-2-2-3 4-1-2c-1-2-2 2-2 2l-1-3-2 3-2-3c-1-1-2 3-2 5zM380 190v-1l6-3 5-1 3-1 1 1 1-2 2 3 2-2 1 1h2v3l5-1 1 3h3l1 5 2 5c-1 2-3-2-3-2v4l-5-1-2 4-4-3-1 3-5-5c-1-2-1 2-1 2l-2-5-2-2-6 5-1-4-3 2v-8z"/>
    </g>
    <g fill="none" stroke="#004b00">
      <path d="M407 130l1 2 3-1-1 3h4l-1 1 3 2-3 2 5 2-3 2 1 2h-3l1 3h-4M425 143s1-4 0-5l4 2c2 0 0-3 0-3l4 1-1-2h2M387 120v-2l3 3M395 121l3 1-1-3 4 1 1-2 5 1M381 118l-1-3M355 129l1-3h1v-2h1l2-2 1 2 2-2 1 1 1-1h2l1-2M348 131l-1-4M323 137v-4l2 1M335 133l-4-1M314 140l1-3M341 191l1-3 2 4 1-3v1l3-2 2 3M393 174l1-3 3 1 1-3 2 1 2-3 3 1v-2l2 1v-2l2 1s2-2 0-3"/>
      <path d="M400 170l2 3 2-2 2 4 2-1 4 2 1-2 4 3 1-3 4 1 2-4M336 162l1-4 3 2v-4l4 4v-5l4 1s3 0 2-1c-1-2 3 1 3 1s1-3 0-4l4 2-2-3h4l-1-3M390 195l2-1 2 2 2-4 3 3 1-3 3 1v-1l3 1 1-2h1l1-1"/>
    </g>
    <path fill="#9dd7ff" d="M337 311l-7-14 44-39 44 39-6 14-4-1-2 1c-2 1-3-1-3-1l-4 1-3-1s-2 2-3 1l-2-1s-2 2-3 1l-3-1-5 1c-1 1-3-1-3-1l-3 1-3-1-5 1-4-1-4 1-4-1-3 1-3-1-4 1-4-2-3 2"/>
    <path fill="#fff" stroke="#000" d="M374 214v44l-44 39c-4-12-4-23-4-28v-55h48"/>
    <path fill="#ffd83c" stroke="#000" d="M374 214v44l44 39c5-12 5-23 5-28v-55h-49"/>
    <g stroke="#000">
      <path fill="#730000" d="M346 301l9 4c6 2 12 3 22 3 8 0 13-1 15-2l4-1-7 6s-28 2-33-1l-10-9z"/>
      <g fill="none">
        <path d="M386 288s9 5 0 15M347 302l12-12-1 16M365 307v-27M386 307v-28M375 308v-31"/>
      </g>
      <g fill="#ff0018">
        <path d="M365 282l-6 2h6v-2M375 278l-6 2h6v-2M386 279l-6 3h6v-3zM390 292c-1-1 3-1 3-1s1 4 0 7l-3-1v-5z"/>
      </g>
      <g fill="#fff">
        <path d="M349 300l10-10v6s-6 4-6 6l-4-2M354 302s2-3 5-5l-1 7-4-2zM370 284h7v5s-6-1-8 1c0 0-1-4 1-6zM361 285h7v6s-5-3-7 0c0 0-2-4 0-6zM360 291h8v5s-6-1-8 1v-6zM369 290h10s-2 4 0 6c0 0-7-2-9 0 0 0-3-4-1-6zM360 297l8 1v7s-7-2-8 0c0 0-2-5 0-8zM369 297h11s-2 5 0 9c0 0-9-3-11-1 0 0-2-5 0-8zM381 284h7v5s-6-1-8 1c0 0-1-4 1-6zM381 290h7v5s-6-1-8 1c0 0-1-4 1-6zM381 297h8l-1 7s-5-2-7 0c0 0-2-5 0-7z"/>
        <path d="M390 297s1 5 3 6l-2 3s-3-2-3-5l2-4z"/>
      </g>
    </g>
    <g stroke="#000">
      <path fill="#006ac8" d="M412 311c-7 12-19 23-38 30-19-7-30-19-37-30l3-2 4 2 4-1 3 1 3-1 4 1 4-1 4 1 5-1 3 1 3-1s2 2 3 1l5-1 3 1c1 1 3-1 3-1l2 1c1 1 3-1 3-1l3 1c2 1 4-1 4-1l3 1 2-1 4 1" stroke="none"/>
      <path fill="none" d="M410 314l-2-1s-2 2-4 1l-2-1-4 1-2-1-4 1-3-1-4 1c-2 1-3-1-3-1l-5 1-4-1-3 1-5-2-4 1-4-1s-2 2-4 1l-2-1s-3 2-5 1l-4-1-3 1"/>
      <path fill="#5ac800" d="M347 318l-3 1h-1 0c3 5 8 9 12 12 5 3 10 7 20 10a74 74 0 0 0 31-22l-4 1-2-1-3 1-3-1-5 1-3-1-5 1-3-1-4 1-4-1h-8-7-4l-4-1z"/>
      <path fill="#ffd800" d="M375 341l17-9c-1 0-4-1-3-2l-2 1-4-1-5 1-3-1-5 1-2-1-5 1-3-2-4 2c4 3 9 7 19 10z"/>
    </g>
    <g stroke="#000">
      <path fill="#b34b00" d="M368 259c2-1 3-3 2-4h-3l-2-2-4-3-9-11c-2-1-2-5-3-6l-14-15c-1-1-2-1-4 1-3 2-3 4-1 6l14 12 6 3 13 14c2 2 3 3 2 4v3l2-1 1-1z"/>
      <path fill="none" d="M334 223l14 14"/>
      <path fill="#fff" d="M353 229l1-2c0-1 4-7 6-7l12 9s-5 8-6 7c0 0-14-6-13-7z"/>
      <path fill="#ccb8c8" d="M360 231l-6-4-1 2 12 7-5-5z" stroke="none"/>
      <path fill="none" d="M354 227l5 3 7 6" stroke="none"/>
      <path fill="#782121" d="M330 263l27-32c0-1 3-1 3 2l-25 34s-3 0-5-4z"/>
      <path fill="#730000" d="M419 264l-2 1-6-7-26-33 3-2 23 28 9 10s1 2-1 3z"/>
      <path fill="#fff" d="M394 229l-4-5s-4 1-4 2c0 0-3 4-9 5 0 0 2 7 9 11 0 0 3-8 5-9 0 0 3-2 3-4z"/>
      <path fill="#730000" d="M383 252l-2 1-2-1 1-2h6l-3 2M412 223v-2c1-1 1-2-1-2-1 1-2 3 0 6l1-2z"/>
      <path fill="#fff" d="M383 253l30-30 7 8-2-1c-1 1 1 2 1 2h-2v2h-2v2h-2v2h-3c-1 1 1 2 1 2s-2-1-3 1v2h-2v2h-2v2h-2v2h-2v2h-3v2h-2v2h-2v2h-1v2l-2-1v3l-1-1z"/>
      <g fill="#7e4b7e" stroke="none">
        <path d="M411 225l-2 2v9s1-3 1-1l1-2v-8M407 230l-2 1v8s1-3 2 0v-3-6M388 248l-1 1v5s1-3 1-1v-2-3"/>
      </g>
      <g fill="none" stroke="#7e4b7e">
        <path d="M386 227l5 6M388 230l-2 3M388 230l-1 3M389 231l-1 1M389 231v1M385 229c0 1-3 3-5 3M385 230l-4 3M384 232l-2 1M384 233l-2 1"/>
        <path d="M366 234l2-3 1-2" stroke-linecap="square"/>
      </g>
    </g>
    <g>
      <path fill="#289400" stroke="#060" d="M268 316v-7c1-2 5 5 7 6 3 2 16-5 16-5l3-6 2 5 5-6-1 5c-1 1 3 2 3 5-1 4 4-2 4-2l13 1s2-7 5-12l1 5 5-5c6 15 18 32 43 41 24-9 36-24 42-39l7 8 7-3 13 5 3 1v-3s6 1 6 4l2-3 5 3 15 4 1 3h5l-1 2c0 2-1 3-3 4-1 1 0 1 2 2 3 0 0 3-4 4 0 0-1 3 1 3h-5l-1 4-5-2s-2 1-1 2c0 0-7-1-8-4l-3 2-6-3-2 1-4-2v2l-5-3-2 3-6-3c-1-1-1 2-2 2 0 0-1-2-4-2v4l-7-2c-2 0-1 1 0 3l-6-3v3l-5-2-3 4h-3l-1 3s-7-2-7-1v3l-6-1-1 2s-7-2-8-1l-4 3v-1l-2-3-4 1c-1-1-5 2-7 1l-1-2c-1-1-3-1-4 1l-2-4c-1-2-3 1-3 1l-1-3h-3c-3-1-3-3-3-3l-7 1 2-2-10 1c-2 0 2-2 2-2l-9-2c-1-1-9 1-10 1l-2-2-3 2-1-3-5 2s-2-2-1-3l-4 5v-2l-4 4v-2s-9 4-12 4l1-3h-5l-5-1c-1 0 2-2 5-1 0 0-7-3-8-1 0 0-1-3 2-3 0 0-4-5-7-4 0 0 3-2 5-1 0 0-2-7-4-8h8z"/>
      <path fill="#730000" stroke="#000" d="M259 197l74-39c1-2 0-3-2-5-21 11-40 23-64 31-1 0-13 5-19 12-2 2-2 5-2 5l1 4 1 2h2l2-2 7-8z"/>
      <path d="M319 159l9-5s4 3 3 5c0 0 1 7 9 11 0 0-7 8-18 9 0 0 1-11-1-14h-1c1-1 0-5-1-6-1 0 0 0 0 0z" stroke="#000" fill="#FFF"/>
      <g fill="none" stroke="#7e4b7e">
        <path d="M330 160l-9 4M327 162v5M326 162v5M325 163v3M324 164v1M330 163l5 7M331 165c0 1 1 4 3 5M330 167l2 4M330 169l2 2"/>
      </g>
      <g stroke="#000">
        <path fill="#b34b00" d="M398 154l27 14c6 2 8 0 11 1l54 28c4 2 7 2 6 5 0 3 2 4 2 4l3-2h1l1-1c2-3 3-6 1-8-3-1-3 1-6 1l-7-3-9-5-44-23c-2-1-2-6-5-8l-32-15c-3-1-5-2-8 2-3 5-2 7 5 10z"/>
        <path fill="none" d="M401 149l30 15"/>
      </g>
      <g fill="#ffa54b" stroke="#000">
        <path fill="url(#a)" d="M310 165l-1 1-1 4-3 3c-2 0-4 3-8 0h-1s1 4-3 6l-16 8v7l-1 1-3 6s-3-1-3-3l1-4 1-6-3-2-1 2 1 1v3l-10 5 2 2c0 1 1 10 4 15l4 4 2 1h5c0-2 1-3 3-5 2-1 6-5 6-7l2 13 16 1c8 1 12-1 12-1v-8l2 6c1 2 2 5 5 5 2 1 4-2 4-3v-6h8l6 1v-2l2 1h5v-1l-5-3-4-1h-6l-6 1h-1l-1-11-1-5v-9c0-2-3-4-7-4-4-1-7-4-7-7l1-9"/>
        <g fill="none">
          <path fill="url(#a)" d="M292 154v9l2 7c0 1 1 3 3 3 3 3 7 0 8-1l3-2 1-4 1-1 1-3-2-2 1-6-1-2c-5 2-10 2-15 2l-1-1-1 1"/>
          <path fill="#000" d="M292 155v-3l1-3 2-2h3l3-1h6l4 4 1 8c0 4-1 3-1 3s-1-2-2 0v-3-5l-9 2-7-2-1 2"/>
          <path fill="#fff" stroke="#fff" d="M295 152c0-1-2-3-1-4l2 4h-1z"/>
          <path d="M298 160l-1 3M308 165h1M309 161c1 0 2 0 1 2M292 158l3 1c2 0 1 3 0 4v3h2l1-1 1 1 1-2M299 160l2-1h5M301 170h-6M295 169h3l1-1 2 1M295 170h6"/>
          <path fill="#fff" d="M292 160h3c2 1-1 2-1 2l-2-1v-1zM301 161l3-1 1 1h-1l-3 1-1-1h1z" stroke="none"/>
          <path fill="#000" d="M294 161v-1l-1 1h1zM302 162l1-1-1-1v2z" stroke="none"/>
        </g>
        <g id="c">
          <g fill="none">
            <path d="M346 214l-2-2-2-1-2-1M340 213h-1l-1-1-2-1M273 201c1 1 3 3 3 6l1 3M264 202c1 2 1 7 6 13M265 194v3M280 208c1-3 4-3 4-5"/>
            <path d="M285 207l-1-8v-9s2 8-3 10M315 212l1-6v-9c1-1 2-4 0-9 0 0 3 11-4 11-8 0-7-3-7-3"/>
            <path d="M284 190c0 3 0 9 9 9 3 0 6-2 8-3M303 193v-7M289 183l9-1M298 176c1 2 0 5 4 6M307 175l-1 4M306 182h9M316 204c1 2 1 4 4 7M288 199v9c1 4 1 8-1 12M293 201l-2 4M298 204l-5 10s3 2 3 7M303 200l1 2M307 202c1 2 5 7 4 10M304 205l-1 9M301 214c-1 0-3 1-3 3M307 214c1-1 3 1 3 7M326 211l-3 1-2 1"/>
          </g>
          <path fill="#000" stroke-width="0" d="M290 198l1-1-1-1-1 1 1 1zM313 198l1-1h-2l1 1z"/>
          <path fill="#fff" d="M281 240c1-8 5-15 5-15l10 1h12l7-1 1 5 2 34 1 12 3 40h-3s-14 1-14-1-1-27 1-42l-1-5-5-12-6 19-1 41-10 7c-1 1-9-3-9-4l5-33v-11c0-2 0-27 2-35z"/>
          <g fill="none">
            <path d="M294 275l-3 6M288 227c0 1-2 7-7 11M295 228c-1 4-5 23-6 46M288 281l-1 20M286 305c0 1-3 10-3 18M316 287c-1 2-1 16 3 28M301 229l-1 18 2 3-2 6M296 243l-3 11M306 229s5 1 5 0l4 46M304 233v16M306 251l1 4M290 227l3 1M298 230l-1 4M306 273l1 5"/>
          </g>
          <path fill="#9b5f00" d="M285 224l1-4 8 1h13l8-1v5l-8 1h-15l-7-2z"/>
          <path fill="#fff" d="M288 225l1-5h1l-1 5h-1M310 221v5h1v-6l-1 1M294 221v5h1v-5h-1"/>
          <path d="M277 321l-1 5c0 1-1 4 1 4l1-3v3c2 1 3-3 3-3-1 1-2 4 0 4s2-4 2-4-1 4 0 5c2 0 2-4 2-4s-1 5 2 4l2-3v-6l-1-3-5 3c-1 1-6-2-6-2zM306 316v3c0 1 0 4 4 3h8l7 1 4-1h3l2-1c0-2-2-2-3-2l-5-1-6-2h-14z"/>
        </g>
        <g fill="none">
          <path fill="#ffb366" d="M256 190v-3l2-2s1-2 3-2l3-1 3 3v2c-1 1-1 0-1-1l-1 2h-1l-1 2-2-1v2l-2-1h-3z"/>
          <path d="M266 186c-1-2-2-3-4-3M264 188l-1-2-4-1M261 189l-1-1-4-1"/>
        </g>
      </g>
      <g stroke="#000">
        <path fill="url(#b)" d="M439 165l1 1 1 4 1 2c2 1 7 4 10 1h1s-1 4 3 6l15 8s2 3 1 7v1l4 6s3-1 3-3l-2-4v-6l3-2 1 2-2 1 1 3 10 5-2 2c-1 1-1 10-4 15l-4 4-3 1h-4l-3-5c-2-1-6-5-6-7l-2 13-16 1c-8 1-12-1-12-1v-8l-2 6c-2 2-3 5-5 5-2 1-4-2-4-3v-6h-9l-5 1c-1 0-2-1-1-2h1l-3 1h-4v-1l4-3 5-1h6l6 1h1v-9l1-5-1-7c0-6 4-8 8-10 4-1 7-2 7-5v-9"/>
        <g fill="none">
          <path fill="url(#b)" d="M456 154l1 5v3c1 2 0 5-2 8l-3 3c-3 3-7 0-9-1-2 0-2-1-2-2l-1-4-1-1-1-3c-1-1 1-2 2-2l-1-6 1-2c4 2 10 2 15 2l1-1v1"/>
          <path fill="#000" d="M457 155l-1-4-2-3-2-1h-3-3l-5 1c-2 0-3 1-3 3l-1 7c0 4 1 3 1 3s1-1 2 0l-1-4 1-5 9 2 7-1 1 2z"/>
          <path d="M450 160l1 2M441 165h-1M457 159h-4v4l1 2-2 1h-2l-1-2M449 160l-2-1-5 1M454 169l-2-1h-2l-2 1M454 169h-6M448 170h5"/>
          <path fill="#fff" d="M456 160h-3c-1 1 2 2 2 2l1-1v-1zM448 161l-3-1-1 1h1l3 1v-1z" stroke="none"/>
          <path fill="#000" d="M455 161h-1l1-1 1 1h-1zM446 162v-1-1l1 1-1 1z" stroke="none"/>
        </g>
        <use xlink:href="#c" fill="#730000" transform="matrix(-1 0 0 1 749 0)"/>
        <g fill="none">
          <path fill="#730000" d="M492 194s2-3 0-4l-2-2s-1-2-3-1l-3-2-3 3v3l1-1 1 2c1 1 1 0 1-1l2 2h1v1h2c1 0 1-2 3 0z"/>
          <path d="M482 190c1-2 3-3 5-3M484 191l1-1 5-2M487 193l1-2h4"/>
          <path fill="#730000" d="M482 187l-2 2 1 2h1l1 2 1-1 1 2h2v1h2c0-1 0-2 2-1l1-1-7-5-3-1z" stroke="none"/>
          <path d="M481 188c-2 3 0 4 1 3 0 2 1 2 2 1 1 3 2 2 3 2-1 2 2 1 2 1 1-2 2-1 2-1l1-1M484 187l-2 4M487 189l-3 3M490 191l-3 3"/>
        </g>
      </g>
      <g fill="#5ac800">
        <path d="M290 324v-5l2 2v-4l2 1v-3l3 3 1-4 2 4c0 2 2-3 2-3l2 5 1-2 1 5 3-4 2 4h4l1 2 1-2 3 2 3-1 3 2 1-2c1-1 2 0 3 1l1-3 3 3v-3c1-1 2 0 2 1l2-4 2 2c1 2 1-3 1-3l3 6s-17 6-28 4l-26-4M406 323l2-3 2 3 1-1 2 2 2-2 2 2 3-1 1 1 6-1 2 1 1-2 2 2 3-3 1 2 3-2h3l1-2 2 1 2-2 1 4 4-2-1 5 3-3 1 6 2-2 1 3 2-1s-14 3-28 1c-14-1-26-6-26-6M396 333s-5 11-18 12c-17 0-32-8-32-8l3-4 3 4 1-3 4 3 2-2 1 4 3-2 3 4s2-2 3-1c0 0 2 1 2 3-1 2 2-1 5-2l3 2 4-4s2 0 2 2l2-5 2 3s0-3 2-4l1 2 4-4z"/>
      </g>
      <g stroke="#060" fill="none">
        <path d="M290 324v-5l2 2v-4l2 1v-3l3 3 1-4 2 4c0 2 2-3 2-3l2 5 1-2 1 5 3-4 2 4h4l1 2 1-2 3 2 3-1 3 2 1-2c1-1 2 0 3 1l1-3 3 3v-3c1-1 2 0 2 1l2-4 2 2c1 2 1-3 1-3l3 6M406 323l2-3 2 3 1-1 2 2 2-2 2 2 3-1 1 1 6-1 2 1 1-2 2 2 3-3 1 2 3-2h3l1-2 2 1 2-2 1 4 4-2-1 5 3-3 1 6 2-2 1 3 2-1M346 337l3-4 3 4 1-3 4 3 1-2c1-1 2 2 2 4l3-2 3 4s2-2 3-1c0 0 2 1 2 3-1 2 2-1 5-2l3 2 4-4s2 0 2 2l2-5 2 3s0-3 2-4l1 2 3-4"/>
      </g>
    </g>
    <g>
      <g fill="#fff">
        <path d="M374 377c23 0 37-8 44-13 18-12 21-12 24-12s8 1 8 4c1 5-6 7-10 7l-16-3-2 2c2 1 24 8 28 1 5-7 9-19 9-19s-5-8-16-8-22 7-29 12-16 12-40 12c-23 0-32-7-40-12-7-5-17-12-28-12s-16 8-16 8l9 19c4 7 26 0 28-1l-3-2-15 3c-4 0-11-2-11-7 1-3 5-4 9-4 2 0 6 0 23 12 8 5 21 13 44 13"/>
        <path d="M338 350l-1-5c0-3-2-4-4-4l-3 3-3-2 6-3c1 0 15 5 20 9 1 1 2 8 1 10-8-2-12-5-16-8M331 364s-3 3-3 9c0 7 4 7 8 7 3 0 6-3 6-10 0 0-6-2-11-6M411 350l1-5c0-3 2-4 4-4l3 3 3-2-6-3c-1 0-15 5-20 9-1 1-2 8-1 10 7-2 12-5 16-8M418 364s3 3 3 9c0 7-5 7-8 7-4 0-7-3-7-10 0 0 7-2 12-6"/>
      </g>
      <g fill="#69f">
        <path d="M324 360l-15 3c-4 0-11-2-11-7 1-3 5-4 9-4 2 0 5 0 17 8M425 360l15 3c4 0 11-2 10-7 0-3-5-4-8-4-2 0-5 0-17 8M338 350l-4-2-4-4 3-3c2 0 4 1 4 4l1 5M330 379l6 1c3 0 6-3 6-10 0 0 5 3 13 5l1 4c0 3-1 6-3 5l-18-3c-3 0-5-2-5-2M411 350l4-2 4-4-3-3c-2 0-4 1-4 4l-1 5M419 379l-6 1c-4 0-7-3-7-10 0 0-4 3-12 5l-1 4c0 3 1 6 3 5l17-3c4 0 6-2 6-2"/>
      </g>
      <g fill="none" stroke="#000">
        <path d="M374 377c23 0 37-8 44-13 18-12 21-12 24-12s8 1 8 4c1 5-6 7-10 7l-16-3-2 2c2 1 24 8 28 1 5-7 9-19 9-19s-5-8-16-8-22 7-29 12-16 12-40 12c-23 0-32-7-40-12-7-5-17-12-28-12s-16 8-16 8l9 19c4 7 26 0 28-1l-3-2-15 3c-4 0-11-2-11-7 1-3 5-4 9-4 2 0 6 0 23 12 8 5 21 13 44 13z"/>
        <path d="M324 360l-15 3c-4 0-11-2-11-7 1-3 5-4 9-4 2 0 5 0 17 8zM424 360l16 3c4 0 11-2 10-7 0-3-5-4-8-4-2 0-5 0-18 8zM338 350l-4-2-4-4 3-3c2 0 4 1 4 4l1 5z"/>
        <path d="M338 350l-1-5c0-3-2-4-4-4l-3 3-3-2 6-3c1 0 15 5 20 9 1 1 2 8 1 10-8-2-12-5-16-8M331 364s-3 3-3 9c0 7 4 7 8 7 3 0 6-3 6-10 0 0-6-2-11-6z"/>
        <path d="M333 366s-2 2-2 6c-1 4 2 6 4 5 4 0 6-5 4-8l-6-3"/>
        <path d="M330 379l6 1c3 0 6-3 6-10 0 0 5 3 13 5l1 4c0 3-1 6-3 5l-18-3c-3 0-5-2-5-2zM411 350l4-2 4-4-3-3c-2 0-4 1-4 4l-1 5z"/>
        <path d="M411 350l1-5c0-3 2-4 4-4l3 3 3-2-6-3c-1 0-15 5-20 9-1 1-2 8-1 10 7-2 12-5 16-8M418 364s3 3 3 9c0 7-5 7-8 7-4 0-7-3-7-10 0 0 7-2 12-6z"/>
        <path d="M415 366s3 2 3 6-2 6-4 5c-4 0-6-5-4-8l5-3"/>
        <path d="M419 379l-6 1c-4 0-7-3-7-10 0 0-4 3-12 5l-1 4c0 3 1 6 3 5l17-3c4 0 6-2 6-2z"/>
      </g>
      <g fill="none" stroke="#fff">
        <path d="M354 376s3 3-1 6M344 375l10 4M345 377l8 3M348 375l6 3M395 376s-3 3 1 6M405 375l-10 4M403 377l-7 3M401 375l-6 3"/>
      </g>
      <g stroke="#000">
        <path d="M314 345v2l-1 1-3 1-1-1h-1-1l1-3 1 1v1l1 1h1a1 1 0 0 0 1 0 2 2 0 0 0 0-2v-1h-1l-1-1-1-1v-1-1l1-1h3l1 1v-1l1 1-1 2-1-1v-1l-1-1-1 1h-1v1l1 1 1 1a15 15 0 0 1 1 1h1M326 347h-1-1v1l-2 3a3 3 0 0 1-2 2h-1a4 4 0 0 1-3-3 2 2 0 0 1 0-2l3-4v-1h-1v-1l4 2h-2l-2 5h-1v1l1 1v1h2a2 2 0 0 0 1-1h1a4051 4051 0 0 1 1-6 5560 5560 0 0 1 3 2M331 355v1l-1 1-1 1h-1l-1-1-4-2a5 5 0 0 0 1 0h1l3-6v-1h-1l4 2h1v1l1 1-1 1a2 2 0 0 1-1 0h-1-1l1 1 1 1zm-1-2v-1h1v-1l-1-1v-1h-1l-1 3a327 327 0 0 0 2 1zm-1 3v-2l-1-1h-1a1940 1940 0 0 1 0 4h1l1-1zM349 360h-1-1v1l-2 4a3 3 0 0 1-2 1h-1-1l-1-1-1-1a2 2 0 0 1 0-1l2-5v-1-1l3 2a4 4 0 0 0-1 0l-2 5h-1v1l1 1 1 1h2v-1l1-1 1-3 1-1v-1h-1v-1l3 2M359 371l-4-1a9 9 0 0 0 1 0v-1l2-6-5 7-1-9-1 5-1 2h1v1h1-1l-3-1h2v-2l1-4v-1l-1-1 3 1 1 7 4-5a5 5 0 0 0 0-1l3 1a4 4 0 0 0-1 0l-1 1-1 6v1h1M368 369v1a2 2 0 0 1-1 2h-1-5v-1a4 4 0 0 0 1 0l1-6v-1h-1v-1l4 1h2v3l-1 1h-1 1l1 1zm-2-2h1v-1-1l-2-1a28 28 0 0 0-1 0v3a87 87 0 0 1 2 0zm1 3l-1-1-1-1h-1v3 1h2l1-2zM379 373h-3l-1-2-2-2v3h1v1h-4v-1h1v-7h-1v-1h5l1 1h1v2l-1 1h-1l1 2 1 1a3 3 0 0 0 1 1h1v1zm-4-7v-1h-2v3h2v-2zM389 372h-4 1v-1l-1-2-3 1v2h1v1h-3v-1a2 2 0 0 0 1 0v-1l1-4 1-3h1l3 7h1v1h1zm-4-3l-2-3-1 3h3zM401 362l-1-1h-1-1-1l1 4a282 282 0 0 1 2-2l1 3h-1v-1h-2l1 3v1h1l-4 1a10 10 0 0 0 1-1 8886 8886 0 0 1-3-7l7-2v2M411 361l1 3-6 3v-1h1v-1a14474 14474 0 0 0-5-6l4-2v1h-1v1l3 5v1h1v-1h2v-1-1-1M416 353h1a5 5 0 0 1 2 4 4 4 0 0 1 0 3l-2 1a4 4 0 0 1-4-1 5 5 0 0 1-2-3v-1a4 4 0 0 1 2-3 4 4 0 0 1 3 0zm2 5v-1l-1-1-1-2-1-1h-1-1l-1 1v3a7 7 0 0 0 2 3h1l1 1 1-1a2 2 0 0 0 1-2zM429 352l-2 2-2-1-2-1-1 1 2 2h1l-3 2a8 8 0 0 0 1-1l-4-5v-1h-1a3 3 0 0 0-1 1v-1l4-2v-1h2l1 1v3l1 1h2a3 3 0 0 0 1 0h1zm-6-3l-1-1-2 1a5732 5732 0 0 0 3 1v-1zM437 347v2l-7 3v-1a4 4 0 0 0 1 0v-1l-2-6h-2l7-3 1 2h-1-1l-1-1v1h-1-1l1 4a311 311 0 0 0 2-3l2 3-1 1v-1h-1v-1l-1 1h-1l1 2 1 1h2a4 4 0 0 0 1-1v-1-1h1M444 341l1 1a5 5 0 0 1 1 4l-1 1a4 4 0 0 1-3 2 4 4 0 0 1-3-1l-1-1-1-2v-2l1-1a4 4 0 0 1 3-2 4 4 0 0 1 3 1zm0 6v-1a8 8 0 0 0 0-3l-1-2h-1-2l-1 1v1a7 7 0 0 0 0 3l1 2h1l1 1a2 2 0 0 0 2-2z"/>
      </g>
    </g>
    <path d="M423 214v55c0 11-2 55-49 72a73 73 0 0 1-48-72v-55h97" stroke="#000" fill="none"/>
  </g>
</svg>
