<svg xmlns="http://www.w3.org/2000/svg" xmlns:xlink="http://www.w3.org/1999/xlink" width="1000" height="500">
  <path fill="#0021ad" d="M0 0h1000v500H0z"/>
  <path d="M0 0h1000v500z" fill="#1c8a42"/>
  <circle cx="500" cy="250" r="90" fill="#ffc639"/>
  <path fill="#1c8a42" d="M445 209c6 9 15 23 23 19 6 0 9 1 10 5 13 2 37-4 51-23 0 0 1 1 1-7 0-3 4-2 4-1l2 3 6-7v-4c1-3 4-2 5-1l1 3h8c0-3 2-2 2-2h2c-1 12 2 13 2 19 0 7-2 9-2 11 1 3 11 4 7 6-3 2 0 5-4 6-14 7-17 13-17 13l-4 7c-2 4-5 2-6 4s-2 8-1 11c1 5 0 7-1 11-1 9-4 10-4 13-2 4 0 19-2 19-10 0-18-2-22-3 4-17 3-32 3-33-1-12-19-9-21-11-2 0-4-2-4-3l-6-1-3 2c-7 1-10-6-10-6 0-2-16 1-24-1-4 2-5 7-8 8 0 2-5-1-6-3 0-5 5-8 5-8l7-4 3-12c1-2 4-1 5-2 2-1 3-9 1-11l-7-6c-2-7 2-11 4-11z"/>
  <path fill="#ffc639" d="M878 98c-4-17-41-52-68-74-7-4-11-2-10 5l9 18 4 10 1 7c8 9 9 17 9 17 5 10 10 17 18 25 10 6 3 25 3 35 0 6-4 6-8 5-32-29-63-29-91-38-10-1-11 4-7 7 19 21 37 35 61 46l12 8 14 11c10 7 11 13 11 14 1 13-6 23-8 27-4 14-11 16-11 16-59 40-90 50-185 38-2-1-11 0 0 4 24 8 84 21 141-6 14-10 23-7 34-12 16-11 40-23 44-25 13-7 49-14 57-21 10-1 19-2 20-10 3-2 8-1 11-8 8-1 6-4 6-4-1-5-9-7-14-11-7-2-12-3-18-1l-5 3-8-2c-18-1-16-60-22-84z"/>
  <path fill="#1c8a42" d="M920 194a4 3 16 0 1-9-3 4 3 16 0 1 9 3z"/>
  <g fill="#fff">
    <path id="a" d="M188 191l-13-12-12 12 1-18-17-2 14-10-8-15 16 5 7-16 6 16 17-5-9 15 14 10-17 3 1 17z"/>
    <path d="M233 336l-13-10-14 10 5-16-14-9h17l5-16 6 15h16l-13 10 5 16z"/>
    <use xlink:href="#a" x="3" y="269"/>
    <use xlink:href="#a" x="-112" y="123"/>
    <use xlink:href="#a" x="108" y="85"/>
  </g>
</svg>
