<svg xmlns="http://www.w3.org/2000/svg" xmlns:xlink="http://www.w3.org/1999/xlink" width="900" height="600">
  <path fill="#fff" d="M0 0h900v600H0z"/>
  <path id="a" fill="#435125" d="M435 498h-1l-1-2-5-5-6-8-1-1-8-3-5-2 3-4 10 5 8 1 14 11a141 141 0 0 0-8 8l1-1 1 1h-2zm-54-16c-6 0-13-2-19-5s0-2 2-3c2-2 6-4 12-4s15 3 24 7c0 0-8 5-19 5zm-29-6l-3-2-2-2v-5h2c2 0 4 2 5 4v3l-2 2zm52-6c-18-3-25-9-28-14s-3-10-3-10h3c5 0 16 2 28 24zm-36-4c-7 0-13-1-17-4l-3-4-1-2a23 23 0 0 1 9-1c6 0 15 2 24 10l-12 1zm-36-1c-8 0-18-2-25-9a78 78 0 0 1 17-2c7 0 13 1 17 4l2 3-1 2-9 2h-1zm-25-13l-3-1-1-3v-3l1-1 3 1 2 3v3l-2 1zm58-1l-3-2-1-3v-4h1c3 0 5 2 6 4v3c0 1-1 2-3 2zm-28-2c-16 0-24-5-28-8-2-2-4-4-4-6l-1-2 4-1c5 0 16 2 29 17zm17-1c-13-2-20-8-24-12s-5-8-5-9a19 19 0 0 1 5 0c7 0 18 3 24 21zm-65-6l-12-2c-7-1-9-4-11-6l-1-2v-1s5-2 11-2a43 43 0 0 1 9 1c11 2 16 10 16 10s-5 2-12 2zm29-11l-3-1-1-3-1-4 2-1c3 0 5 2 6 5v3l-3 1zm-22-3l-12-5c-5-4-12-10-13-19h2c2 0 5 0 9 3 5 4 10 11 14 21zm15 0l-10-7c-5-4-11-11-16-23l2-1h1c3 0 6 1 10 6 5 5 9 13 13 24v1zm-38-2c-4 0-6-2-7-3v-4h2c4 0 7 2 9 3v3l-4 1zm-10-13l-11-1c-5-1-7-4-8-7l-2-7c13 1 19 5 22 8s3 7 3 7h-4zm14-14l-4-4-3-7v-9l-1-6c0 1 8 4 8 11v15zm-11-1l-11-4-12-9-4-12v-7h2l6 2 6 6 8 8a119 119 0 0 1 6 14v2h-1z"/>
  <use xlink:href="#a" transform="matrix(-1 0 0 1 842 0)"/>
  <path fill="#d47600" d="M699 95l-3 1v1h-3l-3 1-5 3-2 1-1-1h-1l-1 2v2l-2 1h-3l-4 2-4-2-2 1-4 4-2 1h-4l-2 2h-4l-1 1-1 3-2 2h-3v2l-1 1-2 1-2 1-2 1h-2l-2 1h-4l-2 2-1 1h-3l-2 1v-1l-2 1h-1l-2-1-2-1h-1v2l-1 2-3 1v1l-2 3-5 5-4 2-4 1-3 2-8 4-12 6-2 1-4 1-6 2-6 2h-1l-8 2h-3l-3 1-5-1h-4l-2 1-5 2-8 4-3 2-4 2-4 2v-2h-3l-4 1h-4l-7 2-9 1-4 2h-6l-4 1-1-1h-1l-11 1-6-1-2 1-5-2-6-1h-1l-4-1-1 1h-1l-3-1h-1l-2 1-1-1h-1l-3-1-2-1-9 1-3-1-8-2h-2l-1 1-3 1-2 1h-3l-4-1-3-2h-6l-5-3-7-4-5-3h-2v1l1 3v7l1 1 1 2 1 2 1 5v6l-1 8v1l-1 5-1 4-4 11-1 1-2 2-6 3-4 3h-1l-3 1-2-1-3-1-2-1-3-2-4-1-4-2-1-1h-2l-3-1-1-1h-5l-3-2h-5l-2 1-2 1-1-1h-2l-1 2v1h-3l-1 1h-2l-1 1h-2l-2-1h-3v4l-2 2-2 1-2 2-3 9-3 3v1l-3 3-2 1-5 4-4 2-4 1h-2l-4-1-3-1-4-2-4-3-6-6-1-1-2-1h-1l-1 1v2l-1 7 1 3 4 6 1 3 1 1 1 1v1l2 5-1 2v2l-1 1v2l4 5 1 2-1 3-2 1v2l2 2 3 3 1 4 2 1 1-1 1 1h1l1 1 1 1h1l1 2 1 3 1 5v3l2 2v2l-1 4 2 1h2l2 1 2 3h2l1 1 6 5 1 1h1l2 1 1-1h3v1l2 1h2l5 1 2 1 5 2 1 2h2l1 2 3 1h2l2 1h1l5 2 3 1 2 1h4l2-1h5l2-2h1l2-1 5-1 2 1 5-2h3l2-1 6 2 2 1 1 2h2v1l2 3 2 3 1 1 1 5 2 1v4l-1 1v2l1-1h5l2-1 2-1 2 1h3l1 1 3 1h2v-2l-1-1-3-3-1-2-1-2v-7l1-1v-2h1l1-2 4-3 4-3 3-2 3-2h1l8-3h4l25 1h1v-2l1-1 3-1h5l1 1 2-2 2 1 4-2h2v-1l5-3 4-1h1l4-3 3-2 2-1h2l7-1 1-2h3l1-2 2-1 2-2 1-2 1-1h5l6 1 1-1 2-4 1-1 4-6v-4l1-2-1-5 1-4 2-6 2-2 3-2 2-1h3l1-1h14l7 2h3l3 3 3 2v1l2 1h2l3-1 1-2 3-1 1-2v-1l5-2h6l1-2h2l3 1h8l2 2h2l6 3h2l1 1h1l1-1v-1h-1l-2-1-1-3 1-2-2-3h-1v-1l-1-1-5-7-6-5-2-2-1-1-3-3-2-3-1-1v-1l-2-3-2-2-2-2-4-6-1-1h-3v-1l1-1h1v-1l-2-6v-2l2-9v-1l3-6 2-2 2-4 1-2 2-2 3-2h5l4 1h6l3-1 2-1v-1l2-5v-2l1-1 6-7 4-3 9-7 4-3 2-1 21-9 5-5 2-3 5-3 6-2 5-4 1-2 1-4h1l1-2 1-1 4-3 15-8 3 1 1-2 4-1h1l1-1 1-1v-5l1-1 1-3 1-1 1-1v-1z"/>
</svg>
