<svg xmlns="http://www.w3.org/2000/svg" xmlns:xlink="http://www.w3.org/1999/xlink" width="1440" height="960">
  <defs>
    <linearGradient id="d" y2="278" gradientUnits="userSpaceOnUse" x2="601" gradientTransform="matrix(1.14637 0 0 1.17117 33 82)" y1="342" x1="598">
      <stop stop-color="#fff" offset="0"/>
      <stop stop-color="#1ea8d1" offset="1"/>
    </linearGradient>
    <linearGradient id="e" y2="400" gradientUnits="userSpaceOnUse" x2="600" gradientTransform="matrix(1.14637 0 0 1.17117 33 82)" y1="326" x1="600">
      <stop stop-color="#FFF" offset="0"/>
      <stop stop-color="#c1d3e8" offset="0"/>
      <stop stop-color="#88b0d5" offset="0"/>
      <stop stop-color="#5998c6" offset="0"/>
      <stop stop-color="#2c87bc" offset="1"/>
      <stop stop-color="#007db5" offset="1"/>
      <stop stop-color="#0077b0" offset="1"/>
      <stop stop-color="#0075af" offset="1"/>
    </linearGradient>
  </defs>
  <path fill="#ed1c24" d="M0 0h1440v960H0z"/>
  <path fill="#034ea2" d="M0 0h1440v720H0z"/>
  <path fill="#fd0" d="M0 0h1440v480H0z"/>
  <g id="a" stroke="#000" stroke-width="0" transform="matrix(1.14637 0 0 1.17117 33 82)">
    <path fill="#b1babf" d="M452 477l-6 1s-2 9-5 11l11-5c0-2 0-5 2-6l-2-1z"/>
    <path fill="none" d="M442 488l11-10M452 484l-6-6"/>
    <path fill="#b1babf" d="M473 456l3 3-20 19h-2l-2-2v-1z"/>
    <path fill="none" d="M454 477l20-19"/>
    <path fill="#b1babf" d="M479 218l8 8-2 1-8-8 2-1"/>
    <path fill="#034ea2" d="M510 318l11 11 5-13 1-8v-43l3 3-12-13-8-7v70z"/>
    <path fill="#ed1c24" d="M527 308l11-32-11-11v43z"/>
    <path fill="#fd0" d="M510 248l8 7-37-37c-2-1-2 32-2 69l31 31v-70z"/>
    <path fill="none" d="M535 272l-59-59"/>
    <path fill="#b1babf" d="M477 214s-2-3-2-7c0 0-10-4-13-8 3 5 5 13 5 14 3 1 7 1 8 3l2-2z"/>
    <path fill="#ed1c24" d="M485 223l-3-2-1 3v21l-2 13 1 7h2l1-8 1-9v-13l1-12z"/>
    <path fill="#034ea2" d="M480 218s-3 8-3 14l-1 15-1 10 1 2s2 1 3-1l2-13v-21l1-3 1-1-3-2z"/>
    <path fill="#ed1c24" d="M488 217a87 87 0 0 1-8 1c6 0 9 4 9 4l2-2c2-4-1-4-3-3z"/>
    <path fill="#ed1c24" d="M480 218v1c1 1 4 6 8 4l1-1s-3-4-9-4z"/>
    <path fill="#034ea2" d="M481 218l7-3 1 2c0 1 0 2-3 2l-5-1z"/>
    <path fill="#034ea2" d="M491 214c-1-4-6-3-6-3-4 0-5 6-5 7v1c11-9 9 0 9 0l2-5z"/>
    <path fill="none" d="M462 200l14 15M467 214l8-7"/>
    <path fill="#b1babf" d="M480 204v-1a15 15 0 0 1-3 11l-2 3c-4 2-8 3-13 1l2 1c7 4 15 2 17-4 2-3 1-7-1-11z"/>
    <circle fill="#e8b909" cx="477" cy="258" r="2"/>
    <path fill="#e8b909" d="M480 270l-7-1c0-4 1-9 4-9s3 6 3 10z"/>
    <path fill="none" d="M476 263l-1 6M477 263v7"/>
    <circle fill="#e8b909" cx="481" cy="263" r="2"/>
    <path fill="#e8b909" d="M484 275h-6c0-4 0-9 3-9s3 5 3 9z"/>
    <path fill="none" d="M480 269v6M481 269l1 6"/>
  </g>
  <use xlink:href="#a" transform="matrix(-1 0 0 1 1439 0)"/>
  <g stroke="none" stroke-width="0">
    <path fill="none" d="M641 383l-13 5"/>
    <path fill="#39b54a" d="M619 392v-11c1-1 9-7 6-23l-1-7s-7 14-7 18c-1 4 0 10 1 12l1 6"/>
    <path fill="none" d="M624 355l-1 6-1 5-3 8v6M619 381c-1-1 2-4 3-5M619 374c1-1-1-4-1-5M619 376c0-3 4-4 4-7M621 369c-1-1-3-2-2-4M622 367l1-3 2-2M622 363v-5"/>
    <path fill="#39b54a" d="M628 381c0-4 0-6 3-8 2-2 5-2 6-6v4l-2 4-3 6"/>
    <path fill="#39b54a" d="M616 392c1-4 4-8 9-10l10-2 7-1c1-1 4-1 5-3-6 4-10 11-16 14-6 2-13 1-17 4"/>
    <path fill="none" d="M616 392c3-3 7-5 12-7l11-4M628 386l5 1M633 384h3M629 385c-1-2 2-3 3-4"/>
    <path fill="#39b54a" d="M648 368c2-2 1-5 2-7l3-7v8l-5 7"/>
    <path fill="none" d="M650 365l2-6"/>
    <path fill="#39b54a" d="M612 440c3 4 6 11 2 15 0-1 0-3-2-4l-3-1c-3-1-2-4-4-6v-1l7-3z"/>
    <path fill="none" d="M609 444c3 2 6 6 5 10M609 443v6M610 444l5 5"/>
    <path fill="#39b54a" d="M601 429l2-6 6-5 9-1h8l-15 5-9 8c-2 2-2 5-3 7"/>
    <path fill="none" d="M601 431l6-9 9-3M603 427l5-4"/>
    <path fill="#39b54a" d="M613 420c1-2 3-2 5-2M599 439l1-3 3-3 6-7 7-4c3-1 7 0 9-2l-3 5-8 7-8 3c-2 1-6 1-7 3l1-1"/>
    <path fill="none" d="M600 436c2 0 3-2 4-3l5-3 6-4 6-3"/>
    <path fill="none" d="M607 430l5-1 3-1M610 429l4-5"/>
    <path fill="#39b54a" d="M635 380l7-7 5-5c6-2 12 3 18 3l-7 3-9 1c-5 0-12 0-14 5"/>
    <path fill="none" d="M638 377l10-5 10-1M648 372l7 1M645 374l3-3 2-2"/>
    <path fill="#39b54a" d="M612 410c2 0 3-4 4-6l3-9 4-3c2-2 3-2 5-2l9-1 8-1-7 5c-3 4-4 7-8 9-3 3-8 4-11 5s-6 1-7 4"/>
    <path fill="none" d="M615 407c4-4 6-10 12-12 4-1 10-2 13-5"/>
    <path fill="none" d="M618 403l5-2h6M628 395l3 1 4-1M624 396l3-5"/>
    <path fill="#39b54a" d="M608 417c2 0 3-3 3-4l3-4 4-2 4-1h13l-6 3-7 5-9 1-5 2"/>
    <path fill="none" d="M611 415c3-2 5-5 10-6 3 0 7 0 10-2"/>
    <path fill="none" d="M614 413l4-1h4M621 409l3 1 2-1M618 410l3-3"/>
    <path fill="#39b54a" d="M597 443s-16-17-8-37l1 6c1 1 9 14 8 25l-1 7v-1z"/>
    <path fill="none" d="M597 442s-2-14-5-17c-2-4-3-11-2-13M592 423c1 0 2-1 2-3M594 429l1-3M594 432l-4-3M592 425c-1-1-4-1-4-3M589 418l-1-3M595 436l-3-2M595 434l2-4"/>
    <path fill="#39b54a" d="M623 375l4-9c1-1 11-3 16-18l2-7s-12 9-15 13l-4 11-2 6"/>
    <path fill="none" d="M643 345l-4 5-3 4-5 5-4 6M626 366c1-2 4-3 6-4M630 360l1-6M630 360c1-2 6 0 7-2M633 356v-5M636 354l2-2 3-1M638 351l2-5"/>
    <path fill="#39b54a" d="M603 381v-6c0-1-6-4-4-13 0 0 2-3 1-4 0 0 5 7 5 10l-1 7-1 3"/>
    <path fill="none" d="M600 360l1 4 1 3 1 4v3M604 375l-3-3M603 371l1-3M603 372c1-2-3-2-3-4M603 368s2-1 1-2"/>
    <path fill="none" d="M602 367l-1-2-2-1M601 365l1-3"/>
    <path fill="#39b54a" d="M602 404l1-12c1-1 9-7 9-26v-8s-9 15-10 20v21"/>
    <path fill="none" d="M611 363l-2 7-2 6-3 8-1 7M603 392c0-2 2-4 3-5M604 384c1-1-1-4-1-6M604 385c0-3 6-3 6-6M606 379l-2-5"/>
    <path fill="none" d="M607 376l2-3 2-2M608 372v-6"/>
    <path fill="#39b54a" d="M602 393l-4-8-4-6 8 5"/>
    <path fill="none" d="M602 388c-1-2-3-6-5-7M601 388l-2-3M600 386v-3"/>
    <path fill="#39b54a" d="M602 410s1-11 6-14l7-5 1-1c-2 2-3 17-3 18l-5 11-6 8-2 6"/>
    <path fill="none" d="M602 423c2-1 2-4 3-6l2-7 2-8 5-7M607 411c2-3 4-3 6-4M605 417l4-3M606 412l-2-6M608 405v-7M603 403l2-9 3-4 2-4"/>
    <path fill="#ffdf4f" d="M610 386l1 1v-1c1 0 3 0 2-1l1-1v-2h-1l-1-1v1l-1-1v1h-1v0l-1 2h1v1h1"/>
    <path fill="#de2126" d="M611 383l1 1 1-1c-1 0-2 0-1 1"/>
    <path fill="#ffdf4f" d="M611 393h2c1 0 2 0 1-1l1-1v-2l-1-1h-2v1h-1c1 0 1 0 0 0v2 1h1"/>
    <path fill="#de2126" d="M612 390l2 1v-1h-1"/>
    <path fill="none" d="M611 392c-6 3-10 9-9 15"/>
    <path fill="#39b54a" d="M622 377c4-2 6-7 10-9 2-2 5-2 8-3 2 0 5 0 6-2l-6 6-7 4-7 2c-2 0-3 2-4 3v-1z"/>
    <path fill="none" d="M626 374l6-4 9-3M630 372c2-2 4 0 6-2M633 369l3-2M623 388c-2 1-7 2-8 5"/>
    <path fill="#ffdf4f" d="M623 388l2 1 2-2v-1c1-2-3-3-3-1-1 0-2 0-1 1v2"/>
    <path fill="#de2126" d="M624 386c1 3 2-1 0 0l1 1"/>
    <path fill="#ffdf4f" d="M632 395l2 1c1 0 2 0 1-2l1-1h-1c2-2-2-3-2-1l-1 1v2"/>
    <path fill="#de2126" d="M633 394c0 2 2-2 0-1l1 1"/>
    <path fill="#ffdf4f" d="M627 399l2 1c1 0 2 0 1-2l1-1h-1c1-1-3-3-3-1l-1 1v2"/>
    <path fill="#de2126" d="M628 398c0 2 2-2 0-1v1"/>
    <path fill="#ffdf4f" d="M619 400l2 1 1-1c1 1 2 0 1-1v-1c1-2-3-3-3-1-1 0-2 0-1 1v2"/>
    <path fill="#de2126" d="M621 398c0 3 2-1 0 0"/>
    <path fill="#ffdf4f" d="M614 406l2 1c1 0 2-1 1-2l1-1h-1c2-2-2-3-2-1-1 0-2 0-1 1v2"/>
    <path fill="#de2126" d="M615 404c0 3 2-1 0 0h1"/>
    <path fill="#ffdf4f" d="M641 385l2 1c1 0 2-1 1-2l1-1h-1c2-2-2-3-2-1-1 0-2 0-1 1v2"/>
    <path fill="#de2126" d="M642 383c0 3 2-1 0 0"/>
    <path fill="#ffdf4f" d="M651 370l2 1c1 0 2 0 1-2l1-1h-1c1-2-3-3-3-1l-1 1c0 1-1 2 1 2"/>
    <path fill="#de2126" d="M652 369c0 2 2-2 0-1v1"/>
    <path fill="#ffdf4f" d="M643 370l2 1v-1c1 1 2 0 1-1l1-1h-1c2-2-2-3-3-2v2 1"/>
    <path fill="#de2126" d="M644 368c0 2 2-1 0 0"/>
    <path fill="#ffdf4f" d="M623 411c0 1 1 2 2 1 1 0 2 0 1-1l1-2h-1c1-1-3-3-3-1l-1 1v2"/>
    <path fill="#de2126" d="M624 410c0 2 2-2 0 0"/>
    <path fill="#ffdf4f" d="M614 414l2 1h1c1 0 2 0 1-2v-1c1-2-3-3-3-1l-1 1v2"/>
    <path fill="#de2126" d="M616 413c0 2 2-2 0-1v1"/>
    <path fill="#ffdf4f" d="M614 427l2 1v-1c1 1 2 0 1-1l1-1h-1c2-2-2-3-2-1-1 0-2 0-1 1v2"/>
    <path fill="#de2126" d="M615 425c0 3 2-1 0 0h1"/>
    <path fill="#ffdf4f" d="M606 432l2 1h1c1 0 2-1 1-2l1-1h-1c1-2-3-3-3-1-1 0-2 0-1 1v2"/>
    <path fill="#de2126" d="M608 430c0 3 2-1 0 0v1"/>
    <path fill="#ffdf4f" d="M629 379l2 1h1c1 0 2-1 1-2l1-1h-1c1-2-3-3-3-1-1 0-2 0-1 1v2"/>
    <path fill="#de2126" d="M631 377c0 3 2-1 0 0"/>
    <path fill="#39b54a" d="M650 367c3-3 3-8 7-10l7-3c-4 5-8 10-14 13"/>
    <path fill="#39b54a" d="M649 367l6-4h6l7-2c-4 6-13 2-19 6"/>
    <path fill="none" d="M651 365l4-4c2-2 3-3 5-3M605 424l4-5"/>
    <path fill="#39b54a" d="M598 444l2-5 6-4c5-2 12-1 16-5-2 5-8 10-13 12l-6 2-6 1"/>
    <path fill="none" d="M598 444c2 0 3-2 4-3l6-3 7-2 3-2M603 441c2 0 3 2 5 1M607 439l8-1"/>
    <path fill="none" d="M603 441l2-3 1-2M608 438l2-2 3-2M597 444l2-6 2-5"/>
    <path fill="#39b54a" d="M599 440v-14c0-1-9-10-6-31 0 0 2-7 1-9 0 0 8 18 8 23 1 6-1 14-1 17l-1 7"/>
    <path fill="none" d="M595 392l1 7 1 7 2 10v8"/>
    <path fill="#39b54a" d="M600 426l-4-7"/>
    <path fill="none" d="M599 417l2-7"/>
    <path fill="#39b54a" d="M600 418c0-4-6-5-6-8"/>
    <path fill="none" d="M598 410c1-2 3-3 2-5M597 407l-2-4-2-3M596 402l1-7"/>
  </g>
  <g stroke="none" stroke-width="0">
    <g fill="#009c4f">
      <path d="M843 433c-1-14-7-67-18-84 0 0 11 17 12 90l6-6z"/>
      <path d="M842 425c-7-42-29-79-29-79 8 18 23 63 27 91l3-3-1-9z"/>
      <path d="M806 348c19 35 27 86 28 95l7-7c-6-39-35-88-35-88"/>
      <path d="M795 345c4 5 18 35 24 51 5 14 9 39 11 50l9-8c-8-36-39-86-44-93"/>
      <path d="M784 341a324 324 0 0 0 43 109l9-8c-7-22-30-79-52-101"/>
      <path d="M784 363c12 17 34 58 40 90l10-10c-9-26-39-66-50-80"/>
      <path d="M792 387c15 20 26 54 27 69l10-7c-10-26-37-62-37-62"/>
    </g>
    <g fill="none" stroke-linecap="round">
      <path d="M824 452c-3-14-10-29-17-42M830 446c-7-19-19-41-31-61M828 427c-8-20-25-59-37-75M834 435c-5-21-18-50-25-64M836 429c-6-24-13-45-18-56M840 432c-2-19-11-51-19-68M838 408l-6-37"/>
    </g>
  </g>
  <g id="b" fill="none" stroke="#000" stroke-width="0" transform="matrix(1.14637 0 0 1.17117 33 82)">
    <path fill="#b1babf" d="M487 512l-6 2s-3 8-6 11c4-3 10-5 12-5 0-2 0-5 2-6l-2-2z"/>
    <path d="M477 524l11-11M487 520l-6-6"/>
    <path fill="#b1babf" d="M528 478l-38 36h-1l-2-2v-2l38-36 3 4"/>
    <path d="M489 512l35-33"/>
    <path fill="#fd0" d="M517 450c-24-16-28-63-28-70l1-82 7 7-37-37c-2-3-1 100-1 145 0 21 14 96 91 58 0 0 39-13 51-30l-8-1-4 2c-45 30-72 8-72 8z"/>
    <path fill="#034ea2" d="M489 380c0 7 4 54 28 70 0 0 27 22 72-8-14 6-25 7-32 5-22-7-45-32-48-57-4-26-3-75-3-75l3 2-12-12-7-7-1 82z"/>
    <path fill="#ed1c24" d="M521 347l-1-19-11-11-3-3v2c0 6-1 50 3 74 3 25 26 50 48 57 7 2 18 1 32-5l3-2c-39-6-67-42-71-93z"/>
    <path d="M520 327l-60-59"/>
    <path fill="#b1babf" d="M459 265l-3-2v-2c-1 0-3 0-5 2-1 1-2 3-1 4h2l2 3c2 2 4 2 6 1 1-2 1-4-1-6z"/>
    <path d="M459 268v-1 1zM468 271l-1 1 1-1z"/>
    <path fill="#ed1c24" d="M461 324v-10l2-10v-17l1-15-3-2-1 4-1 26-1 15v1l1 8"/>
    <path fill="#034ea2" d="M459 268s-3 8-3 16l-1 18c0 2-2 12-1 16l2 2s1-1 2-4v-1l1-15 1-26 1-4v-1l-2-1z"/>
    <path fill="#ed1c24" d="M467 266a87 87 0 0 1-8 1c6 0 9 4 9 4l2-2c2-4-2-4-3-3z"/>
    <path fill="#ed1c24" d="M459 267v1c1 1 4 6 8 4l1-1s-3-4-9-4z"/>
    <path fill="#034ea2" d="M459 267l6-5c1-1 2 1 2 2 0 0 1 1-2 2l-6 1z"/>
    <path fill="#034ea2" d="M468 260c-3-4-7-1-7-1-4 2-3 7-2 8v1c7-12 9-3 9-3v-5z"/>
    <path fill="#e8b909" stroke-width="1" d="M558 470c1-5 1-12-3-12-3 0-4 6-4 11l7 1" transform="matrix(.87232 0 0 .85385 -29 -70)"/>
    <circle fill="#e8b909" cx="456" cy="319" r="2"/>
    <path d="M454 324v6M456 324v7"/>
    <path fill="#e8b909" stroke-width="1" d="M561 464v7m-2-7l-1 7m5 0h-7c0-5 0-11 4-11 3 0 3 6 3 11z" transform="matrix(.87232 0 0 .85385 -29 -70)"/>
    <circle fill="#e8b909" cx="459" cy="322" r="2"/>
    <ellipse fill="#c0cad0" cx="453" cy="264" rx="2" ry="3" transform="rotate(45 453 264)"/>
    <path fill="#b1babf" d="M449 275s-3-2-3-5l2-5h2l2-2 2-2v-2c2-2 6-6 4-7-1-1-6 2-7 4l-1-1-1 1c-1-2-3-6-3-11 0 0-16-4-21-10 5 7 9 18 10 21 4 0 9 1 11 3l-1 1v1c0 1-2 3-5 3-3 1-5-3-5-3l-1 4c0 6 5 11 11 11l4-1z"/>
    <path d="M426 236l21 22M435 256l11-10M446 260c0-2 2-3 4-3 1 0 3 1 3 3s-2 4-4 4c-1 0-3-2-3-4z"/>
    <path d="M533 390c0 2 1 7 3 10s7 4 11 3" transform="matrix(.87232 0 0 .85385 -29 -70)"/>
  </g>
  <use xlink:href="#b" transform="matrix(-1 0 0 1 1440 0)"/>
  <g id="c" stroke="#000" stroke-width="0">
    <path fill="#fd0" d="M582 468l-18 2s-20 26-20 32c-1 5-1 10 13 8l11-2c6-2 7 0 7 0a1609 1609 0 0 1 11-39v-1h-4z" transform="matrix(1.14637 0 0 1.17117 33 82)"/>
    <path fill="#ed1c24" d="M587 458l-1 5 6 3-1 12a2381 2381 0 0 1-5 48c1 4-3 8-3 8l-3 5a86 86 0 0 1 0 2c0 3 4 4 6 3 4 0 11-5 11-5l1-73-11-8z" transform="matrix(1.14637 0 0 1.17117 33 82)"/>
    <path fill="#034ea2" stroke-linecap="round" d="M586 463a778 778 0 0 0 0 6l-8 26-3 15c-1 1-11 13-11 16 0 2 1 3 5 3l11-2c4-1 5-1 6 1v-2a9940 9940 0 0 0 5-48l1-12-6-3z" transform="matrix(1.14637 0 0 1.17117 33 82)"/>
    <path fill="#ebc900" d="M575 507l-8 1-3 18c0-3 8-11 10-14l1-5z" transform="matrix(1.14637 0 0 1.17117 33 82)"/>
    <path fill="#023f88" d="M586 530v-2c-1-2-2-2-6-1v12l3-5 3-4z" transform="matrix(1.14637 0 0 1.17117 33 82)"/>
  </g>
  <use xlink:href="#c" transform="matrix(-1 0 0 1 1435 0)"/>
  <g fill="#452c25" stroke="#000" stroke-width="0">
    <path stroke-width="1" d="M594 214s-9 20-6 22c0 0 9-15 16-21 4-4 6 0 7-3 0-3-10-8-10-8l-7 10" transform="matrix(1.14637 0 0 1.17117 33 82)"/>
    <path d="M679 350s-15 25-11 25 19-31 19-31l-5 1-3 5z" stroke="none"/>
    <path d="M683 344s-15 24-11 24c3 0 19-31 19-31l-5 1-3 6z" stroke="none"/>
    <path d="M686 339s-17 23-13 24c3 0 22-29 22-29h-5l-4 5z" stroke="none"/>
    <path d="M690 335s-19 21-16 22c4 1 26-26 26-26h-5l-5 4z" stroke="none"/>
    <path d="M691 328s-17 22-14 23 23-28 23-28h-5l-4 5zM687 347s-17 23-14 24c4 0 23-29 23-29h-6l-3 5zM696 343s-10 18-9 19 13-10 19-21-10 1-10 1" stroke="none"/>
    <path stroke-width="1" d="M587 219s-9 19-6 21c0 0 11-11 13-21 3-9 0 0 0 0v-10l-7 9" transform="matrix(1.14637 0 0 1.17117 33 82)"/>
    <path stroke-width="1" d="M579 221s-8 19-5 21c0 0 10-11 13-21 3-9 0 0 0 0l-1-10-7 9" transform="matrix(1.14637 0 0 1.17117 33 82)"/>
    <path d="M692 339s-20 20-16 21 26-25 26-25h-6l-4 4z" stroke="none"/>
    <path d="M694 342s-20 20-17 21c4 1 26-25 26-25l-5-1-4 5z" stroke="none"/>
    <path d="M695 345s-19 20-16 21 26-25 26-25l-5-1-5 5zM697 317s-15 19-13 22 15-8 20-17c4-8-7-5-7-5" stroke="none"/>
    <path d="M696 337s-12 24-9 23c3-2 16-20 17-24l1-8-10 6 1 5" stroke="none"/>
    <path d="M696 329s10-19 0 4c-10 22-14 19-14 19-1-2 9-17 9-17l9-13M707 327s12-19 0 3c-11 23-16 19-16 19-1-1 10-16 10-16l10-13" stroke="none"/>
    <path d="M708 328s-12 25-9 27c0 0 9-12 12-20 2-9 0-1 0-1l3-16M720 323s-12 24-9 26c0 0 9-11 12-20 2-9 0 0 0 0l3-16M703 319s-15 18-12 22c2 3 15-9 19-17s-7-6-7-6" stroke="none"/>
  </g>
  <g fill="#c69024" stroke="#000">
    <path fill="#b1babf" d="M815 620l-1 4H643v-8h171l1 4z" stroke="none"/>
    <path fill="#b87510" d="M655 620v4h127a90 90 0 0 0 0-8H656l-1 4z"/>
    <path fill="#b76e11" d="M656 616h126v-5H656v5z"/>
    <path fill="#ac620e" d="M656 611h126l-1-6H657l-1 6z"/>
    <path fill="#a2550b" d="M777 600H661c-3 0-4 3-4 5h124c0-2-2-5-4-5z"/>
    <path fill="#b76e11" d="M656 630h126v-6H655l1 6z"/>
    <path fill="#ac620e" d="M657 635h124l1-5H656l1 5z"/>
    <path fill="#a2550b" d="M661 640h116c2 0 4-3 4-5H657c0 2 1 5 4 5z"/>
    <path d="M671 640l-2-21c0-8 3-20 3-20h-6s-3 12-3 20l2 21h6zM766 640c2-3 2-12 3-21 0-8-3-20-3-20h6a100 100 0 0 0 1 41h-7zM709 640a133 133 0 0 1 0-41h-6l-1 20 1 21h6zM728 640a133 133 0 0 0 0-41h6l2 20-1 21h-7zM686 620l11 21 6-1-12-20c-8-14-14-21-14-21h-5l14 21zM752 620l-12 21-5-1 12-20c8-14 14-21 14-21h5l-14 21z"/>
    <path d="M749 620l12 21 5-1-12-20c-8-14-14-21-14-21h-5l14 21z"/>
    <path fill="#b1babf" d="M635 627s2-13-2-21c-4-7-10-10-12-9-1 1 15-23 31 0 0 0-15 1-12 29"/>
    <path fill="#d3dce0" d="M624 597c4-5 15-12 26 0h2c-16-23-32 1-31 0h3" stroke="none"/>
    <path fill="#b1babf" d="M632 622l-8 5s-11-6-18-7h-2 2c7-2 15-5 17-7 3 3 6 5 9 5"/>
    <path fill="none" d="M606 620h26M623 613l1 14" stroke="none"/>
    <path fill="#b1babf" d="M641 627l-3 8c-2 0-3-4-3-8M631 613h13v14h-13z"/>
    <path fill="none" d="M634 616h8v8h-8z"/>
    <path fill="none" d="M636 619h3v3h-3zM650 597h2c-16-23-32 1-30 0h2"/>
    <path fill="none" d="M650 597c-12-12-22-5-27 0" stroke="none"/>
    <path d="M689 620l-12 21-5-1 11-20 14-21h6l-14 21z"/>
  </g>
  <g>
    <path fill="url(#d)" d="M631 476c0 63 40 114 88 114s88-51 88-114c0-62-39-113-88-113s-88 51-88 113"/>
    <path fill="#395054" d="M769 468c4-3 7-3 12-4l10-2c3-1 11 5 14 6v8s-14 1-19-1l-17-8"/>
    <path fill="#006c3c" d="M683 487c2 1 1 2 0 3l6 4 3 3 4 3 5 2 8 1 7 1 19 1-12 2h-7c-1 1-1 2-3 2-1 1 0 2 1 2l4 1 6 2 7 1h7l7 1 6-1h5c2 0 4 4 2 4s2-1 0-1h-7l-4 4c-3 2-1 3 0 3l3 1 5 2 7 1 5 1 6 2 4 2h5l4 1 3 2-10 17c-9 14-22 23-32 29-10 5-23 6-42 4-18-2-36-21-43-30-8-10-11-20-11-20h1l4-1h3l4-1 3-2h3l3-1c1-1 3-2 1-2s0-1 0-1h10v-3l-2-1-3-1-4-2h-11c-4-1-6-4-2-4s1 0 2 0l3-1h9l1-1 2 1 3-1h3l3-1c2-1 0-1-1-1l-1-2-3-1h-10c-2 0-2-3 2-3h9l3-2 6-1c1-1-1-1-3-2l-1-1-12-8c-2-2 2-1 4-2 0 0 1-2-1-3l-4-1c-2 0-4-3-5-3l-3-1"/>
    <path fill="#6dbe45" d="M683 487v3c0 1 1 4 5 5l4 2 4 3 5 2 8 1 7 1 18 1-14 3c-1 1-3-1-4-1-1 1-1 2-3 2-1 1 0 2 1 2l4 1 6 2 7 1h7l7 1h6l5 1 6 1h-11l-4 4c-3 2-1 3 0 3l3 1 5 2 7 1 5 1 6 2 4 2h5l4 1 2 1 8-22c2-6 4-25 4-27l-4-2h-29c-2-1-6-2-7-1h-7l-16-1h-16l-7 1-6 1-7 1-10 1h-8"/>
    <path d="M683 487v4l5 4 4 2 1 1 2 1 2 2 2 1h5l4 1 5 1 15 1h5-3l-6 2-4 1-3-1-2 1-2 2c-1 1 3 2 4 2l3 1 3 1 7 1 6 1h17l7 1 3 1h-13l-3 3-2 2c0 2 3 3 4 3l4 1 6 2 6 1 3 1 5 1 4 2h5c3 0 4 2 6 3l3-10 5-14 3-15 1-10c0-2-1-2-2-3h-31l-4-1h-7l-11-1h-30l-2 1-5 1-7 1-10 1h-8 12l15-2 4-1 3-1h7l10 1h31l4 2 3-1h24l3 1 1 4a294 294 0 0 1-4 22l-4 14-4 10-4-2h-7l-3-2-3-1-4-1-6-1-8-2-6-2-1-1c-1-1 0-2 1-3l3-2 4-1h9l-2-1h-4l-4-1h-13l-2-1h-4l-6-1-6-1-5-2-4-1 2-2 2-1 2 1h2l4-1 6-1 3-1h-4a529 529 0 0 1-20-2l-6-1-5-1h-2l-2-2-2-2-1-1-4-1-4-3c-1-1-2-4-1-5"/>
    <path fill="#6dbe45" d="M680 490c2 2 1 1-3 3-2 1 12 9 13 10l2 1c2 1 4 2 2 2l-5 2-4 1h-4-2l-4 1h-5l10 1 4 1c2 0 2 1 3 2l2 1 1 1-3 1-3 1h-3l-2-1-1 2-3-1-3 1h-7c0 1-2 1-1 2h-3c4 1 5-1 10 1l5 2 5 1 3 1 1 1 1 3-3 1-3-1h-4s-2 0 0 1 0 1-2 2l-3 1h-2l-4 2-4 1-3 1h-3l-3 1s-6-10-9-23-4-33-4-34h6l12 1 12 2h5l6 4"/>
    <path d="M680 491h1l-1 1-3 1 1 2 4 3 5 3a55 55 0 0 1 3 2l1 1h1l2 1v1l-3 1-4 1-3 1h-7-2l-5 1c6 1 13 0 17 4l2 1h1c1 1-1 1-1 2h-5l-2 1-2-1h-1v1h-6l-4 1h-4l-1 1v1h-3 7l6 2 6 2 3 1h1l1 1 1 2-1 1h-9-1c0 1 2 1 1 2l-6 2-4 1-3 2-8 1h-3a48 48 0 0 1-3-7c-3-6-6-13-7-20a215 215 0 0 1-3-26v-3h6l8 1 14 2h6l3 2 3 2 1 1v-1l-5-3-3-2-3 1-13-2-8-1-6-1-3 1v3c1 19 4 38 13 54 5-1 10-1 15-4l5-1c1-1 5-1 5-3l-2-1h11v-1l-1-2-1-1h-1l-3-2h-2l-3-1-3-1-5-1h-3-2c-1 0-1 0 0 0h2c-1-1 1-1 1-1v-1h6l4-1s4 2 4 0v-1l2 1h5l2-1h2c1-1 0-2-1-2l-2-1-2-2-5-1-8-1h-2 4l4-1h8l2-1 3-1 4-1-1-1-3-1c-1-1 0 0 0 0l-2-2-2-1-7-5-2-2-1-1 1-1 3-1-1-1v1"/>
    <path fill="#557176" d="M636 484s0-2 5-2l10 1 12 1 9 2 4 2h13c7 0 2 2 10 0l16-3c3 0-2-2 6-1h13l9 1h16c3 1 4-1 6 1h16l9 1 7-1 4 1 1-13c0-2 3-4-2-4-19-2-12-3-23-4l-17-4-21-5-18 1-28-1-11-4h-24c-6-1-11 0-14 1l-7 2-1 28z"/>
    <path d="M636 484l1-1 6-1 4 1 7 1 12 1 5 1 5 2v-1 1l3 1h16l5-1 10-2h4l2-1v-1h1l5 1h39l4 1 2 1h2l8-1 14 1 4-1h2l4 1 1-11 1-4-1-2-5-1a132 132 0 0 1-10-1l-6-2-5-1-7-1-11-3-14-3-6-1h-44l-2-1-7-2-6-2-15 1h-7a44 44 0 0 0-20 3 231514 231514 0 0 1-1 28v-19l1-9 4-1 8-2 11 1h9l9-1 4 1 11 3h9l23 1 9-1h6l14 4 23 5 5 1 3 1 10 2h6c1 0 2 1 1 2v3l-1 11h-32l-4-1h-13l-4-1h-32v1h-1l-3 1-9 1-9 2-2-1h-16v-1l-5-2-6-1-12-1-11-1c-2 0-6 0-6 2"/>
    <g fill="#99afca">
      <path d="M784 477l-1 3v1l1-3v-1M649 475l-1 3v1l1-3v-1M653 474v0M657 472l-1 3v1l1-3v-1M659 471l-1 2s0 1 0 0a12 12 0 0 0 1-2M661 469l-3 7 3-6v-1M663 468l-2 5 2-4v-1M664 468v4a18 18 0 0 0 0-4M666 468v0c0-1 0 0 0 0M654 481l1-1v-1l-1 1v1M657 479l-1 1 1-1M676 464v0M677 468c2-1 2-3 2-5 0-1 0 0 0 0l-2 5M681 463v3a18 18 0 0 0 0-3M678 463l-2 4 2-4M663 477l-1 2 1-2M665 477l-2 2 2-2M668 477l-1 2 1-1v-1M669 476l-2 4 2-4M699 465v1h1l-1-1M699 470c2-1 3-3 3-5 0-1 0-1 0 0 0 2-1 4-3 5M685 473l-3 2v1l3-2v-1M681 480c3-1 5-3 7-6v-1c-2 3-4 6-7 7M686 484l3-3v-1l-3 3v1M692 479c-1 3-3 5-6 7l6-6v-1M694 478l2-2-2 2M699 483l4-5v-1l-4 6M704 479l-4 4s1 0 0 0l4-3v-1M716 477a13 13 0 0 0 1-5l-1 4v1M715 472l-1 5 1-4v-1M718 472v5c-1 0 0 0 0 0v-4-1M720 474l-1 4a13 13 0 0 0 1-4M721 474c1 4-1 7-3 9a13 13 0 0 0 3-9"/>
      <path d="M723 475l-2 4v1l2-4v-1M724 474l-1 3v1l1-3v-1M725 476l-3 5v1l3-5v-1M726 475v0M728 475l-4 6 4-6M735 470l-1 2 1-3v1M734 477l4-7v-1l-4 8s1 0 0 0M740 469l-1 3 1-3M730 477l-4 4v1l4-5s-1 0 0 0M731 478l-4 5v1l4-6M732 480l-2 1v1l2-1v-1M748 472l-2 2s1 0 0 0l2-1v-1M749 475l1-3-1 2v1M742 479l-1 1v1l1-2M744 483l2-5h-1l-1 5M744 478l-2 2v1l2-3M747 478l-2 3v1l2-5v1M747 482l2-3-2 2v1M751 472l-2 4 2-3v-1M754 473l-2 4 2-3v-1M756 474l-2 4s1 0 0 0l2-3v-1M758 481v-3c0-1 0-1 0 0v3M760 478l-3 6c2-2 3-3 3-5v-1M753 480l-1 2c-1 0 0 0 0 0l1-1v-1M756 480l-2 3 2-2v-1M767 474v0M768 473l-1 3v1c1-2 2-3 1-4 0-1 0 0 0 0M771 474l-2 4v1l2-5M773 475l-2 4 2-3v-1M775 476l-2 5v1l2-5v-1M777 479l-3 4 3-4M779 481l-4 4 4-4M767 484l1-1 1-1v-1l-1 2h-1v1M771 482l-2 2v1l2-3s0-1 0 0M772 482l-2 4 2-4M786 475c0 2-2 4-3 5v1c1-2 3-3 3-5v-1M786 480l3-3v-1l-3 4s1 0 0 0M790 476l-2 4v1l2-4v-1M793 476l-3 4v1l3-4v-1M795 477l-2 3 2-3M792 482l-4 3v1l4-3v-1M785 484l2-1v-1l-2 1v1M795 482l-3 3 3-2v-1M758 467l-3 2c2 0 3-1 3-2 1 0 0 0 0 0M710 471l-2 5 2-5M657 462l-5 3v1l5-3v-1M650 462l-4 3 4-3"/>
    </g>
    <path fill="url(#e)" d="M728 506l6-1-6 1m6-1zm-60-34l-8 4c-2 1-2 3-2 4l7 4-3 2v1c3 4 14 4 12 5s-5 1-3 3l8 6c3 1 3 3 3 4l3 2c2 0 4 1 3 2l-6 1-3 1-4 1h-5l-11-2 10 2 4 1 5 1 3 2 1 1c1 0 3 1 1 2l-3 1h-3-5l-1 1-3-1-3 1h-7c0 1 3 2-1 1-4 0-2 0 2 1l5 1 5 2 5 1 3 2c1 0 1-1 2 1v3h-6l-4-1v1c2 1 0 2-1 2l-3 1-3 1-3 2-4 1h-3l-4 1h-1s3 10 11 19c7 10 25 29 43 31 19 2 32 1 42-5 10-5 23-14 32-29l9-16-3-1c-1 1-1-2-4-2s-1 1-4 0l-4-2-6-2-6-1-6-2-5-1-3-1c-1-1-3-2-1-4l5-3 4-2 5-1-4-1-5 1h-13l-7-1h-7c-4 0-4-1-6-2l-4-1c-1-1-2-1-1-2a142 142 0 0 1 7-5h-4l-7-1-8-2c-5 0-3 0-5-2l-4-3-3-2-7-5c1-1 3-1 1-2-1-2-11-3-13-4v-1l3-1c1-1 0-1-2-2l-7-4c-1-1 2-3 5-5 4-1 12-8 13-10l-10 8"/>
    <path d="M684 463a121 121 0 0 1-11 9l-5 3-2 2 2 2 6 3c3 2-2 2-2 4 4 1 9 1 13 3l1 2-2 1v1l2 2 5 2 3 3 4 3 1 1h3l5 1 3 1 6 1h8l4-1 4-1h2v-1l-4 2-7 1-5 3-2 2-1 1 2 1 4 2 7 1 6 1h23a14 14 0 0 1 6 0h-1-1l-8 2-2 2-4 3c-1 3 7 5 9 5l7 2 6 1 4 1 3 1 3 2h3l3 1 2 2h3l-3 6-11 17c-4 6-9 10-15 14-4 4-9 7-14 9-5 3-11 4-17 4h-21c-7-1-13-3-19-6a99 99 0 0 1-36-42 46 46 0 0 1-1-2h1l8-2 4-1 3-1 6-2 1-1c0-1-2-1-1-2l2 1h9l-1-3-1-1-1-1h-1l-3-1h-1l-5-2-4-1-3-1-5-1h4c-1-1 2-1 2-1h3l4-1 4 1v-1h10l1-1c2-1 0-2-1-2l-1-1-2-1-5-2-15-3 5 1 8 1h6l3-1 4-1 3-2-4-2-3-4-4-2-4-3c-1-1-3-2-2-3l3-2v-1l-6-1c-2-1-4-1-5-3-2-1 2-1 2-3h-1l-2-2-3-2h-1c-1-1 0-2 1-3l3-2 4-2 7-4 5-5a900 900 0 0 1-12 9l-3 2-4 2c-1 0-2 2-1 3l2 1 3 2 2 1-3 2v1l1 1c2 2 5 2 7 3h2l2 1-2 1-1 1v1l3 3 4 3 4 2 1 2 2 2 2 1v1l-5 1-2 1-4 1-4-1h-3l-10-1 11 3 8 2 4 2 1 1-1 1v1h-3-7l-1 1-3-1-4 1h-4l-2 1h0-3l6 2 6 1 4 2h2l3 1 1 1 2 1v2c1 1 0 1-1 1h-2l-4-1-3 1 1 1-1 1-5 1-3 1-4 2-5 1-5 1c3 10 9 18 16 26 8 9 19 18 31 22l9 2 12 1c6 0 12 0 18-2 6-1 10-4 15-7l15-11 10-11 7-13 4-6v-1l-3-1-2-1-3-1-3-1-3-1h-1l-2-1-5-2-8-1-8-2a13 13 0 0 1-4-2c-1-1 0-2 1-3l6-4 4-1h2l2-1-3-1-7 1h-17l-6-1-8-1-3-2h-2c0-1-3-1-1-2l5-4 3-1 4-1 4-1h2v-1l-2 1-3 1-4 1h-9l-6-1-3-1-5-1h-3l-1-2-3-2-4-3a23 23 0 0 1-6-3v-2c3-3-5-5-7-5l-5-1h-1l1-1 2-2c1-1-2-1-3-2l-6-3c-1-2 5-5 6-5l4-3 8-6v-1M643 468l-3 2v1l3-3M644 469l-2 2v1l2-2v-1"/>
    <g fill="#4f91c5">
      <path d="M703 507h5-5M704 509l2-1h-2v1M702 506h3-3M695 510l-6-1v1h6M691 510h-4 4M688 511h-4 4M692 567h-4l-4-1v1h8M674 536h7-7M656 541h2l3 1 6-1h-6l-3-1-2 1M658 543h7-7M679 534h6-6M686 532h3-3M663 550h8-8M671 546c2-1 4 0 5-2-1 2-3 1-5 1v1M680 555l6-1-6 1M679 550h4l4 1-4-1h-4M680 565h6c2 0 3 1 5-1-2 2-3 1-5 1h-6M699 560l6-1 3-1h3-3l-3 1h-6v1M713 558h10c1 0 0 0 0 0h-10M727 558c4-1 6 2 9 2 1 0 1 0 0 0-3 0-5-3-9-2M740 559h5l4-1-4 1h-5M751 560l8-1v-1c-3 1-5 0-8 2M733 569l4-1 4-1-4 1h-4v1M735 571l6-2-6 2M759 565h7-7M760 568l2-1h3-5v1M765 562l2-1-2 1M702 566l4-1 4-1v-1c-1 2-2 2-4 2l-4 1c-1 0 0 0 0 0M703 568c2-2 4-1 7-1v-1l-7 1v1M700 562c3-1 7 2 9-1-2 3-6-1-9 1M710 575h3l6 1v-1h-9M710 577c2-1 5 1 8 1-3 0-6-3-8-1M695 534c2-2 5 0 8-1-3 1-6-2-8 0v1M696 535h5v-1l-5 1M683 548l6-1-6 1M757 552c1-2 3-2 5-2 1 0 1 0 0 0l-5 1v1M751 556c2-2 5 0 8-1v-1c-3 1-6-1-8 2-1 0 0 0 0 0M691 560c2-2 4-1 6-2-2 0-4 0-6 2M776 539h4l4-1h-4l-4 1M774 542l3-1h2v-1l-1 1h-4v1M771 537c1-1 4 1 5-1h-5v1M778 543h3l2-1h-2l-3 1M764 536c2-2 5 1 7 0-2 1-5-2-7 0M761 535l3-1 3-1s-1 0 0 0l-3 1-3 1M710 513h5-5M712 515l3-1h-3v1M748 562h3v-1h-3v1M684 520h-6v1l2-1h4M683 521h-7l7 1v-1"/>
      <path d="M681 523l-4-2h-4l4 1 4 1M675 548c2-2 5-1 7-1v-1c-2 1-5-1-7 1v1M676 549l2-1 2 1v-1h-2l-2 1M677 552h2-2M678 544h4-4M672 544h5v-1l-2 1-3-1v1M687 558l5-1c-2 0-4-1-5 1M715 560h5v-1l-5 1M727 560h6c-2 1-4-1-6-1v1M742 560h6s-1 0 0 0h-6M752 561h3l4-1h-4l-3 1M704 560h3l4-1h-4l-3 1M712 571c1-2 4 0 6-1v-1c-2 2-5 0-6 2-1 0 0 0 0 0"/>
      <path d="M714 572c2-1 5 0 6-2-1 2-4 1-6 1v1M730 579c2-2 3-2 5-1h6l-6-1c-2 0-3 0-5 2"/>
      <path d="M731 579h4v-1l-4 1M696 557l4-1-4 1M702 557l4-1v-1c-1 1-3 0-4 2M713 556h-2l-3 1 3-1h2M717 557l4-1 3 1-3-1h-4v1M730 557l4-1-4 1M738 557c2-3 5 0 8-1-3 1-6-2-8 0v1M685 557l4-2-4 1v1M726 557c1-2 3-2 4-2-1 0-3 0-4 2M748 556l3-1-3 1c-1 0 0 0 0 0M753 554l3-1-3 1M753 551l3-1-3 1M681 552h4v-1l-4 1"/>
    </g>
    <path fill="#fff" d="M634 454s9-1 8 1c0 2 1 2 3 2s10-1 10 0c1 1 8-1 10-1l6-1h4v3s3 3 5 3l3 1c1 1 0 2 2 2l5-1 3-2 5-1 4 1 5 1c3 2 6 2 9 2h21l4-2 2-1 5 3 8 1h5l7 2 8-1-2-1-6-2-10-4c-7-1-6-3-8-4h-5c-2 0-1-2-7-6l-8-5-10-7c-2-3-7-2-9-2-5 0-7-5-12-4l-10-4c-5-1-10 3-14 5-3 3-12 7-16 11-3 3-12 8-17 9l-8 2"/>
    <path d="M691 438l-2 1c-1 0 0 0 0 0l2-1M722 443l-7 5 7-5M722 439l-5 5 5-4v-1M720 438l-3 1v1l3-2M720 439l-4 4 4-3v-1M721 446c-1 2-2 4-4 4v1l4-5M720 450l-2 2v1l2-3M720 453l3 3v-1l-3-3v1M723 458l1 2v-1l-1-1M688 442l-5 4c2 0 4-2 5-3v-1M686 446l-8 4v1l8-4v-1M682 450l-5 5c2 0 4-2 5-4v-1M670 452l-4 2v1l4-2v-1M667 451l-1 1h1v-1M686 455l-2 1 2-1M710 456l-3 1v1l3-2M716 455l-1 1v1l1-2"/>
    <g fill="#007638">
      <path d="M658 515l1 3-1-3s0-1 0 0M658 518l-1-2-1-1c0 2 1 2 2 3M656 517c-2-1-2-3-2-6l-1 1 3 6v-1M660 518v-1 1h0M662 518l-1-1v1h1M652 517l-1-5c0-1 0 0 0 0l1 5M654 503l-1 3 1-3c0-1 0-1 0 0M652 506v-1 1M654 506l1-2-1 2M663 504v2c0 1 0 1 0 0v-3 1M655 507l1-4v1l-1 2v1M662 506v-1 1M658 502v4s0 1 0 0v-4M663 506v-1 1M673 508l1-3-1 2v1M658 506l2-4-2 4s1 0 0 0M656 506c2 0 1-3 1-4 0 1 1 3-1 4M660 504l-1 2 1-2M663 507l1-1v-1 1h-1v1M661 507l1-4v-1l-1 4v1M651 506v-1 1M654 517l-1-4 1 5v-1M651 517l-1-2v1l1 1M663 517v-1 1M672 527l1 1-1-2v1M672 528l-1-1 1 2v-1M725 507l2-3-2 3M727 507l1-7-1 6v1M777 513v-1-1 2M782 513v-1 1M778 514a14 14 0 0 0 1-5l-1 4v1M781 513v-3 3c0 1 0 1 0 0M779 513a24 24 0 0 0 1-6l-1 6M776 513v-1-1 2"/>
      <path d="M778 514l1-6-1 5v1M777 514a13 13 0 0 0 0-3v3M779 513v-3 3c0 1 0 1 0 0M726 507l2-4-2 3v1M724 507l1-1v-1l-1 2M729 506v-2a13 13 0 0 1 0 2M731 505l1-4s0-1 0 0l-1 4M733 504v-2 2c0 1 0 1 0 0M734 504a20 20 0 0 0 1-5l-1 4v1M736 503a8 8 0 0 0 1-3l-1 3M738 504l1-3v-1l-1 3v1M741 503l2-3v-1l-2 3v1M744 503l1-4s0-1 0 0l-1 3v1M747 502l1-3s0-1 0 0l-1 3c-1 0 0 0 0 0M743 503v-1-1l-1 2h1c1 0 0 0 0 0M737 504v-1-1 2M734 506l1-3-1 2v1M733 506v-3 3M731 507v-2 2M729 507l2-4v-1l-2 5M739 504l1-3s0-1 0 0l-1 3M741 504v-1-1 2M744 503v-4c0-1 0 0 0 0v4c-1 0 0 0 0 0M746 503a12 12 0 0 0 1-5l-1 4v1M723 504l-1 3v-1l1-1v-1M723 507v-2 2M732 505v-1 1M735 505v-3 3M740 504l1-4-1 3v1M754 518l2-4-2 3v1M758 517l1-3s0-1 0 0l-1 3c-1 0 0 0 0 0M760 517c1-2 2-3 1-5v1c1 1 0 2-1 3v1M763 516v-5 5M756 515v2l1-1-1-1M759 517v-2 2M762 516v-2 2M756 517v-1-1 2M753 518v-2 2M761 512v2-1-1s0-1 0 0M758 514l-1-1a12 12 0 0 0 1 2v-1M760 515v-2-1 3M758 514v-1 1M763 514v-1h-1l1 1M759 517l1-2-1 1v1M757 514l-1-1 1 1v0M787 526l2-6-2 5v1M788 525l1-1v-1l-1 2M786 526l1-2-1 1v1M789 525a17 17 0 0 0 1-4l-1 3v1M790 525l1-6-1 6M781 513v-2 2M791 525l1-5v-1l-1 5v1M772 525v0M719 505l2-4-2 3v1M771 526v-1 1M773 526v-2 2M719 501l-1 3 1-3s0-1 0 0M723 508a15 15 0 0 0 1-6l-1 5v1M717 504l1-1-1 1M722 507v-1h-1v1h1M770 495v-1 1M786 496v-2 2M778 496a21 21 0 0 0 1-6l-1 5v1M776 496v-1-1 2M782 496v-2 2M774 495l1-3v-1l-1 4c0 1 0 1 0 0M780 496l1-3v-1l-1 3v1M772 496v-2-1 3M777 496v-2 2M775 496l1-4v-1l-1 4v1M773 495l-1-1 1 1c0 1 0 0 0 0M779 496v-1h1l-1-1v2M784 494l1 1v1l-1-3v1M781 496v-1-1 2M783 496v-4 4s0 1 0 0"/>
      <path d="M778 496l1-4a27 27 0 0 0-1 4M773 495v-2 2c0 1 0 1 0 0M771 496v-1-1 2M786 496v-1-1 2M775 496v-5s0-1 0 0v5M777 496v-3 3M780 496v-2c0-1 0-1 0 0v2M782 494l1 2s0 1 0 0l-1-3v1M771 495v-1 1M787 495h-1s0-1 0 0l1 1v-1M776 514v-2 1a1 1 0 0 0 0 1M780 513v-2c0-1 0-1 0 0v2M773 525v1-1M772 524v3-3M762 515l1-2v-1l-1 3M763 518a2 2 0 0 0 1-2l-1 2M771 527v-2 2M762 516v-1 1M761 518v-2-1 3M755 510v0M756 517h1v-1l-1 1v0M764 513l-1 3v1l1-4M757 512v2c0 1 0 1 0 0v-2M760 517a5 5 0 0 0 1-3l-1 3c-1 0 0 0 0 0M736 503v0M732 505v-1 1M729 506v-2 2M725 507v-2 2M720 507v-1 1M721 504c-1 0-1 0 0 0M724 507l1-2-1 2M740 502l-1 2 1-2M743 501v0c0-1 0 0 0 0M745 503a2 2 0 0 0 0-2v2M748 502s0-1 0 0v-1 1M720 491v-2 2M728 490v-3 3M724 486v0M726 488v-1 1M723 486l-1 3 1-3M727 489v-1-1 1c-1 0 0 0 0 0v1M721 490v-1 1M723 489v-1 1M721 489v-1 1M725 488v0M727 490v-1-1 2M648 490v-5 5M643 491c-1-3-2-5-1-8 0 0-1 0 0 0-1 3 0 6 1 8M647 490v-1 1M649 491v-2 2M645 490l-1-3 1 4v-1M648 490l-1-1 1 2v-1M645 490l1-4-1 5v-1"/>
      <path d="M643 489c-1-1 0-3 1-3v-1c-2 1-2 3-1 5v-1M650 490v-1h-1l1 1M646 487l-1 2s1 0 0 0l1-2M644 490v-1 1M646 490v-1 1M649 490v1-1M642 491v-4c0-1 0-1 0 0v4"/>
    </g>
    <path fill="#999b9e" d="M693 473l-1 1v1l1-1v-1M687 470l-3 3c1-1 1-2 3-2v-1"/>
    <g fill="none" stroke="#000">
      <path fill="#949699" d="M790 420l4 15c-12-14-41-24-75-24-33 0-62 9-75 23a120 120 0 0 1 10-24c15-10 38-16 65-16s51 6 65 16l6 10z" stroke="none"/>
      <g fill="#fd0" stroke-width="0" stroke="none" transform="matrix(1.14637 0 0 1.17117 33 82)">
        <path d="M597 284l2 8 2-8M593 283l-1 8s5-5 5-7M590 279l-4 7 7-3"/>
        <path d="M589 276l-7 4h9M590 272l-8 1 7 3"/>
        <path d="M591 269l-8-2 6 6M594 266l-7-4 4 7M598 265l-5-7 1 8"/>
        <path d="M601 265l-2-8-2 8M605 266l1-8-5 7M608 269l4-7-7 4"/>
        <path d="M609 273l7-5-9 1"/>
        <path d="M609 276l8-2-8-2"/>
        <path d="M608 279l8 1-7-5M605 282l8 4-5-7M601 284l6 6-2-8"/>
        <ellipse cx="599" cy="274" rx="11" ry="10"/>
      </g>
      <path fill="#000" d="M716 400l-1 1-1-1 1-1 1 1" stroke="none"/>
      <path d="M593 272c1-2 2-2 4 0" transform="matrix(1.14637 0 0 1.17117 33 82)"/>
      <path fill="#000" d="M726 400l-1 1-1-1 1-1 1 1" stroke="none"/>
      <path d="M601 272c1-2 3-2 4 0M597 275l2 1 2-1M598 281h2M558 279l-1-2s-3 0-5 3c0 0-2-3-5-1v3s2-3 5-1c0 0-2 4 1 4s1-4 0-4c0 0 1-3 5-2zm-5 4v1l-1-1v-1l1 1zM575 272l-1-1v1l-1 1s-2-1-4 1l-1-1s-2 0-1 1l2 1s2 5 3 4c2 0 2-5 2-5s3-1 1-2zm-3 6l-2-3 3-1c-1 0 0 0 0 0l-1 4z" transform="matrix(1.14637 0 0 1.17117 33 82)"/>
      <path stroke-width="2" d="M626 275v-1-1l-1-1-1 1 1 1 1 1 4 1 2 1h2v-1l-2-1-2 1v4l1 1v-3h-1l-4-1-2-1-1 1v1h2l1-1v-2z" transform="matrix(1.14637 0 0 1.17117 33 82)"/>
      <path d="M646 283s-1-1-2 0c0 0-4 0-1-5 0 0-3 1-2 4 0 0 0 3 3 4 0 0 3 1 3-2l-1-1zm-1 2v-1c0-1 0 0 0 0h1l-1 1z" transform="matrix(1.14637 0 0 1.17117 33 82)"/>
      <path d="M644 282s2 0 2-2c0 0 4 0 3 6v-5l-4-3s-3 0-2 2l1 2zm1-3v1h-1l1-1z" transform="matrix(1.14637 0 0 1.17117 33 82)"/>
      <path fill="#fd0" d="M672 409l-1-2s-3 0-5 3c0 0-2-3-6-1v3s3-4 5-1c0 0-1 5 2 5s1-5 1-5h-1s2-3 5-2m-5 4v1l-1-1v-1l1 1M692 400h-1v1h-1l-4 2-2-1c0-1-2 0-1 1l2 1s3 6 4 5c2 0 2-6 2-6s3-2 1-3m-3 7l-2-3c1-2 2-1 3-1-1-1 0 0 0 0l-1 4" stroke="none"/>
      <path stroke="#fd0" d="M626 275v-1-1l-1-1-1 1 1 1 1 1 4 1 2 1h2v-1l-2-1-2 1v4l1 1v-3h-1l-4-1-2-1-1 1v1h2l1-1v-2z" transform="matrix(1.14637 0 0 1.17117 33 82)"/>
      <path fill="#fd0" d="M774 413s-2-1-3 1c0 0-4-1-1-7 0 0-3 2-2 5 0 0 0 4 4 5 0 0 3 1 3-2l-1-2m-1 3l-1-1 1-1v2" stroke="none"/>
      <path fill="#fd0" d="M772 412s1 0 2-1c0 0 4-1 3 6 0 0 2-2 1-6 0 0-2-3-5-3 0 0-3 0-3 3l2 1m0-3l1 1-1 1v-2" stroke="none"/>
    </g>
    <g>
      <path fill="#fd0" d="M717 549v-3h23v3h-23"/>
      <path fill="#5c5342" d="M744 544h6v2h-6z"/>
      <path d="M754 545v3-3l-4-19 4 18 3-6"/>
      <path d="M753 548l3-2h1v1h-2l-2 1"/>
      <path d="M755 548l2-1 1-1v1h-1l-2 1M752 542v2l1-1-1-1m0 2v-1-1l1 1-1 1M746 528l-9 1v-1h9"/>
      <path d="M737 522l4 23-4-12v-1l3 10-3-18v-2z"/>
      <path d="M739 546l-2-15 2 14M738 545l-1-6 1 6c0 1 0 0 0 0"/>
      <path d="M737 534l-1 11 2-11M737 528l-2 16v1l2-16"/>
      <path d="M737 532l-12 9v-1l12-8"/>
      <path fill="#858d8d" d="M745 543h6v1h-7z"/>
      <path fill="#755338" d="M755 545l2-8-1 8"/>
      <path fill="#fd0" d="M761 541l-2-3h-2v1h1l3 3-1 1 1-2z"/>
      <path fill="#034ea2" d="M758 539h-1l1 1c1 1 2 3 3 2l-1 1 1-1-3-3"/>
      <path fill="#ed1c24" d="M757 540l2 1 1 2 1-1c-1 1-2-1-3-2l-1-1v1"/>
      <g fill="#a37853">
        <path d="M737 534l14-8v-1h-1l-13 8"/>
        <path d="M738 529v16h-1v-29 12zM736 546h20v-1h-19l-1 1"/>
      </g>
      <g stroke="none" stroke-width="0">
        <path fill="#616264" d="M728 542h2l-3 1-3 2v1h-4l2-2 3-2h3"/>
        <path fill="#a3a5a8" d="M737 546c-1-2-3-4-6-4-5 0-5 2-7 4s9 0 13 0z"/>
        <g fill="#797a7d">
          <path d="M735 546v-1 1M735 545v-1 1M735 544h-1 1M734 544v-1 1M731 543h-1l1-1v1M730 543h-1 1M729 543h-1 1M728 543h-1 1M727 544c0-1 0 0 0 0M726 545c-1 0-1 0 0 0"/>
        </g>
        <path fill="#939598" d="M730 542c-5 0-5 2-7 4h1c2-2 2-4 7-4h-1z"/>
        <g fill="#442c13">
          <path d="M717 546v-3h1v1h4l-1 2h-4M719 538v6-6zM721 537v7-7zM724 543v-7 7zM728 542l1-6-2 6z"/>
          <path d="M724 536l-3 8 2-8zM724 536l1 6-1-6z"/>
        </g>
        <path fill="#a48b58" d="M729 536h-6l-4 2h5z"/>
        <path fill="#a37853" d="M719 538l4-2h6-6l-4 1z"/>
        <path d="M722 542l2-1 1 1-1-1-2 1v1h1l-1-1z"/>
        <path fill="#939598" d="M721 546c2-2 2-4 7-4h-1c-5 0-5 2-7 4h1z"/>
      </g>
      <path fill="#fd0" d="M744 549l12-1h-15"/>
      <path fill="#696161" d="M708 531h-2v2l1 1 2-2 2 1 2-1h2l3-1 2 1h2l1-1h9l1-1 1-1h-4l-1 1-2-1h-7c-2-1-2 0-3 1h-4l-3 1h-2"/>
      <g>
        <path fill="#84848a" d="M708 549l-1 1-1-1v-14l1-1 1 1v14z"/>
        <path fill="#453717" d="M717 547h-1l-1 1h-2v1h4v-2z"/>
        <path fill="#6a5e46" d="M713 547h-3v2h3"/>
        <g fill="#453717">
          <path d="M711 549h-1v-2h1v2zM711 549v-2 2zM711 549v-2 2zM712 549v-2 2zM712 549v-2 2zM713 549h-1v-2h1v2z"/>
        </g>
        <path fill="#2f2311" d="M710 549v-3h-1v2-1h-1v2zM701 547v1h-1v-1h-1v-3 5h4v-2h-1v1l-1-1v1z"/>
        <path fill="#866d46" d="M704 548h-1v1h1z"/>
        <path fill="#acacad" d="M708 540l-1-1-1 1h2"/>
        <path fill="#866d46" d="M707 547h1l-1-1v1h-1v1-1 2h2v-2"/>
        <path fill="#2f2311" d="M703 549h3v-1h-2"/>
        <path fill="#453717" d="M698 549v-2h-4v-2h-1v2h-1v1-1h-1v1h-3v-3 3l-3-1 1 1 12 1"/>
        <path fill="#895f33" d="M686 548l-6-2-9-3 1 1 12 4h2"/>
        <path fill="#fff" d="M708 531h-2v2l1 1 2-2 2 1 2-1h2l3-1 2 1h2l1-1h9l1-1 1-1h-4l-1 1-2-1h-7c-2-1-2 0-3 1h-4l-3 1h-2"/>
      </g>
      <g>
        <path fill="#ffe600" d="M741 548v1h-42l-12-1-8-1 1 2h1a51 51 0 0 0 16 2h40a390 390 0 0 0 19-3h-15z"/>
        <path d="M683 552l-8-7 8 7z"/>
        <path fill="#565759" d="M685 551h-1v-2 2h-1 2z"/>
        <path d="M686 549h0M689 550v-1l1 1h-1M692 550v-1l1 1h-1M695 550l1-1v1h-1M699 550v-1 1M702 550v-1 1M720 550v0M723 550v0M725 550h1v1l-1-1M728 550h1l-1 1v-1M731 550v0M733 550h1c1 0 0 0 0 0v1l-1-1M736 550h1l-1 1v-1M705 550v-1 1M708 550"/>
        <path fill="#ed1c24" d="M683 551v1l4 3h68l-1-3-8 1h-2c-2 0 0 0 0 0h-45-12l-4-1v-1z"/>
        <path fill="#034ea2" d="M756 549v1l-19 1h-50l-6-2h-1a29 29 0 0 0 3 3l4 1h57l10-1 1-1 1-2"/>
        <path fill="#fd0" d="M717 549v-3h23v3h-23"/>
        <g fill="#9b7e39">
          <path d="M730 555h1v-3h-1v3zM729 552v3l1-3h-1M727 554h1l1-2h-1l-1 2zM726 553h1l1-1h-1l-1 1zM732 555l1-1-1-2h-1l1 3z"/>
          <path d="M733 554h1l-1-2h-1l1 2zM734 553h1l-1-1h-1l1 1z"/>
        </g>
      </g>
      <g>
        <g fill="none" stroke="none" stroke-width="0">
          <path fill="#fff" d="M717 524h1v-1 1-1h3v-1h1-2a8 8 0 0 1-1-1h-2-2-1-2-1l-1-1-1 1h-2l-1 1h-1-2 2s1 0 0 0v1h4v1-1 1l1-1v0l1 1v-1 1l1-1 1 1h2l1-1v0l1 1"/>
          <path d="M720 523l-2-1h1M720 522h-1M721 522h-1-1M719 523l-1-1M719 523l-2-1M718 523l-1-1M718 523l-1-1M718 523l-1-1M717 524l-1-2M716 523v-1M715 524l1-1v-1M715 524v-1M714 522h1v-1h4M715 523v-1h1"/>
          <path d="M715 522l1 1v-1M716 521v1h1"/>
          <path d="M716 521l1 1c1 0 0 0 0 0M717 521v1"/>
          <path d="M717 521v1h1M716 521h1"/>
          <path d="M717 521h1v1M718 521v1M716 522v1M716 523v-1M719 523h1M717 521h1M716 521h1M716 521v1M719 521v1M718 521h1v0M717 522h1v1M715 522h1M715 521h1M715 521h1M714 523v1M711 522h1M712 522v1M712 522v1M712 522l-1 1M713 521l-1 1M711 522v-1c0 1 0 0 0 0h-1-2M712 521l-1 1M706 522h1M706 523l1-1h1"/>
          <path d="M707 523v-1h1"/>
          <path d="M707 523h1v-1h1"/>
          <path d="M708 523h1v-1"/>
          <path d="M708 523h1l1-1M709 523l1-1M709 523l1-1M710 523v-1M710 523v-1M711 524l-1-1 1-1M711 524v-1M712 523h-1M711 523v-1M710 521v1M710 521v1h-1 1M708 521l-1 1M709 522h-1M709 522"/>
          <path d="M710 521h-1v1M709 521h1M708 522l1-1M710 521h-1M711 522h1M710 522v1M710 521v1M711 522h-1M709 522l-1 1M708 522l-1 1M707 521v1M706 522v1M705 522h1M707 522"/>
        </g>
        <path fill="#2f3b30" d="M712 544l1-1 2-2-1-2 2-3c0-2-2-3-2-3s3-1 3-3l-2-4h-1l1 2s2 1 1 2l-3 2v1l2 3-2 2v1l1 2-1 1-1 2"/>
        <path fill="#2f3b30" d="M714 544l-1-1-2-2 1-2-1-3c0-2 2-3 2-3s-3-1-4-3l2-4h2l-2 2-1 2 3 2v1l-2 3 2 2v1l-1 2 1 1 2 2"/>
        <path fill="#64472d" d="M713 521h1v28h-1zM712 519h2l-1 1-1-1"/>
      </g>
    </g>
    <g fill="none" stroke="#000">
      <path d="M631 242c27 16 46 52 46 94 0 50-27 92-63 102" transform="matrix(1.14637 0 0 1.17117 33 82)"/>
      <path d="M630 244c27 15 45 51 45 92 0 49-26 90-61 100M582 438a60 60 0 0 0 34 0" transform="matrix(1.14637 0 0 1.17117 33 82)"/>
      <path d="M659 387c-10 23-28 39-48 44v-1a52 52 0 0 1-27 0l1 1c-19-5-35-20-45-41l1 1c10 20 25 35 44 40l-1-1a52 52 0 0 0 27 0v1c20-5 37-21 47-43" transform="matrix(1.14637 0 0 1.17117 33 82)"/>
      <path fill="#b1babf" d="M757 365s-17-11-39-11c-16 1-35 10-35 10-18 11-33 31-43 55-6 17-10 36-10 57 0 59 33 106 74 117 0 0 6 3 14 3l16-1c42-10 75-59 75-119 0-77-60-116-52-111m-23 222l-16 2-15-2c-36-10-66-55-66-109 0-19 4-38 10-54 9-22 23-39 40-49 0 0 17-10 31-11 20 0 35 12 35 12 28 17 47 56 47 101 0 55-28 101-66 110" stroke="none"/>
      <g fill="#c69024" stroke="#080101" stroke-width="0">
        <path d="M683 366c-31 19-53 61-53 109 0 58 31 106 71 118l-1 2c-41-12-71-61-71-120 0-49 21-91 52-110l2 1zM756 366c31 19 52 61 52 110 0 57-30 106-70 117l1 2c40-12 71-61 71-119 0-50-21-92-52-111h-1l-2 1h1z" stroke="none"/>
        <path d="M687 376c-28 17-48 56-48 101 0 53 27 97 64 108l1 2h-2c-37-11-65-56-65-110 0-45 20-84 48-102l2 1zM757 364l-5 12h-1c-4-3-17-10-33-10-13 0-27 8-30 10 1-3-6-12-6-12l1-1s19-11 35-11c22 0 39 12 39 12" stroke="none"/>
        <path d="M752 376c28 17 47 56 47 101 0 53-27 97-64 108v2h2c37-12 64-56 64-110 0-45-19-84-48-102l-1-1-1 2h1z" stroke="none"/>
        <path stroke-width="1" d="M759 365c-3 2-5 5-6 8v4l-3-2v-3c1-4 4-7 7-8l2 1zM679 366c3 1 5 4 6 8v3l3-1v-3c-1-5-4-8-7-9l-2 2zM739 595l-2-1c0-4-2-5-2-5h-1v-5l-16 2a57 57 0 0 1-15-2l1 5h-1l-2 4-1 2h1c0 4 3 4 5 4 0 4 3 4 4 3 0 3 1 3 3 5l1 1c2 2 3 7 5 7s3-5 5-7l1-1c2-2 3-2 3-5 2 1 4 1 5-3 2 0 5 0 5-4h1z"/>
        <path stroke-width="1" d="M740 595l-4-8v-3h-2l-1 4c1 4 3 7 6 8l1-1zM698 594c2-1 4-4 4-7l1-3h2v4c-1 4-3 7-5 8l-2-2z"/>
      </g>
      <g fill="#000" stroke="none">
        <path d="M705 599c2-1 3-3 3-5v-1l-3 6s1 0 0 0M710 602c2-1 3-4 3-6 1 0 0 0 0 0 0 2-1 5-3 6M715 608a13 13 0 0 0 2-7l-2 6v1M733 599l-3-6v1c0 2 1 4 3 5M728 602c-2-1-3-4-3-6 0 2 1 5 3 6 0 0 1 0 0 0M724 608a13 13 0 0 1-3-7c0 3 1 5 3 7"/>
      </g>
    </g>
  </g>
  <g>
    <g fill="#452c25" stroke="#000">
      <path d="M662 305s-4 9-2 10c3 1 8 0 13-9s-3-6-3-6l-8 5zM688 311v14c1 1 7 1 8-9 0-9-2-10-2-10l-6 5"/>
      <path d="M692 296s-5 14 0 17c4 3 8-14 8-18s-8 1-8 1zM695 314s1 13 3 14c3 0 7-4 7-7 0-4-4-12-4-12l-6 4"/>
      <path d="M695 298s-4 14 0 17 8-14 8-18-8 1-8 1zM696 275s-7 7-7 11 10-5 11-7-4-4-4-4z"/>
      <path d="M691 271s-5 10-4 13 7-2 9-6c3-3-5-7-5-7zM679 273s-3 13-1 14c6 3 9-9 9-13 1-5-8-1-8-1z"/>
      <path d="M687 273s-7 7-7 10c1 4 10-5 11-6 1-2-4-4-4-4zM573 274s-13 7-15 10c-1 3 42-5 65-21l-9-6-41 17z"/>
      <path d="M590 276s-26 10-7 10c0 0 35-8 55-22l-5-7-43 19z"/>
      <path d="M626 251s-26 14-23 15c3 2 22-2 31-9l14-9-11-3-11 6zM616 281s-9 8-8 9 20-2 35-14l-1-7-26 12"/>
      <path d="M600 279s-9 8-7 8c2 1 9 6 43-16l4-2-6-9-34 19zM593 253c-29 10-57 30-57 30l73-29M656 298s-7 9-5 10c1 2 8 5 17-7s-8-10-8-10l-4 7z"/>
      <path d="M649 290s-10 11-8 13c2 1 13 1 21-10l-2-11-11 8z"/>
      <path d="M640 284s-9 11-8 13 13 1 23-10 2-14 2-14l-17 11"/>
      <path d="M624 285l-6 8s2 7 21-6l19-13-10-2-24 13zM561 273l-12 6s-3 3 5 3c7 0 22-2 48-17l20-13-10-4-51 25z"/>
      <path d="M540 281s18-2 25-6c0 0-1 2 8-2l52-25-2-3-61 25-22 11zM670 304s-2 14 0 15c3 0 9-4 11-13 2-8-10-7-10-7l-1 5"/>
      <path d="M679 310s-1 11 1 12c1 1 5 1 9-7l2-5-9-6-3 6z"/>
      <path d="M682 292s-8 17-3 17c4 0 10-13 11-16s-8-1-8-1z"/>
      <path d="M681 292s-3 19 2 17c4-2 6-16 6-19s-8 2-8 2z"/>
      <path d="M688 294s-5 14-1 17c5 3 8-14 9-18 0-4-8 1-8 1zM670 289s-4 13-1 15c5 2 8-9 9-14 0-5-8-1-8-1zM637 262s-12 10-10 11c1 2 15-1 21-5l8-7-10-6-9 7z"/>
      <path d="M647 252s-7 6-6 8c2 1 15-4 18-7l2-5-14 4z"/>
      <path d="M655 251s-10 9-8 12c3 3 17-11 19-13l-11 1z"/>
      <path d="M650 247l-20 10s-17 11-16 13c2 1 16-3 25-8 10-5 21-13 21-13M656 258s-22 20-19 21c4 2 16-3 26-12"/>
      <path d="M660 264s-14 22-12 24c1 2 10-5 15-10l8-14"/>
      <path d="M666 267s-13 25-12 27c2 2 10 0 14-10 5-9 5-16 5-16l-7-1z"/>
      <path d="M674 268s-15 31-12 34 20-24 20-27c2-7-8-8-8-8M642 247s-13 7-11 8c3 1 16-4 18-5 1-1-7-3-7-3z"/>
      <path d="M644 249s-8 7-6 9c1 1 14-5 17-8 2-2-11-1-11-1zM662 250s-11 15-8 16c4 0 17-10 17-12s-9-4-9-4z"/>
      <path d="M667 253s-12 16-9 17c4 1 4-2 4-2s10-8 11-10c0-2-6-5-6-5"/>
      <path d="M671 257s-9 15-7 16c3 1 6-3 10-7 4-5-3-9-3-9z"/>
      <path d="M673 264s-5 10-4 13c2 3 7-3 9-6 3-3-5-7-5-7zM675 291s-3 13 0 14c5 3 8-9 9-13 0-5-9-1-9-1z"/>
      <path d="M700 273l-7-1s-7-6-12-7c-4 0 0 0 0 0s-1-10-2-11c0 0 0-10-7-11l-24-1c-2 0-10-4-26 0-15 4-46 18-47 19-2 0 35-8 45-13l14-2s-12 6-1 4c11-3 8 0 8 0s-1 2 5 1c6-2 6 0 6 0s7 2 13-1c0 0 3 10 6 11a381 381 0 0 0 18 14l5 2 5-4"/>
      <path d="M628 247s-35 12-34 16c1 3 37-10 42-14 6-3-8-2-8-2"/>
    </g>
    <g fill="#452c25" stroke="#000">
      <path d="M869 278l14 8s4 3-4 1c-7-2-23-7-53-26-13-9-17-9-17-9l18 1 42 25z" stroke="none"/>
      <path d="M874 275l14 8s3 2-4 1c-8-2-23-7-53-27-14-8-3 8-3 8l3-11 43 21z" stroke="none"/>
      <path d="M897 282s-17-3-23-7c0 0 2 2-7-2 0 0 4 7-19-8-23-16-15-8-15-8l7-2 38 16c4 1 19 11 19 11z" stroke="none"/>
      <path d="M811 288l5 8s-1 8-21-7l-18-13 11-1 23 13M786 292s9 12 7 13c-2 2-13 1-20-10-8-12 0-1 0-1v-18l13 16"/>
      <path d="M795 287s9 11 8 13c-1 1-13 0-23-11-9-10-1-14-1-14l16 11M844 280s24 11 6 10c0 0-35-9-54-25l6-7 42 22"/>
      <path d="M857 277s13 8 14 12c1 3-41-8-63-27l10-5 39 20zM818 285s10 8 9 8c-1 1-21-2-36-13l2-7 26 11"/>
      <path d="M835 284s9 7 7 7c-2 1-9 7-44-14l-4-2 5-9 36 17"/>
      <path d="M799 265s11 10 10 11c-2 2-15-1-21-6-6-4-11-10-11-10l13-3 9 8z"/>
      <path d="M785 248l21 12s17 12 15 13-15-3-25-8c-9-5-20-16-20-16M772 306s4 10 2 11c-3 1-8-1-13-10s2-4 2-4l9 3z"/>
      <path d="M779 300s6 9 4 11c-1 1-8 4-17-8-8-13 9-10 9-10l4 7z"/>
      <path d="M762 257s19 38 18 40c-2 2-10 0-14-10-5-10-8-23-8-23l4-7zM785 266s16 14 13 16c-4 2-10-1-20-10-10-10 6-6 6-6"/>
      <path d="M777 267s11 21 10 23-10-5-15-11c-4-5-7-13-7-13"/>
      <path d="M765 258s8 16 6 17-6-3-9-8c-4-5 3-9 3-9zM765 291s3 13 1 14c-6 3-9-9-9-14s8 0 8 0zM755 312s0 10-1 11c-1 0-5 1-9-8l-2-5 10-5 2 6"/>
      <path d="M764 310s1 10-1 10c-2 1-8-3-10-9-2-7 10-5 10-5l2 3"/>
      <path d="M754 277s11 24 9 28c-3 6-13-15-16-23-3-10 7-5 7-5z"/>
      <path d="M749 281s15 27 9 27c-6 1-18-19-20-24-1-4 11-3 11-3z"/>
      <path d="M748 287s8 25 3 23-10-22-11-26 8 3 8 3zM774 250s11 17 8 18c-4 0-17-11-17-13-1-2 9-5 9-5z"/>
      <path d="M767 251s14 20 10 21c-4 0-5-3-5-3s-11-10-12-12c-1-3 7-6 7-6M794 250s13 7 11 8c-3 1-16-5-18-6l7-2zM781 251s10 10 7 14c-2 3-16-13-18-15s12 1 12 1M757 265s16 31 13 34-20-23-21-27c0-3 9-7 9-7"/>
      <path d="M748 268s7 10 6 15c0 5-9-7-10-10-1-2 4-5 4-5zM761 263s5 10 4 13c-2 3-9-6-11-9-2-4 7-4 7-4zM738 273s8 9 8 13c-1 5-12-7-13-9s5-4 5-4zM788 248s12 11 10 12c-2 2-17-9-20-11-2-3 10-1 10-1z"/>
      <path d="M778 248l10 7s8 6 7 7c-2 2-15-4-17-7-3-3-3-6-3-6l3-1zM809 250s34 14 33 17c-2 4-36-11-42-15-5-4 8-2 8-2"/>
      <path d="M810 254s26 15 23 16c-3 2-22-3-31-10l-14-10 12-3 10 7zM746 272s5 10 3 13c-1 3-6-2-8-6-3-4 5-7 5-7zM747 295s4 14 0 17c-5 2-8-15-8-19 0-3 8 2 8 2z"/>
      <path d="M727 271s14-7 17-6l5-2 5-4s-3-18 16-16l47 5c5 0 23 5 27 7 4 3 32 15 37 17 4 1 11 6 16 9 4 3 0 1 0 1s-44-24-60-27c-4-1 1 5 1 5l-15-6c-4-2-7-3-11-2l-10-2-18-1-4-1 1 2-6-1-2 2s-6 2-7 0l-5 12c-2 3-8 3-10 5l-4 4-7 4h-12l-2-4 1-1zM746 312l-1 13c0 1-7 1-7-8 0-10 2-10 2-10l6 4"/>
      <path d="M743 296s4 15-1 17c-4 3-7-14-7-18s8 1 8 1z"/>
      <path d="M739 298s4 15 0 17c-5 3-8-14-8-18s8 1 8 1z"/>
    </g>
    <g fill="#d9c0b9" stroke="#000">
      <path d="M742 357l2 4s3-2-1-6l-1 2zM721 351h2v3l-1 1s-2-1-2 2c0 0-1-5 1-6zM732 362l1-2 2 1-1 5-1-1-1-3zM716 356l-1-2 1-1h2s2 3 1 5l-2-2h-1zM699 360s-2 4 1 6c0 0 0-3 2-4l-3-2zM690 358h3l-1 4-2-4z"/>
    </g>
    <path fill="#bd8759" stroke="#000" d="M730 334v14l-3 2c-2 0-5-1-6 1l-1 1h3l-1 3 4-1 3-1 1 1 1 4c0 1-1 5 1 5l1-2c1 0 3 1 2 2v-5l-1-4 6 2 2 2 1-2h2l-4-4-5-3-2-3v-12h-4zM703 354l-4 4-1 3s4-1 4 1c0 0 1 1 2-3 2-4 4-6 5-6l4 2c1 1 2 2 4 1 0 0-2-2-1-3h2s-1-3-3-3c-3-1-5-1-4-2l4-10-5-7-1 6v4l-4 8-11 5-3 3-1 2h3s1-2 2-1v1l2-2 1-1h3"/>
    <g fill="none" stroke="#000">
      <path d="M708 346v-1M710 342l-1-1M708 344h1M705 350h1M732 346l2 1M734 344h-2M734 342h-2M732 350h1M732 352h1M732 359h1M712 350l-1 1M716 350l-2 2M695 354l2 1M738 351l-1 1M740 352v1"/>
    </g>
    <path fill="#452c25" stroke="#000" d="M747 302l-2-6c-1-1 1-2 1-2l-4-6v-2l-4-5c-2-1 0-1 0-1s-2-6-6-8l-6-4-19-1c-9 0-13 6-13 6v8l1-1-2 9 2 10v4l3 12 1 1 2 4 1 3 3 4 2 4 1 6 2-3 1 4 2-1v4l5-6v-3l2-1 2-4 7 7 1 3 2-2 1 4 1-2 1 2 1 2 3-3c3-4 2-7 3-8l1 1 2-7c-1-2 1-1 1-1v-9l1-2-1-9 1-1z"/>
    <path d="M735 282l3 3-3-3M736 288c3 2 3 4 3 7 0 0 0 1 0 0 0-3 0-6-3-8v1M741 290a12 12 0 0 1 1 7l-1-7M741 308v3s0 1 0 0v-3c0-1 0 0 0 0M744 308l1 2-1-3v1M744 297l1 2v-1l-1-2v1M725 274l2 1-1-1-3-2v1l2 1M697 300l2 4v-1l-2-3M702 273h4v-1l-4 1M709 273l4-1h-4v1M697 279v0M731 279l1 1-1-1M732 288l1 3v-1l-1-3v1M730 282l2 2v-1l-2-2v1M732 296l-1 3v1l1-5v1M734 300v0M741 316a20 20 0 0 1 1 5l-1-6v1M740 319l-1 4v1l1-4v-1M698 307l3 5-3-5M705 308l-2-2 2 2M701 315l2 4v-1l-2-4v1M706 316l2 4v-1l-2-3M706 322l1 2-1-3v1M710 323a12 12 0 0 1 1 2l-1-3v1M708 327l2 4v-1l-2-4v1M709 309l4 1v-1l-4-1v1M710 313l4 2-4-2M711 319l3 2v-1l-3-2v1M713 325l1 3-1-3M717 309v1a42 42 0 0 1 0-1M727 305l-1 2v1l1-2v-1M731 305l-1 3v1a17 17 0 0 0 1-4M731 311v3a15 15 0 0 0 0-3M734 317l-1 3v1l1-4c1 0 0 0 0 0M725 311l-1 2 1-1v-1M726 319l-2 2 2-1v-1M722 323c-1-1-2-3-1-5-1 2 0 4 1 6v-1M718 319l-1 2v1l1-4v1M728 324l-1 3 1-2v-1M735 327l-2 3 2-3M743 324v0M697 304v0"/>
    <path fill="#dcddde" d="M697 285s0-5 1-6c0 0 1-5 7-4 0 0 2-4 6-2h5l4 3h5c2 1 0 5 0 5s3 2 4 4l-1 4s2 1 1 3l-1 3c-1 0 0 5-2 6-1 2-2 2-3 2s-2 3-4 3l-3-3-3-2s-4 5-7 4-5-3-5-4l-1-4s-4-2-3-3l1-5-1-4z"/>
    <g fill="#fff">
      <path d="M713 281c3-3 6-5 11-4v-1c-5-1-8 2-11 5-1 0 0 0 0 0M727 284c-3-2-8-2-11 0v1c3-3 8-2 11 0v-1M715 289l3 12v1c0-5-1-9-3-14v1M711 291v0M717 288c4 1 8 4 10 7-2-4-6-6-10-7M714 294l-1 7v1l1-8c0-1 0-1 0 0M720 293c2 2 4 5 4 8 0 1 0 0 0 0 0-3-2-6-4-8M702 300l3-3v-1l-3 3v1M708 279l-4-5v1c1 1 3 2 4 5v-1M704 279l-6-1 6 2v-1M710 279c1-2 0-4-1-6v1c1 1 2 2 1 4v1M718 281l6-1-6 1"/>
      <path d="M722 286l7 4v-1l-7-4v1M709 294c-1 3-1 7-4 8v1c3-1 3-5 4-8v-1M715 292l3 9v1c0-4-1-7-3-11v1M720 292c3 0 5 3 5 5 0 1 0 0 0 0 1 0 1 0 0 0 0-3-2-6-5-6v1M720 296v-1 1"/>
      <path d="M718 285c3 0 7-1 9 1v-1c-2-2-6-1-9-1v1M712 279c1-3 3-5 5-5v-1c-2 0-4 2-5 5v1M709 281l-2-8v1l2 7M707 282c-1-3-2-4-5-5v1c2 1 4 2 5 5v-1M703 281l-5-2v1l5 2v-1M712 293l-1 8v1c2-3 1-6 1-10v1M715 292l2 8s0 1 0 0l-2-9v1M717 288l7 4v-1c-2-3-4-3-7-4v1M705 281l-5-4v1l5 4v-1M704 294l-2 4v1l2-4v-1M708 296c0 2-1 4-3 5v1c2-1 3-3 3-5v-1M717 282c1-3 5-3 7-4v-1c-2 1-6 1-7 4v1M699 282l-1-1 1 1M700 294l-2 1v1l2-1v-1M702 295l-3 2v1l3-2v-1"/>
      <path d="M706 296c-1 2-3 5-1 7v-1c-2-1 1-4 1-5v-1M709 296v7 1a41 41 0 0 0 0-8M717 293l4 8v-2l-4-7v1M718 291l8 7v-1l-8-7v1M720 287l3 1 2 1 3 2 1 4v-1l-1-3-2-2-3-2-3-1v1"/>
      <path d="M727 293l1 3v-1l-1-3v1M719 278l6-1v-1l-6 1v1M710 279l2-2 1-4v-1l-1 3-2 3v1M703 298l1 6v-1l-1-4v-1M707 302v0M711 300l-1 3v1l1-4M711 294v1-1M709 295c0 1 0 1 0 0v-1 1M707 294v0M706 294l-4 3v1l4-3v-1M703 295l-2 1v1l2-1v-1M699 294l-2 1h2v-1M711 293v2c0 1 0 0 0 0v-2M713 293v-1 1M714 292l1 2v-1l-1-2v1M716 292l1 1v-1-1h-1v1M717 290l2 1v-1l-2-1v1M719 286h1v-1h-1v1M718 283l1-1v-1l-1 1v1s0 1 0 0M716 281l1-2v-1a4 4 0 0 0-1 3s0 1 0 0M715 280l1-3v-1l-1 3v1"/>
      <path d="M711 277l1 3c0 1 0 0 0 0v-1-2h-1M706 278l1 1a8 8 0 0 1 0 1s1 0 0 0v1l1-2-2-2v1M705 280l-2-2v1l2 2v-1M709 281l-1-7v1l1 5v1M714 278v-1 1"/>
      <path d="M708 281l1-4v-1h-1v5M722 289l3 2c0 1 0 0 0 0v-1c0-1-1-2-3-2v1M719 297v-1h-1v1M715 295v5s0 1 0 0v-5-1 1M714 296a97 97 0 0 0 0 2v-2M716 298v-1 1M705 298a3 3 0 0 1 0 1v-2 1M710 295v-1 1M711 295h1s0 1 0 0v0l-1-2a5 5 0 0 0 0 1v1M713 293l1 2v-1-1l-1-1v1M716 292l2 3v-1-1l-2-3v2M718 289l2 2v-1l-2-3v2M700 281l-1-1v1l1 1c0 1 0 0 0 0v-1M706 279v-2 2M710 275v4s0 1 0 0v-5 1M711 281l2-3v-1l-2 2v2M714 281l1-1v-1a6 6 0 0 0 0-1l-1 1a5 5 0 0 0 0 1v1M718 281h-3v2h3v-2M717 285l4 2v-1l-4-3v2"/>
      <path d="M717 288l4 2v-1l-4-3v2M709 282l1-2v-1l-1 1v2M700 278l4 3 2 3v-2l-2-2-4-4v2M702 282l-2-2v2l2 2v-1-1M701 293l-1 2v2l1-3v-1M702 294v0M706 302l1-8c0-1 0 0 0 0l-1 6v2M709 295v4s0 1 0 0v-5 1M711 295l1 3v1c0-2 1-4-1-6v2"/>
      <path d="M712 293a52 52 0 0 1 1 6l-1-7v1M714 293l2 4h1v-1l-3-5v2M719 289l-3-1v2l3 1v-1-1M716 288h5v-1h-5v1M719 276l-2 5v2l2-5v-1-1M713 278l1 4v-1-1l-1-4v2M712 280l-2-2v1l2 3v-1-1M709 281l-5-2v1l5 3v-2"/>
    </g>
    <g stroke-width="0">
      <path fill="#d9c0b9" stroke="#000" stroke-width="1" d="M670 297s-3-5 6-7l3 2-6 3-3 2z"/>
      <path fill="#5e3f17" d="M676 291c-2 1-4 1-4 3 0-2 2-2 4-3"/>
      <path fill="#d9c0b9" stroke="#000" stroke-width="1" d="M671 296s4 1 6-1h3l-1-3-4 2-4 2z"/>
      <path fill="#dba05f" stroke="#000" stroke-width="1" d="M711 281l-9 1-7 1-5-1c-2-1-7-1-9 1l-4 3-3 3 2 3 4 3 6 2c6 0 8-3 16-2 5 0 13-3 15-5 1-2 2-5 1-7-2-3-6-2-7-2z"/>
      <path d="M682 288s0 1 0 0v-1h1l2-1 2-1-3 1h2s1 0 0 0h-2l-2 2"/>
      <path fill="none" d="M682 288l1-2 3-1h1M684 286l-1 1-1 1M684 286h3M684 286h2"/>
      <path d="M686 287l-1 1-1 1h-2 1 0s2 0 3-2"/>
      <path fill="none" d="M686 287l-1 1-2 1h-1M684 289l1-1 1-1M684 289h-1M684 289h-1"/>
      <path fill="#c6262c" stroke="#000" stroke-width="1" d="M688 282s0-2-2-3l-6-1h-2l-2 1-1 1-1 3 1 1c1 0 0 0 0 0s-4 1-3 3c1 3 2 2 2 2l2-1 3-3 4-2h2l3-1z"/>
      <path d="M685 287l-1 2-1-1 1-1h1"/>
      <path fill="#5e3f17" d="M709 293l2-1"/>
      <g fill="#842116">
        <path d="M675 285l1 1c0 1 0 1 0 0v-1h-1M678 286l-1-2 1 2M680 284l-1-3v1l1 2M682 283l-1-2 1 2M679 280c1-1 5-1 7 1v-1c-2-2-6-1-7 0-1 0 0 0 0 0"/>
      </g>
      <g fill="#7a2e26">
        <path d="M680 295h2v-1h-2v1M679 286v0M681 287l1-1-1 1M683 290h1v-1l-1 1M685 290l1-2-1 1v1M682 287l-1 1v1l1-2M683 295h4v-1l-4 1M690 295c2-1 3-2 4-5l-4 5M691 292l3-4-3 3v1M690 284l3 1-3-2v1M716 288c1-2 1-4-1-6v1c1 1 2 3 1 4v1M696 285c1 1 5 3 4 5 1-2-2-4-4-5M705 294a6 6 0 0 0 1-2h-1v2M674 288v-2 2M694 294l1-2-1 2M697 294v-1-1 2M714 284l1 3-1-3M713 286v-1 1M711 287v0"/>
      </g>
    </g>
    <path fill="#dcddde" d="M695 275c-8 1-14-4-14-4-9-2-10-10-10-10-3-1-6-10-6-10-6 3-13 0-13 0s0-1-6 0c-6 2-5-1-5-1s3-2-8 0c-11 3 1-3 1-3l-14 2-12 3-9 2-28 12-23 9 31-16c16-7 34-14 43-16 11-4 21-2 27 0h23c7 1 7 11 7 11 2 1 2 11 2 11s-4 0 1 1c4 0 11 7 11 7l3-1 4-2 6-2h9l8 1 5 1h2c4-2 12-5 14-4l5-2 5-5s-3-18 16-16l47 5a181 181 0 0 1 49 17l16 7c9 4 16 10 16 10l-15-7-10-4-15-7c-15-7-15-7-20-7-4-1 3 5 3 5l-18-7c-4-2-7-3-11-3-4 1-7 0-10-1l-18-1-4-1 1 1-6-1-2 3s-6 1-7-1l-5 13c-2 3-9 2-11 4l-7 4h-5l-5 1-4-1-6-1-15-1-6 2c-2 0-5 2-5 3"/>
    <path fill="#452c25" d="M695 273l-1 2v1"/>
    <path fill="#574f4c" d="M731 271l3 2v0l-3-3v1"/>
  </g>
</svg>
