<svg xmlns="http://www.w3.org/2000/svg" xmlns:xlink="http://www.w3.org/1999/xlink" width="900" height="600">
  <path d="M0 0h900v600H0z"/>
  <path fill="#fff" d="M0 0h900v400H0z"/>
  <path fill="#ce1126" d="M0 0h900v200H0z"/>
  <g fill="#fff" stroke="#c09300">
    <path stroke-linejoin="round" d="M451 302l68 64-5-115c0-18-16-14-27-8-11 8-24 8-37 3-13 5-26 5-37-3-11-6-27-10-27 8l-5 115 70-64z"/>
    <g id="a" fill="#c09300" stroke="none">
      <path d="M393 246l-4 113-8 7 5-115 7-5zM403 255l-4 93-8 9 5-109 7 7zM412 262l-3 78-7 6 4-89 6 5zM421 266l-3 67-6 5 3-75 6 3zM430 266l-2 55-7 7 3-62h6z"/>
    </g>
    <use xlink:href="#a" transform="matrix(-1 0 0 1 900 0)"/>
    <path fill="#c09300" d="M453 315l10 44-3 3-4-2-5-39 2 39-3 4-3-4 2-39-5 39-4 2-3-3 10-44h6z"/>
    <g id="b" fill="none" stroke-linejoin="round">
      <path fill="#fff" d="M428 296l-19 68 27 4 11-51-19-21z"/>
      <path d="M422 319l2 6 13-12"/>
      <path d="M431 305l2 24 8-10M438 323l4 15M444 332l-9 14m3 13l-3-13-2-14-6 8-3-9-8 8 4 16 6-10 3 10 6-9M415 362l5-7 4 11 4-8 4 10"/>
    </g>
    <use xlink:href="#b" transform="matrix(-1 0 0 1 900 0)"/>
    <g stroke-linejoin="round" stroke-linecap="round">
      <path stroke-width="2" d="M450 394c20 0 39-2 50-5 5-1 5-3 5-6 5-2 2-8 6-8-4 1-4-5-8-4 0-6-6-7-11-5-9 3-26 4-42 4-16-1-33-1-42-4-5-2-11-1-11 5-4-1-4 5-8 4 4 0 1 6 6 8 0 3 0 5 5 6 11 3 30 5 50 5z"/>
      <path d="M423 364h19c3 0 6 6-1 7l-19-1-18-4c-6-2-2-7 1-6l18 4zM477 364h-19c-3 0-6 6 1 7l19-1 18-4c6-2 2-7-1-6l-18 4z"/>
      <path d="M403 360c-5 0-7 5-6 8 1-1 5-1 5-3l1-5zM422 375c0-3 3-3 3-6l-2-4c-2 0-3 2-3 3-1 3 2 4 2 7zM445 366c5 0 4 6 2 9 0-2-4-3-4-4 0-3 3-3 2-5zM497 360c5 0 7 5 6 8-1-1-5-1-5-3l-1-5zM478 375c0-3-3-3-3-6l2-4c2 0 3 2 3 3 1 3-2 4-2 7zM455 366c-5 0-4 6-2 9 0-2 4-3 4-4 0-3-3-3-2-5zM405 362l4 2-4-2zM413 364l5 2-5-2zM441 368h-5 5zM433 368h-6 5zM495 362l-4 2 4-2zM487 364l-5 2 5-2zM459 368h5-5zM468 368h5-6z"/>
      <g fill="#c09300" stroke="none">
        <path d="M403 375v-1l1-1 1 1h-1l-1 1zM458 379v-1l1-1h1l-1 1h-1zM459 381l-1-1 1-1 1 1-1 1z"/>
        <path d="M408 370l-1 1h-4l2 1h1v2l-1 2h-1l-2 1-1 2 2 1h2l3 1 5 1c1 1 1 0 1-1l1-3v-1h-2v3h-2c-1 0-2 0-1-1v-2l1-2-2 1-1 1v1l-1 1c-1 0-2 0-1-1v-2l1-2 1-1v-2-1zm-4 7v1h-1l1-1zM403 382v-1h1v2l-1-1zM406 383v-1h1v1h-1zM495 383l1-1h1v1l-1 1-1-1zM410 385v-1-1h1v1l-1 1zM432 385v-1-2l1-3v-1-2l1-1 1 2c1 0 0 0 0 0l-1 1v6l-1 2-1-1zM462 376l-2 1 1 1v2l1 2h-2l-1 1v4h1l1-1h6l1-1-1-2v-2l-1-1-1 1 1 1v2l-1 1-2-1v-1-3-3l-1-1zm-1 8h1v1h-1v-1zM431 375h-1v5l-1 2v3h-1v-1l-1-1-1-1h1l1-2-2-1-1-3-2 2-2 1v1c0 1 2 1 1 2h-2l-1-1-1-2h-1v4l-2 1c-1 1-2 0-1 1h2l2-1h4l2-1 2 2v1l1 2h1l2-2 1-2v-3-4l1-2h-1zm-7 4h1v1l-1 1-1-1 1-1zM491 371h-2c-1 0-2 1-1 2h3l2 3v3c1 1 0 2-1 1s-2-2-3-1l-1 2c-2 1-2-1-2-2l-3-1-1-3c-1 1-2 2-1 3s-1 1-1 2l-1 3-2-2h-1l-3 2v2h2l1 1-2 2h1c2-1 3-1 3-3l2-1 3 1c1 1 2 2 3 1l1-2 2-1h3l2-1 5-2c2 0 0-1 0-2-1 0-2 2-4 1l-1-3-1-4-3-1zm-7 9v1l1 1h-1-1v-1l1-1zm6 1h1v1h-1l-1-1h1zm-9 0h1v1h-1v-1zm-5 1v1h-1l1-1zm9 1v1c1 0 1 0 0 0h-1l1-1zM468 388h1l1-2v-2l-1-1v-1l1-2 1 1v1l1 1v4h-1l-1 1h-2zM461 389v-1l1-1 1 1 1-1h1v2h-1l-1-1-1 1h-1zM441 380l-1 1v2l-1 1-2-3-1 2 1 2-1 3h-3c-1 1 1 1 1 1l3-1 2-2 5 1h2l2 2h2l1-2h5l1-1v-2l-1-2h-2l-2 2h-1v-1l-2-1h-6l-1-2h-1zm2 4h6v3h-1v-1-1h-5l-1-1h1zm11 0h1v1h-1v-1z"/>
      </g>
    </g>
    <path d="M450 327c33-25 30-62 30-62l-3 1c-7 0-23-4-27-9-4 4-20 9-27 9l-3-1s-3 37 30 62z"/>
    <path d="M477 268h-1c-6 0-20-3-26-8a60 60 0 0 1-27 8v4a73 73 0 0 0 27 52 71 71 0 0 0 27-56z"/>
    <path fill="#c09300" d="M439 265a62 62 0 0 1-16 3v4a73 73 0 0 0 16 41v-48zM460 265v49a71 71 0 0 0 17-46h-1l-16-3z" stroke="none"/>
    <path d="M462 253l-1-3 9 2c-4-2-8-15-8-26 1-11-1-15-3-16-2-2-8-4-12-4-3-1-2 1-2 1h-11c-2 1-3 8-1 7 3-3 6-1 8 2s2 10-1 18c-3 9-10 18-10 18 4 0 10-3 10-3l-2 5 8-5 4 4 4-4s3 4 8 4z"/>
    <path fill="none" d="M446 228s-2 16-6 21M450 227s-1 17-4 22M453 228l1 21M457 229s1 15 4 21"/>
    <path fill="#c09300" d="M442 220l-1-4c-2-3-5-5-8-2 0 0 1-4 3-4s7 1 10 8h-3l-1 2z" stroke="none"/>
    <path fill="#c09300" d="M432 209l2-2h11s-1-2 2-1c4 0 10 2 12 4l2 2-5-1h-3l-2 1-2 2-1-1-1-1-5-2c-2-2-3-3-6-2l-4 1z" stroke="none"/>
    <circle cx="449" cy="211" r="1" stroke="none"/>
  </g>
</svg>
