<svg version="1" xmlns="http://www.w3.org/2000/svg" width="1000" height="500">
  <path fill="#ea0437" d="M0 0h1000v500H0z"/>
  <path d="M0 500h1000V250" fill="#4189dd"/>
  <path d="M0 0h1000v250" fill="#12ad2b"/>
  <path d="M230 369c-11 3-17 12-17 19h54c0-8-7-16-18-19 53-1 98-21 106-33-8-4-18 2-24 1 16-8 63-39 56-72-6 19-25 34-32 38 17-27 42-55 21-77 1 12-8 26-12 27 10-28 20-64-3-88 3 9 2 33-2 34-1-19-4-60-25-60 7 6 9 22 10 38-5-11-10-19-22-27-9-18-25-33-42-43 2 13 4 23 22 36-10 0-19-18-29-19-8 0-14 8-27 3 1 4 7 6 9 10-3 1-10-1-15-4 7 11 19 17 29 15 12-3 24-1 36 5-3 2-15 2-22 1 7 7 11 12 23 12 11 0 17-6 20-3l17 26c-13 1-9-14-23-22-8 16 9 35 21 44 0 12 2 22 7 31 3 7 8 14 6 28-7-5-14-22-11-35-9 2-12 18-8 25 3 6 5 17 2 22-4 5-4 4-4 14 0 6-3 13-9 18 1-4 3-11 1-16-4 7-15 15-18 23s-4 21-20 24c-21 4-28 8-41 13-2-10 3-31 11-30 8 2 33-8 24-29-1 6-7 13-14 13 7-9 19-18 13-33-3 6-8 14-16 18 9-16 1-21-9-7-4 5-6 15-9 28-4-10-3-25-8-36-5-12 6-16 12-15 13 4 35 4 33-18-5 7-15 10-26 7 12-9 22-25 8-34 0 9-7 19-17 24-2-8-2-16 0-25-6 6-9 17-13 31 0-13 3-23 5-30 2-10 9-4 20-3 10 1 24-5 21-19-3 6-10 8-18 7 9-5 24-14 16-29-3 6-5 10-15 12 3-6 3-15 11-18-14-3-22 6-26 21-2-10-4-14-4-21 8-9 8-26-8-29-1 8-1 10 1 17-8-4-19-7-26 0 5 5 13 10 24 4-2 9-10 7-20 4 6 11 14 13 23 12 4 12 4 21-9 38 1-11 0-19-8-27-7-7-13 0-2 16-7-5-15-16-17-26-2 13 0 28 7 36-3 3-7 0-13-9 2 28 14 33 30 27l1 47c-9-13-21-23-27-25-2 7 5 17 10 22-7-1-21-12-21-12-1 12 14 24 25 29-12-1-18-5-25-13 0 34 37 28 43 23l3 53c-10-2-9-5-18-6-25-1-44-29-51-51-2 4 0 8-2 12-4-11-9-24-16-30 2 6 2 12 1 23-2-7-4-9-4-18 0-6 6-11 6-21 0-6-7-21-8-32-3 11-4 24-9 31 2-13 2-21 5-30 5-8 9-16 6-25-3 3-2 6-9 15-2-9 9-24 19-30 8-4 17-18 11-27-7 5-10 12-20 23 7-27 25-34 47-34 5-1 14-2 17-9-6 3-13 3-20 2 5-7 15-6 24-6 7 0 19-1 23-12-9 4-22 5-31 2 14-7 35-8 46-17-12-9-44 2-64 16 6-5 15-14 20-21-11-6-39 25-48 43-9 5-13 13-16 19l9-42c-31 11-18 68-25 82 1-16 0-35-6-45-9 7-10 50-1 86-4-10-10-19-12-30-14 25 9 56 27 80-14-8-28-23-37-37 3 46 51 56 58 67-10-5-29-14-37-4 13 3 24 6 32 12 13 16 36 22 77 24z" fill="#ffc726"/>
</svg>
