<svg xmlns="http://www.w3.org/2000/svg" height="500" width="750">
  <path fill="#c60b1e" d="M0 0h750v500H0z"/>
  <path fill="#ffc400" d="M0 125h750v250H0z"/>
  <path d="M168 222h-1l-1-1h-1v-1l-1-2 2-2h1l1-1h2l1-1h8l1 1h3l2 1 1 1 1 1v1l-1 1-1 1v1h-1l-8-1-8 1" fill="#ad1519"/>
  <path d="M168 222h-1l-1-1h-1v-1l-1-2 2-2h1l1-1h2l1-1h8l1 1h3l2 1 1 1 1 1v1l-1 1-1 1v1h-1l-8-1-8 1z" fill="none"/>
  <path d="M174 216c0-2 1-3 2-3l1 3-1 2-2-2" fill="#c8b100"/>
  <path d="M174 216c0-2 1-3 2-3l1 3-1 2-2-2z" fill="none"/>
  <path d="M175 216l1-3v5l-1-2" fill="#c8b100"/>
  <path d="M175 216l1-3v5l-1-2z" fill="none"/>
  <path d="M175 213l1-1 1 1-1 1-1-1" fill="#c8b100"/>
  <path d="M176 213h-1v-3h1v1h1-1v2" fill="#c8b100"/>
  <path d="M176 213h-1v-3h1v1h1-1v2" fill="none"/>
  <path d="M177 213h-3 1v-3h1v1h1-1v2h1" fill="#c8b100"/>
  <path d="M177 213h-3 1v-3h1v1h1-1v2h1" fill="none"/>
  <path d="M176 212l1 1-1 1-1-1v-1" fill="none"/>
  <path d="M176 222h-5v-2l-1-2-3-3h1c1-1 3 1 5 4h5c2-3 4-5 6-4l-3 3v4h-5" fill="#c8b100"/>
  <path d="M176 222h-5v-2l-1-2-3-3h1c1-1 3 1 5 4h5c2-3 4-5 6-4l-3 3v4h-5zM168 215l4 4m12-4l-5 4" fill="none"/>
  <path d="M169 224l-1-1 8-1 7 1v1l-1 1-6-1-7 1v-1" fill="#c8b100"/>
  <path d="M169 224l-1-1 8-1 7 1v1l-1 1-6-1-7 1v-1" fill="none"/>
  <path d="M176 227l6-1 1-1h-1l-6-1-7 1 1 1 6 1" fill="#c8b100"/>
  <path d="M176 227l6-1 1-1h-1l-6-1-7 1 1 1 6 1z" fill="none"/>
  <path d="M183 222h-1l-1-1h-2-1-1l-1-1-2 1h-1-2l-1 1h-2v1l8-1 7 1v-1" fill="#c8b100"/>
  <path d="M183 222h-1l-1-1h-2-1-1l-1-1-2 1h-1-2l-1 1h-2v1l8-1 7 1v-1z" fill="none"/>
  <path d="M176 219v1l1 1 1-1 1 1 1-1h1v1l1 1 1-1 1 1v-1h1l-1 1-1 1v-1h-1l-1-1-2 1-1-1-1 1-1-1a2 2 0 0 1-3 0 2 2 0 0 1-2 0l-2 1-1 1-1-1-1-1h1l1 1v-1l1 1 1-1v-1h1l1 1 1-1 1 1a1 1 0 0 0 1-1l1-1" fill="#c8b100"/>
  <path d="M176 219v1l1 1 1-1 1 1 1-1h1v1l1 1 1-1 1 1v-1h1l-1 1-1 1v-1h-1l-1-1-2 1-1-1-1 1-1-1a2 2 0 0 1-3 0 2 2 0 0 1-2 0l-2 1-1 1-1-1-1-1h1l1 1v-1l1 1 1-1v-1h1l1 1 1-1 1 1a1 1 0 0 0 1-1l1-1z" fill="none"/>
  <path d="M176 222l-8 1 8-1 8 1h-1l-7-1" fill="#c8b100"/>
  <path d="M176 222l-8 1 8-1 8 1h-1l-7-1z" fill="none"/>
  <path d="M173 223h1l-1 1v-1" fill="#fff"/>
  <path d="M173 223h1l-1 1v-1z" fill="none"/>
  <path d="M176 223h-1-1 3-1" fill="#ad1519"/>
  <path d="M176 223h-1-1 3-1" fill="none"/>
  <path d="M171 224h-1v-1h2v1h-1" fill="#058e6e"/>
  <path d="M171 224h-1v-1h2v1h-1" fill="none"/>
  <path d="M168 224h1-1" fill="#ad1519"/>
  <path d="M168 224h1-1" fill="none"/>
  <path d="M178 223h1l-1 1v-1" fill="#fff"/>
  <path d="M178 223h1l-1 1v-1z" fill="none"/>
  <path d="M180 224h2l-1-1h-1v1" fill="#058e6e"/>
  <path d="M180 224h2l-1-1h-1v1" fill="none"/>
  <path d="M183 224h-1 1" fill="#ad1519"/>
  <path d="M183 224h-1 1" fill="none"/>
  <path d="M176 226h-7a27 27 0 0 1 13 0h-6" fill="#ad1519"/>
  <path d="M176 226h-7a27 27 0 0 1 13 0h-6z" fill="none"/>
  <path d="M183 221v-1 1" fill="#c8b100"/>
  <path d="M183 221v-1 1z" fill="none"/>
  <path d="M178 220c1 0 0 0 0 0" fill="#c8b100"/>
  <path d="M178 220c1 0 0 0 0 0z" fill="none"/>
  <path d="M173 220" fill="#c8b100"/>
  <path d="M173 220z" fill="none"/>
  <path d="M168 221v-1l1 1h-1" fill="#c8b100"/>
  <path d="M168 221v-1l1 1h-1z" fill="none"/>
  <path d="M176 217l-1 1v1h1l1-1-1-1" fill="#c8b100"/>
  <path d="M176 217l-1 1v1h1l1-1-1-1" fill="none"/>
  <path d="M174 219v1l2-1h-2" fill="#c8b100"/>
  <path d="M174 219v1l2-1h-2" fill="none"/>
  <path d="M178 219l-1 1-1-1h2" fill="#c8b100"/>
  <path d="M178 219l-1 1-1-1h2" fill="none"/>
  <path d="M170 218h-1l1 2h1v-2h-1" fill="#c8b100"/>
  <path d="M170 218h-1l1 2h1v-2h-1" fill="none"/>
  <path d="M169 220v1l1-1v-1h-1v1" fill="#c8b100"/>
  <path d="M169 220v1l1-1v-1h-1v1" fill="none"/>
  <path d="M172 219v1h-1v-1h1" fill="#c8b100"/>
  <path d="M172 219v1h-1v-1h1" fill="none"/>
  <path d="M167 220v1h-1l1-1" fill="#c8b100"/>
  <path d="M167 220v1h-1l1-1" fill="none"/>
  <path d="M170 220l1-1v1h-1" fill="#c8b100"/>
  <path d="M170 220l1-1v1h-1z" fill="none"/>
  <path d="M181 218h1l-1 2v-1l-1-1h1" fill="#c8b100"/>
  <path d="M181 218h1l-1 2v-1l-1-1h1" fill="none"/>
  <path d="M183 220l-1 1-1-1v-1h1l1 1" fill="#c8b100"/>
  <path d="M183 220l-1 1-1-1v-1h1l1 1" fill="none"/>
  <path d="M179 219v1h2v-1h-2" fill="#c8b100"/>
  <path d="M179 219v1h2v-1h-2" fill="none"/>
  <path d="M184 220v1h2l-2-1" fill="#c8b100"/>
  <path d="M184 220v1h2l-2-1" fill="none"/>
  <path d="M175 219h1v1l-1-1" fill="#c8b100"/>
  <path d="M175 219h1v1l-1-1z" fill="none"/>
  <path d="M180 220l1-1v1h-1" fill="#c8b100"/>
  <path d="M180 220l1-1v1h-1z" fill="none"/>
  <path d="M165 221v-1h-1 2v1h-1" fill="#c8b100"/>
  <path d="M165 221v-1h-1 2v1h-1z" fill="none"/>
  <path d="M165 221h1-1" fill="#c8b100"/>
  <path d="M165 221h1-1z" fill="none"/>
  <path d="M186 221v-1h0v1" fill="#c8b100"/>
  <path d="M186 221v-1h0v1z" fill="none"/>
  <path d="M186 221h-1 1" fill="#c8b100"/>
  <path d="M186 221h-1 1z" fill="none"/>
  <path d="M165 232h22v-5h-22v5z" fill="#c8b100"/>
  <path d="M165 232h22v-5h-22v5z" fill="none"/>
  <path d="M167 236h17l-1-1 2-1h-18l1 1-1 1" fill="#c8b100"/>
  <path d="M167 236h17l-1-1 2-1h-18l1 1-1 1z" fill="none"/>
  <path d="M167 236h17l1 1-1 1h-17l-1-1 1-1" fill="#c8b100"/>
  <path d="M167 236h17l1 1-1 1h-17l-1-1 1-1z" fill="none"/>
  <path d="M167 232h17l1 1-1 1h-17l-1-1 1-1" fill="#c8b100"/>
  <path d="M167 232h17l1 1-1 1h-17l-1-1 1-1z" fill="none"/>
  <path d="M191 331l-4-1-4-1-3 1-4 1-4-1-4-1-4 1-4 1v2l4-1 4-1 4 1 4 1 4-1 3-1 4 1 4 1v-2" fill="#005bbf"/>
  <path d="M191 331l-4-1-4-1-3 1-4 1-4-1-4-1-4 1-4 1v2l4-1 4-1 4 1 4 1 4-1 3-1 4 1 4 1v-2z" fill="none"/>
  <path d="M191 333l-4-1-4-1-3 1-4 1-4-1-4-1-4 1-4 1v2h4l4-1 4 1h8l3-1 4 1h4v-2" fill="#ccc"/>
  <path d="M191 333l-4-1-4-1-3 1-4 1-4-1-4-1-4 1-4 1v2h4l4-1 4 1h8l3-1 4 1h4v-2" fill="none"/>
  <path d="M191 335h-4l-4-1-3 1h-8l-4-1-4 1h-4v3l4-1 4-1 4 1 4 1 4-1 3-1 4 1 4 1v-3" fill="#005bbf"/>
  <path d="M191 335h-4l-4-1-3 1h-8l-4-1-4 1h-4v3l4-1 4-1 4 1 4 1 4-1 3-1 4 1 4 1v-3" fill="none"/>
  <path d="M191 340l-4-1h-7l-4 1-4-1h-8l-4 1v-2l4-1 4-1 4 1 4 1 4-1 3-1 4 1 4 1v2" fill="#ccc"/>
  <path d="M191 340l-4-1h-7l-4 1-4-1h-8l-4 1v-2l4-1 4-1 4 1 4 1 4-1 3-1 4 1 4 1v2" fill="none"/>
  <path d="M191 343l-4-1-4-1-3 1-4 1-4-1-4-1-4 1-4 1v-3l4-1h8l4 1 4-1h7l4 1v3" fill="#005bbf"/>
  <path d="M191 343l-4-1-4-1-3 1-4 1-4-1-4-1-4 1-4 1v-3l4-1h8l4 1 4-1h7l4 1v3z" fill="none"/>
  <path d="M167 321c0 2-1 3-3 3h23c-1 0-3-1-3-3h-17" fill="#c8b100"/>
  <path d="M167 321c0 2-1 3-3 3h23c-1 0-3-1-3-3h-17z" fill="none"/>
  <path d="M167 319h17l1 1-1 1h-17l-1-1 1-1" fill="#c8b100"/>
  <path d="M167 319h17l1 1-1 1h-17l-1-1 1-1z" fill="none"/>
  <path d="M164 330h23v-6h-23v6z" fill="#c8b100"/>
  <path d="M164 330h23v-6h-23v6z" fill="none"/>
  <path d="M162 299l-3 3 2 2 2 4a6 6 0 0 0-1-9" fill="#ad1519"/>
  <path d="M162 299l-3 3 2 2 2 4a6 6 0 0 0-1-9z" fill="none"/>
  <path d="M168 318h16v-79h-16v79z" fill="#ccc"/>
  <path d="M179 239v79m2-79v79M168 318h16v-79h-16v79z" fill="none"/>
  <path d="M200 268a52 52 0 0 0-24-2c-10 2-17 6-16 9l-4-8c-1-4 7-8 18-10l10-1c7 0 13 1 16 3v9" fill="#ad1519"/>
  <path d="M200 268a52 52 0 0 0-24-2c-10 2-17 6-16 9l-4-8c-1-4 7-8 18-10l10-1c7 0 13 1 16 3v9" fill="none"/>
  <path d="M168 278c-5 0-8-1-8-3-1-1 1-3 4-5l4 1v7" fill="#ad1519"/>
  <path d="M168 278c-5 0-8-1-8-3-1-1 1-3 4-5l4 1v7" fill="none"/>
  <path d="M184 272l6 2v1c0 1-2 3-6 5v-8" fill="#ad1519"/>
  <path d="M184 272l6 2v1c0 1-2 3-6 5v-8" fill="none"/>
  <path d="M157 294c0-1 4-4 11-6l8-4c8-3 15-8 14-9v-1l1 9c1 1-5 5-13 9l-10 4c-5 2-9 5-9 6l-2-8" fill="#ad1519"/>
  <path d="M157 294c0-1 4-4 11-6l8-4c8-3 15-8 14-9v-1l1 9c1 1-5 5-13 9l-10 4c-5 2-9 5-9 6l-2-8z" fill="none"/>
  <path d="M166 265c2-1 4-2 3-3 0-1-1-2-3-1l-3 1 3 6h1v-1l-1-2zm-1-3l1-1 1 1v2h-1l-1-2M173 259h-1l-1 1 1 6 5-1v-1l-3 1-1-6M182 265l2-7a6 6 0 0 1-1 0l-2 5-2-5h-1-1l4 7h1M191 260v-1l-2-1-3 2c0 2 4 2 4 4h-2l-1-1h-1v1l2 1c2 0 3-1 3-2 0-2-3-2-3-3l1-1 2 1" fill="#c8b100"/>
  <path d="M325 220l-1 1h-2-1-1l-1 1h-1-2l-1-1-1-1v-1l3-2h16c2 1 3 1 2 2v2h-1v1h-2-1l-1-1h-2-1-1l-1-1" fill="#ad1519"/>
  <path d="M325 220l-1 1h-2-1-1l-1 1h-1-2l-1-1-1-1v-1l3-2h16c2 1 3 1 2 2v2h-1v1h-2-1l-1-1h-2-1-1l-1-1z" fill="none"/>
  <path d="M323 216l2-2 1 2-1 2-2-2" fill="#c8b100"/>
  <path d="M323 216l2-2 1 2-1 2-2-2z" fill="none"/>
  <path d="M324 216l1-2v4l-1-2" fill="#c8b100"/>
  <path d="M324 216l1-2v4l-1-2z" fill="none"/>
  <path d="M318 224l-1-1 8-1 8 1-1 1v1l-7-1-7 1v-1" fill="#c8b100"/>
  <path d="M318 224l-1-1 8-1 8 1-1 1v1l-7-1-7 1v-1" fill="none"/>
  <path d="M325 227l6-1 1-1-7-1-7 1 1 1 6 1" fill="#c8b100"/>
  <path d="M325 227l6-1 1-1-7-1-7 1 1 1 6 1z" fill="none"/>
  <path d="M331 217h1l-1 1v-1" fill="#fff"/>
  <path d="M331 217h1l-1 1v-1zM330 216l1-1v1h-1zm-1-1l1-1v1h-1zm-1-1h1l-1 1v-1zm-2 0h1v1l-1-1z" fill="none"/>
  <path d="M335 220v-1c0-2-1-3-2-3h-2M330 218v-1l-2-2h-2M336 219v-1l1 1h-1zm-1-2h1v1l-1-1zm-1-1l1-1v1h-1zm-1-1h1v1l-1-1zm-1 0h1l-1 1v-1z" fill="none"/>
  <path d="M333 222h-1-1l-1-1h-2-1-1l-1-1-1 1h-2-1-1l-1 1h-1-1v1l8-1 7 1 1-1" fill="#c8b100"/>
  <path d="M333 222h-1-1l-1-1h-2-1-1l-1-1-1 1h-2-1-1l-1 1h-1-1v1l8-1 7 1 1-1z" fill="none"/>
  <path d="M318 217h1l-1 1v-1" fill="#fff"/>
  <path d="M318 217h1l-1 1v-1zM318 216l1-1v1h-1zm1-1l1-1v1h-1zm2-1h1l-1 1v-1zm1 0h1v1l-1-1zM314 220v-1c0-2 1-3 3-3h1M319 218v-1c0-1 1-2 3-2h1M313 219l1-1v1h-1zm0-2h1v1l-1-1zm1-1l1-1v1h-1zm2-1h1l-1 1v-1zm1 0h1v1l-1-1z" fill="none"/>
  <path d="M325 219v1l1 1 1-1 2 1 1-1v1l1 1 1-1 1 1 1-1h1l-1 1-1 1-1-1h-1l-1-1-1 1-2-1-1 1-1-1a2 2 0 0 1-3 0l-1 1-1-1-1 1h-1l-1 1-1-1-1-1h1l1 1v-1h1l1 1 1-1-1-1h1l1 1 1-1 1 1a1 1 0 0 0 2-1v-1" fill="#c8b100"/>
  <path d="M325 219v1l1 1 1-1 2 1 1-1v1l1 1 1-1 1 1 1-1h1l-1 1-1 1-1-1h-1l-1-1-1 1-2-1-1 1-1-1a2 2 0 0 1-3 0l-1 1-1-1-1 1h-1l-1 1-1-1-1-1h1l1 1v-1h1l1 1 1-1-1-1h1l1 1 1-1 1 1a1 1 0 0 0 2-1v-1z" fill="none"/>
  <path d="M325 222l-8 1 8-1 8 1-8-1" fill="#c8b100"/>
  <path d="M325 222l-8 1 8-1 8 1-8-1z" fill="none"/>
  <path d="M322 223h1l-1 1v-1" fill="#fff"/>
  <path d="M322 223h1l-1 1v-1z" fill="none"/>
  <path d="M325 223h-1 2-1" fill="#ad1519"/>
  <path d="M325 223h-1 2-1" fill="none"/>
  <path d="M320 224h-1v-1h2v1h-1" fill="#058e6e"/>
  <path d="M320 224h-1v-1h2v1h-1" fill="none"/>
  <path d="M317 224h1-1" fill="#ad1519"/>
  <path d="M317 224h1-1" fill="none"/>
  <path d="M327 223h1l-1 1v-1" fill="#fff"/>
  <path d="M327 223h1l-1 1v-1z" fill="none"/>
  <path d="M330 224h1l-1-1h-1v1h1" fill="#058e6e"/>
  <path d="M330 224h1l-1-1h-1v1h1" fill="none"/>
  <path d="M332 224h-1 1" fill="#ad1519"/>
  <path d="M332 224h-1 1" fill="none"/>
  <path d="M325 226h-6a27 27 0 0 1 12 0h-6" fill="#ad1519"/>
  <path d="M325 226h-6a27 27 0 0 1 12 0h-6z" fill="none"/>
  <path d="M333 221l-1-1v1h1" fill="#c8b100"/>
  <path d="M333 221l-1-1v1h1z" fill="none"/>
  <path d="M328 220h-1 1" fill="#c8b100"/>
  <path d="M328 220h-1 1z" fill="none"/>
  <path d="M322 220h0" fill="#c8b100"/>
  <path d="M322 220h0z" fill="none"/>
  <path d="M317 221v-1l1 1h-1" fill="#c8b100"/>
  <path d="M317 221v-1l1 1h-1z" fill="none"/>
  <path d="M325 217l-1 1 1 1 1-1-1-1" fill="#c8b100"/>
  <path d="M325 217l-1 1 1 1 1-1-1-1" fill="none"/>
  <path d="M323 219v1l2-1h-2" fill="#c8b100"/>
  <path d="M323 219v1l2-1h-2" fill="none"/>
  <path d="M327 219l-1 1-1-1h2" fill="#c8b100"/>
  <path d="M327 219l-1 1-1-1h2" fill="none"/>
  <path d="M319 218v2h1v-2h-1" fill="#c8b100"/>
  <path d="M319 218v2h1v-2h-1" fill="none"/>
  <path d="M318 220v1l2-1-1-1h-1v1" fill="#c8b100"/>
  <path d="M318 220v1l2-1-1-1h-1v1" fill="none"/>
  <path d="M322 219l-1 1h-1v-1h2" fill="#c8b100"/>
  <path d="M322 219l-1 1h-1v-1h2" fill="none"/>
  <path d="M316 220v1h-1l1-1" fill="#c8b100"/>
  <path d="M316 220v1h-1l1-1" fill="none"/>
  <path d="M319 220l1-1v1h-1" fill="#c8b100"/>
  <path d="M319 220l1-1v1h-1z" fill="none"/>
  <path d="M330 218h1l-1 2v-2" fill="#c8b100"/>
  <path d="M330 218h1l-1 2v-2" fill="none"/>
  <path d="M332 220l-1 1-1-1v-1h2v1" fill="#c8b100"/>
  <path d="M332 220l-1 1-1-1v-1h2v1" fill="none"/>
  <path d="M328 219v1h2v-1h-2" fill="#c8b100"/>
  <path d="M328 219v1h2v-1h-2" fill="none"/>
  <path d="M333 220v1h2l-1-1h-1" fill="#c8b100"/>
  <path d="M333 220v1h2l-1-1h-1" fill="none"/>
  <path d="M324 219h1v1l-1-1" fill="#c8b100"/>
  <path d="M324 219h1v1l-1-1z" fill="none"/>
  <path d="M330 220v-1l1 1h-1" fill="#c8b100"/>
  <path d="M330 220v-1l1 1h-1z" fill="none"/>
  <path d="M324 214l1-1 1 1-1 1-1-1" fill="#c8b100"/>
  <path d="M325 214h-1 1v-2h-1 1v-1 1h1-1v2" fill="#c8b100"/>
  <path d="M325 214h-1 1v-2h-1 1v-1 1h1-1v2z" fill="none"/>
  <path d="M326 214h-2 1v-2h-1 1v-1 1h1-1v2h1" fill="#c8b100"/>
  <path d="M325 213l1 1-1 1-1-1 1-1" fill="none"/>
  <path d="M315 221l-1-1h-1 2v1" fill="#c8b100"/>
  <path d="M315 221l-1-1h-1 2v1z" fill="none"/>
  <path d="M315 221" fill="#c8b100"/>
  <path d="M315 221z" fill="none"/>
  <path d="M335 221l1-1h-1v1" fill="#c8b100"/>
  <path d="M335 221l1-1h-1v1z" fill="none"/>
  <path d="M335 221h-1 1" fill="#c8b100"/>
  <path d="M335 221h-1 1z" fill="none"/>
  <path d="M314 232h22v-5h-22v5z" fill="#c8b100"/>
  <path d="M314 232h22v-5h-22v5z" fill="none"/>
  <path d="M334 236h-18l1-1-1-1h18l-1 1 1 1" fill="#c8b100"/>
  <path d="M334 236h-18l1-1-1-1h18l-1 1 1 1z" fill="none"/>
  <path d="M317 236h16l1 1-1 1h-16l-1-1 1-1" fill="#c8b100"/>
  <path d="M317 236h16l1 1-1 1h-16l-1-1 1-1z" fill="none"/>
  <path d="M317 232h16l1 1-1 1h-16l-1-1 1-1" fill="#c8b100"/>
  <path d="M317 232h16l1 1-1 1h-16l-1-1 1-1z" fill="none"/>
  <path d="M309 331l4-1 4-1 4 1 4 1 4-1 4-1 4 1 3 1v2l-3-1-4-1-4 1-4 1-4-1-4-1-4 1-4 1v-2" fill="#005bbf"/>
  <path d="M309 331l4-1 4-1 4 1 4 1 4-1 4-1 4 1 3 1v2l-3-1-4-1-4 1-4 1-4-1-4-1-4 1-4 1v-2z" fill="none"/>
  <path d="M309 333l4-1 4-1 4 1 4 1 4-1 4-1 4 1 3 1v2h-3l-4-1-4 1h-8l-4-1-4 1h-4v-2" fill="#ccc"/>
  <path d="M309 333l4-1 4-1 4 1 4 1 4-1 4-1 4 1 3 1v2h-3l-4-1-4 1h-8l-4-1-4 1h-4v-2" fill="none"/>
  <path d="M309 335h4l4-1 4 1h8l4-1 4 1h3v3l-3-1-4-1-4 1-4 1-4-1-4-1-4 1-4 1v-3" fill="#005bbf"/>
  <path d="M309 335h4l4-1 4 1h8l4-1 4 1h3v3l-3-1-4-1-4 1-4 1-4-1-4-1-4 1-4 1v-3" fill="none"/>
  <path d="M309 340l4-1h8l4 1 4-1h8l3 1v-2l-3-1-4-1-4 1-4 1-4-1-4-1-4 1-4 1v2" fill="#ccc"/>
  <path d="M309 340l4-1h8l4 1 4-1h8l3 1v-2l-3-1-4-1-4 1-4 1-4-1-4-1-4 1-4 1v2" fill="none"/>
  <path d="M309 343l4-1 4-1 4 1 4 1 4-1 4-1 4 1 3 1v-3l-3-1h-8l-4 1-4-1h-8l-4 1v3" fill="#005bbf"/>
  <path d="M309 343l4-1 4-1 4 1 4 1 4-1 4-1 4 1 3 1v-3l-3-1h-8l-4 1-4-1h-8l-4 1v3z" fill="none"/>
  <path d="M334 321c0 2 1 3 2 3h-23c2 0 3-1 3-3h18" fill="#c8b100"/>
  <path d="M334 321c0 2 1 3 2 3h-23c2 0 3-1 3-3h18z" fill="none"/>
  <path d="M317 319h16l1 1-1 1h-16l-1-1 1-1" fill="#c8b100"/>
  <path d="M317 319h16l1 1-1 1h-16l-1-1 1-1z" fill="none"/>
  <path d="M313 330h23v-6h-23v6z" fill="#c8b100"/>
  <path d="M313 330h23v-6h-23v6z" fill="none"/>
  <path d="M338 299l4 3-2 2c-2 1-3 3-2 4a6 6 0 0 1 0-9" fill="#ad1519"/>
  <path d="M338 299l4 3-2 2c-2 1-3 3-2 4a6 6 0 0 1 0-9z" fill="none"/>
  <path d="M317 318h16v-79h-16v79z" fill="#ccc"/>
  <path d="M329 239v79m1-79v79M317 318h16v-79h-16v79z" fill="none"/>
  <path d="M300 268a52 52 0 0 1 24-2c10 2 18 6 17 9l4-8c0-4-8-8-19-10l-9-1c-7 0-13 1-17 3v9" fill="#ad1519"/>
  <path d="M300 268a52 52 0 0 1 24-2c10 2 18 6 17 9l4-8c0-4-8-8-19-10l-9-1c-7 0-13 1-17 3v9" fill="none"/>
  <path d="M333 278c5 0 8-1 8-3 0-1-1-3-4-5l-4 1v7" fill="#ad1519"/>
  <path d="M333 278c5 0 8-1 8-3 0-1-1-3-4-5l-4 1v7" fill="none"/>
  <path d="M317 272l-6 2v1c-1 1 2 3 6 5v-8" fill="#ad1519"/>
  <path d="M317 272l-6 2v1c-1 1 2 3 6 5v-8" fill="none"/>
  <path d="M343 294c1-1-4-4-10-6l-8-4c-9-3-15-8-14-9v-1l-1 9c-1 1 5 5 13 9l10 4c5 2 9 5 9 6l1-8" fill="#ad1519"/>
  <path d="M343 294c1-1-4-4-10-6l-8-4c-9-3-15-8-14-9v-1l-1 9c-1 1 5 5 13 9l10 4c5 2 9 5 9 6l1-8z" fill="none"/>
  <path d="M310 265l2-7a6 6 0 0 1-1 0l-1 5-3-4h-1-1l4 6h1M316 258h-1v7h4v-1h-3v-6M324 259l2 1v-1l-6-1v1h2l-1 6h2l1-6M326 266h2v-3h1v1l1 2 1 1h1v-1l-2-3 2-1v-2h-2l-2-1-2 7m3-6l2 1v1l-2 1v-3M338 267l-1 3h1l1 1 1-8a4 4 0 0 1-1 0l-7 4h1l2-1 3 1zm-2-1l2-2v3l-2-1" fill="#c8b100"/>
  <path d="M225 200l2-2c2 0 3 1 3 2 0 2-1 3-3 3-1 0-2-1-2-3z" fill="none"/>
  <path d="M250 183l16 2 8 2 7 1c3 0 7 0 11 2l8 5-2 1v4l-5 5-2 2-5 4h-2l-1 3-33-4-33 4-1-3h-3l-5-4-2-2-4-5-1-4-1-1 8-5c4-2 8-2 10-2a33 33 0 0 0 16-3l16-2z" fill="#ad1519"/>
  <path d="M250 226c-12 0-23-1-31-4l-1-1 1-1c8-2 19-4 31-4s23 2 31 4l1 1-1 1c-8 3-19 4-31 4" fill="#c8b100"/>
  <path d="M250 225c-11 0-21-2-29-4 8-2 18-3 29-3s21 1 29 3c-8 2-18 4-29 4" fill="#ad1519"/>
  <path d="M251 225v-7M249 225v-7M247 225v-7M246 225v-7M244 225v-7M241 224v-6m2 6v-6M239 224v-5m1 5v-6M235 224v-5m2 5v-5m1 5v-5M234 224v-5" fill="none"/>
  <path d="M233 223v-4M232 223v-4M229 223v-3m2 3v-4M228 223v-3M227 222v-2M225 222v-2M224 222v-1M223 222v-1" fill="none" stroke="#000"/>
  <path d="M258 224v-6m-3 6v-6m-2 7v-7" fill="none"/>
  <path d="M250 216c-12 0-23 2-31 4l-1-3-2-3c9-2 21-4 34-4 14 0 26 2 34 4l-2 3v3c-8-2-20-4-32-4" fill="#c8b100"/>
  <path d="M250 210c-13 0-25 2-34 4h-1v-1a126 126 0 0 1 70 0l1 1h-2c-8-2-20-4-34-4" fill="#c8b100"/>
  <path d="M250 225c-11 0-21-2-29-4 8-2 18-3 29-3s21 1 29 3c-8 2-18 4-29 4z" fill="none"/>
  <path d="M241 213l1-1 1 1-1 1-1-1" fill="#fff"/>
  <path d="M250 214h-3l-1-1 1-1h6l2 1-2 1h-3" fill="#ad1519"/>
  <path d="M234 215h-3l-1-1 1-1h5l1 1-1 1h-2" fill="#058e6e"/>
  <path d="M224 215l1-1 1 1-1 1-1-1" fill="#fff"/>
  <path d="M217 217l1-1h3l-2 2-2-1" fill="#ad1519"/>
  <path d="M267 215h2l1-1-1-1h-4l-2 1 1 1h3" fill="#058e6e"/>
  <path d="M258 213l1-1 1 1-1 1-1-1M274 215l1-1 1 1-1 1-1-1" fill="#fff"/>
  <path d="M284 217l-2-1h-3l3 2 2-1" fill="#ad1519"/>
  <path d="M220 222c8-3 18-4 30-4s22 1 30 4" fill="none"/>
  <path d="M225 191l2 2 2-4a8 8 0 0 1-4-7c0-5 6-8 12-8l9 2v-2l-9-2c-7 0-13 5-14 10a9 9 0 0 0 3 8l-1 1" fill="#c8b100"/>
  <path d="M225 191l2 2 2-4a8 8 0 0 1-4-7c0-5 6-8 12-8l9 2v-2l-9-2c-7 0-13 5-14 10a9 9 0 0 0 3 8l-1 1" fill="none"/>
  <path d="M225 191c-2-2-4-4-4-7 0-4 2-7 6-9a9 9 0 0 0-4 8c0 2 1 5 3 7l-1 1" fill="#c8b100"/>
  <path d="M225 191c-2-2-4-4-4-7 0-4 2-7 6-9a9 9 0 0 0-4 8c0 2 1 5 3 7l-1 1" fill="none"/>
  <path d="M202 195a9 9 0 0 1-1-10c2-5 9-8 16-8l7 1-1 1h-6c-7 0-13 3-15 7v3l2 6-2 4-2-1 2-3" fill="#c8b100"/>
  <path d="M202 195a9 9 0 0 1-1-10c2-5 9-8 16-8l7 1-1 1h-6c-7 0-13 3-15 7v3l2 6-2 4-2-1 2-3z" fill="none"/>
  <path d="M205 180l-4 5a9 9 0 0 0 1 10l-1 2c-2-1-3-4-3-6 0-4 3-8 7-11" fill="#c8b100"/>
  <path d="M205 180l-4 5a9 9 0 0 0 1 10l-1 2c-2-1-3-4-3-6 0-4 3-8 7-11z" fill="none"/>
  <path d="M250 171c2 0 3 1 4 3v6l1 8-5 5-5-5 1-8v-1-5c1-2 2-3 4-3" fill="#c8b100"/>
  <path d="M250 171c2 0 3 1 4 3v6l1 8-5 5-5-5 1-8v-1-5c1-2 2-3 4-3z" fill="none"/>
  <path d="M250 173l2 1v6l2 8-4 3-4-3 2-8v-1-5l2-1" fill="#c8b100"/>
  <path d="M250 173l2 1v6l2 8-4 3-4-3 2-8v-1-5l2-1z" fill="none"/>
  <path d="M275 191l-2 2-2-4a8 8 0 0 0 4-7c0-5-6-8-12-8l-9 2v-2l9-2c7 0 14 5 14 10v1c0 2-1 5-3 7l1 1" fill="#c8b100"/>
  <path d="M275 191l-2 2-2-4a8 8 0 0 0 4-7c0-5-6-8-12-8l-9 2v-2l9-2c7 0 14 5 14 10v1c0 2-1 5-3 7l1 1" fill="none"/>
  <path d="M275 191c2-2 4-4 4-7 0-4-2-7-6-9a9 9 0 0 1 4 8c0 2-1 5-3 7l1 1" fill="#c8b100"/>
  <path d="M275 191c2-2 4-4 4-7 0-4-2-7-6-9a9 9 0 0 1 4 8c0 2-1 5-3 7l1 1" fill="none"/>
  <path d="M298 195a9 9 0 0 0 1-10c-2-5-9-8-16-8l-7 1 1 1h6c7 0 13 3 15 7v3l-2 6 2 4 2-1-2-3" fill="#c8b100"/>
  <path d="M298 195a9 9 0 0 0 1-10c-2-5-9-8-16-8l-7 1 1 1h6c7 0 13 3 15 7v3l-2 6 2 4 2-1-2-3z" fill="none"/>
  <path d="M295 180l4 5a9 9 0 0 1-1 10l1 2c2-1 3-4 3-6 0-4-3-8-7-11" fill="#c8b100"/>
  <path d="M295 180l4 5a9 9 0 0 1-1 10l1 2c2-1 3-4 3-6 0-4-3-8-7-11z" fill="none"/>
  <path d="M248 189l2-2 2 2-2 2-2-2" fill="#fff"/>
  <path d="M248 189l2-2 2 2-2 2-2-2z" fill="none"/>
  <path d="M248 185l2-1 2 1-2 2-2-2M249 182l1-2 2 2-2 1-1-1M249 178l1-1 1 1-1 1-1-1M249 175l1-1 1 1-1 1-1-1" fill="#fff"/>
  <path d="M250 200h1v2c0 2 2 4 5 4 2 0 4-1 5-3v-2l1 2c0 3 2 4 5 4a5 5 0 0 0 4-5l2-2 1 2-1 2c0 3 2 5 5 5l4-2 1-1v1c0 2 1 3 2 3l4-1 4-4v2l-4 4c-1 1-3 2-4 1-2 0-3-1-3-2l-4 1c-3 0-5-2-6-4l-5 2c-3 0-5-1-6-3-1 2-3 2-5 2s-5-1-6-3c-1 2-3 3-6 3-2 0-3 0-5-2a7 7 0 0 1-10 1c-1 2-4 4-7 4l-3-1-3 2c-2 1-3 0-5-1l-3-4v-2l3 4 4 1c2 0 2-1 2-3v-1l1 1 4 2c3 0 5-2 5-5v-4l2 2c0 3 2 5 5 5 2 0 4-1 5-4v-2l1 2c0 2 2 3 4 3a5 5 0 0 0 5-6h1" fill="#c8b100"/>
  <path d="M284 206l-1-2-1 1v2l2-1M263 202l-1-2-2 2 1 1 2-1M238 202l1-2 1 2-1 1-1-1M216 206l1-2 2 1-1 2-2-1" fill="#fff"/>
  <path d="M226 192c1 0 2 1 2 3l1-1h1v1l-1 2v2h-2l-1 1-2-2-1-2v-1h2c-1-1 0-2 1-3M226 202l-1-1 1-1-2-1h-3-1 1v1l-3 2 4 1-1 1h1l3-1 1-1M229 201a2 2 0 0 0 0-2l1-1 2-1 1-1v2l4 1-3 2a7 7 0 0 0 0 1h-1-2l-2-1" fill="#c8b100"/>
  <path d="M225 200l2-2c2 0 3 1 3 2 0 2-1 3-3 3-1 0-2-1-2-3" fill="#ad1519"/>
  <path d="M250 188l2 4h1l1-1v2l-1 2-1 2-2-1-2 1-1-2v-2l-1-2 1 1h1l2-4M248 200v-1-2l-1-1-3-1h-1v2l-4 2 4 1v2h1l3-1 1-1M252 200v-1-2l2-1 2-1h2l-1 1v1l4 2-4 1a7 7 0 0 0 1 2h-2l-2-1-2-1M275 192l-3 3v-1h-1v3l1 2h1l2 1 1-2 1-2 1-1h-2l-1-3M274 202l1-1v-1l1-1h4l-1 1c2 0 3 1 3 2l-3 1v1h-1l-2-1-2-1M271 201v-1l1-1-2-1-2-1-1-1v2l-3 1 3 2-1 1h4l1-1" fill="#c8b100"/>
  <path d="M271 200l2-2 2 2c0 2-1 3-2 3s-2-1-2-3M295 205h-2l-1 2h3v-2" fill="#ad1519"/>
  <path d="M292 206l1-1h2l3-3h3c0-2-1-3-3-3l-2 1-1-1-2 2 1 4-1-2-3-2h-1v1l-4 1 3 2-1 1h-1 2l2 1 2-1M208 206v-1h-3l-2-3h-4c0-2 2-3 3-3l3 1v-1l2 2v4l1-2 2-2h2a8 8 0 0 0 0 1l3 1-2 2 1 1h-1l-3 1-2-1" fill="#c8b100"/>
  <path d="M205 205h3v2h-2l-1-2M248 199c0-2 1-3 2-3s2 1 2 3l-2 2-2-2" fill="#ad1519"/>
  <path d="M246 167c0-2 2-4 4-4s4 2 4 4c0 3-2 4-4 4s-4-1-4-4" fill="#005bbf"/>
  <path d="M249 156v2h-3v2h3v7h-3v2h8v-2h-3v-7h3v-2h-3v-2h-2z" fill="#c8b100"/>
  <path d="M250 344c-13 0-26-3-36-8-8-4-14-12-14-21v-34h101v34c0 9-6 17-14 21-11 5-23 8-37 8" fill="#ccc"/>
  <path d="M250 344c-13 0-26-3-36-8-8-4-14-12-14-21v-34h101v34c0 9-6 17-14 21-11 5-23 8-37 8z" fill="none" stroke="#000"/>
  <path d="M250 281h51v-55h-51v55z" fill="#ccc"/>
  <path d="M250 281h51v-55h-51v55z" fill="none" stroke="#000"/>
  <path d="M250 315c0 13-11 23-25 23s-25-10-25-23v-34h50v34" fill="#ad1519"/>
  <path d="M211 334l6 3v-57h-6v54z" fill="#c8b100" stroke="#000"/>
  <path d="M200 314c0 7 3 12 6 16v-50h-6v34z" fill="#c8b100" stroke="#000" stroke-linejoin="round"/>
  <path d="M222 338h6v-58h-6v58z" fill="#c7b500" stroke="#000"/>
  <path d="M233 337c3 0 5-2 6-3v-54h-6v57z" fill="#c8b100" stroke="#000"/>
  <path d="M200 281h50v-55h-50v55z" fill="#ad1519"/>
  <path d="M200 281h50v-55h-50v55z" fill="none" stroke="#000"/>
  <path d="M245 329c2-2 5-7 5-13l1-36h-6v49z" fill="#c8b100" stroke="#000"/>
  <path d="M250 315c0 13-11 23-25 23s-25-10-25-23v-34h50v34" fill="none" stroke="#000"/>
  <path d="M301 281v34c0 13-12 23-26 23-13 0-25-10-25-23v-34h51" fill="#ad1519"/>
  <path d="M301 281v34c0 13-12 23-26 23-13 0-25-10-25-23v-34h51" fill="none" stroke="#000"/>
  <path d="M259 306l1 1-2 1-1-1v-1h-1v1c0 1 0 2 2 2v4h1v-4l2-1h5v-2h-7m23 0v2h-4l4 6-1 1-5-6v9h-2v-9l-5 6-1-1 5-6h-5v-2h14zm3 0v2h4l2 1v4h2v-4l2-2v-1h-2v1l-1 1-1-1v-1h-6m-7 23l4-1v2l-4 1c0 1-1 2-3 2l-2-2-5-1 1-2 4 1 1-1v-7h2v7l2 1zm-12-2v2l-4-4h-3v-4l-1-5h1l1 4h2l4-4 1 1-4 4v3l3 3zm-6-5h2v2h-2v-2zm-2-5h-2v-4l2-1v5zm1-5h2a72 72 0 0 0 0 5h-1l-1-2v-3zm6 14l5 3 1-2-5-2-1 1m-1 2l5 2-1 2-4-3v-1m3-10l1 1 3-4-1-1-3 4m-2-1l-1-2 3-3 2 1-4 4m19 10l1 2 4-4h2c1-1 2-3 1-4h-1l2-5h-2l-1 4h-1l-5-4-1 1 4 4v3l-3 3zm6-5h-1v2h1v-2zm3-5h1l1-4-2-1v5zm-2-5h-2v5h2v-5m-6 14l-5 3v-2l4-2 1 1m1 2l-5 2 1 2 5-3-1-1m-2-10l-2 1-3-4 1-1 4 4m1-1l1-2-3-3-2 1 4 4m-21-9l1 1h4l1-1h-6m22 0v1h-5v-1h5m-12 22l1-1 1 1-1 2-1-2zm2-8h2v-5h-2v5m-2 0h-1v-5h1v5M256 306l2-2v-5h1v5l2 2h5-7a1 1 0 0 0-2 0h-1m12 0h5l-5-6 1-1 5 6v-8h2v8l5-6 2 1-5 6h4-14zm23 0h4l-2-2v-5h-2v5l-2 2h-4 6m-31-15l6 7 1-1-6-7v-1h5v-1h-5l-2-2c-2 0-3 1-3 2 0 2 1 3 2 3v5h1v-5h1zm33 0v5h-2v-5l-7 7-1-1 7-7-1-1h-4v-1h4l3-2c2 0 3 1 3 2 0 2-1 3-2 3zm-17 0v3h-2v-3l-1-2h-5v-1h5l2-2 3 2h4v1h-4l-2 2zm-18 4h-2v5h2v-5m1 0h2v5h-2v-5m32 0h-2v5h2v-5m2 0h2v5h-2v-5m-27 1l2-1 3 4-1 1-4-4m-1 1l-1 1 3 4 2-1-4-4m19-1l-2-1-3 3 1 2 4-4m1 1l1 1-3 4-1-1 3-4m-21 9l1-1h4l1 1h-6m-7-18l2-1 1 1-1 2-2-2zm13 1l-1 2h-4l-1-2h6m0-1l-1-2h-4l-1 2h6m16 18v-1h-5v1h5m5-18l1-1 1 1-1 2-1-2zm-17 0l1-1 1 1-1 2-1-2zm7 1v2h5v-2h-5m0-1v-2h5v2h-5m-7 5h-1v5h1v-5m2 0h2v5h-2v-5" fill="#c8b100"/>
  <path d="M278 329l4-1v2l-4 1c0 1-1 2-3 2l-2-2-5-1 1-2 4 1 1-1v-7h2v7l2 1zm-5-21h-5v-2h5l-5-6 1-1 5 6v-8h2v8l5-6 2 1-5 6h4v2h-4l4 6-1 1-5-6v9h-2v-9l-5 6-1-1 5-6m-13-17l6 7 1-1-6-7v-1h5v-1h-5l-2-2c-2 0-3 1-3 2 0 2 1 3 2 3v5h1v-5h1zm6 36v2l-4-4h-3v-4l-1-5h1l1 4h2l4-4 1 1-4 4v3l3 3zm-8-14v-4c-2 0-2-1-2-2l2-3v-5h1v5l2 2h5v2h-5l-2 1v4h-1m2 9h2v2h-2v-2zm-2-5h-2v-4l2-1v5zm1-5h2a72 72 0 0 0 0 5h-1l-1-2v-3zm6 14l5 3 1-2-5-2-1 1m-1 2l5 2-1 2-4-3v-1" fill="none"/>
  <path d="M267 318l1 1 3-4-1-1-3 4m-2-1l-1-2 3-3 2 1-4 4m-8-10l1-1 2 1-2 1-1-1zm27 20l1 2 4-4h2c1-1 2-3 1-4h-1l2-5h-2l-1 4h-1l-5-4-1 1 4 4v3l-3 3zm9-14v-4l2-2-2-3v-5h-2v5l-2 2h-4v2h4l2 1v4h2zm-3 9h-1v2h1v-2zm3-5h1l1-4-2-1v5zm-2-5h-2v5h2v-5m2-21v5h-2v-5l-7 7-1-1 7-7-1-1h-4v-1h4l3-2c2 0 3 1 3 2 0 2-1 3-2 3zm-17 0v3h-2v-3l-1-2h-5v-1h5l2-2 3 2h4v1h-4l-2 2zm9 35l-5 3v-2l4-2 1 1m1 2l-5 2 1 2 5-3-1-1m-28-33h-2v5h2v-5m1 0h2v5h-2v-5m32 0h-2v5h2v-5" fill="none"/>
  <path d="M293 295h2v5h-2v-5m-9 23l-2 1-3-4 1-1 4 4m1-1l1-2-3-3-2 1 4 4m-19-21l2-1 3 4-1 1-4-4m-1 1l-1 1 3 4 2-1-4-4m19-1l-2-1-3 3 1 2 4-4m1 1l1 1-3 4-1-1 3-4m-21 9l1-2h4l1 2h-6m0 2l1 1h4l1-1h-6m-7-20l2-1 1 1-1 2-2-2zm13 1l-1 2h-4l-1-2h6m0-1l-1-2h-4l-1 2h6m21 19l1-1 1 1-1 1-1-1zm-5-1v-2h-5v2h5m0 2v1h-5v-1h5m-12 22l1-1 1 1-1 2-1-2zm2-8h2v-5h-2v5m-2 0h-1v-5h1v5m17-34l1-1 1 1-1 2-1-2zm-17 0l1-1 1 1-1 2-1-2zm7 1v2h5v-2h-5m0-1v-2h5v2h-5M274 293h-1v5h1v-5m2 0h2v5h-2v-5" fill="none"/>
  <path d="M273 307l2-3c2 0 3 2 3 3s-1 3-3 3l-2-3" fill="#058e6e"/>
  <path d="M276 239v-1h-2l-3-1-1-1h-3l2 1 2 2h5" fill="#db4446"/>
  <path d="M276 239v-1h-2l-3-1-1-1h-3l2 1 2 2h5z" fill="none"/>
  <path d="M283 237l1 1-1 2 1 1v1l-1-1a227 227 0 0 0 0 2l1 2v0l-2-1 1 2v2l-1-2h-1v4l-1-1-1-1 1 1c0 1 0 3 2 5 1 1 2 4 5 3s2-5 2-7l-1-5v-3-3l1-3 1-1v-2l1 2v1l1-1 2-2-1 2-1 3 1-1h1l-2 2-1 2-1 2c-2 1-1 4-1 5l2 5-1 5-4 1-1 3 1 3h1l1 1v1l-1 2-1 2v3h-1l-1-1-1 1-1-1v-1h0l-1-1v-1h2l1-1v-1l-1-1-1-1 1 1-1 1v-1l-1-1v2l-1-1-1-1v-1-2-1h-3v3l1 2-1 1h-1-4l-1 1h-1s-1 0 0 0v-1-1h-1v1l-1-1v-2l2 1-1-1v-1h1v-1l1 1 2 1h2l-1-1 1-1h-1l-1 1v-1l1-1-1-1v2l-1-2v-2l3-1h2l2-1-3-2-2-2-1-1h-1a5 5 0 0 0-2 2v-1-1l-1 2-1 1v-1-1l-1 1h-2v2h-1-1l-1-1h-1v-1l1-1h1l-1-1-1-1h1l1-1 1 1h2l1-1 2-1-1-1-1-1-2-1h-2 1l1-1h-1l-2-1v1l1-1h1l-1-1-1-1h-2v-1-1h1l-1-1v-1l1-1 1 1 1-1v-1l1 1h1l-1 1v1l1 2 2 1 2 1h5l1-1-1-1 1-1 2-1-1-2-2-1v-1h1l2-1 1-1h1l3 2 2 2" fill="#ed72aa"/>
  <path d="M273 236v-1l1 1h-1"/>
  <path d="M273 236v-1l1 1h-1z" fill="none"/>
  <path d="M277 235v-1l1 1 1 1-1-1h-1"/>
  <path d="M277 235v-1l1 1 1 1-1-1h-1zM283 241l-1-1" fill="none"/>
  <path d="M262 236h1l1 1v-1l-2-2 1 1-1 1" fill="#db4446"/>
  <path d="M262 236h1l1 1v-1l-2-2 1 1-1 1z" fill="none"/>
  <path d="M260 237l-2-1-1 1h1v1h1l1-1" fill="#db4446"/>
  <path d="M260 237l-2-1-1 1h1v1h1l1-1z" fill="none"/>
  <path d="M258 240l-1 1v1h2v-1l-1-1" fill="#db4446"/>
  <path d="M258 240l-1 1v1h2v-1l-1-1z" fill="none"/>
  <path d="M273 240h1-1"/>
  <path d="M273 240h1-1" fill="none"/>
  <path d="M274 240h1-1"/>
  <path d="M274 240h1-1" fill="none"/>
  <path d="M274 237"/>
  <path d="M274 237" fill="none"/>
  <path d="M275 237v1-1"/>
  <path d="M275 237v1-1M269 243l-1 1v1h4l-1 1v3h1l1-1 1-1v1l1 2v-1h1l1-2v2l1 2v-2l1-1v-1 1m-11 1l1-1 1-1h1m1 5l1-1 2-1" fill="none"/>
  <path d="M261 250h-1l-1 1h2v-1" fill="#db4446"/>
  <path d="M261 250h-1l-1 1h2v-1z" fill="none"/>
  <path d="M260 253l-1 1-1 1h2v-1-1" fill="#db4446"/>
  <path d="M260 253l-1 1-1 1h2v-1-1z" fill="none"/>
  <path d="M262 256v1l1 1v-1-1h-1" fill="#db4446"/>
  <path d="M262 256v1l1 1v-1-1h-1zM278 257l2 3-1 2" fill="none"/>
  <path d="M269 263h-3 1l1 1 1-1" fill="#db4446"/>
  <path d="M269 263h-3 1l1 1 1-1z" fill="none"/>
  <path d="M267 266h-2v2l1-1h1v-1" fill="#db4446"/>
  <path d="M267 266h-2v2l1-1h1v-1z" fill="none"/>
  <path d="M269 269v1l1 1v-1-1h-1" fill="#db4446"/>
  <path d="M269 269v1l1 1v-1-1h-1z" fill="none"/>
  <path d="M281 270h-1l-1 2 1-1h1v-1" fill="#db4446"/>
  <path d="M281 270h-1l-1 2 1-1h1v-1z" fill="none"/>
  <path d="M282 273l-1 1 1 1v-1h1l-1-1" fill="#db4446"/>
  <path d="M282 273l-1 1 1 1v-1h1l-1-1z" fill="none"/>
  <path d="M285 274v1l1 1v-1-1h-1" fill="#db4446"/>
  <path d="M285 274v1l1 1v-1-1h-1z" fill="none"/>
  <path d="M253 330c2 0 3 2 3 4s-2 4-5 4-6-2-6-4 1-4 3-4v-1-1h1l1 1v-1h1l1 1v-1h1v2" fill="#ffd691" stroke="#000"/>
  <path d="M250 340l-5-3h-6l2 2 3 2 6-1M251 341s3-3 6-3h6l-1 1c-1 0-2 2-5 2l-5-1-1 1" fill="#058e6e" stroke="#000"/>
  <path d="M251 337a5 5 0 0 1 0-7 5 5 0 0 1 0 7" fill="#ad1519" stroke="#000"/>
  <path d="M250 343v-3-2h1v4h-1v1" fill="#058e6e" stroke="#000"/>
  <path d="M300 199l1-1 1 1-1 1-1-1" fill="#fff"/>
  <path d="M300 199l1-1 1 1-1 1-1-1z" fill="none"/>
  <path d="M302 196l1-1 1 1-1 1-1-1" fill="#fff"/>
  <path d="M302 196l1-1 1 1-1 1-1-1z" fill="none"/>
  <path d="M303 193l1-1 1 1-1 1-1-1" fill="#fff"/>
  <path d="M303 193l1-1 1 1-1 1-1-1z" fill="none"/>
  <path d="M303 190l1-1 1 1-1 1-1-1" fill="#fff"/>
  <path d="M303 190l1-1 1 1-1 1-1-1z" fill="none"/>
  <path d="M302 186l1-1 1 1-1 1-1-1" fill="#fff"/>
  <path d="M302 186l1-1 1 1-1 1-1-1z" fill="none"/>
  <path d="M300 183l1-1 1 1-1 1-1-1" fill="#fff"/>
  <path d="M300 183l1-1 1 1-1 1-1-1z" fill="none"/>
  <path d="M298 181l1-1 1 1-1 1-1-1" fill="#fff"/>
  <path d="M298 181l1-1 1 1-1 1-1-1z" fill="none"/>
  <path d="M295 179l1-1 1 1-1 1-1-1" fill="#fff"/>
  <path d="M295 179l1-1 1 1-1 1-1-1z" fill="none"/>
  <path d="M292 177l1-1 1 1-1 1-1-1" fill="#fff"/>
  <path d="M292 177l1-1 1 1-1 1-1-1z" fill="none"/>
  <path d="M289 176l1-1 1 1-1 1-1-1" fill="#fff"/>
  <path d="M289 176l1-1 1 1-1 1-1-1z" fill="none"/>
  <path d="M285 176l1-1 1 1-1 1-1-1" fill="#fff"/>
  <path d="M285 176l1-1 1 1-1 1-1-1z" fill="none"/>
  <path d="M282 175l1-1 1 1-1 1-1-1" fill="#fff"/>
  <path d="M282 175l1-1 1 1-1 1-1-1z" fill="none"/>
  <path d="M278 175l2-1 1 1-1 2-2-2" fill="#fff"/>
  <path d="M278 175l2-1 1 1-1 2-2-2z" fill="none"/>
  <path d="M275 175l1-1 1 1-1 2-1-2" fill="#fff"/>
  <path d="M275 175l1-1 1 1-1 2-1-2z" fill="none"/>
  <path d="M277 178l1-1 1 1-1 1-1-1M277 182l2-1 1 1-1 1-2-1M278 185l1-1 1 1-1 1-1-1M277 188l1-1 1 1-1 1-1-1M275 190l1-1 1 1-1 1-1-1M273 173l1-1 1 1-1 2-1-2" fill="#fff"/>
  <path d="M273 173l1-1 1 1-1 2-1-2z" fill="none"/>
  <path d="M270 172l1-1 1 1-1 1-1-1" fill="#fff"/>
  <path d="M270 172l1-1 1 1-1 1-1-1z" fill="none"/>
  <path d="M266 171l1-1 1 1-1 1-1-1" fill="#fff"/>
  <path d="M266 171l1-1 1 1-1 1-1-1z" fill="none"/>
  <path d="M263 170l1-1 1 1-1 1-1-1" fill="#fff"/>
  <path d="M263 170l1-1 1 1-1 1-1-1z" fill="none"/>
  <path d="M259 170l2-1 1 1-1 1-2-1" fill="#fff"/>
  <path d="M259 170l2-1 1 1-1 1-2-1z" fill="none"/>
  <path d="M256 171l1-1 1 1-1 1-1-1" fill="#fff"/>
  <path d="M256 171l1-1 1 1-1 1-1-1z" fill="none"/>
  <path d="M253 172l1-1 1 1-1 1-1-1" fill="#fff"/>
  <path d="M253 172l1-1 1 1-1 1-1-1z" fill="none"/>
  <path d="M198 199l1-1 1 1-1 1-1-1" fill="#fff"/>
  <path d="M198 199l1-1 1 1-1 1-1-1z" fill="none"/>
  <path d="M196 196l1-1 2 1-2 1-1-1" fill="#fff"/>
  <path d="M196 196l1-1 2 1-2 1-1-1z" fill="none"/>
  <path d="M195 193l1-1 2 1-2 1-1-1" fill="#fff"/>
  <path d="M195 193l1-1 2 1-2 1-1-1z" fill="none"/>
  <path d="M195 190l1-1 1 1-1 1-1-1" fill="#fff"/>
  <path d="M195 190l1-1 1 1-1 1-1-1z" fill="none"/>
  <path d="M196 186l1-1 1 1-1 1-1-1" fill="#fff"/>
  <path d="M196 186l1-1 1 1-1 1-1-1z" fill="none"/>
  <path d="M198 183l1-1 1 1-1 1-1-1" fill="#fff"/>
  <path d="M198 183l1-1 1 1-1 1-1-1z" fill="none"/>
  <path d="M200 181l1-1 1 1-1 1-1-1" fill="#fff"/>
  <path d="M200 181l1-1 1 1-1 1-1-1z" fill="none"/>
  <path d="M203 179l1-1 1 1-1 1-1-1" fill="#fff"/>
  <path d="M203 179l1-1 1 1-1 1-1-1z" fill="none"/>
  <path d="M206 177l1-1 1 1-1 1-1-1" fill="#fff"/>
  <path d="M206 177l1-1 1 1-1 1-1-1z" fill="none"/>
  <path d="M209 176l1-1 1 1-1 1-1-1" fill="#fff"/>
  <path d="M209 176l1-1 1 1-1 1-1-1z" fill="none"/>
  <path d="M213 176l1-1 1 1-1 1-1-1" fill="#fff"/>
  <path d="M213 176l1-1 1 1-1 1-1-1z" fill="none"/>
  <path d="M216 175l1-1 1 1-1 1-1-1" fill="#fff"/>
  <path d="M216 175l1-1 1 1-1 1-1-1z" fill="none"/>
  <path d="M219 175l1-1 2 1-2 2-1-2" fill="#fff"/>
  <path d="M219 175l1-1 2 1-2 2-1-2z" fill="none"/>
  <path d="M223 175l1-1 1 1-1 2-1-2" fill="#fff"/>
  <path d="M223 175l1-1 1 1-1 2-1-2z" fill="none"/>
  <path d="M221 178l1-1 1 1-1 1-1-1M220 182l1-1 2 1-2 1-1-1M220 185l1-1 1 1-1 1-1-1M221 188l1-1 1 1-1 1-1-1M223 190l1-1 1 1-1 1-1-1M225 173l1-1 1 1-1 2-1-2" fill="#fff"/>
  <path d="M225 173l1-1 1 1-1 2-1-2z" fill="none"/>
  <path d="M228 172l1-1 1 1-1 1-1-1" fill="#fff"/>
  <path d="M228 172l1-1 1 1-1 1-1-1z" fill="none"/>
  <path d="M232 171l1-1 1 1-1 1-1-1" fill="#fff"/>
  <path d="M232 171l1-1 1 1-1 1-1-1z" fill="none"/>
  <path d="M235 170l1-1 1 1-1 1-1-1" fill="#fff"/>
  <path d="M235 170l1-1 1 1-1 1-1-1z" fill="none"/>
  <path d="M238 170l1-1 2 1-2 1-1-1" fill="#fff"/>
  <path d="M238 170l1-1 2 1-2 1-1-1z" fill="none"/>
  <path d="M242 171l1-1 1 1-1 1-1-1" fill="#fff"/>
  <path d="M242 171l1-1 1 1-1 1-1-1z" fill="none"/>
  <path d="M245 172l1-1 1 1-1 1-1-1" fill="#fff"/>
  <path d="M245 172l1-1 1 1-1 1-1-1z" fill="none"/>
  <path d="M217 238h-1v-1h-1v4h1v3h-3v7h2v15h-4v8h29v-8h-4v-15h2v-7h-4v-3h2v-4h-2v1h-1v-1h-1v1h-1v-1h-2v4h2v3h-4v-8h2v-4h-2v1h-1v-1h-1v1h-1v-1h-2v4h2v8h-4v-3h2v-4h-2v1h-1v-1h-2v1zm-6 36h29m-29-2h29m-29-2h29m-29-2h29m-29-2h29m-25-2h21m-21-2h21m-21-2h21m-21-1h21m-21-2h21m-21-2h21m-21-2h21m-23-2h25m-25-2h25m-25-2h25m-25-1h25m-22-2h18m-10-2h3m-3-2h3m-3-2h3m-3-2h3m-5-2h7m-13 8h4m-5-2h7m-7 34v-2m0-2v-2m-2 2v2m3 0v-2m2 4v-2m0-2v-2m0-2v-2m0-2v-2m-2 8v-2m-3 2v-2m7 0v2m2-2v-2m-6-2v2m4-2v2m4-2v2m-2-2v-2m2-1v1m0-5v2m-2-4v2m2-4v2m-4-2v2m-4-2v2m-1-4v2m3-2v2m4-2v2m2-4v2m-4-2v2m-4-2v2m-1-3v1m7-1v1m-4-5v2m16-2h-3m5-2h-7m7 34v-2m0-2v-2m2 2v2m-4 0v-2m-2 4v-2m0-2v-2m0-2v-2m0-2v-2m2 8v-2m4 2v-2m-7 0v2m-2-2v-2m5-2v2m-3-2v2m-4-2v2m2-2v-2m-2-1v1m0-5v2m2-4v2m-2-4v2m4-2v2m3-2v2m2-4v2m-4-2v2m-3-2v2m-2-4v2m4-2v2m3-2v2m2-3v1m-7-1v1m3-5v2m-7 18v-2m0-5v-2m0 6v-2m0-6v-2m0-2v-1m0-4v-2m0-2v-2m-9 5h4m4-5h3m4 5h3" fill="#c8b100"/>
  <path d="M230 274v-5c0-1 0-4-5-4-4 0-4 3-4 4v5h9z" fill="#c8b100"/>
  <path d="M222 269h-2l1-3 2 2-1 1zM228 269h3l-1-3-2 2v1zM226 267l1-2-2-1-2 1 2 2h1zM222 261v-5c0-2-1-3-3-3-1 0-2 1-2 3v5h5zM229 261v-5c0-2 1-3 2-3 2 0 3 1 3 3v5h-5zM227 248l1-4h-5v4h4zM231 248l-1-4h5l-1 4h-3zM220 248v-4h-4v4h4z" fill="#c8b100"/>
  <path d="M228 274v-5s0-2-3-2c-2 0-3 2-3 2v5h6zM221 260v-4c0-1 0-2-2-2l-2 2v4h4zM229 260v-4l2-2c2 0 3 1 3 2v4h-5z" fill="#0039f0"/>
  <path d="M234 281c0-10 7-18 16-18s17 8 17 18-8 18-17 18-16-8-16-18" fill="#ad1519"/>
  <path d="M234 281c0-10 7-18 16-18s17 8 17 18-8 18-17 18-16-8-16-18z" fill="none" stroke="#000"/>
  <path d="M239 281c0-7 5-13 11-13 7 0 12 6 12 13s-5 13-12 13c-6 0-11-6-11-13" fill="#005bbf"/>
  <path d="M239 281c0-7 5-13 11-13 7 0 12 6 12 13s-5 13-12 13c-6 0-11-6-11-13z" fill="none" stroke="#000"/>
  <path d="M245 272l-1 3v2l-1-1-2 2h1v1h1l1 1h-1v1h1l-1 2 1-1 1 1 1-1 1 1-1-2h1v-1h-1l1-1h1l1-1-2-2-1 1v-2l-1-3" fill="#c8b100"/>
  <path d="M245 272l-1 3v2l-1-1-2 2h1v1h1l1 1h-1v1h1l-1 2 1-1 1 1 1-1 1 1-1-2h1v-1h-1l1-1h1l1-1-2-2-1 1v-2l-1-3z" fill="none"/>
  <path d="M243 281h4v-1h-4v1z" fill="#c8b100"/>
  <path d="M243 281h4v-1h-4v1z" fill="none"/>
  <path d="M256 272s-2 1-2 3l1 2-2-1-1 2 1 1h1l1 1h-1v1h1l-1 2 1-1 1 1 1-1 1 1-1-2h1v-1h-1l1-1h1v-1l-1-2-2 1 1-2-1-3" fill="#c8b100"/>
  <path d="M256 272s-2 1-2 3l1 2-2-1-1 2 1 1h1l1 1h-1v1h1l-1 2 1-1 1 1 1-1 1 1-1-2h1v-1h-1l1-1h1v-1l-1-2-2 1 1-2-1-3z" fill="none"/>
  <path d="M254 281h4v-1h-4v1z" fill="#c8b100"/>
  <path d="M254 281h4v-1h-4v1z" fill="none"/>
  <path d="M250 281l-1 3 1 2-2-1-1 2v2l1-1 1 1h-1v1h1l-1 2 2-1v1l1-1 1 1-1-2h2v-1h-2l1-1 1 1 1-1v-1l-1-2-2 1 1-2c0-2-2-3-2-3" fill="#c8b100"/>
  <path d="M250 281l-1 3 1 2-2-1-1 2v2l1-1 1 1h-1v1h1l-1 2 2-1v1l1-1 1 1-1-2h2v-1h-2l1-1 1 1 1-1v-1l-1-2-2 1 1-2c0-2-2-3-2-3z" fill="none"/>
  <path d="M248 290h5v-1h-5v1z" fill="#c8b100"/>
  <path d="M248 290h5v-1h-5v1z" fill="none"/>
  <path d="M283 233h-1-1v-2l-1 1h-1v-2l-1 1v2l3 2 2 2h2l1-1h-1-1v-1h1v-1h-1v1h-1v-2" fill="#c8b100"/>
  <path d="M283 233h-1-1v-2l-1 1h-1v-2l-1 1v2l3 2 2 2h2l1-1h-1-1v-1h1v-1h-1v1h-1v-2z" fill="none"/>
  <path d="M281 233v0"/>
  <path d="M281 233v0z" fill="none"/>
  <path d="M282 234h-1 1"/>
  <path d="M282 234h-1 1" fill="none"/>
  <path d="M280 233s-1 0 0 0"/>
  <path d="M280 233s-1 0 0 0" fill="none"/>
  <path d="M279 232v0"/>
  <path d="M279 232v0z" fill="none"/>
  <path d="M283 235h-1 1"/>
  <path d="M283 235h-1 1z" fill="none"/>
  <path d="M283 236h1l-1-1v1"/>
  <path d="M283 236h1l-1-1v1" fill="none"/>
  <path d="M284 236"/>
  <path d="M284 236z" fill="none"/>
  <path d="M281 230v1h1l-1-1" fill="#c8b100"/>
  <path d="M281 230v1h1l-1-1" fill="none"/>
  <path d="M280 231h1-1" fill="#c8b100"/>
  <path d="M280 231h1-1" fill="none"/>
  <path d="M282 232h-1v-1h1v1" fill="#c8b100"/>
  <path d="M282 232h-1v-1h1v1" fill="none"/>
  <path d="M281 231v1-1" fill="#c8b100"/>
  <path d="M281 231v1-1z" fill="none"/>
  <path d="M278 230v-1h1v1h-1" fill="#c8b100"/>
  <path d="M278 230v-1h1v1h-1z" fill="none"/>
  <path d="M279 231l-1-1h1v1" fill="#c8b100"/>
  <path d="M279 231l-1-1h1v1" fill="none"/>
  <path d="M278 230h1l-1 1v-1" fill="#c8b100"/>
  <path d="M278 230h1l-1 1v-1z" fill="none"/>
  <path d="M284 232h-1v1l1-1" fill="#c8b100"/>
  <path d="M284 232h-1v1l1-1" fill="none"/>
  <path d="M282 232v1h1v-1h-1" fill="#c8b100"/>
  <path d="M282 232v1h1v-1h-1" fill="none"/>
  <path d="M284 233l-1 1v-1h1" fill="#c8b100"/>
  <path d="M284 233l-1 1v-1h1" fill="none"/>
  <path d="M283 233c0-1 0-1 0 0" fill="#c8b100"/>
  <path d="M283 233c0-1 0-1 0 0z" fill="none"/>
  <path d="M286 234h-1v-1l1 1" fill="#c8b100"/>
  <path d="M286 234h-1v-1l1 1" fill="none"/>
  <path d="M285 235v-1l1 1h-1" fill="#c8b100"/>
  <path d="M285 235v-1l1 1h-1" fill="none"/>
  <path d="M284 234l1 1v-1h-1" fill="#c8b100"/>
  <path d="M284 234l1 1v-1h-1" fill="none"/>
  <path d="M285 235v0" fill="#c8b100"/>
  <path d="M285 235v0z" fill="none"/>
  <path d="M286 236l1 1h1l-1-1h-1" fill="#c8b100"/>
  <path d="M286 236l1 1h1l-1-1h-1z" fill="none"/>
  <path d="M286 236h-1l1 1v-1" fill="#c8b100"/>
  <path d="M286 236h-1l1 1v-1" fill="none"/>
  <path d="M286 237l1-1h-1v1" fill="#c8b100"/>
  <path d="M286 237l1-1h-1v1zM326 214h-2 1v-2h-1 1v-1 1h1-1v2h1M175 226v-1M175 226v-1M175 226v-1M174 226v-1M174 226v-1M174 226v-1m0 1v-1M173 226v-1m0 1v-1M172 226v-1m1 1v-1m0 1v-1M172 226v-1M172 226v-1M172 226v-1M171 226v-1m0 1v-1M171 226v-1M171 226v-1M171 226v-1M170 226v-1M170 226v-1M177 226v-1m-1 1v-1m0 1v-1M325 226v-1M324 226v-1M324 226v-1M324 226v-1M323 226v-1M323 226v-1m0 1v-1M322 226v-1m1 1v-1M322 226v-1m0 1v-1m0 1v-1M322 226v-1M321 226v-1M321 226v-1M321 226v-1m0 1v-1M320 226v-1M320 226v-1M320 226v-1M320 226v-1M319 226v-1M326 226v-1m0 1v-1m-1 1v-1" fill="none"/>
</svg>
