<svg xmlns="http://www.w3.org/2000/svg" xmlns:xlink="http://www.w3.org/1999/xlink" width="1000" height="500" viewBox="0 0 512 256">
  <path fill="#da000c" d="M0 0h512v256H0z"/>
  <path fill="#fff" d="M0 0h512v172H0z"/>
  <g stroke="#000">
    <g id="a" fill="#da000c" stroke-linecap="square">
      <path fill="#000" stroke="none" d="M197 116h64v44h-64z"/>
      <path d="M230 154h-39l-9 6v6h48M213 129c6 0 11 4 11 10v15h7V98h-40v56h12v-15c0-5 5-10 10-10z"/>
      <path fill="#000" stroke="none" d="M205 60h19v34h-19z"/>
      <path d="M223 89h-16v-6h-12v6h-8v-6h-5v10h41m-36 0h35v5h-35zM201 48v35h6V73c0-3 2-6 6-7 4 0 7 3 7 7v10h6V48zM199 43v5h29v-5zM195 34v9h35v-9h-6v4h-6v-4h-10v4h-7v-4zM182 160h48M261 157h-32l-10 5v7h42"/>
      <path stroke-linecap="butt" d="M219 162h43"/>
    </g>
    <use xlink:href="#a" transform="matrix(-1 0 0 1 512 0)"/>
    <g fill="#f8d80e">
      <g stroke-linecap="round">
        <path d="M273 150l-7 4a73 73 0 0 0-12 8l-2 4 2-1 3-1 4-3 10-6 3-2-1-3zM260 157v4M263 156v4M265 154v4M268 153v4"/>
        <path d="M239 150l-1 3c5 3 11 5 16 9l4 3c1 1 0 2-1 2h-2l-1 2c3 2 6 1 8-2l-1-4-7-6-15-7zM254 158v3M257 160l-1 3M260 162l-2 3M261 168l-3-1M262 165l-3 1M258 170l-1-3M257 167l-3 2M245 153v3M251 156v4M248 155v3"/>
      </g>
      <path d="M236 228v8h5v-4h7v4h5v-8zm0 11v8h17v-8h-5v4h-7v-4zM253 194h5v58h-5z"/>
      <path d="M253 199h5v50h-5zM256 179l10 7-10 6-11-6zm-15 4h-2v5h2l15 8 14-8h3v-5h-3l-14-8z"/>
      <path d="M255 164c-2 1-4 3-4 5v12c0 2 2 4 5 4 2 0 4-1 5-3l-2-1c0 2-2 2-3 2-2 0-3-1-3-3v-11c0-2 2-3 3-3h2c1-1 0-1-1-2h-2zm6 4l-2 2v7l2 1v-9-1z"/>
    </g>
    <g fill="#da000c">
      <path fill="#000" stroke="none" d="M241 38h29v53h-29z"/>
      <path d="M239 38v45h9V70c0-3 2-8 8-8s8 5 8 8v13h9V38zm16 5h2v16h-2zm-9 3h3v12h-3zm17 0h3v12h-3zM236 32v6h40v-6zM232 25v7h48v-7h-6v4h-7v-4h-8v4h-6v-4h-8v4h-7v-4zM223 98v4h66v-4zM220 83v15h72V83h-7v6h-9v-6h-12v6h-16v-6h-12v6h-9v-6z"/>
      <path stroke-linejoin="round" d="M229 102v55h13v-21c0-9 6-14 14-14s14 5 14 14v21h13v-55z"/>
    </g>
  </g>
</svg>
