<svg xmlns="http://www.w3.org/2000/svg" xmlns:xlink="http://www.w3.org/1999/xlink" width="960" height="600">
  <defs>
    <radialGradient id="a">
      <stop stop-color="#f9f0aa" offset="0"/>
      <stop stop-color="#b07e09" offset="1"/>
    </radialGradient>
    <radialGradient id="d" xlink:href="#a" gradientUnits="userSpaceOnUse" cx="447" cy="308" r="17"/>
    <radialGradient id="e" xlink:href="#a" gradientUnits="userSpaceOnUse" cx="452" cy="313" r="11"/>
    <radialGradient id="f" xlink:href="#a" gradientUnits="userSpaceOnUse" cx="454" cy="309" r="10"/>
    <radialGradient id="g" xlink:href="#a" gradientUnits="userSpaceOnUse" cx="458" cy="307" r="17"/>
    <radialGradient id="j" xlink:href="#a" gradientUnits="userSpaceOnUse" cx="446" cy="252" r="13"/>
    <radialGradient id="m" gradientUnits="userSpaceOnUse" cx="478" cy="215" r="0">
      <stop stop-color="#a50a0a" offset="0"/>
      <stop stop-color="#4c0505" offset="1"/>
    </radialGradient>
    <radialGradient id="n">
      <stop stop-color="#fff" offset="0"/>
      <stop stop-color="#fff" stop-opacity="0" offset="1"/>
    </radialGradient>
    <linearGradient id="h" gradientUnits="userSpaceOnUse" x1="474" y1="259" x2="472" y2="232">
      <stop stop-color="#b07e09" stop-opacity="0" offset="0"/>
      <stop stop-color="#b07e09" offset="1"/>
    </linearGradient>
    <linearGradient id="i" gradientUnits="userSpaceOnUse" x1="483" y1="297" x2="485" y2="327">
      <stop stop-color="#b07e09" stop-opacity="0" offset="0"/>
      <stop stop-color="#b07e09" offset="1"/>
    </linearGradient>
    <linearGradient id="k" gradientUnits="userSpaceOnUse" x1="452" y1="250" x2="455" y2="241">
      <stop stop-color="#f9f0aa" offset="0"/>
      <stop stop-color="#b07e09" offset="1"/>
    </linearGradient>
    <linearGradient id="l" gradientUnits="userSpaceOnUse" x1="473" y1="237" x2="476" y2="270">
      <stop stop-color="#f9f0aa" offset="0"/>
      <stop stop-color="#b07e09" offset="1"/>
    </linearGradient>
  </defs>
  <path fill="#4997d0" d="M0 0h960v600H0z"/>
  <path fill="#fff" d="M320 0h320v600H320z"/>
  <g stroke="none" stroke-width="0">
    <g fill="none">
      <path d="M452 377l6-1M460 372l3 4M455 371l3 4M409 239l-5 3M404 242v-4M402 243v2M404 246h-2M398 245l1 8M397 252l2 2M394 260l1 4M399 260l-2 1M399 266l-4 2M392 308l4 5M396 314l-3-1M398 322l1 1M399 326l4 4M401 333l3 1M403 336l2 1M407 331l-1 4M407 337l1-2M412 341v4M451 373l-1 1M448 370l-1-2"/>
    </g>
    <path fill="#406325" d="M486 385l-3-3c-8-4-16-6-24-7l-6-3c-5-3-11-3-16-6l-2-1c-2-3-5-3-7-5-9-8-18-15-22-26-6-13-13-26-12-40 1-9 0-18 2-27 3-13 7-26 15-37l-1 1c-8 11-12 24-16 37-2 8 0 18-1 27-1 14 6 27 12 40 4 10 13 18 21 25 2 3 6 3 8 5l2 2 15 6 6 3c9 1 17 3 24 7l4 3 1-1"/>
    <g fill="#67923d">
      <path d="M406 332c-2-7-1-22 0-24 7 13 5 24 0 24zM452 377c-7 0-20 9-22 11 15 1 24-7 22-11zM460 373c-7-6-15-24-14-27 15 11 19 25 14 27z"/>
      <path d="M455 373c-7-4-16-20-16-23 15 8 20 20 16 23zM439 366c1-8-6-24-8-26-2 16 3 28 8 26zM412 342c-3-6-1-20 0-21 6 11 3 21 0 21zM398 265c4-7 18-16 21-16-7 15-18 20-21 16z"/>
      <path d="M399 259c2-7 15-19 17-20-4 16-14 23-17 20zM427 358c-5-6-8-23-8-26 12 13 12 25 8 26zM398 322c-7 1-21-5-23-6 15-3 24 2 23 6zM396 312c1-5 8-15 10-16-1 12-7 18-10 16zM447 371c-8 0-25 11-26 13 18 1 29-8 26-13z"/>
    </g>
    <g fill="#406325">
      <path d="M406 331c5 1 7-10 0-23v23zM418 351c-5-5-20-11-22-11 9 12 20 15 22 11zM393 298c-1-8-12-22-15-23 2 17 11 26 15 23zM402 333c-5-4-19-6-21-5 10 8 20 9 21 5zM392 308c-3-6-15-14-17-14 6 13 15 17 17 14zM395 260c1-7-6-23-7-25-3 16 3 27 7 25zM399 245c3-6 1-22 0-24-7 14-4 25 0 24zM404 238c4-5 5-18 4-20-7 10-7 19-4 20zM410 232c5-4 10-16 9-18-9 7-12 16-9 18zM394 275c0 1-1-8-10-18 1 14 7 20 10 18zM427 361c-6-5-24-7-26-6 13 10 25 10 26 6zM439 366c-5 2-10-10-8-26 3 14 7 25 8 26zM452 377c2 4-6 11-22 11 12-5 22-9 22-11zM460 373c5-3 1-16-14-27 8 13 14 25 14 27z"/>
      <path d="M455 373c4-3-1-15-16-23 9 11 16 21 16 23zM412 342c4 0 6-10 0-21v21zM398 265c3 4 14-1 21-16-10 9-19 16-21 16z"/>
      <path d="M399 259c4 3 13-4 17-20-8 12-16 20-17 20zM427 358c4-1 4-13-8-26l8 26zM398 322c1-4-9-9-23-6 12 2 22 5 23 6zM396 312c3 2 9-4 10-16l-10 16zM447 371c3 5-8 14-26 14 14-6 25-12 26-14z"/>
      <path d="M399 326c-2-6-14-15-17-16 5 14 15 20 17 16z"/>
    </g>
    <g fill="#67923d">
      <path d="M392 274c4-5 18-9 20-9-8 10-18 13-20 9zM417 352c-1 3-12 0-21-12l21 12zM393 298c-4 3-13-6-15-23 7 13 13 23 15 23zM402 333c-1 4-11 3-21-5l21 5zM392 308c-2 3-11-1-17-14 8 8 16 14 17 14zM395 260c-5 2-10-9-7-25 2 14 5 24 7 25zM399 245c-4 1-7-10 0-24v24zM404 238c-3-1-3-10 4-20l-4 20zM410 232c-3-2 0-11 9-18l-9 18z"/>
      <path d="M394 275c-4 2-9-4-10-18l10 18zM427 361c-1 4-13 4-26-6l26 6zM419 351c-4-4-8-17-7-19 9 9 10 18 7 19zM402 326c-4-6-4-21-3-23 8 12 7 23 3 23zM399 326c-3 4-12-2-17-16 8 10 16 16 17 16z"/>
    </g>
    <g fill="#406325">
      <path d="M392 274c2 4 12 2 20-9-12 7-17 10-20 9zM402 326c4 0 5-11-3-23 2 12 4 22 3 23zM419 351c3-1 2-10-7-19l7 19z"/>
      <path d="M394 292c2-9-1-23-4-26-5 16 0 27 4 26z"/>
    </g>
    <path fill="#67923d" d="M394 294c-6 1-9-12-4-27l4 27z"/>
    <path fill="#67923d" d="M393 294c-1-8 7-23 9-25 2 16-5 26-9 25z"/>
    <path fill="#406325" d="M393 294c4 1 11-9 9-25l-9 25z"/>
    <path fill="#67923d" d="M394 303c0-7 9-22 11-23 1 16-7 25-11 23z"/>
    <path fill="#406325" d="M394 303c4 3 12-7 11-23-5 13-9 23-11 23z"/>
    <g fill="#ba1f3e">
      <circle cx="397" cy="251" r="1"/>
      <circle cx="405" cy="245" r="1"/>
      <circle cx="402" cy="242" r="1"/>
      <circle cx="393" cy="313" r="1"/>
      <circle cx="395" cy="297" r="1"/>
      <circle cx="408" cy="334" r="1"/>
      <circle cx="402" cy="336" r="1"/>
      <circle cx="447" cy="368" r="1"/>
      <circle cx="450" cy="375" r="1"/>
    </g>
  </g>
  <g stroke="none" stroke-width="0">
    <g fill="none">
      <path d="M561 259l2 2M557 242l-1-5M559 240l-1 5M554 245l5 4M563 250v6M563 257l1-2M562 267l4 4M566 270l2-3M570 298l-3 4M563 302l3 4M568 311l-4 4M564 320l-4 5M569 305h-2M565 298l1 1M557 336h-2M553 335l1 1M546 341v6M550 338l1 2M555 340h-2M522 366l-1 1M533 363h-4M523 369l-3-1M506 371l-3 4M502 370l-4 6M500 379l-5-2M512 376l-7-1M515 375l-10-1M513 372l-1-1M506 377l-2-2M562 326l-4 4M560 250h-2"/>
    </g>
    <path fill="#406325" d="M474 385l4-3c7-4 15-6 24-7l6-3 15-6 2-1c2-3 6-3 8-5 8-8 17-16 22-26 5-13 12-26 11-40 0-9 1-19-1-27-4-13-8-26-16-37l2 1c7 11 12 24 15 37 2 8 1 17 2 27 0 14-6 27-12 40-5 10-14 17-22 25l-7 5-2 2c-5 2-11 3-16 6l-6 3c-9 1-16 3-24 7l-3 3-2-1"/>
    <g fill="#406325">
      <path d="M554 335c2-8 0-25-2-27-6 15-3 27 2 27z"/>
      <path d="M547 342c2-6 0-20-1-21-5 11-3 21 1 21zM563 267c-3-6-17-14-19-14 6 13 17 18 19 14z"/>
      <path d="M562 259c-2-6-13-16-15-16 3 13 12 19 15 16zM567 274c-4-4-16-7-18-7 7 9 16 11 17 7zM564 321c6 1 19-4 20-6-13-3-22 2-20 6zM564 315c0-6-7-17-8-18-1 12 4 20 8 18z"/>
      <path d="M564 301c0-7-9-22-11-23 0 16 7 26 11 23zM511 377c5 5 20 11 22 11-9-13-20-15-22-11z"/>
    </g>
    <g fill="#67923d">
      <path d="M554 334c-5 1-9-11-2-26 0 14 0 25 2 26zM500 378c7 0 21 9 22 11-15 1-24-7-22-11zM500 370c2-8 15-21 18-22-4 17-14 26-18 22zM521 366c-1-8 6-24 8-26 3 16-3 28-8 26zM543 351c4-5 19-11 22-11-9 12-20 15-22 11zM569 298c1-6 9-18 11-19-1 14-8 21-11 19z"/>
      <path d="M557 336c6-4 22-6 24-5-11 9-23 10-24 5zM567 312c3-6 16-15 18-15-6 13-15 18-18 15zM566 266c0-8 8-23 10-24 1 16-6 26-10 24zM559 240c-2-5-1-18 0-20 5 11 3 20 0 20zM555 238c-6-5-11-20-11-22 12 9 15 20 11 22z"/>
      <path d="M566 273s3-8 14-16c-4 15-11 19-14 16zM532 362c7-5 27-7 29-6-14 11-28 12-29 6zM547 342c-4 0-6-10-1-21-1 11 0 20 1 21zM563 268c-2 3-13-2-19-15l19 15zM562 259c-3 3-12-3-15-16 7 9 13 16 15 16z"/>
      <path d="M567 275c-2 3-10 1-17-8 10 6 14 8 17 7zM564 321c-1-4 7-9 20-6-11 2-19 5-20 6zM563 315c-3 2-8-6-7-18l7 18z"/>
      <path d="M564 302c-4 2-11-8-11-24 5 13 9 23 11 24zM511 377c2-4 13-2 22 11-11-7-20-12-22-11z"/>
    </g>
    <g fill="#406325">
      <path d="M522 366c4 1 10-10 7-26l-7 26z"/>
      <path d="M532 361c4-7 5-25 4-27-10 13-9 26-4 27zM500 378c-2 4 7 12 22 11-12-4-21-9-22-11zM500 370c4 3 14-5 18-22-8 12-16 22-18 22zM543 351c2 4 13 1 22-11-11 7-21 12-22 11zM569 298c3 2 10-5 11-19-5 11-10 19-11 19z"/>
      <path d="M557 336c1 5 13 4 24-5-12 4-23 6-24 5zM567 312c3 3 12-2 18-15-9 9-16 15-18 15zM566 266c4 2 11-8 10-24-4 13-9 23-10 24zM559 240c4 0 5-9 0-20v20zM555 238c4-2 1-13-11-22 7 11 11 21 11 22zM566 273c4 3 10-1 14-16-7 10-12 15-14 16zM532 362c1 6 15 5 29-6-15 5-27 7-29 6zM539 355c3-5 4-19 4-20-8 10-7 19-4 20zM559 326c3-6 4-21 3-23-9 12-8 23-3 23z"/>
    </g>
    <g fill="#67923d">
      <path d="M532 361c-5-1-6-14 4-27-3 14-5 25-4 27zM567 292c-1-8 4-20 7-22 2 14-3 24-7 22zM539 355c-3-1-4-10 4-20-3 10-5 19-4 20zM562 250c-2-5 0-20 2-21 5 12 2 22-2 21zM504 371c3-8 17-21 19-22-4 17-15 25-19 22zM559 329c3-6 15-15 17-16-5 14-14 19-17 16zM559 326c-5 0-6-11 3-23-3 12-4 22-3 23z"/>
    </g>
    <path fill="#406325" d="M567 294c5 2 9-10 7-24l-7 24z"/>
    <path fill="#406325" d="M568 294c0-8-7-23-9-25-2 16 4 26 9 25zM563 250c3 1 6-9 1-21l-1 21zM505 371c3 3 14-5 18-22-9 12-17 21-19 22zM559 329c3 3 12-2 17-16-8 9-15 16-17 16z"/>
    <path fill="#67923d" d="M568 294c-5 1-11-9-9-25 3 13 7 24 9 25z"/>
    <g fill="#ba1f3e">
      <circle cx="565" cy="255" r="1"/>
      <circle cx="568" cy="267" r="1"/>
      <circle cx="570" cy="304" r="1"/>
      <circle cx="565" cy="297" r="1"/>
      <circle cx="550" cy="337" r="1"/>
      <circle cx="556" cy="340" r="1"/>
      <circle cx="514" cy="372" r="1"/>
      <circle cx="507" cy="377" r="1"/>
      <circle cx="557" cy="249" r="1"/>
    </g>
  </g>
  <g id="b" fill="#8c959d" stroke="#485654" stroke-width="0">
    <path d="M434 336c0 1 1 3 2 2h1l-2-1v-1h-1z"/>
    <path stroke="none" d="M437 338c-1 2-2 2-3 1l-1-2-1 1 2 2c1 1 3 0 4-1s2-3 1-4l-2-2-1 1 2 1c1 1 0 2-1 3z"/>
    <path fill="#485654" stroke="none" d="M437 338l-1 1-1 1-1-1h-1v-1-1l-1 2v-1l1 2h3l2-1 1-2v-1-1l-1-1-1-1-1 2v-1h1v1l1 1v1l-1 1zm0 0l1-1v-1l-1-1h-1v-1l1-1a4 4 0 0 1 2 2v3l-1 1-1 1-2 1a2 2 0 0 1-2-1l-1-1v-1l1-1v2h1l1 1 1-1 1-1z"/>
    <path fill="#6c301e" stroke="#351710" stroke-linejoin="round" d="M515 249l-40 40-41 39-5 6-7 8h-1l-6 5-12 13v2l6 9c2 1 3 2 4 1 3-6 11-14 14-21 1-4 3-11 5-12l12-13 1-1 1-1 70-74-1-1z"/>
    <path d="M432 328l-3-1h3v1z"/>
    <path fill="#b2b6ba" d="M557 220l-32 26h-1l-3-2v-1l2-1v-1h-1-1l-1 1-1 2c-20 18-36 35-55 54l-23 21-6 5-2 1-2 6-3 4 4 3 11-11 1-1a13 13 0 0 0-2-3l-1-1 79-77a1 1 0 0 0 1 0l2 3 2 1 32-29z"/>
    <path fill="#485654" stroke="none" d="M431 330h1l1-2 1-2-1-1 1 1-1 2-1 2h-1z"/>
    <circle fill="none" cx="438" cy="328" r="1"/>
    <circle fill="none" cx="434" cy="332" r="1"/>
    <path fill="#485654" stroke="none" d="M441 322a12 12 0 0 1-2-1 12 12 0 0 1 2 1z"/>
    <path d="M502 259l4 3-3-4-1 1z"/>
  </g>
  <use xlink:href="#b" transform="scale(-1 1) rotate(-3 -9 19640)"/>
  <g stroke="none" stroke-width="0">
    <path fill="#67923d" d="M434 365c-8-3-27 0-29 1 16 8 29 5 29-1zM523 369c8-4 27-1 29 1-16 8-29 4-29-1z"/>
    <path fill="#406325" d="M434 365c0 6-13 9-29 1 15 1 27 1 29-1zM523 369c0 5 13 9 29 1-15 1-28 0-29-1z"/>
  </g>
  <g id="c">
    <path fill="#b2b6ba" stroke="#485654" stroke-width="0" d="M508 360c-20-30-52-55-76-68 4 0 12 4 15 6 24 15 44 36 66 60l-4 3-1-1z"/>
    <path fill="#8c959d" d="M511 360l-2 1c-23-29-55-58-77-69 31 14 56 42 78 68h1z"/>
    <path fill="#485654" d="M511 360l-2 1a303 303 0 0 0-77-69l23 13a211 211 0 0 1 38 35l18 20za897 897 0 0 0-36-38 211 211 0 0 0-43-30 120 120 0 0 1 22 14 285 285 0 0 1 55 55l2-1z"/>
    <g fill="#fab81c" stroke="#6c301e" stroke-width="0">
      <path d="M518 355l-6 2c0 2-2 3-3 4l-1-1h-1l-1 1c-1 1 0 2 1 3l2 1 2-1 11 10c3 0 4-1 3-3h-1v-1c2-2 3-5 1-10-3-4-5-5-7-5h-1zm6 5l1 2c1 3 0 6-3 7l-1-1-2-2c1-1 0-2-1-1l-1-2-2-2v-1l3-3c3-1 5 1 6 3z"/>
      <path d="M525 363l-1-1 2-1v2h-1z"/>
      <path d="M525 362l-1-1 1-1 1 2h-1z"/>
      <path d="M524 361l-1-1 2-1v1l-1 1zM523 360v-2h1v1l-1 1zM522 359v-1-1s0 1 0 0h1v1l-1 1z"/>
    </g>
    <g fill="#fab81c">
      <path d="M511 364c1-2 2-4 4-4M512 364c1 0 3-1 3-3M513 365c1 1 3-1 4-2M514 367c2 0 3-1 4-3M516 368l3-2M517 370l4-2M519 371l3-2M521 373l3-2"/>
    </g>
    <g fill="#6c301e">
      <path d="M511 364a7 7 0 0 1 3-4h1-1l-1 1-2 3zM512 364h1l1-1 1-1v-1 1a5 5 0 0 1-2 2h-1zM513 365h2a6 6 0 0 0 2-2l-1 1-1 1h-1-1zM514 367h1l1-1 1-1 1-1-2 2-1 1h-1zM516 368h2a5 5 0 0 0 1-2v1l-1 1h-2zM517 370h1a5 5 0 0 0 2-1l1-1-1 1h-1l-2 1zM519 371a5 5 0 0 0 2 0l1-1v-1 1a4 4 0 0 1-3 1zM521 373h1v-1h1l1-1-2 1a3 3 0 0 1-1 1z"/>
    </g>
  </g>
  <use xlink:href="#c" transform="scale(-1 1) rotate(-3 -14 16471)"/>
  <g stroke="none" stroke-width="0">
    <path fill="#406325" d="M409 240c7-2 19-15 20-18-16 4-23 14-20 18zM555 245c-2-7-13-19-16-20 3 15 12 23 16 20z"/>
    <path fill="#67923d" d="M409 240c-3-4 4-14 20-18-11 9-20 16-20 18zM555 245c-4 3-13-5-16-20l16 20z"/>
  </g>
  <g stroke="none" stroke-width="0">
    <path fill="url(#d)" d="M452 318s-6 1-8-8 6-10 6-10l13-1 2 18-13 1z"/>
    <path fill="url(#e)" d="M453 315s-4 1-5-5c0-5 2-5 2-5l10 1v9h-7z"/>
    <path fill="url(#f)" d="M450 305l9-1 2 6h-7s-1-5-4-5z"/>
    <path fill="url(#g)" d="M449 300s8-1 9 7c0 2-1 7-5 8l14-1-1-15h-5l-12 1z"/>
    <path fill="#f9f0aa" d="M452 318l57-3c16-9 0-43-13-62 2-4-30-14-44-13l-5 1c-8 0-8 10-5 17 3 6 31 55 11 60h-1z"/>
    <path fill="url(#h)" d="M508 273l-12-20c2-4-30-14-44-13l-5 1c-8 0-8 10-5 17l8 15"/>
    <path fill="url(#i)" d="M455 285c6 15 9 30-2 33h-1l57-3c9-5 8-17 4-30"/>
    <path fill="url(#j)" d="M447 243c-3 0-4 4-4 6 0 6 4 6 4 6h6l3-12h-9z"/>
    <path fill="url(#k)" d="M447 244l9-1 1 9h-8s3-7-2-8z"/>
    <path fill="url(#l)" d="M496 253c7-1 7-10 2-13-15-1-36-1-50 1 1 0 6 0 6 6 1 3-1 6-3 7l-4 2 4-1h3c21-3 42-2 42-2z"/>
    <g fill="#b07e09">
      <path d="M458 267l-1-1h3s0 1 0 0l-1 1 2 3 1 1h1v-1l1 1h-1l-3 1h-1l1-1v-1l-2-3zM463 267v-1h-1 2c1 0 1 0 0 0v1l2 3v1h-2 1l-1-1-1-3zM468 268l1-1-1-1h-1l1 2zm0 1l1 1h1l-1-2h-1v1zm-2-2v-1h-1 3l2 1-1 1h1l1 1v2h-4l1-1-2-3zM474 265v1h1-1-1-1l1 2 1-1s-1 0 0 0v1l1 1-1-1h-1l1 2h2v-1 2h-3-1l1-1-1-1-1-3h-1v-1h4zM476 266h-1v-1h3l2 2-1 1 2 1v1h-1l-1-2h-1l1 2c1 0 1 1 0 0l-1 1-1-1s1 0 0 0l-1-3v-1zm2 1c0 1 0 0 0 0h1l-1-2-1 1v1h1zM485 269v1h-1-1 1l-1-2-1-3-1 1h-1v-1h5l1 1h-1l-1-1h-1l1 1 1 3zM488 268v1l1 1h-1-1l1-1v-1-4 1l4 4 1 1h-2c-1 0 0-1 0 0v-1l-1-1h-2zm2 0v-1l-2-1v2h2zM493 266l-1-1-1-1h2l2 1c2 0 3 1 3 3l-1 2h-2-1v-1l-1-3zm2 2v1h1l1-1-1-2-2-1h-1 1l1 3zM474 281l1 1h-1-2s0-1 0 0l1-1-1-1-1-2v-1h-1 1v-1l1 1 2 4zM474 276h3v1h-2v1h1l3 2v1l-2 1-1-1v-1 1h2l-1-2h-1-1v-1l-1-2zM481 277l-1-1h4l3 3-1 2h-4v-1l-1-3zm2 3l1 1h1v-1-2l-2-2h-1v1l1 3zM490 275v1h-1-1v1l1 1 1-1v2l-1-1v2h2v-1l1 1v1h-4v-1l-1-3-1-1 1-1h3zM462 290h1l3 2v1l-1 1h-2v-1l-1-1h1l1 2 1-1-1-1-2-1-1-2h1l2-1c0 1 0 0 0 0l1 1v1h-1l-1-1h-1v1zM469 288v1h0-2l1 2 1-1s-1 0 0 0l1 2-1-1h-1l1 2h1l1-1v2h-3-1l1-1-1-1-1-3-1-1h4zM473 292l1 1h0-2s0 1 0 0v-1l-1-3v-1h-1 3l2 1v1l-2 1v1zm0-2h1l-1-2h-1v1l1 1z"/>
      <path d="M479 292v1h-1-1l1-1v-1l-1-3h-1-1v1l-1-1h1l4-1 1 1v1h-1l-1-1v1l1 3zM481 289l-1-1v-1h2v3l1 2h1v1h-1-1l-1-1h1v-1l-1-2z"/>
      <path d="M487 287v1c0 1 0 0 0 0h-1-1v2l1-1h1v1h-1s-1 0 0 0v2h2v-1h1v1h-1l-3 1h-1l1-1v-1l-1-3h-1v-1h4z"/>
      <path d="M489 288l-1-1s-1 0 0 0h1l1 1 2 3v-1l1-3h1s1 0 0 0v1l1 3 1 1h-2-1l1-1-1-3v4h-1l-3-4v1l1 2 1 1s0 1 0 0h-2l1-1-1-3zM497 289h1l1-1-1-1h-1v2zm1 1v1h2l-1-1-1-1v1zm-2-2v-1h-1 3l2 1-1 1 2 1v2h-4c-1 0-1 0 0 0v-1l-1-3z"/>
      <path d="M501 288v-1h-1l1-1h2l2 2-1 1 1 1 1 1s1 0 0 0l-1 1v-1l-1-1-1-1v2h1v1h-2-1l1-1-1-3zm1 1h1l1-1-1-1h-1v2zM509 286l1 1v1l-1-1h-1c-1 0 0 0 0 0v2h1v-1l1 2h-1v-1h-1l1 2h1l1-1v2h-4v-1-1-3h-1l-1-1h4zM477 299l-1-1h-1 4l2 2v2l-2 1h-2c0 1-1 0 0 0v-2l-1-2zm1 3l1 1 1-1v-2l-1-2h-2v1l1 3zM485 297l1 1v1l-1-1h-2v1l1 1h1v-1 2l-1-1v2h2v-1l1 1v1h-4c-1 0 0 0 0 0v-1l-1-3v-1h-1 1l3-1zM492 301v1h1l-1 1h-2v-1h1v-1l-1-3h-1v-1h2l1 4zM495 298v-1l-1 1v1h1v-1zm1 3l-1-1-1 1 1 1h1v-1zm1 0v1h-2l-2-1 1-1-1-2 1-1 2 1v1l1 1v1zM500 301h1v-1 2h-1-2v-1l1-1 1-1-1-1-1-1v1h1l-1 1-1-1 1-1h1l2 1v1l-2 2h1zM504 301l1 1h0-2-1 1v-1-1-2l-1-1h-1 1l1-1v1l1 4z"/>
    </g>
  </g>
  <g fill="#448127" stroke="none" stroke-width="0">
    <path fill="url(#m)" d="M476 219l-4 5c-1 5 2 9 8 13 4 2 13 3 16 1l-14-13-6-6z"/>
    <path d="M504 354l-2-2c-9 11-20 21-33 28 15-4 25-15 35-26zM488 390c5-11 12-22 18-32l-2-3c-7 12-16 27-16 35zM530 275l-4-13-12-16c-10-11-19-20-32-28h1l-1-1h1-1 1v-2h1l-1-1h1-1v-2h-1v-1l-1 1 1-1h-1v-1l-1 1v-1 1-1l-1 1v-1 1l-1-1v1-1 1-1l-1 1v-1 1-1l-1 1v-1 1-1 1h-1v1l-1-1 1 1h-1v1l-1 4h1v1c-1 3-3 5-3 8 1-2 3-4 5-4-1 2-2 6-1 7l1-1v2l1-2 1 3 2-1-1 3 2-3 1 5 1-4v5l2-2v4l2-2c0 2 1 2-1 3h4l-1 2 3-2c0 1-2 3-1 4l2-2-1 3c2 0 3-2 5-3-1 1 0 2 1 4 0-2 0-2 2-3l3 6-1-5 2 5 1-4 2 5 1-3c20 21 24 47 2 75 8-6 10-14 14-21-4 9-6 20-13 27 7-6 9-11 13-17-5 12-11 26-20 38l5 5 4-6c9-16 25-38 17-72z"/>
  </g>
  <path fill="#eac102" d="M473 215l-2 2h3v-2h-1z"/>
  <path fill="#a08307" d="M471 217a10 10 0 0 1 2-1 10 10 0 0 1-2 1z"/>
  <ellipse cx="478" cy="215" rx="1" ry="1"/>
  <g fill="#34541f">
    <path d="M488 390a83 83 0 0 1 8-18 200 200 0 0 1 7-12l2-4-2 4a407 407 0 0 0-15 30zM469 380a76 76 0 0 0 30-23 153 153 0 0 0-11 12 70 70 0 0 1-19 11zM507 351l2-3a136 136 0 0 0 10-18l3-7-1 4-2 3a256 256 0 0 1-12 21zM513 326a58 58 0 0 0 8-14 73 73 0 0 0 6-23 54 54 0 0 0-1 8 73 73 0 0 1-9 22l-4 7z"/>
    <path d="M511 320l5-6a52 52 0 0 0 7-13l1-4v-1l1-1v-2a42 42 0 0 0 0-15 58 58 0 0 0 1 8l-1 7v2l-1 1v1a229 229 0 0 1-8 17l-5 6z"/>
    <path d="M505 349l4-5 1-2 2-3 3-5 3-6a145 145 0 0 0 8-23l2-12a58 58 0 0 0-3-24 73 73 0 0 0 3 12v12a131 131 0 0 1-5 24l-5 11-3 6-3 5-2 3-1 2-4 5z"/>
    <path d="M508 352a443 443 0 0 0 18-36 74 74 0 0 0 3-13 103 103 0 0 0 0-27 73 73 0 0 1 0 27 134 134 0 0 1-3 13l-5 13a198 198 0 0 1-13 23zM480 221h1a14 14 0 0 1 4 1l5 3a36 36 0 0 1 5 4 38 38 0 0 0-10-7 19 19 0 0 0-5-1z"/>
  </g>
  <g fill="#448127">
    <path d="M496 232l5 4s-5-1-8-5"/>
    <path fill="#34541f" d="M496 232a14 14 0 0 1 5 4 15 15 0 0 1-4-2c-2 0-3-1-4-3a15 15 0 0 0 6 4l2 1a11 11 0 0 0-2-2 18 18 0 0 0-3-2z"/>
    <path d="M490 231l8 5s-2-4-5-5"/>
    <path fill="#34541f" d="M490 231l4 2a157 157 0 0 0 3 2l1 1a11 11 0 0 0-2-3 11 11 0 0 0-3-2 8 8 0 0 1 3 2 11 11 0 0 1 2 3l-2-1a153 153 0 0 1-6-4z"/>
    <path d="M492 228s4 2 5 5c0 0-7-3-8-5"/>
    <path fill="#34541f" d="M492 228a11 11 0 0 1 3 2l1 1 1 2a77 77 0 0 1-7-4l-1-1 1 1 1 1a36 36 0 0 0 6 3l-1-2-1-1a11 11 0 0 0-3-2z"/>
    <path d="M487 231l8 5-5-5"/>
    <path fill="#34541f" d="M487 231a124 124 0 0 0 8 5 12 12 0 0 0-2-3 13 13 0 0 0-3-2 11 11 0 0 1 4 3l1 2h1-1-1l-1-1a33 33 0 0 1-6-4z"/>
    <path d="M487 233l5 3s-2-4-5-5"/>
    <path fill="#34541f" d="M487 233a32 32 0 0 0 4 2l1 1a12 12 0 0 0-2-3 13 13 0 0 0-3-2 11 11 0 0 1 4 3l1 2-1-1a11 11 0 0 1-3-1l-1-1z"/>
    <path d="M485 226s7 5 8 8l-8-4"/>
    <path fill="#34541f" d="M485 226a52 52 0 0 1 8 7v1l-1-1-1-1a29 29 0 0 0-4-4l-2-2z"/>
  </g>
  <g stroke="none" stroke-width="0">
    <path fill="#406325" d="M445 370c-5 4-19 6-20 5 10-8 19-8 20-5zM515 375c5 5 21 8 23 7-10-11-22-12-23-7z"/>
    <path fill="#67923d" d="M445 370c-1-3-10-3-20 5l20-5zM515 375c1-5 13-4 23 7-12-5-22-8-23-7z"/>
  </g>
</svg>
