<svg version="1" xmlns="http://www.w3.org/2000/svg" width="820" height="440">
  <path fill="#c62139" d="M0 0h820v440H0z"/>
  <path fill="#00297b" d="M20 20h780v400H20z"/>
  <path fill="#c62139" d="M410 100s-80 55-80 119c0 65 80 121 80 121s80-52 80-121-80-119-80-119"/>
  <path fill="#66afeb" d="M478 241c2-7 3-14 3-22 0-62-71-108-71-108s-71 48-71 108c0 7 1 15 3 21l136 1"/>
  <path fill="#007bde" d="M410 328s55-36 68-88H342c13 51 68 88 68 88"/>
  <path fill="#9c8431" d="M480 226c-12 9-80 5-80 5l-4 10h82l1-4 1-11"/>
  <g fill="#fff100">
    <path d="M406 287c-1-7-33-15-50-14l18 23c8-10 32-6 32-9"/>
    <path d="M470 261c-4 0-11 0-16 3-7 4-23 8-31 6-7-2-18 4-17 6 2 2 19-1 19 14 0 12-19 7-27 12l-9 9c11 11 21 17 21 17s22-14 41-38l9-12c4-6 8-11 10-17"/>
  </g>
  <g fill="#009270">
    <path d="M406 165s-11-6-26-3-18 12-18 12l5-2v2l4-3v2l4-3 1 2 3-3 1 2 5-4v2l5-2v2l8-1s-20 7-23 23l4-5 1 2 2-5 1 2 2-4 1 2 3-4v2l4-5v3l4-5v4l5-4-4 6 1 1-4 3h3l-3 4h2l-4 5h2l-2 5c0 2 2 0 2 0l1 7 2-8 2 2v-6l1 1v-4l1 1-1-5 2 2v-4l1 2v-6l2 2v-4l2 1s0-5 2-4c2 0 5 2 4 3l2-1-1 5 2-1v3l1-1v4l1-1 1 5 1-1v6l2-2v5l2-1 2 5v-7l1 1-2-5h1l-2-4h2l-3-3h2l-4-3 2-1-4-3 2-1-3-3 3 1 1-2 4 3v-3l3 5 1-3 2 4 1-2 1 4 1-3 2 4 1-3 1 4 2-1 1 4 1-2 2 4 1-1 2 4s4-23-32-24l-11-2"/>
    <path d="M389 144l2 3-1 1 4 2-1 1 3 1-1 1 3 2-2 1 4 2-1 1 3 1-1 1 4 3 4 3 3-1-1-6s-12-16-22-16"/>
    <path d="M400 128l2 3-2 1 4 4h-3l4 4h-2l4 4-2 1 4 4-3 1 5 4h-3l3 4-3 1s3 5 3 8h5v-17l-1 1v-6l-2 2v-7l-2 2v-6l-2 2-1-6-2 2-1-4-1 1-4-3"/>
    <path d="M413 166c2-9 11-23 29-23l-4 2 2 1-4 2 2 1-6 1 3 1-4 1-3 1 2 2h-4l3 2-8 3s24-6 31 6l-5-2v2l-3-3v2l-3-2v3l-3-3v2l-4-2 1 2-4-1v2h-4v3l-12-1-2-2"/>
  </g>
  <g fill="#7b4800">
    <path d="M410 173h2c-1 25 0 60 3 73 6 22 23 31 27 33 2 1 1 6-3 6-5 0-21-12-26-33-7-27-4-76-3-79"/>
    <circle cx="414" cy="168" r="3"/>
    <circle cx="409" cy="167" r="3"/>
    <circle cx="409" cy="172" r="3"/>
    <circle cx="413" cy="171" r="3"/>
  </g>
  <g fill="#7b4800">
    <path fill="#000" d="M385 257h3v-31h-3v31z"/>
    <path d="M394 263l-3 1v-3h-2v3a70 70 0 0 1-14 0v-3h-3v2h-3s0 3 13 3 12-3 12-3"/>
    <path d="M382 257c10 0 19-2 19-2s2 7-19 7-20-6-20-6l20 1"/>
    <path fill="#fff" d="M373 227s16 7 23 28c0 0-15-3-24 1h-5s8-12 6-29"/>
  </g>
  <g fill="#c62139">
    <path d="M375 211h-3l-2-3h-2l-3 2-1 5 2 5 2 2 3-2 1-3h-3v-3h6v10h-2v-2l-2 2-3 1c-2 0-4-1-5-3l-2-7 2-8 5-2c2 0 4 0 5 2l2 4M390 217v-12h3v15c1 1 1 2 3 2l2-2v-15h4v12l-1 5c-1 2-3 3-5 3-3 0-5-1-6-3v-5M423 205l-5 19h3l1-4h6l1 4h3l-5-19h-4zm2 5l2 7h-4l2-7zM452 220l2-15h5v19h-3v-13-1-2l-3 16h-3l-3-16v16h-3v-19h5l3 15"/>
  </g>
</svg>
