<svg version="1" xmlns="http://www.w3.org/2000/svg" xmlns:xlink="http://www.w3.org/1999/xlink" width="900" height="600">
  <path fill="#de2910" d="M0 0h900v600H0z"/>
  <g id="a">
    <path d="M450 300c-105-45-59-182 42-175-20 11-23 30-12 48 13 21-1 53-18 61-29 13-35 48-12 66z" fill="#fff"/>
    <path d="M444 201l-6 9-2-11-10-2 9-6-1-11 9 8 10-4-5 10 7 8zM451 299c-13-7-23-20-28-37-5-18-2-38 8-55l-2-1a72 72 0 0 0-8 57c4 17 15 31 28 38z" fill="#de2910"/>
  </g>
  <use xlink:href="#a" transform="rotate(72 450 300)"/>
  <use xlink:href="#a" transform="rotate(144 450 300)"/>
  <use xlink:href="#a" transform="rotate(216 450 300)"/>
  <use xlink:href="#a" transform="rotate(288 450 300)"/>
</svg>
