<svg xmlns="http://www.w3.org/2000/svg" xmlns:xlink="http://www.w3.org/1999/xlink" width="1200" height="600">
  <path fill="#171796" d="M0 0h1200v600H0z"/>
  <path fill="#fff" d="M0 0h1200v400H0z"/>
  <path fill="red" d="M0 0h1200v200H0zM600 455c64 0 117-52 117-116V200H483v139c0 64 53 116 117 116z"/>
  <path fill="#fff" d="M600 453c63 0 114-51 114-114V202H486v137c0 63 51 114 114 114z"/>
  <g fill="red">
    <path d="M534 207h-44v48h44zM534 303h44v-48h-44zM490 339l1 13h43v-49h-44v36zM622 303h-44v49h44zM622 400h44v-48h-44zM666 426c10-7 18-16 25-26h-25v26zM534 400h44v-48h-44zM509 400c7 10 15 19 25 26v-26h-25zM608 448l14-2v-46h-44v46a109 109 0 0 0 30 2zM709 352l1-13v-36h-44v49h43zM622 303h44v-48h-44zM622 207h-44v48h44zM710 255v-48h-44v48z"/>
  </g>
  <g>
    <path fill="#fff" d="M712 199l28-62-21-34-34 13-25-28-32 18-28-23-28 23-32-18-24 28-35-13-21 34 28 62a272 272 0 0 1 224 0z"/>
    <path fill="#0093dd" d="M516 119l-34-13-19 31 7 16 19 43c14-7 28-12 43-15l-16-62z"/>
    <path fill="#fff" stroke="#000" stroke-width=".34928" d="M514 149c2 2 2 5 2 8a17 17 0 0 1-33 3 17 17 0 0 0 31-11z"/>
    <path d="M499 126l-1 6 4 4h1l-1 1-5 2-2 6-5-4-5 2h-1v-1l2-6-5-4 6-2 1-6 5 4 6-2z"/>
    <g fill="#f7db17">
      <path d="M492 134l4 4 6-2z"/>
      <path d="M492 134l10 2-5-4zM482 132l9 2-4-4zM491 134l-9-2 4 4zM492 134l6-7-5 1zM485 142l6-7-5 1zM492 135l-7 7 5-2z"/>
      <path d="M499 127l-7 7 5-2zM491 134l-3-9-1 5zM495 144l-3-9-1 5z"/>
      <path d="M492 135l3 9 1-6zM488 125l4 9 1-6z"/>
    </g>
    <path fill="#171796" d="M572 109l-32-18-24 28 16 62c15-4 30-7 45-8l-5-64z"/>
    <g fill="red">
      <path d="M528 165c16-4 32-6 48-8l-1-16c-18 2-35 4-51 9l4 15zM520 134c17-4 35-7 53-9l-1-16c-19 2-38 5-56 10l4 15z"/>
    </g>
    <g transform="scale(.00296)">
      <path fill="#0093dd" d="M212105 36890l-23 13-9517-7794-9497 7778 1788 21560c2543-210 5113-322 7709-322 2608 0 5190 113 7744 325l1795-21560z"/>
      <g id="a">
        <path d="M202545 46585c-18-2-44 10-69 45-186 250-359 469-545 720-195 61-242 180-167 348-261-26-291 193-302 432-250-379-522-482-814-307-11-230-187-338-439-392a829 829 0 0 1-436-145c-60-42-110-64-170-106-126-88-226-5-172 74l802 1302c-14 80 6 151 88 204l140 397-32 113c-221-105-443-118-664-133-170-8-287-50-361-137-54-63-91-26-92 82-3 534 162 1014 599 1492-231 4-462 11-694 21-79 6-95 39-73 104 126 304 339 579 822 766a654 654 0 0 0-357 520c-9 224-75 382-212 455-60 32-81 65-24 106 253 185 565 193 895 112a1398 1398 0 0 0-198 850c208 56 412 15 614-52-29 61-44 175-52 309-7 115-41 229-104 343-32 33-65 84 4 102 336 91 648 52 915-47 0 243 2 487 76 727 18 58 70 102 125 26 155-214 322-396 527-517 31 90 75 168 156 215 96 55 147 170 153 343 0 30-2 60 35 90 149 7 514-380 589-597 206 121 284 246 439 461 55 76 99 29 128-25 62-243 67-481 66-724 267 99 579 138 915 47 69-19 36-70 4-102a947 947 0 0 1-113-365c-9-133-14-226-43-287 202 68 405 108 614 52 29-297-53-579-211-850 330 80 655 73 908-112 57-41 35-74-24-106-136-73-203-231-212-455a652 652 0 0 0-357-520c483-187 696-463 822-766 22-66 6-99-73-104-231-10-480-24-711-27 437-478 606-961 604-1495-1-108-38-146-92-82-74 87-179 137-348 146-222 15-435 24-656 128l-32-113c46-132 106-260 153-393 82-53 102-123 88-204 267-434 513-868 781-1302 54-79-46-162-171-74-60 42-110 64-170 106a841 841 0 0 1-437 145c-251 54-417 167-428 397-293-175-564-73-814 307-11-239-41-457-302-432 75-168 17-291-178-352-186-250-458-470-644-720-31-35-51-47-69-45z"/>
        <g fill="#f7db17">
          <path d="M205075 47978c-51-26-124 17-162 95s-33 170 19 196c40 20 84-6 119-56l22-36 5-9c38-78 49-163-2-188zM200067 47978c52-26 124 17 162 95s39 165-13 191-103-24-141-102-60-158-9-184zM204606 48883c-32 0-59 27-59 59a59 59 0 0 0 118 0c0-32-26-59-59-59zM200574 48883a59 59 0 1 0 0 118 59 59 0 0 0 0-118zM204868 48579c-754-91-1506-133-2260-133s-1509 41-2269 115c-26 8-21 90 14 86 756-73 1507-113 2256-113 743 0 1485 40 2228 129 39 4 54-80 32-84z"/>
          <path d="M200319 48495c768-75 1530-117 2289-116 754 0 1507 42 2261 133l111-184c-32 10-62 9-90-5-76-38-92-161-36-274 56-114 164-175 240-138 39 19 62 62 68 114l446-739c-204 130-328 214-581 252-281 41-409 139-368 307 38 156-57 133-201 54-314-171-541 71-652 353-73 186-159 181-168-13-4-70 0-131-7-200-21-223-89-286-216-224-161 78-175 25-137-58 28-60 86-128 66-221-9-67-66-92-151-98-182-244-467-483-649-727-182 244-374 483-556 727-86 5-142 30-152 98-20 93 52 157 80 217 38 82 23 135-137 57-127-61-186-3-207 220-7 69-10 139-13 209-9 194-95 199-168 13-111-282-352-524-667-353-145 79-203 102-182-54 23-172-107-266-388-307-253-37-377-122-581-252l419 682c12-25 29-45 53-57 76-38 184 24 240 138 56 113 40 237-36 274-10 5-21 8-32 10l100 163zM204708 49406l-24 11c-46 19-80 66-134 124-57 60-128 125-211 188-12 10-25 19-44-6s-7-35 6-44c80-62 149-124 204-182 30-32 56-63 77-92l-284-30c-79 24-157 55-222 95-59 35-107 77-137 125-8 14-16 27-44 11-27-16-19-30-11-44 35-58 91-107 158-147 33-20 69-38 106-54-107-9-214-18-321-25a414 414 0 0 0-117 114c-9 13-18 26-44 8s-18-31-8-44c19-29 41-54 64-77l9-9-241-14-8 7a338 338 0 0 0-93 126c-6 15-12 29-41 18-29-12-23-26-17-41 12-29 27-55 45-81l27-33-344-12c-4 5-9 8-14 11a292 292 0 0 0-114 114c-8 14-16 28-43 12-28-16-20-29-12-43 16-28 35-54 59-77l21-19c-122-2-244-4-365-4l-360 3 22 20c23 23 42 49 59 77 8 14 16 27-12 43s-35 2-44-12a292 292 0 0 0-114-114c-6-3-12-7-15-12-115 2-230 6-345 11a357 357 0 0 1 74 116c6 15 12 29-17 41s-35-3-41-18a338 338 0 0 0-103-136l-243 13 13 12c24 23 45 48 64 77 9 13 18 26-8 44s-35 5-44-8a423 423 0 0 0-120-116l-5-3c-110 7-220 14-330 23 43 18 85 38 122 61 67 40 124 89 158 147 8 14 16 27-11 44-27 16-35 3-44-11-29-48-78-90-137-125-72-44-159-77-246-102h-2c-90 7-179 15-268 24 22 33 51 68 86 106 55 58 124 120 204 182 13 9 25 19 6 44s-32 15-44 6c-83-64-155-128-211-188-37-38-99-111-135-140-196-90-354-127-575-147-153-14-318-9-458-79 36 85 75 164 126 229 53 68 120 121 209 147 8 2 21 16 22 25 28 157 84 286 169 386 52 60 114 110 188 149a996 996 0 0 1-172-251 800 800 0 0 1-77-420c1-16 3-32 34-29 32 3 30 19 29 35-11 123 9 256 72 387 56 118 159 237 291 346 24 19 0 63-29 55a788 788 0 0 1-383-231 846 846 0 0 1-180-397c-94-32-165-90-222-164-47-60-85-131-118-205 28 428 182 801 456 1137 61 75 165 182 255 216 92 35 95 100-20 101l-105 1c84 31 164 66 233 105 127 73 217 162 224 273 1 16 2 32-29 34-32 2-33-14-34-29-6-86-82-160-192-223-113-65-259-117-402-160-154 0-312-1-459 3 39 28 80 57 131 84 82 44 188 86 343 122 89 21 166 52 233 91 71 42 130 93 177 150 10 12 20 25-5 45s-34 8-45-5c-42-52-95-98-159-135-61-36-133-64-216-84-161-38-272-81-358-128-75-40-131-82-184-123 180 393 450 573 835 689l61 19 9 2c86 21 175 40 266 55 92 15 166 28 261 37 16 1 32 3 29 34-3 32-19 30-34 29a4316 4316 0 0 1-437-71c-26 6-64 9-107 12-232 14-420 225-435 494l-1 16c88-80 179-157 273-212 117-68 239-103 364-69 15 4 31 8 22 39-8 31-23 27-39 22-106-28-212 3-316 63-108 63-213 158-315 253a563 563 0 0 1-205 377c61 34 104 65 163 45 86-39 172-78 261-108 91-31 184-52 282-57 16-1 32-1 33 31s-14 32-31 33c-91 4-179 24-264 53-75 26-149 58-222 91 221 47 460-1 667-79 60-22 105-42 133-41 51-30 112-53 172-79 66-28 132-51 182-57 16-2 32-4 35 28 4 32-12 33-28 35a394 394 0 0 0-222 79c0 21-66 57-126 96-36 24-70 52-87 67a741 741 0 0 0-188 287c-29 70-52 145-68 224 55-108 121-211 201-303 94-108 208-201 345-265 14-7 29-13 42 15 13 29-1 35-15 42a956 956 0 0 0-324 250c-90 103-161 222-219 345-31 64-8 1-42 86 110-122 212-224 323-307 132-100 283-157 418-133 15 3 31 6 26 37s-21 28-37 26c-116-21-250 32-369 121-121 92-244 223-366 361 184 26 366-26 542-85 91-30 183-135 239-152a1327 1327 0 0 1 159-167c12-10 24-20 45 4s8 34-4 45c-33 28-65 60-96 94-32 35-62 73-92 113-6 8-13 17-24 16-60 70-151 162-172 240-57 210-25 370-122 576 71-38 128-81 175-134 53-60 94-135 128-230a720 720 0 0 1 428-442c15-5 30-11 41 19s-4 35-19 41a678 678 0 0 0-391 404 743 743 0 0 1-141 250c-44 50-95 91-156 127 52-3 78-10 121-7 79-6 211-66 279-119 66-51 116-120 154-206 6-15 13-29 42-16s23 27 16 42c-42 96-99 174-173 231-56 43-121 75-196 93 161-5 311-42 467-100 65-24 87-168 127-208 32-58 66-112 105-158 47-56 101-101 164-127 15-6 29-12 41 18 12 29-3 35-17 41-52 21-98 60-139 108-36 42-68 93-98 147 10 73-51 228-53 305-7 205-2 409 53 612 53-71 107-134 162-192l1-15c18-106 33-219 40-332 7-112 7-223-6-329-2-16-4-32 27-35 32-4 34 12 35 28 14 111 14 226 7 340-6 90-16 180-30 269 54-51 53-51 77-103a743 743 0 0 0 54-467c-4-15-7-31 24-38s35 8 38 24c19 80 25 165 14 252-8 65-24 132-49 199 56-42 114-82 178-122-4-75-5-153-3-227 2-68 7-134 18-190 4-20 7-40 47-33s37 27 33 48c-9 50-14 111-16 177-2 78 0 162 4 243 5 82 49 185 125 230a425 425 0 0 1 186 274c16-145 17-280 3-400a949 949 0 0 0-114-368c-8-14-16-27 12-44 27-16 35-2 43 12 63 110 104 241 122 393 17 146 13 310-13 488 102-82 381-258 352-594-7-27-16-52-28-75-7-14-14-28 14-42s35 0 42 14a446 446 0 0 1 50 186c13-7 45-43 51-39l80 54a729 729 0 0 1-28-430c4-15 7-31 38-24s27 23 24 38c-18 73-22 151-13 230 9 77 31 157 67 237 4 8 8 16 5 25 24 21 47 42 70 65-13-84-22-170-28-255-8-115-7-230 7-341 2-16 4-32 35-28s29 20 27 35c-13 106-13 217-6 329a3204 3204 0 0 0 41 339c54 59 95 120 152 196 55-203 73-407 66-612-2-76-69-227-65-302-30-55-63-107-100-151-41-49-87-87-139-108-15-6-29-12-18-41 12-29 27-24 41-18 62 26 117 71 164 127 38 45 72 98 103 154 57 7 78 179 143 212 154 57 298 94 453 100a519 519 0 0 1-368-324c-6-15-13-29 16-42s35 2 42 16c38 86 88 156 154 206 85 66 289 124 400 127a661 661 0 0 1-298-378c-34-95-87-179-153-247a642 642 0 0 0-238-157c-15-6-29-11-19-41 11-29 26-24 41-19 96 36 186 94 261 172 72 74 130 166 167 270 34 95 75 169 128 230 47 54 105 98 177 135-98-207-66-367-122-577-35-129-232-277-193-320 45-51 133 88 248 127 175 59 357 111 540 85a2690 2690 0 0 0-366-361c-119-90-237-140-352-120-16 3-31 6-37-26-5-31 10-34 26-37 135-24 269 32 401 132 111 84 201 175 311 298-18-47 0-14-30-77-59-123-130-241-220-345-89-102-196-189-324-250-14-7-28-13-15-42 13-28 28-22 42-15 137 65 251 157 345 265 81 93 147 198 203 307-15-81-39-157-68-227a741 741 0 0 0-188-287c-62-56-209-140-208-179-29-15-33-11-63-24-61-26-121-46-164-52-16-2-32-4-28-35 4-32 19-30 35-28 50 6 115 28 182 56 33 14 66 43 98 60 53 4 139 47 208 74 206 78 446 126 666 79-73-33-147-65-223-91-85-29-172-49-264-53-16-1-32-1-31-33s17-31 33-31c98 4 191 26 282 57 89 30 175 69 261 108 59 27 101-7 163-45a563 563 0 0 1-205-376l-2-2c-102-95-207-190-315-253-104-60-210-91-316-63-15 4-31 8-39-22-8-31 7-35 22-39 125-33 247 1 364 69 94 55 186 132 274 213l-1-17c-15-270-203-480-435-494-78-5-189 21-186-32 4-59 97-44 234-86 385-116 655-296 836-690-54 41-110 83-186 124-86 47-198 91-358 128-82 19-154 48-216 84-64 38-117 84-159 135-10 12-20 25-45 5s-14-32-5-45c47-57 106-108 177-150 67-39 145-70 233-91 155-36 261-78 343-122 51-27 92-55 131-84-148-4-305-3-459-3-143 44-289 96-402 160-110 63-186 136-192 223-1 16-2 32-34 29-32-2-31-18-29-34 8-111 97-200 224-273 69-39 149-74 233-105l-104-1c-116-2-112-66-20-101 90-34 190-141 251-216 271-334 412-714 456-1130-33 72-69 140-115 198a479 479 0 0 1-222 164 846 846 0 0 1-180 397 750 750 0 0 1-369 230c-29 8-52-35-29-55 132-109 221-226 278-344 62-131 83-264 72-387-1-16-3-32 29-35 31-3 33 13 34 29 12 134-10 278-78 420-40 85-97 170-172 251 73-39 136-89 187-149a811 811 0 0 0 170-386c1-8 14-22 22-25 89-27 155-79 209-147 51-65 90-143 126-228-140 69-304 64-457 78-213 19-369 68-554 152z"/>
          <path d="M204649 49231c-680-88-1359-113-2041-114-684 0-1369 40-2058 112-20 6-15 33-14 46 2 28 37 35 121 27 643-60 1285-93 1932-93 674 0 1351 21 2038 102 33 9 77-85 22-81z"/>
          <path fill-rule="evenodd" d="M200570 49160c683-71 1362-110 2038-110 675 0 1349 40 2025 127l31-127c-17 9-37 15-58 15a123 123 0 1 1 113-171l60-170c-724-84-1446-122-2171-122-729 0-1459 38-2193 107l58 164a123 123 0 1 1 65 186l33 94-2 7zm3067-416a123 123 0 1 0 0 246 123 123 0 0 0 0-246zm0 64a59 59 0 0 0 0 118c32 0 59-27 59-59s-26-59-59-59zm-1082-91a123 123 0 1 0 0 246 123 123 0 0 0 0-246zm0 64a59 59 0 1 0 0 118 59 59 0 0 0 0-118zm-1064-40a123 123 0 1 0 0 246 123 123 0 0 0 0-246zm0 64c-33 0-59 26-59 59s26 59 59 59a59 59 0 0 0 0-118z"/>
        </g>
        <path d="M202601 47974c-14-68-49-129-100-175-51-47-116-78-187-88-33-4-39-58-7-68 60-20 114-67 157-133 45-69 79-157 95-256 5-34 64-35 69-1 15 84 51 153 97 208 55 66 125 112 193 138 31 12 25 63-8 68-59 9-105 42-141 87-50 62-81 145-100 221-8 33-62 31-69-2zm33-118c20-52 47-103 81-146 28-34 60-64 99-84a543 543 0 0 1-216-236c-19 59-45 112-75 158-31 47-67 86-108 116a400 400 0 0 1 219 192zM203433 52971l-515 206c-17 7-35 14-48-21-14-34 4-41 21-48l515-206c17-7 35-14 48 21 14 34-4 41-21 48zm59-326l-604 328c-16 9-33 18-51-15s-1-42 15-51l604-328c16-9 33-18 51 15s1 42-15 51zm-1826-65l604 328c16 9 33 18 15 51s-34 24-51 15l-604-328c-16-9-33-18-15-51s34-24 51-15zm51 322l515 206c18 7 35 14 21 48-14 35-31 28-49 21l-515-206c-17-7-34-14-21-48 14-35 31-28 48-21zm224 434c137 33 261 48 358 31 88-16 155-60 191-146v-493c-107-1-212-15-303-41a287 287 0 0 1-201-178 577 577 0 0 1-4-329c5-18 9-36 45-27s32 27 27 45c-20 82-33 194 1 284 23 60 69 110 152 133 91 25 198 38 307 38 107 0 214-13 304-40 82-24 148-69 192-123s65-117 57-176c-5-36-24-62-49-80-34-24-82-35-128-37-47-2-94 7-142 16l-77 13c-19 2-37 5-42-32s14-40 32-42l73-12c52-10 105-20 159-18 60 2 121 18 168 51 42 29 72 72 80 131 11 80-16 163-73 233a455 455 0 0 1-229 147c-83 24-178 38-274 42v483c3 5 3 11 2 16 37 82 102 125 188 141 97 18 221 2 358-31 18-5 36-9 45 27 8 37-9 41-28 45a998 998 0 0 1-388 32c-92-17-165-58-215-132a314 314 0 0 1-215 132c-109 20-242 4-388-32-18-4-37-8-28-45 8-36 27-32 45-27zm356 210l402-9c19 0 38-1 38 37 1 38-18 38-37 38l-402 9c-19 0-37 1-38-37s18-38 37-38zM202890 50464c151-125 293-227 423-297a714 714 0 0 1 359-106c19 1 37 1 36 39-1 37-20 37-39 36-92-4-200 32-322 97-125 67-263 166-410 289-14 12-29 24-53-5s-9-41 5-53zm-605 56a2015 2015 0 0 0-445-314c-139-71-268-108-363-100-19 2-37 4-40-34-4-37 15-39 34-40 110-10 252 31 404 107 152 77 315 191 461 325 14 13 28 25 2 53-25 27-39 15-53 2zm-213 1004c37-83 83-155 136-219 53-63 112-119 174-170 14-12 29-24 52 5 24 29 9 41-5 53-59 48-114 101-164 160-49 59-91 125-125 201-8 17-15 34-49 19s-27-32-19-49zm371-1734c49 66 88 139 114 223 26 82 40 175 39 279 5 80 6 165-7 249-13 86-42 170-97 246a286 286 0 0 1-329 106c29 100 51 208 6 308-8 18-33 27-51 18-43-22-86-43-128-62s-84-36-127-51l-1-1c-95-37-173-73-236-112-65-39-115-80-150-124l1 2c-44-49-72-106-88-170-14-55-20-114-22-174-72-39-138-78-194-116-64-43-118-87-161-131-13-14-26-27 1-53s40-12 53 1c39 40 89 80 150 121 60 40 128 81 204 121 124 13 247 51 370 109 106 50 211 115 317 192 13 7 19 16 27 20l25 19c51 22 104 28 152 16 47-11 90-39 122-84 48-66 72-139 84-214 12-77 11-157 6-234v-2c1-97-12-183-35-258-24-76-58-142-102-201-11-15-22-30 7-52s41-7 52 7zm-375 1047c-104-77-207-141-311-190-105-49-210-83-314-98 2 48 8 93 18 135 13 52 35 99 71 138l1 1c30 37 73 72 130 107 60 36 134 71 225 106l-1-1a1683 1683 0 0 1 226 98c19-83-10-179-37-267l-9-29zm776-1003c-44 59-79 125-102 201-24 76-36 161-35 258v2c-5 77-6 158 6 234 12 75 37 148 84 214 32 45 75 72 122 84 48 12 101 6 152-16l25-19c6-4 13-12 27-20 105-77 211-143 317-192 123-58 246-95 370-109 75-40 144-80 204-121s111-81 149-121c13-13 26-27 53-1s14 39 0 53c-43 44-97 88-161 131-57 38-122 77-194 116-2 61-8 119-22 174-16 63-44 121-88 170l1-2c-35 44-85 85-150 124-63 38-141 75-237 112l-1 1a2498 2498 0 0 0-255 113c-18 9-43 0-51-18-45-100-23-208 6-308-55 18-111 20-164 7-64-15-122-53-165-113-55-76-84-160-97-246-13-85-12-169-7-249-1-104 13-196 39-279 26-84 65-158 114-223 11-15 22-30 52-7 30 22 19 37 7 52zm940 715c-105 15-209 49-314 98-104 49-207 113-311 190l-8 29c-27 88-56 184-37 267l93-44c44-20 87-38 133-54l-1 1c91-35 165-70 225-106 58-34 100-70 131-107l1-1c35-39 57-86 71-138 11-42 16-87 19-135z"/>
        <path fill-rule="evenodd" d="M203459 50602a216 216 0 1 0 1 433 216 216 0 0 0-1-433zm0 69a147 147 0 1 0 0 294 147 147 0 0 0 0-294zm0 60a87 87 0 1 0 0 174 87 87 0 0 0 0-174zm-1697-124c119 0 217 97 217 216s-97 217-217 217a217 217 0 0 1 0-433zm0 69a147 147 0 1 1 0 294 147 147 0 0 1 0-294zm0 60a87 87 0 1 1 0 174 87 87 0 0 1 0-174z"/>
      </g>
      <use xlink:href="#a" transform="rotate(-2 -55533 156276)"/>
      <use xlink:href="#a" transform="rotate(2 459866 156276)"/>
    </g>
    <g>
      <path fill="#171796" d="M684 119l-24-28-32 18-5 64c15 1 30 4 45 8l16-62z"/>
      <path d="M634 123h4l1 1 1-1 2-2 4-1h3l3 1 3 1 2 2a11 11 0 0 0 6 0v1c-4 2-7 0-10-1l3 2 4 3a10 10 0 0 0 7 1v1l-3 1-7-2-4-3-4-2h-3v1h3l-1 1-2 1h-2v3l1 1 1 1 1 1 1 1 1 1h3l3 2h1l2-1h3l1 1h8l1 1-2 1-1 1c1 1 0 2-1 2l-1 1-1 2v5l-1 1v1l-1 1v1l-2 1-2 3-2 1v2l-1 1h-3v-1l-1-1h1l1-1 2-2 2-1 1-2-1-1v-1h-1l-1-1-1 1-1 1-1 1-2 2-1 1v1h-1v1h-3l-1-1v-1h1l2-2h1l1-2 1-1-1-2h-2-1-2l-1 1-1 2v2h-1v1l-1 1v2l-1 1h-1l-1-1h-1v-1l1-1h1l1-1 1-2v-1-2-2-1h-1v1l-1 2-1 1v2h-1v1l-2 1-1-1v-1l2-2 1-2v-2l1-1v-1-1h-1v-1c-1 0 0 0 0 0v-3h-1v-2l1-1c-1-1 0-2 1-2v-2l-1-2 1-1v-1l-1 1h-1l-1-1v-1l-1-1 1-1 1-2 1-1h-1l-1-1-1-1z"/>
      <g fill="#f7db17">
        <path d="M656 152h-1l-1 1v1h-1a4 4 0 0 1 0-1 5 5 0 0 0 0 1l-2 2-1 1v2h-1c0-1 0-1 0 0h0v1h-3l-1-1h2-1-1l1-1 3-1v-1l2-2v-1-2-1a9 9 0 0 1 1 0v1h-1 1l1-1 1-1v2l-1 1 1-1 1-1v1a2 2 0 0 0 1 1z"/>
        <path d="M636 141a8 8 0 0 1 2-2v1a5 5 0 0 0-1 1v1l1-1a2 2 0 0 0 0-1h1l-1 1-1 1v3h1v-1h1v-1 1h-1a5 5 0 0 0-1 1l1 1v-1h1l-1 1v4-1l-1 2-1 2-2 2h-1l1 1c0-1 1-1 0 0h3v-1l1-1v-1-1l1-2h1v-1l1-1a4 4 0 0 1 0-2l1-1v-1 1l-1 1v3h1v1l-1 3v2l-1 2-1 1-1 1v1l1-1v1c-1 0 0 0 0 0h2v-1h-1v-1 1h1v-1l1-1v-1l1-2 1-2v-1h1v-1-1-1 3l1-1v-1 1h1v-1l1-1-1 1v1l1 1v-1a17 17 0 0 1 3-2l-1 1-1 1v1l1-1h1a10 10 0 0 1 1-1l1-2 1-1a3 3 0 0 1-1 1l-1 2v2l1-1 1-1v-1h0v3l1-1v1l1 1a3 3 0 0 1 0-1h1l-1 1h1l1 1v-1 1l1 1v-1-1 3l-3 3-1 2-1 1h-2l1 1 1-1-1 1 3 1 1-2v-1l1-1 2-3 1-1v-1 2l2-2h1l-1-1 1-1v-1-1h1v-1h-1a13 13 0 0 0 1 0v-1-1h-1v-1c0-1 0 0 0 0l1 1v-1l-1-1v-1 1h2l-1-1v-1h1v-1h-1 1a12 12 0 0 1 1 1v-1-1 1h1v-1h-1 1v-1h1l1-1h1l-1-1-1 1h-2v0l-1-1a12 12 0 0 0 0 1 20 20 0 0 1-1 0v-1l-1 1v0h-1v0h-1v2a10 10 0 0 0 0-2v-1h-1a1 1 0 0 1 0 1 1 1 0 0 0 0-1l-1-1a7 7 0 0 1 0 2h1v1l-1-1a7 7 0 0 0-1-2v0h-1a6 6 0 0 1 1 3 6 6 0 0 0-1-3l-1 1h-1a6 6 0 0 1 1 1 5 5 0 0 0-1-1h-1l1 1v1l-1-1v-1h-1a12 12 0 0 1 1 2 12 12 0 0 0-1-2l-1-1a2 2 0 0 1 0 1 2 2 0 0 0-1-1v-1h-1v0h-1v1l1 1v0l-1-1v-1h-1v3a9 9 0 0 0 0-3h-1l-1-1v0l-1-2v1h-1l1-1-1-1v1l-1 1 1-1v-1h-1 1l-1-1a2 2 0 0 1 0 1v-1h-1 1v-1-1h-1v1h-1l1-1h1-2-1 3v-1h-1 1c0-1 0-1 0 0h2l2-1h-2 3l-3-1-1-1-1 1-1-1h-1 4a7 7 0 0 1 2 0v-1-1l-1-1h-1l-1 1 1 1-1-1h-1-2 1v1h-2l-1 1v-1l1-1h1l2-1h-1l-2 1h-1l-2 1-1 1v1l-2 2v0h1l-1 1h-1v1h1v1h2a1 1 0 0 1 0-1v1h2-1v1l-1 1h1l-1 1 1 1v-1l1-1a11 11 0 0 1 1-2h0a15 15 0 0 0-1 2c1 0 0 0 0 0v1l-1 1 1-1 1-1v1a16 16 0 0 1-2 1v1h1c0-1 0-1 0 0h-1v1l1-1a273 273 0 0 1-1 1l-1 1h1l1-1v1h-1v0l-1 1v1l-1 1z"/>
        <path d="M637 125h-1l-1-1h1l-1-1h3l1 1h-1-1v1z"/>
      </g>
      <path d="M656 152zM659 157l-1 1h-1 1v-1h1zM660 156v-1 1zM659 155v1h0v-1zM661 153a1 1 0 0 0 0 1 1 1 0 0 1 0-1zM662 154v-1 1zM662 146v1l1-1c0-1 0 0 0 0a2 2 0 0 1-1 1v1c0 1 0 1 0 0v-2s-1 0 0 0zM661 147v1h-1v-1h1zM660 149a8 8 0 0 1 1 2v-1 1a6 6 0 0 0-1-2zM662 150a5 5 0 0 1 0 1 4 4 0 0 0 0-1zM663 149v0zM663 147v0c1 0 1 0 0 0zM663 144v0zM663 142v1-1zM661 141l1 1v1h-1v2l-1 1a5 5 0 0 0 0-2 4 4 0 0 1 0 2l1-1v-2-1l1 1v-1l-1-1zM667 140v-1 1zM666 140zM663 140l1 1v0l-1-1zM656 141zM657 140v0zM660 142zM661 140zM654 140v1h1v1l-1-1a1 1 0 0 1 0-1zM657 142v3l1 1v-1l1-2v-1 1l-1 2v1l-1-1v-1-1-1zM656 144v1h-1 1l1-1a4 4 0 0 1-1 1 6 6 0 0 1 0 1v-1l-1 1 1-1v-1zM655 144h-1c-1 0 0 0 0 0h1zM654 142v1l-1 1v1a6 6 0 0 0 2-1 5 5 0 0 1-2 1v1h-1l1-1v-1l1-1v-1zM656 147h1v2l-1-1-1-1 1 1 1 1v-1-1l-1-1v1zM658 146v0zM659 147v2h-1l1-1v-1zM660 152zM659 150v0zM658 150v1-1zM656 150zM654 152zM648 158zM649 157zM650 156v1c0 1 0 0 0 0v-1c1 0 1 0 0 0zM652 152v-1 1zM654 139l-1 1v-1h1c1 0 0 0 0 0zM652 138h1v1h-1v-1-1 1zM651 140l-1-1 1 1zM653 143h-1c-1 0 0 0 0 0h1zM650 140l1 2v0a3 3 0 0 0 1-1v-1c0-1 0 0 0 0l1 1v1l-1-1v-1 1l-1 1v0l-1-1v-1zM652 147h-1v-1l1 1zM649 148zM651 145a3 3 0 0 1 0 1l-1 1v-1a3 3 0 0 0 1-1v-1 1zM651 144h-1v1l-1 1 1-1v-1h1zM648 145l-1 1-1 1 1-1v-1h1zM644 147a8 8 0 0 1 0 1v-1zM642 147v1l1 1v0l1-1v1h-1v0l-1-1v-1zM642 152a3 3 0 0 1 1-1v1a3 3 0 0 0-1 0zM642 154v-1 1zM641 156h1s0-1 0 0a5 5 0 0 1-1 0zM640 148zM637 154v-1 1zM643 144v1l1 1v1a3 3 0 0 0 0-1v0l-1-1v-1zM643 142v2a3 3 0 0 0 0 3 3 3 0 0 1 0-3v-1-1zM640 146v0zM639 146v0zM646 135a3 3 0 0 0 1 2h-1v-1-1zM645 136a5 5 0 0 1 1 2 5 5 0 0 0-1-2zM641 136l-1 2v1a3 3 0 0 1 0 2v-1-1-1l1-2zM645 134v1h-1v0h1v-1zM640 135c1 0 1 0 0 0v2l-1 1v-1l1-1v-1zM643 135zM643 134l-1 1v1l1 1h-1c-1 0 0 0 0 0v-1l-1 1 1 2-1-2 1-1v-1l1-1zM642 133v2h-1v-1h1v-1zM649 141v1a2 2 0 0 0 0-1zM649 143v0zM648 141l1 1v2h-1a3 3 0 0 0 0-3z"/>
      <path d="M648 143a7 7 0 0 1-1 2 3 3 0 0 0-1 1l-1-1v-1l1-1a3 3 0 0 0 0-1v-1 1a3 3 0 0 1 0 1l-1 1 1 1a3 3 0 0 1 0 1 3 3 0 0 1 1-1 6 6 0 0 0 1-2zM644 142v0zM642 143v1h-1v-1h1c1 0 0 0 0 0zM642 141v2a2 2 0 0 0 0-2z"/>
      <path d="M640 145v-2l1-1v-1-1h1l-1 1v1l-1 1v2s1 0 0 0zM639 144v0zM645 140v0zM647 138a3 3 0 0 1 0 3l-1-1v-1a2 2 0 0 1 1 1 3 3 0 0 0-1-2h1zM648 137v0zM645 137v1h-1v-1h1zM639 140v2l-1 1 1-1v-2zM639 139v-1 1zM643 138v2-2zM644 137l-1 1h1v0h-1l1-1s0-1 0 0zM638 126h3a28 28 0 0 1 1 0h-1l-1 1h-2 1l2-1h-2l-1 1v-1z"/>
      <path d="M639 126l1 1h-1v-1zM642 128a3 3 0 0 0 1-1 3 3 0 0 1-1 1zM646 126h1v0h-1zM644 126h0zM644 127v-1h0v1zM640 128l-1 1v-1h1zM641 129zM640 127v1l1-1v1c0 1 0 0 0 0h-1v-1zM641 125h-1 1zM640 125h-1v0h1zM639 125h-1v0h1zM638 126a2 2 0 0 0-1 1v-1a3 3 0 0 1 1 0zM638 127l-1 1v-1h1zM637 128v-1 1zM638 129v0zM637 129zM637 123v0h-1 1zM643 131v2a2 2 0 0 0 0-1v-1zM641 134v-1l1-1a2 2 0 0 0 0-1v1l-1 1v1zM638 133h0zM638 133v-1 1zM640 130h0zM639 130zM669 139c1 0 1 0 0 0zM636 154v1h0v-1c0-1 0 0 0 0z"/>
      <g fill="red">
        <path d="M661 124h2l-2 1v-1zM659 124h2v1h-1a7 7 0 0 1-1 0v-1zM646 121l3-1v2h1v-1l-1-1 3 1v2l1-1-1-1 3 2-1 1 1-1h1v2l1-1a10 10 0 0 0 2 0v1l-5-1-1-1h-2v-1h-4v-1h-1z"/>
        <path d="M643 121h4v1a6 6 0 0 0-3 0v-1h-1zM652 126l-4-1v-2-1h1l2 1v2s-1 0 0 0l1-1-1-1 2 1 1 1v1h-2z"/>
        <path d="M655 128l-2-2h1v-1a17 17 0 0 1 2 2v1h-1z"/>
        <path d="M658 130a14 14 0 0 1-3-2h1l1-1a13 13 0 0 0 2 2l-1 1zM660 131l-2-1h1l1-1 1 1v1h-1zM666 130h1l-6 1v-1h2v1h1v-1h2zM654 160v1h-2l1 1 1-1-1 1 3 1 1-1v-1l-1-1h-2zM635 154l-1 1h-1l1 1c0-1 1-1 0 0h3v-1h-1l-1-1zM648 159h1v1h-3l-1-1h0l1-1 2 1zM639 158l-1 1v1l1-1v1c-1 0 0 0 0 0h2v-1h-1v-1h-1zM642 125h4a7 7 0 0 1 2 0v-1-1l-1-1h-1l-1 1 1 1-1-1h-1-2 1v1h-2l-1 1h2zm-2 0v-1l1-1h1l2-1h-1l-2 1h-1l-1 1 1 1z"/>
      </g>
    </g>
    <g>
      <path fill="#0093dd" d="M711 196l26-59-19-31-34 13-16 62c15 3 29 8 43 15z"/>
      <path fill="#fff" d="M678 141c17 5 34 10 50 17l-10 23c-15-6-30-12-46-16z"/>
      <path fill="red" d="M719 177l7-15c-16-7-32-12-49-17l-4 16c16 4 32 9 46 16z"/>
      <path d="M682 157h3v-1l-1-2h-1-1l-1-1-1-1v-1h2l1-1h1l2 1 1 1v1l2 1 6 3 5 1h1c3 0 6 0 8 2l3 1h2l3 1 3 2v1l-2 1-3-1-3-2-1-1h-1v3l1 1h1l1 1v2h1l-1 1-1 1h-2l2-1v-1l-1-1h-1l-3-2-2-1h-1-1-1-1l-1 1h-1-1l-1-1h-1v-1h4v-1h-2l-3-1-1 1-1-1h-4l-1 1-1-1h-1v-1h5v-1l-1-1h-2l-2-1h-1-2l-1 1-2-1v-1h2z"/>
      <path fill="#fff" d="M701 163h-3l-2-1 1-1h1l3 1 1 1a4 4 0 0 1 1 0h-1-1z"/>
      <path d="M704 118v1l1 6-5 4 6 2 1 6 5-4 6 2-1-6 5-4-6-2-1-6v-1h-1l-4 4-6-2z"/>
      <g fill="#f7db17">
        <path d="M701 129l4-4 5 2zM711 127l5-4 5 2zM721 125l-4 4-6-2zM711 127l-5 4-5-2zM704 119l6 2 1 5z"/>
        <path d="M711 127l6 2 1 6zM718 135l-6-2-1-6zM711 127l-6-2-1-6zM714 117l1 6-4 3z"/>
        <path d="M711 127l1 6-4 4zM707 137l-1-6 5-4zM711 126l-1-5 4-4z"/>
      </g>
    </g>
  </g>
</svg>
