<svg xmlns="http://www.w3.org/2000/svg" xmlns:xlink="http://www.w3.org/1999/xlink" width="600" height="300">
  <defs>
    <clipPath id="c">
      <path d="M0 0v75h350v75h-50zm300 0H150v200H0v-50z"/>
    </clipPath>
    <clipPath id="b">
      <path d="M0 0h300v150H0z"/>
    </clipPath>
  </defs>
  <path fill="#FFF" d="M0 0h600v300H0z"/>
  <path id="a" fill="#002b7f" d="M600 261c-7 4-12 13-30 13-36 0-45-20-72-20-18 0-27 20-44 20-36 0-45-20-72-20-18 0-27 20-44 20-36 0-45-20-72-20-18 0-27 20-45 20-35 0-44-20-71-20-18 0-27 20-45 20-35 0-44-20-71-20-18 0-23 15-34 15v25c11 0 16-14 34-14 27 0 36 20 71 20 18 0 27-20 45-20 27 0 36 20 71 20 18 0 27-20 45-20 27 0 36 20 72 20 17 0 26-20 44-20 27 0 36 20 72 20 17 0 26-20 44-20 27 0 36 20 72 20 18 0 23-6 30-10v-29z"/>
  <use transform="translate(0 -50)" xlink:href="#a"/>
  <use transform="translate(0 -100)" xlink:href="#a"/>
  <use transform="translate(0 -149)" xlink:href="#a"/>
  <use transform="translate(0 -199)" xlink:href="#a"/>
  <use transform="translate(0 -249)" xlink:href="#a"/>
  <path fill="#FFF" d="M0 0h300v152H0z"/>
  <g clip-path="url(#b)">
    <path fill="#00247d" d="M0 0h300v150H0z"/>
    <path d="M0 0l300 150m0-150L0 150" stroke="#fff" stroke-width="30"/>
    <path d="M0 0l300 150m0-150L0 150" stroke="#cf142b" stroke-width="20" clip-path="url(#c)"/>
    <path d="M150 0v200M0 75h350" stroke="#fff" stroke-width="50"/>
    <path d="M150 0v200M0 75h350" stroke="#cf142b" stroke-width="30"/>
  </g>
  <path d="M815-301l-18 708c0 38 80 38 89 0l-18-708h-53z" transform="matrix(.12095 0 0 .28726 348 166)" fill="#a24300" stroke-width="7" stroke="#fff"/>
  <g transform="matrix(.43857 0 0 .37683 122 25)">
    <g transform="matrix(-.31451 .10485 -.1383 -.30323 1046 373)">
      <g id="d" fill="none" stroke="#000">
        <path d="M673 325l18 71 35-53-17 88 35-35-35 89 35-36-35 89 35-36-35 107 35-36-35 106 35-35-35 106-18 54-18 17-17-17-18-54-36-106 36 35-36-106 36 36-36-107 36 36-36-89 36 36-36-89 36 35-18-88 36 53 17-71z" fill="#006d00" stroke-width="8" stroke="#fff"/>
        <path d="M496 549v496M425 868l71 106 71-106" transform="translate(177 -224)"/>
        <path d="M425 797l71 107 71-107" transform="translate(177 -224)"/>
        <path d="M425 726l71 107 71-107" transform="translate(177 -224)"/>
        <path d="M425 673l71 89 71-89" transform="translate(177 -224)"/>
        <path d="M425 620l71 89 71-89" transform="translate(177 -224)"/>
        <path d="M443 567l53 106 53-106" transform="translate(177 -224)"/>
      </g>
    </g>
    <use xlink:href="#d" transform="matrix(.23652 -.28186 .29496 .22762 355 205)"/>
    <use xlink:href="#d" transform="matrix(.15164 .33524 -.3329 .1673 908 -153)"/>
    <use xlink:href="#d" transform="matrix(-.20952 .30246 -.3147 -.19945 1141 168)"/>
    <use xlink:href="#d" transform="matrix(-.20772 -.25838 .23618 -.23515 690 567)"/>
    <g transform="matrix(-.36218 -.09947 -.2098 .31773 1222 -24)">
      <g id="e" fill="none" stroke="#000">
        <path d="M744 425l29 71 42-53-10 88 28-35-18 89 25-36-25 89 35-36-35 107 35-36-35 107 35-36-35 106-18 54-17 17-18-17-18-54-35-106 35 36-35-107 35 36-35-107 35 36-46-89 46 36-53-89 43 35-25-88 35 53v-71z" fill="#006d00" stroke-width="8" stroke="#fff"/>
        <path d="M467 585l29 124v336" transform="translate(283 -124)"/>
        <path d="M436 886l60 88 61-88" transform="translate(283 -124)"/>
        <path d="M435 815l61 89 61-89" transform="translate(283 -124)"/>
        <path d="M435 744l61 89 60-89" transform="translate(283 -124)"/>
        <path d="M433 691l63 71 53-71" transform="translate(283 -124)"/>
        <path d="M425 638l71 71 45-71" transform="translate(283 -124)"/>
        <path d="M436 593l53 87 36-95" transform="translate(283 -124)"/>
      </g>
    </g>
    <use xlink:href="#e" transform="matrix(.36088 .10411 .01321 .38053 453 -239)"/>
    <g fill="none" stroke="#000">
      <path d="M354 531l89 89 18-53v89l35-36-18 89 36-36-18 89 35-36-17 107 35-36-35 107 35-36-18 106-17 54-18 17-18-17-17-54-54-82 36 12-36-107 36 36-53-107 35 36-53-89 53 36-71-89 53 36-70-71 70 35-53-89z" transform="matrix(.04613 -.36474 .32602 .0648 386 315)" fill="#006d00" stroke-width="8" stroke="#fff"/>
      <path d="M379 560l64 96 18 53 8 45 9 79 10 71 8 141" transform="matrix(.04613 -.36474 .32602 .0648 386 315)"/>
      <path d="M425 904l64 70 51-88" transform="matrix(.04613 -.36474 .32602 .0648 386 315)"/>
      <path d="M417 815l71 89 50-89" transform="matrix(.04613 -.36474 .32602 .0648 386 315)"/>
      <path d="M407 752l71 81 46-89M372 638l89 71 25-71" transform="matrix(.04613 -.36474 .32602 .0648 386 315)"/>
      <path d="M361 602l82 54 10-54M390 691l81 71 34-71" transform="matrix(.04613 -.36474 .32602 .0648 386 315)"/>
    </g>
  </g>
  <g>
    <path d="M425 222l25-4 26 4-12 5-22 1-17-6z" fill="#9d9d9d" stroke="#000" stroke-width=".25333"/>
    <path d="M450 182c-4 2-9-2-17 4 0 0-13-6-14 8l2 3c2-1-1 2-1 2l1 1v1c0 1-2 2-1 3l1 4 1 2v5l2 2h26c14 0 19 2 25 0l1-2v-2l2-3c0-1 3 1 1-1v-5l1-3v-1l1-1v-5c-1-2-2-10-13-8 0 0-13-5-18-4z" fill="#c00" stroke-width=".50666" stroke="#000"/>
    <g transform="matrix(.27506 0 0 .27506 414 164)">
      <g transform="matrix(.49697 -.0446 .08947 .72677 45 101)">
        <g id="f" fill="#f7d917" stroke="#000">
          <path d="M50 0c-5 1-15 29-13 39l6 14c-3-5-11-14-22-14C7 39 6 69 6 71c1-1 6-13 20-13 8 0 15 7 18 10v3c-2 3-3 9-9 18-8 10-31 11-35 11h100c-4 0-27-1-35-11-6-9-7-15-9-18v-3c3-3 10-10 18-10 14 0 19 12 20 13 0-2-1-32-15-32-11 0-19 9-22 14l6-14c2-10-8-39-13-39zm-7 53l1 1 1 3 2 10-4-14zm14 0l-5 14 4-13-1 3 2-4z"/>
          <path d="M42 68l8-2 8 2v5l-8-2-8 2v-5z"/>
        </g>
      </g>
      <use xlink:href="#f" transform="matrix(.49538 .0597 -.0636 .7295 169 97)"/>
      <g fill="#f7d917" stroke="#000">
        <path d="M24 135l10-12s1 1 0 0C14 97 13 82 15 75c3-8 7-16 19-26s20-4 31-4c12 0 14 2 24 4l36 2v-7s1 1 0 0c-12-2-26 0-36-2-10-3-18-3-28-3-11 0-18-3-25 1L15 58a39 39 0 0 0 0 48c5 6 4 11 6 16l3 13zM239 135l-9-12s-1 1 0 0c19-26 20-41 18-48-2-8-7-16-18-26-12-10-21-4-32-4s-14 2-24 4l-35 2v-7s-1 1 0 0c11-2 26 0 35-2 10-3 18-3 29-3 10 0 18-3 24 1 7 4 15 12 21 18a39 39 0 0 1 0 48c-4 6-4 11-5 16l-4 13z"/>
        <path d="M116 39h35v71h-35z"/>
      </g>
      <g fill="#f7d917" stroke="#000">
        <path d="M120-24a43 43 0 0 0 11 16l-9-5-6-7V7l6-7 9-5-2 9c-1 4-9 14-9 14l22 1-5-15-2-9 8 5 7 7v-27l-7 7-8 5 4-9 7-7h-26z"/>
        <path d="M150 23a17 17 0 1 1-34 0 17 17 0 1 1 34 0z"/>
        <path d="M116 26h34s1-7-2-10h-10l-1-9h-10v9l-10 1-1 4v5z"/>
      </g>
      <g fill="#f7d917" stroke="#000">
        <path d="M111 107a71 71 0 0 0 19 26s-8-3-14-8c-7-5-12-11-12-11v44s5-6 12-11c6-5 14-8 14-8s-3 8-8 14c-5 7-11 12-11 12h44s-6-5-11-12c-5-6-8-14-8-14s8 3 14 8c7 5 12 11 12 11v-44s-5 6-12 11c-6 5-14 8-14 8s3-8 8-14c5-7 11-12 11-12h-44zM27 182l22-4s-7-4-13-10c-6-5-10-12-10-12l15 5 13 9-7-43s-4 7-10 13l-12 10s1-8 5-16l9-13-22 4 10 57zM227 121a71 71 0 0 0 14 29l-13-10-9-13-8 43 13-9 16-5-10 12c-6 6-13 10-13 10l21 4 10-57-21-4z"/>
        <path d="M27 180l1 31s52-18 105-18 105 18 105 18v-31s-52-18-105-18-106 18-106 18z"/>
      </g>
      <g fill="#FFF" stroke="#000">
        <g transform="matrix(.66123 0 0 .66123 21 -360)">
          <path id="g" d="M2 723a12 12 0 1 1-24 0 12 12 0 1 1 24 0z"/>
        </g>
        <use xlink:href="#g" transform="matrix(.66123 0 0 .66123 11 -379)"/>
        <use xlink:href="#g" transform="matrix(.66123 0 0 .66123 9 -400)"/>
        <use xlink:href="#g" transform="matrix(.66123 0 0 .66123 15 -420)"/>
        <use xlink:href="#g" transform="matrix(.66123 0 0 .66123 29 -436)"/>
        <use xlink:href="#g" transform="matrix(.66123 0 0 .66123 47 -448)"/>
        <use xlink:href="#g" transform="matrix(.66123 0 0 .66123 68 -446)"/>
        <use xlink:href="#g" transform="matrix(.66123 0 0 .66123 89 -443)"/>
        <use xlink:href="#g" transform="matrix(.66123 0 0 .66123 110 -441)"/>
        <use xlink:href="#g" transform="matrix(-.66123 0 0 .66123 242 -360)"/>
        <use xlink:href="#g" transform="matrix(-.66123 0 0 .66123 253 -379)"/>
        <use xlink:href="#g" transform="matrix(-.66123 0 0 .66123 255 -400)"/>
        <use xlink:href="#g" transform="matrix(-.66123 0 0 .66123 248 -420)"/>
        <use xlink:href="#g" transform="matrix(-.66123 0 0 .66123 235 -436)"/>
        <use xlink:href="#g" transform="matrix(-.66123 0 0 .66123 216 -448)"/>
        <use xlink:href="#g" transform="matrix(-.66123 0 0 .66123 195 -446)"/>
        <use xlink:href="#g" transform="matrix(-.66123 0 0 .66123 175 -443)"/>
        <use xlink:href="#g" transform="matrix(-.66123 0 0 .66123 154 -441)"/>
        <g transform="translate(1)">
          <use xlink:href="#g" transform="matrix(.66123 0 0 .66123 138 -378)"/>
          <use xlink:href="#g" transform="matrix(.66123 0 0 .66123 138 -393)"/>
          <use xlink:href="#g" transform="matrix(.66123 0 0 .66123 138 -404)"/>
          <use xlink:href="#g" transform="matrix(.66123 0 0 .66123 138 -414)"/>
          <use xlink:href="#g" transform="matrix(.66123 0 0 .66123 138 -448)"/>
          <use xlink:href="#g" transform="matrix(.66123 0 0 .66123 138 -446)"/>
          <use xlink:href="#g" transform="matrix(.66123 0 0 .66123 138 -439)"/>
          <use xlink:href="#g" transform="matrix(.66123 0 0 .66123 138 -429)"/>
        </g>
      </g>
      <g fill="#FFF" stroke="#000">
        <g transform="translate(0 -2)">
          <path id="h" d="M144 136a10 10 0 1 1-21 0 10 10 0 1 1 21 0z"/>
        </g>
        <use xlink:href="#h" transform="translate(-109 17)"/>
        <use xlink:href="#h" transform="translate(107 17)"/>
      </g>
    </g>
    <path fill="#002b7f" stroke="#000" d="M446 210h9v4h-9z" stroke-width=".25333"/>
    <path d="M16 233a23 9 0 1 1-46 0 23 9 0 1 1 46 0z" transform="matrix(-.1718 -.01744 .00604 .24262 462 157)" fill="#3e8225" stroke-width="2" stroke="#000"/>
    <path d="M421 215l-2 2 3 2 6-2-1-3-6 1zM480 215l2 2-3 2-6-2 1-3 6 1z" fill="#c00" stroke="#000" stroke-width=".25333"/>
    <path d="M16 233a23 9 0 1 1-46 0 23 9 0 1 1 46 0z" transform="matrix(.1718 -.01744 -.00604 .24262 440 157)" fill="#3e8225" stroke-width="2" stroke="#000"/>
    <g fill="#FFF" stroke="#000" transform="matrix(.25333 0 0 .25333 412 157)">
      <g transform="translate(1 -3)">
        <path id="i" d="M126 215a4 4 0 1 1-8 0 4 4 0 1 1 8 0z"/>
      </g>
      <use xlink:href="#i" transform="translate(2 10)"/>
      <use xlink:href="#i" transform="translate(-52 6)"/>
      <use xlink:href="#i" transform="translate(-47 19)"/>
      <use xlink:href="#i" transform="matrix(-1 0 0 1 303 -3)"/>
      <use xlink:href="#i" transform="matrix(-1 0 0 1 302 10)"/>
      <use xlink:href="#i" transform="matrix(-1 0 0 1 357 6)"/>
      <use xlink:href="#i" transform="matrix(-1 0 0 1 351 19)"/>
    </g>
    <g>
      <path d="M472 228l7-2-1-1v-3a94 94 0 0 1-56 0l-1 3v1c2 2 7 3 7 3l22 1c13 0 19-1 22-2z" fill="#fff" stroke-width=".50666" stroke="#000"/>
      <g transform="matrix(.27506 0 0 .27506 391 140)">
        <path d="M133 290l-26 9c0 2-3 12 2 16 16-5 60-20 107-20 48 0 88 15 103 20 6-4 2-14 2-16-3-2-22-9-25-9-15-3-29-12-80-12-48 0-69 9-83 12z" fill="#fff" stroke-width="2" stroke="#000"/>
        <g transform="matrix(1.38439 -.14324 .15642 1.26776 -87 -65)">
          <g id="k" stroke="#000">
            <g transform="translate(57 151) scale(.4996)">
              <path id="j" d="M116 302a2 2 0 1 1-4 0 2 2 0 1 1 4 0z"/>
            </g>
            <use xlink:href="#j" transform="translate(56 153) scale(.4996)"/>
            <use xlink:href="#j" transform="translate(57 155) scale(.4996)"/>
            <path d="M114 304l8-3-4 2h3l-3 1h4-8z"/>
          </g>
        </g>
        <use xlink:href="#k" transform="matrix(1.38439 -.14324 .15642 1.26776 -45 -77)"/>
        <use xlink:href="#k" transform="matrix(1.37843 .19234 -.15163 1.26835 100 -121)"/>
        <use xlink:href="#k" transform="matrix(1.38439 .14324 .15642 -1.26776 54 659)"/>
        <use xlink:href="#k" transform="matrix(1.38439 .14324 .15642 -1.26776 96 670)"/>
      </g>
    </g>
  </g>
</svg>
