<svg xmlns="http://www.w3.org/2000/svg" version="1" width="411" height="274" viewBox="79 53 411 274">
  <path fill="#FFF" d="M80 139h411v101H80z"/>
  <path fill="#ce1126" d="M80 53h411v91H80z"/>
  <path d="M80 236h411v91H80z"/>
  <g fill="#007a3d">
    <path d="M326 173l-2-1h1c3 1 4 0 6-1l1-1 1 1h2l2-2h1c1 2 0 4-2 4h-10zM331 168l-1-4 1-1 1 3c0 2 0 3-1 2zM264 166l3 5-2 1-21 21h24c0-6 5-6 8-8 2 3 6 3 7 7v17h-67c-1 6-6 10-12 8 2-2 5-3 6-6 1-6-2-10-4-14l7-3c-2 7 6 6 13 6 0-3 0-6-2-6l6-4v9h47c0-3 0-8-2-8s0 7-2 7h-35l-1-7 12-11 15-14zM353 166l7 4-1 3v27c3 0 4-1 5-3l3 12h-14v-43zM333 180l6-4v23h4l-1-26 6-6v42h-34c0-8 0-17 10-15v-4l-1-1 6-6v16h4v-19zm-12 19c1 1 3 1 3-1-1-1-4-1-3 1z"/>
    <circle cx="224" cy="214" r="2"/>
    <path d="M287 166l8 4-2 3v27l6-2c0 4 3 8 3 11h-15v-43z"/>
  </g>
</svg>
