<svg xmlns="http://www.w3.org/2000/svg" xmlns:xlink="http://www.w3.org/1999/xlink" width="1000" height="600" viewBox="0 0 30 18">
  <path fill="#fff" d="M0 0h30v18H0z"/>
  <path d="M0 0l30 18M0 18L30 0" stroke="#df112d" stroke-width="2"/>
  <g stroke="#000" stroke-width="0">
    <path fill="#e8112d" d="M17 3c0 1 0 3-2 4-2-1-2-3-2-4h4z" stroke="none"/>
    <path fill="#f9dd16" d="M15 2l2 1V1v1h-1c1 0 0 0 0 0h-1l1-1h-1V0v1h-1l1 1h-1s-1 0 0 0h-1V1v2l2-1z" stroke="none"/>
    <g id="a">
      <g fill="#f9dd16">
        <path d="M16 4h1V3h-2 1-1-1v1s0-1 0 0c-1 0 0 0 0 0-1 0 0 0 0 0h2zM14 3zM14 3s1 0 0 0zM14 3zM14 3v0h-1 1zM15 4h1-1zM14 3"/>
      </g>
      <g fill="#ff0016">
        <path d="M14 3zM14 3"/>
      </g>
      <g fill="#0051ba">
        <path d="M14 3h-1 1zM14 3h-1 1zM14 3h-1 1zM14 4h-1 1zM14 4h-1 1zM14 4zM15 4zM15 4zM15 4zM16 4zM16 4zM16 4zM14 3v0z"/>
      </g>
    </g>
    <use xlink:href="#a" transform="matrix(.9 0 0 .9 1 2)"/>
    <use xlink:href="#a" transform="matrix(.67 0 0 .75 5 3)"/>
  </g>
</svg>
