<svg xmlns="http://www.w3.org/2000/svg" xmlns:xlink="http://www.w3.org/1999/xlink" width="625" height="400">
  <path fill="#032ea1" d="M0 0h625v400H0z"/>
  <path fill="#e00025" d="M0 100h625v200H0z"/>
  <g fill="#fff" stroke="#000" transform="translate(117 -435)">
    <g stroke-linejoin="bevel">
      <path d="M139 623h114v44H139z"/>
      <path d="M247 648h4v16h-4zM139 639h114v5H139zM139 633h114v4H139zM139 626h114v4H139zM169 648h4v16h-4zM218 648h4v16h-4zM140 648h4v16h-4zM147 648h4v16h-4zM154 648h4v16h-4zM162 648h4v16h-4zM225 648h4v16h-4zM232 648h4v16h-4zM240 648h4v16h-4z"/>
      <path stroke-linejoin="miter" d="M95 670l4-6h193l4 6z"/>
    </g>
    <path d="M193 557s0-4 2-4c3 0 3 4 3 4zM181 611v-5c-1-3-3-3-3-5v-5c1 4 3 4 3 2l-3-6c-1-1-1-5 1-6 0 3 0 4 2 4l1-2-2-4c-1-3 0-5 1-6l2 4c3 0 0-4-1-5l1-4 2 3v-7c1 2 2 2 2 1v-5h17l-1 5c0 1 1 1 2-1 1 1 2 2 1 3-2 2-2 4-1 4l2-3s2 2 1 4c0 1-3 5 0 5l1-4c2 1 2 3 1 6l-2 4c0 2 1 2 2 2s2-1 2-4l1 6-4 6c0 2 2 2 3-2l1 5c0 2-3 2-3 5v5zM188 565l-1-3h16v3zM189 562l-1-2h14v2zM191 559v-2h9v2zM224 670c-2-1-5-3-5-6v-24l3-3h-53l2 3v24c0 3-2 5-4 6z"/>
    <path stroke-linejoin="bevel" d="M178 648h4v16h-4zM209 648h4v16h-4z"/>
    <path d="M168 609v28h54v-28l-3 3v12h-48v-12l-3-3z"/>
    <path d="M215 670c-2-1-6-3-6-6v-27l4-3h-36l4 3v27c0 3-3 5-5 6zM219 634v-19h-5v-2h-38v2h-5v19z"/>
    <path d="M207 670c-2-1-4-3-4-6v-23l1-2h-18l2 2v23c0 3-3 5-4 6z"/>
    <path d="M191 639h9v31h-9z"/>
    <path stroke-linejoin="bevel" d="M204 632c0-2 6-2 9-3h-36l9 3 1 4 15 1z"/>
    <path d="M211 611c0-5 1-6 2-6v15c-4 1-6 6-6 6h-23s-3-5-7-6v-15c2 0 2 2 2 6zM213 609c0-5 5-6 5-6v5c-2 0-3 2-3 4 0 3 2 3 2 3v14h-4zM177 609c0-5-5-6-5-6v5c2 0 3 2 3 4l-1 3v14h3z"/>
    <g fill="none">
      <path d="M187 571h17M185 576h21M183 582h25M181 590h29M180 599h30M171 629h48M186 629h18v7h-18z"/>
    </g>
    <g>
      <path d="M184 614c3 4 3 10 3 14h17c0-4 0-10 3-14zM194 573l-3-1v-4l2 2 2-3c1 1 2 1 2 3l2-2v4l-2 1z"/>
      <path d="M194 579l-4-3v-3c1 0 3 0 3 2l2-5c2 1 3 3 3 5 0-2 2-2 3-2v3l-4 3z"/>
      <path d="M193 588l-4-4v-5c1 1 3 1 3 3l3-7c2 2 3 4 3 7l4-3v5l-4 4zM202 593l-4 6h-5l-4-6zM186 603c2 1 3 3 3 7h12c0-4 1-6 3-7z"/>
      <path stroke-linejoin="bevel" d="M204 593v-6l-4 4c0-2-2-7-5-9-3 3-5 7-5 9 0-2-2-3-4-4v6z"/>
      <path stroke-linejoin="bevel" d="M205 603v-6c-2 0-3 2-4 3 0-2-3-6-6-8-3 2-6 6-6 8 0-1-2-3-4-3v6z"/>
      <path stroke-linejoin="bevel" d="M207 614v-6c-2 0-4 2-5 4 0-4-4-9-7-11-3 2-7 7-7 11-1-2-2-4-5-4v6z"/>
      <path stroke-linejoin="bevel" d="M206 629v-7l-4 5c1-7-4-14-7-16-3 2-7 9-7 16-1-2-1-4-4-5v7z"/>
      <path d="M204 639v-7l-3 3c0-4-3-8-6-10-3 2-6 6-6 10 0-1 0-2-3-3v7z"/>
    </g>
    <g id="a">
      <path d="M99 664v-20c-1-3-3-5-5-6v-18l4 2 4 19v23z"/>
      <path d="M99 664v-20c-1-3-3-5-5-6v-19c3 0 4 3 4 3l4 19v23z"/>
      <path d="M96 670c2-1 5-3 5-6v-25l-2-2h44l-2 2v25c0 3 2 5 4 6z"/>
      <path d="M136 670c-2-1-4-3-4-6v-24l3-3h-29l3 3v24c0 3-2 5-4 6z"/>
      <path d="M132 670c-2-1-5-3-5-6v-21l3-4h-19l2 4v21c0 3-2 5-4 6z"/>
      <path d="M116 639h9v31h-9z"/>
      <path stroke-linejoin="bevel" d="M104 648h4v16h-4zM134 648h4v16h-4zM101 620h4v17h-4zM101 617h4v3h-4zM136 623h6v14h-6z"/>
      <path d="M105 637v-29c1 0 1 4 4 4 2 0 1-2 1-3-1-2-2-3-1-7 1 3 3 4 3 2-1-3-3-3-1-7 0 3 2 3 2 1-1-2-2-3 0-6 0 3 2 3 2 1 0-3 0-7 4-8 0 0 0-3 2-3s1 3 1 3c5 1 5 5 5 8 0 2 1 2 2-1 1 3 0 4-1 6 0 2 2 2 3-1 1 4-1 4-2 7 0 2 2 1 3-2v7 3c3 0 3-4 4-4v29zM98 615v22h3v-22h-3z"/>
      <path d="M98 629c3 2 6 3 7 8h-7zM141 622v15h2v-15h-2z"/>
      <path d="M143 629c-3 2-6 3-7 8h7z"/>
      <g>
        <path d="M123 595l2-1v-2l-2 1c0-2-1-3-2-3-2 0-3 1-3 3l-2-1v2l2 1z"/>
        <path d="M124 600l1-2v-2l-2 1c0-2-1-3-2-3-2 0-3 1-3 3l-2-1v2l1 2z"/>
        <path d="M124 607l3-3v-4l-3 2c0-2-2-3-3-4-2 1-4 2-4 4l-2-2v4l2 3z"/>
        <path d="M125 613l3-4v-3l-3 1-4-5-5 5-3-1v3c0 2 3 4 3 4z"/>
        <path d="M126 625l4-6v-6l-4 4c-1-5-2-8-5-10-3 2-5 5-6 10l-4-4v6c0 2 4 6 4 6z"/>
        <path d="M126 632l4-5v-5l-4 3c-1-4-2-7-5-9-3 2-5 5-6 9l-4-3v5l4 5z"/>
        <path d="M128 637c-2-5-2-9-8-12-5 3-6 7-7 12z"/>
        <path d="M130 639v-7l-5 4c-1-4-3-5-5-7-2 2-3 3-4 7l-5-4v7z"/>
      </g>
    </g>
    <use xlink:href="#a" transform="matrix(-1 0 0 1 391 0)"/>
    <g>
      <path d="M73 694h245v13H73zM66 707h258v12H66zM86 676h219v8H86zM79 684h233v10H79zM89 669h212v6H89z"/>
      <path d="M112 669h16v50h-16z"/>
      <path d="M116 669h9v50h-9zM187 669h16v50h-16z"/>
      <path d="M191 669h9v50h-9zM262 669h16v50h-16z"/>
      <path d="M266 669h9v50h-9z"/>
    </g>
    <g fill="none">
      <path d="M99 664h193M116 713h9m-9-6h9m-9-7h9m-9-6h9m-9-6h9m-9-6h9m-9-7h9M191 713h8m-8-6h8m-8-7h8m-8-6h8m-8-6h8m-8-6h8m-8-7h8M266 713h9m-9-6h9m-9-7h9m-9-6h9m-9-6h9m-9-6h9m-9-7h9"/>
    </g>
  </g>
</svg>
