<svg xmlns="http://www.w3.org/2000/svg" xmlns:xlink="http://www.w3.org/1999/xlink" width="1200" height="600">
  <clipPath id="a">
    <path d="M0 0v150h700v150H600zm600 0H300v350H0v-50z"/>
  </clipPath>
  <path fill="#00247d" d="M0 0h1200v600H0z"/>
  <path d="M0 0l600 300m0-300L0 300" stroke="#fff" stroke-width="60"/>
  <path d="M0 0l600 300m0-300L0 300" stroke="#cf142b" stroke-width="40" clip-path="url(#a)"/>
  <path d="M300 0v350M0 150h700" stroke="#fff" stroke-width="100"/>
  <path d="M300 0v350M0 150h700" stroke="#cf142b" stroke-width="60"/>
  <path d="M0 300h600V0h600v600H0z" fill="#00247d"/>
  <g stroke="#000">
    <g stroke="#fff" stroke-width="10" stroke-linejoin="round">
      <use xlink:href="#b"/>
      <use xlink:href="#c"/>
      <use xlink:href="#d"/>
      <use xlink:href="#e"/>
      <use xlink:href="#f"/>
      <use xlink:href="#g"/>
      <use xlink:href="#h"/>
    </g>
    <g id="c" fill="#fcea83">
      <path d="M754 450c3 7 24 17 48 4 16-9 27-22 37-45 3-5 4-13-3-17-5-4-14-8-17-12l-6-5 3 4c10 11 0 28-11 38-7 7-21 25-41 8-5-4-15 12-10 25zM1046 450c-4 7-24 17-48 4-16-9-26-22-37-45-2-5-4-13 3-17 5-4 14-8 18-12l5-5-3 4c-10 11 0 28 11 38 7 7 22 25 42 8 4-4 14 12 9 25z"/>
      <path d="M900 491c38 0 97-17 129-78 5-10 0-15-6-19-7-2-15-9-19-13 7 7 6 12 1 21-25 41-58 61-105 61-46 0-80-20-104-61-6-9-7-14 0-21-4 4-12 11-19 13-6 4-12 9-6 19 31 61 91 78 129 78z"/>
    </g>
    <g id="d" fill="#db161c">
      <path d="M811 410c-1-5-7-3-9 3l-6-11c-6-9-7-14 1-22 4-4 12-9 17-4 11 9 5 24-3 34zM988 410c1-5 8-3 10 3l7-11c5-9 6-14-2-22-4-4-11-9-17-4-11 9-5 24 2 34zM754 450c-4-8-8-26-9-31-2-4-2-8 3-10s10 5 13 10l10 25c-10-6-19-2-17 6zM1046 450c4-8 8-26 9-31 1-4 2-8-3-10s-10 5-12 10l-11 25c11-6 19-2 17 6z"/>
    </g>
    <g fill="#00493d" stroke="none">
      <path d="M782 406l-4 2-1 2-2-4h2l8-4 1-1v-1l2 5h-2l-3 1 1 3 4-1v-2h1l2 4h-2l-8 4-1 2-3-4 1-1 2 1 4-2-2-4zM790 413l1-2 5 7-3 2c2-2 2-4 1-4l-1-1h-1l-4 2c1 1 1 2 4 1l-5 4v-1c2-2 1-3 1-4l-3 3-1 1 1 1c0 1 2 2 4 1v1l-3 1-5-8 2 1 7-5zM798 431l-3 3v2h-1l-3-4h2l6-6 1-2 3 4h-2l-2 2 2 3 3-3v-2l4 4h-1-2l-6 6v2l-4-3h2l3-4-2-2zM805 441l2 1 2-4-4 2v1l-1-1-2 1v3l-3-3h3l9-5h1l-5 10v3l-4-4h3v-2l-1-2zM809 451l1-1h1l7-8-1-1-4 1 2-3 7 6-2 3v-5l-7 8v2l-4-2z"/>
      <path d="M822 452l-3 4 1 2h-1l-4-3 2-1 5-7v-2l4 3-2 1-2 3 3 2 2-3v-3l4 3-2 1-5 8v2l-4-3h1l1-1 2-4-2-2zM831 466l1-1h1l4-8v-2l8 4-2 4v-1c1-2 0-4-1-4l-1-1-1 1-2 4s1 1 3-1h1l-3 5h-1c2-3 0-3-1-3l-2 3 1 2-5-2zM845 473v-7c1-3 3-5 5-4v6l-5 5c3 1 5-1 7-4 1-3 1-6-2-8-3-1-6 1-7 4-2 3-1 7 2 8zM860 474l2-6-1-2h3v1l-2 1-2 6c-1 2-2 4-5 3-2-1-3-3-2-5l2-7v-2l4 2-2 1-2 6 1 4c1 1 3 0 4-2zM864 467h3l3 9 1-5v-2h3l-1 1-1 1-3 10-4-11-2 7 1 2v1l-3-1v-1l1-1 3-8-1-2zM880 477c-1 4-2 5-3 5h-1v-1l1-9 1-1h1c1 0 2 2 1 6h2c1-4-1-6-3-7l-5-1v1l1 2-2 8-1 2h-1l5 1c3 0 5 0 6-6h-2zM885 473l-2-1v-1l9 1-1 4c0-2-1-3-2-3l-1-1-1 2v3s2 1 3-2l-1 6c0-3-2-3-2-3l-1 5 1 1h1c1 0 3 0 3-3h1l-1 4-9-1 2-2 1-9zM901 479c0 4-2 6-3 6l-1-1h-1l1-10v-1h1c1 0 3 1 3 6h2c0-5-3-6-5-6l-5-1v1l1 1v9l-1 2h4c3 0 5-1 6-6h-2zM914 483l2 1-5 1 1-2-1-9-2-1v-1h5v11zM919 484v-1l1-1-2-10c-1 0-2 1-2 3l-1-3 9-2 1 4h-1c0-2-1-3-3-3l2 10 1 2-5 1zM940 474l-2-6-1-1 2-1-1 2 2 6c1 2 1 5-2 6-2 0-4-1-5-4l-2-6-1-1h-1l5-2v3l1 6 3 3c2-1 2-3 2-5zM945 471c3-1 2-3 2-4-1-2-2-3-3-2v1l1 5h1l1 4h2v1l-5 2v-1l1-2-4-8-2-1 5-2c2-1 4 0 5 2 0 2 0 4-2 5h-2zM957 472c-1 1-3-1-5-5v-6c2 0 4 2 5 4s2 6 0 7c3-1 4-4 3-8-2-2-5-4-8-3s-3 4-2 7c1 4 4 6 7 4z"/>
      <path d="M958 459h-1l3-2 8 5-3-6-2-1 3-1v2l5 9-1 1-10-6 3 7 2 1-2 2v-1-2l-4-7-1-1zM979 460v-2l-6-8v3l-1 1-1-3 7-5 2 3c-2-2-3-2-4-1h-1l6 8 2 1-4 3zM984 449l3 3h2l-4 4v-1-2l-5-7h-2l4-4v3l2 3 3-2-3-4h-1l3-3v2l6 7h2v1l-4 3v-1-1l-3-4-3 3zM989 439h-2v-1l6-6 3 3h-1c-1-2-3-1-4 0l-1 1 1 1 3 3v-4l4 4v1c-3-2-3-1-4-1l3 3 1 1 1-1v-5h1l2 3-7 7v-1-2l-6-6zM1000 425l1 2h4c1 0 2-1 4 1s1 4 1 5l-2 1-1 1-3-3h1c1 1 3 2 4 0v-2h-3l-5-1c-2-1-2-3-1-4l2-2v-1l3 3h-5zM1005 421l-2 1h-1l5-8 4 2-1 1h-4v1 1l3 3c1-1 2-2 0-4l5 4c-3-2-4 0-4 0l3 3h2l1-1c0-1 1-3-1-5l3 3-5 7h-1v-2l-7-6zM1018 413l-2 2-3-3 5 1h2c2 1 1 1 1 2l3-4h-3l-11-2 8 9v2h1l1-3h-2l-1-1 1-3zM1015 402c-1 1-1 2 1 2 1 1 2 0 3-1s3-2 5-1c3 2 2 4 2 5l-2 2v1l-4-2c3 0 5 0 5-2 1-1 0-1-1-2l-3 1c-2 1-3 2-5 1s-3-2-2-4l2-2-1-1 4 2h-1c-2-1-3 0-3 1z"/>
    </g>
    <g>
      <g id="e" fill="#073163">
        <path fill="#fff" d="M863 232c-6 2-10 2-16-3-4-4-3-10 1-13s8-5 13-3c6 1 19 14 16 15l-14 4zM878 209c2-1 4-2 11-2 5-1 10-1 11 3 2 6 3 12 7 15-2 1-14 3-18 0-6-3-8-14-11-16zM919 210l11-1c6 0 8 1 10 5 1 5 0 11 3 16-3 1-13 1-16-3-5-4-5-15-8-17z"/>
        <path d="M948 213c-4-1-7-2-9 0 2 3 0 14 5 18 4 2 12 3 14-2s2-12-10-16zM899 208c1-1 4-2 10-2s10 1 12 5c2 5 1 11 5 15-2 2-15 2-19-1-5-4-5-15-8-17zM858 212c0-2 3-3 12-3 9-1 9 0 12 6 1 3 3 9 7 11-10 2-14 4-20 0-4-2-9-8-10-10l-1-4z"/>
      </g>
      <g fill="#f9d050">
        <g id="g">
          <path d="M881 163c-10-7-22-14-33-16 7 4 27 20 32 26"/>
          <path d="M887 156c-12-8-26-17-40-18 10 5 25 18 33 28M902 143c7-15 14-23 24-32-5 10-11 30-13 39"/>
          <path d="M913 140c4-10 12-19 24-25-6 6-16 25-18 35"/>
          <path d="M917 150c6-8 17-23 38-32-12 12-30 34-34 43M924 161c8-5 25-13 38-10-8 2-31 13-41 23"/>
          <path d="M922 157c8-8 23-21 38-27l-39 40M899 152c-6-18-15-35-28-40 8 11 17 26 21 49"/>
          <path d="M888 151c-10-11-23-23-38-25 10 6 27 23 33 39"/>
          <path d="M893 151c-12-22-21-25-26-30 4 8 14 30 21 39"/>
          <path fill="none" d="M869 150c6 3 14 11 17 16"/>
          <path d="M869 160l13 9M926 167c5-4 15-10 21-12M923 163c4-6 14-14 17-17M936 134l-18 22M924 129c-4 5-10 17-12 22M886 130l10 26M881 139l8 14"/>
        </g>
        <g id="h">
          <path d="M898 136c0-4 3-9 5-9 4 0 6 6 6 9 0 4-3 7-6 7s-5-3-5-7z"/>
          <path d="M891 140c1-5 4-9 7-8 3 0 5 6 4 9 0 4-4 7-6 7-3 0-5-4-5-8zM904 141c-1-4 1-9 4-9 3-1 6 4 6 8 1 4-1 8-3 8-3 0-6-2-7-7z"/>
          <path d="M897 145c0-5 3-9 6-9s6 5 6 9-3 7-6 7-6-2-6-7z"/>
          <path d="M889 148c0-5 3-9 6-9s6 5 6 9c0 3-4 7-6 7-3 0-6-3-6-7zM906 146c0-5 3-9 6-9s6 5 6 9-3 7-6 7-6-3-6-7z"/>
          <path d="M904 150c0-5 4-10 7-10s5 6 5 10c0 3-2 7-5 7s-7-3-7-7z"/>
          <path d="M897 154c0-5 3-9 6-9s5 6 5 9c0 4-3 7-5 7s-6-3-6-7zM885 154c0-5 2-9 5-9 2 0 4 6 4 9 0 4-3 7-4 7-3 0-5-3-5-7zM912 153c0-4 2-9 4-9 3 0 5 6 5 9 0 4-3 7-5 7s-4-3-4-7z"/>
          <path d="M914 161c1-5 4-9 6-8 2 0 3 6 2 10s-4 6-6 6c-2-1-2-4-2-8z"/>
          <path d="M905 160c1-5 4-9 6-9 3 0 4 6 4 10-1 4-3 7-5 6-3 0-5-3-5-7zM892 161c-1-5-4-8-6-8-2 1-3 7-2 10 1 4 4 6 6 6 1-1 3-4 2-8z"/>
          <path d="M889 160c0-4 2-9 4-9 3 0 5 6 5 9 0 4-2 7-5 7-2 0-4-3-4-7z"/>
          <path d="M896 162c0-5 3-9 6-9s5 5 5 9-3 7-5 7-6-3-6-7zM898 109c-1 4-4 7-2 13-4-2-8-2-11 2 4-1 8 1 10 4-4-1-6 1-7 3 3-1 7-2 8-1-1 1-4 4-4 6 3-3 6-2 8-4-1 4 2 7 4 10-1-4 2-8 1-10 4 1 5 5 11 5-2-2-4-7-7-7h8c-1-2-4-3-6-3 2-2 5-6 8-7-4 0-9 1-11 4 5-4 4-11 9-12-3-1-7 1-10 4 1-2 1-6 3-7-4 1-8 6-9 8l-3-8zM901 117l-1 5M907 116c-1 1-3 5-3 8"/>
          <path fill="none" d="M910 122l-4 5"/>
        </g>
      </g>
      <g id="f" fill="#059334">
        <path d="M859 170c-3 0-6-2-8-4-4-4-13-6-17-3l-4 2c-3 0-6 2-5 7h4l1 2c0 2 5 7 10 6 5 0 7 2 8 3l2 3c1 2 2 2-1 4-3 3-5 10 0 15 7 5 22 12 40-2 17-13 44-6 46-1l4 10c0 2 3 4 6 4 4 0 7 1 9 3 3 1 6 1 5-4-2-13-10-15-11-21 5 0 8 0 10-2l5-6c2-1 2-2 0-1l-8 1c-22-3-84-20-96-16z"/>
        <path fill="#000" d="M957 186c-3 1-5 4-9 10-5 6-20 12-37 12-18 0-28-3-36-9l-10-7c-6-2-7-7-5-12-2 3-3 5-5 5s-6 0-5 1l-1-2-1-1c1 1 5-2 7-2s4-2 4-5l-2-6c4-2 55 7 65 8 10 0 38 5 35 8z"/>
        <path d="M866 168c4-5 10-7 16-6h1c3-2 10-3 14-1h2c5-2 16 0 20 4l2 1c13-1 20 5 29 14 1 1 3 3 5 3 3 1 4 2 1 3l-10 10c-4 5-18 11-35 11s-27-3-35-9l-10-6c-3-1-7-5-5-9 1-4-2-9-4-13 2-1 6-3 8-2h1z"/>
        <g fill="#00493d">
          <path d="M950 180c-9-9-16-15-29-14l-1 3c8 3 19 11 24 17l6-6zM919 165c-4-4-15-6-20-4l-1 7c3 1 6 5 9 8l9-2 3-9zM897 161c-4-2-11-1-14 1l-1 8 6 2 8-4 1-7zM866 168c4-5 10-7 16-6l-2 7c-5 0-12 1-14 3v-4z"/>
          <path d="M942 187c-5-6-15-13-22-16l-2 3c3 5 9 14 11 20l13-7zM905 198l2-20 9-2 10 19-21 3zM889 175l8-5 7 7-2 21c-4 0-10-1-13-3v-20zM865 181l1-6c3-2 13-5 20-1v20c-7-5-17-12-21-13z"/>
        </g>
        <g fill="none">
          <path fill="#000" stroke="none" d="M841 172c-1 0-2-3-4-3h-2l1 3h5z"/>
          <path d="M841 180c5 0 6-7 9-7M844 181c4 2 8-8 11-8M835 168c2 0 3-2 5 1l4 1M843 175c-2 3-6 5-8 4M834 163l-3 5M830 171v2"/>
        </g>
      </g>
    </g>
    <g stroke="none">
      <path id="b" fill="#fff" d="M990 233v93c0 81-39 109-90 131-51-22-90-50-90-131v-93h180z"/>
      <path fill="#cf142b" d="M900 312c4 0 11-4 17-10s17-9 28 0c11 10 17 6 23 0 6-5 11-7 22-7v-62H810v62c11 0 16 2 22 7 5 6 12 10 23 0 12-9 22-6 28 0s12 10 17 10z"/>
      <g fill="#0b50a0">
        <path d="M900 360c6 0 17-6 20-8 11-6 18 0 25 3 6 3 19 6 27 0 7-7 11-6 17-6l1-23v-5c-7-2-10 0-18 6-7 7-15 5-25 1s-21-12-31 0c-2 4-9 8-16 8s-13-4-16-8c-11-12-20-4-30 0-11 4-20 6-27-1-6-6-10-8-17-6v5l1 23c6 0 10-1 17 6 8 6 21 3 27 0 7-3 14-9 25-3 3 2 14 8 20 8zM900 381c7 0 16-3 24-8 9-5 16-3 25 2 11 5 19 4 24 0 3-2 6-5 12-4-3 12-7 22-13 31-9 3-14 3-24-2-11-5-23-7-30-3-6 4-13 6-18 6s-12-2-18-6c-7-4-19-2-29 3s-16 5-25 2c-6-9-10-19-13-31 7-1 9 2 12 4 5 4 14 5 23 0 10-5 17-7 27-2 7 5 16 8 23 8zM900 457c19-8 37-17 51-29l-9-3c-4-3-14-4-22 1a39 39 0 0 1-40 0c-8-5-18-4-22-1l-9 3c14 12 31 21 51 29z"/>
      </g>
      <g stroke="#000">
        <path fill="#f9d050" d="M888 256v5l2 4h3c11 0 23-5 34-5 10 0 16 4 22 4 3 0 6-3 6-5 0-3-4-4-12-4-11 0-17 3-27 3-14 0-17-5-17-8s3-6 10-6l5-1c1-1 2-3 5-4 4-2 10 0 14-3 0 2-3 5-6 6 5-1 10-1 11 2h-7l-5 2c2-1 3 3 6 3-3 3-8 3-13 1l-7-2c-5 0-8 1-8 3s3 4 11 4c9 0 14-3 27-3-1-1 0-3-2-4 5 0 10 1 12 5 0-4 3-7 2-10 3 1 5 4 6 6l1-3c3 2 5 5 4 8 2-2 3-1 4-4 1 2 1 7-3 9 3-2 7-2 10 2-3-1-4 1-5 1-6 4-16 5-23 5l-13-2c2 1 8 6 14 6h7c1-1 4 0 5 1 2 1 5 3 7 2l-3 4 3 4h-3c1 2 1 4 3 5h-3l1 5c2 2-1 4-4 2 1 2-1 3-2 3l-2-3 1-1c-1 2-3 2-4 1l-1-1c-4 1-5-2-5-4l5-1h3l1-2c0-2-1-6-8-6-7 1-18-1-24-3l-1-1-2 5c0 2 1 4 3 5-1 3-3 2-4 1l-2 4-2-2c-1 3-5 5-7 4-2 2-5 1-6-1h-4c0 2-1 1-2 3 0 1-2 2-3 1v-3h-4l1-3h1l-3-1-1-2c1-1 2-2 3-1v1l1-2c1-1 3-1 4 1l5 1 9-5c-8-2-3-7-1-9l-7 1c-10 5-20 11-27 9l1 3-5-1c-1 1-2 3-1 5l-5-2 1 4c-2-2-4-3-5-2l-5 1-3 3-1-3c0 2-2 4-4 5v-4c0 2-4 3-5 5l1-4c-1 1-2 3-5 3l1-3c-1 2-4 3-6 3 0 1-2 2-4 1s-3-2-2-3c-2 0-4-2-3-4l1-1c-2-1-2-3-1-4l3-1c0-4 3-4 5-1 1 2 4 4 6 4l3-1 12-6v-3c-2 1-4 1-5 3v-2h-5l2-3-6-1 1-4h-5l2-4h-7c2 0 3-3 5-3-4 0-5-2-7-3 2 1 2-1 4-1-2 0-4-3-3-4l-2 2c-1 0-3 0-4-2-1-1-1-4 1-4-2-1-2-3-1-4 0-1 2-3 3-1l2 2-1-5 3-1 2 2 1 5 1-2c0-2 2-2 4-1 1 0 2 3 0 5v3c4 5 9 10 14 10l2-5 1-4c1-2 2-4 4-3l-1-1c-1-2-3-4-2-6s4-2 5-1l3-6 1 5c0-2 4-5 6-6-1 2 2 4 2 6 1-3 4-4 7-4l-1 4 5-2-2 4h4l-2 4c2-1 4-1 4 1 1 1 0 4-1 5l-2 1z"/>
        <g fill="none">
          <path d="M858 262c-3 2-4 5-5 7M857 266c-4 2-6 5-5 10M860 280c3-1 5-2 7-6M866 276c-1 2 0 5-2 6 3-1 4-3 5-6M867 281l6-7-1 5 4-6v2l2-4M878 272v3c2-2 2-4 2-6M880 272c3-2 3-5 3-9M883 267c2-1 3-2 3-6M879 248l-1 2-2 4c0 1-1 2-3 1l-1-2 2-4 2-3c-3 2-6 1-7-2M884 249h-4-2"/>
          <path d="M877 252h5c-2 1-3-2-1-3M873 247c-2 0-4 1-3 3h4M869 271l1-2 3-1c2 0 3-2 4-3l2-3 1-2c1 0 3 0 3-2M864 255l-2 2-1 4-1 3 1 2M866 245c-1 3-1 6 1 6"/>
          <path d="M867 253l-1 7c-1 1-2 5 2 6 4 0 7 0 9-7M884 278l-1 1M888 277l-2 2M891 276l-1 2M862 246l1 2c-1-1-3 1-2 3M860 254l-2 1M859 258l-2 1M836 250v-1M832 248h-1M832 255h1M830 252l-3-1M856 270l-5 8M860 272l-4 5M841 287c-4 1-7 0-9-2l-2-1M856 280l-2 5c3-2 7-5 7-9M828 289h4M911 273l3 2c0-1 2-3 4-3M877 283c0-2 1-4 3-5M858 291l1-3M837 293l-1 3M830 294l1-1 2-2M895 287h-2M895 289l-1 1M897 292l-1 1M911 293l2-4M905 292l4-3M918 289l1-3M954 293v-4l3-1M925 276c-8-3-8-8-14-7M959 291v2M963 291l-1 3M926 246h-4M886 262c0 1 1 3 5 3h-1"/>
          <path d="M888 256h-1c-1-1 0-2 2-3h-4c-1 3-4 4-6 2 0 2-2 5-4 4s-3-2-2-4c-3 3-5 1-6 0l1-6"/>
        </g>
        <path d="M918 275l-4 1c-1 1 0 2 1 2l2 1c-1 2 2 2 2 4l1-5c-1-1-3-2-2-3z" stroke="none"/>
        <g fill="#073163" stroke="none">
          <path d="M875 259c-2-1-3-2-2-4l-3 2c-2 4-4 8-7 8-3 1-3 4 0 4 5 1 7-1 12-10zM827 248c2-2 1-3 0-4-2 0-5 0-6 3h3c1 1 2 2 3 1zM830 239c3 0 4 1 4 2 1 1 0 2-1 2s-3 0-2-1l-1-3zM839 247c3 0 4-1 2-3l-4-2c2 1 0 4 2 5zM822 255c1 2 3 2 4 2 2-1 2-2 2-3-1-1-3-2-3 0-1 2-3 1-3 1zM829 284c-1-2-4-2-7 0l4 1 2 1 1-2zM833 281c0-2-4-3-6-2l3 2 2 2 1-2zM828 290c-3-1-5 3-5 5l4-2 2-1-1-2zM828 298c1 1 2 0 3-2h2v3c-1 1-4 1-5-1zM895 284c-1-1-4-2-5 0 1-1 2 0 2 1l2 1 1-2zM891 287c-2-1-5 2-5 3l3-1 2-1v-1zM893 291c-2 0-3 2-3 4 0-1 1-2 2-1l2-2-1-1zM897 295c-1-1-2 0-2 1l-1 4 3-2v-3zM951 290c-1-1-2 0-2 1v5l1-2c2-1 2-3 1-4zM954 292c-2 1-2 5 0 7l1-3c2 0 2-2 2-3l-3-1zM960 294l-2 2 2 4 1-2c1-1 1-3-1-4zM964 294c-1 0-2 1-1 3l4 1-1-2c0-1 0-2-2-2z"/>
        </g>
      </g>
      <g id="i">
        <path fill="#f9d050" d="M831 383l24-73 24 73-63-45h78z"/>
        <path fill="#024919" d="M836 377l50-37h-62l50 37-19-59z"/>
      </g>
      <use xlink:href="#i" x="90"/>
      <use xlink:href="#i" x="45" y="52"/>
      <path fill="none" stroke="#000" d="M990 233v93c0 81-39 109-90 131-51-22-90-50-90-131v-93h180z"/>
    </g>
  </g>
</svg>
