<svg xmlns="http://www.w3.org/2000/svg" width="750" height="500">
  <path fill="#ed1c24" d="M0 0h750v500H0z"/>
  <path fill="#fff" d="M0 125h750v250H0z"/>
  <path fill="#00a651" d="M372 125c-6 11-16 19-26 27-1 1-5 4-2 6 2-3 9 1 5 4-3 3-8 4-12 7l-10 7c0 4 6 2 8 3 3 4-1 9-5 8-5 0-9 5-11 9-4 6-11 8-17 11l-10 7c-4 3-1 8 4 7 4-1 9-4 13-3 5 1 6 7 5 11l-6 8c-4 4-9 6-13 7-5 2-9 5-13 9l-11 10c-1 3 3 6 6 6 6 0 11-6 16-8s10 3 9 7c0 5-5 7-9 9-11 5-21 14-30 23-1 4-6 2-9 5-2 3 3 5 5 5 11-2 22-6 32-12l11-5c3-1 8 1 9 5 0 4-4 6-8 8-10 6-22 9-33 12-4-1-7 7-3 8 5 2 11 0 15 0 16-2 29-11 44-16 6-2 13 1 16 6s2 12-1 17c-5 10-12 20-22 26-7 3-14 4-19 9-5 2 2 9 3 3 3-4 9-5 13-5 8-1 15-2 21-7 5-4 10-10 17-10 4 1 7 4 11 2s9-1 10 3c1 5 6 7 10 10 2 2 6 7 8 3-1-4 0-9 4-8l11 2c5 1 9 5 12 9 2 2 6 7 10 3 1-3-2-6-5-8-5-2-9-6-12-9-6-6-11-13-12-21v-24c2-5 8-8 13-5 6 3 13 7 20 7 11 0 22-2 32 1s17 12 27 16c3 1 5 0 6-3 1-2 0-5-2-6-11-11-27-17-40-26-4-1-5-8-1-10 5-3 12-2 17 2 4 2 8 4 12 4 5-1 3-8-1-8-8-5-13-11-20-17a25 25 0 0 0-20-7c-3-3 0-7 4-7h10l11-1c3 2 10-1 7-5l-11-4-20-5c-4 0-4-6 0-7 3-1 5 1 8 2l13 1c4-1 1-7-3-7-7-3-14-8-21-13l-21-17c-3-2-7-2-8-6 0-3 4-5 7-4l11 4c4 1 7 2 10 1 4-2-2-4-4-5l-14-10c-4-3 3-5 6-4 4 2 4-4 1-6-4-1-7-4-10-6-6-4-13-8-21-9s-16-6-21-13l-6-13zm-28 47c4 1 4 8-1 8-4 0-4-8 1-8zm41 5c4-1 5 7 1 7-5 1-6-8-1-7zm-12 1c4 0 3 8-1 8-3 1-7 3-10 1-2-2 1-7 4-7l7-2zm28 0c4 1 2 9-2 8-4 1-6-6-2-8h4zm-47 8c3 3 1 8-3 10-2 1-6 5-9 2-2-4 2-6 5-8l7-4zm35 16c4 2 2 10-3 10-4-1-3-8 1-9l2-1zm-14 1c4 2 1 9-3 8-5-1-5-8 0-8h3zm30 4c4-2 9 3 8 8-2 3-7 4-10 2-4 0-7-6-4-8 2-2 4-2 6-2zm-66 1c3-2 7 4 4 7-2 3-7 4-10 1-2-4 2-9 6-8zm-17 3c4 0 6 4 8 8 0 4-6 7-9 3-3-2-6-6-4-9 1-2 3-3 5-2zm102 16c4-1 7 6 4 9-4 3-11-2-9-6 1-2 3-3 5-3zm-58 8c3 1 2 7-1 7-4-1-3-7 1-7zm-20 4c3-3 7 3 5 5-3 2-7-3-5-5zm31 0c4 2 6 7 6 11-1 4-8 3-9-1s0-8 3-10zm11 7c4-2 3 8-1 5-1-2-1-4 1-5zm-68 6c3 0 8 0 9 4 0 3-3 5-6 6l-13 3c-4-2-5-6-6-9 3-4 8-3 12-3l4-1zm105 16c4-2 8 4 5 7-4 5-12 5-17 1-1-4 3-7 7-7l5-1zm22 4c5 0 8 6 5 9-3 5-10 6-14 2-2-3 1-7 5-9l4-2zm-111 7c4 0 8 4 7 8 3 3-2 8-5 5-2-3-2-7-3-11l1-2zm32 3c4-2 10 3 7 7-1 4-8 2-8-2l1-5zm-16 2c5-1 9 5 6 9-4 0-6-5-6-9z"/>
</svg>
