<svg xmlns="http://www.w3.org/2000/svg" xmlns:xlink="http://www.w3.org/1999/xlink" width="640" height="320">
  <path fill="#d3ae3b" d="M0 0h640v320H0z"/>
  <path fill="#c40308" d="M16 16h608v288H16z"/>
  <path fill="#B96B29" d="M390 157c2 0 8-2 13-6 4-3 5-6 5-8v-2l-7 5-6 2h-1c1 0 5-1 8-5 3-3 6-8 6-11s0-2-1-2l-6 7-7 4c-1 1-4 2-1 0s9-7 11-13c3-6 2-10 2-10 0-1 0-2-1-1 0 1-4 9-7 12l-3 3h-1l7-11 2-10-2-7-1-1-4 12-4 9c-1 1-2 2-1 0 2-3 5-11 5-19l-2-14-2-3-1 13-4 12v-1l2-9-1-14-4-8c-1 7-1 17-4 24h-1a42 42 0 0 1-9 20l-1-2h-1l-7 9c-4 5-6 7-6 11 0 3 2 5 5 6 2 2 2 3 2 5l-4 2h-5l-2 3-2 1h-1c0-9 4-13 4-13l-10-11-2 1v-1l-2-5h3v-2a17 17 0 0 1 0-6l2 2 1-2 2-5 3 1c2 0 4 0 6-2l2-2 6 1c3 0 6 0 7-3s0-5-1-6h-1l-1 4-5 1a14 14 0 0 0-9 0c1-1 3-3 5-3 2-1 3 0 3 1s2 2 2 0v-5c-1-2-3-3-5-2h-3s-1-3-3-3c-4-1-7 0-10 2h-4l-4-2 1-3h1l1-1-1-1s0-2 2-3l2-1h1l1-1 1-1v-2-1l1-1v-1-1l-1-2-1-2-1-1 1-1-2-1h-1l-2-2h-1v-1l-2-1h-1l-3-1h-2l-3-1-1-1 1-2-2-4h-1v-1h2v-3h-2v-2h-4l1 2h-2v3h2v1l-2 1c-1 0-2 1-1 3v2l-1 1-3 1h-2l-4 1-2 1v1h-1l-2 2h-1l-2 1c-1 1 1 1 1 1l-1 1-1 2-1 2v2l1 1v1 2l1 1 1 1h1l2 1c2 1 2 3 2 3l-1 1 1 1h1l1 3-4 2h-4c-3-2-6-3-10-2-2 0-3 3-3 3h-3c-2-1-4 0-5 2v5c0 2 1 1 2 0 0-1 1-2 3-1 2 0 4 2 5 3l-3-1-6 1c-1 1-3 0-5-1l-1-4h-1s-3 3-1 6c1 3 4 3 7 3l6-1 2 2c2 2 4 2 6 2l3-1 2 5 1 2 2-2 1 2-1 4v2h3l-2 5v1l-2-1-10 11s4 5 4 14v-1h-1l-2-1-2-3h-5l-4-2c0-2 0-3 2-5 3-1 5-3 5-6 0-4-2-6-6-11l-7-9h-1l-1 2-4-7c-3-5-4-10-5-13h-1c-3-7-3-17-4-24l-4 8-1 14 2 9v1l-4-12-1-13-2 3-2 14c0 8 3 16 5 19 1 2 0 1-1 0l-4-9-4-12-1 1-2 7 2 10 7 11h-1l-3-3c-3-3-7-11-7-12-1-1-1 0-1 1 0 0-1 4 2 10 2 6 8 11 11 13s0 1-1 0l-7-4-6-7c-1 0-1-1-1 2s3 8 6 11c3 4 7 5 8 5h-1l-6-2-7-5v2c0 2 1 5 5 8 5 4 11 6 13 6l1 1-5-1-11-5c-1-1-2-1-1 1 0 2 2 6 6 8l11 4h1a34 34 0 0 1-13-2l-1-2-2 1-1-1v-2h-1l-3 1 1 2 1 2h-3v1l1 3h1l2-1v3l-1 1v1l4 4 3 15c0 7 5 11 6 11v3c0 2 1 3 2 3v5l4 7v1l-1 1-2 2v3l2 3-1 1 2 3 3 1v1l2 2h4v7l2-1 2 1 2 1v-2l1-2 2-1 2-1-3-1-2-2-1-1 1-1v-1l1-2 1-1 2-3 3-2 3-3 4-3 1 3c1 1 2-1 5-3l6-3 1 2c1 1 2 0 6-6l9-9h1l-1 1-1 3-4 4-1 6c-1 2 1 3 1 3l-3 3-1 5-1 1-4 4-5 4v1l3 3h3v1l-1 4c0 2 1 2 3 1l4-1-1 1v2l1 2h2l3-1 2-1-1 1v4l2 2h2l3-3 1 4 4 6 4-6 1-4 3 3h2l2-2v-4l-1-1 2 1 3 1h2l1-2v-2l-1-1 4 1c2 0 3 1 3-1l-1-4v-1h3l3-3v-1l-5-4-4-4-1-1-1-5-3-3 1-3-1-6-4-4-1-3-1-1h1l9 9c4 6 5 7 6 6l2-2 5 3 5 3 1-2a91 91 0 0 0 8 3c3 1 3 2 5 4s6 1 9 0a200 200 0 0 0 20-8l1-3-1-2v-1l-1-2v-3c0-3-2-7-6-8v-1l-1-1v-2h1l1 1 1-1v-3-1h-2l1-1v-1l-4-1v2h-1-1-1l-1 3v1h3l-1 2h-1-2l-6 2c-3 2-3 4-4 5l-1 1-1 2-1 2c-1 1-2 4-1 6l3 4-1 1-2-1-5-5-1-1h2v-1l-3-2v-1c1-1 3-2 1-2l-5-2h-1l1-2v-1l-6-1c-4-2-6-5-7-9 1 2 2 4 5 5 4 0 4-1 3-3l-2-2h1c1 1 3 4 8 3l6-1-2-2v-1h8l6-3-4-1-1-1h8c2-1 4-2 4-5l-4-1-2-1s5 1 9-1c5-2 5-5 5-6v-1l-7 1h-4s8 0 12-3c4-2 5-7 5-7l-8 2h-6 1l11-4c4-2 6-6 6-8 1-2 0-2-1-1l-11 5-5 1 1-1zm-150 10l-2 1-1-2 2-1 1 2zm51 30l-6 5-5 1v1l1 2-2 1-5 1 1 2 1 1-3 2v1l3 1-2 1-5 2a77 77 0 0 1-12 0v-3l-2-5-3-3v-2-2l-2-2-1-2-1-7-5-10a26 26 0 0 1-3-13v-1l3 2c4 3 12 3 12 3h-4l-7-1v1s0 4 5 6c4 2 9 1 9 1l-2 1-4 1c0 3 2 4 4 5h8c2-1 1 0 0 1l-5 1 6 3h8c2-1 0 0 0 1l-2 2 6 1c6 0 7-2 8-3h1l-2 2c-1 2-1 3 3 3 3-1 4-3 5-5l-1 4zm44-119l-1-1 4 2 1 3v6l-2 1h-2l-1-1c1-1 2-1 2-4 1-2 0-5-1-6zm-11 7v-5l-1-6 4 3 3 5-1 3v2h-1l-3 1-2-1h-1l2-2zm-11-8l4-3-1 6v5l2 2h-1l-2 1-3-1h-1v-2l-1-3 3-5zm-8 12h-3l-1-1v-1-2-3l1-3 4-2-1 1-2 6 3 4-1 1zm29 21l-3 2 2 1-3 3-4 2v1l1 2h1l-4 4-3 2v2l2 2v2l-3 3-3-3v-2l2-2v-2l-3-2-4-4h1l1-2v-1l-4-2-3-3 2-1-3-2-3-3 3-3 1-3c4 2 9 2 13 2s9 0 13-2v3l4 3s0 2-3 3z"/>
  <path fill="#D4AF3A" d="M347 159c0-7 4-12 4-12l-9-9c-8 3-15 3-22 0-7 3-14 3-22 0l-9 9s4 5 4 12c0 6-2 11-3 15 0 3-1 9 1 13 2 5 3 9 11 12l14 7 4 4 4-4 14-7c8-3 9-7 11-12 2-4 1-10 1-13-1-4-3-9-3-15z"/>
  <path fill="#B96B29" d="M345 161c-1-6 2-12 2-12l-7-8c-5 3-13 2-20-1-7 3-15 4-20 1l-7 8s3 6 2 12l-3 21c1 4 4 9 7 12s8 4 11 6a31 31 0 0 1 10 6l2-2 8-4 11-6c3-3 6-8 7-12l-3-21z"/>
  <path fill="#1D5E91" d="M344 162c-1-7 2-13 2-13l-6-7c-6 3-13 2-20 0-7 2-14 3-20 0l-6 7s3 6 2 13l-2 20v1h6l1-1 1-1v-1h2l1-1 1-2 1-3v-2h-1v-1-2-2s-4 1-4-2l-1-5h-1l-2-2-1-3h1s1 2 2 1l-1-1v-2-2-1l1 1h1v-1l1-1 1 2v-1h1v9l2 3h1l2-3h2l1-1h-1l-1-1-1-2-2-1-1-2 1-1 2 2v-1-1l1-1 2-1h1v-1h4l2-1 1 1 1 1 2 1 1 1-1 1h-1l1 1v1l1 1-2 1v1l1 2h1v1h-1l-1 1h-1l1 2 2 1h3l3-1 3 1h4c2 0 2-1 2-2l-3-1-5-1c-1 0-4-1-5-3 0-3 2-3 2-4l4-1 5-1h3l1 1c0 1-1 2-3 2l-5 1-3-1c-1 0-2 1-1 3l6 1c1 0 6 0 7 2s0 5-1 5l-4 1-1 1v1l1 2h2l2 2 1 3v3l-1 2-1 3h6v-1c1-5-1-13-2-20z"/>
  <path fill="#6D8C3E" d="M294 186c2 3 4 7 8 9 6 4 8 3 13 6l5 4 5-4c5-3 7-2 13-6 4-2 6-6 8-9h-52z"/>
  <path fill="#D4AF3A" d="M299 158l2 1 1 1 1 4c0 2 3 2 3 2v-3-1l-1-1-2-4 1-4v-1h-1v1l-1-1h-1l1 1h-2v2l1 2h-2v1zM299 157l-1-1v1l1-1zM300 152l-1-1v1h1zM301 151h1v-1h-1v1zM304 151h-1l1 1v-1zM307 167c1 1 2-1 3-2s1 0 1 1l1 3h1v-3l1 1 1 2 1-1v-2h1l1 1 1-1v-2l2 1 1-1-2-3v-1h1l2-1-1-1-2-1h-1v-1h-1l-1 1v0l1-1v-2h-2s0 1 0 0h1l1-1c1 0 0 0 0 0h1l1-1v-2h-2l-1 1c0 1 0 0 0 0v-1l-1-1h-2l-1 1h-3l-1 1v1h1v1h2v2l-1 1h-1 3l1 1v1l-1 1h-1l-3 1-2 2h1l3-1v1h1l1-1h1l-1 2 2-1v1l-1 2-1-1v-1h-3v-1l-2 1-1 2v2zM318 149h1l1-1h-1l-2 1h1z"/>
  <path fill="#D4AF3A" d="M320 152h1l1-1h1l-1-1h-2v2zM320 153l-2 1c-1 0 0 0 0 0l1 1v1h1l1-1h2l-1-2h-2zM311 155l1-1h-1l-4-2v2l4 1zM305 182v1h3v-1l1-3 1-4v-1l-1-2h-1v1l-1 3-2 4h-1-1l-1 1 1 1 1-1h1v1zM301 182l-1 1h2v-1h-1z"/>
  <path fill="#D4AF3A" d="M303 182v1h1v-1h-1zM319 181v1l-1 1h1l1-1-1-1zM321 182h-1v1h1v-1z"/>
  <path fill="#D4AF3A" d="M328 174l1-1-1-1-1-1-3 1-1 2v1h1l1 1v2l-1 2h-4l1 1v2h4l1-2 1-1 1-2-1-1v-2l1-1z"/>
  <path fill="#D4AF3A" d="M322 165v1h-2l-1 2h-1-1l-1 2h-1c-1-1 0 0 0 0l-1-1h-1l-1 1-2-1v-1l-2 1h-1-1l1 2 1-1h2v2l1 2 1-1 1-2 2 1 1 1 1-2s1-1 0 0l1 1 5-2h5l1-1h-5 1l4-1 1 1v4l3 2h1l1-1 2 1v1l1 1-1 1-1 2h-2l-1 1v2l1-1h2v1h2a87 87 0 0 0 2-5v-4-1l-1-2-3-1-1-4-3-2h-9v1z"/>
  <path fill="#D4AF3A" d="M332 182l-1 1h2v-1h-1zM334 182v1h2v-1h-2zM294 183v2h52v-2h-52zM329 158c1 2 6 2 9 2 2 1 2 2 1 3l-4 2v1l2-1 4-1v-4l-5-1-5-1c-2 0-3-1-3-2l2-2h8l3-2h-6c-2-1-3 0-4 1-1 0-3 0-4 2s0 2 2 3z"/>
  <ellipse rx="1" ry="1" cy="151" cx="315" fill="#B96B29"/>
  <path fill="#B96B29" d="M336 152l-3 1h5l-2-1z"/>
  <path fill="#1D5E91" d="M324 176h-1l-1-1v-3l-2 1h-3l-1 1-2-1-2 1-1 3-1 4v2h8v-1l1-1 1-1h3l1-1v-1-1-1zM337 177l-1-1h-1v1h-2l-3-2-1-1-1 1v1l1 2-1 3-1 2h4v-1l1-1 2-1 2-1 1-1v-1z"/>
  <g>
    <path fill="#D4AF3A" d="M304 220l3-1 1-3 1-1-1 2v5c0 2 1 2 2 2l2-2 1-2 1-2v2l-1 4 1 4c1 0 2-1 2-4l2-3v3a12 12 0 0 0 1 4l1 1 1-1 1-4v-3l2 3c0 3 1 4 2 4l1-4-1-4c0-2 0-1 1 0l1 2 2 2c1 0 2 0 2-2l-1-7 1 1 1 3 3 1v-4c0-3-3-4-4-6l-3-5-5 3-4 4-4-4-5-3-3 5-3 2-1 4v4z"/>
    <path fill="#D4AF3A" d="M304 228l1-1h1v5l1 1 2-2h1v4c0 2 1 2 2 1l3-4c0-1 1-2 1 0 0 3 0 8 4 9 4-1 4-6 4-9 0-2 1-1 1 0l3 4c1 1 2 1 2-1v-4h1l2 2 1-1v-5h1l1 1 2 1s1-3-1-5l-2-3h-1l-1-1v2l2 2s1 1 0 0l-2-1-1 2h-2v1l2 3-1-1-2-3h-1v3l-1 1a93 93 0 0 0 0 3l-1-3h-2l-1-2-1 2-1 2-1 4v0l-1-4-1-2-1-2-1 2h-2l-1 3h-1l1-3v-1l-1-3h-1l-2 3-1 1 2-3v-1h-1-1l-1-2-2 1c-1 1 0 0 0 0l2-2v-2l-1 1h-1l-2 3c-2 2-1 5-1 5l2-1zM321 250l-1-1-1 1-3 3 1 4 3 4 3-4 1-4-3-3z"/>
    <path fill="#B96B29" d="M320 254v0l1-2h-2l1 2z"/>
    <path fill="#D4AF3A" d="M320 101l-11-1h-2c4 2 7 2 13 2s9 0 13-2h-2l-11 1zM334 98l-3-2v-1l3-1 1-1-4-1h-11-11l-4 1 1 1 3 1v1l-3 2h2a63 63 0 0 1 24 0h2zM329 99h-18l9 1 9-1zM319 63h2v-2h2v-1h-2v-2h-2v2h-2v1h2z"/>
    <path fill="#D4AF3A" d="M324 66h-3v-3a4 4 0 0 0-2 0v3h-2a3 3 0 0 0-1 1h8a3 3 0 0 0 0-1z"/>
    <path fill="#1D5E91" d="M320 70l4-2h-7c0 1 1 2 3 2zM322 64v1h1l-1-1zM319 64l-2 1h2v-1z"/>
    <path fill="#B96B29" d="M322 93l-2-1-2 1-1 1v1l3 2 3-2v-1l-1-1z"/>
    <path fill="#D4AF3A" d="M318 94l2 1 2-1-2-1zM320 85v1l-1 1 1 1 1-1-1-1v-1z"/>
    <path fill="#D4AF3A" d="M318 86l1-1 1-1 1 1 1 1 1-2v-7l-1-7-2 1-2-1-1 7v7l1 2z"/>
    <ellipse rx="2" ry="2" cy="82" cx="320" fill="#B96B29"/>
    <ellipse rx="2" ry="2" cy="77" cx="320" fill="#B96B29"/>
    <ellipse rx="2" ry="2" cy="73" cx="320" fill="#B96B29"/>
    <ellipse rx="1" ry="1" cy="81" cx="320" fill="#D4AF3A"/>
    <ellipse rx="1" ry="1" cy="77" cx="320" fill="#D4AF3A"/>
    <ellipse rx="1" ry="1" cy="73" cx="320" fill="#D4AF3A"/>
    <path fill="#b96b29" d="M320 224v-1-2-1 4c0 1 0 0 0 0z"/>
  </g>
  <g id="a">
    <path fill="#d4af3a" d="M300 239l4-2c2-1 2-3 2-3l-1-1v-2-3l-2 2h-2v-1l-1 2-5 4-4 3v1l4 2c3 1 4-1 5-2z"/>
    <path fill="#d4af3a" d="M311 238c-1 0-2 0-2-2v-3h-1l-1 1v1c-1 1-1 2-3 2l-3 2-2 3c-2 0-2 1-3 3l1 2 4-1 7-4 3-4z"/>
    <path fill="#d4af3a" d="M317 240l-1-2-1-4-1 2-2 2-1 2-4 3-4 4-1 3h2l8-3c3-2 5-7 5-7z"/>
    <path fill="#d4af3a" d="M318 248l2-5-1-1-2-1-1 2-3 3-4 4 1 5h2l2-2 4-5z"/>
    <path fill="#b96b29" d="M306 217l2-3 1-2-2 2-1 3c-1 1-1 1 0 0zM311 218l1-1v-1l-1 2-1 3 1-3zM316 221v-2s0-1 0 0l-1 2v1l1-1zM302 234l-1 1-1 1-2 1-1 1h1l1-1 2-1 1-2zM307 239l1-1-1 1-2 1-1 1-3 2h1l2-1 1-1 2-2zM312 243c1-1 0 0 0 0l-3 2-2 1v1l1-1h1l1-1 2-2zM315 248l-3 3-1 1h1l1-1 2-2 2-2v-1l-2 2z"/>
    <path fill="#c52126" d="M290 113a15 15 0 0 0-12-1h-4c-1 0-3-2-3-4 0 0-2 3 0 5l3 2 9-2c3 0 5 2 5 2h2v-2z"/>
    <path fill="#d4af3a" d="M280 212h-1l-1-1h-1l-3 2h4l2-1z"/>
    <path fill="#d4af3a" d="M292 211l-1-2-1 1-2 3c-1 1-2 2-1 0l2-3 1-1h-3l-3-2-2-1-4 2h-1l3 1 3 1 2 1-2 4-1 5v1l4-3 5-3 1-1v-3z"/>
    <path fill="#d4af3a" d="M304 201a46 46 0 0 1-1 0l-3 3h-1a12 12 0 0 1 3-3l-5-3-1 1-2 2 1-2 1-2-3-3-3 5c-2 3-7 4-7 4s-2 0-1 1h5l4-1v1l-6 1h-1l3 2h6l-1 3 1 4 1 2c0 1 0 1 0 0l1-4 1-2s1-1 0 0v4 1l5-6 1-2 2-2 3-2-3-2zM257 115l4 8 1 3-1-1-3-5-3-6h-1c-1 0-2 4-1 7l5 7 1 2-1-1-4-4-3-4c0-1 0-1 0 0l-1 3 4 7 3 3-3-2-5-4c0-1-1-1-1 2s3 6 5 7l2 3-2-1-5-3v3c1 3 3 5 5 6l3 2h-2l-4-2-1 1 1 4c1 2 4 2 6 3h2l-1 1h-4l-2 1 2 3 6 2 1 1h-2l-3 1c-1 1 0 2 1 3l6 1h3c1 1 0 1-2 1l-3 1c-1 1 0 2 1 3l6 1 4-1-3 2-2 1 2 2h5l2-1v1l-3 2-2 1c0 1 1 2 4 2l7-1 1-1v1l-3 2-1 1c0 1 0 2 2 3a9 9 0 0 0 9-3v-6h-3l-2-3h-3c-1 0-2 0-3-2-2-1-1-2-1-3h-2l-4-2-1-2-1-1-2-2-2-2-2-2c-2-1-2-3-2-4l1-2-2-1s-2-1-2-3c0-3 2-3 2-3l-1-1c-1 0-3-1-3-3l1-2 2-1-1-2v-3l3-1h2v-1-3l2-2 5 1v-1l-3-4-3-7-3-9-1-1-2 3-1 7z"/>
    <path fill="#d4af3a" d="M291 161l-4-2c-1-2-3-3-6-2-3 0-4-2-5-4 0-2 0-4 3-6s5-3 5-6c0-2-3-5-6-9l-6-9-1 3v2l-2-1c-2-1-4-1-5 1s0 3 1 4l2 3-2-1-4-2c-2 0-2 1-3 2 0 2 2 3 3 4l2 1h-2-2c-1 0-3 1-1 3 1 2 4 2 4 2l1 1h-2c-1 0-3 2-2 3l4 3h2l-1 1-3 1 1 3 4 1h2l-2 2c-1 0-1 2 1 3h4l2-1c1 1-1 1-2 2s-1 3 1 4h5l1-1v3c-1 0-1 3 1 4s5-2 5-2h1v1s-1 2 1 3l3 1 1-5v1h-1-1l1-1h1v-1l1-1a65 65 0 0 0 1-8h-1zM242 125c2 5 6 8 6 8l-1-2v-2l-2-4-3-6 3 6 3 3v-1h1l1 1-1-2-1-2-4-7-4-12c0-2-1-1-1 0l-1 7c0 3 1 8 4 13zM245 139l3 2-1-1v-2l-2-2-4-4 2 1 4 4v-1l1-1-2-2-8-9-4-7s-1 6 3 13l8 9zM264 177c2-1 2-3 2-3l-3 1-5 1h-1l3-1 4-2c1 0 1 0 0 0l-1-1-3 1-9 1-5-1v3c1 2 6 3 10 3l8-2zM255 172l5-1v-1l-1-2h-7c-2-1-1 0 0 0l6-1c1 0 0 0 0 0l-3-2h-8l-7-1h-1l1 3 7 4 8 1zM254 164v-1-1l-3-1-4-1-3-1 2 1 6 1h3l1-1h-1l-2-1-3-1-8-2-7-3h-1l3 4c1 2 2 3 7 5l10 2zM240 152c4 3 9 4 10 4v-2h2v-1h-2l-5-2c-3-1-4-1-3-2l3 2 6 1h-1l-1-2-4-1-7-3-2-1-3-3h-1l2 4 6 6zM239 144l9 4c1 0 0 0 0 0v-2l-3-2-5-3c-1-1 0-1 0 0l4 2 4 3 1-1h1l-1-1-3-2-7-4-6-7v3c0 2 2 6 6 9zM254 112l2 2 1 2v-1-2-2l-1-1-1-5v-6c0-2 0-1 0 0l1 5 1 6v-1l2-3v-1l-2-11-1-12c-2 2-4 8-4 14l1 9 1 7zM250 123l1-3-2-4-1-5v-1c1 6 3 8 3 8l1 3v-3l1-5-4-8c-2-4-1-9-1-12l-1-3s-2 1-2 9a46 46 0 0 0 5 24zM272 182l-2-1v-2l-1 1-3 1-2 1 2-1 4-3h-2l-2-1-5 3-8 2s0 2 2 3h9l8-3zM277 187v-3h-1l-4 3c-2 1-2 1 0 0l4-4h-1l-6 3c-5 3-8 3-8 3s2 3 8 2c6 0 8-3 8-4zM288 185l-1 1-3 1-1 1-2 2-3 1 2-1 2-2v-1h-2l-1 1-2 2-3 3v1l3 1 5-1 3-3c4-4 3-6 3-6zM290 192l-1 1 1-2v-1l-1-3-2 5c-2 2-3 3-2 4l4-1c2 0 2-2 2-3v-1l-1 1z"/>
    <ellipse rx="1" ry="1" cy="106" cx="289" fill="#d4af3a"/>
    <path fill="#d4af3a" d="M287 104l3-1 5 2c2 1 5 2 7 1l2-1c3-1 2-5 2-5-2 2-5 3-7 3l1 1-2-1-4-2h-6l-2 2 1 1z"/>
    <path fill="#d4af3a" d="M318 127c-1 0-2 0-3-2l-4-4 1-2 1-1-3-1-4-4v-1l1-1-2-1-3-3h-6l-4-1-1 1-3 1v-3l-3-1h-6l-2 4c0 2 1 1 1 1l3-2 6 3 4 3c1 1 0 2-2 2h-5s1 2 3 2h7l3 6 2-2s0-1 0 0l2 5-1 4h1l1-1c1-1 1 0 1 1l1 5 3 4 1-2v-5-6s2 3 4 3h6v-2z"/>
    <path fill="#d4af3a" d="M302 134l-1 2-1 1 2 1h2l-2-2v-2zM316 133v-1l-6-1 2 3h2s-1 1-3-1l-2-3v6l-1 3 7-1 3-1v-1l-2-3z"/>
    <path fill="#b96b29" d="M310 125l-1-2v1l3 2 2 1-4-2zM306 133v-6h-1l1 7v-1zM299 112c0-1-1-1 0 0l2 3v2l-1-1-3-1v1l2 2 3 2 1 1-1-6-3-3zM278 178l-2 1h1l1-1 1-1-1 1zM285 182l-2 1h-1v1l3-2v-1 1zM257 132l1 1-1-1v-1l-1-1s-1 0 0 0l1 2zM255 137h1v0l-1-1h-1l1 1zM256 144l1 1-1-1a16 16 0 0 1-2-2h-1l1 1 2 1zM257 150h-1l-1-1 1 1h1zM258 157h-2 3c1 0 1 0 0 0h-1zM265 164h-1-4 5zM268 169h-3v1h2l2-1s1 0 0 0h-1zM274 173l-2 1-1 1h1l2-2 1-1-1 1zM264 123l1 1c1 2 1 0 1 0l-3-3 1 2zM262 129l-1-1-1-2h-1l1 1 1 2h1zM265 142l-2-1h-1-1l3 1h1zM262 135l2 1 1 1-1-1-1-1h-1s-1-1 0 0zM269 131l-1-1h-1l1 1 1 1v-1zM264 148h1-1zM265 154h1l2-1h-1l-1 1h-1zM273 158l1-1h-1l-1 1-1 1h-1 2l1-1zM277 163l1-1 1-1-1 1-3 1v1c-1 0 0 0 0 0l1-1h1zM283 168l1-2h0l-2 1v1c-1 0 0 0 0 0h1z"/>
    <path fill="#d4af3a" d="M306 97l2-2-3-1-2 2z"/>
    <ellipse rx="2" ry="2" cy="95" cx="313" fill="#b96b29"/>
    <ellipse cx="313" rx="1" cy="94" ry="1" fill="#d4af3a"/>
    <path fill="#d4af3a" d="M308 88h2l-1-2-1-1v1 2zM307 88l-1 1h1l1 1 1-1-1-1h-1z"/>
    <path fill="#d4af3a" d="M308 91l-3-2c0 2-1 2-2 2l2 1h2l2-1v-1l-1 1zM303 89h-2-1l2 1h1v-1zM299 87h-2v1l1 1 2-1-1-1z"/>
    <path fill="#d4af3a" d="M300 85c0-2 0-4 2-6 1-3 4-4 4-4l1-1 3-2-3 1-2 1h-1l-3 2v1l-1 1h-1v1l-1 2v1l-1 2v1l1 1 2 2v-3z"/>
    <path fill="#d4af3a" d="M306 74v-1h-1v1h1zM300 77v-1h-1v1h1z"/>
    <ellipse cx="297" rx="1" cy="82" ry="1" fill="#d4af3a"/>
    <path fill="#d4af3a" d="M316 70l-3 1 2 1-2 2-2-2h1l-2 1c-2 1-3 2-4 5-2 3-2 5-2 7 1 2 3 2 3 2v-1-1-1h1l1 1 1 1v-1-3l1-5 5-4 1-1v-1l-1-1z"/>
    <path fill="#d4af3a" d="M313 73l1-1-1-1-1 1 1 1zM317 89h2v-1h-2l-1 1h1zM319 90l-1 1-2-1-1-1h-1v1h-4 1l2 1h6l1-1h-1zM311 89h1l1-1h-3l1 1z"/>
    <ellipse cx="307" rx="2" cy="81" ry="2" fill="#b96b29"/>
    <path fill="#b96b29" d="M310 75l-2 1v2l2-1v-2z"/>
    <ellipse cx="307" rx="1" cy="81" ry="1" fill="#d4af3a"/>
    <path fill="#d4af3a" d="M309 75l-1 1 1 1v-2z"/>
  </g>
  <g>
    <path fill="#D4AF3A" d="M282 213l-3 1h-1l-4 3-4 2h-11l-5 1c-2 2-2 4 0 5s3 1 3 0v-3h5l4 1-1 1-2-1-3-1v1l1 1-1 1 1 1v-1-1h2l1 2v5l1-1 1-2v-1l1 2h1l1-1 3-3 4-3 4-3 1-2 1-3v-1zM238 164v-2h-1l-1 1c-1 1-1 0-1-1v-2h-1-1l-1 1 1 2v1h-1l-1 1 1 2 2-1c0-1 0 0 0 0l1 3h2l1-1-2-3 2-1c1 0 1 0 0 0zM253 228v-2l-1-2v-1h-1l-2 2c0 1 1 3 3 3h1zM255 227v2l1 1v-1-1l-1-1z"/>
    <path fill="#D4AF3A" d="M257 233l2-1h3l1-2-2-2h-1l-1 1-1 1-1 1-1-1h-2-3l1 2 2 1 2 1 1-1zM265 234l1-2h-2-1l-1 1-3 1-2 1h-1-1l1 1 2 1 1-1 1-1h3l2-1zM265 231h1l1-2-1-1-1 2v1zM263 226l-1-1v1l-1 1h1l1-1zM258 228l2-1v-1l-1-1h-1v1l-1 1 1 1zM260 224l-1-1v-1 1l-1 1h2zM248 200l1-4-4-10-5-9-1-6 1-3h-1l-1 2h-3l-2 1 2 1 2 1 2 5 1 8 3 10c0 1 3 5 5 4zM251 207l-1 6c0 2 2 5 3 5l1 1 2-1v-3l-2-5-3-3zM252 204l-3-2h-1c-1 2-1 4 1 4h2l1-2zM269 239h-1l-2-2-1-1-3 1 1 1v5l1-1 2-2h3v-1z"/>
    <path fill="#D4AF3A" d="M266 241h-1v2h1v1l1-1v-1l-1-1z"/>
    <path fill="#1D5E91" d="M397 216h-2l-2 1-1 2 1 1 3-1 1-2v-1zM399 208c-1-2-2-5-5-7l-1 5v2l5 1 1-1zM385 206l1-1 2-6-6 1-4 4 3 1 4 1zM378 212h-1l2 4 4 2c3 0 4-1 5-2v-2l-6-1-4-1z"/>
    <path fill="#D4AF3A" d="M378 210l10 2h2l1-1v-2h2l1 4 3 1h1l1-4-1-1-6-1v-1l1-6-5-2-1 7h-2l-7-1-1 1-1 3 2 1z"/>
    <path fill="#D4AF3A" d="M400 216h-2l-1 4-5 2c-1 0-2-1-2-3l3-3v-3h-2l-2 2-2 3-6 2c-2-1-3-1-4-4l-2-6h-2l-1 3 1 3 2 3c1 1 2 3 0 3l-3-1-7-5-1-1-6-3 1 5v1a675 675 0 0 0 13 7c2 1 3 3 6 2l11-3 10-3c2-1 2-1 2-3l-1-2zM389 195h1l1 1-1 2v1h2v-1l1-2c0-1 0-1 0 0h2l1-1-1-1h-2v-1l1-1v-1h-2l-1 2h-2c0-1 0-1 0 0l-1 2h1zM392 209v3h1v-1l-1-1v-1zM399 214l1 1v-1-1h-1v1zM374 209l1 1 1-2v-2l-1 1-1 1v1z"/>
    <circle cy="207" cx="379" r="2" fill="#B96B29"/>
    <circle cy="209" cx="384" r="2" fill="#B96B29"/>
    <circle cy="211" cx="396" r="2" fill="#B96B29"/>
    <circle cy="210" cx="388" r="2" fill="#B96B29"/>
    <circle cy="206" cx="389" r="2" fill="#B96B29"/>
    <circle cy="202" cx="390" r="2" fill="#B96B29"/>
    <circle cy="207" cx="379" r="1" fill="#D4AF3A"/>
    <circle cy="208" cx="384" r="1" fill="#D4AF3A"/>
    <circle cy="211" cx="397" r="1" fill="#D4AF3A"/>
    <circle cy="209" cx="388" r="1" fill="#D4AF3A"/>
    <circle cy="206" cx="389" r="1" fill="#D4AF3A"/>
    <circle cy="202" cx="390" r="1" fill="#D4AF3A"/>
  </g>
  <use xlink:href="#a" transform="matrix(-1 0 0 1 640 0)" height="320" width="640"/>
</svg>
