<svg xmlns="http://www.w3.org/2000/svg" xmlns:xlink="http://www.w3.org/1999/xlink" width="450" height="300" viewBox="0 0 660 440">
  <path fill="#00785E" d="M0 0h660v440H0z"/>
  <path fill="#FBD116" d="M330 83l-14 44 37-27h-46l37 27z"/>
  <g id="a">
    <path fill="#FFF" d="M330 304h-94l-3-4h97l1 2-1 2zm0-29c1-1 2-3 1-7l-1-3a75 75 0 0 1-51 20h-58l5 8h56c18 0 35-7 48-18zm-100-22l-9 2a74 74 0 0 0 109 2 404 404 0 0 0 0-116c-6 5-17 17-23 35a74 74 0 0 0 10 62 74 74 0 0 1-9-77c-3-3-5-7-7-12a74 74 0 0 0 5 81 87 87 0 0 0-67-27c3 2 5 5 6 8 25 0 47 11 63 27a87 87 0 0 0-89-13 74 74 0 0 0 75 47 75 75 0 0 1-64-19zm100 81h-49c15 6 32 9 49 9a10 10 0 0 0 0-9zm0-22h-86l7 5h79l1-3-1-2zm0 11h-70l13 7h57a7 7 0 0 0 0-7z"/>
    <path fill="#FBD116" d="M238 151l-14 29 28-16-32-4 24 22zM261 112l9 31 10-30-26 18h32z"/>
  </g>
  <use xlink:href="#a" transform="matrix(-1 0 0 1 660 0)"/>
</svg>
