<svg version="1" xmlns="http://www.w3.org/2000/svg" xmlns:xlink="http://www.w3.org/1999/xlink" width="750" height="500">
  <path fill="#21428e" d="M0 0h750v500H0z"/>
  <path d="M375 0v500M0 250h750" stroke="#fff" stroke-width="73"/>
  <path id="a" d="M62 12l-4 3v2l-10 1h-4l2 1h-2l8 1 7-2 2 1h25c2 3 0 5-6 6-7 1-10 3-12 6-7 7 1 15 15 16 8 0 14 2 12 3l-12 2c-14 1-20 3-25 8-3 3-4 5-4 7 0 3 0 3-5 3l-9-1c-3-1-3-1-2 1 2 2 8 4 12 4s6 1 9 3c7 5 14 7 26 6 16 0 25-4 25-11 0-5-6-8-18-9-7-1-19 0-25 2l3-2 14-3c15-1 21-4 21-10s-6-10-20-11-15-3-3-7c8-2 12-6 12-11 0-7-4-10-18-11-8 0-10 0-14 2zm8 2l-2 1v-1l1-1 1 1zm28 56c2 1 3 1 2 2-1 2-12 3-19 3-7-1-15-3-13-4 7-3 24-3 30-1z" transform="scale(2.3)" fill="#fff"/>
  <use xlink:href="#a" x="411"/>
  <use xlink:href="#a" y="286"/>
  <use xlink:href="#a" x="411" y="286"/>
</svg>
