<svg xmlns="http://www.w3.org/2000/svg" xmlns:xlink="http://www.w3.org/1999/xlink" width="840" height="480">
  <defs>
    <linearGradient id="a">
      <stop stop-color="#fff" offset="0"/>
      <stop stop-color="#f15770" offset="1"/>
    </linearGradient>
    <radialGradient id="b" xlink:href="#a" gradientUnits="userSpaceOnUse" cx="842" cy="104" r="26" gradientTransform="matrix(.18574 .04718 -.04532 .18635 234 199)"/>
    <radialGradient id="c" xlink:href="#a" gradientUnits="userSpaceOnUse" cx="652" cy="550" r="26" gradientTransform="matrix(-.17642 -.07067 .06515 -.16392 431 378)"/>
    <radialGradient id="d" xlink:href="#a" gradientUnits="userSpaceOnUse" cx="381" cy="740" r="26" gradientTransform="matrix(.0989 .0037 -.0045 .1943 442 123)"/>
  </defs>
  <path fill="#ce1126" d="M0 0h840v480H0z"/>
  <path fill="#fff" d="M0 0h560v480H0z"/>
  <path fill="#006847" d="M0 0h280v480H0z"/>
  <g fill="#fcca3e" stroke="none">
    <path d="M467 304v5l2-1-1-5z"/>
    <circle cx="467" cy="302" r="2"/>
    <path d="M474 313l-4-4-2 1 6 4zM474 315v-3l3 1-1 2h-2zM507 251l4 5 1-3-4-2z"/>
    <circle cx="506" cy="250" r="2"/>
    <path d="M519 254l-7 2v-2l6-1z"/>
    <circle cx="520" cy="253" r="2"/>
    <path d="M496 287l-4-6 1-1 4 6z"/>
    <circle cx="492" cy="279" r="2"/>
    <path d="M496 287l6 1v-1l-5-1z"/>
    <circle cx="503" cy="288" r="2"/>
    <path d="M374 302l-2 1-1-1 1-2 2 2zM374 305l1 6h-2v-6z"/>
    <path d="M375 302c1 1-1 3-2 3-1 1-3 0-3-1 0-2 2-1 3-1 0 0 1-2 2-1z"/>
    <ellipse cx="364" cy="312" rx="2" ry="1"/>
    <path d="M367 312h6l-1-1h-5z"/>
    <path d="M368 311c0 2 0 4-2 4l-1-2c-1-2-2-3 0-4 1-1 2 1 3 2z"/>
    <ellipse cx="347" cy="277" rx="1" ry="2"/>
    <path d="M347 281v6l-1-1v-5zM349 279c1 2-1 2-3 2l-2-2 3-1c0 1 2-1 2 1z"/>
    <ellipse cx="336" cy="287" rx="2" ry="1"/>
    <path d="M340 287l5-1 2 2-7-1zM338 284c2 0 2 1 2 3 0 1-1 3-2 2l-1-1v-1-2l1-1zM334 247l-2 1 1-2 1-1v2zM329 256l3-6h-1l-3 4z"/>
    <path d="M331 250l-1-3h1l2 1h1v2h-3zM320 249l1 2h-2c-1 0-2-1-1-2h2zM323 252l5 3v2l-6-4z"/>
    <path d="M323 253h-3v-1l1-1 1-2 1 1v3z"/>
  </g>
  <g fill="#aa8c30">
    <path d="M468 304l-1 1v1-2l1-1v1z"/>
    <path d="M468 303h-1l-2-1v-1c1-1 0 0 0 0v2l1 1h2v-1zM474 312l-1 1-5-3 5 3 1-1zM477 314l-1 1h-2l-1-1c0-1 0 0 0 0l1 1 1 1h1v-1h1v-1zM509 251v2l-1-1v-1h1zM508 250l-2 2c-1-1-2-2-1-3v2l1 1h1l1-1v-1zM521 252l-1 2-2-2v2h1v1h1l1-1 1-1-1-1zM517 253l-1 1-1 1 3-1v-1h-1zM494 283v1l-2-3h1l1 2zM493 279l-2 1-1-2v2l1 1h1l1-1v-1zM501 287h-3l3 1v-1zM505 288l-2 2c-2-1-2-2-1-3l-1 1v1l1 1h2l1-1v-1zM375 302c0 1 0 2-2 3-1 1-2 0-2-1l-1-1v2h4l1-1v-2z"/>
    <path d="M374 306h-1v1-2l1 1zM369 311v1h1-2v-1h1zM368 313l-2 2-1-2v-1 2l1 1h2v-2zM362 312l1 2 2-1v1h-3v-2zM349 279v1l-2 1-2-1-1-1v1h1l1 1h3v-2zM347 282h-1v1-2h1v1zM341 287l5 1h-6v-1h1zM340 287l-2 2-1-1v1h3v-2zM337 287h-1-2 3zM335 249l-1 1h-2l-2-2 1 1v1l2 1 1-1h1v-1z"/>
    <path d="M331 251v2l1-3h-1v1zM324 253l3 4-4-4v-1l1 1zM322 253h-1-1v-1l-1 1h1v1h1l1-1zM320 251l-2-1 1 1 1 1v-1z"/>
  </g>
  <g fill="#9ca168">
    <path d="M525 239c-1 5-6 7-8 9-3 2-4 5-4 5l-1 2v11l3-2 3-1h1l-4 6c-1 3-3 9-7 11l-8 2-1 2-2 2-1 2-1 1h-1v2l-1 4 2-1h1l-1 2s1 6-4 9-18 2-18 2l-2 1-3 2-2 2v1l-2 2-4 3h3l4 2-4 1c-2 0-11 5-15 5-5 0-11-6-11-6l-2-2-5-1h-6v-2h5l6 2 5-1 8-6 7-3 3 1h1l2 1-2 1-2 1 1 1 5-1 2 1 1-2c1 0 3-3 5-3l1-2 2-4 1-2 5-5 3-4 2-5v-1l1 5-1 3 6-3 3-1 3-2 1-3v-13l3-7 5-4v3l3-4h1l1-3 1-4v-4l-1-3-2-5v-8l-2-2s2 0 3 3l3 6 4-13 2 4 1 4 2-3v1c1 1 3 3 3 8zm-89 85s0-2-5-4l-7-2v1l7 3 3 3 2-1z"/>
    <path fill="#717732" d="M466 312l6-5 4-1 9-3c6-4 7-7 8-8l3-1-4 5-8 6c-3 2-10 2-10 2l-5 3-3 3v-1zm16-17l-7 9 7-6 8-5 2-3 2-2s-2-2-12 7zm-11 11l3-3 1-3 8-8c3-4 2-8 2-8l-1 4-10 9v5l-3 4zm-4 14s-2-2-6-2c-6 1-11 5-15 5-5 0-6-2-10-4-3-3-12-2-12-2l9 1c4 1 7 6 13 6 7-1 12-5 15-5l6 1zm-31-3s5 1 9-2c3-3 8-7 10-7l6 1-6-2-8 2-6 6-5 2zm-1 6l-2 1-4-3-5-2v1l5 2 4 2 2 1c1 0 2 0 1-1l-1-1zm3-4l6 1c7 0 11-5 15-7 5-2 7 0 7 0l-5-2c-7 0-15 5-18 6l-5 2zm74-53l-8 13-4 3-4 6-1 1c-1 0-1 0 0 0l2-2 3-4 7-5 6-12 6-3s-3-1-7 3zm-12 15l2-3 3-5 3-9 3-7-3 3c-2 3-5 7-6 11l-2 10zm-2 3l1-4v-12l7-9s-2 0-5 3c-4 3-5 6-5 9l2 8v5zm14-27l2-6c0-1 0-2 3-5 2-2 4-4 4-6l1-10-1 2-2 8-4 9v-8c0-4 1-5 2-7v-9l-3 4-1 10v13l-1 2-1 4 1-1zm-5-28s2 2 2 5c-1 2-2 6-1 8 1 3 3 3 3 5l1 4v-7l-2-2v-9l-3-4z"/>
    <path d="M403 324l4-3 9-4v2l-4 1-2 2-4 2h-3z"/>
    <path d="M412 314l-8 2h-2l-2-2-1-1v4l-7-6v4l-1 1-7-6v5h-1l-5-3h-1l1 3-6 1-1 1-1 1s-1 0 0 0h3l1 1c1 0 4-2 6-1s-3 2-3 4c1 2 4 1 5 0 1 0 4-4 5-2 2 2-3 3-2 5s3 1 5 0c1 0 4-5 5-4 1 2-3 3-2 5 1 1 3 0 5-1l3-5h3l2-2 4-2 2 1h4v-2l-4-1zm-36 0l1-1-1-1-3-2-3-3-3-1-1-4v-1h-2l-2-8-1-1h-1l-1 5-2-3-1-7-1 2-2 1-3-6v1l-1 3a33 33 0 0 1-7-7l-2-3 2-3v-3l-3 1v-7l-1-3-3 5-1-2v-5h-1l-2 3-2-4v-5c-1-3-2-5-1-7l1-3c0-1-2 1-1-1 0-1 5-4 4-5-1-2-6 2-5-1 1-2 6-2 6-6 0-2-4 1-5 0 0-1 3-3 3-5v-2c-1-1-4 3-4 3l-2-1-1 4-1 3-4-2 1 4 1 4-3-1 1 4 3 2 1 2 2 1 1 1 1 2v5l1 2-1 1v2h-2l2 3-5 1 3 3c2 1 7 2 6 3s-6-3-6 0c0 2 2 3 4 4l6 1c0 1-4 0-5 2l4 2h3l6 6 6 4-3 1c-1 0 8 3 5 4-2 1-5-2-5 0-1 2 1 4 2 5 2 0 9 0 8 2-2 1-7-2-7 0s3 6 5 6c2-1 4-4 5-2v3l6-2 7 4 4 3z"/>
    <path fill="#717732" d="M405 323l1 1 5-3c2-2 5-2 5-2l-5 2-4 3-3 1-1-1 2-1zm11-6h-2l-3-1c-2 0-4 0-5 2l-2 2 2-2 5-1c1-1 2 0 3 1h2v-1zm-66-27v-1l-3-1-7-5 4 3 5 4h1zm46 33l2-3 3-2-1-2v-2l1 2 1 1h2v-1h-2l-3-4-1 3c-1 0-2-6-6-6l-3 1c0 1 3 4 2 5-1 0-5-6-7-6-3 0-3 1-3 2 0 0 3 1 2 3 0 1-3-3-5-3l-3 1v2l-3 1-2 3s1-2 3-2h7l-1-2-1-2 2 2 2 2h3l-1 2-3 2 3-2 2-1h2l-1-2-2-4 2 3 2 3h2l-1 3-1 3 2-3 2-2h2l-1-2-1-4 2 4 1 2h3l-1 2-2 3zm-28-16h2s-2-1-2-3l-1-5-3 2-1-8c-1-2-3-4-4-3 0 1 0 6-1 5-2-2 0-6-1-7 0-2-1-4-2-3l-1 4c-2 0-1-3-2-3h-1l-1-2v2l1 3 1 1-1 1h-3l3 1h2l2 3v-3-4l1 3-1 4 1 2h-8l4 1h5l3 3 1-4v-4 9l-3 1-5 1h5l3-1 1 1 2 1-1 1-2 1 3-1 1-1 1 1v-2l-1-2 1 2v2l2 1zm-41-47l1-5-2-7h-1l1-2-1 1-2-1-1-1 2 1h1l-1-2-2-1-4-3 4 2 2 1 2-1 2-2-2 1-2 1v-3l-2-2-2-4 2 3 2 1 2-1 4-2-4 1-2 1v-2l1-2-1-1 1-3v1l1 2 4-5v-1c-2 0-2 2-3 2l-2-2-2 4v4c-1 0-2-3-3-2-2 0-2 2-2 3l2 5c-1 1-3-3-5-1-1 3 5 6 5 6l2 2 3 3 2 7v4zm16 23s-2-2-1-5c0-3 2-7 1-8 0-1-2 3-3 2l1-7c-1-2-1-4-3-4-2 1-2 6-3 5v-5l-2-1-2 3s-1-4-3-3l3 6 1-2 1-2v5h-3l-3-1 3 1 3 1a76 76 0 0 0 3 4l1-3 2-4-1 5-1 4-4-1-4-1 4 2 4 1 2 2 1-2 2-2-1 3-1 2h-3a627 627 0 0 0 3 1l1 2 2 2z"/>
  </g>
  <path fill="#fff" d="M413 332l-2-2h-2l1-3 7-7 1-7h5v10h1l8 5v2l-1 1h-4l-6-3-2-3-4 5-2 2z"/>
  <path fill="#016848" d="M418 313v9l-6 4c-3 2-3 4-3 4h-2l-2 2s1-4 5-7l5-4v-7l1-1h2zM428 334l1-2 1-1-2-1-4-1-3-3-2 2 2 2 5 2 2 2z"/>
  <path fill="#cd202a" d="M422 313h2l1 1-1 7-1 4-6 5-3 3-1-1-1-1 5-5c2-1 4-3 5-6v-7z"/>
  <path fill="#cd202a" d="M436 330h-4l-3-2-4-2-3-3 2-3 3 4 6 3 3 3z"/>
  <g>
    <path fill="#30c2dc" stroke="#0872a7" d="M453 299s-5-1-5-3c1-2 11-4 11-4v-3l-4 1-11 2-5-1a2428 2428 0 0 0-40-2c-5-1-8-8-8-8h-3s1 4 0 4c-2 1-18-7-18-7l-1 3s10 5 9 7c0 2-3 2-3 2l1 2c1 0 16 1 17 6l-4 3 1 1v1s9 0 11 1l7 5c2 2 22 2 25 1 4-1 6-5 12-7l7-2z"/>
    <circle fill="#fff" stroke="#0872a7" cx="373" cy="292" r="3"/>
    <circle fill="#fff" stroke="#0872a7" cx="389" cy="279" r="3"/>
    <circle fill="#fff" stroke="#0872a7" cx="455" cy="300" r="3"/>
    <path fill="#f8c83c" d="M361 275c-1 2 3 6 5 7 3 0 4-1 4-2v-3c-2-2-8-4-9-2z"/>
    <path fill="#fff" d="M369 278l-4-2h-2l4 2-1 2h2l1-2z"/>
    <path fill="#f8c83c" d="M391 302c0 2-1 3-3 4-2 0-6 0-6-2-1-1 1-3 3-4s5 0 6 2z"/>
    <path fill="#fff" d="M387 303l1 1 1-2-2-1-4 3h2l2-1z"/>
    <path fill="#f8c83c" d="M458 293c2 2 5 0 6-1s3-2 2-4l-4-1-4 2v4z"/>
    <path fill="#fff" d="M459 291s0-2 2-2h4l-2 1h-2c-1-1-2 1-2 1z"/>
  </g>
  <g fill="#f9aa51" stroke="#953220" stroke-linecap="round" stroke-linejoin="round">
    <path d="M422 286h-9l5 13 5 7 2 1h4l1-2-2-13-6-6z"/>
    <path d="M408 287v-1h5l4 6 4 9 4 6h-5l-3-1-7-11-2-8z"/>
    <path d="M405 286h3s4 3 5 7l2 8c2 4 5 6 5 6h-8l-5-1-2-2h-3l1-4-1-9v-5h3zM435 288l-5-2h-9a431 431 0 0 0 4 14l4 7c1 1 6-2 6-2h4l-1-4v-13h-3z"/>
    <path d="M403 288l2 1 1-2c0-1-1-3-3-3s-3 3-3 4l1 3-1 4c0 3 2 5 2 5l-2 4 3 3c2 0 4-1 4-3l-2-2-2 1M437 289l-2 1-1-2 3-2c1 0 3 2 3 4l-1 3 1 3-2 4s2 1 2 4c0 2-2 3-3 3l-3-2c0-2 1-3 2-3l1 2"/>
    <path fill="#953220" d="M406 303h1l1 2 12 1h12l2-3 1-1-1 1v2l1 1-1 1-3 1h-20l-4-1-1-1 1-2-1-1zM432 287l2 1-2 3-1 3h-8l-1-3 10-4z" stroke="none"/>
  </g>
  <g fill="#231f20">
    <path d="M455 286l-2-1-1-3 2 1c-1 1 1 3 1 3zM468 282l1 2 2 1-2-1-2-2h1z"/>
    <path d="M472 283l-2 1-1-2 1 1h2zM479 278h-1-2l2-1 1 1zM469 264l-2 1v2l1-1 1-2zM462 268l-1 1v2l1-2v-1z"/>
    <path fill="#8cbebf" stroke="#04534e" d="M450 276l-4 4s9 5 15 4c7 0 15-5 15-6 1-1 0-6-1-7 0-2-5-5-7-5s-5 2-7 5c-3 3-3 5-7 5h-4z"/>
    <path fill="#0c8489" d="M449 277s9 2 12-1l7-8c2-2 3-1 3-1l2 2 2 2 1 4v3l-3 2-5 2-5 2h-4l-9-3-2-1-1-1 2-2z"/>
    <path fill="#04534e" d="M463 272l1-1 2 1-2 2-1-2zM467 274l1-1 2 2-2 1-1-2zM465 280l2-1 1 1-1 2-2-2zM461 278l1-1 2 2-2 1-1-2zM453 279a2 2 0 1 1 4 0 2 2 0 0 1-4 0z"/>
    <path fill="#8cbebf" d="M467 274l1-1 1 2-1 1-1-2zM466 280l1-1 1 1-1 1-1-1zM461 278l2-1v1l-1 2-1-2zM463 272l1-1 1 1-1 2-1-2zM453 279l2-2 2 1c0 1-1 3-3 3l-1-2z"/>
    <path d="M456 277l-2 1v2l1-1 1-2zM463 276l-2 2 1 1v-2l1-1z"/>
    <path d="M464 277l-2 1v1l1-1 1-1zM465 270l-1 1v1l1-1v-1zM470 273l-2 1v1l1-1 1-1zM469 278l-1 2h-1v-1l2-1z"/>
    <path fill="#04534e" d="M476 275s1 2-2 4c-2 1-8 5-14 5l-12-4h-1l1 1 5 2 5 1 3 1 3-1 5-2 5-2 2-2v-3z"/>
    <path d="M361 242l1 2-1 1v-2-1zM371 251l-1 2-1-1h1l1-1zM349 252l1 1h1l-1-1h-1zM353 260l2 1 2-1h-4zM360 266l2-1v-2l-1 1-1 2z"/>
    <path fill="#8cbebf" stroke="#04534e" d="M371 261s1-8-5-13c-7-6-11-5-13-3s-4 9 2 15c7 6 16 4 16 4v-3z"/>
    <path fill="#0c8489" d="M351 253s0-5 2-6 9-2 12 4c4 7 4 10 3 13h-4l-5-2-5-4-3-5z"/>
    <path fill="#04534e" d="M370 262l-3 1c-3 0-14-2-16-12v3l1 2 2 3 3 2 3 2 3 1 3 1h2l2-3z"/>
    <path fill="#04534e" d="M364 260l2-1h1l-1 2-2-2zM365 254l1-1 1 1-1 1-1-1zM360 260l1-1 2 1-2 1-1-1zM360 254l1-1 1 1-1 2-1-2zM355 255l1-2 2 2-2 1-1-1zM356 250l1-1 2 1-2 1-1-1zM361 249h1l1 1-1 1-1-2z"/>
    <path fill="#8cbebf" d="M356 249h2l-1 2-1-2zM355 255l1-2 1 1-1 2-1-1zM361 249h2l-1 1-1-1zM360 254l1 2 1-2-1-1-1 1zM365 253l1 2 2-2-2-1-1 1zM360 260l1-1 1 1-2 1v-1zM364 259l2-1 1 1-2 1-1-1z"/>
    <path d="M366 251l1 2-1 1v-1-2zM362 247v2l-1-1 1-1zM357 247v3l-1-1 1-2z"/>
    <path d="M355 248l1 1 1 1h-1l-1-2zM359 253l1 1 1 1-1-1-1-1zM354 253l2 1v1l-1-1-1-1zM365 257v0zM364 258l1 1v0l-1-1zM359 259h1l1 1h-1l-1-1z"/>
    <path fill="#04534e" d="M357 244s-4 1-5 3l-1 6v-3l1-3 1-2 2-1h2zM371 260l-1-4-4-8 2 2 2 3v2l1 2v3z"/>
    <path d="M375 255l2 1-1 1-1-1v-1zM369 272l1-2h2l-1 1-2 1zM379 276l2-2v-1l-1 1-1 2zM378 275l1-2 1-1v2l-2 1z"/>
    <path fill="#8cbebf" stroke="#04534e" d="M396 267s-7-10-17-11c-8 0-11 7-11 10 1 2 4 7 15 7 11 1 12-5 13-5v-1z"/>
    <path fill="#0c8489" d="M388 260l4 4 1 3c-1 0-7-6-12-7s-9 0-10 3c-1 2-1 5 2 7l12 3 5-1 3-1 1-2 1-2v-1l-3-3-4-3z"/>
    <path fill="#04534e" d="M380 261l-2 1-1-1 1-1 2 1zM374 263h1l1 1-1 1-1-2zM380 267l2-1 1 1-2 2-1-2z"/>
    <path fill="#8cbebf" d="M375 268h1l2 1-2 1-1-2z"/>
    <path fill="#04534e" d="M384 271l1-1 1 1-1 1-1-1zM388 268l1-1 1 1-1 1-1-1z"/>
    <path fill="#8cbebf" d="M379 261l-1 1-1-1 1-1 1 1zM376 263l-1 1-1-1h2zM377 268v1l-2-1 1-1 1 1zM383 267l-2 1-1-2 1-1 2 2zM390 268l-1 1-1-1c0-1 0-2 1-1l1 1zM386 271l-1 1-1-1 1-1 1 1z"/>
    <path d="M386 267h2l1 1h-1l-2-1zM382 271h2-2zM379 265l2 1 1 1h-2l-1-2zM379 267h2-2zM374 267l2 1v1l-1-1-1-1z"/>
    <path d="M374 269l1-1h1v1h-2zM373 263h1l1 1h-1l-1-1zM376 259l2 1v1h-1l-1-2z"/>
    <path fill="#04534e" d="M394 270s-3 2-10 2c-8 0-14-3-16-6l1 1 2 2 5 3 5 1h9l3-2 1-1zM395 266l-3-3-8-5 5 2 4 3 2 3z"/>
    <path d="M395 260l2 1 1 1-1 1-1-1-1-2zM400 257l3 2v1l-2-1-1-2zM402 257l2 2v1l-1-1-1-2zM411 259l1 1v2l-1-1v-1-1zM413 260l2 2-1 1-1-1v-2zM397 279l2 1 1-2h-1l-1 1h-1zM406 282l2-1 1-2-2 1-1 2zM414 282l1-1 1-2-1 1h-1l-1 2zM416 282l1-2v-1l-1 1v2z"/>
    <path fill="#8cbebf" stroke="#04534e" d="M394 270c0-3 4-10 9-10 3 0 7 1 10 3l6 3h5l6-1-5 8-2 1s-1 3-6 5c-4 2-12 1-16 0-3-1-8-4-7-9z"/>
    <path fill="#04534e" d="M394 270l1-3 3-4c2-2 3-3 5-3l5 1 5 2c2 0 3 1 3 2l3 1h11l-5 6-2 2s-2 3-6 5l-6 1-10-2-5-2-2-6h-1c0 3 1 5 3 6 1 2 3 3 5 3l10 1h6c5-2 7-6 7-6h-1 1l2-1 5-8-7 1a21 21 0 0 1-5-1l-2-1-4-2a38 38 0 0 0-10-3l-4 2a15 15 0 0 0-6 9h1z"/>
    <path fill="#0c8489" d="M425 271l-2 1s-15-9-19-9c-5 1-9 3-9 7 0 5 1 5 2 6l9 3h10l4-2 2-2 2-2 1-2z"/>
    <path fill="#04534e" d="M402 269l-1 1-2-1 2-1 1 1zM404 265l1-1 2 1-2 1-1-1zM412 267l2-1 1 1-1 1-2-1zM414 273l2-2 1 1-1 2-2-1zM410 276l1-1 2 1-1 1-2-1zM402 275l1-2a1 1 0 1 1 0 3l-1-1z"/>
    <path fill="#8cbebf" d="M402 269l-1 1-2-1 2-1 1 1zM406 265l-1 1-1-1 1-2 1 2zM415 267l-1 1-2-1 2-1 1 1z"/>
    <path fill="#04534e" d="M410 270l-1 2-1-1 1-2 1 1z"/>
    <path fill="#8cbebf" d="M404 274l-1 2-1-2 1-1 1 1zM410 270l-1 2-2-2 2-1 1 1zM417 272l-1 2-2-2 1-1 2 1zM413 276l-2 1-1-1 1-1 2 1z"/>
    <path d="M413 271l3 1v1h-1l-2-2zM411 264l2 2 1 1h-1l-2-3zM406 268l2 1 1 2-2-1-1-2z"/>
    <path d="M405 269l3 1 1 1h-1-1l-2-2zM403 263l2 1v1h-1l-1-2zM398 266l3 2v1l-2-1-1-2zM397 269h3-3zM409 276l2-1 1 1h-3zM401 275l1-1h1l-1 1h-1z"/>
    <path fill="#04534e" d="M423 274l-5 3c-3 2-5 2-9 2a20 20 0 0 1-15-7l1 2 2 3 3 1 5 2h7l4-1 3-1 1-1 2-1 1-2zM419 266l-3-1c-3-2-6-4-12-4s-8 4-8 4l3-3 2-2h4l3 1h2l3 1 2 2 3 1 1 1zM427 268h-5l-1 1-1-3h5l2 1v1z"/>
    <path fill="#0c8489" stroke="#04534e" d="M421 292l1 1h7l2-2 1-4 1-2 4-2 4-2h3l3-1 2-1 1-2 1-2-1-3-2-4-5-2h-3l-4 2-8 2s-3 1-5 4-2 4-2 8v10z"/>
    <path fill="#8cbebf" d="M423 290l2-5 4-6h1l1-1s0-2 2-3l3-2h2v1l2-1v-1h4v2l1 2 2-1v-1-1l3 2v-3l-3-4-4-1h-5l-5 3-5 3s0 4-1 3l-2-2-2 5-2 7 2 4z"/>
    <path fill="#8cbebf" d="M428 284h-1l-1 2 1 1h1l1-1 1-1-1-1h-1zM436 277l-1 1h-1l1 2h2v-2h-1v-1zM442 279l-1-1-1 2 2 1v-2zM423 280l2 1 2-1h-2-1-1z"/>
    <path fill="#04534e" d="M430 285l-1 2h-1l-1-1h-1 2l2-1zM447 274l-1 2h-1l-1-1v-2l1 2 2-1zM431 278l-1 2-1-1h1l1-1zM434 278l1 1 1 1 1-1v-1 1h-1-1l-1-1zM440 272v2h-2 1l1-2z"/>
    <path fill="#04534e" d="M422 293l8-1c0-1-1-5 3-8s8-3 10-3 7-2 8-6c0-3-3-3-5-5-1-3-4-2-4-2-1 0-4 0-6 2l-2 3-5 1v2c-1 1-2-1-2-1l1-3 5-4 7-4 5 1 4 2 2 2 1 4v2c-1 4-5 6-9 7-4 0-8 2-9 3-2 1-3 7-3 8h-9z"/>
    <path d="M425 279h-1l1-3v3zM430 278l-1-1 3-2-1 2-1 1zM428 285l-1-1 2-2-1 1v2z"/>
    <path d="M431 283l-1 1-2 1v-1l3-1zM437 275l-1 1v2l1-1v-2z"/>
    <path d="M439 278l-1-1h-2v1h3zM438 272l1-1 1-1-1 1-1 1zM447 272l-2 1v1h1l1-2zM444 278l-1 1-2 1 1-1 1-1h1z"/>
  </g>
  <g>
    <ellipse fill="url(#b)" cx="386" cy="258" rx="4" ry="6" transform="rotate(9 386 258)"/>
    <g fill="#fcca3e" stroke="none">
      <path d="M388 248l-3 5h2l1-5z"/>
      <path d="M389 245l-2 2 1 1c1 1 2 0 2-1l-1-2zM485 259l-5 6h2l4-5z"/>
      <path d="M488 257l-3 1c-1 1 0 2 1 2h2v-3zM345 229l3 7 1-2-3-5zM344 227v2h2v-2h-2z"/>
    </g>
    <g fill="#aa8c30">
      <path d="M389 246l-2 1 2 1h-2v-2h1v-1h1v1zM388 249l-1 1-1 1 2-3v1zM488 258h-3l1 3c1 0 0 0 0 0l-1-1v-3h3v1z"/>
      <path d="M485 261h-1l-2 2 3-3h1l-1 1zM344 226v3h2c1-1 0 0 0 0l-1 1-1-1h-1v-2h1v-1z"/>
      <path d="M346 230v1l1 2-2-3 1-1v1z"/>
    </g>
    <ellipse fill="url(#c)" cx="351" cy="242" rx="6" ry="4" transform="rotate(63 351 242)"/>
    <g fill="#e92736">
      <path d="M345 240h2l1-1v-1l-1-2h-2v-1l-2 3h1v1l1 1z"/>
      <path d="M347 236l1 2h1l1-2v-1-1l-1-1-3 1c0 1 0 0 0 0v2zM353 235v-2h-1l1-1h-3v4h3v-1zM382 252l1 1 1 1 1-1 1-2-1-1s1 0 0 0h-2l-1 1v1z"/>
      <path d="M386 251l-1 2 1 1h2v-1l1-1v-1-1h-3 1l-1 1z"/>
      <path d="M390 255l1-1v-1h1l-2-2v1h-1l-1 1v1l2 1zM477 262v2h2l2-1-1-1 1-1-2-1v1h-2v1z"/>
      <path d="M480 263l-1 1 1 1 1 1 1-1h1v-1l-1-2v1h-2z"/>
      <path d="M481 268h2v-1h1l-1-2v1l-1-1h-1v1 2z"/>
    </g>
    <g fill="#f7e204">
      <path d="M347 237l-1 2h-1v-1l1-1h1zM347 236v1h2l1-2-1-1-2 2zM351 234v1h1l1-1h-1-1zM385 252l-1 1-1-2h2v1zM386 251v1l1 1 1-1v-1h-2zM390 252l-1 1v1h2v-1l-1-1zM480 263h-2v-1h2v1zM481 263l-1 1v1h2v-1l-1-1zM482 266l-1 1h1v-1z"/>
    </g>
    <ellipse fill="url(#d)" cx="477" cy="269" rx="3" ry="6" transform="rotate(48 477 269)"/>
  </g>
  <g>
    <g fill="#78732e">
      <path fill="#a8ac71" d="M375 185h-8c-4-1-3-9-3-10l-2-4c0-2 7-7 8-8l2 1 2-2 1 1-3 3-1 3-2 3 1 2 4-1 3-2-3 4-4 1s-2 3 2 3l5-1-2 7zM355 206s3 1 3 4-3 6-3 11 1 5 8 11c0 0 2 1 2 3s2 11 8 11c7 0 8-4 8-4l-3-4h-4l-3-2-2-7c-2-4-7-5-7-10 0-4 3-4 2-10-1-5-7-7-7-7l-3-1-1 5h2z"/>
      <path fill="#f1a720" d="M374 170c2-1 1-6 1-6l-2 1 1 2v3z"/>
      <path fill="#a8ac71" d="M378 227h-1c-1-1-5-4-4-12 1-10 14-14 15-18s4-6-7-15l-2 3 4 4s1-1 1 0l-1 4-8 6-4 3-3 5c-2 4-1 9-1 9s0 10 11 11z"/>
      <path d="M371 233l1 3-2 1h-2l-2 2v-1l-1-2 2 1h2v-2l2-2zM365 233l-1-1-2-1 2-1h2l-1 2v1zM368 228l2 1v2l-2-1h-2l1-2h1zM367 243v-1l-1-2h2l2 1v1l-2 1h-1zM374 238l-2-1v-1l-1 2v2h2l1-1v-1zM368 244l2 1 1 1 1-1 1-2-4 1h-1zM374 243l3-2v-3h-2l-1 3v2zM371 246s3 1 7-1l2-1-2-1-1 2-6 1zM368 219l-1-1v-2l1 1 2 1-1 1h-1zM371 224l-1-1-1-2 1 1h2l-1 2z"/>
      <path fill="#c6c7a6" d="M363 169c0 1-1 3 1 3 0 0 3 0 6-3l1-4 1-1h-3l-6 5z"/>
      <ellipse fill="#1c242f" cx="371" cy="165" rx="1" ry="1"/>
      <path fill="#a8ac71" d="M367 165l-2 2s2 0 3-2h4v-1h-2l-3 1z"/>
      <path d="M373 218v-1-2l-1 1-1 2 1 1 1-1zM367 215v-3l1-4v2l2 3h1l-2 2h-2zM373 214v-1l1-2a34 34 0 0 0-3 2l1 1h1M368 206l1-2 2-2 1 3v3h1l-1 1-3-1-1-2zM374 210l1-1 2-1h-4v2h1zM372 201l1-1 2-1 1 5-3-1-1-2zM377 207l3-2-5-1 1 3zM379 201v-5l-2 2-1 1 2 1 1 1zM383 196v-3h-1l-1 1-1 1 1 1h2zM384 201l2-2 2-2h-5v2l1 2zM372 183l-1 2h5l-1-1-2-1-1-1zM380 204l2-1 2-2h-4v3zM389 196v-3-2l-4 2 1 1 1 2h2z"/>
      <path d="M383 192l1-1v-1h4l-1 2-1 1h-2l-1-1zM388 190l-1-3-2-1-1 3v1h4z"/>
      <path fill="#fff" d="M357 215l-1 1 3-1 3 2v-1l-3-2-2 1zm0-7h1l2-2h2l-1-1h-2l-2 3zm6 5l-2-2-3 1v1l3-1 2 3v-2zm-6-6l1-2 1-2h-1l-1 1v3zm-1-3l1-2-2 1v3h1v-2zm10-25l2-1-1 4-1 3h1l1-2 2 2h1l1-3 3 2-3-2v-1l3-2 1 1-1-1h-1l-2 2-1-2h-1l-2 2 1-3v-1l-3 1-2 2v1l2-2zm2 2l3-2 1 3-1 3-3-3v-1zm-10 28v1l3-1 3 1v-1l-3-1-3 1zm28-15v-1l3-2-1-1h-2-2l1-3 1-1-1-1-1 1-4-1 3 1h2l-1 2v2h4l-2 2h-1l-1-2v1l1 2-2-1-1 1v3l-2-1v1h-1v4l-3-1h-1v4c-2 0-3-2-3-2l-1 1 1 6h-1c-2 0-3-2-3-2v2s0 3 2 5h1l-4 2v1a59 59 0 0 0 3 2l-2 1v1l2-2 3 1v-1h-2l2-3v-1l-2-1 3-2v-1l-1-1 4-1v-1l-1-3 4 1v-1-3h4l-1-4h5l1-1-3-2zm-14 21l-1 2-1 1v-1l-2-1 3-2 1 1zm2-4l-3 2v-1c-2-1-3-2-3-4l3 1h1l2 2zm2-4l-3 1-1-6 3 2 1 3zm0-4v-3l3 1v3l-3-1zm7-3l-3 1v-5l3 1v3zm0-4v-3h2l1 2 1 1h-4zm-10 25v-1l-1 2h-1l-2-1 2 1v3l1-3 1 1v3h3l-1-1h-1-1v-1l1-1-1-1h-1l1-1zm-15-2l3 1v-1l-2-1-4 1v2l3-2zm18 26h-4l1-2c4-1 4-3 4-3v-1l-3 3 1-4h-1l-3 2 1-3v-1l-3 1 2-4v-1l-3 4v1l-3-2v1l3 1-2 2v1l4 1-3 2 1 1 5-1-2 3 5-1 3-2-1-1s0 2-2 3zm-9-6l1-2h3l-1 3-3-1zm2 4l1-2h1c2 0 3-2 3-2l-1 4h-4zm-3-13l5 1-1-1h-4l3-3h-1l-2 2v1a5 5 0 0 0-4 0l1 1 2-1v4l1-4zm-4-8v-1h-4l-2 3v1l3-2 3-1zm4 3h-1l-3 1-1 3 1 1 1-3 3-2zm-5 0l3-1-1-1-3 1-3 3 2 1 2-3zm7-59l2-1h1l-1 3-1 2-2 4 1 2 1-1h-1v-1l1-3 2-3v-3l-1-1-3 2-2 1 3-1z"/>
      <path d="M374 179h-3l1 2zM370 179v-1h-1l-1 1v2l2-2zM370 185l-2-3-2 3h1a41 41 0 0 0 3 0zM380 244c-1 1-3 2-7 2l-4-1-2-3-1-5-2-5-5-4a10 10 0 0 1-4-8l2-6 1-4v-1l-2-2-1-1-1-1-1 1h2l1 1 2 2v1l-1 4a15 15 0 0 0-2 7c0 4 2 6 4 8l5 4 2 6 1 4 2 2 4 1c4 0 7-2 7-2z"/>
      <path d="M377 238h-2l-2-1-2-3-1-4-4-5c-2-2-4-3-4-5l1-5a14 14 0 0 0 1-6c0-2-2-4-4-6l-4-2v1l4 2 4 5v1l-2 5-1 5v1l4 4 5 5 1 4 2 3a4 4 0 0 0 4 1z"/>
      <path fill="#a8ac71" d="M389 228s2 0 2 2l-1 4-3-2 2-2v-2z"/>
      <path fill="#f8c83c" d="M350 205h-3v-2s-2 0-2-2l2-1 2-2 2 2-1 5z"/>
      <path fill="#f8c83c" d="M352 206h-2l-1-2-1-2 2-1 2-2 1 1-1 6z"/>
      <path fill="#f8c83c" d="M355 206l-2 1-1-2-1-2 2-1c1-1 1-3 2-2l2 2s-2 0-3 2l1 2z"/>
      <path fill="#af7029" d="M386 227l-3-3-3-4-3-1-2-3v-6l1-2s-6 2-3 14c2 5 5 6 5 6l6-1h2z"/>
      <path fill="#816c2a" d="M383 188l1 1v1c-2 5-6 7-10 9-2 2-4 3-5 6a16 16 0 0 0-2 9c0 6 2 10 5 12s6 2 7 2h2a47 47 0 0 1 7 0h1v1l-1 1-1 1v1l2-1 1-2-1-1-1-1h-9l1 1v-1h-1c-1 0-4 0-7-2-2-1-5-5-5-11v-1l2-8 8-7c3-2 6-4 7-8v-1l-1-1z"/>
      <path fill="#fff" d="M391 229l-2 3 2 1h-1l-2-1v-1l1-1 1-2 1 1z"/>
      <path fill="#fcca3d" d="M396 231l-3 1-2-1-1-3-2-1h-3l-6-7h6l3-1 2 1h2l1 1 1 1 2 2v7z"/>
      <path fill="#af7029" d="M397 231h-6v1l-1 2v4h5l1-5 1-2z"/>
      <path fill="#fcca3d" d="M396 229v2-2zM392 189v-2l-1-2-1-2-2-2-1-1h-4l-2 2s5 4 7 8l4 2v-3z"/>
      <path fill="#af7029" d="M389 193l-1 5 2-3 2-3-4-2 1 3z"/>
      <path fill="#816c2a" d="M394 236l-2-2-1-1h-1 1l1 1a22 22 0 0 1 2 2z"/>
      <path fill="#6f5b24" d="M396 233l-1 2-3 2 3 1 3-2-2-3z"/>
      <path fill="#404118" d="M397 236l-1 1h-1l1-3 1 1z"/>
      <path fill="none" d="M375 185h-8c-4-1-3-9-3-10l-2-4c0-2 7-7 8-8l2 1 2-2 1 1-3 3-1 3-2 3 1 2 4-1 3-2-3 4-4 1s-2 3 2 3l5-1-2 7z"/>
    </g>
    <g fill="#d2a567">
      <path fill="#ab6d29" stroke="#4d2a15" d="M418 148s-9-2-9 5c0 3 1 4 3 4 2 1 6 1 9 4s3 5 3 7v3l2 10 2 8 6-4 4-11-5-20-15-6z"/>
      <path fill="#4d2a15" d="M427 186s4-1 4-4l-3-4 3 2 1 1 2-4-3-4h-3 3l2 1-1-5c-1-1-1-2-3-2h-3l4-1 2 1-1-4-3-2-2-1h-1 4l-1-1-5-2h-5l2-2h1l-3-1h-3l-4 1 1-2h1c2-1 0-2 0-2l1-2 5 1 11 6 5 5 3 8-1 14-7 6h-3v-3z"/>
      <path d="M418 151v-2-1s-4-1-6 1c-3 2-1 6-1 6l2-2h4l-1-2h-3l3-1 2 1z"/>
      <path fill="#8f4620" d="M429 187l-3 1 2 10 9 16 5-1 2-3 1 1 4 4 4 1 6 9v-3l-2-4-1-3-1-1h3l1 1 3 2 1 1 1 2v1l1 2 1 3 2 3v-1l-1-3-2-8-2-3 3 2 2 3 2 2v3l1 2 1 3 1-1v-2l-1-5-1-6 2 1 1 3 1 5 1 5 1 5 2 3 1 2v-3l-2-21v-1l1 1 2 3v3l1 2v5l1 4 2 5 1 3 1-3-1-23 2 1 1 2 1 5v14l1 3 4-37h2l1-1-2-1-4-7-3-6-5-9-9-11-7-6-2-1v-2l2-2h-2l-3 1-2-1-6-4-6-3-4-2-9-2-8-1h-4l-4 1-2 2v3c0 2 1 3 3 4l8 4 3 3 1 1v1l2 15-4 8-2 1z"/>
      <path fill="#ab6d29" d="M438 210s2 3 4 1-1-8-1-9h1l2 3v4c0 3-3 5-3 5l-2-1-1-3z"/>
      <path fill="#4d2a15" d="M493 244l-2-6-1-4-1-13v-4l-2-3h-1l1-1 1 1-1-6-5-11 1 1 3 2 5 2 3 1 2 3 1 10-1 9c-2 4-2 14-2 16l-1 3z"/>
      <path fill="#8f4620" d="M493 227l1-3c1-2 1-16-1-18l-5-3 1 5 1 1 1 3 1 8 1 7z"/>
      <path fill="#4d2a15" d="M485 236v-12l-1-6-3-8-3-9-3-2v2l-2-1-1-1 1-2v-3l2 2 6 4 2 11 3 7v23l-1-5zM488 204l2 1 2 2-2-1-2-1v-1z"/>
      <path fill="#4d2a15" d="M477 233l1-5-2-11-4-7-3-6-3-3v-5l5 3 2 1 2 11 3 3 1 5 1 11v9l-3-6z"/>
      <path fill="#4d2a15" d="M472 229l-1-7-2-6c-1-1-4-3-6-7l-5-6v-5l3 2 3 2 1 5 2 3 2 4 2 1 1 5v3l1 5v2l-1-1zM468 229l-1-2v-2l-2-5-1-3-6-6-5-4-2-1-1-5 3 3 3 1 4 6 1 2 3 3 2 2 1 4 1 4v3zM461 227l-3-4v-3l-5-6-5-5 1-2 1 1 6 7 2 3 1 4 1 2 1 2v1zM482 197s4 5 5 0l-2-6-5-8-7-10-5-2 2 3 8 11c4 7 3 11 3 11l1 1zM458 166s8 7 14 15c5 7 7 12 6 13-2 1-5-1-6-3l-7-11-8-6-3-6 4-2zM454 183l8 7 4 5 2 2v-2l1-1-15-15v4zM453 183l4 6 6 5 1 4s-7-6-7-4l1 4-2-1-3-5-1-3-2-5 3-1z"/>
      <path fill="#4d2a15" d="M432 200s4 3 6 0 0-7 0-7 5 7 7 0l-3-6 1-1 3 4s2-1 2-4-3-6-3-6l3 2s5 0 5-3c0-2-4-5-4-5s3 0 3-2-5-3-5-4 2-3 4-2 4 2 5-1c2-2 0-2 0-2l-2-1-5-2-3-1-4-1 1 3 1 7v4l1 7-2 7-1 1-2 4-2 2-3 4-3 3z"/>
      <path fill="#ab6d29" d="M458 214l-3-4c-2-2-5-2-5-2l5 6h3zM465 215l-4-6-3-4h-1v4l4 4 4 2zM471 215l-3-8-4-6 1 5 1 3 3 4 2 2zM476 212s2-8 0-10l-3-3-1 1 1 6 2 5 1 1zM481 199l3 3 3 11-1 1-5-8-1-7h1z"/>
      <path d="M447 208l2-1-3-4 3-1s-2-5-1-6l3 5 1 4c-2 5-5 3-5 3zM453 202l4 1-4-4v-2h3l-3-5h1l3 4 2 7c0 3-7 0-6-1zM471 196l-1-3h2l-3-2-2 1 2 3 2 1z"/>
      <path d="M459 198l6 2-5-6v-1h3v2l2 3v-4l3 2 4 2 1-2c0-1 1 3-1 4l-3-1-1-1-1-1s1 4 0 4h-5l-3-3zM473 194l7 4-2-11c1-1 6 10 3 12h-2l-4-2-2-3zM491 211h1l1 1h-2v-1zM484 189l1 1h0l-1-1zM483 186h1l1-2h-2v-1h-2l2 3zM488 205l3 1 1 1h-3l-1-2zM478 175h1v2l-2 1-2-3h3zM468 167h2l2 1 1 5-5-3-2-3h2zM464 165s3 0 3-2-2-3-2-3l-4 3 3 2zM456 161l1 1c1-1 4-4 6-4h2v2l-6 3h-2l-1-1v-1zM455 156l-3-3c-1 0 2 2 2 5v4h1l1-1v-2l-1-1v-1-1zM447 153c-2-3-7-5-7-5l6 5 2 6h1l1-1-1-2-1-1v-1l-1-1zM440 150c-3-3-9-4-13-4-5 0-7 0-7 3 1 2 3 3 7 3h7l4 3-3-3-3-3h2c3 0 6 2 7 4l1 4h1v-1-2l-2-3-1-1zM427 187c2 0 6-3 7-9 1-5-2-15-3-16h2c1 1 3 9 3 14 0 6-1 7-4 10s-5 3-5 3v-2zM434 203h2c2 0 5-2 5-5l-2-4v-1h2v3l2 1c1-1 3-2 3-4s-3-4-3-5v-1h2l1 2 1 1 3-3-2-4v-1l1 1h2l3-3-1-3v-1l1 1 1 1v4l-2 2h-2l1 2-1 3-1 1-3 2v2l-1 3-3 2h-1v1l-2 3-3 2h-2l-1-2zM451 175s5 1 5-2c0-2-5-6-6-7v-1l3 2s3 1 4-1v-3h2v3l-2 7s1 3-2 3l-4-1zM456 214l-1-3-4-2 3 4 2 1zM463 214l-3-4-3-4 1 4 4 4h1zM470 214l-3-6c0-1-1-4-3-5v1l2 5 2 3 2 2zM475 211v-6l-3-5v5l3 6zM486 213l-3-6-2-5v4l2 6 3 1zM495 202l-5-3-7-1 2 1 3 2 5 2 2-1z"/>
      <path fill="#202020" d="M457 204l2 5 6 6 2 8 2 7 1 2-2-2v-3l-4-11-8-8-2-4h3z"/>
      <path fill="#202020" d="M465 225l-1-6-6-6h-3l-5-5v1l6 6 3 7 1 4 2 2v-1l-2-4c-1-3-2-7-4-8v-1h2l5 5 2 6 3 5-3-5zM459 198l4 3h1l3 9 4 4s0 7 2 11 2 10 2 10c-1 1-2-2-3-5l-2-8-4-6h1l3 6 2 6 1-1-1-5-2-7-3-4-3-7-1-2h-2l-2-4z"/>
      <path fill="#202020" d="M467 197l3 2 2 1s0 5 2 9l5 5 1 9v25l-1-10c-1-2-2-3-3-10l-2-11c-1-2-3-2-3-2s2 0 3 2l2 11 4 10-1-13-2-10-4-6-2-8-1-1c-3-1-3-3-3-3z"/>
      <path fill="#202020" d="M473 194l4 4 4 1s-1 5 2 10l3 5 1 18c0 4 1 19-1 19s0-11-1-13l-2-4-2-15-2-5 2 4 2 15 3 5-1-20-5-13v-5l-4-2-3-4z"/>
      <path fill="#202020" d="M482 197c0-1 1 2 5 3l8 2s3 6 3 13c0 8-2 7-3 14l-2 21-1 2-1 4-1-3 1-8-1-8-1-19-3-4s3 1 3 3l2 20v-3l1-13c0-3-1-12-3-13l2 2 1 1 1 1-1-1h-1l2 10v22l2-15 2-13-3-12c-1 0-5 0-8-2l-4-4zM435 204h2l5-4v-2h1l4-3v-4h1c1-1 3-2 3-4l-1-3h2s3-2 3-4l-3-4h3c1 0 2-1 2-3l-4-5c0-1 4 1 5-1v-3l-1-1 4-1 5-2-3 3 3 3 4 1h-3l8 7 1 1h0l4 7 1 1h0l4 8-9-12c-4-6-6-7-6-6l6 9 4 7s-5-10-12-16l-8-7c-1 0-2 5-1 6l10 9 9 14-10-13-10-9-1 3-2 1 6 6 3 1 2 1h-4l5 6h2l3 2-3-1h-1l3 5-10-10-6-5-1 2-2 1 6 7 5 6-5-6-5-4v2c0 1 6 7 5 8l-7-8-1 1-2 1 9 10-8-6 3 7-5-7-1 2-3 1 6 8-6-7-1 1 2 5-3-4-1 2-2 1 2 2 1 3-2-3-2-2-1 1-1-2z"/>
      <path fill="#202020" d="M495 202l2-1-3-2c-1-2-6-16-11-23-9-11-17-16-17-16s10 5 17 16 9 20 11 22l4 3-1 1-3 1 1-1zM432 199l3-3-2-1-1-3 1 2 3 1 4-5h-3l-1-3 2 2h2l3-5-2-1c-2 0-2-2-2-2l2 2c2 0 3-1 3-2v-6h-3l-2-2 2 1c2 1 3 0 3-1v-4c-1-1-2-1-2-3l-2 1c-2 0-3-2-3-2l3 1 2-2-1-3-1-2h-3l-2-1 2 1c2 0 2-1 2-2 0 0 0-2-3-4l-4-4 5 4 3 3h3v-3l-3-3 3 3v4c1 0 5 2 6 1v-3l-2-2 2 2 1 3-1 1 3 2 3 1 1-3-1-3 1 3v3l1 1h-2c-2-1-10-5-11-4l6 4 3 4-3-2-6-3c-1 1 1 1 1 1 1 1-1 2-1 3l6 5-2 2-3-3 2 3-1 1 3 5c0 1-2 1-1 2l2 3-3-2-2-2-1 3 2 3v3l-3-2-1 1-2 3 3 2c0 2-2 3-2 3l-2-3-3 3c-1 1 1 2 1 3h-2l-3 1v-1z"/>
      <path fill="#202020" d="M466 160l1-1 1-3h-4l-6-3s-12-8-31-9c-6-1-9 1-9 3 0 0 2-3 8-3 2 0 21 2 31 10 1 0 4 3 7 3l3-1-1 2v2zM433 162l-3-4-11-5c0-1 8 3 10 6l4 3z"/>
      <path d="M433 176l-2-2-3-1 3 1 2 2zM432 169l-3-2h-3 4c2 0 2 2 2 2zM431 163l-3-2-3-1 4 1 2 2zM428 159l-4-1-6-1h7c2 0 3 2 3 2zM421 155h-10l8-1 2 1z"/>
    </g>
    <g fill="#f8c83c" stroke="none" stroke-width="0">
      <path d="M400 237s1 2 3 2 4 3 4 3l-2 3h-6l-2-3 3-5zM400 234l-3-5c-2 0 0 2 0 3l-1 1 1 3 3-2z"/>
      <path d="M399 240l2 1 1-1M398 239s3-3 3-4l-2-1-2 2 1 3z"/>
      <path d="M395 241l2 1 3-1-2-3-3 1v2z"/>
      <path d="M398 238l-3 2-1-2 2-1 1-1 1 1v1z"/>
      <path d="M396 240s-3 4-5 4l1-6h2l2 2z"/>
      <path d="M390 237l5 1-4 2-1-3z"/>
      <path fill="#202220" d="M379 243s1 2 3 2 3-2 3-2l-4-1-2 1z"/>
      <path fill="#4b4139" d="M379 243l1 1 2 1 4-2-5-1-2 1 2-1 4 1v1l-3 1-2-1v-1h-1z"/>
      <path fill="#202220" d="M381 243s0 1 3 1l4-2-4-3-3 4z"/>
      <path fill="#4b4139" d="M381 243l3 1 4-2-4-3-4 4h1l3-4 4 3-4 2-3-1z"/>
      <path fill="#4b4139" d="M381 243l2 1h3-4l-1-1z"/>
      <path fill="#202220" d="M384 241s1 2 3 2l2-1-2-4-3 3z"/>
      <path fill="#4b4139" d="M384 241v1l3 1 2-1h1v-1l-3-3-3 3 3-3 2 4-2 1-2-1-1-1z"/>
      <path fill="#4b4139" d="M384 241l3 2 2-1v1h-3l-1-1-1-1zM380 244l2 1 2-1-1 1h-3v-1z"/>
      <path d="M390 236c1 0 3 3 3 5l-2 3-4-3v-3l3-2zM379 237l-2-1v3l2-1v-1zM379 238l-2 1 1 3 2-1-1-3z"/>
      <path d="M380 240l-2 2 1 2 2-2-1-2zM381 233h-1l-2 3 1 3 3-2-1-4z"/>
      <path d="M381 236l-3 2 2 3 3-2-2-3z"/>
      <path d="M384 241l-3 2-2-3 3-2 2 3zM387 230h-3c-2 0-3 2-4 3l1 4 5-3 1-4z"/>
      <path d="M383 239l-2-3c0-1 2-3 4-3l1 4-3 2z"/>
      <path d="M387 239l-2 2-3-1 1-2 2-1 2 2z"/>
      <path d="M385 235s-2 1-1 2c1 2 2 2 3 2l2-1 2-2-1-3c-1 0-3 0-5 2z"/>
      <path fill="#202220" d="M389 229h-3l-2 4 1 3 2-2 1-1v-2l1-2z"/>
      <path fill="#4b4139" d="M389 229l-3 1-2 2v1l1-1 2-3h2z"/>
      <path d="M432 261l2-1 2-2 1 3-2 2h-2l-2-1 1-1z"/>
      <path d="M428 261h4v2l-2 2-2-1v-3zM444 260l-1-1-3-3v7h3l2-2-1-1z"/>
      <path d="M428 261h-1c-2 0-3 1-3 2l1 4h3l8-5-2 1-2-1-2 2-1-1-1-2z"/>
      <path d="M433 263l-1 1-2 1v2l3 1 2-2v-2l-2-1zM447 262l-1-1-2-1-1 2v2h1l1 1 2-1v-2z"/>
      <path d="M437 261l-2 1-2 1 2 2h1l3-2v-2h-2zM449 264l-1-1-1-1-2 2 1 2h2l2-1-1-1z"/>
      <path d="M444 266h1l1 1 2 3h3c1-1 0 0 0 0l3-3-1-1s1-2-1-3l-3 1-2 2-1-1-1-1h-1l-1-2h-2v-1l-3 1-1 2-2 1-2 2c-2 0-3-2-3-2l-2 1-1 2 1 3c1 0 2 2 4 1s1-3 1-3l1-1 4-2"/>
      <path d="M441 253v4l-1 5h-4v-4l5-5zM437 266s0 1 2 1l1-1v-1s0 2 2 2 2-2 2-2"/>
      <path fill="#202220" d="M422 269s-2-2 0-3l2 1 1-3-1-1c0-1-5 0-5 3 0 2 3 3 3 3zM428 276v-3l1-1v-2l-2-2s-3 2-2 4c0 3 3 4 3 4zM452 273s5 2 5-2c0-3-2-4-3-4l-2 1-1 2c1 0 2-1 3 1s-2 2-2 2z"/>
      <path fill="#4b4139" d="M428 276s-3-1-3-5c0-2 2-3 2-3s-2 1-2 3c0 4 3 5 3 5zM422 269s-2 0-3-3c0-3 5-3 5-3s-5 0-4 3c0 3 2 3 2 3zM452 273l2 1 3-2-1-4-2-1 2 1 1 4c-1 2-3 2-4 2l-1-1z"/>
    </g>
    <g fill="#4d2a15">
      <path fill="#904720" d="M397 176h-1l1-2h5l2-1 1 1 2 3-5 3h-1v-1l-1-2z"/>
      <path fill="#202020" d="M442 246v-7l-20 6 8 7z"/>
      <path fill="#d2a567" d="M406 233l-1-1-2-1h-2v1l2 2a616 616 0 0 0 4 3h1l-2-4z"/>
      <path fill="#d2a567" d="M406 236h1l1 2 1 1 1 2v1l-2-1-7-1 1-2 1-1h1l1-1z"/>
      <path fill="#d2a567" d="M410 242l1-1h1l-1-3 1-7-6-6-1 3 2 6 1 4z"/>
      <path fill="#ab6d29" d="M406 228v2c1 2 1 7 3 10l-2-3-2-10c1-5 1 1 1 1zM410 232l-1 2v3s-1-1 1-2l1 4v-6l-1-1zM410 244l-5-1-5-3h6l3 1h2l2-1v3l-3 1zM401 243l1 2h-4l6 1 1-1-4-2z"/>
      <path fill="#d2a567" d="M399 242l3 1 3-1v1h1v2l-4-2-2-1h-1z"/>
      <path fill="#ab6d29" d="M412 239l1 1 1-3v-3l-2-1z"/>
      <path d="M406 234l-1-3-2-4 1-3 2 3-1 3 1 4z"/>
      <path fill="#d2a567" d="M395 244l2-1h3l4 2 1 1-7-1-3-1z"/>
      <path fill="#8f4620" d="M412 232v5l1 3-1 1h-3 2l-1-3v-3l-1 1 1-6 2 2z"/>
      <path fill="#ab6d29" d="M400 243l-1-1c0-1 1 2 5 2l3-1h2l-1 2-3 2h-1v-3l-3-1h-1z"/>
      <path fill="#8f4620" d="M406 234l-5-8c-2-3-1-7-1-7l4 6v2l2 7z"/>
      <path fill="#ab6d29" d="M404 249v-2c3-3 9-5 9-5v4l-8 4-1-1z"/>
      <path fill="#8f4620" d="M404 247l2-2-3-1-3-1 3 2 1 1v1zM415 247l-1-2-1-3-1 1-3 1h3l-4 2h3l-3 1-3 2h-1l2 1 3-1 6-2z"/>
      <path fill="#ab6d29" d="M415 247s-1 0-2-6l-1-7 2 1 3 4-2 8z"/>
      <path fill="#8f4620" d="M416 238l-1 5v4l3 3 1-3v-4l-3-5z"/>
      <path fill="#202020" d="M419 242s1 8-1 9l-3-4 3 3 1-8zM415 247l-1-1-4 3h-6s1 2 6 0l4-1 1-1z"/>
      <path fill="#ab6d29" d="M407 237l1 2 2 3-1-3-3-4 1 2z"/>
      <path fill="#8f4620" d="M404 247v-2h-4l-5-1 4 2 4 1h1z"/>
      <path fill="#202020" d="M404 247v-1h-5l-4-2 4 2 5 1z"/>
      <path fill="#ab6d29" d="M406 236l-4 1-2 3h2l1-3 3-1z"/>
      <path fill="#8f4620" d="M401 231l2 2 3 2 1 2-5-3-1-3z"/>
      <path fill="#8f4620" d="M405 232l-2-1h-2l1 2h1l-2-2c1-1 4 1 4 1z"/>
      <path fill="#202020" d="M415 227l22-11 11 14-19 5-10 1-5-3z"/>
      <path d="M445 233l28 24-3 2-7-2-13-13-5-5z"/>
      <path d="M480 252l-15-12-20-15v8l23 21 7 3 4-1 2-2-1-2z"/>
      <path fill="#803f1d" d="M445 236l14 13c6 5 12 10 13 9l1-1-28-23v2z"/>
      <path d="M464 259l-2 2-4-2-17-17 1-3h3z"/>
      <path fill="#202020" d="M480 252s-2 5-6 4c-5-1-29-24-29-24v2s25 23 29 24c5 1 9-3 9-4l-3-2z"/>
      <path fill="#803f1d" d="M442 239l12 14c4 4 8 7 10 6l-1-2-12-12-6-6h-3z"/>
      <path fill="#202020" d="M444 239l22 21c3 1 8-2 8-2l-2-1s-1 2-5 1c-5-1-22-20-22-20l-1 1z"/>
      <path d="M452 259l-8-9-1-2-1-4 15 15-2 1-2-1z"/>
      <path fill="#202020" d="M465 259s-2 3-4 2c-3 0-4-2-4-2l-14-14v-2s15 16 18 17c2 0 3-2 3-2l1 1z"/>
      <path fill="#202020" d="M457 259s-1 2-3 1l-2-1-9-10v-3s9 13 11 13c2 1 2-1 2-1l1 1z"/>
      <path fill="#b07229" d="M448 232l9 7 4 1-2 1 4 4h5l-3 1 4 3 6 1-4 1 6 5-7-5-1 2c-1 1 0-2-1-3l-4-4-1 3v-3l-5-4v2l-1-3-9-9z"/>
      <path d="M434 255s0 3-2 3c-1 1-4-5-4-5v-6l4 4 2 4zM445 253v-1l-1-2v-4l-1-2v-1h-1l-2 2-1 2 1 4 1 3 2 1 2-2z"/>
      <path d="M442 259v-5l-3-6-1-2-2-1-1 1v3l3 6 4 4z"/>
      <path fill="#202020" d="M440 245l1 4 2 5h-1s2 3 3 2v-3h-1l-2-6 1-3 1 6 1 1-1-5v-3-2-1l1 1 1-3v-8l-9 12 3 3z"/>
      <path fill="#202020" d="M440 244l1 7 1 3v5l-3-9-1-4h-1l3-2z"/>
      <path d="M439 261v-4l-4-7-3-3-2-3v6l4 6 5 5z"/>
      <path fill="#202020" d="M426 247l1 2v2l2 4 3 4 2-2s-1 2-2 1l-3-8-1-2-2-1zM435 254l-2-4c0-2-1-3-2-3v-2l2 2 2 1 1 3-1 3z"/>
      <path fill="#5c3a1d" d="M430 250l1 3 4 4-4-4-1-4v1z"/>
      <path fill="#202020" d="M436 247l1-1 1-1-1-1-2-1 1 2v2zM435 248l3 7 1 5-1-4-3-6v-2z"/>
      <path d="M439 244v-10l-4-8-1 1-4-3v7l7 13h2z"/>
      <path fill="#8b441f" d="M425 250l2 1-1-4-10-14 9 17z"/>
      <path fill="#8b441f" d="M431 245l-1 4c-2 1-11-12-13-14l-6-4 7 1 12 12 1 1z"/>
      <path fill="#202020" d="M425 250l-1-3-1-3-7-11-3-2a20 20 0 0 0 0 4l5 7 7 8z"/>
      <path d="M435 248v-5l-5-12h-2l-3-2-2-2 1 4-1 2 5 8 7 7zM441 241l2-2-1-5-4-13h-1l-2-2 1 8 3 10 1 3 1 1z"/>
      <path fill="#202020" d="M430 244l-5-6-2-4h-2l-3-2s-1 2 4 7c6 6 8 5 8 5z"/>
      <path fill="#8b441f" d="M439 245v-11l-4-8 4 10-1 4-1-4-2-4 3 12c-2-1-8-13-8-14v1s5 16 9 14z"/>
      <path d="M442 214l3 6 1 5v5s0 10-1 10l-2-1-2-11-2-11v-1l1-1 1-1h1z"/>
      <path fill="#8b441f" d="M435 248v-3l-1 1-2-5-1-1-1 2-6-9-1 1s7 15 12 14z"/>
      <path fill="#202020" d="M432 241v-3l-2-7h-2l-3-2a49 49 0 0 0 7 12zM436 239l-3-9-3-6v5l3 3 3 7zM442 231l-1-8-2-6v-1h1l2 3-1-4v-1h-1-1v2h-1v5l2 5 2 5zM446 230s1-7-1-11c-1-5-3-6-3-6v1l3 7 1 9zM439 234l-2-9-1-5-2-1 1 5v1l2 4 2 5z"/>
      <path fill="#904720" d="M443 242l-1-9-4-12 4 14c-1 1-2-4-2-4-1 0 3 9 1 9-1 1-1-1-1-1v1s1 2 3 2zM444 238l-1-10-2-10 3 10 1 12-2-1v-1h1z"/>
      <path fill="#312317" d="M431 247c1 1 1 3-1 3-1 0-4-2-4-4l4 3 1-4v2z"/>
      <path fill="#d2a567" d="M439 212h3l2-4-1-3 1 3c0 2 1 6-3 7-3 0-2-1-2-1v-2z"/>
      <path fill="#8f4620" d="M436 205l3 7v4l-1-1-2-10z"/>
      <path fill="#1e2121" d="M399 210l14 20 17-20-11-11z"/>
      <path d="M417 197l-1 3 2 6 2 3 4 2 1-2v-3l1-1 2 1 2-2 2-4v-2l-1-1-3-6-2 3h-1l-2-1-2 3-3-1z"/>
      <path fill="#5c3818" d="M424 211l1-2v-8l-2-6c-1 0 2 4 1 9l-1 7h1zM425 203s2 3 3 2v-7l-2-4 1-1 1 5c1 2 2 7 0 8-1 1-3-2-3-2v-1z"/>
      <path fill="#8f4620" d="M417 205l2-1h1l1 3 2 3 1 1-1 1h-1l-3-2-1-1-1-4z"/>
      <path fill="#d2a567" d="M423 234l-5-2-9-9-1-4 3 1 5-2 1-2 6-3 3-2h7l2-4 3 6v8l-4-2s2 7 0 8l-4-3s1 7-1 7c-1 0-5-2-6-4 0 0 2 6 0 7z"/>
      <path fill="#8f4620" d="M421 225l2 2v5c-1 1-3-2-4-4l-2-5 4 2zM436 208s2 11 1 11l-5-4-6-8-1-1 1-1 2 1 8 2zM417 229l-2-2-4-5-3-3-1-1 1-2h1l8 7v6zM428 229l-7-6-5-7v-2h1l11 15zM430 224l-4-3-1-4 5 7zM432 223l-5-6-3-4h-2v-1h1l1-1 2-2 5 11 1 3z"/>
      <path fill="#ab6d29" d="M418 232l-2 1c-1-1-9-5-13-11l-4-6 2-2 12 14 5 4z"/>
      <path fill="#8f4620" d="M418 232l-2 1-9-7-7-10v-2l2-1 8 13 8 6z"/>
      <path d="M426 226l-4-4-5-7 1-1v-2l1-1 2 1 3 4 1 1 2 5-4-2 3 6zM421 225l1 2c-1 1-1 2-2 0l-3-4-1 3-4-5-3-5v-2-4 1l1 1 5 6 1-1 3 5 2 3zM403 217l7 10 8 5-11-13-4-2zM431 221l-4-5-2-6v-5l5 6 2 4-3-1c-1 1 3 6 2 7zM436 217c-1 0-3-2-3-4l-1-4-2-4v-4h2l3 3 1 5v8zM406 227l-5-8-2-3h1s1 4 6 9c5 6 7 6 7 6v4l-7-8z"/>
      <path fill="#202020" d="M412 233l-8-8-6-9 1-1a61 61 0 0 0 13 18zM418 232l-8-8-4-6 2 1 3 5 7 8zM417 223l-4-6-3-5 5 5h1v3l1 3zM418 209v4l-1 1 2 3 3 2-2-3c-1-1-2-3-1-4l3 1 3 4-2-4-5-4zM429 216l-2-5-2-7v3l-2 5h-1 2l1-2 2 3 2 3z"/>
      <path fill="#202020" d="M425 204s3 3 4 1v-5h2l1-2 4 7 2 8-4-8-3-4v4l2 4 1 5-2-3-2-3-2-1-3-1v-2z"/>
      <path fill="#171717" d="M416 217l2 4 3 4-3-4-2-4z"/>
      <path fill="#8f4620" d="M433 217l-1 1 1 3 2 1-1-2v-3h-1z"/>
      <path fill="#d2a567" d="M402 198l-2 1-2 4 1 7a523 523 0 0 0 8 10l2-5v-4l2 3 4 3 3-5-5-13-3-1h-8z"/>
      <path fill="#ab6d29" d="M413 209l2 5v3l3-5-1-9v-6l-1-1-3 5v8zM404 206l1 7 2 4 2-6-1-7-1-6-3 8z"/>
      <path fill="#45392d" d="M397 196s-4 6-4 9l2 6 1 7h1v-22z"/>
      <path fill="#ab6d29" d="M397 197s-4 5-3 8l1 6 2 7 2-1 2-3-1-3-1-2-1-2v-5l1-4v-1h-2z"/>
      <path fill="#dbad6c" d="M416 206l-2-1-1-1v-1l3 3z"/>
      <path fill="#d2a567" d="M398 197s-3 6-3 10l3 9v-2-11l1-4v-2h-1z"/>
      <path fill="#8f4620" d="M404 199v2l-2 3-1 3 1-2 1-1 1 3-2 3v3l1-3 1-1 1 3 1-3 1-3v-1-5l2-1-2-3-3 3z"/>
      <path fill="#dbad6c" d="M416 210h-2l-1-1 1-1 1 1 1 1z"/>
      <path fill="#8f4620" d="M400 211l-1 1-1 3v-5l-1-3v-2-3l-1 1-1 2 1-2 2-4 1-2h1l2 2-2 1-1 5 1 6zM412 199v3l-2 3v3l1-2 1-1 1 2 1 3v-1h1l1 1-1-2-1-2-1-2h2l2 2-1-1v-4-3-2l-4 3z"/>
      <path fill="#1e2121" d="M426 194l1 4 1 6-2-5-2-5-1 2 1 6-1-4-1-2-1 2 2 4-1-2h-1v2l2 3-2-2-1-1 1 4 2 4-2-3-2-11 2-2 2-7 1 6 2 1zM415 193l1 2 1 1c1 1-2 1-3 3-2 1-4 2-5 1v-1l3-2 2-3 1-1zM400 197s1 3 2 3l5-4 1-1-1-1-5 4-2-1zM401 194l-1 2v1h-3v-2h2l2-1zM427 189l2 5 2 3-2-2-2-2v-1-3z"/>
      <path fill="#dbad6c" d="M397 195h2l1-2v4l2 1 3-1 2-3 1 4h3l3-3 1-2 1-1 2-7-1-1-2 1-2-1-1-1-1 2-1 1h-1l-2 1v-2l-1-1-4 3h-1l-2 3-1 2-2 3h1z"/>
      <path fill="#8f4620" d="M412 188l-1 5-2 5s3-2 5-6l1-7-3 3zM416 185v3l-1 5 1 2 2 2 3-3 2-4v1l1 2 3 1v-1l-1-6-2-5-2-2h-3l-3 5z"/>
      <path fill="#ab6d29" d="M422 180l1 5v0l-1-4v-1z"/>
      <path d="M427 189v4l-2-4-2-6-1-3h2l3 9zM418 196s4-2 4-8l-1-8s0 5-2 8l-2 5h1l1-2v2l-1 3zM415 185l-2 3-4 2 3-3v-3l-1 2h-2l1-1v-1l2-3 1 2 2 2z"/>
      <path fill="#1e2121" d="M426 178l1 5v6l-2-3-1-4-1-2h-1l1-1v-2l1 1h2zM418 191l3-6v-5l-2-1-2-2v4l-2 4h2c2-1 2-3 2-3v2l-1 7z"/>
      <path fill="#8f4620" d="M395 195l3-4a20785 20785 0 0 1 8-10l1 4c1 2 1 1 2 1l-1 4-1 4v-4l-1 1-2 2 2-3v-1h-1l-1 1 1-1 1-3v-1-1l-2 2-1 1-2 4-1 4h-1l1-3 2-5h-1l-3 4-1 4h-2z"/>
      <path fill="#874f20" d="M427 176s1 1-1 2h-3v-2h4z"/>
      <path fill="#b27129" d="M402 180l-1 3-2 3 2 1 1-7z"/>
      <path fill="#dbad6c" d="M418 177s-1 8-3 8-3-4-3-4-1 5-4 5l-2-5-2 4c-3 3-5 1-5 1s3-3 3-6l1-1 2-2c1 1 4-1 4-1l2-2h1c2-1 2-3 2-3l4 3v3z"/>
      <path fill="#b27129" d="M409 169l3 5 1-1 1 1c-1 2-2 3-1 5v-2l1-2 2 8 1-6c0-2 0 0 0 0 1 0 3 4 5 3l1-4-1-5-8-5-1 2c0 2-4 1-4 1z"/>
      <path fill="#8f4620" d="M420 168l1 2v9l-3-2-1-5-1-4v-3h2l2 3z"/>
      <path d="M420 166l3 5 3 4 1 1s-1 2-4 0l-2-6c-1-3-4-4-4-4l1-1 2 1z"/>
      <path fill="#1e2121" d="M418 163l4 4 3 6 2 3h-1l-2-2-3-6-3-2 2 2 1 5-1-3-4-4 2 4 2 4-3-4-2-2-2-3h3l2-2z"/>
      <path fill="#8f4620" d="M410 169h4l1 2-1 3-1-3-3-2z"/>
      <path fill="#b27129" d="M411 174v5c0 3-2 6-3 6v-5-1l-1 2 1-3v-1l2-3h1z"/>
      <path fill="#8f4620" d="M407 176l-2 1-1 1h1v1l-3 4 3-3 1-2 2-1 1 1v3l1-3 1-4h-1l-2-1-1 3z"/>
      <path fill="#dbad6c" d="M418 161s1 2-1 3l-2 1-2-1-5-2-3-1h-1v-1h4l4 1 1 1h4l1-1z"/>
      <path fill="#ab6d29" d="M418 161l-1 2h-3l-4-2-5-1v-1l5 1 5 2 3-1z"/>
      <path d="M404 159h2v1h-2v-1z"/>
      <path fill="#dbad6c" d="M414 166s2 1 1 3l-3-2-6-2-3-1 1-1v-1h3l4 1 3 3zM410 168s3 4 2 6l-7-5-3 4-6-3 6-4v-1h3l4 2 1 1z"/>
      <path fill="#ab6d29" d="M408 162l5 2 4 1-3 1-3-2-3-1v-1z"/>
      <path d="M404 161l3 1h2l-1 1-3-1h-1v-1z"/>
      <path fill="#ab6d29" d="M414 168l1 1h-5l-3-3-4-1h-1l1-1 4 1 4 1 2 1 1 1zM407 170l1 4-1 2-1 1-1-1v-2l-3-2 2-2v-1l3 1z"/>
      <path d="M403 164h2l3 1 1-1-1 1 3 1 3 2-3-1-4-2h-5v-1h1z"/>
      <path fill="#ab6d29" d="M412 173v1l-4-1-1-2-3-2c-1 0 0 0 0 0l5 2 3 2z"/>
      <path d="M412 173s-1-3-6-4l1-1h-3l-3-1h-1l-1 2 3-1 2 2-2 3 2-2 2 1v-1l-1-2 4 2 3 2z"/>
      <path fill="#dbad6c" d="M404 169s4 1 4 5-3 3-3 2c-1-2 0 0 1 0l1-3-1-3-2-1z"/>
      <path fill="#6c3f18" d="M389 160l-1 3-3 5c-3 4-5 4-4 5l2 1 5-8 1-5v-1z"/>
      <path fill="#dbad6c" d="M402 154s1 2 1 7c-1 4-6 8-6 8l-9 6h-3l-1-1h-1l-1-2 1-1 3-3 2-3 1-3v-2 1l1 2-1 3 3-2 2-1 2-2 1-5v-2l1 2 1 4 1-2 1-2 1-2z"/>
      <path fill="#904720" d="M403 176v2c0 2-1 2-2 2v-2l-2-1-2-1h1l2-1 3 1z"/>
      <path fill="#ab6d29" d="M401 176h2l1-2c-1-1-1 1-1 2l-2-2-3 1h3v1z"/>
      <path fill="#904720" d="M389 170h2l5-1 2-2c1-1 4-3 4-7v-6s4 5 0 11c-2 4-5 5-5 5s5-2 5-1v3l3 2h-5l-4 2-2-1-4 1-6-2 3-3c1-2 2-1 2-1z"/>
      <path fill="#ab6d29" d="M399 160l2-4 1-2-1 3-2 3z"/>
      <path fill="#904720" d="M398 156s2 5 0 8c-1 2-8 5-8 5s5-3 7-6l1-6v-1z"/>
      <path fill="#1e2121" d="M391 170l4-1 3-2-2 1-1-1-1 2-3 1zM397 163s1-2 1-6-1-3-1-3l1 4-2 5zM399 163l3-1v-4l-1 3-2 2zM398 176s1-2 2-2l1 2-1-1-2 1zM394 172l4-1 4-2-3 4-4 1 4-3-5 1z"/>
      <path fill="#fff" d="M389 168a3 4 68 0 1-4 5"/>
      <path fill="#f16e16" d="M389 168a3 3 68 0 1-4 5"/>
      <path fill="#000" d="M387 170a1 1 0 1 1-1 1"/>
      <path fill="#d5d3ca" d="M387 171z"/>
      <path fill="#ab6d29" d="M390 165l2-4v-4l1 1 1 2-1 3 2-1 2-8v5c-1 4-2 4-5 6l-5 5c0 2-2 4-3 4l2-3 3-4 1-2z"/>
      <path fill="#904720" d="M389 167l1-4-1-3 1 3-1 4z"/>
      <path d="M393 164l1-4-2-3s2 0 2 3l-1 4z"/>
      <path fill="#ab6d29" d="M383 174v-1l2-3 3-4c0-1 2-4 1-6l-1 5-5 5-1 3v1h1z"/>
      <path fill="#6c4119" d="M401 180h1l-1-2-2-2h-3l2 2h2l1 2z"/>
      <path fill="#6c4119" d="M401 180s2 0 2-2v-2l1 1h1s-1 4-4 3z"/>
    </g>
    <g fill="#f9c83a">
      <path fill="#bf802d" d="M387 180l1 1 1 1 5-1 2-2-2-2h-3l-4 3z"/>
      <path d="M399 178l-1-1-1-1h-6l-2 1-3-2-2-1h-3l-2 2h1l-1 1s-4 2-4 5c-1 4 6 9 8 7 0 0-3-3-3-5 1-2 3-4 6-4l4-1c1-1 3-2 5 0s-6 3-6 3v2s11-4 10-6z"/>
      <path fill="#fcf3d8" d="M380 187s-4-1-4-5 4-5 4-5l2-2h2l2 1s-7 4-7 8l1 3z"/>
      <path fill="#fdeaaf" d="M399 178h-1l-4-2-4 1h-3c-1 0-4-3-5-2l-1 1h-1l2-2 8 2 4-1c2 0 5 1 5 3z"/>
      <path fill="#513625" d="M387 181l3-1 3-1-2 1-3 1h-1z"/>
      <path d="M382 189l-4-1c-3-2-3-4-3-4s-1-3 2-5l2-2c1 0 0 0 0 0l-2 2-1 2-1 1v2l1 2 4 2 2 1z"/>
      <path fill="#8b5122" d="M380 175v-1 1-1 1-1 1-1 1h-1v1l1 1h1l1-1h-1-1a4 4 0 0 1 0-1h1v-1h-1v1z"/>
      <path d="M387 178l-5 2h6c2-1 6-2 7-1 0 2-6 3-6 3v1l5-2 2-1 1-1-2-2h-4l-1 1h-3z"/>
      <path fill="#8f4620" d="M380 186l2 2v1h-2c-1-1-4-1-5-6v1l1 2 1 2 3 1h3l-1-2-2-3v2z"/>
    </g>
    <g fill="#816c2a">
      <path fill="#fcca3d" d="M397 229l-1 2v-2zM390 184l-1-2h-1l1 2z"/>
      <path d="M396 233l-2-2h-3a14 14 0 0 0 5 2zM396 229h-2-1l-2 1a5 5 0 0 1 3-1 30 30 0 0 1 2 0zM396 225l-3 2-3 2h1v-1a24 24 0 0 1 5-2v-1zM394 222l-1 1-1 1-2 2-1 2 2-2a114 114 0 0 0 3-3v-1zM391 220v3l-2 3v1h-1l1 1 2-5a6 6 0 0 0 0-3zM388 220a12 12 0 0 0 0 1v2a145 145 0 0 1-1 4l1-3 1-3-1-1zM386 220v4l-1 3 1-1v-2-4zM384 220a16 16 0 0 0 0 4l-1 3h1a30 30 0 0 1 0-3v-2-2zM382 220v3l-1 3-1 1h1l1-4v-3zM380 220a10 10 0 0 0 0 1l-1 3-1 2h-1l-1 1h1l3-3v-3-1zM379 220l-2 3a9 9 0 0 1-2 2l3-2 1-3zM377 219l-1 1-1 1a10 10 0 0 1-2 1h1l2-1 1-1v-1zM376 218h-1a23 23 0 0 1-1 2h-1v1l1-1 2-2z"/>
      <path d="M375 217l-1 1h-1v1h1l2-2h-1zM375 216l-1 1a14 14 0 0 1-1 0l2-1zM375 214h-1v1h-1v1l1-1 1-1zM375 211l-1 1-1 1v0l1-1h1v-1zM389 195h2v-1 1-1 1-1 1-1 1-1 1-1 1-1 1-1 1-1h-1 1-1 1-1 1-1-1v1zM389 193h1l1-1h1v-1l-1 1h-1l-1 1zM389 191h1l1-1 1-1h-1l-1 1-1 1zM388 189l2-1 2-1v-1l-2 2-2 1zM386 187l5-3-5 3zM385 185l2-1 2-2-2 1-3 2h1zM383 184a173 173 0 0 1 5-3h-1l-4 3z"/>
      <path fill="#78732e" d="M386 180a402 402 0 0 0 4 4l2 5v1l-3 6-9 9-4 4-2 4 2 5a6 6 0 0 0 5 2h7c2 0 4 0 6 2s2 5 2 8a32 32 0 0 1-1 7l1 1 1-8c0-3-1-6-3-8-1-2-4-3-6-3l-7 1h-1l-4-2-1-5 2-5 9-9c4-2 6-6 7-9v-1l-3-6-3-3h-1z"/>
      <path fill="#a8ac71" d="M383 184h-1 1zM385 185h-1z"/>
      <path fill="#78732e" d="M387 187h-1v1zM388 189h-1l1 1zM389 191h-1zM389 193zM389 195v-1 1zM373 214v-1l-1 1h1z"/>
      <path fill="#fff" d="M373 215h-1v1h1v-1z"/>
      <path fill="#78732e" d="M373 218v-1h-1v1z"/>
      <path fill="#fff" d="M373 219v-1 1zM373 221v-1 1zM374 223l-1-1 1 1z"/>
      <path fill="#a8ac71" d="M375 225h-1 1zM377 227h-1c0-1 0 0 0 0h1zM390 228h-1 1z"/>
      <path fill="#fff" d="M391 229l-1-1v1h1z"/>
      <path fill="#a8ac71" d="M391 229v0zM391 231c0-1 0 0 0 0z"/>
      <path fill="#fff" d="M390 233h1-1zM371 165c-1 1 0 0 0 0v-1 1z"/>
    </g>
    <g>
      <path fill="#f9c83a" d="M387 180c-1 0 0 0 0 0z"/>
      <path fill="#8f4620" d="M387 180h-1 1z"/>
      <path fill="#977c2e" d="M395 237h1v1h-1v-1z"/>
    </g>
  </g>
</svg>
