<svg version="1" xmlns="http://www.w3.org/2000/svg" width="900" height="600">
  <path d="M0 0h900v600H0z"/>
  <path fill="#fff" d="M0 0h900v206H0z"/>
  <path fill="#007168" d="M0 0h900v188H0z"/>
  <path fill="#fff" d="M0 394h900v207H0z"/>
  <path fill="#fce100" d="M0 413h900v188H0z"/>
  <path d="M0 0v600l394-300z" fill="#d21034"/>
  <path d="M204 412l-73-53-73 54 28-87-73-53 91 1 27-87 28 87 91-1-74 53z" fill="#fce100"/>
  <path d="M68 352h52c5 5 14 7 23 0 17-9 49 0 49 0l6-6-15-51-6-5s-12-8-34-5c-23 2-30-1-30-1s-20 2-26 5l-6 6z" fill="#fff" fill-rule="evenodd" stroke="#000" stroke-linecap="round" stroke-linejoin="round" stroke-width="1.25972"/>
  <path d="M78 339s51-6 65 13c-8 6-15 7-23 1 1-2 18-20 61-14" fill="none" stroke="#000" stroke-linecap="round" stroke-linejoin="round" stroke-width="1.25972"/>
  <path d="M132 289v56m45-55l9 44m-98-45l-5 23" stroke="#000" stroke-linecap="round" stroke-linejoin="round" stroke-width="1.25972"/>
  <path d="M33 358l13 15h4l18-22 8-10c1-1 2-3 1-4l15-13h3c-1 0-2-1-1-2l3-3 3 3-4 5h-4l-8 7 3 3 6 14 6-4-4-15 9-9-4-5 2-3s31 19 43 14v-14s-31-3-32-10c-1-6 7-7 7-7l-3-4 1-3 5 7 13-11 73 84c4-1 5-2 5-6l-72-83 6-6 1-4 9-7 5 4 23-19h4l38-37-41 30-2-1c0-1 2-2 0-4s-4 2-4 2c-1 0-6-2-8-5v7l-11 10h-8l-11 11-2 5 2 3-6 5-2-1 6-5v-4l-1-2-8 7-20-23 1-4-12-14c-5-1-12-1-14 9-1 2-10 0-10 0l-5 1-29 41 16 20 33-42 1-12 7 8 6-1 20 22-3 3 3 3 3-2 1 2-4 3c-3-2-5-4-5-8l-11 10-1 2-32 27h-3l-1 9 21-18v-3l3 2 16-13 1 1-15 14v1l-3 2-1-1-20 18h-3l-11 11c-3 0-5 0-8 2z" fill-rule="evenodd" stroke="#000" stroke-linecap="round" stroke-linejoin="round" stroke-width="1.25972"/>
</svg>
