<svg xmlns="http://www.w3.org/2000/svg" width="920" height="460">
  <path fill="#007934" d="M0 0h920v460H0z"/>
  <path fill="#fff" d="M280 0h360v460H280z"/>
  <path fill="#007934" d="M463 31l-2 26-9 1s6 3 7 7v2h-7s7 6 7 8v1c-2 2-9 2-9 2s8 6 9 10v5c-1-1-15-12-24-9v1c0 2 13 4 22 12-1 2-25-6-26-1 0 1 26 5 28 8-9 0-29-2-28 1-2 4 18 2 27 5 2 3 2 5-2 5-9-4-27-7-27-2v1c2 1 19 0 26 4-9 3-41-4-41-1 1 2 6 8 14 8 9 0 29 3 30 6 0 2-26-5-36-1-10 5 30 2 36 8s-13-1-13-1-27-3-31-1c-4 1-8 6-8 6s2 5 5 4h1l-2 3s38 9 46 17-48-12-48-12-22 8 2 8c-3 4 1 7 1 7s40 8 44 15c4 6-27-7-34-10s-26 2-27 3v1c1 1 10 3 10 5-1 2-11 3-11 5s50 13 63 24-39-13-39-13 3 4 0 5-14-15-31-5c-3 4 15 7 20 7-2 4-3 6 3 10l1 1h1-1l-13-7 1 7c-6-4-13-6-20-1 0 0 0 5 7 8-4 7 4 5 17 12-19-5-21 5-7 7s51 3 60 15l2 4c-1 1-15-9-17-9l-1 6c-6-4-11-7-18-8l-1 4c-6-5-11-8-20-8l-2 4s-7-9-22 0c-8 6 31 2 38 9 6 7 1 8 1 8l-16-6s-19-3-24 1c-6 4 78 15 80 26 2 6-19-6-38-12l-2 6s-7-7-15-8l1 7s-20-10-31-5c-10 5 37 8 41 13v1c-1 2-15-4-16-1-2 3-24-6-24-2s3 7 3 7 48 4 49 10c2 6-26-3-26-3s-3 4-1 6c-1 0-16-10-14-3-6-2-21-9-19-4 2 6 42 14 43 14-1 0-18 1-17 6-23-14-23-6-22-5-1 0-29-7-7 5 12 6 15 9 15 10h-1-1-1c1 1 3 5 2 6-1 0-15-8-20-8-5-1-29 6-4 18s42-3 56-2c14 2 21 4 20 9-2 5-15-15-29 2-16-3-26-5-18 7-26-10-42 2-9 8 32 0 51-8 51-8s6 10 13 3c8-7 8 2 9 2l7-3h2v64h26s-8-55-4-63c5-7 9-6 9-6s17 5 19 4 0-6 9-5c2-1 1-6 3-7h1c2 0 54 15 65 1-3-8-13-1-15-1-3 0-13-4-19 0-5-4-30-6-30-6-3-3 59 1 62-1 7-7-13-6-17-4-5-3-13-3-17-1-2-5-22-3-33-4-4-2-3-3-1-5 24 1 47 4 70 3 6-8-8-11-17-4-5-8-15 0-22-1s-4-9 5-8 24-1 27-5-1-8-16-4c-5-5-16 0-21 2-7-4-22-1-28 1-5-4 28-9 28-9 13 0 20-2 24-3 19-11-1-12-11-4-6-5-12 0-17 2a54 54 0 0 1-17 3v-1l16-10 22-2 10-5c0-1-3-1-13 2h-18l-9-1v-1h1l10-2s27-2 29-4c0-11-23-6-24-6 0-7-21 0-22 0l-2-1 1-1 3-3 17-3s17-1 19-5c-4-11-35 2-39 4l-2-1c-1-2 5-8 6-8 1-1 25-2 37-18 1-10-14 6-14 6-1-13-16 1-25 2s-9-4-3-5 13 0 17-10c3-9 14 1 15-3 2-3-3-6-3-6s7-8-5-8l-29-1c1-1 13-6 25-5 13 0 6-9-6-9s-18-4-18-4l20-7-1-6s12-9-5-7l-18 2-34 5-4-2v-1l4-2a208 208 0 0 1 44-6c2-2-4-12-18-13-16-2-26 4-26 4s-10-4 0-7c9-3 25 1 25 1s17-5 3-7c-15-2-19 2-26 2-2-3 23-4 24-7-2-4-18 0-27 0-4-1-4-4 0-6h27v-15c-11-2-25 1-32 1 2-5 27-7 30-8 6-7-24 0-25 0-5-1-5-4-1-6 7-1 25 1 23-4-1-5-12-3-16-2l-11 1c-3-4 26-3 26-6-1-3-19-1-25 0-5-4 22-6 23-6 1-9-18 0-22 0l-2-1v-5l8-4h-1l-6-2v-6l6-6v-1c-2-1-7 1-7 1v-5s5 0 5-3v-1l-6-1-3-28zm-4 91v4l-8-2h1c2-2 6-2 6-2h1zm8 5l13 1v1c-1 2-13 3-13 3v-5zm-1 7l7 1v1l-6 1-1-3zm-35 10c3 0 11 0 25 4v5l-28-7h-1v-1l4-1zm13 11c4-1 14 2 14 2v5c-1 0-15-5-16-7h2zm40 10c4 0 7 0 6 1-3 3-22 6-22 6v-6l16-1zm-55 18c3 0 11 2 28 9v4l-30-10c0-1-1-3 2-3zm57 6l1 1c-3 3-17 6-17 6v-3l16-4zm-64 1c4 0 14 2 36 12v4l-39-13c0-1-1-3 3-3zm73 17h1c-3 4-25 7-26 7v-3l25-4zm-65 9c6 0 26 9 27 9v5c0-1-28-12-29-11-1-2 0-3 2-3zm58 3h3c-2 2-21 6-21 6v-4l18-2zm-1 12h2c-2 2-18 5-18 5v-4l16-1zm-67 1c4-1 13 1 37 9v5l-40-13v-1h3zm51 9l9 2c-1 2-8 3-8 3l-1-5zm16 9l3 1-1 1c-5 5-18 6-18 6v-5l16-3zm16 5l3 1-1 2c-2 2-33 11-33 11v-7l31-7zm-20 18l4 1c-3 3-15 3-15 3v-3l11-1zm13 5l1 1h-1c-5 4-24 7-24 7v-3c1 0 19-5 24-5zm10 4l5 1c0 1-1 4-6 6-6-1-33 7-33 7v-3c9-6 26-11 34-11zm-67 15c11 2 16 6 17 8-3 4-21-5-19-7l2-1zm65 1h1l1 1v1h-8l6-2zm-24 13h2v1c-2 3-10 2-10 2v-2l8-1zm-47 8c3 0 5 2 7 3 5-1 15 1 15 1v4c-1 1-13 0-15-2l-9-4v-1l2-1zm52 3c2 0 3 0 2 2-5 6-15 4-15 4v-4l13-2zm-39 11l9 2s2 4 0 6c-2 1-13-1-14-6l5-2zm-43 2c4 0 8 3 8 3v4s-7-2-10-6l2-1zm73 1l11 2-1 1c-2 3-14 1-14 1v-4h4z"/>
</svg>
