<svg xmlns="http://www.w3.org/2000/svg" xmlns:xlink="http://www.w3.org/1999/xlink" width="1800" height="900">
  <defs>
    <g id="b">
      <g id="a">
        <path d="M1 0H0v1z"/>
        <path d="M1 0H0z" transform="rotate(-36 0 0)"/>
      </g>
      <use xlink:href="#a" transform="rotate(72)"/>
      <use xlink:href="#a" transform="rotate(144)"/>
      <use xlink:href="#a" transform="rotate(216)"/>
      <use xlink:href="#a" transform="rotate(288)"/>
    </g>
  </defs>
  <path fill="#00247d" d="M0 0h1800v900H0z"/>
  <g fill="#fed100">
    <path d="M329 777c-18 0 169-99 325-226 205-167 646-434 775-477 14-5-28 23-33 32-138 164-28 473 145 628 52 40 49 42 146 46v9L329 777zM318 795s-13 10-13 17c0 8 15 18 15 18l1339 15 24-17-34-21-1331-12z"/>
  </g>
  <g fill="#fff">
    <use xlink:href="#b" transform="matrix(45 0 0 45 343 113)"/>
    <use xlink:href="#b" transform="matrix(37.5 0 0 37.5 521 268)"/>
    <use xlink:href="#b" transform="matrix(45 0 0 45 135 322)"/>
    <use xlink:href="#b" transform="matrix(52.5 0 0 52.5 343 653)"/>
  </g>
</svg>
