<svg xmlns="http://www.w3.org/2000/svg" xmlns:xlink="http://www.w3.org/1999/xlink" width="1200" height="600">
  <defs>
    <clipPath id="b">
      <path d="M0 0v150h700v150H600zm0 300v100h300V0h300z"/>
    </clipPath>
    <path id="a" fill="#ffce00" d="M0-50l29 91-77-56h96l-77 56z"/>
    <use id="c" xlink:href="#a" transform="rotate(36)"/>
  </defs>
  <path fill="#00247d" d="M0 0h1200v600H0z"/>
  <path d="M0 0l600 300M0 300L600 0" stroke="#fff" stroke-width="60"/>
  <path d="M0 0l600 300M0 300L600 0" stroke="#cf142b" stroke-width="40" clip-path="url(#b)"/>
  <path d="M300 0v400M0 150h700" stroke="#fff" stroke-width="100"/>
  <path d="M300 0v400M0 150h700" stroke="#cf142b" stroke-width="60"/>
  <path d="M0 300h600V0h600v600H0z" fill="#5b97b1"/>
  <use xlink:href="#a" x="645" y="541"/>
  <use xlink:href="#c" x="788" y="505"/>
  <use xlink:href="#c" x="788" y="383"/>
  <use xlink:href="#c" x="914" y="474"/>
  <use xlink:href="#c" x="914" y="208"/>
  <use xlink:href="#a" x="996" y="390"/>
  <use xlink:href="#c" x="1020" y="172"/>
  <use xlink:href="#a" x="1103" y="322"/>
  <use xlink:href="#a" x="1103" y="87"/>
</svg>
