<svg xmlns="http://www.w3.org/2000/svg" width="900" height="600">
  <path d="M0 0h900v600H0z"/>
  <path fill="#fcdc04" d="M0 100h900v100H0z"/>
  <path fill="#d90000" d="M0 200h900v100H0z"/>
  <path fill="#fcdc04" d="M0 400h900v100H0z"/>
  <path fill="#d90000" d="M0 500h900v100H0z"/>
  <circle cx="450" cy="300" r="94" fill="#fff"/>
  <g stroke="#000">
    <path d="M434 228l-7-11c3-2 7-4 13-4l-1 12z" fill="#d90000"/>
    <path d="M439 225l1-12s13-1 20 8l-7 9z" fill="#fcdc04"/>
    <path d="M453 230l6-10c4 5 6 8 7 13l-10 2-3-5z" fill="#d90000"/>
    <path d="M437 388s11-13 34-10c-4-6-15-5-15-5s-3-26 0-27c2-2 14 0 14 0 1 0 4-4 2-7-2-2-8-12-6-14 3-2 16 1 16 1l-38-48s-4-18 4-27c9-8 8-16 8-16-1-8-14-14-23-7-5 7-1 11-1 11s-14 4-14 6c-1 3 15 0 15 0l-2 11s-30 27-7 51l1-1s8 10 17 12l7 8s2 13 0 15h-25c-3 1-14 0-11 18l4-9s-1 6 2 8c-1-6 2-11 2-11l2 9c2 1 2-12 11-11l15 1s3 25 2 27c-6-2-22 1-22 4l13 1s-8 6-5 10z"/>
    <path d="M440 252s-22 24-12 43v-4l3 1-1-4 3 1-2-3h4l-1-4h4c-7-11-1-20 2-30zM448 231s1 8-4 11c0 0-3 1-3 3 1 2 2 2 4 1 5-1 10-11 3-15z" fill="#9ca69c" stroke="#9ca69c"/>
    <circle cx="438" cy="238" r="2" fill="#fff" stroke="none"/>
    <path d="M433 245c-2 1-8 7-2 10 7-2 5-3 6-5 0-2-3-3-4-5z" fill="#d90000"/>
    <path d="M446 305c0 2-2 7 0 11 5-3 8-2 10-1-5-3-6-5-10-10z" fill="#9ca69c" stroke="#9ca69c"/>
    <path d="M455 329v12h6c2 0 0-8-6-12z" fill="#fff" stroke="#fff"/>
    <path d="M485 331s-7-19-27-23c-20-5-17-26-15-27 0-2 1-5 7-2 5 3 31 16 35 16 4 1 1 36 0 36z" fill="#9ca69c"/>
    <path d="M467 308c-1 0 26 15 18 29 7-5 5-14 5-14s6 16-9 24l3 1-3 2s-1 2 9-3l-3 4s1 2 7-3l-6 8c14-1 46-48-10-62l3 3z" fill="#d90000"/>
    <path d="M468 303c3 3 5 3 5 5l-6-1s-7-7-9-7l-6-4c-3-1-5-11 5-8l12 6 12 4 8 8-15-7c4 3 6 7 6 7l-12-3z" fill="#fff"/>
    <path d="M418 246l13-3" stroke="#fff"/>
  </g>
</svg>
