<svg xmlns="http://www.w3.org/2000/svg" xmlns:xlink="http://www.w3.org/1999/xlink" width="500" height="500" viewBox="0 0 2500 2500">
  <path fill="#fff" d="M0 0h2500v2500H0z"/>
  <path fill="#ffe000" d="M0 0h1250v2500H0z"/>
  <g stroke="#000" stroke-width="3" stroke-linejoin="round">
    <g fill="#ce9d09" stroke-linecap="round">
      <g id="a">
        <path fill="#fff" d="M1781 990l16 4 26 4 12 2-2 50s-3 33-8 48c-4 12-16 34-16 34l-8 11-45-39 11-17 7-24 5-26 2-32zm-57 152l41 36s-8 7-13 9c-10 5-21 8-32 8-7 0-15-3-22-6-16-8-33-15-43-29-4-5-5-12-5-18 0-7 6-20 6-20s3 9 5 12c5 6 12 10 18 13a43 43 0 0 0 36 1c4-1 9-6 9-6z"/>
        <path fill="#fff" d="M1659 878l4 10 3 18c0 7-2 13-3 19l-11 26-8 16-11 27-9 22a210 210 0 0 0-8 59c0 11 0 22 2 33 2 10 5 21 10 31 4 8 9 15 15 21 5 5 10 10 17 14l18 7 25 10s-24-12-32-22c-7-8-10-18-13-29-2-11-2-24-1-36l9-39 16-38 12-28 12-33 6-21-3-23c-2-11-5-22-11-31-4-5-9-10-15-13s-13-5-19-4c-2 0-5 4-5 4z"/>
        <path fill="#fff" d="M1712 946l5-28-1-23c-1-9-1-18-5-26a68 68 0 0 0-38-37c-9-4-18-4-28-5a130 130 0 0 0-38 4l-12 6 30 49 15-7c5-2 11-2 17-1 6 0 12 0 17 3 7 3 12 8 17 13 7 6 12 14 15 22 4 8 4 16 5 24l1 6z"/>
        <path d="M1717 907s-5-17-10-24c-6-8-14-15-23-20-9-4-31-6-31-6l12 21h-20l-11-18-19 9-9-16 20-9-9-15 20-2 9 15s16 0 24 1a58 58 0 0 1 27 15c5 4 9 8 12 14l7 17z"/>
        <path d="M1582 845l32 47m-18-55l-15 9-15 11 31 47 14-11 14-8zM1654 1036l18-37 19 8 8-19-19-9 9-22-14-6-10 20-19-8-9 20 19 8-17 37zM1797 1025l18-1v21l18 1-3 22-17-1-5 18-9 18-20-5 10-17 5-17-19-2 3-21 18 2z"/>
      </g>
      <use xlink:href="#a" transform="matrix(-1 0 0 1 3718 0)"/>
      <path fill="#fff" d="M1757 736l-28 29 17 51 10 36-28 26 51 71-18 19-2 9c1 3 2 6 4 7 4 5 11 5 17 7 21 6 43 8 65 10h28c22-2 44-4 65-10 6-2 12-2 17-7 2-1 3-4 3-7 1-3 0-6-2-9l-16-35 52-56-20-18v-43l17-51-26-26-23-61s-5-17-9-25l-9-13-13-14-14-9c-6-2-11-6-17-7-6-2-19-2-19-2s-13 0-19 2c-6 1-11 5-17 7l-15 9-12 14-10 13c-4 8-8 25-8 25z"/>
      <path d="M1963 933l-5-4-12-6-17-5-20-4a198 198 0 0 0-50 0l-26-1-24 1-20 4-18 5-12 6-5 4m219-43s-5-5-8-5c-3-1-5 0-7 1l-5 7 1 8c1 2 2 5 4 5 5 2 15-2 15-2zm5-3c6 0 8 3 10 6m-243-3l-1 14s11 4 16 2c2 0 3-3 4-5a13 13 0 0 0-4-15c-2-1-5-2-7-1-3 0-8 5-8 5zm-6-3c-5 0-8 3-9 6m198 2l-8-1m-130 1l8-1m76 1l-8-5m-22 5l7-5m141-19l-7 4h-1l-4 9-6 6-8-5h-6l-5 4c-1 3-3 5-2 8 0 3 3 8 3 8l-2 4-4 3-19-8c-2-2-3-4-4-9l5-5c1-2 2-6 0-8-1-3-5-4-8-4l-6 2c-2 2-3 5-3 7 1 3 5 6 5 6s-2 5-4 6c-6 2-10 4-15 4-5 1-11 2-16 0-4-1-7-2-9-5l-1-3 9-4c2-2 5-4 6-8l-3-9-8-6h-4-1l-5 4-1 1h-1l-3 1s4 1 5 3l2 3v2l-1 3-2 4-1 1-4 2h-4s5 0 8-2a11 11 0 0 0 3-7l1-3-3-4c-2-2-9-3-9-3s-7 1-10 3l-2 4v3l1 2c0 2 1 4 3 5 2 2 8 2 8 2h-4l-4-2-2-1-1-4-1-3v-2l1-3c1-2 5-3 5-3l-2-1h-1l-1-1-5-4h-1-4l-8 6-3 9c1 4 3 6 6 8 2 2 9 4 9 4l-1 3c-2 3-5 4-9 5-5 2-11 1-16 0-5 0-9-2-15-4-2-1-4-6-4-6s4-3 4-6c1-2 0-5-2-7l-6-2c-3 0-7 1-9 4v8l6 5c-1 5-3 7-4 9l-19 8-4-3-3-4s4-5 4-8l-2-8-5-4h-6l-8 5-6-6-4-9h-1l-7-4-5 1s-4 2-4 4c0 3 4 4 5 6l5 6 3 5v7c1 3 4 6 7 6 2 1 7-2 7-2v20l10 9 10 20-4 5 1 10c8-9 21-13 33-17a255 255 0 0 1 65-4s44-2 65 4c12 4 25 8 32 17l1-10-3-5 9-20 11-9-1-20s5 3 8 2c3 0 6-3 7-6v-7c0-2 2-4 3-5l4-6c2-2 6-3 6-6 0-2-4-4-4-4l-5-1zm-148-3l5 4 2 1h16l2-1 5-4 1-2v-8c-2-4-5-5-8-7l-8-4-8 4c-3 2-7 3-8 7-2 2-2 6 0 8l1 2z"/>
      <path d="M1981 830l-17-7-32-7c-12-3-25-3-37-6l-12-4c-5-1-11-3-16-2l-8 5-8-5c-5-1-11 1-16 2l-12 4c-12 3-25 3-37 6l-32 7-17 7m197-45l8-5 2-6c1-2 0-4-2-6-1-2-4-2-6-2l-5 1-3 6c-1 2 0 4 1 5l5 7zm-151 0l6-7 1-5-3-6-5-1c-2 0-5 0-6 2l-3 6 3 6 7 5zm-41 18l-12 15 1 6c1 3 6 6 6 6l1 21-11 20h-1l7 4h1c4 0 7-5 11-8l15-7a240 240 0 0 1 50-15 142 142 0 0 1 29-1c7 0 20 3 20 3l19-3a141 141 0 0 1 58 8 240 240 0 0 1 37 15c4 3 7 8 11 8h1l7-4h-1l-11-20 1-21 6-6v-6l-11-15-10 7h-7l-6-4c-5-4-10-8-13-13l-6-8s-12 10-20 12-16 1-24-1c-2 0-5-3-5-3-9-5-17-9-26-8-9-1-18 3-27 8 0 0-3 3-5 3-7 2-15 3-23 1s-21-12-21-12l-5 8-13 13-6 4h-7c-4-1-10-7-10-7z"/>
      <path d="M1986 796v-8l-3-7-6-6m-1 28l4-1c3-1 6-6 6-6s7 4 11 4c2 0 3-2 4-4 1-1 2-3 1-5 0-2-1-3-3-4l-8-4c-1-2 0-5 1-7 1-5 4-9 7-13 2-3 5-4 6-7l-2-5h-8c-4 2-8 3-11 7-2 2-3 6-4 9l-3 8-9 1c-3 2-7 4-8 8-2 3-1 6 0 9s3 5 6 7 10 3 10 3zm-235-28l-6 6-3 7v8m-17-45l-2 5c0 3 4 4 6 7 2 4 6 8 7 13v7c-1 2-5 2-8 4l-2 4c-1 2 0 4 1 5 1 2 2 4 4 4 4 0 10-4 10-4l6 6 5 1s7-1 10-3 5-4 6-7v-9c-2-4-5-6-9-8l-8-1-3-8c-1-3-2-7-4-9-3-4-7-5-11-7h-8zm136 14l8-2 8 2m-14 20s-7-6-8-10v-5l6-5s-7-3-9-6v-7c1-3 3-6 6-8l11-5 11 5c3 2 5 5 6 8 1 2 0 5-1 7-1 3-9 6-9 6s5 3 6 5l1 5c-1 4-8 10-8 10l-6 1zm22-27s14 6 18 11l3 6c-1 7-11 18-11 18l-20-8h-13l-20 8s-9-11-10-18l2-6c5-5 18-11 18-11"/>
      <path d="M1844 669l8-6h7-7l-4-4c-1-2-2-4-1-6 0-3 2-6 4-7l8-1 8 1c2 1 4 4 4 7l-1 6-5 4h-6 6l8 6m53 5l-3 5m33-20l-8 1m9 9h-12m-1-13c1 1 4 2 4 4 1 3 0 7-3 9-2 2-9 2-9 2m-182 33l17-4 25-5 28-4h70l28 4 24 5 17 4m-171-30l2 5m-32-20l7 1m-8 9h11m-6 16l19-4a274 274 0 0 1 45-6h58a299 299 0 0 1 45 6l19 4m-170-14s-7 0-10-2c-2-2-4-6-3-9l6-5m63 74a297 297 0 0 0-72 13c-11 4-23 23-32 16-2-2 1-5 2-8 1-4 4-9 7-12s8-3 9-7c0-3-4-4-4-7-1-3-2-6-1-10s6-6 8-10c1-3-3-8-1-11 2-4 11-3 12-7 0-3-4-3-5-6l1-5-1-6c-1-2-4-2-4-4-1-2 0-4 1-6h4c1-3-2-6-4-8l-4-10c0-3-3-7 0-8 3-2 5 3 8 5l9 8c2 3 1 7 3 9 3 2 8 0 11 2 2 3 4 6 3 9 0 3-7 3-6 6 0 3 6 3 10 2 2 0 3-2 5-3l4-3 5-1h-2l-3-5c-1-1 0-3 1-5l6-2 4 2c2 1 2 3 2 5l-2 4-5 1 2 1 7 8 26-1s3-4 3-6c-1-2-3-2-6-2-8 0-10-7-10-12 0-4 6-7 10-9s10 4 12 0-6-5-7-9v-4c2-4 6-7 10-8l5-1 5 1c4 1 8 4 9 8l1 4c-2 4-9 5-7 9 1 4 8-2 12 0s9 5 10 9c0 5-2 12-10 12-4 0-5 0-6 2s3 6 3 6l26 1 6-8 3-1-5-1-2-4c-1-2 0-4 1-5l5-2 5 2c2 2 2 4 2 5 0 2-3 5-3 5h-3l6 1 4 3c1 1 3 3 5 3 3 1 9 1 10-2s-6-3-7-6c0-3 2-6 4-9 3-2 8 0 10-2 3-2 2-6 3-9l10-8c2-2 5-7 8-5 2 1 0 5-1 8 0 3-2 6-4 10-1 2-5 5-3 8h4c1 2 2 4 1 6l-4 4-1 6v5c0 3-4 3-4 6 1 4 10 3 12 7 2 3-2 8-1 11 1 4 7 6 8 10s0 7-1 10-5 4-4 7c1 4 6 4 8 7 4 3 6 8 8 12 1 3 4 6 2 8-9 7-21-12-32-16a220 220 0 0 0-72-13h-21-21zM1869 595l-10 1-10-1m17-33c2-6-2-10-7-14-5 4-10 8-7 14m14 46c4 1 9 5 12 2v-5c-2-4-9-5-9-9s5-5 6-9v-5c-2-7-14-7-16-14-1-3 6-6 7-6 4-2 9 2 14 0 3-1 6-4 6-7s-4-6-7-8c-6-2-16 6-20 1s8-11 7-17c-1-3-7-6-7-6s-6 3-7 6c-2 6 10 12 7 17-4 5-14-3-20-1-3 2-7 5-7 8s3 6 6 7c4 2 10-2 14 0 1 0 8 3 7 6-2 7-14 7-17 14v5c2 4 7 5 7 9-1 4-7 5-9 9v5c3 3 8-1 12-2h14z"/>
      <path fill="none" d="M1954 953l-11-4-20-6-20-5h-44-44l-20 5a258 258 0 0 0-31 10m202-222l-18-7-16-5-19-3-28-3-26-1-26 1a376 376 0 0 0-48 6l-15 5-18 7m-14 120l26-8 28-8c11-3 22-4 34-5l33-3 33 3c12 1 23 2 34 5l28 8 26 8"/>
    </g>
    <g fill="#ccc">
      <g id="b">
        <path d="M1533 904l101 87-7 17a143 143 0 0 0-9 41l-118-108c2-25 16-34 33-37z"/>
        <path d="M1519 958l-24 27 15 15-24 23-15-15-25 27-1 34 59 45 20-15-2-32 16 8 15-9 1 29-12-9-14 18-2 32 44 39 53-47-4-14-2-13-1-25 2-27z"/>
        <path d="M1495 985l-1 30 16-15z"/>
        <path fill="none" d="M1572 1140l-2 35m-18-140v32m-15-18l1 26m-14-36v29m-21 15v31m25-10l44 37 45-40m-171-66l58 49 18-17-14-13 16-15 13 11 15-15 19 18-18 14 16 14-15 14"/>
        <path d="M1901 1229l49 45 11 31-63-6-36-36-38-35-164-142 6-19 11-28 3-7 183 163z"/>
        <path d="M1943 1236c27 38 72 74 86 91s23 33 3 55-43 10-61-2-50-51-95-82z"/>
        <path d="M1927 1300l-35-16m40-38c3 8 1 16 4 24s14 20 14 20l-10 2c-5 2-12 3-13 8-1 4 4 8 7 11l10 8c6 3 12 7 19 9 9 1 26-11 27-2 1 3-7 1-11 3-7 3-11 12-4 17 4 4 11 3 17 3 5 1 11-2 16 0 6 4 13 11 10 17s-15 6-20 2c-4-3-3-9-4-14v-5"/>
        <circle cx="2155" cy="1480" r="130"/>
        <path fill="#fff" d="M2106 1486a40 40 0 1 0 41 40h14a40 40 0 1 0 40-41l1-8a40 40 0 1 0-41-40l-14-2a40 40 0 1 0-40 41z"/>
        <circle cx="2155" cy="1446" r="15"/>
        <circle cx="2189" cy="1480" r="15"/>
        <circle cx="2155" cy="1511" r="15"/>
        <circle cx="2119" cy="1480" r="15"/>
        <path fill="#fff" d="M2152 1558c-5 11-12 16-22 22 14 6 30 5 44 0-9-4-16-12-22-22zm-76-80c-11-5-16-12-22-22-6 14-5 30 0 44 4-9 12-16 22-22zm159 4c11-5 16-13 22-22 6 13 5 29 0 44-5-10-12-16-22-22zm-79-81c-5-11-12-16-21-22 13-6 29-5 43 0-9 5-16 12-22 22z"/>
      </g>
      <g fill="#ce9d09">
        <g id="c">
          <path d="M1533 904v-8c-1-3-3-7-6-10-3-2-6-4-9-4a25 25 0 0 0-18 4l-15 6-5 18-4 8c-1 4-2 7-1 10 1 4 3 8 6 11l11 4 8-2c2-19 10-33 33-37z"/>
          <path d="M1500 886l-38-17-4 3 21 38 10-13 11-11z"/>
          <circle cy="865" cx="1457" r="16"/>
          <path d="M1566 932c4 28 8 56 16 84l31 29c-6-30-18-59-18-88z"/>
          <path d="M1613 972l-85-6 27 25 78 3 1-4zM1718 1067c-22 8-31 22-37 37-7 1-13 1-15-4 5-35 30-46 36-48 15-3 12 9 16 15zM1746 1093c-23 8-32 22-38 37-6 1-12 1-14-4 5-35 30-46 35-48 15-3 13 9 17 15zM2059 1355c-8-1-15 1-15 1 0 8-3 17-12 26-8 9-16 12-24 12s-3 18 3 24 27 4 27 4l2-2a130 130 0 0 1 31-39l1-2s3-16-2-21c-3-2-7-3-11 0z"/>
          <circle cy="1375" cx="2255" r="18"/>
          <circle cy="1580" cx="2261" r="18"/>
          <circle cy="1592" cx="2062" r="18"/>
        </g>
      </g>
    </g>
    <g fill="#ce9d09" transform="matrix(-1 0 0 1 3718 0)">
      <use xlink:href="#b"/>
      <use xlink:href="#c" fill="#ccc"/>
    </g>
    <g fill="#fa0204">
      <path id="d" d="M1869 1176c0 5-4 7-13 7s-13-2-13-8c0-5 4-6 13-6s13 1 13 7z"/>
      <use xlink:href="#d" x="6" y="14"/>
      <path d="M1877 1209c-1 5-6 5-15 2-8-3-11-6-9-11s6-5 14-2c8 2 12 6 10 11z"/>
      <path id="e" d="M1878 1223c-2 5-6 6-15 4s-12-5-11-10 5-6 14-4 13 4 12 10z"/>
      <use xlink:href="#e" x="4" y="16"/>
      <path d="M1922 1216c-3 0-3-5-2-8 1-4 9-9 9-9s1 6 0 8c-1 4-3 10-7 9z"/>
      <path d="M1912 1224c-3 0-3-5-2-8 1-4 9-9 9-9s2 6 1 9-4 9-8 8z"/>
      <path d="M1902 1240c-5-1-4-9-3-13s4-9 7-8c4 1 4 8 3 12s-4 10-7 9z"/>
      <path d="M1889 1252c-4-1-6-7-5-12 0-4 5-10 9-9 5 1 6 8 5 13-1 4-5 9-9 8zM1887 1260c-2 5-8 6-12 5s-10-7-8-12c1-6 8-7 12-6 4 2 9 8 8 13zM1801 1210l8 5c2 2 5 3 4 7-2 4-6 2-9 0-2-3-3-12-3-12zM1827 1219c5 1 5 7 2 11s-11 9-16 8c-6-1-5-8-2-12s11-8 16-7z"/>
      <path id="f" d="M1844 1231c5 2 4 8 0 11-3 3-12 6-17 4-6-3-3-9 0-12 4-3 12-6 17-3z"/>
      <use xlink:href="#f" x="14" y="11"/>
      <path d="M1863 1251c5 0 6 7 5 11-2 5-8 11-13 10s-6-8-4-12c2-5 7-10 12-9z"/>
      <path d="M1875 1265c4 3 3 10 1 14-3 4-10 8-14 6-5-2-3-10 0-14 2-4 9-8 13-6zM1789 1225c4 0 7 6 7 11s-3 12-8 13c-4 0-7-7-7-12 1-4 4-11 8-12zM1803 1238c4 1 5 8 3 12-1 5-6 11-11 10-4-1-5-9-3-13 2-5 7-10 11-9z"/>
      <path d="M1816 1246c5 1 6 10 4 15-2 6-8 14-13 13-6-2-6-11-4-17 2-5 8-12 13-11zM1826 1257c5-1 9 7 10 13 0 6-3 15-9 16-5 0-9-8-9-14s3-15 8-15z"/>
      <path id="g" d="M1839 1266c4-1 8 6 8 10 0 5-3 13-7 14-5 0-9-7-9-12s3-12 8-12z"/>
      <use xlink:href="#g" x="13" y="10"/>
      <path id="h" d="M1929 1251c-3 3-9 0-12-3s-6-10-2-13c3-3 10 0 13 3s4 10 1 13z"/>
      <use xlink:href="#h" x="-7" y="13"/>
      <use xlink:href="#h" x="-19" y="23"/>
      <path d="M1905 1281c-1 4-8 6-12 5s-10-6-9-11c1-4 9-5 13-4s9 6 8 10z"/>
      <path d="M1887 1278c4 3 3 11 1 15-3 5-9 10-13 7s-3-11 0-16c2-4 9-8 12-6zM1870 1288c4 2 3 9 0 13s-10 9-14 6c-4-2-3-10 0-14s10-8 14-5z"/>
      <path id="i" d="M1831 1313c-3 3 0 11 3 15 4 4 12 8 15 5 4-4 1-12-3-16s-11-7-15-4z"/>
      <use xlink:href="#i" x="-7" y="14"/>
      <path id="j" d="M1821 1340c-5 1-5 10-3 15s8 12 12 10c5-2 5-11 3-16s-8-11-12-9z"/>
      <use xlink:href="#j" x="-11" y="15"/>
      <path id="k" d="M1803 1371c-5 1-7 9-6 15 1 5 6 13 11 11 5-1 6-10 5-15s-6-12-10-11z"/>
      <use xlink:href="#k" x="-10" y="16"/>
      <path id="l" d="M1784 1403c-5 0-8 8-8 14 0 5 3 13 8 13s9-9 8-14c0-5-3-13-8-13z"/>
      <use xlink:href="#l" x="-10" y="19"/>
      <use xlink:href="#l" x="-22" y="37"/>
      <use xlink:href="#l" x="-35" y="52"/>
      <use xlink:href="#l" x="-48" y="67"/>
      <use xlink:href="#l" x="-62" y="78"/>
      <use xlink:href="#l" x="-76" y="91"/>
      <path d="M1693 1500l-5 21s2 7 6 7c5-1 6-9 8-15 0-8-9-13-9-13zM2017 1513c2 6 15 12 15 12l-6-28c-6 0-10 12-9 16z"/>
      <path d="M2016 1491c-4-2-11 4-13 9s-2 14 2 16c5 2 12-5 14-10s1-13-3-15z"/>
      <path id="m" d="M2001 1479c-5-1-9 7-9 12-1 6 2 14 7 15 5 0 9-8 9-14 0-5-3-13-7-13z"/>
      <use xlink:href="#m" x="-13" y="-14"/>
      <use xlink:href="#m" x="-26" y="-29"/>
      <use xlink:href="#m" x="-39" y="-42"/>
      <use xlink:href="#m" x="-49" y="-60"/>
      <use xlink:href="#m" x="-60" y="-76"/>
      <use xlink:href="#m" x="-71" y="-93"/>
      <use xlink:href="#m" x="-80" y="-113"/>
      <use xlink:href="#m" x="-90" y="-131"/>
      <use xlink:href="#m" x="-98" y="-153"/>
      <path d="M1884 1305s-2 26 8 28c6 1 11-15 11-15z"/>
      <path id="n" d="M1862 1611c-3 3 1 11 5 14 4 4 13 7 16 3s-2-12-6-16c-4-3-12-5-15-1z"/>
      <use xlink:href="#n" x="18" y="-2"/>
      <use xlink:href="#n" x="37" y="-6"/>
      <path id="o" d="M1916 1604c-2 4 3 11 7 14 5 3 14 4 16 0 3-5-3-12-8-15-4-2-13-3-15 1z"/>
      <use xlink:href="#o" x="20" y="-3"/>
      <path id="p" d="M1953 1595c-1 5 4 11 9 14 5 2 14 2 16-2 2-5-4-11-10-14-4-2-13-2-15 2z"/>
      <use xlink:href="#p" x="19" y="-6"/>
      <path id="q" d="M1991 1584c-1 4 4 10 9 12 6 3 15 3 16-2 2-5-5-11-10-13s-13-1-15 3z"/>
      <use xlink:href="#q" x="19" y="-6"/>
      <use xlink:href="#q" x="38" y="-14"/>
      <use xlink:href="#q" x="57" y="-22"/>
      <use xlink:href="#q" x="78" y="-29"/>
      <use xlink:href="#q" x="80" y="-44"/>
      <path d="M2067 1535s13 2 14-3c2-6-15-13-15-13z"/>
      <path id="r" d="M1702 1576c-4 2-3 10-1 15 3 5 10 10 14 8 4-3 3-12 0-17-3-4-9-9-13-6z"/>
      <use xlink:href="#r" x="19" y="8"/>
      <use xlink:href="#r" x="37" y="11"/>
      <use xlink:href="#r" x="57" y="16"/>
      <use xlink:href="#r" x="75" y="18"/>
      <use xlink:href="#r" x="92" y="22"/>
      <use xlink:href="#r" x="110" y="27"/>
      <use xlink:href="#r" x="128" y="30"/>
      <use xlink:href="#r" x="147" y="33"/>
      <path d="M1648 1518c-4-3-11 2-13 7-3 5-4 14 0 16 5 2 12-3 14-9 3-4 3-12-1-14z"/>
      <path d="M1642 1534c-4-1-10 5-12 10s-2 14 2 16c5 1 11-6 13-11s1-13-3-15z"/>
      <path d="M1648 1550c-5-1-10 5-12 10-1 6 0 15 4 16 5 1 11-6 12-12 1-5 0-13-4-14z"/>
      <path d="M1662 1556c-4-1-10 5-11 10-2 6-2 15 3 16s11-6 12-11c2-5 1-13-4-15z"/>
      <path id="s" d="M1672 1559c-5 1-6 9-5 14 1 6 6 13 11 12s6-10 5-16c-2-5-7-11-11-10z"/>
      <use xlink:href="#s" x="17" y="6"/>
      <use xlink:href="#i" x="9" y="-11"/>
      <use xlink:href="#i" x="5" y="6"/>
      <use xlink:href="#i" x="5" y="27"/>
      <use xlink:href="#i" x="5" y="48"/>
      <use xlink:href="#i" x="6" y="69"/>
      <use xlink:href="#i" x="2" y="88"/>
      <use xlink:href="#i" x="5" y="109"/>
      <use xlink:href="#i" x="2" y="126"/>
      <use xlink:href="#i" x="5" y="143"/>
      <use xlink:href="#i" x="5" y="164"/>
      <use xlink:href="#i" x="3" y="184"/>
      <use xlink:href="#i" x="4" y="203"/>
      <use xlink:href="#i" x="4" y="224"/>
      <use xlink:href="#i" x="4" y="243"/>
      <use xlink:href="#i" x="4" y="263"/>
      <use xlink:href="#i" x="3" y="283"/>
      <use xlink:href="#i" x="3" y="305"/>
      <use xlink:href="#i" x="2" y="328"/>
      <use xlink:href="#i" x="2" y="349"/>
      <use xlink:href="#i" x="2" y="369"/>
      <use xlink:href="#i" x="1" y="391"/>
      <path id="t" d="M1882 1303c3 4-1 11-5 14s-12 6-14 2c-3-4 1-12 6-15 4-3 11-4 13-1z"/>
      <use xlink:href="#t" x="3" y="16"/>
      <use xlink:href="#t" x="2" y="34"/>
      <use xlink:href="#t" x="2" y="52"/>
      <use xlink:href="#t" x="2" y="69"/>
      <use xlink:href="#t" x="3" y="87"/>
      <use xlink:href="#t" x="2" y="104"/>
      <path d="M1883 1426c3 4-1 11-5 15-5 3-14 5-16 1-3-4 2-12 6-15 5-3 13-5 15-1z"/>
      <path id="u" d="M1882 1444c3 3 1 11-3 15-3 4-11 8-15 5-4-4 0-12 4-17 3-3 11-7 14-3z"/>
      <use xlink:href="#u" x="1" y="20"/>
      <use xlink:href="#u" x="1" y="40"/>
      <use xlink:href="#u" y="62"/>
      <use xlink:href="#u" x="1" y="82"/>
      <use xlink:href="#u" y="103"/>
      <use xlink:href="#u" x="1" y="123"/>
      <use xlink:href="#u" x="1" y="144"/>
      <use xlink:href="#u" y="164"/>
      <use xlink:href="#u" x="1" y="183"/>
      <use xlink:href="#u" x="1" y="203"/>
      <use xlink:href="#u" y="224"/>
      <use xlink:href="#u" y="245"/>
    </g>
    <path fill="#fa0204" d="M1850 1848c20 6 31 5 48 1l-18-28"/>
    <path fill="#ce9d09" d="M1888 1776l-31-8s0-35 20-32c17 2 12 40 11 40z"/>
    <circle fill="#ce9d09" cx="1873" cy="1723" r="13"/>
    <path fill="#fa0204" d="M1885 1792c7 18 12 33 5 53m8 4c-11-9-37-6-48-1-5 0-17-83 25-81 39 2 25 82 23 82z"/>
    <g>
      <path fill="#fa0204" d="M1815 1866c19 13 37 11 54 1l-40-42"/>
      <circle fill="#ce9d09" cx="1843" cy="1738" r="13"/>
      <path fill="#ce9d09" d="M1859 1780l-32-1s-5-26 16-27c17-1 17 28 16 28z"/>
      <path fill="#fa0204" d="M1844 1861c-7-14-7-31-6-50m-9 51c-8-14-9-30-3-52m43 57c-5-6-40-9-54 0-5 0-18-94 29-92 44 2 28 92 25 92z"/>
    </g>
  </g>
</svg>
