<svg xmlns="http://www.w3.org/2000/svg" xmlns:xlink="http://www.w3.org/1999/xlink" width="1200" height="600">
  <defs>
    <linearGradient id="b" gradientUnits="userSpaceOnUse" x1="103" y1="111" x2="93" y2="108" gradientTransform="matrix(.99614 0 0 2.25255 704 -75)">
      <stop stop-color="red" offset="0"/>
      <stop stop-color="#ff0" offset="1"/>
    </linearGradient>
    <clipPath id="a">
      <path d="M0 0v150h700v150H600zm600 0H300v350H0v-50z"/>
    </clipPath>
  </defs>
  <path fill="#00247d" d="M0 0h1200v600H0z"/>
  <path d="M0 0l600 300m0-300L0 300" stroke="#fff" stroke-width="60"/>
  <path d="M0 0l600 300m0-300L0 300" stroke="#cf142b" stroke-width="40" clip-path="url(#a)"/>
  <path d="M300 0v350M0 150h700" stroke="#fff" stroke-width="100"/>
  <path d="M300 0v350M0 150h700" stroke="#cf142b" stroke-width="60"/>
  <path d="M0 300h600V0h600v600H0z" fill="#00247d"/>
  <path fill="#fff" d="M776 144l251-1-1 223s9 34-105 86c41-5 86-48 86-48s18-23 27-10c8 13 17 19 23 24 7 5 12 19 2 29s-25 12-29 0c-7 3-47 51-128 53-83-1-129-54-129-54s-11 18-27 4c-15-18-4-30-4-30s13-7 17-13c6-6 8-16 18-16 12 1 17 11 17 11s42 44 87 50c-102-49-106-79-105-87V144z"/>
  <path fill="#006129" stroke="#000" stroke-width="2" d="M782 150l239-1v214c1 28-46 57-120 93-75-39-119-63-120-93l1-213z"/>
  <g id="c" fill="#f7c600" stroke="#000">
    <path fill="none" stroke="#f7c600" stroke-width="2" d="M815 182l14-21 14 21"/>
    <path d="M832 174a3 3 0 1 1-6 0 3 3 0 0 1 6 0z"/>
    <path d="M817 197h22s1-3-2-4c11-2 8-12 18-13 2 1-5 5-5 5s-6 4-3 6c2 1 3-1 3-3s10-3 8-9c-2-5-15 3-15 3h-8c-1-1-4-5-6-5-3 0-5 5-5 5h-21s0 5 10 6c2 3 4 4 6 5l-2 4zM819 193h18M811 182s1 8 8 10"/>
    <path fill="url(#b)" d="M810 182c0-3 1-4 3-8 0-4-3-4-2-6 1-3 0-6-3-8 1 4-4 7-4 10s2 3 2 7l-1 5h5z"/>
    <path d="M831 162a3 3 0 1 1-5 0 3 3 0 0 1 5 0z"/>
  </g>
  <use xlink:href="#c" x="-1" y="41"/>
  <use xlink:href="#c" x="-1" y="82"/>
  <use xlink:href="#c" x="26" y="126"/>
  <use xlink:href="#c" x="-5" y="162"/>
  <use xlink:href="#c" x="-4" y="205"/>
  <use xlink:href="#c" x="146" y="1"/>
  <use xlink:href="#c" x="145" y="41"/>
  <use xlink:href="#c" x="143" y="83"/>
  <use xlink:href="#c" x="145" y="123"/>
  <use xlink:href="#c" x="145" y="164"/>
  <use xlink:href="#c" x="145" y="205"/>
  <g fill="#ffc6b5" stroke="#000">
    <path fill="#f7c600" d="M916 406s6 13 12 5c7-8 4-11 4-11l-14-8-5 9 3 5z"/>
    <path d="M928 405l2-2c1-1-2-2-3-3l-1 2 2 3zM895 401l-12 7s-7 1-7 0c-1-1 0-2 3-2 4-1 13-9 13-9l3 4zM896 173v5c0 1-2 5-3 4s-1 1-1 2l2 1v3c1 1-2 5 0 6l7 2c2 0 0 6 0 6l-4 10 24-3-5-8s-2-2-2-6v-25l-17-3-1 6zM891 209s-8 4-7 14c-3 9-4 19-4 19l-12 14-9 14c-1 2-7 9-7 11 0 3-2 14 5 15 1 1 6-13 6-13s1-6-1-7 4-5 4-5l13-9 8-9 4-44z"/>
    <path fill="#fff" d="M900 202s2 5 7 4l10-5 5 1s11 11 11 14c0 4-5 3-7 5s-4 8-4 12c1 4 4 9 3 11l-2 4 2 5-2 7v36l2 3 10 47-1 2 4 9 6 20-2 8s4 10 3 11c0 2-7 2-7 2l-2-1s0 3-1 3l-10-1s-3 4-5 4c-1 0-3-3-4-2 0 0 2 3 1 4 0 0-8 2-10-2-2-3 1-3 0-3l-5-3c-1 1 3 2 3 4l-5 4c-1 0-4-6-9-6l-7 2-7 2-3-3 1-7-1-4 3-9v-29s-3 0-3-2l5-49 3-13c0-3-2 1-2 0l7-26 1-16-1-8s-6-2-6-7c-1-6 6-10 7-12l3-9s3-6 9-7z"/>
    <path fill="#f7c600" d="M898 403l-18 9c-2 0-3-3-1-4l5-1-5-4 8-3s2 5 3 4l6-3 2 2z"/>
    <path d="M919 407c2 2 2 6 6 4 3-2-2-6-2-6l-4 2zM926 407s1 1 3 0-3-4-3-4l-2 2 2 2zM932 217s6 16 6 20c1 4 3 19 2 22l-10 15-6 13-2 11 1 4s-5 5-7 4l-5-4c-1-2 1-9 2-11l9-20c1-1 7-15 7-18 0-2-2-7-4-9-5-15-3-24 7-27z"/>
    <path fill="#9c5100" d="M895 172h5c2-2 5-2 6 0l3 2s-3 6 0 7l4 1c0 1-3 3-2 4l2 2-1 4 3 3c1 0 0 4 3 3s3-3 3-3 3-1 4-4c0-2 2-3 2-3s4-2-1-5c0-22-15-20-15-20s-1-4-4-3-3 3-5 3-3-2-3-2l-2 5s-5-2-5 3c1 4 3 4 3 3z"/>
    <g fill="none">
      <path d="M921 208s-14 9-14 12M924 210l-3 3M928 213s-7 6-6 10M895 207l-1 6c0 1 4 7 4 10v6M892 215l1 6 4 7M890 236s4 2 8-6M904 225s-3 8 2 10c6 3 9 3 12 2l4-2M902 234s1 11 16 21M903 244s0 9 6 13M900 233s-5 14-9 15M898 243l-1 14M896 259s3 4 6 4c4-1 5-5 8-4 2 0 4 2 10 2M912 265s0 8 1 9l1 8M892 261l-1 11c-1 2-3 7-2 11M883 287l3-2M888 286s-7 29-5 47M889 288s-3 22-2 26M887 287l14 1M903 286s3 2 8 2M901 297l-1 45M921 305s4 33 6 36M913 310s2 29 4 31M877 351s5-1 9-6c5 7 13 0 13 0s12 8 17-1c9 6 13-1 13-1s3 5 5 5M921 351s6 29 15 37M889 348l2 41M888 375l-2 17M878 394s2 6 11 0 9 2 9 3 2 8 5 3M910 390s-1 14 11 4c13-10 15 0 15 3M910 167s-1 7 7 6c-1 4 2 5 2 5M924 182s3 3 0 5M913 188s2 2 4 1l4 2 3 1M904 194s5 2 9-6M894 185h3M859 285v7M852 284s4 8 4 12"/>
      <path stroke-linejoin="round" d="M894 188h3l-3 1M912 300s3 0 3 5c2-7 6-7 6-7"/>
      <path stroke-width="2" stroke-linejoin="round" d="M898 179h0z"/>
    </g>
  </g>
  <g fill="none" stroke="#000" stroke-width="2">
    <path fill="#f7c600" d="M900 459c67-2 110-51 110-51-1-1 9-14 16-12 8 2 18 24 31 29 7 10-2 19-4 21-3 2-16 7-18 0-1-8-5-6-5-6s-60 58-128 55c-71 1-130-55-130-55l-5 5s-6 6-8 6c-3-1-15-9-16-17-1-7 7-13 7-13s21-15 23-24c5-4 13 4 13 4s54 61 114 58z"/>
    <path d="M749 423s5-2 7 0l16 16"/>
    <path d="M761 429l-5 4s14 3 11 12M1052 422s-2-1-7 2l-15 15"/>
    <path d="M1040 429l6 4s-13 1-10 13"/>
  </g>
  <path d="M820 437l-2 1-6 2-18 11-1-2 5-23v-4l10 7h-2c-1-2-3 0-3 1l-3 15 13-7c1-1 2-3 1-4l-1-1 7 4zM826 469l-1 1-11-6 1-1h4l4-7 5-10c1-2 0-3-1-4l-1-1 2 1 10 6h-4l-4 7-6 11c-1 1 0 2 2 3zM869 459l-3 9-1-3c0-4-3-7-7-8-3-1-6 1-8 3-2 4-4 8-4 12 0 3 1 5 3 7l6 1 2-6-2-3h1l11 4h-3l-2 4-1 3c-5 1-10 0-15-3-4-2-7-8-6-13 1-4 3-8 7-10s8-2 12 0l6 3c1 2 2 2 3 0h1M887 488l-1 1-12-2v-1c1 1 3 0 3-1l1-5 2-14c1-2 0-3-1-3l-2-1h1l13 2h-1l-3 1-1 6-2 14c-1 1 0 2 1 3h2zM921 480l-1 9-22 1 1-1 2-1v-7l-1-13c0-2-1-3-2-3h0l12-1v1l-3 1v20c0 1 1 2 3 2l5-1c3 0 4-3 5-5l1-2M939 458l-1 1-3 23-2 4v1l8-2c0-2-2 0-3-1-1 0-2-2-1-3v-3l9-2 3 4c1 1-1 2-2 2v1l12-4-3-1-5-5-12-15zm-1 9l7 8-8 2 1-10zM977 441l3 6c-1 1-1-1-2-1-2-1-4-2-6 0l-2 1 10 18c1 1 3 2 4 1h1l-5 3-7 3 1-1c1 0 2-2 1-3l-10-18c-2 1-4 1-5 4l1 4c-1 1-1 0-1-1l-3-5 20-11zM992 432l7 9 2-5c0-1-2-3-1-4l1 1 7 10c-1 1-2-1-3-2h-5v2l5 6c1 1 3 0 4-1 2-1 4-4 4-7l-1-4 1 1 4 6-18 13 1-1c1-1 1-3-1-4l-11-15h-4c0 1-1 0 0 0l17-13 4 6c-1 1-2-1-3-1-2-1-5 0-6 1l-4 2"/>
</svg>
