<svg version="1" xmlns="http://www.w3.org/2000/svg" width="1276" height="850" viewBox="1488 992 1276 850">
  <path fill="#FFF" d="M1488 992h1276v850H1488z"/>
  <path fill="#369443" stroke="#010002" stroke-width="3" stroke-miterlimit="10" d="M1886 1568s-1-7 12-12c13-6 14-25 12-37 0 0-7 12-16 16 0 0-13 7-14 20l-1 9c-1 2-7-17 5-31 12-15 15-27 6-50 0 0-1 14-11 22-9 8-10 9-10 28 0 0 0 7-3 9 0 0-7-11-9-18s-3-10 5-18c0 0 27-17 7-54 0 0 0 13-9 20-9 8-9 13-9 26-1 14-1 13-3 14 0 0-16-30-3-47s20-20 6-50c0 0 0 15-11 23-12 8-9 26-9 26s1 7-2 12c0 0-16-32 0-49 13-14 14-24 6-45 0 0 0 10-8 15-7 5-13 10-11 30l-1 17s-7-12-9-20c-2-9-3-13 2-22 5-8 25-31 1-66 0 0 0 12-6 21-6 10-4 22-2 31s-3 18-3 18-11-19-9-41c3-22-6-39-26-52 0 0-15 34 5 51 0 0 17 17 21 37 0 0-13-1-24-24-12-23-36-19-38-19 0 0 4 35 42 45 0 0 23 4 28 21l5 19s-7-3-14-14c-7-10-6-11-30-13 0 0-9-2-14-8 0 0 10 37 35 37 0 0 23-3 36 28l-6-4c-3-3-12-7-29-5-16 2-21-1-25-2 0 0 17 31 41 22s36 25 36 25l-8-6c-4-5-13-10-30-5 0 0-12 5-24 1 0 0 12 23 40 19 27-4 34 21 34 21l-6-4c-3-2-12-8-32-2s-27-1-27-1 11 20 32 23c0 0 12 0 17-2s18-5 28 8c0 0-3 1-7-1 0 0-14-5-25 4 0 0-9 10-23 8 0 0 18 17 46 2 0 0 9-7 16-1 7 5 23-5 23-5z"/>
  <path fill="#F4C53D" stroke="#010002" stroke-width="3" stroke-miterlimit="10" d="M2041 1147s-3-29 20-32c24-3 36 2 36 2l11 21-4 15-15 7s3-22-17-23c-6 0-9 2-17 1-8-2-12 7-14 9z"/>
  <path fill="#F4C53D" stroke="#010002" stroke-width="3" stroke-miterlimit="10" d="M2204 1218c-4 5-18 6-18 6s15 11 21 27c6 15-164 0-164 0s7-6 12-15c0 0-8 2-15-5 0 0 6 2 13-9 0 0 11-14 18-18 0 0-3 2-12-3 0 0 15-2 20-27 0 0 1-5 7-13s4 1 15-11c0 0 4-9 0-14-4-6-8-4-17-9s-12-8-9-16c2-8 10-7 11-7s2-7 11-11c10-5 35-3 39-1 3 2 18 6 27 29 9 22-2 31 22 64 0 0-10 2-16 1 0 0 13 22 35 32z"/>
  <path fill="none" stroke="#010002" stroke-width="3" stroke-miterlimit="10" d="M2098 1124c-19-1-12-20-12-20"/>
  <path fill="#F4C53D" stroke="#010002" stroke-width="3" stroke-miterlimit="10" d="M2132 1126s-3-1-6-5c-4-6-13-8-18-3 0 0-5 6-10 6 0 0 5 1 9 5 3 3 7 5 12 4 5 0 6-3 8-5l5-2z"/>
  <path fill="#F4C53D" stroke="#010002" stroke-width="3" d="M2260 1406s18 15 34 0c0 0 6 7 18 5 13-2 15-9 16-12 0 0 11 6 20 1s9-12 9-12 15 3 23-8 4-21-1-22c0 0 17 4 22-11 4-12-5-18-5-18s36-1 51-12c0 0 12-8 4-16 0 0 33-5 41-18 0 0 3-3 2-9 0 0 0-4-4-4 0 0 37-6 48-18 0 0 5-6 2-13l-1-3s33-7 50-22c0 0 9-9 5-20 0 0 55-15 42-40 0 0 27-9 18-32 0 0 22-11 13-29-9-16-37 3-70 12 0 0-89 28-133 36l-124 185-73 28-7 52z"/>
  <path fill="#F4C53D" stroke="#010002" stroke-width="3" d="M2259 1269s12-8 33 2c0 0 7 5 12-1 5-4 5-12-1-17-16-11-21-46 2-60 0 0 34-20 160-52 0 0 10-3 16-2 6 2 10 7 11 12 0 0 6 16-13 25l-17 6s9-2 13 8c4 9-1 18-19 24l-12 4s15 4 8 16c0 0-6 13-29 15 0 0 17 2 5 18 0 0-5 9-22 13 0 0 12 0 6 11-6 12-21 18-36 19 0 0-8 1-14-1 0 0 14 7 6 19 0 0-6 9-21 8 0 0 4 13-8 18-8 4-15-2-15-2s3 14-10 19c0 0-7 3-16 0 0 0-7 16-33 5s-6-107-6-107z"/>
  <path fill="none" stroke="#010002" stroke-width="3" d="M2654 1122s-40 23-165 46"/>
  <path fill="#F4C53D" stroke="#010002" stroke-width="3" d="M1934 1535s-15 25-33 26c0 0-31-4-40 4-6 6-12 10-15 25s5 17 7 18c0 0 2 10 12 8 0 0 0 11 18 5 19-5 26-3 30-21 3-18 6-18 10-20l18-9c5-3 26-14 33-15 7 0 6-24 6-24h-18l-9-13-19 16z"/>
  <path fill="none" stroke="#010002" stroke-width="3" d="M2636 1154s-109 36-159 40M2594 1194s-64 20-139 33M2539 1236s-72 17-107 20"/>
  <path fill="none" stroke="#010002" stroke-width="3" stroke-miterlimit="10" d="M2490 1270s-61 13-76 14"/>
  <path fill="#0081C6" stroke="#010002" stroke-width="3" stroke-miterlimit="10" d="M2422 1363l3 97-18-10-28 123-12-8 28-118h-19z"/>
  <path fill="none" stroke="#010002" stroke-width="3" stroke-miterlimit="10" d="M2451 1301s-44 7-62 7M2396 1329l-27-3M2379 1358s-15-5-24-10M2357 1388s-12-5-18-17M2328 1399s-9-9-10-18"/>
  <path fill="#0081C6" stroke="#010002" stroke-width="3" stroke-miterlimit="10" d="M2532 1406l-40 87-11-17-86 101-9-10 86-100-18-9z"/>
  <path fill="none" stroke="#010002" stroke-width="3" stroke-miterlimit="10" d="M2294 1406s3-3 1-16"/>
  <path fill="#0081C6" stroke="#010002" stroke-width="3" stroke-miterlimit="10" d="M2495 1342l-21 95-14-15-76 148-12-7 77-147-19-5z"/>
  <path fill="none" stroke="#010002" stroke-width="3" stroke-miterlimit="10" d="M2298 1371s2-4 1-9"/>
  <path fill="#F4C53D" stroke="#010002" stroke-width="3" d="M1992 1406s-18 15-34 0c0 0-6 7-18 5s-15-9-16-12c0 0-11 6-20 1s-9-12-9-12-15 3-23-8c-9-11-4-21 1-22 0 0-17 4-22-11-4-12 5-18 5-18s-36-1-51-12c0 0-12-8-4-16 0 0-33-5-41-18 0 0-3-3-2-9 0 0 0-4 4-4 0 0-37-6-48-18 0 0-5-6-2-13l1-3s-33-7-50-22c0 0-9-9-5-20 0 0-56-15-43-40 0 0-26-9-17-32 0 0-22-11-13-29 9-16 37 3 70 12 0 0 89 28 133 36l124 185 73 28 7 52z"/>
  <path fill="none" stroke="#010002" stroke-width="3" stroke-miterlimit="10" d="M2363 1187s-21 9-28 20-2 22 0 29c1 3 16 31-1 51"/>
  <path fill="#F4C53D" stroke="#010002" stroke-width="3" d="M1993 1269s-12-8-33 2c0 0-7 5-12-1-5-4-5-12 1-17 16-11 21-46-2-60 0 0-34-20-160-52 0 0-10-3-16-2-6 2-10 7-11 12 0 0-6 16 13 25l17 6s-9-2-13 8c-4 9 1 18 19 24l12 4s-16 4-8 16c0 0 6 13 29 15 0 0-17 2-5 18 0 0 5 9 22 13 0 0-13 0-6 11 6 12 21 18 36 19 0 0 8 1 14-1 0 0-14 7-6 19 0 0 6 9 21 8 0 0-4 13 7 18 9 4 16-2 16-2s-3 14 10 19c0 0 6 3 16 0 0 0 7 16 33 5 25-11 6-107 6-107z"/>
  <path fill="none" stroke="#010002" stroke-width="3" stroke-miterlimit="10" d="M2362 1309l-7-2M2406 1280l-25 2M2423 1249s-15 2-28 1M2444 1218s-20 4-32 4M2462 1182s-26 7-45 10M2374 1207s19 17-3 33c0 0 9 15-10 30"/>
  <path fill="#F4C53D" stroke="#010002" stroke-width="3" d="M1994 1416s-3 20-33 46c0 0-23 20-23 44 1 23-4 26-13 34 0 0 19 2 28-11 0 0-1 21-3 23 0 0 6 0 14-9 0 0 5-6 10-8 0 0-6 15-1 28 0 0 1-5 8-7 0 0 14-3 19-22 0 0 3-13 24-24 0 0 23-9 22-20s-52-74-52-74z"/>
  <path fill="none" stroke="#010002" stroke-width="3" stroke-miterlimit="10" d="M2366 1277s3 28-31 28c0 0 7 24-26 24 0 0-4 19-27 15"/>
  <path fill="#F4C53D" stroke="#010002" stroke-width="3" d="M2318 1535s15 25 33 26c0 0 31-4 40 4 6 6 12 10 15 25 2 14-5 17-7 18 0 0-2 10-12 8 0 0 0 11-18 5s-26-3-30-21c-3-18-6-18-10-20l-18-9c-5-3-26-14-33-15-7 0-6-24-6-24h18l9-13 19 16z"/>
  <path fill="#F4C53D" stroke="#010002" stroke-width="3" d="M2258 1416s3 20 33 46c0 0 23 20 23 44-1 23 4 26 13 34 0 0-19 2-28-11 0 0 1 21 3 23 0 0-6 0-14-9 0 0-5-6-10-8 0 0 6 15 1 28 0 0-1-5-8-7 0 0-14-3-19-22 0 0-3-13-24-24 0 0-23-9-22-20 0-12 52-74 52-74z"/>
  <path fill="none" stroke="#010002" stroke-width="3" d="M2334 1561h17"/>
  <path fill="none" stroke="#010002" stroke-width="3" stroke-miterlimit="10" d="M2383 1575s17-2 16 33M2373 1583s15-2 14 33"/>
  <path fill="none" stroke="#010002" stroke-width="3" d="M2231 1500s7 2 12 7c5 6 14 5 14 5s-5-4-6-14-8-14-8-14M2260 1474s7 2 12 7c5 6 14 5 14 5s-5-4-7-15-7-13-7-13M2265 1514s6 2 10 7c5 4 13 4 13 4s-5-4-6-13c-2-9-7-12-7-12"/>
  <path fill="#F4C53D" stroke="#010002" stroke-width="3" stroke-miterlimit="10" d="M2149 1677s5 24 24 22c0 0 13-2 12-24 0 0 20 11 23-15 0 0 18 4 17-20 0 0 17 3 15-18 0 0 18 5 18-16 0 0 42-6-46-86l-77 46 14 111z"/>
  <path fill="#F4C53D" stroke="#010002" stroke-width="3" d="M2140 1571s13 11 23-6c0 0 12-1 14-10 0 0 10-1 12-11 0 0 14-1 14-13 0 0 25-2 0-31s-68 48-68 48l5 23z"/>
  <path fill="none" stroke="#010002" stroke-width="3" stroke-miterlimit="10" d="M2185 1675s-2-41-38-101M2208 1660s6-24-45-95c0 0 6-17-12-28M2225 1640s2-26-48-85c0 0 5-15-13-28M2240 1622s-2-27-51-78c0 0 3-16-15-25M2258 1606s-4-30-55-75c0 0 2-12-15-24"/>
  <path fill="#F4C53D" stroke="#010002" stroke-width="3" stroke-miterlimit="10" d="M2103 1677s-5 24-24 22c0 0-13-2-12-24 0 0-20 11-23-15 0 0-18 4-17-20 0 0-17 3-15-18 0 0-18 5-18-16 0 0-42-6 46-86l77 46-14 111z"/>
  <path fill="#F4C53D" stroke="#010002" stroke-width="3" d="M2112 1571s-13 11-23-6c0 0-12-1-14-10 0 0-10-1-12-11 0 0-14-1-14-13 0 0-25-2 0-31s68 48 68 48l-5 23z"/>
  <path fill="none" stroke="#010002" stroke-width="3" stroke-miterlimit="10" d="M2067 1675s2-41 38-101M2044 1660s-6-24 45-95c0 0-6-17 12-28"/>
  <path fill="#F4C53D" stroke="#010002" stroke-width="3" d="M2126 1564c13 0 27 78 23 126-1 17-10 31-23 31s-22-14-23-31c-4-48 10-126 23-126"/>
  <path fill="none" stroke="#010002" stroke-width="3" stroke-miterlimit="10" d="M2027 1640s-2-26 48-85c0 0-5-15 13-28M2012 1622s2-27 51-78c0 0-3-16 15-25"/>
  <ellipse fill="#F4C53D" stroke="#010002" stroke-width="3" cx="2126" cy="1563" rx="17" ry="26"/>
  <path fill="none" stroke="#010002" stroke-width="3" stroke-miterlimit="10" d="M1994 1606s4-30 55-75c0 0-2-12 15-24"/>
  <path fill="#FFF" stroke="#010002" stroke-width="3" d="M2126 1557s148-65 148-216h-296c0 151 148 216 148 216z"/>
  <path fill="none" stroke="#010002" stroke-width="3" stroke-miterlimit="10" d="M2046 1341h23M2001 1341h23M2092 1341h23"/>
  <path fill="#A60032" stroke="#010002" stroke-width="3" d="M2001 1341v96s11 23 23 37v-133h-23zM2046 1341v159l23 21v-180h-23zM2092 1341v197l23 14v-211h-23z"/>
  <path fill="none" stroke="#010002" stroke-width="3" d="M2001 1341h23M2046 1341h23M2092 1341h23"/>
  <path fill="#A60032" stroke="#010002" stroke-width="3" d="M2251 1341v96s-11 23-23 37v-133h23zM2206 1341v159l-23 21v-180h23zM2160 1341v197l-23 14v-211h23z"/>
  <path fill="none" d="M2282 1704l-14 16M2251 1702l38 35"/>
  <path fill="#0081C6" stroke="#010002" stroke-width="3" stroke-miterlimit="10" d="M2365 1615l-6 23 16 16-23 94-19-27-30 14 23-94 20-6 6-23s6-3 13 3z"/>
  <path fill="#0081C6" stroke="#010002" stroke-width="3" stroke-miterlimit="10" d="M2370 1599l-11 21 11 20-45 84-12-31-32 6 45-85h21l11-21s8 0 12 6z"/>
  <path fill="#0081C6" stroke="#010002" stroke-width="3" stroke-miterlimit="10" d="M2372 1605l-30 39 7 21-62 72-5-33-32-3 61-71 21 5 32-41s8 4 8 11z"/>
  <path fill="none" stroke="#010002" stroke-width="3" d="M1598 1122s40 23 165 47M1615 1154s110 36 160 40M1658 1194s64 20 139 33M1713 1236s72 17 107 20"/>
  <path fill="none" stroke="#010002" stroke-width="3" stroke-miterlimit="10" d="M1762 1270s61 13 76 14M1801 1301s44 7 62 7M1856 1329l27-3M1873 1358s15-5 24-10M1895 1388s12-5 18-17M1924 1399s9-9 10-18M1958 1406s-3-3-1-16M1954 1371s-2-4-1-9M1889 1187s21 9 28 20 2 22 0 29c-1 3-16 31 1 51M1890 1309l7-2M1846 1280s12 2 25 2M1829 1249s15 2 28 1"/>
  <path fill="#369443" stroke="#010002" stroke-width="3" stroke-miterlimit="10" d="M1883 1611s-1-13 15-14l47 65s-2 4-23 4c0 0-2 0-3 2-2 4-36-57-36-57z"/>
  <path fill="none" stroke="#010002" stroke-width="3" stroke-miterlimit="10" d="M1808 1218s20 4 32 4M1790 1182s26 7 45 10M1878 1207s-19 17 3 33c0 0-9 15 10 30M1886 1277s-3 28 31 28c0 0-7 24 26 24 0 0 4 19 27 15"/>
  <path fill="none" stroke="#010002" stroke-width="3" d="M1918 1561h-17"/>
  <path fill="none" stroke="#010002" stroke-width="3" stroke-miterlimit="10" d="M1869 1575s-17-2-16 33M1878 1583s-14-2-13 33"/>
  <path fill="none" stroke="#010002" stroke-width="3" d="M2021 1500s-7 2-12 7-14 5-14 5 5-4 6-14 8-14 8-14M1992 1474s-7 2-12 7c-5 6-14 5-14 5s5-4 7-15 7-13 7-13M1987 1514s-6 2-10 7c-5 4-13 4-13 4s5-4 6-13c2-9 7-12 7-12"/>
  <path fill="#162667" stroke="#010002" stroke-width="3" stroke-miterlimit="10" d="M2274 1231s-72 37-148-4c-76 41-148 4-148 4v110h296v-110z"/>
  <path fill="#0081C6" stroke="#010002" stroke-width="3" stroke-miterlimit="10" d="M1609 1516c7-3 13-6 13-14l-3-12-49-147c-2-9-5-14-6-16-2-4-6-6-12-8h61c-6 3-12 6-12 13l2 11 37 116 37-116 2-11c0-8-6-10-12-13h59c-5 2-10 4-12 8l-6 16-48 147-3 12s-3 10 12 14h-60zM2636 1501v-167l-1-7c-1-1-6-6-11-8h55c-6 2-10 7-11 8l-2 7v167l2 6c1 2 5 6 11 9h-55l11-9 1-6z"/>
</svg>
