<svg version="1" xmlns="http://www.w3.org/2000/svg" xmlns:xlink="http://www.w3.org/1999/xlink" width="600" height="360" viewBox="0 0 950 570">
  <path fill="#d21034" d="M0 0h950v285H0z"/>
  <path fill="#009543" d="M0 285h950v285H0z"/>
  <path d="M0 0l553 285L0 570z"/>
  <path d="M0 234h950v102H0z"/>
  <path d="M0 41l474 244L0 529z" fill="#fdce12"/>
  <path fill="#fdce12" d="M0 270h950v30H0z"/>
  <path d="M0 74l409 211L0 496z"/>
  <path d="M115 340v32c29 0 84-22 84-91 0-70-59-83-77-83-17 0-72 13-72 70s54 62 64 62c11 0 50-9 46-52 0 12-14 37-43 37-28 0-46-21-46-42s17-49 47-49c31 0 53 27 53 54s-21 62-56 62z" fill="#fdce12"/>
  <g id="a" fill="#fdce12">
    <path d="M91 297l1 1s14-30 50-52c-5 3-29 15-51 51z" stroke="#fdce12"/>
    <path d="M94 292s-4-9 0-12c3-4 2 10 2 10l1-3s-2-10 1-12c2-2 1 10 1 10l2-2s-2-10 1-12c2-2 1 9 1 9l1-2s-1-10 2-12c4-2 1 9 1 9l2-2s-1-9 2-11c2-2 0 8 0 8l2-2s-1-8 2-10 0 8 0 8l2-2s0-8 3-10c4-1 0 8 0 8l2-2s1-10 3-11c3 0-1 9-1 9l2-2s1-8 5-9c3-1-2 8-2 8l2-2s2-8 5-9-3 8-3 8l2-2s3-7 6-8c2 0-3 6-3 6l2-1s4-8 6-5c1 2-6 5-6 5l-2 2s9-4 10-2-13 3-13 3l-2 2s9-3 8 0c-1 2-10 1-10 1l-2 2s9-2 8 0-10 2-10 2l-2 1s8-2 7 1-11 2-11 2l-3 3s10-3 9-1-12 4-12 4l-2 2s10-3 7 0-10 4-10 4l-3 3s10-6 9-2c-2 3-12 5-12 5l-1 3s8-6 8-3c-1 3-11 6-11 6l-1 2s10-6 9-3c-1 4-11 6-11 6l-1 2s10-6 10-3-12 5-12 5v-2z"/>
  </g>
  <use xlink:href="#a" transform="matrix(-1 0 0 1 239 0)"/>
</svg>
