<svg xmlns="http://www.w3.org/2000/svg" xmlns:xlink="http://www.w3.org/1999/xlink" version="1" width="840" height="600">
  <defs>
    <path id="a" d="M0-36l21 65-55-40h68l-55 40z" fill="#fff"/>
  </defs>
  <path fill="#244aa5" d="M0 0h840v600H0z"/>
  <path fill="#d0a650" d="M332 285l2-2h3l2-1 2 1 3 2h2l2-1v-1l1-2 2-1 2-1 2-2h3c2 0 2-1 2-2l2-1h2c0-1 1-2-1-2l-2-1-2-1c-2-1-1-1-1-2l-1-2-1-1-1-1-1-1 1-2 1-1v-2l1-2 4-3h2l1 2 2-1 1-3 2-2 1-2 2-2 1-1h2l2 1 2 1c1-1 1-2 2-1l1-1 1-3h1c2 0 1-1 1-2h2l2-2c-1-1-3-2-2-3l1-3-3-1 1-2h3c1-1 3-1 3-3l1-2-1-4-2-2-2-2-2-1 1-2c0-3-2-3-2-3l-2-1-5-1-1-2 1-3c-1-1-1-2-3-2-1-1-2-1-1-2s1-2 2-1h15l1-2 2-2 2-2 1-1 1-2 3-1 2 2h8v-1-4l2-1h3l3 2 1 2 1 1 1 2c1-1 1 0 1 1l1 1 2 2v1l1 2s2 2 0 1l-4-1-1 1h-2v2l2 1-1 2h-2c-2 0-2 1-2 2l1 1h4l2 1h2l2 1 1 2 2 1 1 1h3l1 1v2l3 1v1l1 1h2l1-2 2-1h3l2-1 4 2 1 1 2 2 1 2h2l3-1 2-1-1-2 1-1h1l2 2 2 2h3c1-1 2-1 2 1l1 2v3l-1 2v3l1 1 1 3 1 3c0 1-1 2 1 2l1 1v2l-1 2 2 1c0 1 1 2 2 1l2-1v-1-2l1-2h2l2 1 1 1 1 2 1 4 1 2v1 3l-1 1v2l1 3 1 2 1 2 2 2 2 2v2l1 1h1l2-2h8l1 1 1 3 1 2 1 1h3l2 1h1l2-1h6v5l-1 1-1 1-1 2-1 2 1 1v3l-1 1-2 1v3 4l-2 2-1 1c-1 0-2 1 0 2l2 2v-2l4 1 2-1h2c0 2 1 1 2 2l1 1c1 1 1 0 1-1l2-1 2 1 1 1 2 1 2 1 1 1 2-1h2l2-1h2l2 1 2 1 1 2c-1 1-2 2-1 3l2 1 4 1 2-1c1 0 3 0 2 1l1 2 1 3 1 1c1 1 1 2 2 1l1-2v-2l3-1 3-1h5l3-1h1l1 2c-1 1 0 2 1 2l1 1 1 2 1 2c2 0 2 1 2 2l-1 1-1 1-1 1h-2-1c-1 1-2 2-1 3v2l-1 2h-2v3l2 2 1 2-1 1v4l-2 1-2 1h-4l-2 2v2l1 2 1 2h-1-2l-1 3-2 1-1 2-1 1-1 2-2 1c0 1 0 2-2 2l-2 2v2l1 3 2 2v2c1 0 2 0 1 1l-1 2-1 1-1 2-1 2-1 1-3 1-1-1-2-1-2 1-1 1v2h-5c0-1-3-2-3 0l1 3-1 2-1 2 1 3 1 2 1 2 2-1c1-1 3-2 3 0l1 4 2 3 1 4-2 2-2 1-1 1c-1 0-1-2-2-1s-1 2-3 1l-2-4-1-3h-4l-2-2c-3 0-1 2-2 2-3 1-3-2-5-1-1 1 1 1 1 2l-2 3c0 2 1 2 2 3 1 3-1 5-4 3-2-2-2-4-4-4l-2 1h-1l-1 1-1 1-1 3-3 1-2 3h-2v2c1 3-2 4-3 6v3l-2 2v1l-1 1 1 1v1l1 3h1v1l1 2-3 2c-1 0 2-3-1-3l-1 2h-1l-4 2h-1l-2 1-1-1h-3-1l-1-2-1-2 1-4-4-4-1-4-3-3v-1l-1-1-1-3-6-1-2-1v-1l-2 1h-1l-3 3-5 2-2 4h-1l-3 3-2 1h-1l-4 1v1h-1-1l-2 1h-5l-3 2h-1l-1 3-3 3-1 1-1 1-2-1h-6c-1 0 0 3-3 3l-4 1h-2l-2 1v1h1l-3 3-2 2c-1 1 1 2 1 2l-3 4v10l1 1 2 5c1 3-4 2-1 5l1 1 4 3-3 1-4 5-2 2v2h-2l-1 1-7 4-1-2-1-1c-1-1-4-2-5 0l-1 2-3 2-3-2-3-4-3-9h1c2-1 2-4 5-3l1-1 1-1c1-1 2-8 1-9l-3-4v-2l-1-4-1-1v-4c-1-3-5-4-5-5l-1-2-1-2-1-1 2-4-1-2 2-3c0-2-2-4-3-5l1-1-3-3v-3l-1-2-3-8-1-1v-2l-3-1-1-3h-1v-1c-1-1-2 0-3-3l-3-3-3-1h-2l-1-2h-4l-2-4-5-2h-2v-2l-1-2h-1l-4 1-1 1-2 1-1-1-1-1c-1-1-5 2-6 0l-2-1c-1 0 0-4-3-5l3-1-1-2 1-2-1-1v-2h-1l-2-2-1-1-2-2 1-1c0-2 2-1 2-3l-1-3-1-1c-2 0-1-2-2-3-2-1-4 0-1-3l-3-3v-3l-2-2-1-1v-1l-1-1-6-3-1-1-4-2-1-2-1-1-2-2v-1l1-3v-1-3l-2-6 1-2 1-2 2-3 2-1 1-2h-2l-1-1h-1l-2-1-2-1-4-3-4 1-2-1h-2v-2h-1c-2 0-2-2-2-3l-2-1v-2l2-1v-1l1-2-2-2h1c1-4 3-1 4-4l1-2h3l4-3 2-1 3 2 5 1 1 2h2l5 2h1l4-1 1 1 1-1 2 1 2-5 2 1v-1l-1-3h1l2-1 2-2v-1l1-1 1-2 6-2h1l3 2v-1l2-1v-1l2-2 2 1h3z"/>
  <g id="b">
    <use xlink:href="#a" x="462" y="122"/>
    <use xlink:href="#a" x="544" y="136"/>
    <use xlink:href="#a" x="623" y="165"/>
  </g>
  <use xlink:href="#b" x="-840" transform="scale(-1 1)"/>
</svg>
