<svg xmlns="http://www.w3.org/2000/svg" width="2100" height="1400">
  <path fill="#198a00" d="M0 0h2100v1400H0z"/>
  <path fill="#ef7d00" d="M1850 500h250v900h-250z"/>
  <path d="M1600 500h250v900h-250z"/>
  <path fill="#de2010" d="M1350 500h250v900h-250z"/>
  <g fill="#ef7d00" stroke="#000" stroke-width="2" stroke-linecap="round" stroke-linejoin="round">
    <path d="M1916 168s86-33 95-40c4 4-35 46-109 62 67-15 125-61 137-59 3 1 2 45-152 83 107-26 169-73 168-68 1 1-11 37-104 65 26-5 97-45 96-37 2 3-68 86-196 59 102 25 168-34 178-33 1 0-19 51-148 55 62-6 44-1 44-1s-37 26-81 9c35 8 39 9 39 11-2 4-30 9-58-5 22 9 42 10 43 13-1 1-15 9-27 3-13-5-128-70-128-70l196-49zM1686 344c-18 0-18 14-18 14v8c2-5 4-6 4-6 2 0 10 2 22-7-11 11-4 15-4 15s-3 9 6 11c-3-4-2-7-2-7s13-1 12-15c0 13 8 16 8 16s0 7 7 7c-4-3-3-9-3-9s10-7 2-18c5-3 9-11 9-11s-7-2-10-5c-2-3 0-19 0-19l-5-22-12 34c1-5 1 14-16 14z"/>
    <path d="M1771 296s13 13 25 12c4-3-10-11-10-13 5 4 26 21 39 15 6-7-9-6-25-25 11 7 40 22 53 16 5-5-30-23-42-36l-30-14-41 31zM1724 190s14-8 70-4c6 1 39-10 49-13 16-3 68-13 82-23 10-1-3 17-15 21-13 5-61 21-78 19 20 0 9 15-25 8 16 8 10 10 10 10s-29 1-37-5c20 7 12 9 12 9s-20 2-29-2c14 4 7 6 7 6s-12 2-21-1c-10-3-24-25-25-25zM1747 303l2 34-2 2c-1 1-26-3-23 15 0 7 0 9 6 13-2-5-1-8-1-8s7 4 14-7c-5 10-2 14-1 14 2 2-2 11 8 11-4-3-2-8-2-8s10-2 7-18c3-3 5 0 5 0s1 10 9 8c4 2 0 7 0 7s6 0 8-5 4-14-6-17c-2-4 4-4 4-4s7 2 8 5c2 3 2-8-7-9-10 0-10-2-10-3l-3-31z"/>
    <path d="M1782 332c0-2-17-23-13-26 5 1 12 10 18 7-2-4-7-1-13-11-6-11-7-28-28-46 14 19 44 31 45 25 2-6-26-27-25-32 6 11 34 34 55 32 1-5-17-14-22-22-13-8-49-36-50-43a80 80 0 0 0-25-25l-2-4c-8-17 3-23 9-24 5 0 7 1 10-1l-13-5c6 4 21 1 17 12 7-2 20-17-15-21-12-12-59-19-71 34l5 4c-15-7-56-12-70-14-40-11-81-36-85-33-5 2 24 27 23 28-26-14-49-23-70-32-15-5-30-17-32-15-5 11 24 37 30 40l48 22c-65-27-76-32-79-35-6-2-20-19-24-18-2 2 2 30 33 42 5 3 67 24 67 25-1 1-71-26-74-27-14-5-30-23-33-21s7 21 21 27c7 3 35 15 60 23l-67-25c-10-5-15-11-17-10-2 2 4 29 76 45l24-5a322 322 0 0 1-40 7c-1 2 4 11 41 9 5 0 31-8 28-6l-37 11-15 2c0 2 9 9 29 10 18 1 51-10 50-9l-33 11-13 2c-1 2 17 17 69 1-5 7-31 11-31 12s6 6 15 8h16c10-2 20-6 33-17 2 4-33 20-31 21 7 7 33 0 34-1 2-1 48-25 48-28 1 4-60 34-59 35 4 6 24 0 25-1l28-13c0-1-30 16-28 19-1 11 48-8 52-10 2-1-23 10-24 16 9 12 35 8 39 6 2-2-2 9-1 8l8-10c-1 4-4 9-5 16-2 6-2 13-5 21 0 4 16-6 14-30 1 12-5 35-4 37 4 2 14-12 15-22 3 5 9 15 14 18l-2-14 2-38c14 25 19 36 15 55 5 1 11-14 11-21 5 21 29 24 29 24z"/>
    <path d="M1546 173s-10 7-22 7c3 11 28 2 28 2s-12 12-21 14c5 4 27 3 31 1l10-10s-23 24-26 24c0 2 24 1 29-3l17-10-34 21c12 3 37-4 52-12-23 14-25 16-37 21 11 2 16 9 52-5 20-9 32-25 32-25-13 15-33 28-55 41-1 3 23 12 55-18M1718 239s2 9 11 16c9 8 9 14 9 14M1714 179s3 8 12 13c9 6 22 22 23 25 1 4 7 30 6 33"/>
    <path d="M1659 192c1 3-12 19 6 37-17 19-17 21-17 21s9 5 26-8c27 31 18 45 18 45"/>
    <path d="M1690 265s-2-3 2-15l10 7c2 2 23 4 24 17M1714 149s-4-9-19 2c8 0 16 4 19-2zM1862 187c1 0 46 9 61 5-19 23-58 7-58 7 19 5 20 5 26 10 2 5-35 2-47-4 34 10 35 9 36 13 1 5-56-1-61-8 16 10 24 13 32 17-10 5-29 9-64-14 46 38 87 36 94 43-16 21-78-13-106-30-29-18 62 42 70 41-4 6-34 0-36-2M1874 227h-24M1532 167s35 17 49 16c-3 3-9 4-9 4 3 2 14 7 29 3l-9 8s13 4 28-3l-7 9h11"/>
  </g>
</svg>
