<svg xmlns="http://www.w3.org/2000/svg" xmlns:xlink="http://www.w3.org/1999/xlink" width="750" height="500">
  <path fill="#fff" d="M0 0h750v500H0z"/>
  <path fill="#002d62" d="M0 0h325v200H0z"/>
  <path fill="#ce1126" d="M0 300h325v200H0z"/>
  <path fill="#002d62" d="M425 300h325v200H425z"/>
  <path fill="#ce1126" d="M425 0h325v200H425z"/>
  <g transform="matrix(.8 0 0 .8 -25 0)">
    <path fill="#fff" d="M475 281v41l1 8 6 4h10c5 0 5 1 7 3 2-3 4-3 8-3h9l5-4c2-2 2-6 2-9v-38l1-3 6-6h-62l6 7z"/>
    <path fill="#002d62" d="M494 299v-25h-26l7 7v18z"/>
    <path fill="#ce1126" d="M504 299v-25h26l-7 7v18zM494 309h-20v16c1 7 6 9 11 9h9z"/>
    <path fill="#002d62" d="M504 309h19v16c0 7-6 9-10 9h-9z"/>
    <path fill="none" d="M475 281v41l1 8 6 4h10c3 0 4 0 6 2l1 1 3-3h14l5-4c3-2 2-6 2-9v-38l1-3 6-6h-62l7 7z"/>
    <path fill="#eac102" d="M498 280v3h-3v3h3v9h2v-9h3v-3h-3v-3z"/>
    <g id="a">
      <path fill="#fff" d="M482 284v5l-2-2v32c0 4 4 8 8 8s8-4 8-8l-1-17-2-2v-2z"/>
      <path fill="#002d62" d="M482 284v5l-2-2v18l8 8v-21l-6-8z"/>
      <path fill="#ce1126" d="M491 296l2 3v1l-2-3z"/>
      <path fill="#ce1126" d="M495 302l1 12c-2 2-4 1-4 1v-16z"/>
      <path fill="#002d62" d="M496 320c-4 2-4-1-4-1l4-3z"/>
      <path fill="#ce1126" d="M480 310l8 7c1 8 6 5 7 4-1 4-4 6-7 6-4 0-8-3-8-8z"/>
      <path fill="none" stroke="#000" stroke-width="0" d="M493 300v-2l-11-14v4z"/>
      <path fill="none" stroke="#000" stroke-width="0" d="M480 287v32c0 4 4 8 8 8s8-4 8-8l-1-17z"/>
      <g fill="#eac102" stroke="#000" stroke-width="0">
        <path d="M486 281v-2l-3-3 1 4 2 1zM483 276l3 5"/>
        <path d="M498 301h-1l-12-20 1-1z"/>
        <path d="M485 281v-1h1v1h-1zM481 282v-2l-4-3 2 4 2 1zM477 277l4 5"/>
        <path d="M495 300l-15-18 1-1z"/>
        <path d="M480 282v-1h1v1h-1zM480 286l-1-2-3-2 2 3 2 1zM476 282l4 4"/>
        <path d="M496 303l-17-17 1-1 16 17z"/>
        <path d="M479 286v-1h1v1h-1z"/>
      </g>
    </g>
    <use xlink:href="#a" transform="matrix(-1 0 0 1 998 0)"/>
    <g stroke="none" stroke-width="0">
      <path fill="#ce1126" d="M497 315l-1 10-2-1 1-10 2 1z"/>
      <path fill="#002d62" d="M496 314v3l2 1v-5l-2 1z"/>
      <path fill="#002d62" d="M496 327c2-2 5 0 5 0 3 0 2-4 2-4l-1-13-5 4z"/>
      <path fill="#002d62" d="M496 327c0 2 2 2 2 2 3 0 2-3 2-3-3-1-4 1-4 1z"/>
      <path fill="#ce1126" d="M498 313v9c0 2 2 1 2 1h1v-3c4 0 3-3 3-3l-1-7z"/>
      <path fill="none" d="M501 320l-3 1"/>
      <path fill="#fff" d="M501 326l-1-15 2-1 1 14c0 3-2 2-2 2z"/>
    </g>
    <g fill="#fff" stroke="none">
      <path fill="#000" d="M488 302l7 13 15-10-8-11z"/>
      <path d="M488 302l14-8 8 11-15 9z"/>
      <path fill="#000" d="M495 314l14-9-1-2-7-9-5 4-6 3h-1v1z"/>
      <path d="M496 298c-2-1-4 2-5 2l-2 1 6 11c2 0 3-2 4-3l3-1zM496 298c0-2 3-3 4-4l1-2 7 11c0 2-3 2-3 3l-2 2z"/>
      <path d="M495 312l-6-11v1l6 11v-1z"/>
      <g fill="#000">
        <path d="M491 302v0zM491 302h0zM492 302zM492 302zm0 0zM492 301h1v0h-1l1 1h-1 1-1v-1zM493 301zM493 301zm0 0zM491 303h1l-1 1h1v-1h-1 0zM492 303zM492 303h0zm0 0zM493 302v1h-1l1-1zM493 302v0zm0 0zm0 1zM494 302h-1 1-1zm-1 0zM493 302h0zM494 302zm0 0zM494 302zm0 0zM492 304zM493 304h-1 1zm-1 0zM493 304zm0 0zm0 0zM493 303v0zM493 303h1l-1 1v-1zM494 303zM494 303h0zm0 0zM495 302v0h-1 1zM495 302zM496 302h-1 1zM496 302zm0 0zM496 301l1 1h-1v-1 0zM494 306h-1v1h1v-1 1h-1v-1h1zM494 306v0zm0 0zM494 306h1-1c1 0 1 0 0 0zm0 0zM495 306a55 55 0 0 0-1 0l1-1v1zM495 305v0zM495 305a114 114 0 0 0 1 0h-1 0zM496 305zM496 304h1v1h-1v-1zm0 0v1h1l-1-1zM497 304zM498 304h-1 1zM498 304h-1 1zM498 304v-1 1zM494 308h1-1c1 0 1 0 0 0zM495 308h-1zM495 307v1h1a366 366 0 0 1-1 0v-1zM496 307zm0 0zM496 307zm0 0zM497 307h-1 1zM497 306zm0 0v1c0-1 0 0 0 0v-1zM497 307v-1 1zm0-1v0zM497 306h1-1zM498 306zm0 0zM498 306zM498 305l1 1h-1v-1 0z"/>
        <path d="M499 305c-1 0 0 0 0 0v1c0-1 0 0 0 0v-1h-1 1zM499 305zm0 0zM495 309zM495 309zm0 0zM495 308v1h0v-1zM496 308zm0 0v0zM496 308zM497 308h-1 1zm0 0h-1 1zM496 308h1-1zm1 0zM497 308v-1 1zm0 0zM497 307v0s0 1 0 0zM498 307zm0 0zM498 307zM498 307h0zm0 0zM499 306v0zM499 306v0zm0 0zM495 310h1-1zM496 310v-1 1zm0 0zM496 309v0zm0 0zM496 309zm0 0h1-1zM497 309c-1 0 0 0 0 0h-1s1 0 0 0h1zm0 0zM497 309zM498 309h-1v-1 1h1zM498 308v0s-1 0 0 0zM498 308zm0 0zM498 308zm0 0zM499 308h-1 1zm0 0h-1 1zM499 308zm0 0zM498 298v1s0-1 0 0v-1zM498 298zm0 0v0zM498 298zM499 298h-1 1zm0 0zM499 298zM499 298zm0 0zM499 297v1c1 0 0 0 0 0v-1 0zM499 297h1v1l-1-1zM500 297zm0 0zM500 297zM498 299v0zm0 0c0 1 0 0 0 0zM498 299h1-1 1-1zm0 0zM499 299h-1 1zM499 299zM499 299c0-1 0-1 0 0v-1 1h0zm0 0zM500 298v1l-1-1h1zM500 298zm0 0zM500 298zM500 298h0zm0 0zM501 298h-1 1zM501 298v-1 1zm0 0zM501 297zm0 0v0zM501 297v0c0 1 0 1 0 0zM499 300h-1 1zm-1 0h1-1zM499 300zM499 300v-1 0h1v1l-1-1v1h1-1zM500 299s-1 0 0 0zm0 0v0zM500 299v0zm0 0zM500 299h0zm0 0zM500 299h1-1zM501 299zm0 0zM501 299v-1 1zm0 0v-1 1zM501 298v0zM502 298h-1 1-1 1zm0 0h-1 1zM499 301zM499 301zm0 0zM499 300h1-1v1h0c1 0 0 0 0 0 0-1 0-1 0 0v-1zM500 300c0 1 0 0 0 0v0zm0 0zM500 300zm0 0zM500 300zM500 300h0zM501 300zm0 0zM501 299v0zM501 299v0zm0 0v0zM502 299h-1 1zm0 0c-1 0 0 0 0 0zM502 299zm0 0zM502 299zm0 0zM502 299zM503 299h-1 1l-1-1v0l1 1zm0 0c-1 0 0 0 0 0zM503 298c0 1 0 0 0 0v0zM503 298zm0 0zM503 298h0zM504 298zM504 298zm0 0zM499 302v-1h1c0 1 0 0 0 0v0h-1v1h0v-1 1zM500 301zm0 0zM500 301zM501 301h-1 1zm0 0h-1 1zM501 301c0-1 0 0 0 0zm0 0zM501 300v0zM501 300v0zM501 300zm0 0c1 0 1 0 0 0v0zM501 300h1v0h-1zm0 0h0zM502 300zm0 0zM502 300zM502 300zm0 0zM502 300h0v-1zM501 304zM501 304v-1 1zM501 304h0zM502 303h-1 1zM502 303zM503 303h-1 1zm0 0h-1 1zM503 303v-1 1c0-1 0-1 0 0 0-1 0-1 0 0zM503 302v0zm0 0v0zM504 302h-1c1 0 0 0 0 0h1zM504 302zm0 0zM504 302zM504 302zm0 0zM504 301zm0 1c1 0 1 0 0 0zM505 301h-1l1 1h-1 0v-1h1zM505 301zM505 301zm0 0zM501 305v-1 1zM502 304v1l-1-1h1zm0 0zM502 304zM502 304zm0 0zM502 304h0zm0 0zM503 304c-1 0-1 0 0 0-1 0-1 0 0 0v-1 1zm0 0zM503 304zM503 303v0zM503 303h0zM504 303zm0 0zM504 303zM504 303h0v-1h1l-1 1zm0 0c0-1 0-1 0 0zM505 302v0zM505 302zm0 0zM505 302zm0 0zM506 302h-1 1zm0 0h-1 1zM506 302zm0 0zM506 301v0zM502 305v0c-1 0 0 0 0 0zM502 305zm0 0zM502 305zM503 305h-1 1zm0 0h-1 1zM503 304v0zM503 304zm0 0v0zM503 304v0zm0 0v0zM503 304h0zM504 304zm0 0zM504 304zM504 304z"/>
      </g>
    </g>
  </g>
  <path fill="#201b18" d="M362 204c-6 0-12 1-17 4-3 2-3 2-2 5l-3 1-6 2-2 2h5l-1 1-2 3 5-2c3-2 10-2 12-5v-3l5-1c6-2 10 0 12-1l2-1v-3h9c0 1-2 3 1 4s8-1 13 1l5 1-1 2v1l2 1 5 2c6 1 6 2 10 4l-3-4h5l-5-3-6-2 1-3-7-4-7-1-6-1-1-3-3-1h-16l-3 1-1 3z"/>
  <g fill="#002d62">
    <path d="M364 207l2-1 8-1h6l5 2v-4c0-2 0-2-2-3h-9l-9 1-2 2 1 4z"/>
    <path d="M346 215l2-2 8-3h12l1-1 1-1c-1-1-4 2-6 1l-1-2v-3c-4 0-11 1-14 3l-6 3c-1 1 0 2 1 3l2 2zM379 208l2 2h11a33 33 0 0 1 10 4l1 1 2-2v-3l-5-3-7-2-7-1-2 5c-2 1-3-1-5-1z"/>
    <path d="M398 213v2c3 3 8 3 11 4l4 2-2-4 4 1v-1l-10-4-2 3h-1l-2-1-2-2zM379 208h3l1 1 1-1c1-1-1-2-1-2h-4zM370 208l-1-2c-1 0-5 0-5 2l1 1 5-1zM346 215c1 2 3 0 4-1l1-1v-1l-3 2-2 1z"/>
    <path d="M398 213l4 3c1-1-1-2-1-2l-3-2v1zM351 214l-1 1c-3 3-8 3-11 4l-4 2 3-3h-5l10-5 1 1 2 2h1l2-1 2-1z"/>
  </g>
  <g fill="#eac102">
    <path d="M352 207h-2l1 1v2s0 1 0 0h1l1-1v-1-1h-1zm-1 0l1 1 1 1-1 1v-1l-1-1v-1zM353 206v1l1 1v1s0 1 0 0h1l-1-1v-1a36 36 0 0 1 0-1h-1zM356 206h-1v3h2v-1-1-1h-1zm0 0l1 1v2h-1v-1-1h-1v-1h1zM358 205v2h1v1h-1c0-1 0 0 0 0l1 1v-1h1v-1h-1v-1h-1v-1h1v0h-1zM368 201h-1v4h1v-1-1h1v-1-1h-1zm0 0l1 1-1 1v-1-1zM371 201h-1v3c1 0 0 0 0 0v-1h1v1h1v-1h-1v-1-1zm0 1v1h-1l1-1zM373 201h-1v1l1-1v3h1v-3 1h1v-1h-1-1zM376 201h-1v3h1v-1l1 1v-1-1-1h-1zm0 0h1v1l-1 1v-1-1zM378 201v3h1v-2-1h-1zM381 201l-1 1v2c-1 0 0 1 0 0v0h1v1h1v-1l-1-1v-1-1zm0 1v1c0 1 0 0 0 0h-1l1-1zM387 205v4h2v-1h-1-1v-2l1-1h-1zM389 209h1v-1-2-1h-1v4zM390 205v4h2v-1-1-1l-1-1h-1zm1 1h1l-1 1v-1zm0 1h1v1h-1v-1zM392 209h2c1 0 0 0 0 0l-1-1v-1h1v0h-1l1-1 1 1v-1h-1-1v3h-1z"/>
    <path d="M395 206v3s-1 0 0 0v0l1-1v2h1l-1-1v-1h1v-1l-2-1zm1 1h1l-1 1v-1zM397 208h1c0-1 0-1 0 0v2 0l1-1v-1l1 1v-1l-1-1h-1l-1 1zM401 208l-1 1-1 1v1l1-1v2h1v-1-1-1-1zm-1 1v1c0 1 0 0 0 0v-1zM402 209v2l-1 1v1h2l1-1v-1l-1-1-1-1zm1 1v2l-1 1v-1-1l1-1z"/>
  </g>
  <g>
    <path fill="#006300" d="M363 281l3 1 1 3 2 1-5 2v1h3l5-3 2-1 7 4h2l1-1h-1l-4-2h1v-1l2-3 2-1c0-2-16-3-21 0z"/>
    <path fill="#ff0" d="M364 288l1 1-1-1zM382 288v1h1v-1h-1z"/>
    <path fill="#006300" d="M399 222l2 6v-1a28 28 0 0 1-3-4l1 3 3 6-1-1-1-2-1-3-1-2v5l-2-1v-1h-1l2 2 2 2 2 3 1 1-2-1-3-3 1 1 2 2 2 3 1 2-1-1-2-2-2-3-2-1v1l3 2 1 1 1 2 2 2 1 2-5-5-1-1 2 3 1 1 1 1 2 3 1 1a20 20 0 0 0-3-3l-2-2-2-2v1l1 1 3 3 1 2v-1h-1l-2-1-3-2 2 1 2 2h1l1 2 1 2 1 1 1 5-2-5-2-3-1 1-2 2-1 4v0l2-4-1 5 1-1 1-3c2 1 2 6 2 8l-1-3-1-2-2 2-1-1-1 1 1 2v2-4l2 4-3 8a17 17 0 0 1-2 2v1l2-4a23 23 0 0 0 1-6v1l-5 10v-3 1l-2 3 1-1v-4 1l-2 4v-1l1-2h-1v1l-3 5h1-1 1l5 1h9l-2-1h-3 7v-1h-6l6-1h2l-4-1h7l-5-2 3-1 5-1c1-1 3-2 0-1h-4 1l4-1v-1h-1l4-1h3v-1l-6 1h-2l5-2h2-1l-5 1h-1l8-2h1l-3-1-3 1 2-2 2-1h2-2l1-1v-1-1l-2 2-1 1h-3l3-2 2-1 1-1-3 1-3 2 5-5 1-1-4 2-3 3a26 26 0 0 1 2-3h1l1-1 2-2 1-1 1-1-4 3-2 1-2 2 2-4 5-4 1-1-2 1-4 3-1 1-2 2-2 4c0-2 2-4 3-5l3-3 3-6-2 2-5 6 1-3a57 57 0 0 1 6-7l1-1 1-1-3 1-5 6 2-6 1-2 2-2-1 1h-1l-4 7 2-5 2-3-2 1a23 23 0 0 0-4 8l2-7 2-2 1-2 1-1-3 3-2 2 2-4 2-3 1-1-4 5-1 1-1 1v1l1-5 2-4-2 1-1 3 2-6-1 1-2 3 2-3-3 5-1 1v1l1-8h-1v2l-1 4-4-8-2-2zm1 32l2 6v1l-1-2v-3 1l-1-1v-1-1z"/>
    <g fill="#008f4c">
      <path d="M407 249l6-12-2 5a53 53 0 0 0-4 9v-2zM417 247l-2 2c-3 3-7 8-9 13-2 4-1 3-1 1 2-5 6-11 9-14l3-2zM406 239l2-8 2-3v1a47 47 0 0 0-4 12v-2zM401 257a19 19 0 0 1-6 14h1c3-4 4-9 4-13 0-2 0-3 1-1z"/>
      <path d="M409 254v5a10 10 0 0 1-8 8l1-1c4-2 7-6 7-10l-1-2v-1l1 1zM418 261l-4 1a165 165 0 0 0 4-1zM401 224l2 5v2a32 32 0 0 0-3-8l1 1z"/>
      <path d="M399 226l3 5 2 2v-1a32 32 0 0 1-5-7v1zM412 233c-3 2-6 8-6 9l2-3a46 46 0 0 1 5-7l-1 1zM413 234c-3 3-7 10-6 11l2-4a51 51 0 0 1 5-8l-1 1zM398 228l3 5 1 2v-1a32 32 0 0 1-4-8v2z"/>
      <path d="M397 229c1 2 2 2 5 3l2 1-1-1a31 31 0 0 1-7-4l1 1zM417 240c-4 2-10 10-9 12l3-4a62 62 0 0 1 8-9l-2 1zM416 245c-1 3-7 8-8 8l3-3a49 49 0 0 0 6-7l-1 2zM396 265c0 3-4 10-5 10l2-4a45 45 0 0 0 4-7l-1 1zM406 248l-5-7c-2-2-3-2-1 0a27 27 0 0 1 6 8v-1zM407 272h-6a45 45 0 0 1 8 0h-2zM405 273h-10 3a45 45 0 0 1 8 0h-1zM402 274l-10 1h3a45 45 0 0 1 8 0l-1-1zM400 276h-9 3a34 34 0 0 1 7 0h-1zM410 268l-12 3 5-1a53 53 0 0 1 9-3l-2 1zM417 264l-4 1a197 197 0 0 0 4-1zM416 263l-4 1a166 166 0 0 0 4-1zM414 256c-3 2-11 8-11 10l4-3a60 60 0 0 1 9-8l-2 1z"/>
      <path d="M417 258c-4 0-12 4-12 6l4-2a60 60 0 0 1 10-4h-2z"/>
      <path d="M417 258c-10 9-15 13-17 12l7-5a73 73 0 0 0 11-9l-1 2zM407 261l7-7 3-2v1a53 53 0 0 0-11 10l1-2zM408 252c0-4 6-16 7-16l-2 5-3 7-2 6v-2zM405 238v-7l1-3v1a27 27 0 0 0 0 11l-1-2zM407 251c0-2-2-4-4-5l-1-1a24 24 0 0 1 5 8v-2zM398 254c2-7 3-6 3-6 4 4 2 18 2 18 0-28-5-12-5-12z"/>
      <path d="M399 253c2-7 3-6 3-6 3 0 3 16 3 16-2-26-6-10-6-10zM397 259c0-5 1-4 1-4 3 2 4 12 4 12-4-20-5-8-5-8zM406 244c-1-3-3-6-7-9-3-3-4-3-1 0a38 38 0 0 1 8 11v-2z"/>
      <path d="M406 242l-5-7c-3-2-4-3-1 0a30 30 0 0 1 6 9v-2zM392 269c0 2-2 5-3 5l1-2 1-2 1-1zM390 270l-2 5 1-2a23 23 0 0 0 1-4v1z"/>
      <path d="M392 270l-2 5 1-2a23 23 0 0 0 1-3z"/>
    </g>
    <path fill="#00873f" d="M341 232l1 2v-2h-1z"/>
    <g fill="none" stroke="#006300" transform="matrix(.8 0 0 .8 -25 0)">
      <path d="M455 304l-1-1M456 299l-1-1M454 311l-2-3M463 338c-5-6-7-16-7-16 2-5 4-6 4-6M456 322l-1-15 3-17M455 310c1-7 7-6 7-6"/>
      <path d="M455 311c5-2 4-6 5-8l2-3M460 332c-2-4 0-5 0-5M459 331c-2-3-5-3-5-3M458 318v-5M459 330l-4-5M457 294c1-2-1-2-1-2"/>
      <g transform="translate(442 224) scale(.1567)">
        <path id="b" fill="red" stroke-width="2" d="M91 426a6 6 0 1 1-12 0 6 6 0 0 1 12 0z"/>
      </g>
      <use xlink:href="#b" transform="matrix(.1567 0 0 .18128 445 235)"/>
      <use xlink:href="#b" transform="translate(444 248) scale(.1567)"/>
      <use xlink:href="#b" transform="translate(440 252) scale(.16899)"/>
      <use xlink:href="#b" transform="translate(439 256) scale(.16899)"/>
      <use xlink:href="#b" transform="translate(440 258) scale(.16899)"/>
      <use xlink:href="#b" transform="matrix(.12289 0 0 .12289 463 286)"/>
      <use xlink:href="#b" transform="matrix(.12289 0 0 .12289 464 287)"/>
      <path d="M459 317l-1-2M472 340h2"/>
    </g>
    <g fill="#006300">
      <path d="M355 274l-1-3M348 269v-1c1-1 3 0 4-4l-2 1v-1l-1-2 1-1s-1-1-4 2l-2-2v5l2 2 1 2h1v-1zM346 273h-1c-3 0-5-4-5-4h3l3 1v3zM342 265h-5l2 2c2 2 5 1 5 1l1 1-3-4zM336 252c0-1 0 0 0 0-1-2-5-2-5-2v1l2 3h-3l3 3h4l1 1c2 0 2 2 2 2l-1-6-3-2z"/>
      <path d="M354 275l-2 1c-1 2-5 0-5 0h-1l2-1c-3-2-3-5-3-5h5l-2-1v-1l5 3 1 3v1zM340 261h-5l-3-3h5l1 2 2 1s0 1 0 0zM343 262h3c2 0 3-3 3-3l1-1h-3v-3h-1l-3 3-1-2h-1v3l1 2v1z"/>
      <path d="M360 270l-2 2c-1-3-3-3-3-3v4l-2-1 1 5 4-1 2-1v-5zM341 255l2 1c0 2 4 2 4 2 3 0 2-1 2-1l-2-2-3-1h-2l-1 1zM338 250c-1-3 1-6 1-6l2 4-2 5-1-3z"/>
      <path d="M337 251c-3 0-5-3-5-3l4-1 4 3-3 1zM335 247l-3-1-2-4h1l2 1c-4-2-1-7-1-7v1l2 2 1 1v-1l2 3v5h-2zM343 253v-3c-1-3 2-5 2-5l1 3 3-1-1 4 3-1c-1 5-5 4-5 4l-3-1z"/>
      <path d="M336 240l1-3v1c2 1 2 3 2 3v2c-3 0-3-3-3-3zM344 240v-3l-2 1c-2 0-2 2-2 2l-1 3c3 1 4-2 5-3z"/>
      <path d="M336 235l1-4 1 2c2 1 2 3 2 3 0 3-1 2-1 2-2 0-3-2-3-3zM345 235v-3l-1 1c-3 0-3 2-3 2l-1 3c3 1 4-2 5-3zM348 244l3-3-2 1c-2-2-4-1-4-1l-2 2c2 2 4 2 5 1z"/>
      <path d="M348 246l3-2h-2l-3-1-2 1c1 2 3 2 4 2zM340 231c-1-3 2-6 2-6l1 3c2-3 4-3 4-3v2l2-1c0 3-3 5-3 5h-2l-3 2-1-2zM344 241c2-2 4-1 4-1l3-2 1-2h-1v-3l-3 1v-1h-1l-2 3-1 5z"/>
    </g>
    <g fill="#00863d">
      <path d="M344 252l1-1 1-1v-1 1h0l-1 1-1 1h2l3-4-3 1c-2 1-1 1-2 3zM339 258v-1l-1-2-1-1 1 1v-1 1l1 1 1 2c-1-2 0-3-3-5l-1-1c0 2 0 4 2 5l1 1zM339 238l-1-1v-1h-1 1v-1l-1-1 1 2 1 3v-1-3l-2-2v-1l-1 2 1 3 2 1zM343 230l1-1v-1l1-1v1l-1 1-1 2v-1l3-1 1-3-4 2v2zM334 243l-2-3v-1 1l1 1v-1 2l1 1v-4h-2v3l1 1h1zM340 238l2-2 1-1 1-1-1 2h-1l-1 2v-1l3-1 1-3-3 1-1 3-1 1zM336 246h-1l-1-1-2-1 1 1h1v-1 1l1 1v-1l-1-1-2-1h-1l1 3h4zM335 253h-1-1v-1h1-1l-1-1h1l2 2 1 1-2-3-3-1 1 3h3zM337 246l-2-5 1 1v1c1 0 0 0 0 0v1l1 2v-1-3l-2-2v1l1 4 1 1zM339 251v-3-1 2l1-1v1h-1v2l1-1 1-2-2-3v1l-1 2 1 3zM341 232v-2-2 0h0v4h1v-7l-1 2-1 3 1 2zM331 254l1 1 3 1h1v-1h-1-1-1-1 2l-1-1 2 1h1v-1h-5zM333 258l2 3h3l-1-1h-2 1l-1-1h-1 1l4 2-1-1c-2-2-3-2-5-2zM345 238l1-1v-1 1l1-2-1 3-1 1 2-2v-4l-1 2-1 3zM344 261l2-1 1-1v1l-2 1h-1 2c1 1 2-1 3-2v-1a9 9 0 0 0-4 2l-1 1z"/>
      <path d="M343 252l1-3 1-1v1l-1 1v-1l2-1-1-2-1 1-1 1v4zM343 261l2-3v-1 1l1-1-1 1-2 3 2-1v-1h1v-3l-2 1-1 4zM346 252h2l-1 1h-3 1l1 1h2l2-3h-2l-1 1h-1zM333 248l3 2 1-1h-2-1v-1l3 1-2-1h-2zM342 261v-4 1l1 3v-3l-1-2-1 3 1 1v1zM346 229l1-1v1l-1 1-2 1c2 0 4-2 5-4-3 0-2 0-2 1l-1 1zM347 239l1-1 1-1h-1l1-1-2 2-1 1 1-3 4-2-1 3-3 2zM338 243l-1-2v-2 1l1 1v-1 1l1 1-1-2-1-2v3l1 1v1zM340 243l1-2 2-2-1 1-1 1v-1 1l-1 1 1-3 3-1-1 3-2 1-1 1zM344 243l3-1h1v1h-5c2 1 2 2 4 1l3-2c-2 0-3-2-5 0l-1 1z"/>
      <path d="M347 244h-2l2 1 3-1h-2zM346 255v-1h-4l2 1h2zM347 256v1h2l-2-2v1zM344 257l1-1-1-1h-1v1l1 1zM350 237l-1 2h-3 4l2-3h-2v1zM345 270l1 2 2 2h1l1-1h-1l-2-1h2l-2-1 2 1v-1 1l1 1h1l2 1-2-2-1-1-5-1zM347 268v-2-2 1l1-2-1 2v2h1v-1c2-2 1-3 1-3v-2l-1 1-2 4 1 1v1z"/>
      <path d="M347 275l1 1c1 0 3 1 4-1l1-1-2 1-1 1v-1h-1 1l3-1c-2 0-2-2-5 0zM357 274v-1l-1-1 1 1v-3 4l1 1v-4l-2-2v2l-1 1 1 1 1 1zM346 272l-1-1h-2l-1-1 2 1-1-1 1 1h1v-1l-2-1h-3l1 2c1 0 2 2 4 1h1zM338 265l1 1 1 1 3 1v-1l-2-1h-1 1l-1-1 2 1 2 2-1-2c-1-1-3-2-4-1h-1zM347 268l-2-3v-1l1 2v-1-2l-2-1v4c1 2 2 1 3 2zM355 276h1l-1-1v-1 1l1 1v-1 1l2-1-4-2v2l1 1zM353 273l-1-1-1-2v-1 1l2 3v-1c1-1 0-2-1-2l-3-2 1 2 1 1 2 2zM359 273v-1 3l1-1v-4l-1 1v2zM349 266l1-1-1 1-1 1c2 0 2-2 3-3l-1 1h-1v1z"/>
    </g>
    <g fill="#ce1126" stroke="none">
      <path d="M362 284l2 1-1 2 4-2v-3l-2 1-3 1zM385 283l-1 1 1 2-5-1 1-1v-2l2 1h2z"/>
      <path d="M369 287l3-2h3l4 1 2-1v-1l-1-3h-3l-2 1h-3l-2-1h-3v3c0 2 2 3 2 3z"/>
      <path d="M375 284c5 1 4 2 4 2h-1c-4-1-3-2-3-2zM373 284c-5 1-4 2-4 2h1c4-1 3-2 3-2z"/>
      <path fill="#aa241e" d="M373 281c-2 1-1 2-1 3l1 1h3l-1-2v-2h-2z"/>
      <path fill="none" d="M375 282h5M376 284l4 1M372 284l-4 2M372 282h-4"/>
    </g>
  </g>
  <g>
    <path d="M354 277l-6 2-3-4-2-2h-3l-1-1-4-5-1-1 1 5-2-1-3-1 1 1 3 5c1 2 2 5 4 6l2 2 2-1 4 6c2 1 4 2 7 1l3-1c3-2 1-3 1-5l7-1c5-1 14-2 21-1l7 2-1 3 2 2a9 9 0 0 0 6 1c3 0 4-1 5-3l3-4 1 1h1l2-2 4-6 4-6c-3 0-4 1-5 2v-3l1-2-3 3-2 2-1 2c-4-2-5 3-8 6l-14-4h-24l-9 2z"/>
    <g fill="#ce1126">
      <path d="M349 287l2-2a45 45 0 0 1 16-4l3-1a62 62 0 0 1 19 2l8 3 2 2 3-3 1-2-1-2-8-3c-11-3-28-3-39 0a23 23 0 0 0-9 4l1 3 1 2 1 1z"/>
      <path d="M338 277c1 0 2 0 2 2l6 8 2 2h4l3-1 2-1v-2l-4 3c-2 1-3 1-4-1l-3-3v-3l1-1-2-3-2-3-2-1-2 2-1 2z"/>
      <path d="M336 272l-2-2h-3l2 1 2 6a15 15 0 0 0 4 5h2l-1-1-2-2c-2-1 0-3 1-4v-1c1-1-1-2-1-3l-3-4v3l1 2zM357 285l-1-1-5 2s-2 1-1 2c2 1 4-1 5-2l2-1z"/>
      <path d="M342 282l-1-1-3-2v-1-1c2 0 4 5 4 5zM411 277c-1 0-2 0-3 2l-5 8-2 2h-4l-3-1-2-1v-1c1-1 2 1 4 2s2 1 4-1l2-3 1-3-1-1 2-3 2-3 2-1 2 2 1 2z"/>
      <path d="M413 272l2-1 3-1-2 1-2 6a15 15 0 0 1-4 5h-3l2-1 2-2c1-1 0-3-1-4l-1-1 2-3 3-4v3l-1 2zM392 285v-1l6 2 1 2c-2 1-4-1-5-2l-2-1z"/>
      <path d="M407 282l1-1 3-2v-1-1c-2 0-4 5-4 5z"/>
    </g>
    <g fill="#eac102">
      <path d="M354 279h-1l-1 1v1l1 1v1l1-1h-1v-1h1v1h0v-1-1-1zm-1 1h1l-1 1v-1zM355 279v3l2-1h-1v-1h0v-1 1l-1-1h2l-1-1-1 1zM358 278h-1v2l1 1v-1l1-1v-1h-1zm1 0zm-1 0h1v1h-1v-1zM361 277v1h1v2h-1v-1h-1v-1-1 1c-1 0 0 0 0 0v2h2v-1-1-1h-1zM364 277h-2l1 1v2s-1 0 0 0h1l1-1v-1h-1v-1zm-1 0h1v1h-1v-1zm0 1l1 1v1h-1v-1-1zM365 276v4l1-1h1-1v-1-1-1h-1zM367 276v1l1 2s-1 0 0 0v-1-1-1h-1zM371 278l-1 1v-1h-1v-1l1-1v1h1v-1h-1-1v3h2v-1zM372 276v1l-1 1v1h1v-1l1 1s-1 0 0 0v-1-1l-1-1zm0 1v0zM376 276h-1v3h2v-1-1-1h-1zm0 0l1 1v1h-1v-2zM379 276h-1v2a1 1 0 0 0 1 1l1-1v-1-1h-1zm0 0v3h-1v-1-1-1h1zM380 279c1 0 0 0 0 0v-1h1v-1 2l1-1v-1 2h1c0 1 0 0 0 0v-1-2h-1v1l-1 1v-1-1h-1v3zM383 280h1v-1-1a21 21 0 0 1 0-1v-1h-1v4zM384 280h1v-1-1-1 1l1 2v-1-1-1h1-1v1l-1-1h-1 1l-1 1v2z"/>
      <path d="M387 277v3h-1 1v-1-1h1v-1h-1zM388 279v1l1 1 1-1h-1l-1-1 1-1h1v0h-1c0-1 0-1 0 0h-1v1zM391 278v1l-1 1v0h1v1l1 1v-1-1-1-1h-1zm0 1v1c-1 0 0 0 0 0v-1zM392 282v-1l1-1v-1 3h1v-1-1-1h1-1v2l-1-1v-1c0-1-1 0 0 0l-1 1v2zM396 280h-1v1l-1 1 1 1v-1s1 0 0 0v1h1v-1-1-1zm0 0v2h-1v-1l1-1z"/>
    </g>
  </g>
</svg>
