<svg xmlns="http://www.w3.org/2000/svg" xmlns:xlink="http://www.w3.org/1999/xlink" width="750" height="375">
  <defs>
    <linearGradient id="b">
      <stop stop-color="#d5dfff" offset="0"/>
      <stop stop-color="#FFF" offset="1"/>
    </linearGradient>
    <linearGradient id="a">
      <stop stop-color="#474747" offset="0"/>
      <stop stop-color="#f50" offset="1"/>
    </linearGradient>
    <linearGradient id="f" y2="103" xlink:href="#a" gradientUnits="userSpaceOnUse" x2="229" gradientTransform="matrix(.74087 0 0 1.3286 41 0)" y1="103" x1="216"/>
    <linearGradient id="c" y2="173" xlink:href="#a" gradientUnits="userSpaceOnUse" y1="218" gradientTransform="matrix(1.5101 0 0 .65184 41 0)" x2="111" x1="109"/>
    <linearGradient id="d" y2="337" gradientUnits="userSpaceOnUse" y1="316" gradientTransform="matrix(1.2315 0 0 .79928 41 0)" x2="126" x1="126">
      <stop stop-color="#b50000" offset="0"/>
      <stop stop-color="#ffc500" offset="1"/>
    </linearGradient>
    <linearGradient id="g" y2="1004" xlink:href="#b" gradientUnits="userSpaceOnUse" y1="1040" gradientTransform="matrix(2.5627 0 0 .38409 41 0)" x2="78" x1="118"/>
    <linearGradient id="h" y2="226" xlink:href="#b" gradientUnits="userSpaceOnUse" y1="246" gradientTransform="matrix(.88634 0 0 1.1105 41 0)" x2="255" x1="265"/>
    <linearGradient id="e" y2="147" xlink:href="#b" gradientUnits="userSpaceOnUse" y1="149" gradientTransform="matrix(.55904 0 0 1.7607 41 0)" x2="456" x1="408"/>
  </defs>
  <path fill="#00247d" d="M0 0h750v375H0z"/>
  <path d="M0 0v21l333 166h42v-20L42 0H0zm375 0v21L42 187H0v-20L333 0h42z" fill="#FFF"/>
  <path d="M156 0v187h63V0h-63zM0 62v63h375V62H0z" fill="#FFF"/>
  <path d="M0 75v37h375V75H0zM169 0v187h37V0h-37zM0 187l125-62h28L28 187H0zM0 0l125 62H97L0 14V0zm222 62L347 0h28L250 62h-28zm153 125l-125-62h28l97 49v13z" fill="#cf142b"/>
  <g>
    <path d="M553 266s-2 5-4 5l-5-2s-3 5-5 5l-6-1h-4v-2s-6 5-7 4c-2 0-6-6-6-6l-1 3h-8l-8-5-4 7-7 2-1-2-4-3 3-5-1-1-3 3-6 3-5-2 2-5 1-3 4-7 53-51 26 48-4 15z" stroke="#000" fill="#6a4c2d" stroke-width=".621"/>
    <path d="M590 269l14-1-6-3 52-2-7-2-7-9-27-2s-2-2-5-1c0-2-3-5-3-5l-16-1-11 7 7 18 9 1z" stroke="#000" fill="#FFF" stroke-width=".621"/>
    <path d="M121 151l3-8s3-6 3-9 3-7 3-7 9-2 11 3c10-14 21 0 21 0l3-4 6-8 9 10c1 2 2 1 2 1l10-1s4 3 3 10c4 2 7 14 7 14l-81-1z" stroke="#000" fill="url(#c)" transform="matrix(.621 0 0 .621 461 21)"/>
    <path d="M590 171c1-1 4-2 4-7s-5-5-7-5l-4 2-8-5s4-24 8-25l5-5-2-2-25-3-24 2-2 4c1 2 1 3 5 6 5 4 8 25 8 25l-7 2h-4c-1 0-4 2-4 6 0 5 3 8 3 8s23-3 27 3c3-7 25-5 27-6z" stroke="#000" fill="#656263" stroke-width=".621"/>
    <path stroke-linejoin="round" d="M615 146s0-3 2-4c2-2 14-2 17 0s4 11 4 11l3 6v4s10 13 10 25c1 8 1 29-2 37 0 11-5 17-5 17l1 4-1 4 15 7-5-2 5 5-6-3 3 3a517 517 0 0 0-11-3l4 4-6-3v3s-5-1-5-4l-3-3-11-2-12-35 3-60 1-3-1-8z" stroke="#000" stroke-width=".621"/>
    <path d="M607 337s-6-13-9-13c-3-5 9-48 33-50 13 1 1 15-8 11l6 9s-17 7-22 43zM525 339s5-15 8-15-8-48-32-49c-13 1-1 15 8 11-1 4-6 9-6 9s17 8 22 44z" stroke="#000" fill="#fb0" stroke-width=".621"/>
    <path d="M548 248c-1 0-6 2-3 8l3-4s-4 5 1 9c0-3 3-5 3-5s-3 9 0 11c0-4 2-5 2-5s-2 8 0 10c0-3 2-5 2-5s-1 9 2 9c0-3 3-6 3-6s-1 7 4 7l1-5s2 7 5 6v-6s2 7 6 5l1-4s2 5 5 3v-4s6 6 8 3-5-5-5-5h4s-1-3-7-4h4s-1-5-7-5l5-1s-1-4-7-5l4-1s-3-4-6-3l-28-3z" stroke="#000" fill="#00713d" stroke-width=".621"/>
    <g stroke-linecap="round" stroke="#3ec26d" fill="none">
      <path d="M573 269l2 2M574 267l3 4M577 266s2 2 2 4M581 267l1 3M583 269v2M554 256s3 2 3 4M554 258l1 2M558 256s1 3 1 4M561 258v2M562 258v3M561 264s3 0 3 2M563 262s2 0 3 3M566 261l2 4M570 261v4M572 262v4M568 258s2 0 2 2M570 256s2 1 2 4M573 255s1 2 1 5M576 256l-1 4M578 258l-1 2M567 268v3M564 267l1 4M562 267l1 3M559 267l2 2M558 269l1 2" stroke-width=".621"/>
    </g>
    <path d="M529 173h19s13 0 14 4c3-5 14-5 14-5l20-1v49c-4 18-17 32-32 37-18-5-29-21-33-38l-2-46z" stroke="#000" fill="#FFF" stroke-width=".621"/>
    <path d="M536 173l28 75 25-76c-7 0-24-2-26 6-4-7-22-4-27-5z" stroke="#000" fill="#006b00" stroke-width=".621"/>
    <path d="M555 214c1 0 1-20 3-21l1-4c-2-3-7-2-9-1l1 4c3 5 2 22 4 22z" stroke="#006b00" stroke-linecap="round" fill="#ffc900" stroke-width=".621"/>
    <path stroke-linejoin="round" d="M547 52l3-3s9 0 14-10c3-6 0-3 0-3v-2s3-4 2-6c-1-1-1 3-3 3s-1-5-1-5l-1-1-1 2-2-4s-1-1-2 4c0 6 4 5 4 9s-3 7-4 7l-1-3-1-2c-1 0 2 0 2-5-1-5-2 2-3 1v-5s0-3-4 3c0 3 0-1-1-1-1 3-1 4 1 6l3 6c0 1-1 3-3 3v-4l-2-4-2-4-1 3c-1 3-2-2-2-2s-1 4 1 6l-2 1c0 1 3 1 3 3 1 2-3 3-3 3s2 2 6-2c0 3-2 4-2 4l2 2zM535 52l-2-3s-8 1-12-9c-2-5 0-2 0-2v-2s-2-4-1-5 0 2 2 2 1-5 1-5l2 2 3-3 1 3c0 5-5 4-5 8 0 3 3 6 4 6l1-3v-1c1 0-2 0-2-4 1-4 2 0 3 0 2 0 0-4 1-5 0 0 2-3 2 3 0 2 2-2 2-2 1 2 0 5-1 7l-3 4c0 1 0 3 2 3v-3l3-4v-2c1 0 1-2 2 1s2-2 2-2 1 4-1 6l2 1-2 3c-1 2 1 2 1 2s-1 2-4-1l1 3-2 2z" stroke="#000" fill="#cdad56" stroke-width=".621"/>
    <path d="M585 184h-3l-1-1-1-1-1 2c-1 1 1 1 1 2l-2 2v-2l-1-1 1-2h-2l-1 1h-3l2-1v-2h2l-1-2h-2l-1-3 2 2 2-1 2 2v-2-2l1-2v2l1 1v2h1l2-1h2l-1 1-1 2h-2l1 1 2 1 1 2zM541 185h3l1-1 1-1 1 2-1 1 2 3v-2l1-2v-2l1 1 1 1h3l-2-1v-2l-2-1 1-1 2-1 1-2-2 1h-2l-1 1-1-1 1-2-2-2v2l-1 1v2h-1l-1-1h-3l2 1 1 2h1l-1 1-2 1-1 2z" fill="#ffc900"/>
    <path stroke-linejoin="round" d="M583 189c-1 2-11 4-11 13v10c-4 0-4-9-4-13v-4s2 1 2 3 3-5 2-7h3l-1-2 2 1s0-2-2-2c-3 0 0-1 0-1s2 2 3 0l-3-2-4-3-4 1v1 4s2-1 2 1-1 1-2 0-2 1-2 1l2 1s-3 0-4 2h3l-4 2v-1l-3-1-1 5s2 2 3 1l4-2c-3 3-7 7-9 7 0 0-2-2-3-1l1 2c1 0-3 1-2 3l1 1 2-2 3-1-2 1-2 1v2c-1 1 3-3 4 0 2-1 4-3 3-5v3c0 1 5-2 2-4l1 3 2-1-1 2c1 0 3 2 2 3l-1-2-5 2c-2 0 2 6 2 6h-3l-2-1c0 2 1 1 1 1h-2l-1 2h3l-3 1v2c1 1 2 0 2-1v2s3 0 3-3v2s3 0 3-2v2l2-1-1 7c-2-2-3 1-3 1l-1 3h2l2-2 1-1-2 2-1 1 2 2c1 1 2-4 2-4v1l2-1c0-1-2-2 0-3 2-2 0 1 0 1l1 2v-5l2 2v-5l-2-1v-1l2 2c1-1 1-3-1-4-3-1-1-4-1-4s2 2 4 1c1-1-1-1-1-1l4-4h-2s3-1 2-3l-2 1 2-4-2 2c-1-1-2-7 1-8 3 0 1 3 1 3s4-1 0-4l3 2s-1-5-5-2c1-2 2-2 3-2l4-1h-4c-1 0 7-1 6-5z" stroke="#006b00" stroke-linecap="round" fill="#ffc900" stroke-width=".621"/>
    <path d="M481 119s13-7 19 1M505 132l-6 4M513 145s11 1 19-10" transform="matrix(.3316 0 0 .35352 391 150)" stroke="#006b00" stroke-linecap="round" fill="none"/>
    <path d="M525 142s1 6 3 6h-5c2 3 3 8 0 10" transform="matrix(.3316 0 0 .35352 391 150)" stroke="#006b00" stroke-linecap="round" fill="none"/>
    <path d="M519 219s-4 4-9 5" transform="matrix(.3316 0 0 .35352 391 150)" stroke="#006b00" stroke-linecap="round" fill="#e80000"/>
    <path d="M524 199s-3-12-1-15c1-4 5-5 8-11M523 190s-3 8-17 5M526 172s1 10-11 6M511 128s-5 4-3 10" transform="matrix(.3316 0 0 .35352 391 150)" stroke="#006b00" stroke-linecap="round" fill="none"/>
    <path d="M567 192l3-2 1-2-1-3h3c1 1-1-2-3-2l-2 1c0-1 0 0 0 0l1 2 1 3-3 3z" fill="#006b00"/>
    <path stroke-linejoin="round" d="M534 97c3-1 4 0 3 3l-3-3z" transform="matrix(.3316 0 0 .35352 391 150)" stroke="#ffc900" stroke-linecap="round" fill="#ffc900"/>
    <path stroke-linejoin="round" d="M515 234s-1 6 1 6l1-4-2-2zM509 226c-2-1-6 1-5 4 2-2 4 0 5-2v-2zM509 221s-4-1-4 2h4v-2zM494 185s2 1 2 3c2-1 3-6-2-3zM488 190s5-2 5 0l-2 2-3-2zM488 199s3-2 4-1c1 2-1 2-1 2l-3-1zM484 150s-4-1-5 1l4 2c0-1-1-3 1-3zM477 169s0-5 2-6l2 3c-1 0-3 0-4 3zM486 166s-4 1-2 3l2-1v-2z" transform="matrix(.3316 0 0 .35352 391 150)" stroke="#006b00" fill="#e80000"/>
    <path stroke-linejoin="round" d="M481 126c-2 1 1 5 5 4 1-4-5-6-5-4z" transform="matrix(.3316 0 0 .35352 391 150)" stroke="#006b00" fill="#ffc900"/>
    <path d="M551 192c0 1 0 2 1 1l-1-1z" fill="none"/>
    <path stroke-linejoin="round" d="M484 123s1 3 4 2l-3-4c0 1 1 2-1 2zM486 131s2 2 5-2h-4l-1 2z" transform="matrix(.3316 0 0 .35352 391 150)" stroke="#006b00" fill="#e80000"/>
    <path stroke-linejoin="round" d="M480 119c-1 1 1 4 4 3 1-4-3-4-4-3z" transform="matrix(.3316 0 0 .35352 391 150)" stroke="#006b00" fill="#ffc900"/>
    <path d="M145 267s7-2 10 1c4 3 4 0 4 0l7 1 1-1c2-1-4 1-5-2-1-2 0-4-2-3-1-2 1-4 1-6-2 1-3 0-4 3-3-1-1-5-4-6 0 3-2 4-2 5-2 1-8 5-6 8z" fill="url(#d)" transform="matrix(.621 0 0 .621 461 21)"/>
    <path d="M501 329c3 0 18 4 24 10-1-11-4-20-4-20s-10-3-11-1l-9 11zM496 277l-3 3c-1 3-2 10-4 12s-3 2-3 4c0 1 0 5 5 7 5 0 12-8 12-8s4-4 6-9c-10 3-16-5-13-9zM631 327c-3 0-18 4-24 10 1-11 4-20 4-20 1 0 9-2 11-1l9 11zM636 276l2 3c1 3 2 7 4 9l4 6c0 1-1 4-6 5-4 1-11-6-11-6s-4-4-6-9c9 4 15-5 13-8z" stroke="#000" fill="#c01500" stroke-width=".621"/>
    <path d="M491 319s10 7 10 10c26-39 92-51 130-3 5-6 10-8 10-8-40-52-119-46-150 1z" stroke="#000" fill="#fb0" stroke-width=".621"/>
    <g stroke="#000" fill="#1e5aa6">
      <path d="M590 172h3l-6 8 8 10-16 20 15 18-6 11-9-9 16-20-13-15 8-23zM535 173h-4l8 9-8 10 17 18-14 18 6 12 9-10-17-19 12-16-9-22z" stroke-width=".621"/>
      <path d="M554 222l-6 8 22 25 9-7-11-13 5-13 6 8-20 25-11-6 11-14-5-13zM548 210l3 5-2-7-1 2zM575 214l4-4-2-2-2 6z" stroke-width=".621"/>
    </g>
    <g font-family="Timmons" font-size="14" font-weight="bold">
      <text y="362" x="-328" transform="rotate(-50 254 -489) scale(.621)">
        <tspan y="362" x="-328">L</tspan>
      </text>
      <text y="384" x="-292" transform="rotate(-45 256 -541) scale(.621)">
        <tspan y="384" x="-292">E</tspan>
      </text>
      <text y="452" x="-240" transform="matrix(.4737 -.33822 .35254 .46837 461 21)">
        <tspan y="452" x="-240">O</tspan>
      </text>
      <text y="430" x="-189" transform="scale(.621) rotate(-34 428 -1196)">
        <tspan y="430" x="-189">T</tspan>
      </text>
      <text y="451" x="-115" transform="rotate(-26 278 -1007) scale(.621)">
        <tspan y="451" x="-115">E</tspan>
      </text>
      <text y="453" x="-94" transform="rotate(-24 281 -1075) scale(.621)">
        <tspan y="453" x="-94">R</tspan>
      </text>
      <text y="455" x="-68" transform="rotate(-22 286 -1181) scale(.621)">
        <tspan y="455" x="-68">R</tspan>
      </text>
      <text y="446" x="112" transform="rotate(-5 489 -5537) scale(.621)">
        <tspan y="446" x="112">R</tspan>
      </text>
      <text y="431" x="180" transform="matrix(.62 .01 -.01 .62 461 21)">
        <tspan y="431" x="180">R</tspan>
      </text>
      <text y="275" x="415" transform="rotate(30 190 883) scale(.621)">
        <tspan y="275" x="415">R</tspan>
      </text>
      <text y="193" x="484" transform="rotate(40 201 648) scale(.621)">
        <tspan y="193" x="484">E</tspan>
      </text>
      <text y="414" x="309" transform="matrix(.59837 .11248 -.09645 .5911 461 21)">
        <tspan y="414" x="309">O</tspan>
      </text>
      <text y="459" x="105" transform="matrix(.56007 -.08172 .08475 .60547 461 21)">
        <tspan y="459" x="105">O</tspan>
      </text>
      <text y="456" x="-46" transform="rotate(-20 291 -1278) scale(.621)">
        <tspan y="456" x="-46">A</tspan>
      </text>
      <text y="145" x="518" transform="rotate(45 205 565) scale(.621)">
        <tspan y="145" x="518">A</tspan>
      </text>
      <text y="388" x="271" transform="rotate(11 123 2331) scale(.621)">
        <tspan y="388" x="271">A</tspan>
      </text>
      <text y="455" x="40" transform="rotate(-11 346 -2466) scale(.621)">
        <tspan y="455" x="40">M</tspan>
      </text>
      <text y="448" x="94" transform="rotate(-6 438 -4436) scale(.621)">
        <tspan y="448" x="94">P</tspan>
      </text>
      <text y="438" x="155" transform="matrix(.62 -.016 .016 .62 461 21)">
        <tspan y="438" x="155">P</tspan>
      </text>
      <text y="277" x="405" transform="rotate(29 190 887) scale(.621)">
        <tspan y="277" x="405">P</tspan>
      </text>
      <text y="410" x="232" transform="rotate(7 44 4021) scale(.621)">
        <tspan y="410" x="232">I</tspan>
      </text>
      <text y="132" x="530" transform="rotate(47 206 547) scale(.621)">
        <tspan y="132" x="530">T</tspan>
      </text>
      <text y="219" x="464" transform="rotate(37 198 704) scale(.621)">
        <tspan y="219" x="464">T</tspan>
      </text>
      <text y="362" x="314" transform="rotate(16 156 1611) scale(.621)">
        <tspan y="362" x="314">M</tspan>
      </text>
      <text y="123" x="514" transform="rotate(48 206 533) scale(.621)">
        <tspan y="123" x="514">G</tspan>
      </text>
    </g>
    <g stroke="#fff700" stroke-linecap="round" fill="none">
      <path d="M620 146s4-3 7-3M621 146l23-4M621 146l25-2M621 146s26-1 28 0M621 146l26 1M621 146l25 2M621 146s25 2 28 6M650 156s-9-10-29-10M621 146s14 1 19 6M621 146s9-2 19 10" stroke-width=".621"/>
    </g>
    <path d="M247 218s21 1 21 3-15 5-16 14 12 9 13 20-9 12-11 15c-2 2-7 17-7 26s4 39 8 45c4 3 9 12 15 9s2-13 2-16c-1-3 2-7 2-12s-2-7-2-8 16 3 15 20c-1 16-7 11-7 11s2 19-3 22c-9 5-16-1-16-1l1 4-7-4s-9-12-11-18-5-31-4-37a460 460 0 0 0 0-71l7-22z" stroke="#000" fill="url(#e)" transform="matrix(.621 0 0 .621 461 21)"/>
    <path d="M601 153s9-8 14-7c3 0 0 2 0 2s5 0 6 2l-3 1 2 2c1 2-19 1-19 0z" stroke="#000" fill="#ff7000" stroke-width=".621"/>
    <path d="M602 153s9-1 13-5M611 150s7 0 7 1" stroke="#000" fill="none" stroke-width=".621"/>
    <path stroke-linejoin="round" d="M636 254s7-2 8-4c1-1 6 8-8 4z" stroke="#000" fill="#FFF" stroke-width=".621"/>
    <path d="M635 203s1 5-2 8l-4 5 1 6-2 5 2 9M624 188s-5 2-6 7" stroke="#FFF" stroke-linecap="round" fill="none" stroke-width=".621"/>
    <path d="M622 150s1 5 7 1c-4-5-7 0-7-1z" stroke="#000" fill="#c75b00" stroke-width=".621"/>
    <path d="M626 150l-1 1-1-1h2z"/>
    <path d="M578 140s10 11 17 11c1 3-3 6-5 7-3-1-6 0-14-9l2-9zM592 115c1-4 4-8 6-8 0-3 5-17 20-22 1 7-6 14-6 14s23-4 27-10c0 3-5 19-29 19 9 9-3 16-8 14 9-8-3-12-10-7z" stroke="#000" fill="#FFF" stroke-width=".621"/>
    <path d="M600 109c4-3 6-3 10-2h-3l2 2c-2-1-4-2-9 0z" stroke="#CCC" fill="#cccccd" stroke-width=".621"/>
    <path d="M598 107l14-8" stroke="#000" fill="none" stroke-width=".621"/>
    <path d="M590 158s13 4 14-14c-3-8-6-25-1-30-5-3-11 0-11 0 0 1-5 8 2 20-15-4-9 10-9 10 0-2 8-4 10 7 1 3-5 7-5 7z" stroke="#000" fill="#00F" stroke-width=".621"/>
    <path d="M604 144s14-7 13-24c-11 0-15 15-15 15l2 9z" stroke="#000" fill="#00F" stroke-width=".621"/>
    <path d="M545 143s-10 8-15 6c-5 2-9-2-9-2s5 21 26 6l-2-10z" stroke="#000" fill="#FFF" stroke-width=".621"/>
    <path d="M529 148c1-4 5-6 7-2 4 1 8-14-5-12 3-19-8-27-8-27s-3 22-2 26c2 4-2-7-16-11-1 17 15 24 15 24s5 5 9 2z" stroke="#000" fill="#00F" stroke-width=".621"/>
    <path d="M531 134s-6 5-5 12M521 133s-1 5 2 13M520 147s3-4 9 2" stroke="#000" fill="none" stroke-width=".621"/>
    <path d="M522 115s-10 0-4 10c-4 1-13-5-7-13-21 0-30-10-30-20 7 7 21 4 26 8-6-6-5-14-5-14s18 5 21 21l-1 8z" stroke="#000" fill="#FFF" stroke-width=".621"/>
    <path d="M507 100c4 3 13 4 17 8" stroke="#000" fill="none" stroke-width=".621"/>
    <path d="M511 110s8-1 10 2h-8l1-1-3-1z" stroke="#CCC" fill="#cccccd" stroke-width=".621"/>
    <path d="M548 53s4-4 8-1c-2 6-9 4-9 4v4l2 5s8-2 9 1h5l8-1 9 3c0 1 2 9 4 9 1 0-4 2-5 0s-1 2-1 2l5 5c0 1-3 9-1 14-2 1-2 3-2 3 0 2-3 3-3 3v-4l-2 2v-3l3-9c1-2-2-6-4-6s-4 7-4 7l-1 6-1-2-2 4-2 1-1-4c0-1 6-6 6-9l-1-3-2-3c-1-2-4 1-9 0l-1 9v8c1 1-2 2-2 2l-2 4-1-2-2 1 1-3 2-10 1-9s-5 0-4 4c0 5-2 5-1 6l1 6-2 2-5 3v-6s3-1 3-5l-1-6 1-5-3 1 1-4c0-2-2 2-4 0l2-5c0-2-1 2-3 0l2-3h-2l1-4-1-3-3-3v-2s-4 3-9-3c5-4 9-1 9-1s1-4 7-3c5 0 6 3 6 3z" stroke="#000" fill="#923f00" stroke-width=".621"/>
    <path d="M578 114s10 0 10 5c0 6-3 4-3 4l-8-1 1-8z" stroke="#000" fill="#00F" stroke-width=".621"/>
    <path d="M568 112s12 0 12 6c-1 5-4 4-4 4l-6-1-2-9z" stroke="#000" fill="#fffeff" stroke-width=".621"/>
    <path d="M561 112h7s5 1 4 5c0 4-4 4-4 4h-7v-9z" stroke="#000" fill="#00F" stroke-width=".621"/>
    <path d="M544 114s-10 0-10 5c0 6 3 4 3 4l7-1v-8z" stroke="#000" fill="#FFF" stroke-width=".621"/>
    <path d="M554 112s-13 0-12 6c1 5 4 4 4 4l6-1 2-9z" stroke="#000" fill="#00F" stroke-width=".621"/>
    <path d="M561 112h-7s-5 1-5 5 5 4 5 4h7v-9z" stroke="#000" fill="#FFF" stroke-width=".621"/>
    <path d="M580 171s5-7 7-6c2 0 1 6 0 7l-7-1zM545 173c-2-2-4-9-7-7-1 1 0 7 1 7h6z" stroke="#000" fill="#5e0043" stroke-width=".621"/>
    <path d="M548 158s10 6 13 6 14-8 14-8" stroke="#000" fill="none" stroke-width=".621"/>
    <path d="M549 133l2-2 10 5 9-4 2 2-11 7-12-8z" stroke="#000" fill="#5e0043" stroke-width=".621"/>
    <path stroke-linejoin="round" d="M541 133c1 1 7 9 9 15l-1-8s8 3 8 6 4 0 4-1l-23-14 3 2zM580 133s-9 11-8 22v-15l-2 2s-2 7-4 9v-2l-3 4v11l2 7-3 2-1-21 3-2s3-4 3-7l-3 1s0 5-2 6l-1 2v-7l19-12z" stroke="#474747" fill="#474747" stroke-width=".621"/>
    <path d="M561 145l2 32" stroke="#000" stroke-linecap="round" fill="none" stroke-width=".621"/>
    <path d="M541 161s4 2 5 8c12 0 16 4 16 4s10-5 15-4l6-8" stroke="#000" fill="none" stroke-width=".621"/>
    <path d="M536 129l25 16 22-15s5-2 5-4c-1-2-2-1-3-1l-24 16-24-15s-2 0-2 1l1 2z" stroke="#000" fill="#b4b6b9" stroke-width=".621"/>
    <path stroke-linejoin="round" d="M581 125s-7-3-7 0l1 4v2l-1-2c0-1-4-1-4-3 0-1 1-3-1-3s-4 1-5 3l-3 8v-12l20 2c-2-1 0 0 0 0v1zM558 122l-8 1c-2 1 2 2 2 4s-1 3-3 2l-8-4-1-1 18-2z" stroke="#474747" fill="#474747" stroke-width=".621"/>
    <path d="M561 120v16M549 102l-7 12" stroke="#000" fill="none" stroke-width=".621"/>
    <path d="M162 130s5 6 4 8l4 8" stroke="#000" fill="url(#f)" transform="matrix(.621 0 0 .621 461 21)"/>
    <path d="M574 101l-7 10" stroke="#000" fill="none" stroke-width=".621"/>
    <path d="M540 57l-2 1-1-2h2l1 1zM543 57l2 1 1-2h-2l-1 1z"/>
    <path stroke-linejoin="round" d="M619 249l-2 1h-7l-1 1 1-1 2 2v1h1l12-1-6-3zM624 253h-10l-2 3h1l1 2h1s8 1 16-1c3-1 4-3 1-4h-8z" stroke="#000" fill="#ff7000" stroke-width=".621"/>
    <path d="M208 404l28-1-5-5 76-3-3-6-85 4 11 4-23 1v2h-6l7 4z" stroke="#000" fill="url(#g)" transform="matrix(.621 0 0 .621 461 21)"/>
    <path d="M240 249c-3-1-12-2-23 5v25s16-8 24-6l-1-24z" stroke="#000" fill="url(#h)" transform="matrix(.621 0 0 .621 461 21)"/>
    <g stroke="#000" fill="none">
      <path d="M514 224l-41 40M532 224l-33 44M531 213l-44 53M485 266l5-5M539 240l-17 23M522 266v10M547 248l-18 23M544 269l7-12M547 254l-9 11M544 245l-6 7M536 234s-18 27-18 29M534 231l-16 20M517 258l-2 3M511 267l-4 5" stroke-width=".621"/>
    </g>
    <path d="M512 161s-1 4 0 6l9 18s6-7 8-7 1 17 1 17-3 4-5 3c-2 0 4 7 4 13s-9 35-12 36 1-5 1-7-1-1-1-2v-7l-2-2 1-3c0-2-2-1-2-3v-3c0-3 0 2-2 2s-4 5-4 5-4 5-8 3c3 5 1 7 0 7s1 4-2 4 2 9-1 9c3 2 1 3 1 3s-6 1-5 9c-18-7-27-18-27-29s4-22 13-25l6-20v-7l3-5v-10l2-6c0-2-1-11 1-13s5-1 7-2l6-3 5 2s9 0 9 3c1 4-2 5-2 5s2 5-4 9z" stroke="#2b2b2b" fill="#8a9396" stroke-width=".621"/>
    <path d="M504 149l-1 2h-2c-1-1 0-2 1-2h2z" stroke="#2b2b2b" fill="#cecfcf" stroke-width=".621"/>
    <path d="M503 150h-1v-1l1 1z"/>
    <path d="M516 156s2 9 0 16M517 151s4 6 3 13M517 150s4 3 4 5M518 149l3 3" stroke="#2b2b2b" fill="none" stroke-width=".621"/>
    <path d="M517 148s-9 14-7 22" stroke="#000" fill="none" stroke-width=".621"/>
    <path d="M517 148s-11 6-13 28" stroke="#2b2b2b" fill="none" stroke-width=".621"/>
    <path d="M516 151l-4 4" stroke="#000" fill="none" stroke-width=".621"/>
    <path d="M500 177s6-26 17-29" stroke="#2b2b2b" fill="none" stroke-width=".621"/>
    <path d="M522 186s5-8 7-8 1 18 1 18l-6 3c-1 0 5 8 5 11v3l-1-5c-1-3-1-6-10-13-2-5 4 2 6 1 1-1-3-10-2-10z" stroke="#2b2b2b" fill="#2b2b2b" stroke-width=".621"/>
    <path d="M511 144l-3 1c0 2-2 3-2 2l-3-1" stroke="#2b2b2b" fill="none" stroke-width=".621"/>
    <path stroke-linejoin="round" d="M497 152s-4 4-2 5c2 0 4-3 4-3s0 5 1 5l7-5h1c1 1 5 4 7 3l-3 4s-3 3-6 3c-4-1-4-3-4-3s-3 1-4-1l-2-2s-1 2-2 1c0-1 0-5 3-7z" stroke="#2b2b2b" fill="#2b2b2b" stroke-width=".621"/>
    <path d="M518 147s-7-2-9 2c-3 3-2 5-1 5" stroke="#2b2b2b" fill="none" stroke-width=".621"/>
    <path d="M519 147l-1 2-2-2 2-1 1 1z"/>
    <path d="M499 165s3 4 6 5-2 2-5 0c-3-3-2-6-2-6l1 1zM523 190s-8-11-10-11c-2-1 2-2 4 1 2 2-1-4-1-4l7 14z" stroke="#2b2b2b" fill="#2b2b2b" stroke-width=".621"/>
    <path stroke-linejoin="round" d="M498 253c3 0 16 8 19 10s10 1 10 1l-5 2h5s-17 5-34-4c-1-7 4-9 5-9z" stroke="#2b2b2b" fill="#2b2b2b" stroke-width=".621"/>
    <path d="M518 193l-4-2-4-6c-2-1-10-6-13-5s-4-1-5-1-1 0-1 2c0 1-2 5-1 6l6 9v4l5 4 2 1-5 6-4 4c0 1 1 4 5 5 3 1 13 0 13-1l1-6-4-2-2 2h-2l4-4s5 0 6 3c1 2 1 4 4 4 2 0 6-3 6-8s-3-8-3-9l-4-2v-4z" stroke="#2b2b2b" fill="#2b2b2b" stroke-width=".621"/>
    <path d="M471 215l10-2c3 0 11 3 13 6 2 2 7 8 10 7l5-1-2 2-4 1-6-4c-2-2-10-9-17-9-7 1-10 7-10 7v-3l-1 1 2-5z" stroke="#2b2b2b" fill="#2b2b2b" stroke-width=".621"/>
    <path d="M502 221l5 1c4 0 6-2 6-2l-1-1 1-2 2 3-1 1v-1l-1 1s-5 4-8 3c-2 0-5-2-4-3h1zM490 228l-5 1-3 1-1-2 6-1 3 1zM500 236s0-4-2-6l-4-1 3 3 2 6c-1 1-1-3-4-4s-6 0-5 1 3 0 5 3l2 5 1-2h1v-4l1-1z" stroke="#2b2b2b" fill="#2b2b2b" stroke-width=".621"/>
    <path stroke-linejoin="round" d="M498 250l-3-5s-1-4-3-5-5-1-5 1 4 2 5 3v2l-4-1-4 2c-1-1-3-6-2-7h-2v-7l-4-2c0-1 1-22 18-4-7-9-10-8-12-8-1 0-8 0-9 9-2 9-4 3-4 3s-1 4 1 5-1 4-1 4-3-8-2-11c-1 3-1 10 3 17 5 5 10 10 22 15l6-11z" stroke="#2b2b2b" fill="#2b2b2b" stroke-width=".621"/>
    <path stroke-linejoin="round" d="M486 250s4 1 5 3l1 4 2-3 2-1s-3-5-5-5l-5 2s-1 1 0 0z" stroke="#2b2b2b" fill="#8a9396" stroke-width=".621"/>
    <g stroke-linecap="round" fill="none">
      <path d="M495 260s9 4 24 4" stroke="#8a9396" stroke-width=".621"/>
      <path d="M525 217s0 7-6 23" stroke="#2b2b2b" stroke-width=".621"/>
      <path d="M524 222s-2 5-7 9" stroke="#2b2b2b" stroke-linecap="butt" stroke-width=".621"/>
    </g>
  </g>
</svg>
