<svg xmlns="http://www.w3.org/2000/svg" version="1" width="600" height="300">
  <path d="M0 0h600v300H0z" fill="#cf142b"/>
  <path d="M310 215v-3l-5-6 6 1 3-6 3 7 5 3-4 3 1 7-4-4h-4l-1-2z" font-size="12" fill="#f9dd16" fill-rule="evenodd" stroke="#000" stroke-width="1.0493999999999999"/>
  <path d="M278 129c-4 2-19 19-21 22-1 4-5 8-8 12-4 2-6 6-5 10 0 4 2 7 4 11l5 2c3 0 3 2 5 2 7 10 17 16 25 22l9 6c2 4 1 8 1 10l-5 21c-1 6 4 4 4 3 2-3 5-1 10-17l7-9 2-1c4-5 1-7-1-8l-5-2-6-5a100 100 0 0 0-23-31l-6-2c-1-1 0-2 1-3l28-18 1-1-3-20-17-6-2 2z" font-size="12" fill="#fff" fill-rule="evenodd" stroke="#000" stroke-width="1.3992"/>
  <path d="M292 234l10-2-1 4-10 3 1-5z" font-size="12" fill="#f9dd16" fill-rule="evenodd"/>
  <path d="M265 196c2-5 8-9 11-10" font-size="12" fill="none" stroke="#000" stroke-width="1.0493999999999999"/>
  <path d="M291 234l5-1 2-1 3-1h2m-14 9l2-1 3-1 2-1h3l2-1" font-size="12" fill="none" stroke="#000" stroke-width="1.3992"/>
  <path d="M294 197h-1v1l-3 2h-3-1M293 227h1c-1 0 0 0 0 0h2l3 1h6-2 2M289 245l1-1 3-1 2-1 2-1h2M302 220v2l3 1 2 1h1M245 176h1l1-2M254 186l10-5 1-1 2-1 1-1 1-2v-2M280 180v2c0 1-1 4-3 4" font-size="12" fill="none" stroke="#000" stroke-width="1.0493999999999999"/>
  <path d="M265 180l3 1 9 5 2 1 1 2 1 2a57 57 0 0 1 7 12l1 2 1 1 2 2 1 1 9 5c1 1 3 3 1 4l-1 2-2 1-6 1h-1M248 163l1 1h2l3 2 2 1 2 1 3 1h4-2 2" font-size="12" fill="none" stroke="#000" stroke-width="1.0493999999999999"/>
  <path d="M248 173h10c3 0 3-1 4-2l2-3 3 2c4 3 1 8 1 8-2 2-3 2-4 1l-3-3h-6l-2 1-3 2c-2 0-2 0-3-2-2-2-1-4 1-4z" font-size="12" fill="#ffe606" fill-rule="evenodd" stroke="#000" stroke-width="1.0493999999999999"/>
  <path d="M361 85l-3 2-3 7-2-6-6 1 5-6-1-7 5 2 5-4-1 6 3 3-2 2z" font-size="12" fill="#f9dd16" fill-rule="evenodd" stroke="#000" stroke-width="1.0493999999999999"/>
  <path d="M302 155c3 2 25 7 29 7l14 2c5 2 9 2 12 0 4-3 5-6 7-10v-5l-1-6c5-10 6-22 7-32l1-11 8-6 21-5c5-2 2-6 1-5-4-1-4-5-21-1l-10-1-3-2c-5-1-6 3-6 5l1 5-2 8c-5 6-13 25-14 29l-1 6 1 6c0 2-2 2-3 1l-30-15-1-1-16 13 3 17 3 1z" font-size="12" fill="#fff" fill-rule="evenodd" stroke="#000" stroke-width="1.3992"/>
  <path d="M386 92l-6-8 4-1 7 7-5 2z" font-size="12" fill="#f9dd16" fill-rule="evenodd"/>
  <path d="M366 133c-5 1-11-2-14-4" font-size="12" fill="none" stroke="#000" stroke-width="1.0493999999999999"/>
  <path d="M387 92l-3-3-2-2-2-2-2-2m15 8l-1-1-3-2-2-2-2-2-1-1" font-size="12" fill="none" stroke="#000" stroke-width="1.3992"/>
  <path d="M354 108h1l3 2 1 2v1M380 93h-1l-1-2v-2l-1-2-1-2-1-2 1 2-1-2M398 89h-2l-2-2-2-2-2-2-1-1M369 90l2-2v-3l-1-2v-1M359 161h-1l-2-1M363 148s-7-6-9-6l-2-1-1-1h-4l-2 1M346 128l1-1h5" font-size="12" fill="none" stroke="#000" stroke-width="1.0493999999999999"/>
  <path d="M353 141l-1-3v-10-2l1-2 1-2a57 57 0 0 1 7-12l1-2 1-1v-2l1-2V92s1-3 3-3l2 1 2 1 4 5M346 164v-1-2l-1-2v-1l1-2v-3l-1-2-1-2-1-2 1 2-1-2" font-size="12" fill="none" stroke="#000" stroke-width="1.0493999999999999"/>
  <path d="M355 160l-3-5-2-5c-1-2-3-2-3-2h-4l-1-3c2-6 8-5 8-5 2 1 3 1 2 3l-1 3c0 3 3 6 3 6l2 1 3 2v4c-1 2-3 2-4 1z" font-size="12" fill="#f9dd16" fill-rule="evenodd" stroke="#000" stroke-width="1.0493999999999999"/>
  <path d="M239 225v-5l-5-6 7 1 2-7 4 8 7 3-5 4 1 8-5-4h-5l-1-2z" fill="#f9dd16" fill-rule="evenodd" stroke="#000" transform="matrix(-.38723 .74585 -.74585 -.38723 480 18)"/>
  <path d="M201 122l-25 26c-2 5-6 10-10 14s-7 8-6 12c0 6 3 9 5 13l6 3 6 3c8 11 21 19 29 25 6 3 10 6 11 8 3 5 2 10 2 12l-7 25c-1 6 5 5 5 3 3-3 7-1 13-20l7-11 3-1c5-6 1-9-1-10l-6-2-7-6c-3-9-18-29-22-31-3-3-2-4-5-5l-7-3c-2-1-1-3 0-4 12-6 22-14 33-21l2-1-4-24-19-7-3 2z" fill="#fff" fill-rule="evenodd" stroke="#000" stroke-width="2" transform="matrix(-.38723 .74585 -.74585 -.38723 480 18)"/>
  <path d="M212 85l-3 10-3-3 2-10 4 3z" fill="#f9dd16" fill-rule="evenodd"/>
  <path d="M186 202c2-6 9-11 13-13" fill="none" stroke="#000" transform="matrix(-.38723 .74585 -.74585 -.38723 480 18)"/>
  <path d="M217 247l5-1 3-1 3-1 3-1m-16 11l1-1 4-1 3-1 3-1 2-1" font-size="12" fill="none" stroke="#000" transform="matrix(-.38723 .74585 -.74585 -.38723 480 18)"/>
  <path d="M220 204h-1c1 0 1 0 0 0l-4 3h-3-1M219 239h1c-1 0 0 0 0 0h5l3 1h5-2 2M213 260l2-1 3-2h3l3-1 2-1M230 230v2l3 3h3l1 1M161 178h1c-1 0-1 0 0 0l2-2M173 191s10-5 11-7l2-1 1-1 2-2 1-2 1-2M203 183v3c0 1-1 4-3 5" fill="none" stroke="#000" transform="matrix(-.38723 .74585 -.74585 -.38723 480 18)"/>
  <path d="M185 183l4 2 10 5 3 2 1 2 2 2a68 68 0 0 1 8 14l1 2 1 2 2 2 2 1 11 6c0 1 3 4 1 6l-2 1-2 2h-7-1M166 163c-1 0 0 0 0 0l3 1 2 1 2 1 2 1 3 2h2l3 1h2-2 2M221 143h-1l-3 2-3 1-3 2-3 1-3 2-2 2-2 1-2 2-2 2-2 2-2 1-1 2-2 2-1 2-2 1-1 1" fill="none" stroke="#000" transform="matrix(-.38723 .74585 -.74585 -.38723 480 18)"/>
  <path d="M165 174l7 1h6c3 0 3-1 4-2l3-4c1-1 3 1 3 1 5 5 1 11 1 11-3 2-3 2-5 1l-3-3-7-1-3 1-4 2c-2 0-2 0-3-2-2-2-1-4 1-5z" fill="#f9dd16" fill-rule="evenodd" stroke="#000" transform="matrix(-.38723 .74585 -.74585 -.38723 480 18)"/>
  <path d="M279 125l18 6 15-11c0 1 0 3 2 4l-14 11c0 6-1 13 2 20h-4c-3-4-4-19-4-19l-16-7c1-1 2-2 1-4z" font-size="12" fill="#f9dd16" fill-rule="evenodd" stroke="#000" stroke-width="1.0493999999999999"/>
  <path d="M294 141l-3 2c-14 8-22 19-22 19l-1 2-2 2-1 2M304 132l4 3c13 9 26 10 27 11h4l3 1s-1 0 0 0" font-size="12" fill="none" stroke="#000" stroke-width="1.0493999999999999"/>
</svg>
