<svg xmlns="http://www.w3.org/2000/svg" xmlns:xlink="http://www.w3.org/1999/xlink" width="750" height="450" viewBox="0 0 250 150">
  <clipPath id="d">
    <circle r="25"/>
  </clipPath>
  <path fill="#e8112d" d="M0 0h250v150H0z"/>
  <g transform="translate(125 75)">
    <g id="c" transform="scale(.25)">
      <g id="b">
        <path id="a" d="M-8 108c8 22-10 56 8 72-6-24 14-50 8-72s-25-22-16 0z" fill="#ffef00"/>
        <use xlink:href="#a" transform="rotate(90)"/>
        <use xlink:href="#a" transform="rotate(180)"/>
        <use xlink:href="#a" transform="rotate(270)"/>
      </g>
      <use xlink:href="#b" transform="rotate(18)"/>
      <use xlink:href="#b" transform="rotate(36)"/>
      <use xlink:href="#b" transform="rotate(54)"/>
      <use xlink:href="#b" transform="rotate(72)"/>
    </g>
    <use xlink:href="#c" transform="rotate(9)"/>
    <circle r="27" fill="#e8112d"/>
    <circle cy="-2" r="23" fill="#ffef00"/>
    <g id="e" fill="#e8112d" clip-path="url(#d)">
      <path d="M-23 18a38 38 0 1 1 75 0h1a36 36 0 1 0-73 0z"/>
      <path d="M-18 18a35 35 0 1 1 71 0 34 34 0 1 0-67 0z"/>
      <path d="M21-15a33 33 0 1 0 0 66l2-1a32 32 0 1 1 0-64z"/>
    </g>
    <use xlink:href="#e" transform="scale(-1 1)"/>
  </g>
</svg>
