<svg xmlns="http://www.w3.org/2000/svg" xmlns:xlink="http://www.w3.org/1999/xlink" width="600" height="300" viewBox="0 0 2000 1000">
  <path fill="#00afca" d="M0 0h2000v1000H0z"/>
  <g fill="#fec50c" transform="translate(1080 420)">
    <circle r="135"/>
    <g id="c">
      <g id="b">
        <path id="a" d="M0-153c8 0 11-5 11-11 0-8-11-46-11-46s-11 38-11 46c0 6 3 11 11 11z"/>
        <use xlink:href="#a" transform="rotate(90)"/>
        <use xlink:href="#a" transform="rotate(180)"/>
        <use xlink:href="#a" transform="rotate(270)"/>
      </g>
      <use xlink:href="#b" transform="rotate(23)"/>
      <use xlink:href="#b" transform="rotate(45)"/>
      <use xlink:href="#b" transform="rotate(68)"/>
    </g>
    <use xlink:href="#c" transform="rotate(11)"/>
  </g>
  <g fill="#fec50c">
    <path d="M1056 711l-10 2-14 3-2 1h-3v5l-1 2-2 2h-6l-2-1h-6l-3-1-2-1c-4 2-7 4-9 7-2 2-2 4-2 6l1 6c1 1 1-2 2-2l7-4c2-1 2 1 1 2 0 1-2 4 0 3 7-3 14-4 22-5l31-1 30 1h15l3-1-7-2h-19c-5 0-11 0-16-2-1-1-2-2-3-1l-6 2-11-2 8-9-6-2 10-8z"/>
    <path d="M1212 746c-7 4-13-3-19-6-4 3-4 11-8 14-5 6-11-1-11-7-6 5-8 16-18 15-4-4-7-11-11-3-3 4-10 10-14 4-1-6-4-12-7-3-2 6-9 11-15 8-4-3 3-14-2-13-7 4-11 16-20 15-4-4 2-11-2-16-5 6-10 15-18 16-4-3 0-13-3-14-8 5-17 14-28 11 4-16 22-21 36-23 25-3 52 3 76-6 4-2 13-6 10-11s8-3 9-8c-1-6 5-5 10-6 24-1 49 4 73 5 2 12-11 20-22 16-5 1-13-11-11-2-1 5 0 11-5 14m-207-24c5 5 9-1 15-3 17-7 33-17 48-28 9-7 17-17 30-20 24-7 49-6 74-13 18-25 50-34 76-49 6-2 8-6 10-12 10-16 24-30 40-39 7-4 16-7 25-5-1 10-6 20-14 27 6-1 11-4 17-4 2 11-9 16-15 23 3 1 16 1 9 5-9 6-19 10-28 18 8 1 9 3 1 5-4 3-12 4-13 10 6 3-3 7-6 8-6 2-13 4-4 9-4 5-10 6-16 5 2 6 4 12-3 14-15 12-34 20-53 22 24 2 50-2 71-16 2-3 17-6 9-9-4-2-12-3-13-6 11-7 26-5 38-9 0-4-9-3-13-4-8-1-8-3 0-3 11-3 23-4 31-11-7-3-16 0-23-3 12-5 28-6 39-14 6-6-6-4-10-4-7 1-10-2-2-5 14-11 31-17 41-32 2-3 5-13-2-10-10 3-18 14-29 11 21-17 42-36 57-59 1-7-10-8-13-3-14 14-26 30-44 38 17-16 31-36 44-56 2-6 9-14 6-20-7-5-14-1-18 6-11 14-19 30-33 42 12-24 25-48 25-75 0-6-1-14-8-13-6 1-5 10-7 15-6 18-8 38-19 54 2-15 7-31 3-46-1-6-12-3-11 3a238 238 0 0 1-201 186c-8 2-17 1-25 3-18 15-30 39-53 46-11 6-25 7-32 17l-1 4"/>
    <path d="M1076 655c-4 6-6 14-10 19-14-12-33-12-51-12-14-1-29-3-40-13-12-9-21-21-34-29-12-3-24-7-33-15-20-17-32-41-52-58-3-4-8-7-12-10-4 1-2 10-7 5-3-2-10-2-10 1 6 8 12 17 13 27-4 1-12-1-14 1 6 8 13 15 21 21-4 1-12 0-13 2 8 6 16 13 27 15 2 2-3 8 1 10 2 1 11 3 5 6-4 2-2 9 3 9 3 1 10 2 11 4-3 3-12 7-4 9 7 4 15 7 23 7-4 4-9 5-14 9a318 318 0 0 0 85 31c-25-1-48-8-71-18l-34-14c5-3 11-4 16-6-11-2-23-3-33-9 2-3 7-3 10-4 6-2 10-3 2-4-9-2-18-1-26-6 1-3 8-2 12-4 3 0 8-1 11-3-13-6-30-2-40-14-2-4 7 0 10-1 7 0 14 2 21-1-19-8-39-16-54-31-1-3-6-9-2-10 11 1 19 14 31 12 2-3-7-6-9-9-17-15-34-31-47-51-1-7 10-8 13-3 13 13 25 28 42 37 6 3-4-3-5-6-15-17-30-36-41-57-2-4-5-11 1-13 6-3 11 1 14 6 12 14 20 31 34 43-12-23-25-48-25-75 0-5 1-13 8-13 6-1 5 7 7 11 5 19 8 41 20 58-3-14-7-30-4-44 0-5 6-7 9-4l7 24a237 237 0 0 0 216 169l12 1"/>
    <circle cx="1020" cy="721" r="2"/>
    <circle cx="1020" cy="721" r="1"/>
  </g>
  <g fill="#fec50c">
    <g id="f">
      <g id="e">
        <path d="M120 73s-10-8-13-4c-5 6 16 39 16 50 0 19-12 24-28 27-10 2-27-1-27-1 3-4 5-5 11-6-6-3-12-10-12-20 0-16 6-23 6-41 0-10-8-23-8-23 15 1 22 15 18 26 2 0 4 0 6-2 1 3-1 6-3 9h6c0 3-2 7-6 10 13-4 21 5 21 15 0 7-5 12-10 12l-6-1c-1 2 0 4 1 6-4-1-6-3-4-7-3 0-5-1-7-3 2-2 4-3 7-3-2-4 0-7 3-9 0 0-2 9 3 9 3 0 5-1 5-5 0-3-3-7-9-7-6 1-11 5-11 15 0 9 7 13 17 14 9 0 15-5 15-14 0-12-17-40-17-50 0-9 7-13 14-13 10 0 17 9 17 9l-5 7z"/>
        <path id="d" d="M122 292c0 20-18 31-32 31-20 0-30-12-30-27 0-8 2-14 6-22l44-92 2-12c0-8-8-15-17-15-7 0-16 7-16 16 0 10 6 14 11 14 7 0 9-3 9-7 0-3-1-5-3-5-6 0-5 8-5 8-2-1-5-4-3-7l-6-4 6-3c-2-4 0-6 4-7l-1 5c6-2 16 1 16 11 0 11-8 19-21 17 3 2 5 5 5 8l-5-1c2 3 4 5 4 11-3-1-5-3-8-2 5 10-2 23-17 27 6-7 8-14 8-22 0-23-6-27-6-43 0-7 3-15 10-20v1c-4-2-7-4-9-7 11-3 26-3 34 0 9 1 16 9 18 12 2 4 6 17 0 29l-45 95c-2 5-3 9-3 14 0 12 11 16 17 16 8 0 15-6 15-13 0-4-2-7-6-7-8 0-8 7-6 12-5-3-8-7-7-11-3-1-6-2-9-5 2-3 5-5 9-5-2-7 3-10 7-11-1 5-2 11 6 11 7 0 12 1 15 5v-27c1-8-11-8-18-6 3-9 8-14 21-13-3-1-6-4-6-9 0-8 6-16 10-19l2 79z"/>
        <use xlink:href="#d" transform="matrix(1 0 0 -1 0 645)"/>
      </g>
      <use xlink:href="#e" transform="matrix(-1 0 0 1 240 0)"/>
    </g>
    <use xlink:href="#f" transform="matrix(1 0 0 -1 0 1000)"/>
  </g>
</svg>
