<svg xmlns="http://www.w3.org/2000/svg" xmlns:xlink="http://www.w3.org/1999/xlink" width="2800" height="1400">
  <path fill="#cc0001" d="M0 0h2800v1400H0z"/>
  <path id="a" fill="#fff" d="M0 1300h2800v100H0z"/>
  <use transform="translate(0 -200)" xlink:href="#a"/>
  <use transform="translate(0 -400)" xlink:href="#a"/>
  <use transform="translate(0 -600)" xlink:href="#a"/>
  <use transform="translate(0 -800)" xlink:href="#a"/>
  <use transform="translate(0 -1000)" xlink:href="#a"/>
  <use transform="translate(0 -1200)" xlink:href="#a"/>
  <path fill="#010066" d="M0 0h1400v800H0z"/>
  <path d="M576 100a301 301 0 1 0 163 552 267 267 0 0 1-354-251 267 267 0 0 1 359-250c-48-32-106-51-168-51z" fill="#fc0"/>
  <path d="M1075 556l-127-66 38 135-85-113-26 138-26-138-86 113 38-135-127 66 95-106-144 5 132-55-132-56 144 6-94-106 127 66-38-135 85 113 26-138 26 138 86-113-38 135 127-66-95 106 144-5-132 55 132 56-144-6z" fill="#fc0"/>
</svg>
