<svg xmlns="http://www.w3.org/2000/svg" width="1000" height="500">
  <path fill="#006" d="M0 0h1000v500H0z"/>
  <path d="M0 250L1000 0v500z" fill="#bd1021"/>
  <path d="M107 250l893-223v446" fill="#fff"/>
  <g stroke="#000" stroke-width="2">
    <path d="M832 306s-6-5 1-13c-4-4 0-10 0-10s-7-3 0-13c-5-4-3-11-3-11s-16-7-1-13c-13 6-25-7-25-7h-19c-3-15-28-2-9-47-5-1-11-2-16 2s-21 12-30 4c-9-9 6-21 6-21 1-1 21-11 23-18 0-5-6-9 0-20 6-10 46-20 64-24 9-4 13-11 13-11l2 7s40-12 42-17c2-6 1 5 1 5 16-2 36-15 39-9 13-3 39-14 39-14s9 0 2 9c4 7-1 12-1 12s2 6-3 10c1 5-4 9-4 9s3 7-6 10c1 6-5 7-5 7s0 6-4 8c0 5-4 7-4 7s3 2-1 5l-45 28 32 6 24 16-23 29s-25-3-26-2c-1 2 5 2 7 5 1 2 3 7 8 7 4-1-9 8-17 9 0 3 11 3 13 1l-8 8 13-2s-2 10-14 13c5 8 3 13 2 13 0 0-8-8-15-7 2 8 8 15 10 16 1 1-14 1-16-3-2-5-3 10 2 14-6 1-12-3-12-3s-3 8-1 13l-9-9-21 9-5-8z" fill="#9c3900" stroke-linejoin="round"/>
    <path d="M665 289c1 0 32 0 46-8 7 11 17 18 17 18l4-16s11 1 12 3l-2 7 8 2c1 1-2 9-2 9l33 8s2-13 5-11c2 1 13 17 29 18s17-13 17-13l3 2 8-14c1 0 2 2 11 2 2 3 3 10 3 10s-9 9-6 17l3 6 70 16s4 6-2 9l-71-16s-6 7-11 6c-5-2-2 3-2 3l76 6s6 7 2 9l-82-5s-5 9-10 1c-4 6-8-1-8-1s-6 5-7-1c-6 4-9-2-9-2l-33-2-2 3s6 1-3 5c-8 3 52 2 53 2 2 1-4 5-4 5s31 3 37-4c5-7-2 9-2 9l24-2c0-1 0 7-17 6 10 7 23 11 23 11s-13 3-28-1c3 7 14 13 14 13s-8 7-26-10c5 9 1 12 0 11 0-1-9-13-29-18 12 8 7 12 7 12s-7-12-17 0c-4-11-20-17-39-18-6-7-10-5-24-9-8-9-20-19-20-19s1-14 15-12l1 3s15-6 20 2c6-12 15-2 17 2l26 1-1-4c2 1 14-4 13-6 0-1-1-6 1-6 2 1-17-2-27 6-4-4-1-13-1-13l-32-7-1 8s-9 2-9 0l-2 7-12-4 3-18c0 1-10 1-24 12-4-13-36-29-36-30zm40-41s-21 18 0 29l2-9s18 7 29-9c-5-6-13-4-13-4s-17 0-18-7z" fill="#ffc221"/>
    <path d="M722 256l-14 12" fill="none"/>
    <g fill="#fff">
      <path d="M705 248l4-6c1-4-1-7 2-11 4-3 49-22 52-25l12-14c1-1 3 9-5 13 9-2 14-5 17-3-3 4-12 12-16 12 10-3 19-6 21-4 3 2-12 11-18 12 10-2 23-6 25-2-5 1-4 3-15 9l-8 2c8-1 20-5 21 2-7 2-9 6-15 7l-27 7c-8 3-19 12-19 12l-25 1-6-12z" stroke-linejoin="round"/>
      <path d="M922 231l49 9s5-6 3-10c7-1 5-11 5-11s9-4 1-12c5-5-1-9-1-9s2-8-4-9c2-7-11-9-11-9s-26 7-44 7c6 6-2 10-2 10s5 3 3 6c-1 3 1 6-5 8 8 4-1 10-1 10s9 6 7 10z"/>
    </g>
    <g fill="none">
      <path d="M742 294l-6 29m12-18l-2 9m35-2l-3 10m59 52l-19 2c-2-1 25 8 25 11m-35-9s-15-11-18-9c-2 1 16-1 17-3m-31 0l-18-1c-2-1 16 11 19 10m-32-16l-16-5c4 4 7 9 17 11m3-13c-1-1-20-7-20-10 4 2 11 4 17 2m107-15l-2 9m-83 6s3 3 0 8m71-5l-6 1m-40-4l10 2m17-28s1 10-8 10h-6"/>
      <path d="M827 317s3 1 2 3c0 3 1 10-9 17-10 3-9-9-9-9"/>
      <path d="M831 320s6-4 7 2-5 17-10 19c-4 1-9-1-8-3m18-16s6-4 8 2c1 6-5 19-7 19m7-19s3-2 5 0m-14 20c-1 0-6 1-8-3m-17-7h-6m27 23v-10l-2-3-4 4s-1 9-3 10m3-10l-3-6-5 6s-1 8-3 9m3-10l-2-5s-6 3-7 5c0 2 0 9-2 9m2-10s1-5-1-5c-1 0-9 7-9 13m-83-108s1-6 3-8c3-2 16-7 18-11 3-4-4 8-3 11m-12-1s6 3 4 7"/>
      <path d="M730 241a5 5 0 1 1-9 0 5 5 0 1 1 9 0z" stroke-width="1"/>
      <path d="M917 220l46 5 11 5m-55-12l61 1m-60-3s57-3 61-9m-60-3l59-6m-61-1s56-9 57-8m-216-29s18 20 16 33"/>
      <path d="M775 183s5 8 8 9c2 1 22 2 23 10 1 6-4 4-3 8 1 5 14 11 29 4m-14 4s12 17 30-2m-9 8s14 8 26-12m-15 14s7 6 22-2m20-8s22 4 23 6m-15-11l16 1m-25-10s26-1 30 4m-41-12s36 2 38 4m-30 34l7-1m-21 16s8 7 18 4m-14 8s10 4 21 2m-18 5s10 6 16 5m-20-1s7 5 7 7m-16-2s2 11 9 14m-14-9s-3 13 5 22m-13-12v7m-51-58l15-1s6-2 2-6m2 3s14 2 18 6 8 13 11 14c2 1 3-1 3-1m-6-2s-8 13-2 17m-2-2s-7 9-2 13m-1-1s-6 9 1 15m-4-38s-6 5-8 3m2 11l4 2m-4 11l4 3m-3 7l3 2m-68-141s8 4 14 0l42-21c7-2 12-16 13-22"/>
      <path d="M832 127l42-12s7-6 7-16m-3 11s42-4 42-20m-6 11s43-12 48-16m-171 79l31-16c4-1 14-13-1-13"/>
      <path d="M804 169s22-14 29-16c4-5 2-11-5-10"/>
      <path d="M835 150c0-1 11-1 8 8l-31 16m17-34l47-15s4-8-2-9"/>
      <path d="M913 101c0 1 6 4 2 9-6 4-38 12-38 12m83-25l-44 12m41-2l-39 11m35-2l-33 10m27 0l-25 7m20 0l-16 6m12 2l-14 6m10 1l-12 6m-9 7s2 1 1 3m-31 14s5 1 0 6c-2 3-9 3-13 9m46-82s6 1 1 9l-38 13-4 4-40 12m83-29s7 3 0 8c-8 5-35 13-35 13l-2 3-37 13m76-29s7 2 0 8c-7 5-31 13-31 13s-2 3-6 4l-29 11m67-28c2 1 8 2 1 7l-27 12-2 3-32 13m62-27s3 4-3 8l-23 10"/>
      <path d="M920 153s3 2-1 5l-24 12-12 8"/>
      <path d="M877 125s5 5 3 9c4 4 3 7 3 7s7 4 6 9c6 1 6 5 6 5l-2 3s6 0 1 8c3 2 1 4 1 4m-1-4c-1 0-22 8-28 13"/>
      <path d="M843 157s6 0 6 7c7-3 5 4 5 4s9-3 7 7c5-1 5 4 5 4s4 0 4 3c4-3 7-2 7-2s3-3 6-2m-34-15l-28 16m33-11l-21 13m28-6l-18 11m23-7s-14 11-17 10m21-7l-14 9m22-11s2 3-13 11"/>
    </g>
  </g>
</svg>
