<svg xmlns="http://www.w3.org/2000/svg" xmlns:xlink="http://www.w3.org/1999/xlink" width="1440" height="720">
  <path fill="#f7e017" d="M0 0h1440v720H0z"/>
  <path d="M0 50v320l1440 150V350z" fill="#fff"/>
  <path d="M0 220v150l1440 300V520z"/>
  <g fill="#cf1126">
    <path d="M696 570a117 117 0 0 1-55-20v4c0 6-3 9-9 11-7 1-16-2-24-8-7-7-17-12-24-14a40 40 0 0 0-28 4l-3 1v-9c2-3 5-5 10-7l4-2-2-4c-3-5-2-10 3-14s14-4 22-1l4 1-2-6c-4-4-4-7-4-12 1-8 6-13 14-14 5 0 9 2 18 10 25 24 53 38 86 41 8 1 24 1 34-1 29-4 59-19 82-40 6-6 9-8 15-8 4 0 7 1 11 5 3 3 4 6 3 11 0 4 0 5-2 8-3 5-3 5 3 3 7-3 17-1 22 3 4 5 5 9 1 14l-2 5 5 1c6 1 10 6 10 13l-1 3-5-2c-7-2-11-3-19-3-6 0-8 0-13 2-6 2-13 6-19 11-6 6-11 8-17 8-5-1-9-2-11-6-2-1-2-2-1-6l-1-5-5 3c-6 5-10 7-18 10-23 9-57 13-82 10z"/>
    <path d="M706 525c-38-4-75-24-98-55-24-34-32-78-24-118 4-18 12-36 25-49-11 23-14 49-8 74 9 50 51 92 101 99 20 6 40 0 59-6 42-15 74-55 78-99 4-24 0-50-11-71 6 3 14 16 19 24 16 31 16 69 7 102a138 138 0 0 1-148 99z"/>
    <g id="a">
      <path d="M512 470c-3 0-5 2-4 5 1 2 5 4 7 5 7 2 15 4 22 3h2c6 0 11-1 17-3 3-1 7-2 8-5 1-2-1-4-3-4l-9 3c-7 2-14 3-21 2l-14-4-5-2z"/>
      <path d="M515 460c-3-1-5 2-4 4 2 3 5 5 8 6l17 3h2c5 0 10-1 14-3 3-1 7-2 8-5 1-2 0-4-2-4l-6 1c-6 3-13 4-20 4l-13-4-4-2z"/>
      <path d="M518 450c-2-1-3 2-3 4l3 4c5 4 12 5 19 5h1c4 0 9-1 12-3 3-1 6-2 7-5l-1-4c-2-1-3 1-5 1a27 27 0 0 1-29 0l-4-2z"/>
      <path d="M482 303c-4 3-1 9-1 13 1 13 3 27 8 39 6 12 19 19 27 29 3 6 2 12 2 17v46c7 4 15 7 23 6 4-1 13-2 14-6l-1-80c-2-8-11-12-17-17l-14-17c-3-4-13-6-9 2 2 7 7 12 9 19 0 4 5 11 1 13-3-4-6-8-11-10-4-3-12-5-13-11-1-8-6-15-11-22 1-7 0-16-7-21z"/>
      <path d="M491 304c-3 1-2 4-1 6 1 5 2 9 1 14 5 6 9 13 11 21 0 4 3 5 5 6l15 9c0 1 1 2 1 0-1-2-1-5-3-7-3-3-7-6-11-6 0-5-2-8-4-12-2-3-4-7-7-9 0-7 0-13-3-19-1-1-2-3-4-3z"/>
      <path d="M500 307c-2 0-2 3-1 4l1 14c4 3 6 7 8 11l3 9 8 5-4-8-4-8c-3-4-4-8-4-12 0-5-1-10-4-14l-3-1z"/>
      <path d="M509 308l-2 2 1 3c1 3 2 7 1 10l2 7 4-2 1-1c-1-5-1-10-3-14-1-2-1-4-3-5h-1z"/>
    </g>
    <use xlink:href="#a" transform="matrix(-1 0 0 1 1440 0)"/>
    <path d="M716 476c-14-1-26-11-30-24 0-2 3 1 4 1 3 2 5 3 8 3l9 7c2 1 7 4 6 0-1-2-2-5-1-7l8-11c2-1 4 3 5 4 2 4 5 8 4 12-2 1-2 6 1 4 4-1 7-4 10-7l10-4 5-2c-2 5-4 9-7 12-5 6-12 10-19 11l-13 1z"/>
    <path d="M732 460l-2-8-8-12c-3-1-5 4-6 5-3 5-7 9-7 15-2 2-5-3-6-4-2-3-4-8-4-12 0-7 1-14 4-21 2-5 5-11 4-17 1-4 0-9-4-12-3-3 2-4 4-2 3 0 5 5 8 4 1-3 1-6 4-8 2-4 5 1 5 3 2 2 0 7 3 7 3-2 5-6 9-7 2-1 5 0 3 2-3 3-6 6-6 10-1 6 0 11 2 16 5 9 8 20 6 30-1 5-4 9-8 12l-1-1z"/>
    <path d="M727 390c-2-3-3-6-6-7-2 0-4 3-5 4-2 2-3 6-6 3-4-3-5-8-5-13 0-7 3-15 6-21v-14c-2-5-6-9-9-13h6l8 6c2-1 1-4 2-6 0-2 3-6 4-2 2 2 0 6 3 8 2-1 3-4 6-5 2-2 5-2 7-1 1 3-2 5-3 6-4 5-6 12-4 19l5 14c1 6 1 12-1 17-1 4-4 6-7 7l-1-2z"/>
    <path d="M712 327c-4-3-5-5-5-10l2-5c2-4 2-5-1-4-5 2-8 0-8-4 0-2 0-3 3-7l3-4c-1-1-3 1-9 7l-12 11c-9 7-19 8-23 2-2-2-2-4 0-5l5-4 16-12c3-1 4-3 2-3-3 0-13 7-20 13-2 2-5 5-7 5-3 2-10 2-13 1-3 0-7-4-7-6l2-1 5-4c6-5 17-10 25-12 3 0 2-2-1-2-6 1-18 6-25 12-8 7-21 6-25-1l-1-3 6-2c3 0 9-3 15-6 9-4 11-5 18-6 2-1 3-2 0-2-4-1-9 1-19 6-12 6-15 7-22 6-6 0-9-1-14-6l-7-11h4l12 1c9 0 11 0 15-2 8-2 17-7 24-12 13-9 24-13 37-13 12 0 20 2 27 10l5 3 1-9 4 1 1 8 2-2c1-3 5-6 9-8 10-5 25-5 38 0 5 1 11 5 17 9 5 4 17 10 23 12a64 64 0 0 0 31 0c2 0-2 8-6 12-9 8-19 8-35 0-9-5-21-8-21-5l2 1 18 6c10 5 15 7 19 7 2 0 2 1 0 4-2 4-6 6-12 6-5 0-8-2-13-6-8-6-27-13-27-10 0 1 1 2 3 2 7 1 15 5 24 11l5 4c2 1 2 1 1 3-2 3-5 5-10 5-5 1-9-1-14-5-10-8-19-14-22-14s-2 1 3 3l15 11 6 5c1 1 1 2-1 5-2 2-5 3-9 3-9-1-16-5-26-16l-9-8c-1 0 0 2 3 5 3 4 4 6 2 9-1 3-3 3-7 2-3-1-4 0-2 3 4 5 4 11-1 15l-3 2-3-2c-3-5-5-4-8 0l-2 3-3-2z"/>
    <path d="M727 233l-5 4-5-3v27h10z"/>
    <path d="M695 204c-1 13-4 23-9 33l11-11 8 9 8-9 9 8 8-8 8 10 8-8 12 9c-4-10-10-19-10-33-12 9-41 10-53 0z"/>
    <path d="M717 198l-13 1c-3 0-6 1-8 3 0 8 41 12 52 0-3-2-5-3-9-3l-12-1v7h-10v-7z"/>
    <path d="M725 154h-6v49h6z"/>
    <path d="M725 155l-3 24 25 12-13-17 17-5zM722 149c-4 0-6 1-6 3s2 3 6 3 7-1 7-3-3-3-7-3z"/>
  </g>
  <g fill="#f7e017">
    <path d="M711 564c4-1 6-4 8-9l1-5h-4l-1 4c1 6-1 7-12 8h-6c-5-1-7 0-5 1l3 2 16-1zM733 563l5-2 5-4c3-4 2-8-2-14-3-2-4-2-6 1s-2 3 1 3l3 3c3 5 2 7-2 7-4 1-5 1-6 3l-1 3h3zM726 558l1-12-1-10-4 3 1 3 1 10c-1 9 0 11 2 6z"/>
    <path d="M709 553l1-7 1-7c1-3 0-4-3-2l-2 1 1 5-2 16 2-1 2-5zM694 556c4-3 3-8 4-13 0-3 2-6 1-8-4 0-6 3-4 7 0 3 0 8-2 11-2 2-7 1-6-2 1-4-5-2-7-1s-5 1-4-1c-1-4-6-2-8-2-3 0-1-5-4-4-7-1-15 0-20-4-4-2-3-6-2-9 3-3 3-8 7-11 3-3-4-2-5-1-3 2 0 7-3 9-2 3-4 7-7 6-5-1-9-6-12-9-3-1-2 5 0 7l11 5c4-1 4 4 8 5 6 3 13 4 19 4 3 1 2 5 5 4 2 1 6 0 7 2-3 3 2 3 5 3 2-1 6-2 7 2 2 2 6 2 9 1l1-1z"/>
    <path d="M634 526l4-7 3-5c2-2 1-3-2-2-2 0-2 0-3 2 0 4-2 8-3 10l-2 4 3-2zM597 502c-3 0-3 2-1 3 2 0 3 1 4 3 2 5 4 6 11 7h5v3l1 3 4-2c3-1 6-5 6-8 0-1-3-3-5-3l-5 2c-5 4-10 3-13-2-3-4-5-6-7-6zm24 10c1 0 2 1 1 3h-3c0-2 1-3 2-3zM811 506c-2 0-3 0-4 2-2 3-2 9 0 11h4c3-1 3-1 3 1 0 4-6 13-13 17l-3 3c-1 2 2 1 5 0 4-2 9-8 11-12l3-11-1-9c-1-2-2-2-4-2h-1zm0 4c1 0 2 0 2 2l-1 3h-3c-1-3 0-5 2-5zM781 552c6-3 9-6 11-11l2-4-4-2c-2 0-3-2-2-5s0-7-1-7l-2 2-1 4c1 3 1 5-2 7l-2 3v1l3-1 3-2 2 2 2 2c0 4-11 10-18 10-3 1-4 1-5-1-1-1-2-2-1-3l1-4c0-3-1-2-3 1s-3 6-2 8c1 1 7 3 11 2 2 0 5 0 8-2zM820 530c3-3 5-8 5-15v-5l3-1c4-2 8-6 8-8s-1-2-3 0c-1 2-3 3-9 6-1 1-2 1-2 7 0 8-1 11-6 16-2 3-2 3 0 3l4-3zM780 526l-3-1v2l3-1zM835 512c0-1-2-2-3-1v1h3zM768 473l-3 4 1 1 4 10c1 4 3 8 2 12-1 2-2 4-4 3l-9-1c-3 0-5 3-8 3-1 0-1-4-3-3v6h7l1 6 6-1c2-1 2-3 3-5s3-1 5-2c3-1 6-5 5-9 0-5-2-11-4-16l-2-7-1-1zm-9 33c2 0 3 2 3 4-1 2-4 1-4-1-1-1-1-3 1-3z"/>
    <path d="M684 487l-3 1c-5 4-7 8-3 10 3 1 2 3-2 5-6 3-11 3-21-2-3-1-4 0-3 2s3 3 8 5c5 1 11 0 16-1l6-5 3-4 4 1c5 0 5 0 5 2s0 2 4 3h7l4 1c1 1 1 2 8 1h11l6 1c5 0 12-5 13-8l5-1c5-1 5-2 0-3l-7-1-5-2c-3 0-5 2-5 4h3c3 0 4 0 6 2l1 2-9 4-5-1h-6l-2-1-2-1-3 1c-4 2-5 1-5 0l-6-1c-6 1-7 1-8-1v-2-3h-4c-6 2-7 1-7-3 0-3-2-5-4-5zm-1 4v1l1 2h-3v-2l1-1z"/>
    <path d="M672 496c4-3 4-2 4-9l-1-4c-2 0-2 1-2 5l-2 5c-3 3-10 1-11-2-1-2 0-3 1-5 4-4 3-6-1-2-3 2-3 2-3 0 1-2 0-2-2-2-2 1-2 1-2 3l-2 2c-2 0-5-1-5-3l10-12 4-5-2-1c-3 0-3 1-3 2l-7 8c-7 8-8 10-4 12 3 2 7 2 10 0l2-2v3c0 4 1 6 4 7 4 2 8 2 12 0zM829 444c-3 1-1 5-1 7-1 3-5 4-8 5-4 0-7 4-8 8-1 2-3 6-6 2-2-2-5-4-7-1l-3 6-4-5c-4 1-2 5-1 7 2 2 3 5 2 8s-6 5-9 2c-2-1 0-6-3-6-1 1-1 6-3 3-2-2-1-5-2-7-2 0-4 3-3 5l4 13c1 1 0 5 2 6l1-9h8c4 0 7-4 9-7l-1-8 10 1c1 2-1 6-1 8-2 5-6 9-10 12-1 1-1 4 1 2 5-2 9-7 11-12 2-4 1-8 2-12 1-3 5-2 8-2s5-4 4-6c-1-4 3-5 5-6 3-2 5-5 5-9 0-2 0-5-2-5zm-11 18c3 1-1 8-3 4 0-2 1-4 3-4zm-16 5c4 0 3 6-1 3-2-1-1-3 1-3zM645 491l-1-1c-1 0-2 1-1 2s2 1 2-1zM696 486l-1-1c-2 0-2 2 0 2l1-1zM633 455c-2 0-3 2-4 3-1 3-3 5-6 7l-6-1c-2-1-1-4-2-6-2-1-4 1-4 3s2 3 4 4c1 1 4 2 4 4 0 1 1 3 3 3s3 2 2 4-2 4-1 6c1 1 2-1 3-2l1-2h12c3 0 5-1 7-3l8-9c2 0 1-4-1-3l-4 5-8 7h-7l3-2 3-4c-1-2-3-2-4-2-4 1-7 4-11 4-2 0-1-3 0-4l8-9c1 0 4-1 2-2l-2-1zm2 15c2 1-1 3-3 3v-2l3-1zm-6 4c1 0 3 1 1 2-1 1-3-1-1-2zM674 477c0-2-2-1-3 0l2 1 1-1z"/>
    <path d="M786 467c0-2-1-2-2-1s0 2 1 2l1-1zM612 453c2-1 2-2 1-5-1-4-1-5 1-5 2-1 8 2 9 4s1 3-1 4c-2 2-2 4 0 4s6-4 6-6-5-6-8-8l-7-1c-5 0-6 1-4 6 1 6-1 7-6 2-4-3-5-7-5-13s2-9 7-9c4-1 4-2 0-2-5-1-10 2-11 9-2 7 2 15 10 20 4 2 5 2 8 0zM821 445v-2l2-3 2-3h-7l2-1c2-2 3-3 0-4-2-1-5 1-5 5 0 2 0 3 2 4s2 1 2 3c-1 2 0 3 2 1zM840 443l3-3 3-3c4-3 5-6 3-11l-8-9-8-7c-2 0-1 6 0 6l8 6c5 4 7 8 6 10s-3 1-7-3l-5-4-1 2 3 5c4 4 4 6 2 8l-3 2-1-3-12-12-1 2c0 2 0 2 2 3s6 5 10 11l3 3 3-3zM849 418l-14-14v3c0 2 0 2 2 3l7 5 5 5v-2zM778 557a2 2 0 1 1-4 0 2 2 0 1 1 4 0zM784 555a2 2 0 1 1-4 0 2 2 0 1 1 4 0z"/>
  </g>
</svg>
