<svg xmlns="http://www.w3.org/2000/svg" xmlns:xlink="http://www.w3.org/1999/xlink" width="1200" height="600">
  <path fill="#006b3f" d="M0 0h1200v600H0z"/>
  <path fill="#fcd116" d="M525 0h75v600h-75z"/>
  <path fill="#fcd116" d="M0 225h1200v75H0z"/>
  <path fill="#fff" d="M600 0h75v600h-75z"/>
  <path fill="#fff" d="M0 300h1200v75H0z"/>
  <path d="M575 0h50v600h-50z"/>
  <path d="M0 275h1200v50H0z"/>
  <g fill="#006b3f" transform="translate(600 300)">
    <circle r="150" fill="#d41c30"/>
    <g id="b">
      <path id="a" stroke="#000" d="M-5-118l5-14 4 13 15 1-12 8 6 15-13-9-12 9 4-15-11-8h14z"/>
      <use xlink:href="#a" transform="rotate(180)"/>
    </g>
    <use xlink:href="#b" transform="rotate(36)"/>
    <use xlink:href="#b" transform="rotate(72)"/>
    <use xlink:href="#b" transform="rotate(108)"/>
    <use xlink:href="#b" transform="rotate(144)"/>
    <g stroke="#000" stroke-width="3">
      <ellipse cx="680" cy="586" rx="31" ry="190" transform="matrix(.28955 -.03018 .01659 .23226 -186 -76)"/>
      <ellipse cx="680" cy="586" rx="31" ry="190" transform="matrix(.30626 -.03184 .01669 .23225 -189 -75)"/>
      <ellipse cx="680" cy="586" rx="31" ry="190" transform="matrix(.245 -.0259 .0179 .25675 -152 -91)"/>
      <path fill="#9c4a00" stroke-width="1" d="M-44 63c7-1 4-5 8-7s9-1 11 2 0 5 2 5c3 0 60-2 62 0 3 3 3 7 1 9s-76 2-78 1c-3-2-6-10-6-10z"/>
      <path fill="#fcd116" stroke-width="1" d="M-3 68c-1 6 8 4 8 9s-14 0-14-9S5 54 5 59s-8 3-8 9z"/>
      <path fill="#fcd116" stroke-width="1" d="M2 68c0 6 8 4 8 9s-14 1-14-9c0-9 14-14 14-8 0 4-8 2-8 8z"/>
      <path fill="#fcd116" stroke-width="1" d="M7 68c0 6 8 4 9 9-1 5-15 0-15-9 1-9 14-14 15-9 0 5-9 3-9 9z"/>
      <path fill="#fcd116" stroke-width="1" d="M12 68c0 6 9 4 9 9-1 5-15 0-15-9 1-9 15-14 15-9s-9 3-9 9z"/>
      <ellipse fill="#9c4a00" cx="478" cy="-41" rx="4" ry="3" transform="matrix(1.37992 .02078 -.03062 1.45444 -625 117)" stroke="none"/>
      <ellipse cx="427" cy="905" rx="21" ry="24" transform="matrix(.20742 -.0313 .04226 .39514 -120 -293)"/>
      <ellipse cx="427" cy="905" rx="21" ry="24" transform="matrix(.20742 -.0313 .04226 .39514 -127 -294)"/>
      <ellipse cx="427" cy="905" rx="21" ry="24" transform="matrix(.20742 -.0313 .04226 .39514 -133 -303)"/>
      <ellipse cx="427" cy="905" rx="21" ry="24" transform="matrix(.19943 -.03154 .04632 .43593 -125 -341)"/>
      <ellipse cx="427" cy="905" rx="21" ry="24" transform="matrix(.1995 -.03084 .04356 .40874 -113 -316)"/>
      <ellipse cx="427" cy="905" rx="21" ry="24" transform="matrix(.1995 -.03084 .04356 .40874 -118 -320)"/>
      <ellipse cx="427" cy="905" rx="21" ry="24" transform="matrix(.1995 -.03084 .04356 .40874 -125 -325)"/>
      <ellipse cx="427" cy="905" rx="21" ry="24" transform="matrix(.1995 -.03084 .04356 .40874 -132 -328)"/>
      <path fill="#9461c9" stroke-width="1" d="M-15-53S-29-40-28-6c2 35 33 51 33 51s7-9 7-37C9-33-5-51-5-51l-10-2z"/>
      <ellipse cx="427" cy="905" rx="21" ry="24" transform="matrix(.20968 .00618 -.02884 .39634 -45 -309)"/>
      <ellipse cx="427" cy="905" rx="21" ry="24" transform="matrix(.20968 .00618 -.02884 .39634 -52 -311)"/>
      <ellipse cx="427" cy="905" rx="21" ry="24" transform="matrix(.20968 .00618 -.02884 .39634 -56 -321)"/>
      <ellipse cx="427" cy="905" rx="21" ry="24" transform="matrix(.20186 .00451 -.03211 .4372 -42 -357)"/>
      <ellipse cx="427" cy="905" rx="21" ry="24" transform="matrix(.2018 .00521 -.02998 .40996 -34 -331)"/>
      <ellipse cx="427" cy="905" rx="21" ry="24" transform="matrix(.2018 .00521 -.02998 .40996 -39 -335)"/>
      <ellipse cx="427" cy="905" rx="21" ry="24" transform="matrix(.2018 .00521 -.02998 .40996 -45 -341)"/>
      <ellipse cx="427" cy="905" rx="21" ry="24" transform="matrix(.2018 .00521 -.02998 .40996 -51 -345)"/>
      <ellipse fill="#d41c30" stroke-width="1" cx="624" cy="606" rx="58" ry="186" transform="matrix(.19787 -.07643 .08023 .1871 -156 -59)"/>
      <ellipse stroke-width="1" cx="218" cy="357" rx="11" ry="13" transform="matrix(.49828 .00887 -.00657 .36896 -100 -163)"/>
      <ellipse stroke-width="2" cx="218" cy="357" rx="11" ry="13" transform="matrix(.44637 .00795 -.00657 .36896 -84 -169)"/>
      <ellipse stroke-width="2" cx="218" cy="357" rx="11" ry="13" transform="matrix(.44637 .00795 -.00657 .36896 -91 -169)"/>
      <ellipse stroke-width="2" cx="218" cy="357" rx="11" ry="13" transform="matrix(.46714 .00832 -.00617 .34637 -94 -166)"/>
      <ellipse stroke-width="2" cx="218" cy="357" rx="11" ry="13" transform="matrix(.46714 .00832 -.00617 .34637 -94 -172)"/>
      <ellipse stroke-width="2" cx="218" cy="357" rx="11" ry="13" transform="matrix(.44637 .00795 -.00657 .36896 -97 -173)"/>
      <ellipse stroke-width="2" cx="218" cy="357" rx="11" ry="13" transform="matrix(.44637 .00795 -.00644 .36143 -95 -177)"/>
      <ellipse stroke-width="1" cx="218" cy="357" rx="11" ry="13" transform="matrix(.49828 .00887 -.00657 .36896 -115 -179)"/>
      <ellipse stroke-width="2" cx="218" cy="357" rx="11" ry="13" transform="matrix(.46714 .00832 -.00617 .34637 -98 -179)"/>
      <ellipse stroke-width="2" cx="218" cy="357" rx="11" ry="13" transform="matrix(.44637 .00795 -.00644 .36143 -100 -184)"/>
      <ellipse stroke-width="2" cx="218" cy="357" rx="11" ry="13" transform="matrix(.44637 .00795 -.00657 .36896 -110 -179)"/>
      <ellipse stroke-width="2" cx="218" cy="357" rx="11" ry="13" transform="matrix(.44637 .00795 -.00644 .36143 -109 -180)"/>
      <ellipse stroke-width="2" cx="218" cy="357" rx="11" ry="13" transform="matrix(.44637 .00795 -.00644 .36143 -107 -184)"/>
      <ellipse cx="529" cy="564" rx="67" ry="206" transform="matrix(.21932 -.07743 .08683 .20202 -145 -73)"/>
      <ellipse cx="529" cy="646" rx="13" ry="41" transform="matrix(.20574 -.09785 .09471 .21196 -137 -77)"/>
      <path stroke-width="1" d="M31 8c13 15 12 25 10 34-4-10-6-16-19-32-13-15-6-26-5-32 2 5 2 14 14 30z"/>
      <path stroke-width="1" d="M33 20c12 16 11 26 9 34-4-9-6-15-19-31C11 7 17-4 18-9c2 5 2 14 15 29z"/>
      <path stroke-width="1" d="M33 31c13 15 12 25 11 33-5-9-7-15-20-31-13-15-7-26-6-32 2 5 2 14 15 30z"/>
      <ellipse stroke-width="1" cx="529" cy="646" rx="13" ry="41" transform="matrix(.40784 -.1038 .16694 .37767 -300 -196)"/>
      <ellipse stroke-width="2" cx="529" cy="646" rx="13" ry="41" transform="matrix(.3669 -.0631 .12978 .31265 -259 -167)"/>
      <ellipse stroke-width="2" cx="529" cy="646" rx="13" ry="41" transform="matrix(.36815 -.05532 .12326 .31531 -262 -167)"/>
      <ellipse stroke-width="2" cx="529" cy="646" rx="13" ry="41" transform="matrix(.29658 -.05431 .11151 .23308 -211 -136)"/>
      <ellipse stroke-width="2" cx="529" cy="646" rx="13" ry="41" transform="matrix(.29952 -.038 .0968 .23873 -208 -144)"/>
      <path stroke-width="1" d="M9-16c3 9 5 18 3 19S6-3 2-12"/>
      <ellipse stroke-width="2" cx="529" cy="646" rx="13" ry="41" transform="matrix(.29952 -.038 .0968 .23873 -209 -155)"/>
      <ellipse stroke-width="2" cx="529" cy="646" rx="13" ry="41" transform="matrix(.30032 -.0321 .09144 .24056 -212 -156)"/>
      <path stroke-width="1" d="M2-28c4 6 6 12 4 13-1 1-5-4-8-10"/>
      <path stroke-width="1" d="M5-32c3 6 5 12 4 13-1 0-5-4-9-10M16-32c5 9 8 17 6 18s-7-4-12-13"/>
      <path stroke-width="1" d="M8-36c4 7 6 13 5 14s-5-3-9-10"/>
      <path fill="#9461c9" stroke-width="1" d="M8-46c-2 2 0 7 2 9 3 2 17 17 27 4-8 0-23-19-29-13z"/>
      <path fill="#9461c9" stroke-width="1" d="M6-53c-2 2 0 7 3 8 2 3 16 18 26 5-8 0-23-19-29-13z"/>
      <path fill="#9461c9" stroke-width="1" d="M4-61c-2 3 0 8 2 9 3 3 17 18 27 5-8 0-23-19-29-14z"/>
      <path fill="#9461c9" stroke-width="1" d="M-1-69c-2 3 0 7 2 9 3 2 17 17 27 5-8 0-23-19-29-14z"/>
      <path fill="#9461c9" stroke-width="1" d="M-18-76c5-4 14-5 21-2 6 3 17 15 24 18-5 1-8 0-12-1-7 5-9 5-16 6-9 2-17-1-20-6-3-4-2-12 3-15z"/>
      <ellipse fill="#d41c30" cx="287" cy="323" rx="14" ry="15" transform="matrix(.3091 .0055 -.00301 .16933 -95 -125)"/>
      <ellipse fill="#fcd116" cx="205" cy="348" rx="23" ry="16" transform="matrix(.2458 -.09144 .08132 .21925 -99 -116)"/>
      <ellipse fill="#000" cx="284" cy="334" rx="6" ry="6" transform="matrix(.2699 .0048 -.00416 .23342 -83 -148)" stroke="none"/>
      <path fill="#fcd116" stroke-width="1" d="M-17-66c0 2-1 5-4 6-4 1-6 4-7 9-5-11-2-16 3-17s7-1 8 2z"/>
      <ellipse fill="#000" cx="199" cy="362" rx="5" ry="5" transform="matrix(.23597 -.01236 .01334 .24161 -74 -150)" stroke="none"/>
    </g>
  </g>
</svg>
