<svg version="1" xmlns="http://www.w3.org/2000/svg" xmlns:xlink="http://www.w3.org/1999/xlink" width="600" height="360" viewBox="0 0 500 300">
  <defs>
    <g id="c">
      <g id="b">
        <path id="a" d="M0-1v1h1" transform="rotate(18 0 -1)" fill="#fcd116"/>
        <use xlink:href="#a" transform="scale(-1 1)"/>
      </g>
      <use xlink:href="#b" transform="rotate(72)"/>
      <use xlink:href="#b" transform="rotate(144)"/>
      <use xlink:href="#b" transform="rotate(216)"/>
      <use xlink:href="#b" transform="rotate(288)"/>
    </g>
  </defs>
  <path fill="#ce1126" d="M0 0h500v300H0z"/>
  <path fill="#007a5e" d="M42 42h416v216H42z"/>
  <path d="M42 42h416L42 258h416z" fill="#fcd116"/>
  <circle cx="250" cy="150" r="36" fill="#ce1126"/>
  <use xlink:href="#c" transform="matrix(33 0 0 33 250 150)"/>
  <use xlink:href="#d" x="-100"/>
  <use id="d" xlink:href="#c" transform="matrix(19.5 0 0 19.5 250 21)"/>
  <use xlink:href="#d" x="100"/>
  <use xlink:href="#d" x="-100" y="258"/>
  <use xlink:href="#d" y="258"/>
  <use xlink:href="#d" x="100" y="258"/>
  <path d="M68 150c4 9 13 18 21 21 0-8-3-19-7-28l-14 7z" fill="#ce1126"/>
  <path d="M60 122c7 13-17 46 22 53-5-6-8-17-6-26 8 3 16 12 20 19 10-37-26-35-36-46z" fill="#fcd116"/>
</svg>
