<svg xmlns="http://www.w3.org/2000/svg" xmlns:xlink="http://www.w3.org/1999/xlink" width="500" height="300">
  <path fill="#d21034" d="M0 0h500v300H0z"/>
  <path fill="#00209f" d="M0 0h500v150H0z"/>
  <g fill="#f1b517" stroke="#000" stroke-width="0">
    <path fill="#fff" stroke="none" d="M203 112h95v75h-95z"/>
    <path fill="#016a16" d="M269 167h-19l-19 1-14 4-7 3-4 1-3 1v11h94v-10l-3-2-5-1-6-3-14-5z" stroke="none"/>
    <g id="a">
      <path d="M245 144l1-1 2 11v4l-3-14z"/>
      <path fill="#fff" d="M243 136l1 9h1l-2-9z"/>
      <path d="M246 155l-5-12h2l5 14-2-2z"/>
      <path fill="#fff" d="M239 136l2 8h2l-4-8z"/>
      <path d="M242 151l-3-6h1l5 9-3-3z"/>
      <path fill="#fff" d="M236 139l3 7h1l-4-7z"/>
      <g>
        <path fill="#0a328c" d="M242 151l-11-12c-4 3-3 8-3 8l13 10 1-6z"/>
        <path fill="#d20014" d="M249 158l-9-8c-3 0 0 5 0 6l9 8v-6z"/>
        <path d="M248 157l-17-19h-1l18 21v-2zM230 137l-1-1v-1l-3-2 1 4h3z"/>
        <path d="M228 138l2-2 1 1-2 2-1-1z"/>
        <path fill="#0a328c" stroke="#0a328c" d="M226 141v1l4-3h3l1-1c-2-2-4 0-4 0l-4 3z"/>
        <path fill="#d20014" stroke="#d20014" d="M228 143l2-3c1 0 3 1 4-2h-4l-1 1-3 3 2 1z"/>
      </g>
      <g>
        <path fill="#0a328c" d="M237 155l-14-12c-3 3-1 10-1 10l15 8v-6z"/>
        <path fill="#d20014" d="M249 164l-12-10c-4 1-1 7 0 8l12 6v-4z"/>
        <path d="M249 162l-26-19 26 21v-2zM222 142l-1-1-4-2 3 3h1v1l1-1z"/>
        <path d="M220 143l3-2 1 1-2 2-2-1z"/>
        <path fill="#0a328c" stroke="#0a328c" d="M219 147v1l4-4 2-1h1c-2-2-4 0-4 0l-3 4z"/>
        <path fill="#d20014" stroke="#d20014" d="M221 149l1-4c2 0 3 1 4-3-1 2-4 1-4 1v1l-3 4 2 1z"/>
      </g>
      <g>
        <path fill="#0a328c" d="M236 162l-18-11c-2 2 0 6 0 6l1 6c0 2 1 4 3 5 1 6 8 7 10 1l4-7z"/>
        <path fill="#d20014" d="M248 169l-12-8c-4 1 0 8 0 9l12 4v-5z"/>
        <path d="M246 166l-28-15h-1l30 17-1-2zM217 150h-1v-1l-4-1 2 3 2-1v1l1-1z"/>
        <path d="M215 152l2-3 1 1-1 2h-2z"/>
        <path fill="#0a328c" stroke="#0a328c" d="M214 155l1 1 3-4 2-1 1-1c-2-2-4 1-4 1l-3 4z"/>
        <path fill="#d20014" stroke="#d20014" d="M217 157v-5c2 1 3 1 4-2l-4 1v1l-2 4 2 1z"/>
      </g>
    </g>
    <use xlink:href="#a" transform="matrix(-1 0 0 1 500 0)"/>
    <path fill="#016a16" d="M249 126l-1 9h3v-9l3-1-1-3h-7v3l3 1z" stroke="none"/>
    <g id="b" fill="#016a16">
      <path d="M250 122c-8-8-14-4-16-3h3l-1 1 3-1-1 1 2-1-1 1h1c1 0 0 0 0 0 2 0 5 2 5 3"/>
      <path d="M248 123c-1-2-16-5-19 1l3-1v1l1-2v2l1-1v1l2-2v1l2-1-1 1"/>
      <path d="M247 124c-4-3-9-1-9-1-4 2-6 2-7 5l2-1v2l1-3v2l1-3v2l2-2 1 1v-2l1 1h1l1-1 1 1v-1h5"/>
      <path d="M246 124c-2 0-10 3-12 6l1-1 1 1v-1 1h2v-1 1l1-1v1l1-2v1l1-1v1-2l1 1 1-1v1l4-3"/>
      <path d="M247 125c-4 1-7 6-7 8 2-2 2-2 2 0l1-2v2l1-2v-1h1v-1-2 1l1-1 2-1"/>
      <path d="M247 125l-1 3h1l-2 1h1s-2 1-2 2h2l-2 2 1-1-1 3 1-1 1 5v-3l2 2-1-3 2 2-1-3 1 1-2-3 2 1-1-3 1 2v-3l1 1-2-2h1v-1h1v-1M249 126c-3 3-1 7-3 10"/>
    </g>
    <use xlink:href="#b" transform="matrix(-1 0 0 1 500 0)"/>
    <g stroke="none">
      <path d="M251 167l1-15-1-11h-3l-1 11 2 15h2z"/>
      <path d="M248 142h4l-1-3h-3v3z"/>
      <path d="M248 140h3v-3h-2l-1 3z"/>
      <path d="M248 138h3v-3h-2l-1 3z"/>
      <path d="M251 135h-2l-1 1h3v-1zM251 164h-2M251 162h-3M252 160h-4M252 158h-4M252 156h-4M252 154h-4M252 152h-5M252 150h-5M252 148h-5M252 146h-4M251 144h-3"/>
    </g>
    <g stroke="none">
      <path fill="#0a328c" d="M250 119l-2-2 1-1v-2l4 1-1 3v1h-2z"/>
      <path d="M250 125l-1-1 1-7h1l-1 8z"/>
      <path fill="#d20014" d="M252 119v-2l-3-1-1 1 2 1 2 1z"/>
    </g>
    <g>
      <use xlink:href="#c" transform="matrix(1 0 0 -1 0 320)"/>
      <path fill="#016a16" d="M238 162l-1 2-2-2v-2h3v2z" stroke="none"/>
      <ellipse fill="#fff" cx="237" cy="160" rx="2" ry="1" stroke="none"/>
      <path fill="#016a16" d="M236 161v-3h1v3h-1z" stroke="none"/>
      <path id="c" fill="#016a16" stroke="#fff" stroke-linecap="round" d="M239 160l-2 1-2-1h-1c0 1 1 2 3 2s2-1 2-2z"/>
      <g id="d">
        <path d="M246 173l-7-2-3-6h-11v4l10 2 1 1 10 3v-2z"/>
        <path fill="#503200" d="M239 174l-11-16h-1l11 17 1-1z"/>
        <path fill="#fff" d="M229 159l-2-2-1-1v1l1 2h2z"/>
        <path d="M240 164l-23-2v3l22 2 1-3z"/>
        <path d="M217 161v5l1-5h-1zM221 162v4l1-4h-1zM236 163v4h1v-4h-1zM239 164v4h1v-2l1 1 1-1-1-1h-1l1-1h-2zM231 164l-3 4h1l4-2-2-2zM224 173l3-3v-1l-4 3 1 1zM232 172l-4-3 3 4 1-1zM223 165l4 3-3-4-1 1zM227 163v5h1l1-5h-2zM228 174v-4h-1v4h1zM233 168l-4 1 4 1v-2zM222 170l5-1-5-1v2z"/>
        <ellipse cx="228" cy="169" rx="1" ry="1"/>
        <path fill-rule="evenodd" stroke-linecap="round" d="M234 169c0 3-3 6-6 6-4 0-7-3-7-6 0-4 3-7 7-7 3 0 6 3 6 7zm-1 0c0 2-2 5-5 5s-6-3-6-5c0-3 3-6 6-6s5 3 5 6z"/>
        <path d="M223 165l-1-1M231 164h1M233 173l-1-1M223 174l1-1"/>
        <g>
          <path d="M246 162l1 6-1 1-1-7h1z"/>
          <path fill="#fff" d="M246 161c-1 0-2 1-3-1-2 2 0 2 0 4 1 0 1-2 3-2h2l-1-1h-1z"/>
          <path fill="#fff" d="M246 163v-2h-1v2h1z"/>
        </g>
        <path fill-rule="evenodd" d="M241 167v2l-1 1v5l-1 1 1 1h1l1-1-1-1v-1h1l1-1v-3l-1-1v-2h-1zm1 3v-1l-1 1v1l1 2v-3z"/>
        <g fill="#fff">
          <path d="M234 172v1l1 1v1h-2c0 2 3 2 4 1 1 0 1-3-2-3l-1-1zM235 173"/>
        </g>
        <g>
          <path d="M215 173l-1-4M216 173l-1-3M219 172l-4-2M220 172l-6-3"/>
          <path fill="#d20014" stroke="#d20014" d="M210 166h-2v1l-5 1 4-1-1-2 2-1 2 2z"/>
          <path fill="#503200" d="M213 168l-5-4 5 5v-1z"/>
          <path d="M218 172l-4-3v-1h-1l-1 1h1l4 3h1z"/>
        </g>
        <g>
          <ellipse cx="233" cy="177" rx="1" ry="1"/>
          <ellipse cx="231" cy="176" rx="1" ry="1"/>
          <ellipse cx="228" cy="177" rx="1" ry="1"/>
          <ellipse cx="224" cy="177" rx="1" ry="1"/>
          <ellipse cx="222" cy="178" rx="1" ry="1"/>
          <ellipse cx="221" cy="178" rx="1" ry="1"/>
          <ellipse cx="219" cy="178" rx="1" ry="1"/>
          <ellipse cx="220" cy="176" rx="1" ry="1"/>
          <ellipse cx="222" cy="176" rx="1" ry="1"/>
          <ellipse cx="223" cy="176" rx="1" ry="1"/>
          <ellipse cx="222" cy="175" rx="1" ry="1"/>
          <ellipse cx="221" cy="175" rx="1" ry="1"/>
        </g>
        <path fill-rule="evenodd" d="M236 178v-1l1 1h7c0-1 0-1 0 0h3l1 1h-1-1-2l-2-1h-2-3-1zm2 0h-1 1c1 0 0 0 0 0zm2 0h-1 1zm4 0h-1 1zm-2 0h-1 1zm4 0h-1 1zm-2 0zm3 0v1l-1-1h1c1 0 0 0 0 0z"/>
      </g>
      <use xlink:href="#d" transform="matrix(-1 0 0 1 500 0)"/>
      <g stroke="none">
        <path fill="#0a328c" d="M250 166c-3 0-5 1-5 2l5 1h4v-1l-4-2z"/>
        <path d="M254 168v7l-4 2c-3 0-5-1-5-2v-7l5 1 4-1z"/>
        <path fill="#d20014" d="M245 168v1l3 7 1-5 2 5 2-5 1 3v-1l-1-4h-1l-1 4-1-4h-1l-1 4-2-4-1-1z"/>
        <path fill="#0a328c" d="M254 174v1l-4 2c-3 0-5-1-5-2v-1l5 1 4-1z"/>
        <path d="M252 175h-1v2l1-1v-1zM247 175v1h1v-1h-1zM245 174v1l1 1v-2h-1zM254 174v1-1z"/>
        <path fill="none" d="M254 168v7l-4 2c-3 0-5-1-5-2v-7"/>
        <path fill="#fff" d="M253 168h-7l4-1 3 1z"/>
        <path d="M249 168v1h1v-1h-1zM253 168h-1v1h1v-1zM247 166v1-1zM250 166h-1l1 1 1-1h-1zM253 166l-1 1h1v-1zM246 169v-1l-1-1v1l1 1zM254 169v-2 2z"/>
      </g>
      <g stroke="none">
        <path d="M264 160l2 2c0 2-2 2-2 2h-2v-1l1-3h1zM262 163h3"/>
        <path fill="#d20014" d="M264 161v-2h-1l-2 1 1 1 1-1 1 1z"/>
      </g>
      <path fill-rule="evenodd" d="M214 175v1l-8 3 1-2 1 1c0-2 2-3 2-3l-4 2h1l-2 3 4 1-1 1 4-2-3-1v1l-2-1 7-2 1 1v-1h1l1-1h-2l-1-1zm2 1v1l-1-1h1z" stroke="none"/>
      <g stroke="none">
        <path d="M293 178v-2h-1c1-1-1-4-1-4l4 4h-1l1 3-1 1h-1v-1l-8-3-1-1h2l7 3z"/>
        <path d="M286 177l1-2h-1l-1 1c-1 1 0 1 1 1z"/>
      </g>
    </g>
    <g stroke="none">
      <g fill="#fff">
        <path d="M231 180v-1h-2v2l2-1z"/>
        <path d="M215 183l-3-2c12 1 15-3 18-3 2 0 2 2-2 1l1 2s-8 5-17 3l3-1zM268 180v-1h3v2l-3-1z"/>
        <path d="M285 182l3-1c-14 0-11-2-18-3-2 0-3 2 1 1l-1 2h3c4 3 11 4 15 3l-3-2z"/>
        <path d="M228 179v3s8 3 22 3 21-3 21-3v-3s-5 3-21 3-22-3-22-3z"/>
      </g>
      <path fill="#000" d="M230 182v-2h1l-1 2h1-1zm2-1v-1 1zm3 0v2h-1-1v-1l1-1v2h1v-2zm0 2l1-2 1 2 1-2-1 3-1-2v1h-1zm3 1v-3h1l-1 3zm1-1v-1h2v2a1 1 0 0 1-2 0v-1zm0 0v1h2v-1-1h-1l-1 1zm3 1v-2l1 2v-2h1v2h-1l-1-2v2zm3 0v-2h2-1v1h1-2v1zm2 1l1-3 1 3v-1h-1l-1 1zm1-1h1l-1-1v-1 2zm2 1v-3 3zm1 0v-3h-1 2-1v3zm3 0l-1-3h1v2h1l-1 1zm1-1l1-2 2 2h-3zm1-1h1-1v-1 1zm3 1v-2h1-1v1h1-1v1zm2-1v-1l1-1 1 1v2h-1-1v-1zm0 0l1 1 1-1v-1h-2v1zm3 1l-1-3h2v2h1-1l-1-1v2zm0-2h1v-1h-1v1zm4 0v1h-1-1c-1 0 0 0 0 0a2 2 0 0 1 0-2h1c0-1 0-1 0 0h1-2v1l1 1v-1h1zm1 1l-1-3h2-2v1h2-1v1h1l-1 1z"/>
    </g>
  </g>
</svg>
