<svg xmlns="http://www.w3.org/2000/svg" xmlns:xlink="http://www.w3.org/1999/xlink" width="1800" height="900">
  <path fill="#cc092f" d="M0 0h1800v900H0z"/>
  <path fill="#ffd200" d="M0 0h1200v900H0z"/>
  <path fill="#0046ae" d="M0 0h600v900H0z"/>
  <path d="M848 183l-8 2c3 1 5 4 5 6v8h-8c-3 0-5-2-6-5l-2 8 2 8c1-3 3-5 6-5h8v36c0 3-2 5-5 6 4 0 7 5 8 8 1-3 4-8 7-8-2-1-4-3-4-6v-36h7c3 0 6 2 6 5 2-2 3-5 3-8s-1-6-3-8c0 3-3 5-6 5h-7v-8c0-2 2-5 4-6l-7-2z"/>
  <path fill="#f5d402" d="M848 185h-5l3 6v9h-9l-6-2a14 14 0 0 0 0 8l6-2h9v37l-3 6 3 2 2 3 1-3 3-2-3-6v-37h9l6 2a14 14 0 0 0 0-8l-6 2h-9v-9c0-2 1-4 3-5l-4-1"/>
  <path d="M941 314c-5-3-9-7-11-11-7-10-9-23-9-36 0-5 6-11 6-15l-1-11c2 0 6 4 6 4s0-11-4-13l7-1c-2-4-9-8-9-8l2-2 6-2-7-2-19-8c-11-5-20-6-25-6-4 0-9 0-12 3-3 1-3 4-4 5-2 2-6 2-8 2-12 0-13 13-13 13s3-5 9-5c9 0 16 5 16 7l-1 1c-6 0-15-3-20-4v3c11 4 22 9 22 33 0 15-2 30-9 42l-11 11 44 8z"/>
  <g id="a">
    <path d="M896 304l-44 10-18-7c-12-7-18-13-32-14v-11l2-16c-6-1-22-21-37-30-22 14-40 38-40 49v313l-2 11c8-3 23-23 26-31v4c12-6 21-21 25-28v4c11-10 25-66 25-66l23 22s-8 17-12 20l5 1-17 25c-3 6-6 3-11 3-4 0-14 7-16 10l-3 9c0 4 4 8 4 8l1-2 10 13c1 1 6 2 7 0l12-11 4-9 25-33v3c4-7 22-22 22-22l19 9s-35 80-66 92a477 477 0 0 0 37 18l7-8 19-29c1 4-4 17-13 32l-6 9 7 4c16 10 32 21 37 31l4-10-4-10V317l2-5z"/>
    <g fill="#b07f55">
      <path d="M896 667c-6-6-18-14-31-21 16-29 24-75 21-85 0 0-7 24-15 38-8 13-17 27-26 38l-21-8c27-21 55-90 55-90l-29-13-14 15-3-9s-4 4-6 4l-1-7c-3 2-8 1-8 1 5-2 9-14 9-14l-27-36s-9 46-20 55V337l8 8 13-12v-10l-11 11v-28l4-6c1 3 7 13 15 19 1-4 9-9 9-9s2 8 7 9l10-8s-8 1-11 4c-2-1-3-11-3-11s-11 5-13 9c-2 0-6-9-7-12l8-1c4 0 8 2 12 4l14 7c6 3 14 3 17 3l-10 6s14 0 23-5l10-7c-1 4-3 8-7 12 14-2 21-10 23-12l5 9h5v340zM794 267l1 7v18c-6-1-12-10-15-14v-3c0-2 2-4 3-5l-3-1-3 6v2l-9 9-9-13v-3c0-3 2-5 3-7l-3-1-3 7v3l-10 10-5-11c6-8 16-18 26-25 0 0 20 19 27 21zM742 285v16l-7 6v-22l2-8z"/>
      <path d="M764 291v10l-8 8v-30zM753 309l-8-8v-11l8-9zM791 297c-2 3-7 9-12 12v-26c1 2 7 11 12 14zM776 284v25l-9-8v-9zM742 310v24l-7-6v-11zM753 318v9l-8 7v-24zM764 310v24l-8-8v-8zM776 318v8l-9 8v-24zM787 334l-8-7v-9l8-8zM766 345l9-8v198l1 17-19 18V337zM752 563c0 6-11 21-17 25V337l9 8 8-8z"/>
    </g>
    <g fill="#d10429">
      <path d="M825 541l6-4 1 5-26 35-4 10s-3-2-3-4l1-5s-2 2-6 2c0-3 6-6 6-10-4 3-8 1-13 3l-9 4-1-3c1-2 7-7 12-8 1 0 10 2 12 0a263452 263452 0 0 1 22-32s0 5 2 7z"/>
      <path d="M784 576v2l-3 2h-2l1-1 2-3h2zM788 579v4l-7 6c-1 1-2 0-3-1v-3l7-6h3zM792 584v3l-7 6h-3v-3l7-6 1-1 2 1zM794 588l2 1v3l-7 6h-3v-4l7-6h1z"/>
    </g>
  </g>
  <use xlink:href="#a" transform="matrix(-1 0 0 1 1792 0)"/>
  <path fill="#b07f55" d="M886 207c11 0 19 5 30 10l8 3-3 3s5 1 7 5c0 0-4 1-5 4 2 0 5 3 5 6l-7-2 2 16c0 4-6 8-6 15 0 22 6 30 10 37 1 3 2 6 5 8-11-6-20-13-20-20v-27h-3v27c0 5 2 7 2 7 1 6 5 14 7 18-10-6-15-13-15-15v-37h-3v40l-4 4-4-4 1-3v-37h-3v37c0 2-5 9-16 15 3-4 6-12 8-18l1-7v-27h-3v27c0 7-8 14-19 20l5-8c4-7 9-17 9-43 0-10-1-17-4-22 0-1-1-5 5-5 3 0 10 5 10 5s-1-4-4-7c-1 0-2-1-2-3l3-3c1-1-12-3-12-9 0-1 1-2 3-2 4 0 10 4 15 4l9-1c5 0 15 9 18 9-4-2-10-11-19-11h-9l-12-3-6-1v-3c2-2 6-2 10-2h6z"/>
  <path fill="#cc092f" d="M849 221s2-5 8-5h11c1 3 7 8 7 13 0 0-6-10-20-10-4 0-6 2-6 2z"/>
  <path fill="#d10429" d="M872 231l-3 5-9-7s5 3 12 2z"/>
  <path d="M867 222s-3-1-3-2c0-2 2-2 3-1v3z"/>
  <ellipse cx="883" cy="222" rx="5" ry="4"/>
  <circle fill="#f5d402" cx="883" cy="222" r="4"/>
  <circle cx="883" cy="222" r="2"/>
  <g>
    <path d="M801 592l17 9-4 18-17-9z"/>
    <path d="M726 419l-6 2 66 145h7zm78 170l-5 5 3 7 6-3z"/>
    <path d="M746 533s6 11 10 13c-2-1-9 2-9 2s12 11 23 12c9 0 13-4 13-4l-1-10s-6-6-15-10c-9-3-21-3-21-3z"/>
    <path d="M788 512s-7 7-10 14c-2 8 2 16 2 16l6 12s9-4 13-11 2-17 2-17l-8 4c2-8-5-18-5-18zM764 509s-9 3-18 2c-8 0-14-7-14-7s6-4 10-4c-4-1-9-10-9-10s7-2 14 0c6 3 12 10 12 10l5 9zM767 466s4 9 3 13c1-3 6-6 6-6s4 15 1 24-12 12-12 12l-10-19s-2-7 1-13 11-11 11-11zM710 442s9-1 18 3c7 3 9 8 9 8l4 10s-10 4-18 1c-9-3-15-13-15-13s6-2 8-1c-3-2-6-8-6-8zM740 425s4 5 4 11c1-3 6-7 6-7s5 13 4 22-9 15-9 15l-9-18s-3-8-2-13c1-6 6-10 6-10zM707 390s-2 10 1 16l4 6c-5-3-12-4-12-4s3 11 9 16 16 4 16 4 7-9 6-18c0-9-8-19-8-19s-3 6-3 10c-2-4-13-11-13-11zM784 555v4c6 0 7-1 8 1 1 1 4 2 6 1 3-1 4-4 3-6s-4-3-6-3l-3 2-8 1z"/>
    <path d="M783 553l3 2c-3 5-4 5-3 7 0 2 0 4-2 6-2 1-5 1-7-1-1-3 0-5 1-6l3-2 5-6zM763 511l1 3 8 1c1 2 3 3 6 2 2-1 3-4 2-7-1-2-3-3-5-2l-4 2-8 1z"/>
    <path d="M765 512l2 2c-4 5-5 5-4 7 0 2-1 5-3 6-3 1-5 0-7-3-1-2 0-4 2-6l4-1 6-5zM744 469v3c6 0 7 0 8 2 1 1 4 2 6 1s3-4 2-7c-1-2-3-3-5-2l-3 2-8 1z"/>
    <path d="M745 468l3 2c-4 5-5 5-5 8 1 1 0 4-2 5-3 1-6 0-7-3-1-2 0-4 2-5l3-2c3-1 6-5 6-5zM723 425v3l8 1c1 2 4 3 6 2s3-4 2-7-3-3-5-2c-2 0-2 1-3 2l-8 1z"/>
    <path d="M724 424l3 2c-4 5-5 5-5 7 1 2 0 4-3 6-2 1-5 0-6-3-1-2 0-4 2-6l3-1c3-1 6-5 6-5z"/>
    <g fill="#f5d402">
      <path d="M804 597l10 5-3 12-10-6zM760 500c-2 1-6-8-8-13s-7-13-6-14c2-1 4 4 6 9 3 5 10 17 8 18zM738 452c-2 1-4-5-7-10-2-6-4-9-3-10 2 0 4 4 6 8s6 11 4 12zM788 561c-2 1-9-14-15-27-5-13-10-23-8-24 1-1 6 12 12 24l11 27z"/>
    </g>
    <g fill="#097754">
      <path d="M710 396s0 7 2 11c2 5 8 6 8 6s0-7-3-11c-2-4-7-6-7-6zM705 412s6 1 10 4c3 2 5 8 5 8s-4 1-8-2-7-10-7-10zM724 398s-2 5-1 10c0 5 3 11 3 11s3-6 2-12c0-5-3-8-4-9zM714 444s3 5 8 7c4 2 11 2 11 2s-3-4-8-7c-5-2-11-2-11-2zM715 454s3 5 7 7l12 1s-3-4-7-6-12-2-12-2zM739 431s-2 4-2 8c0 5 3 10 3 10s2-6 2-10c0-5-3-8-3-8zM748 437s-4 5-5 11c0 6 3 12 3 12s5-5 6-11c0-6-4-12-4-12zM737 491l2 4 5 5h6l9 4s-5-8-11-11c-5-3-11-2-11-2zM736 504s7-3 12-2c6 1 11 5 11 5s-7 3-13 2c-6 0-10-5-10-5zM765 473s-6 6-7 12c0 5 5 10 5 10l1-6 3-4v-5c0-4-2-7-2-7zM773 480s-5 6-7 12c-1 6 1 13 1 13s6-4 7-10c2-7-1-15-1-15zM788 517l3 10v6l-4 4c-2 2-2 6-2 6s-5-8-4-14 7-12 7-12zM799 530s-7 4-10 9c-2 4-1 9-1 9s5 0 8-5l3-13zM754 549s10-1 16 1c6 1 8 4 8 4s-7 4-13 2c-6-1-11-7-11-7zM752 537s5 7 10 9c8 4 18 2 18 2s-5-6-12-9c-7-2-16-2-16-2z"/>
    </g>
    <path d="M1089 402l1 3-3 2c-1 2 1 5 1 5s-11-1-13 0v15c-2 8-5 8-5 9l1 5-2 1-1 6-16 32-3 3v4s-3 0-4 2c-2 2-1 5-1 5l-3 2v4l-17 35c-2 3-8 4-11 11-3 6 1 11 1 11s-4 0-6 2c-1 3 0 7 3 9 4 1 8 0 9-3 1-2-1-6-1-6s6 1 9-6c4-6 1-11 3-14l17-35c1-1 3 0 4-2v-4l4-3c1-2-1-5-1-5l3-2 1-5 16-32 4-3v-3l4-2c2-1-1-3 5-9l12-9c0-2-7-11-7-11s3 0 4-2v-4h3v-14zm-98 196v3h-5v17l14-10c0-2-3-4-3-4l2-2c1-1 1-3-3-5l-3-1-2 2z"/>
    <g fill="#f5d402">
      <path d="M1091 403l7 3v-8zM1089 407c-1 2 0 4 2 5s4 1 5-1 0-4-2-5h-2l-3 1zM1077 414v11c0 5-2 7-2 8l-4 4 2 2 4-7c3-6 3-16 4-16l6-2-8-1-2 1z"/>
      <path d="M1078 442l3-8c4-6 11-11 11-12l-3-7-7 2c-1 1 0 9-4 16l-4 7z"/>
      <path d="M1094 422c0 1-9 7-11 13l-4 7 3 1 1-5c1-2 1-4 5-7s10-6 9-7l-6-8 3 6zM1070 459l7-12c0-1 0-3-2-4l-2-1-2 2-6 13-11 22s-1 2 1 3 3-1 3-1zM1050 484c-1 1 0 3 2 4s4 1 5-1l-3-4h-2l-2 1zM1046 490c-1 2 0 4 2 5 3 1 5 1 6-1 1-1 0-3-3-5h-2l-3 1zM1043 497c-1 1 0 3 2 4h5c1-2 0-3-2-4l-3-1-2 1zM1041 504l-17 33c-1 3-7 4-9 9-2 4-1 9 2 10 3 2 8 1 10-4 2-4 0-10 2-13l17-33s1-2-1-3l-2-1-2 2zM1010 561c-1 1 0 4 2 5 3 1 5 1 6-1s0-4-2-6h-3l-3 2zM993 598l-1 1c-1 1 0 2 2 3h4l-2-3-3-1zM987 603v12l10-7-4-4c-3-2-6-1-6-1z"/>
    </g>
  </g>
  <g>
    <path fill="#f5d402" d="M994 334c0-7 8-14 8-14H790s9 7 9 14v158c0 4 1 6 3 9l11 10c14 9 37 18 55 26 15 7 21 10 28 19 8-9 14-12 29-19 17-8 41-17 54-26 5-3 9-7 11-10s4-5 4-9z"/>
    <path fill="#d10429" d="M804 423v-89c0-5-3-9-3-9h190s-2 4-2 9v89l-93 28z"/>
    <path fill="#0b45bb" d="M989 423l-58-1h-70l-57 1v69c0 3 3 11 24 21 34 17 60 25 68 35 8-10 34-18 68-35 21-10 25-18 25-21z"/>
    <path d="M930 419s33-8 33-43c0-28-33-41-34-48-3 11 11 27 11 46 0 24-18 25-18 25-4 0-6 3-7 3-4 0-5-5-9-5-3 0-5 5-10 5-4 0-7-5-10-5s-5 5-8 5c-2 0-4-3-8-3 0 0-18-1-18-25 0-19 15-35 11-46 0 7-34 20-34 48 0 35 33 43 33 43l-9 18s14 0 21 6c9 8 8 24 8 35 0 9-1 19-6 23-6 5-10 5-10 12 0 5 4 6 10 9 8 5 8 10 20 10 13 0 12-5 20-10 7-3 11-4 11-9 0-7-4-7-11-12-4-4-5-14-5-23 0-11-1-27 8-35 7-6 20-6 20-6z"/>
    <path d="M896 330l-6 17-15-8 7 16-16 6 16 5-7 16 15-7 6 16 6-16 16 7-8-16 16-5-16-6 8-16-16 8-6-17zM861 422s-20-5-28-15c-13 12-29 16-29 16s16 7 29 17c6-8 28-18 28-18zM931 422s23 10 28 18c13-10 30-17 30-17s-16-4-30-16c-7 10-28 15-28 15zM869 444l-8 8 8 7 8-7-8-8zM923 444l-8 8 8 7 8-7-8-8zM867 490l-1 15s12-3 14-14c1-6 2-25-3-29l-15-3c2 4 5 16 5 31zM916 462c-6 4-4 23-3 29 2 11 13 14 13 14l-1-15c0-15 4-27 5-31zM833 463a9 9 0 0 0-6 13 9 9 0 0 0-3 0c-5 0-9 4-9 9a9 9 0 0 0 11 10l-1 2c-2 4 0 10 5 12a9 9 0 0 0 13-8l1 2c4 3 10 3 13-1a9 9 0 0 0-3-14l2-1c5-3 6-9 3-13a9 9 0 0 0-13-3l-1 1-1-2a9 9 0 0 0-11-7zM933 490c1 10 9 18 18 20l-3-9c-1-11 8-20 20-20h5c-4-7-12-11-21-11-12 0-20 9-19 20z"/>
    <g fill="#ffd200">
      <path d="M848 374c0 18 9 29 22 29 3 0 5 3 8 3s6-4 8-4c3 0 5 4 10 4s7-4 10-4 5 4 9 4l7-3c13 0 23-11 23-29 0-15-13-33-11-36 0 0 24 17 24 38 0 33-33 41-33 41l7 17s-10 1-17 6c-8 7-8 26-8 38 0 15 0 21 6 25 5 4 10 5 10 9s-5 6-10 8c-7 3-7 8-17 8-9 0-10-5-16-8-6-2-10-4-10-8s4-5 10-9c5-4 6-10 6-25 0-12-1-31-9-38-6-5-17-6-17-6l8-17s-34-8-34-41c0-21 25-38 25-38 1 3-11 21-11 36zm36 136c-7 0-11 1-11 3s4 4 11 4c1 0 3-2 3-4s-2-3-3-3zm25 0c-2 0-4 1-4 3s2 4 4 4c6 0 11-2 11-4s-5-3-11-3z"/>
      <path d="M896 341l4 11 10-5-5 10 11 4-11 3 5 10-10-4-4 10-3-10-10 4 4-10-10-3 10-4-4-10 10 5 3-11zM850 423l-17 12h-1l-18-12s12-4 19-11c6 8 17 11 17 11zM979 423s-13 7-19 12h-1c-6-7-17-12-17-12s11-3 18-11c7 7 19 11 19 11zM869 447l5 5-5 4-4-4 4-5zM923 447l4 5-4 4-4-4 4-5zM875 466c3 4 2 10 2 19s-6 13-6 13c0-22-3-28-4-34zM925 464c-1 6-3 12-3 34 0 0-7-4-7-13s0-15 2-19l8-2z"/>
      <path id="b" d="M843 472a7 7 0 0 1 0 4h-4c-3 0-6 1-8 3a7 7 0 0 1-2-3 7 7 0 0 1 14-4z"/>
      <use xlink:href="#b" transform="rotate(72 839 486)"/>
      <use xlink:href="#b" transform="rotate(144 839 486)"/>
      <use xlink:href="#b" transform="rotate(216 839 486)"/>
      <use xlink:href="#b" transform="rotate(288 839 486)"/>
      <circle cx="839" cy="486" r="7"/>
      <path d="M963 477c-12 2-20 13-19 25-4-3-6-8-7-12-1-9 6-16 15-16 4 0 8 1 11 3z"/>
    </g>
  </g>
</svg>
