<svg xmlns="http://www.w3.org/2000/svg" xmlns:xlink="http://www.w3.org/1999/xlink" width="900" height="450">
  <path fill="#009543" d="M0 0h900v450H0z"/>
  <path fill="#ed4135" d="M0 0h900v300H0z"/>
  <path fill="#0035ad" d="M0 0h900v150H0z"/>
  <circle stroke="#000" stroke-width="5" fill="#fae600" cx="300" cy="225" r="147"/>
  <path stroke="#000" stroke-width="6" d="M275 247h50m-50-37h50M300 78v252"/>
  <path d="M241 360c60 25 116 2 116 2s-21-23-32-32-42-9-53 0c-9 7-34 33-31 30z"/>
  <ellipse cx="300" cy="293" rx="17" ry="24"/>
  <ellipse cx="300" cy="229" rx="20" ry="13"/>
  <ellipse cx="300" cy="170" rx="20" ry="20"/>
  <path d="M324 96c0-1 2 2-2 9-17 31-35 32-38 35-4 3-5 2-5 2v-14c3-15 25-15 42-30l3-3z"/>
  <g id="a">
    <path d="M266 163s3 11 4 23c1 17 18 18 30 18v-10c-9 0-17-1-23-14-3-7-11-17-11-17zM265 308s6-8 14-26c4-9 13-15 21-15v-14c-19 0-28 7-29 17-2 22-6 38-6 38z"/>
  </g>
  <use xlink:href="#a" transform="matrix(-1 0 0 1 600 0)"/>
</svg>
