<svg xmlns="http://www.w3.org/2000/svg" xmlns:xlink="http://www.w3.org/1999/xlink" width="450" height="300" viewBox="0 0 938 625">
  <path fill="#FFF" d="M0 625h938V0H0v625z"/>
  <g fill="none">
    <path fill="#CE0F25" d="M659 394c11 26 6 45 0 65 16-6 48-21 44-40-6-17-28-21-44-25"/>
    <path stroke="#221B0F" d="M659 394c11 26 6 45 0 65 16-6 48-21 44-40-6-17-28-21-44-25z"/>
    <path fill="#FAF8F0" d="M604 504c10-4 17-7 33-9 6-1 24 0 35-3 10-4 16-7 16-12 0-9 3-19 7-28l12-28c1-3-1-7-3-10-9-12-28-21-46-21l1 3c13 0 40 10 42 24 2 20-67 23-105 31 0 0-10 2-13 6-3 2-4 9-2 11 18 17 23 36 23 36"/>
    <path stroke="#221B0F" d="M604 504c10-4 17-7 33-9 6-1 24 0 35-3 10-4 16-7 16-12 0-9 3-19 7-28l12-28c1-3-1-7-3-10-9-12-28-21-46-21l1 3c13 0 40 10 42 24 2 20-67 23-105 31 0 0-10 2-13 6-3 2-4 9-2 11 18 17 23 36 23 36z"/>
    <path fill="#F6E4BE" d="M701 433c-26 16-61 17-91 20l-20 20 18 26 30-8 23-1c6-1 11-1 15-5 5-6 5-16 7-23l8-13 10-16"/>
    <path fill="#CE0F25" d="M595 515c5-23-10-32-18-46l13 4c8 1 13 1 26-1 10-2 18-7 25-3l2 2c1 3-1 7-3 9-11 15-45 35-45 35"/>
    <path stroke="#221B0F" d="M595 515c5-23-10-32-18-46l13 4c8 1 13 1 26-1 10-2 18-7 25-3l2 2c1 3-1 7-3 9-11 15-45 35-45 35z"/>
    <path fill="#CE0F25" d="M278 394c-10 26-6 45 0 65-15-6-48-21-44-40 7-17 28-21 44-25"/>
    <path stroke="#221B0F" d="M278 394c-10 26-6 45 0 65-15-6-48-21-44-40 7-17 28-21 44-25z"/>
    <path fill="#FAF8F0" d="M333 504c-10-4-16-7-32-9-7-1-25 0-35-3-10-4-16-7-16-12-1-9-4-19-7-28-5-14-12-24-13-28 0-3 1-7 3-10 9-12 29-21 46-21v3c-14 0-41 10-42 24-3 20 66 23 105 31 0 0 10 2 13 6 2 2 4 9 1 11-17 17-23 36-23 36"/>
    <path stroke="#221B0F" d="M333 504c-10-4-16-7-32-9-7-1-25 0-35-3-10-4-16-7-16-12-1-9-4-19-7-28-5-14-12-24-13-28 0-3 1-7 3-10 9-12 29-21 46-21v3c-14 0-41 10-42 24-3 20 66 23 105 31 0 0 10 2 13 6 2 2 4 9 1 11-17 17-23 36-23 36z"/>
    <path fill="#F6E4BE" d="M237 433c26 16 60 17 91 20l19 20-18 26-30-8-22-1c-6-1-12-1-16-5-5-6-5-16-7-23l-8-13-9-16"/>
    <path fill="#CE0F25" d="M343 515c-5-23 10-32 17-46l-13 4c-8 1-13 1-25-1-10-2-19-7-26-3l-2 2c0 3 2 7 4 9 10 15 45 35 45 35"/>
    <path stroke="#221B0F" d="M343 515c-5-23 10-32 17-46l-13 4c-8 1-13 1-25-1-10-2-19-7-26-3l-2 2c0 3 2 7 4 9 10 15 45 35 45 35z"/>
    <path fill="#FAF8F0" d="M305 543c-4-3-9-6-12-10-2-3-3-7-2-10 5-20 4-31 0-46-1-5-2-13 4-12 16 0 34 6 46 5 6 0 13-1 14-7 1-7-16-13-16-13 10 2 18 6 21 12 1 2 1 6-1 8-3 4-8 6-14 6-10 2-28-1-38-3-5-1-6-2-7-1-2 2 1 5 7 11 13 12 28 22 43 30 43 23 75 30 119 30s76-7 118-30c16-8 31-18 44-30 6-6 9-9 7-11-1-1-3 0-7 1-10 2-28 5-39 3-5 0-11-2-14-6-1-2-2-6-1-8 3-6 12-10 22-12 0 0-17 6-17 13 1 6 9 7 14 7 13 1 30-5 46-5 6-1 5 7 4 12-4 15-5 26 0 46 1 3 0 7-1 10-3 4-8 7-13 10-52 33-110 51-163 51s-112-18-164-51"/>
    <path stroke="#221B0F" d="M305 543c-4-3-9-6-12-10-2-3-3-7-2-10 5-20 4-31 0-46-1-5-2-13 4-12 16 0 34 6 46 5 6 0 13-1 14-7 1-7-16-13-16-13 10 2 18 6 21 12 1 2 1 6-1 8-3 4-8 6-14 6-10 2-28-1-38-3-5-1-6-2-7-1-2 2 1 5 7 11 13 12 28 22 43 30 43 23 75 30 119 30s76-7 118-30c16-8 31-18 44-30 6-6 9-9 7-11-1-1-3 0-7 1-10 2-28 5-39 3-5 0-11-2-14-6-1-2-2-6-1-8 3-6 12-10 22-12 0 0-17 6-17 13 1 6 9 7 14 7 13 1 30-5 46-5 6-1 5 7 4 12-4 15-5 26 0 46 1 3 0 7-1 10-3 4-8 7-13 10-52 33-110 51-163 51s-112-18-164-51z"/>
    <path fill="#F6E4BE" d="M637 535s4-3 5-6c1-7-3-15-3-23l2-24c-21 19-76 68-172 68-94 0-152-49-172-68l1 24c0 8-4 16-2 23l4 6c53 34 109 55 169 55 59 0 115-21 168-55"/>
  </g>
  <path d="M366 551c2-6 8-11 17-8 8 3 11 9 9 16-3 7-10 11-18 8-9-3-10-11-8-16m21 8c2-7 0-13-5-15-4-1-9-1-11 7-3 6-1 13 5 15 2 1 8 1 11-7M398 558l2-6-1-3h-2l1-1 4 2 4 1h1-1c-1 0-2 0-2 2l-2 6-1 5c-1 4 0 6 1 8s3 2 4 2h5c2-2 2-4 3-8l1-4 2-6-1-3h-2 1l4 1h3l1 1h-1-1l-1 1-2 7-1 3c-1 4-2 8-5 9-3 2-5 1-7 1-2-1-5-1-7-4-1-2-2-5-1-9l1-5zM427 572c0-1 0 0 0 0l-3 4v2l1 1h1l-1 1-3-1h-4l-1-1h2l3-2 11-19 1-1 1 1 5 20c1 4 2 4 3 4l1 1h-1l-6-1h-1v-1l-1-7h-1l-7-1zm7-1l-2-9-4 8 6 1zM451 578l1 4h2l1 1h-9l-1-1h2c1 0 2-1 2-4l1-19v-1l1 1 10 10 7 8h1v-15l-1-3h-2-1 9s0 1 0 0l-1 1c-1 0-2 0-2 2l-1 21v1l-1-1-10-10-7-8h-1v13zM483 575l-2 4v2l1 1h1v1c1 0 0 0 0 0h-4-4 1l3-3 7-21 1-1c0-1 0 0 0 0l10 20 3 3h2l-1 1h-7-1l1-1-3-7-8 1zm7-3l-4-8-2 9 6-1zM510 571l1 6h4l4-1 1-2v-1 5l-2 1-5 1a82 82 0 0 0-6 1h-3v-1h2v-2l-1-7v-5l-2-7-1-2h-2 1l4-1 5-1v1h-1l-1 2 1 7 1 6zM528 568v1l-1 4v2l1 1h2l-1 1h-3l-4 1h-1 1c2-1 2-2 2-4l4-22v-1l1 1 13 17c2 3 3 3 4 3h0l-6 2h-1l1-1-5-6-7 1zm6-3l-5-7-1 8v1l6-2zM545 560c-2-5-1-13 9-17 8-2 14 1 17 8 2 7-1 14-9 17-9 3-15-3-17-8m22-7c-3-7-8-9-13-8-4 2-8 5-5 13 2 6 8 10 14 8 2-1 7-4 4-13"/>
  <path fill="#666" d="M601 135H337v18h264v-18z"/>
  <path fill="none" stroke="#520" d="M601 135H337v18h264v-18z"/>
  <g fill="#5E520E" stroke="#520">
    <path fill="#EACE24" stroke="#806600" stroke-width="2" d="M337 153l-30-70-5 1-11-25 20-6 4 12 10-3-4-11 20-5 4 12 10-2-3-12 20-4 3 12 14-1 1 6 5-1-1-6 10-1 2 6 5-1-1-6 10-1 1 6h10l-2-19 21-1 1 12h10V33h21l-1 12h11V33l21 1-2 19h10l1-6 11 1-1 6 5 1 1-6 10 1-1 6 6 1 1-6 13 2 3-13 21 4-3 12 9 2 4-12 21 5-5 12 10 2 5-12 20 6-11 25-9-3-30 72c-84-24-184-24-265 0"/>
    <path d="M463 95V73c0-9 16-9 16 0v22M345 110l-7-21c-2-9 13-12 16-4l7 22M579 106l7-22c3-8 18-5 16 4l-7 21"/>
    <path fill="none" stroke="#806600" d="M515 120l-1 7m-181 18c88-26 184-26 273-1m-276-6c90-27 188-27 279-1m-282-6c92-27 192-28 285-1m-288-6c94-27 196-28 290-1m-64 1l-2 7m48 3l-2 7m-17-12l-3 7m-25-20l-2 7m18-4l-2 7m20-4l-2 8m23-2l-3 7m-22-21l-2 7m25-1l-2 6m-7-8l-2 6m-33-13l-1 6m-11-9l-1 7m-41 4l-1 7m28-5l-2 8m-31-18l-1 7m15-6l-1 7m24-5l-1 8m-4-16l-1 7m-13-8l-1 7m-20-9l-1 7m-129 19l2 7m121-18v8m-137 6l3 7m79-20l1 8m18-9v8m-41-5l1 8m53-11v7m-82 0l2 8m-27-10l2 7m16-11l2 7m9-9l2 7m14-9l2 7m21-10l1 8m17-9v8m15-9l1 8m21-8v8m-140 9l3 7m133-31v7m-16-7l1 7m-15-6v7m-27-5l1 7m-22-5l1 7m-16-5l1 7m-19-3l2 6m-27-1l2 7m214-24l8-37m-244 51c96-28 200-28 297-1M507 68c18 1 37 3 55 6m-48-21l-1 6c-27-2-55-2-83 0l-1-6m-50 21c18-3 37-5 56-6m-58-3l8 37m53-6l-4-38m73 0l-2 38M378 52l2 12c-27 4-53 13-78 20m261-32l-3 12c28 4 55 12 81 20"/>
  </g>
  <path fill="#1353B4" stroke="#540" stroke-width="2" d="M337 153v136c0 43 2 77 21 103 23 32 62 55 111 78 50-23 88-46 111-78 19-26 21-60 22-103V153H337z"/>
  <path fill="#CE0F25" d="M598 345c0-11 3-17 3-28l1-68H337c-1 23 0 45 1 68l2 28h258z"/>
  <path fill="none" stroke="#540" stroke-width="2" d="M336 249h266m-262 96h258"/>
  <path fill="#FFF" stroke="#000" d="M436 311l32-13-13 32 15-9 14 9-13-32 32 13-10-14 10-15-32 14 13-33-14 10-15-10 13 33-32-14 10 15-10 14z"/>
  <g id="a" fill="#FFF" stroke="#000">
    <path fill="#EACE24" stroke="none" d="M256 398v40c17 17 19 23 24 29 6-10 17-6 17-6 2-9 13-17 13-17-16-1-42-9-44-12-7-10 3-41 3-41l-13 7z"/>
    <path fill="none" stroke="#806600" d="M256 398v40c17 17 19 23 24 29 6-10 17-6 17-6 2-9 13-17 13-17-16-1-42-9-44-12-7-10 3-41 3-41l-13 7z"/>
    <path fill="#EACE24" stroke="none" d="M294 459l-17-13 20 12"/>
    <path fill="none" stroke="#806600" d="M294 459l-17-13 20 12"/>
    <path fill="#EACE24" d="M269 380s21-9 43 6h5c4-4 14-17 21-16l-1-55c-3-1-4 6-4 6 2 12-6 90-36 38l-21 3-7 18z"/>
    <path fill="none" stroke="#806600" d="M269 380s21-9 43 6h5c4-4 14-17 21-16l-1-55c-3-1-4 6-4 6 2 12-6 90-36 38l-21 3-7 18z"/>
    <path fill="#EACE24" stroke="none" d="M257 201c18 6 19 10 37 26 14 5 35 19 37 23l-2 4c3 2 6-5 6-5-3-15-53-63-53-63l-23 5-2 10z"/>
    <path fill="none" stroke="#806600" d="M257 201c18 6 19 10 37 26 14 5 35 19 37 23l-2 4c3 2 6-5 6-5-3-15-53-63-53-63l-23 5-2 10z"/>
    <path fill="none" d="M274 194l57 52 1 4M287 213c6 10 16 14 16 14"/>
    <path d="M264 180c0-18 22-31 22-33-2-13-34 19-36 23-2 6 3 14 3 14M270 156c-7 5-12 23-12 23"/>
    <path d="M254 180c-3-18 11-34 10-34-9-4-20 18-23 25l4 25M249 165c-3 9 0 21 0 21"/>
    <path d="M247 190c-5-5-1-36-2-36-9 0-14 30-12 36 6 21 11 25 11 25M238 179c-1 9 7 21 7 21"/>
    <path d="M244 213c-11-11-13-41-15-44-13 3-6 34-6 34 0 3 16 22 16 22M227 189c-4 8 15 33 15 33"/>
    <path d="M259 283s-3-43 2-49l-16-24-20 41 18 34 16-2z"/>
    <path fill="none" d="M259 283s-3-43 2-49l-16-24-20 41 18 34 16-2z"/>
    <path d="M244 376c7 8 10 29 10 29l2-7 3 6 2-6 2 7 1-5c1 1 1 7 2 4-1-34 66-62 65-101 2-40-41-55-67-88 0 0-8-22 6-13 11-1 10-12 10-12h6c3-24-21-18-21-18-22 0-24 22-24 22-5 30 33 65 33 65 5 12 0 33 0 33l-53 50"/>
    <path d="M221 342c-3 3-18 21-21 27-6 6 4 5 4 5s-14 15-22 20c3 7 17-3 17-3s-14 9-13 10c4 3 16-6 16-6s-3 5 0 6c4 0 13-8 13-8s-1 5 1 6l29-24"/>
    <path fill="none" d="M231 331s-8 10-3 9"/>
    <path d="M230 306c-6 11-14 31-6 39 3 1 11-27 16-30l5-16M239 304c3 0-6 7-10 15"/>
    <path d="M242 307c-5 22-1 26 1 26 3-1 8-21 13-22M218 205c-19-18-22-39-24-39-9-1 3 37 3 37l23 18M215 209s-9-7-14-16"/>
    <path d="M218 218c-29-16-32-42-35-41-8 4 3 27 3 27 1 7 24 28 24 28M213 226s-13-9-22-24"/>
    <path d="M209 230c-34-19-35-41-39-40-8 22 22 43 43 59M211 239s-16-6-25-20"/>
    <path d="M213 248c-30-9-45-37-49-35-8 3 10 26 10 26 15 14 39 24 39 24M213 253s-20-4-32-16"/>
    <path d="M213 261c-48-15-50-30-55-29-8 6 19 28 19 28 4 5 39 15 39 15M216 264s-24 0-34-8"/>
    <path d="M215 274c-46-9-53-23-56-22-6 8 22 25 22 25 17 10 40 11 40 11M220 280s-16 0-26-5M214 304c-13 12-20 34-14 36 4 0 14-26 28-30l9-8M232 301c3 0-17 6-20 15"/>
    <path d="M207 294c-19 14-25 30-22 31 4 2 21-16 27-17 3 0 20-10 20-10M218 296c3 0-13 5-16 14"/>
    <path d="M220 288c-20 2-56-20-57-18-9 11 30 28 38 27l30 2M228 294s-25 0-36-5"/>
    <path d="M284 290s0-11-5-12c0 0-13-1-27 2-33-20-7-45-12-53-1-13-23-33-23-33-2 2 0 14-1 13-5-2-2 8-3 10-4-1-4 5-3 10-4 0-2 6-2 10-6-3 2 11 0 10-10-1 2 10 2 10-6 2-4 7 1 8-6 4 0 10 2 10-5 3 0 6 3 9-4 4 3 5 7 7-3 5 0 6 3 7-1 4 3 3 6 3-3 4 3 6 5 5 0 0 2 5 6 3-1 4 7 4 7 4 0 4 13 2 13 2"/>
    <g fill="none">
      <path d="M221 224s3 7 6 7M216 207s4 12 7 12M213 216s1 8 4 8M210 226s3 7 6 7M208 237s3 6 6 6M208 247s5 8 8 8M209 257s5 5 9 5M211 266s5 4 8 4M212 275s7 3 11 3M215 283l12 1M222 290h11M226 297h10M232 301h10M237 306l10-3M243 309s2 1 6-1M250 312l6-2M280 190c-5-10-10-9-10-9l-6 2c-4 0-3-4-3-4"/>
    </g>
    <path fill="#000" stroke="none" d="M272 182c-1 4-4 5-4 5s1 4 3 4c5 1 7-3 5-7l-4-2"/>
    <path stroke="none" d="M275 187l-2 1h-2l2-2 2 1"/>
    <path fill="none" d="M206 373c-2 3 6 3 8 0 0 4 5 5 7 3 1 2 5 2 8-1 0 1 4 4 5 3 3-1 13-15 15-16m-53 31l19-17m-15 21l23-20m-9 17l18-16m-28-5l19-19m-10 20s10-11 21-19m-12 20s4-8 18-19m-11 19s5-9 15-16m-16 17l-14 14m3-13l-16 14m8-16c-7 8-9 8-9 8m17-35c-2 2 2 8 10 5-3 6 1 4 6 2-2 5 5 2 7 0 1 1 1 4 3 4 3 0 6-8 8-9m-25 3l14-13m-21 13l7-10m7 12l8-9m-1 9l4-5m-17 6l-6 5m13-3l-7 6m19-3l-6 6m2-9l-6 5m14-25c-11 14 5 3 5 3m-20 4s-6 1 1-8m12-6l-2 3m0-94c-2 5 3 11 3 11m-8-8c-2 5 7 15 7 15m-8-6c-2 6 8 11 8 11m-4 3c1 5 8 4 8 4m-18-49s0 5 3 11c-4 4-5 9-5 9m-11-17s3 7 6 7m-7 2s2 7 5 7m-8 0s3 5 6 5m-5 4s3 5 6 5m-4 5l7 1m-5 6h4m0-49s0 4 3 4m1 60s4-1 3-4m-9-2s7-2 6-5m9 19v-11m9 17s-1-11-4-12m15 15c-3-9-6-13-9-14m19 13c-3-9-10-12-12-13m24 14c-3-9-10-13-12-14m3 26c-9 3-13 11-13 11m1-125l-3 1m-5 13c-1 3 2 7 2 6m-2-30c-2 0-3 5-3 5m16 36l4 4m-2 9l4 4m11 10l4 5"/>
    <path fill="#000" stroke="none" d="M304 270s2 6 4 7l3-1v-2l-7-4m-8 3v7l3 1 1-2-4-6m6 21v8h3l1-1-4-7m14 6v1h-1v-6l-2-4 1-1c1 0 4 3 4 5l-2 5zm-32 18l-2 5 2 2c2 0 2-2 2-2 0-2 0-5-2-5m-7 49l-3 2c-1-1 0-2 1-4l1-5h1v7zm-15 4l-2 1h-1v-4l1-4v-1h1v1l1 7zm12-23h-1-1v-4l2-2h1l-1 6zm20-18s-2 6-1 7l2 2 1-2c1-2-2-7-2-7m-7 15c-3 1-4 5-4 7l2 2 2-1c1-2 3-7 0-8m-19-22c-3 2-3 3-3 5l1 2h5c1-2-3-2-3-7m26-23l-3 4 2 4 2-2c2-2 1-6-1-6m18 13c-1 0-2 3-1 4 0 0 0 2 2 2l1-1c1-3 0-5-2-5m-8 9c-1 5-3 7-2 8l3 1 1-2c1-2-1-1-2-7m-42 59c-2 0-2 4-2 5l2 2c2 0 2-2 2-2 0-2 0-5-2-5"/>
  </g>
  <use xlink:href="#a" transform="matrix(-1 0 0 1 939 0)"/>
  <g id="b" fill="#EACE24" stroke="#806600">
    <path d="M463 215c0-3 0-9-2-11l-3-2-2 1-1 4 2 3-7-2c-2-1-4-4-4-6v-6c0-2 2-4 3-5 3-3 10-2 11-1 2 0 4 3 5 4a68 68 0 0 1 2 15l1 6-2 6c0 2-1 3-2 3-2 2-8 3-8 3l4-6 3-6M477 215c-1-3-1-9 1-11l3-2 2 1 1 4-2 3 7-2c2-1 4-4 4-6v-6c0-2-2-4-3-5-3-3-10-2-11-1-2 0-4 3-4 4a68 68 0 0 0-3 15l-1 6 2 6c0 2 1 3 2 3 2 2 8 3 8 3l-4-6-2-6"/>
    <path d="M470 237s4-4 5-8-2-9-3-11c-1-7 1-17 1-18l3-6 2-3 2-4 1-5-1-4-3-4-4-3c-2-1-3-5-3-5s-2 4-4 5l-4 3-3 4a13 13 0 0 0 0 9l2 4 3 3 2 6c0 1 2 11 1 18 0 2-4 7-3 11s6 8 6 8"/>
    <path d="M480 213l-2-3h-17l-2 3 2 3h17l2-3z"/>
  </g>
  <use xlink:href="#b" x="-87"/>
  <use xlink:href="#b" x="87"/>
  <g id="c">
    <path fill="#EACE24" stroke="#806600" stroke-miterlimit="10" d="M445 439h49v12h-49v-12zm0-2c0-11-1-22-6-31h2a6 6 0 0 1 6 8h2a6 6 0 1 1-1 12c0 4 2 7 5 7 2 0 4-2 5-4 1 2 2 4 4 4 3 0 5-3 6-8l-4 1a6 6 0 0 1 0-12l-1-4a6 6 0 1 1 12 4 6 6 0 1 1-4 11c1 5 3 8 6 8 2 0 3-2 4-4 1 2 3 4 5 4s5-3 5-7h-1a6 6 0 1 1 2-12 6 6 0 0 1 8-8c-5 9-6 20-6 31h-49z"/>
    <path fill="#806600" d="M471 420l7-1-7-1-2-7-1 7-7 1 7 1h3zM445 441a1 1 0 0 1 1 1l1 2v1l-1 3h-1v-7zM446 422l6-3h-7l-2-6 1 8 2 1z"/>
    <path fill="#806600" d="M444 418l1 1 1 2v1l-1 1-1-5z"/>
    <path fill="#FF8080" d="M465 445l4-3 5 3-5 3-4-3z"/>
    <path fill="none" stroke="#9E7800" stroke-linejoin="round" d="M465 445l4-3 5 3-5 3-4-3z"/>
    <path fill="#FF8080" d="M465 445l4-3 5 3-5 3-4-3z"/>
    <path fill="#BA0028" d="M474 445l-5 2v1-3h5z"/>
    <path fill="#CF1E45" d="M469 445v3l-4-3h4z"/>
    <path fill="#FF083C" d="M469 442v3h5-1l-3-2-1-1z"/>
    <path fill="#F9C" d="M443 445l2-3 1 3-1 2-2-2z"/>
    <path fill="red" d="M443 445h3l-1 2-2-2z"/>
    <path fill="#CCC" d="M444 419a3 3 0 0 1 1 4 2 2 0 0 1-3-2l2-2"/>
    <path fill="none" stroke="#9E7800" d="M444 419a3 3 0 0 1 1 4 2 2 0 0 1-3-2l2-2z"/>
    <path fill="#FFF" d="M443 420a1 1 0 1 1 0 2 1 1 0 0 1 0-2"/>
    <path fill="#806600" d="M493 422l-6-3h7l2-6-1 8-2 1z"/>
    <path fill="#806600" d="M495 418l-1 1-1 2v1l1 1 1-5z"/>
    <path fill="#CCC" d="M495 419a3 3 0 0 0-1 4 2 2 0 1 0 1-4"/>
    <path fill="none" stroke="#9E7800" d="M495 419a3 3 0 0 0-1 4 2 2 0 1 0 1-4z"/>
    <path fill="#FFF" d="M496 419a1 1 0 1 0 0 2 1 1 0 0 0 0-2"/>
    <path fill="#806600" d="M494 441a1 1 0 0 0-1 1l-1 2v1l1 3h1v-7z"/>
    <path fill="#FF083C" d="M496 445l-2-3-1 3 1 2 2-2z"/>
    <path fill="#BA0028" d="M496 445h-3l1 2 2-2z"/>
    <circle fill="#CCC" stroke="#9E7800" cx="469" cy="419" r="2"/>
    <circle fill="#FFF" cx="469" cy="418" r="1"/>
    <circle fill="#CCC" stroke="#9E7800" cx="458" cy="443" r="2"/>
    <circle fill="#FFF" cx="458" cy="442" r="1"/>
    <circle fill="#CCC" stroke="#9E7800" cx="458" cy="448" r="2"/>
    <circle fill="#FFF" cx="458" cy="447" r="1"/>
    <circle fill="#CCC" stroke="#9E7800" cx="481" cy="443" r="2"/>
    <circle fill="#FFF" cx="481" cy="442" r="1"/>
    <circle fill="#CCC" stroke="#9E7800" cx="481" cy="448" r="2"/>
    <circle fill="#FFF" cx="481" cy="447" r="1"/>
  </g>
  <use xlink:href="#c" x="-49" y="-55"/>
  <use xlink:href="#c" x="49" y="-55"/>
</svg>
