<svg xmlns="http://www.w3.org/2000/svg" width="1200" height="600">
  <clipPath id="a">
    <path d="M0 0v150h700v150H600zm600 0H300v350H0v-50z"/>
  </clipPath>
  <path fill="#00247d" d="M0 0h1200v600H0z"/>
  <path d="M0 0l600 300m0-300L0 300" stroke="#fff" stroke-width="60"/>
  <path d="M0 0l600 300m0-300L0 300" stroke="#cf142b" stroke-width="40" clip-path="url(#a)"/>
  <path d="M300 0v350M0 150h700" stroke="#fff" stroke-width="100"/>
  <path d="M300 0v350M0 150h700" stroke="#cf142b" stroke-width="60"/>
  <path d="M0 300h600V0h600v600H0z" fill="#cf142b"/>
  <path fill="#fff" d="M767 145v254c3 36 79 59 132 98 69-47 136-56 139-108l1-244H767z"/>
  <g fill="none">
    <path fill="#2f8f22" d="M767 395l3 15 10 11 68 44 50 31 98-53 33-26 7-33-4-8 1 8-3 6-3-1-1-13-1 9-5 6v-7l1-5-2-5-1 11-2 4-2-3 1-4-1-5-1-2-1 5-1 1 1 3-2 2-1-4v-6l-2-4 1 6-4 7-2 1-2-2 1-6-3-4 1 8-3 7-2-2-1-2v-3l4-9-4 3-3 7-1 3-2-4 3-9-2-1-2 10-3 2-2-1-1 1-153 8-4-6-1 6-2 3-3-12-2 12-2-6 1-12-1-1-2 7v9l-1 7-2-1-2-6-1-10 1-7-2 8v15l-4-7-1-5-3-7 2 9v4l-6-5-3-13v10l1 5-2 1-3-5-2-8-2-7v12l2 6-2 1-2-1-1-7-1-10-2 7-1 7-1 6-1 4h-5z"/>
    <path stroke="#4dcf4a" d="M876 472c-1-15 13-30-24-45"/>
    <path stroke="#38bb26" d="M911 464c0-20-12-28-34-26"/>
    <path stroke="#51c757" d="M922 472c-12-14-27-13-46 0M952 454c-5-9-21-3-39 4"/>
    <path stroke="#7acb73" d="M1012 427c-5-13-13-21-24-22"/>
    <path stroke="#4cb135" d="M1027 406c-3-6-6-13-14-11"/>
    <path stroke="#60c85a" d="M846 459c4-13-1-18-8-21"/>
    <path stroke="#71ce5b" d="M782 410c7-4 13-10 24-6M772 401c6 0 11 3 12 9"/>
  </g>
  <g stroke="none" stroke-width="0">
    <path d="M905 151c-3 3-7 6-12 5-3 1 0 9-6 8-5-5-4 5-7 7-4 1-10 2-5 6 3 3 6 8 1 10-3 6-3-4-7 2-2 5 9 4 4 9-1 3-4-7-7 1-2 3-2 7 2 9s12-1 7 5c0 3-6 9-4 3 4-5-2-6-4-3-6 3-3 12 2 14 2 4 3 4-1 8 1 4 0 8-5 8-3 2-5 7-11 6-5 3-7-1-8-5-1-5-9-7-11-2-3-2-7-7-11-2-2 4-7-2-10 3-3 4 2 8 3 10 5 4 2 6 1 11s6 8 4 11c-4 3-9 6-8 11-5 2-4 8-3 12 3 5 14 5 13-2 3-1 6 5 8 8-2 2-8 0-12 2-4-1-8 4-13 5-3 2-8 5-7 9s3 8 2 13c-2 3-4 7-4 12-2 6 2 14-3 19-2 5 3 5 5 2 2 1 4-3 3-5 3 4 4-1 6 3 4-2-1-14 1-9 2 3 3 9 6 10 3-1 2-13 4-4 2 8 4 17 8 24 2 7 8 14 16 12 3 2-3 7-4 10-4 3-8-1-12-1-4 1-8 2-11 5l-3 11c-1 6 0 12 5 14 2-4 1-7 6-7 4 2 0 8 3 12 2 4 7 8 6 1-2-6 3-6 6-8 4-5 5 0 5 4 2 3 7-3 8-6 2-3 0-10 3-8 4-1 6-5 9-7 3-5 8 0 12 1 5 2 12 1 14 7-4-2-9 2-7 6 2 5 8 4 11 3 4 2 8-3 12 0 3 0 8 0 11-2 4-3 2-9-3-8 2-4 8-5 11-7 4 0 8-5 11-4 5 3 8 9 12 13 4 1 0 6 1 10-1 4 1 10 5 4 2-4 8-2 8-8 2-4 3 7 7 6 1 4-1 12 4 6 5-4 6-10 4-15 1-5 7 2 6 6 1 4 6-4 7-6 1-7 1-14-4-18-3-2-5-8-10-7-3 2-7 5-9-1-4-4 3-4 6-6 5-4 8-9 9-15l5-16 10-7c4-8 0 7-2 10 4 2 8-1 10-5 2-2 2-12 4-4 0 2-5 10-1 9s7-5 9-9c2-5 4-11 2-16 3-2-1-11-4-6-5-1-3-8-4-11 3-5 0-15-7-15l-10-5c-5 2-8-3-13-2-8 1 0-8 3-5 3 4 10 6 14 1 0-4 0-9-4-12 0-5-2-9-5-12-3-6 3-7 6-10 1-5-2-9-5-13 3-3 6-8 3-12 1-3-7-4-9-3-5-1-9 4-14 4-4 4-10 6-15 4-4-1-7-5-9-8-5 3-1-5-5-7-3-4-9-3-7 2-3 5 0-6-2-8-3-7-2-2 2 0 4 3 11 1 12-4-2-4 0-10-5-10-3 1-3 10-6 2 0-4-2-7-4-10 2 4 8 10 14 7 3-2 4-8 2-11 0-10-6 6-9-2-6-2 13-9 5-12-3 4-9 2-9-2 3-1 6-9 4-11-5-3-7-7-5-12-3-3-10 2-11-4 0-7-6 0-9-2l-7-4z"/>
    <g fill="#d40000">
      <path d="M904 195c0 6-6 5-8 3-1-6 8-8 8-3zM907 194c1 6 7 6 8 4 2-5-5-8-8-4z"/>
      <path d="M903 189v1l-1-2v-1h1v-1h-1v1l-1 1 1 1-1 1-2 1-2 1-1-1-2-1v-2l-1-1-1-1h-1v1l-1 1-1-1-1-1v-2h-1l-1-2v-2l-1-1-1-1-1-1h-2l-1-1-1-1-1-1v-2l1-1h3v-2l1-2 1-2v-1h3l1 1h1l2-1 1-1v-5l1-1h3l1 1v-1h4l1-1 2-2 1-1h1l2 2 1 1h1l2 1 1 1 2-1 2-1h2l1 1 1 3 1 2h7l1 1-1 2v2l1 3 1 2h1l2 1v1l-1 1-1-1-2 1-2 1-2 2-1 2-1 2-1 1h-2l-1 1v1l-1 3-2 2h-2l-1 1h-1l-1-1-1-1v-2l-1-1h-1l1 1v2l-1 1v-1h-1v1l-2 2-2-1v-2h-1z"/>
      <path d="M874 174h3l1 2 2 1 1 1h1l2 3v1l1 1 1 2v1l-1 1h-1l-1-1-2 2-1 1-1 1-2 2h-1l-1 1h-3l-1-2h-1v-2l2-1v2l1 1h1l3-3h1l1-2 1-1v-1l-1-2v-1l-1-2v-1l-1-1-1-1-1-1-1-1z"/>
      <path fill="#a00" d="M926 184h1l2-1 1-1h1l1 1h1v-1l1-1 1-1v-2l1-1v-2h-2l-3 2h-1l-2 2h-1l-2 2v2l1 1z"/>
      <path d="M899 201l-1 2-1 1 1 2h2l1-1 1 2v2l2 2h1l1-1 1-1 1-1v-3l1 1h1l2-1v-2l-1-1-1-1-2-1-2-1h-1l-2 1-2 1h-2z"/>
      <path d="M912 201l4-1c2-1 3-7 4-10 2-3 5-4 8-2h2l3 2h5l4-2-1 3-2 2-5 2-4-3v1l8 9h1l1 1h1v-3l3-2v3l1 2v4l-2 3-5 1-4-3-1-2-4-5v2l3 6v2l1 1 1 2v2l1 3h2l1-1v-2l2-3h2v2l-1 1v1l2 3 1 2-3 4-2 1-4-1-2-1h-1l-3-5-1-3-4-7v2l2 2 1 3v6l3 5v9l1 1h1l1-1 2-2-1-5h2l2 2 2 3 1 1v3h-1l-2 2-3 2h-6l-1-1h-1l-1-1h-1l-5-6v-11l1-2v-3h-1v3l-1 2v11l5 7 3 2 1 1h-1v1h-2l-2-1h-1l-2 1h-3l-1-2-1-2-3-4h-3v-5l1-3v-8l-1 10-1 5h-1v6l1 2 4 5h-3l-2-1-2 1-3-1-4-1-2-3-1-2-1-3v-5l1-2-1 2v6h-2v-2l-1-2-1-2v-12l1-4h-1v5l-1 9h-1l-2 4h-5l-2-2 4-4v-3l-1-4v-7l-5 5-5 3h-4l-2-2-1-4 1-2 2-4h2l1-1v1l-1 3-1 2 1 2h2l3-5 3-5 2-3v-2l-2 2h-8l-3-2-1-2v-1l1-2 3-3v5l3-2v-1l3-4 7-6h5l3 2h1l3 3v4l4 3-2 3v1l2 2 2-1 1 5 2 2h1l5-6h2l2-3-1-2-1-1zM858 250l2 3v2l-9 4-3 1-2 1-5 2-2-1v-4l-1-1v-2h2l-1-1h-1v-3l1-1v-1l-1-1-1-1-4 2-1-1-1 2h-1v-1l-2-3-4-1-2 3h-2l-1-1h-1l-2 1-1 2h-1l-1-2-1-1v-3l2-1 2-1h1l2 1 1 1 2-2 2-2 2-1h2l2 4h3l3-2 1-1 2 1 3 1 3 4v4l1 1h4l5-1h3zM861 244l-1 6 1 2v2h3l1-1 2-1 1-1 1-1 2-1 2-1h2l3-1-2-1-6-3-2-1-1 1h-3l-2 1h-1z"/>
      <path d="M887 239l-4-1h-4l-2-2v-2l-1-2-1-1h-2l-3 2-1 2v4l2 2 4 4 3 1 2-1 4-2 3-2 1-1-1-1z"/>
      <path d="M878 233l2-2v-8l1-1h-1l-5 4h-3l-2 1v2h5l3 4zM880 246h7l2 1 3 2 2 1 4-1-1-1-2-2-1-2v-2h-2l-1-1-1-3v-3h-1l-1 2h1l1 2-2 1v2l-1 1-2 1-2 1h-3v1zM910 241v5l2 2h2l1-1v-1l-1-1v-1l-3-3h-1zM930 245l5 3 1 1 2-1 2-1 1-3v-2h-1l-2 1h-3l-2 1h-3v1zM944 241l-1 2-1 2-2 2v2h-1v1l2 2h5l3-4v-2l-2-2-1-1-2-2zM966 254l2 2-1 2v2l-1 2h-3l-2-1-2-1h-2v-1l-2-1-2-1-2-3-1-1v-1l2-3h10l3-2 3-2 4-1 1-1h2l6-3h7l2 1 1 1h-2l-1 1-1 3 2 3-1 1h-1l-2-1v-2l-1-2h-3l-1 4h-1l-2-1-3-1-2 2v2l3 3h2l1 2v1h-2l-2-1-2-1-1 1-2-1-1-1-2-1v1zM974 307l-2 2-1 2-1 3-1 3v8l1 3 1 2 1 1 1 2 2-5v1l1 3 2 2-2-1-1 1 1 1 1 2 2 1h5l-1 1h-4l1 2 2 2 2 2 3-1h1l-1 1 2 1 1 1 1 1h1v2l-2 4v2l-1 1-1 2-1 3v1l2-1 1-1 2-3h2l1-4 2-1v-3l1 3 1 5v4l-3 4v2h2l2-2 3-4 2-5v-9l2 4 1 4 1 3-1 5-1 4 1-1 4-4 3-4 1-4 1-6-1-5v-1l1-1v-4l-1-1-2 3h-1l-2-2h-1l-1-2-1-3v-4h-1l1-4v-6l-2-3-2-2-3-1-4-1-2-1-4-1h-3l-4-1-2-1-4-1h-4zM830 307h-10l-2 1h-4l-4 3-3 2h-1l-6 5 1 4v1l1 4v6l-1 1-2 5-2 5-1 8 1 6-1 4-2 3-1 2 2-1v-1l1 2 2-5 1 2h1v-6l-1-8 3 9 1 3 1-8 1 4 1 4v1l1-1v-6l-3-8-2-9 4 11 3 2 2 6 2 3v2h1l1-1-1-1 1-1-1-3-1-7h-1l-3-7 3 5h1l1-2-2-3v-3l3 4h1l-2-5v-5l1 2v2l2 3 2 1 1-2-1-1v-2l-2-2v-2l2 4 3 1 2 1 2-2 4-4h-5l-3-2-2-3v-2l1 3 2 2h6l4-3 1-6 1-3-1-4-2-5-1-2-1-1zM951 399l-9 9h-1l-3 2v3l3 3 1 2h1l3 3 3 4 1 1 1 2-2 2 1 1h5l1 1 1 3v1l2-1 1-2v-7l1-4v5l1 2 1-1 1 4 2 2 1 2 1-1-1-3 2-3 1-3 1-1h1l2 2v1l1-1v-4l-2-3-3-2-2-1-2-3 3 1 2 3 3 1h1l3 6 2 2v-3l1-5 2-1h4l-1-2-2-3-3-3-3-3-3-1-3 2h-1l-1 2-1-1-4-4h-1l-2-4-2-1h-4l-5-1zM852 397l1 2 1 3 2 2v1l2 2 2 3 4 4-3 2-6 5-3 1-2-2v4l1 2-3-1h-3l-3 2v2l-1-1-1-2h-1l1 4h-1v1l-4 3-1-3-1-2-3-2-2 1-3 1 1-2 1-3 4-2 3-2 2-1 1-1h-1l-5 1-3 2-3 3-3 3-1 1v-2l-2-4v-3l-2-1h-4l2-3 3-2 2-3 3-2 2-1 4 1 2 1h5l3-2 2-4 3-4 4-2h4z"/>
    </g>
    <path d="M893 173v2l-1 2h-1l-1 1 1 2 2 1 1 1h6l2-1 1-2h5l3 2v1l1 1 1-2h1l1 1h1l4-3v-1h1v-1h-1l-1-2-1-2h-1l-2 1-3 2-1 1h-1l-1-1h-1l-1 1h-6l-4-1-2-2-1-1h-1z"/>
    <g fill="#fff">
      <path d="M896 179h3v1l-1 1h-2l-2-1-1-1v-1l1-2h1l1 1v2zM913 179v1h3l3-2v-1l-2-1h-2l1 1v1l-3 1z"/>
    </g>
    <g fill="#48489c">
      <path fill="#5656a6" d="M819 250l2 2v5l-1 1-2-2-1-2-1-2v-2l1-1h1l1 1zM824 257l4-7v-2l-2-2h-2l-1 2v6l1 3zM830 257h2l5-5v-2l-1-1h-3l-1 1-2 4v3zM838 260l-1 2-2-1-4-2 2-1 2-1 2 1 1 1 1 1h-1z"/>
      <path d="M970 257h3l1 1h3v1l-1 1-4 1-1 1h-2v-4l1-1zM989 253l2-2 1-2 1-3-1-3h-3l-1 1v4l1 1v4zM982 254l2-1 1-2v-2l-1-2-1-2h-2l-1 4 2 1v4zM979 256h1l1-2-1-3-1-1-2-1-1-1h-2l-1 1v2l2 2h2l2 3zM988 251v2h-2v-3l2 1z"/>
      <path fill="#4f4d9f" d="M972 428l-2 3v4l1 2-1 8 4-6 1-3v-4l-1-2-1-1-1-1zM985 420h-1l-1 3-1 4 1 3v4l2-2 2-3v-7l-1-1-1-1zM949 441l3-1 1-1 2-3v-2l-1-1-2-1h-1l-2 3v6z"/>
      <path fill="#4748a5" d="M849 427h1v5l-2 3-4 2 1-3-1-1v-5l3-2 2 1zM827 429h3l2 2 1 3-1 1-1 1-1 2 1 4v3l-3-4-2-3-1-4 1-3 1-2zM819 425v3h-1l-1 1v5l-2-1-2-2-1-2 1-7 1-2 1-1 2 1 2 3v2zM819 409l-1 3-2 2c-1-3 1-4 3-5z"/>
    </g>
  </g>
  <g stroke="#000" stroke-width="0">
    <g stroke="none">
      <path fill="#dfda4d" d="M826 261l3 3 2 2h2l2 2h5l5-1 2-1h4l4-1 3-2h2l2-2h2l3-2 6-3 5-2 6-1h3l1 1 1 2v3l-3 1v-1l1-2-2-1h-2l-1 2v3l2 2 2 1h1l2-1 3-3 2-3-1-4v-2l-3-2-4-2h-6l-4 1-1 1-4 2h-2l-4 3-1 1h-2l-3 2-5 2-3 2h-2l-4 3h-7l-3-1h-2l-2-1-2-3-1-1h-2l-1 1 1 2z"/>
      <path fill="#d9d24d" d="M894 251l1 6-1 4h6l3-1h5l2 1 2-1v-4l1-4-19-1z"/>
      <path fill="#d9d34a" d="M922 258h-1l-1-2 1-1h3l2 2v3l-3 2-3 1-4-1-2-3-1-2 1-4v-3l3-2 4-1 4-1 5 2 9 3 6 3 7 4 4 2 6 2 3 1h5l4-1h2l5-6 2-1v2l-4 4-2 3h-2l-1 2-3-1-7 1-3-1-5-1-7-3-4-2-3-1-3-2h-3l-1-1-4-1-3-1-4-1h-2l-1 1-1 1-1 3 1 2 1 1 2-1v-1h-1z"/>
      <path fill="#ddd457" d="M853 388l-2 2-2-2 1-3h4l2 3-1 3-3 3-4 1-3 1h-5l-6-2-4-5-4-7-2-6-3-12-2-5v-4l-4-6 2-2 11-9h1l2-3 4-7 1-1 1-5v-8l-1-4-3-4v-1l-2-4-4-4v-1l-3-3-2-1h-2v-1l-3-1-1 2-1 3v1l2 1v-3l1-1 2 1v3l-1 2h-4l-2-1-1-3-1-3 1-2 1-1 2 1 4-1 1-1 3 1 2 2 2 1 5 6 2 2 2 4 4 7 1 6-1 5-3 8-3 5-4 6-8 6h-1l-2 2 3 7 5 20 4 8 5 6 5 2 5 1 5-2 2-2v-1z"/>
      <path fill="#dbd45d" d="M862 393l-1 1 1 2h2l2-2v-2l-2-3h-3l-3 2-2 2-1 4 3 7 3 4 9 6 9 3 6 1 4 4 2 6-2 3h-2v-1h1l1-2-1-1-2-2-2 2-1 4 2 2 3 1 2-1 2-3 1-2-1-4-4-6-4-2-9-3-7-2-4-4-4-4-3-6 1-4 3-2h1v2z"/>
      <path fill="#e5dc5e" d="M940 393l2 1v2l-2 1-3-1v-2l2-4h4l2 3 1 4-1 5-5 4-7 5-7 3-12 5-3 3-3 5 2 3h2v-4l1-1 3 1 1 3-3 3h-2l-4-2-2-2v-3l2-3 3-3 6-3 7-3 12-6 8-9v-3l-2-2h-2z"/>
      <path fill="#d7d643" d="M950 387v2h1l2-1v-2l-1-2h-4l-2 2v3l1 3 2 3 4 2 4 1h6l6-4 6-4 3-6 3-12 4-14 3-6 2-2h-2l-5-4-6-3-6-8-4-7-1-9 2-10 4-7 7-5 6-5h6l1 3-1 2-1-2h-2l-1 3 2 2 4-1 1-2v-4l-3-3-5 1h-4l-4 3-5 5-3 4-4 7-2 6v11l6 11 5 6 9 6 1 2-2 6-4 13-3 11-2 4-7 6-8 3h-7l-3-2-1-3v-3h2z"/>
    </g>
    <g fill="#5db7d2" stroke="none">
      <path fill="#44b3cc" d="M891 285v3l1 7 3 20h2v-3l-6-27z"/>
      <path fill="#50aece" d="M900 314l-6-29 4 29h2z"/>
      <path fill="#50afce" d="M901 313h3l-9-28 6 28z"/>
      <path fill="#50abce" d="M897 283l11 29-2 1-9-30z"/>
      <path fill="#50b0ce" d="M909 311l-10-29 13 29h-3z"/>
      <path fill="#50b3ce" d="M913 310l-12-28 14 28h-2z"/>
      <path fill="#64b4d1" d="M822 259h-1l-2 2-1 2v3l1 3 2 2 2 2-1 3-3 2-4 3-1 2-1 2 1 2v1h3l1-1h5l3 3 5 4 2 3-1-4-1-4-1-5 1-2 1-2 2 1 1-1 1 1 1-1 2 1 3-2 3-2h5l1 1 3-2 2-2 3 1 3 1 1-1h3l3-1 2 2 1 4 2 1h1l1 1 2 4 1 3 1 4v2l1-1 1 2 2 1 1 1v2h1l1-1h2l1 2h2l-3-17-2-1v-4l5-2v-4l-2-2h-2l2-5 4 4-2 1 2 6 7-1 1 2v1l1 1v2l2 3 6 12 5 11 3-2 2-1 3-2h1l2-2h3l4 4 1-1h5l1 3v1l2-1 5 1 3 3 2 1 1 1 1-2 1 1h7l2-6 4-5 5-6 5-4 4-2 4-1h4v-3l-2-3-3-5-1-4v-2l3-2 4-3v-3l-1-4-2-3-1-1h-1l-2 1-3 5-4 4-4 2-6 1-8-1-6-2-7-3-8-4h-4l-7-4h-2v1l2 2-1 4-1 1-3 1h-5l-3-1-3-1h-6l-6 1h-7l-4 3-3 1-3-1-4-4v-2l3-3-2-1-8 3-4 3-3 2h-2l-3 2h-3l-1 2h-1l-5 1-5 1-6 1-6-1-4-2-2-2-2-1-2-3v-2h-1z"/>
      <path d="M894 319v3h2v-4l-2 1zM897 318v3h2v-4l-2 1zM900 317v3h2v-3h-2zM904 316v3h1l1-3h-2zM907 316v2h2v-3l-2 1zM911 315v2h2l-1-3-1 1z"/>
    </g>
    <g fill="#ccc" stroke="none">
      <path fill="#fffcfc" d="M974 346v4h3v-1l-2-2v-1h-1z"/>
      <path d="M917 310l-1-1 2-2h3l2-2 3-2 3-1 4 4-1 1h-2l-2 1-2 1h-6l-1 1h-2zM936 306l1-1h2l2 3v1h5l3 1 2 2 3 2h1v-1h3l2 1 2-1v3l-1 2 1 5 3 10 5 9-2-1-5-1-1 1h-2l-2 2h-1l-1 1-2-3-6-8-2-2-3-8-5-11-1-4-1-1v-1zM934 365l2 1v-1l2 1h3l2-2 1-4 4-7 3-2h1l3-3 5-3 2-1 4 1 3 1 1 3v6l2 2 1-1 2-2 3-1h3l-1 4-1 5-1 6-3 10-3 6-6 5-5 3h-8l-3-2 4-1 1-2v-3l-3-2h-3l-3 3-2 1v3h-2l-3-1-2 2-2 2v3l1 3 1 1 3-1h2l-3 3-4 4-4 3h-3l-5 2-4 2h-4l-4 4-3 2-2 3-1 5v3l2 3v1h-1l-1-1h-4l-1-1h-1l-3 1-1 1-2-1 2-2v-3l-1-4-2-4-2-2-4-2-7-2-7-3-5-3-2-3-1-4 1 2-1-5 2 2 1 1 3 3 2 1h2l2 1 3 1h3l-3-1-4-2-4-2-2-3-1-2h-1v-1l1-1h2v1h1l2 1 3 1h3l-2-1-4-2-3-3h-1l-3-5-2-5-2-6v-6l2-5 3-5 2-1h1l4-2 2-1h3l3 1 3 1 2 2h2v1l-1 1 1 1v2l1 1v2l-2 2 1 2v1l2 2 1 2 3 1h6l4-1h3l-1-1h2l2-1 4-3 4-6 2-4 5-5 2-1 4-2h5l1 1 2 1 2 2 1 6-3 2h-2l-2-1v1h-2zM860 387v-1h2v-4l-1-1v-2l-1-1v-19l-2-4-1-3-1-1h-2l-3 1-1 1-3-1h-1l-2-1-1-2-3-1-2-1h-5l-2 1-2 2-1 3v4l1 1v5l-1-2-2-3v-3l-1 1v6l1 2 1 3 1 4 1 4 1 4 2 3 2 2 3 4 3 2 3 1h4l2-1-2-1v-2-2l2-2 5-1 2 2 2 2 2 1zM914 314v2h1v-2h-1zM916 313v2h1v-2h-1zM918 313l1 2h1v-3l-2 1zM922 312v2h1v-2h-1zM925 311v2h1v-2h-1zM927 310v3h2v-2l-2-1zM930 310v2h1v-2h-1zM932 310v2l2-1v-3l-2 2z"/>
    </g>
    <path fill="#76401b" d="M890 267l-1 4 5-1-4-3z" stroke="none"/>
    <g fill="#784421" stroke="none">
      <path d="M932 352l-5 1-3 3-4 4-4 6-4 5-7 3h-7l-5-1-1-3-1-4-1-4-1-3-2-3-3-2 3-12 1-2v-8l3-4 2-3 4-2 8-2 8-2 7-2 9-2h4v4l1 2v13l-1 12-1 6zM934 351l5 1 3 3 2 2 2-2 1-3 3-2 5-4-4-7-2-3-4-4-3-7-5-9h-2v25l-1 10z"/>
      <path fill="#a05a2c" d="M887 279v4l14-5v-1l-14 2z"/>
    </g>
    <g fill="none" stroke="none">
      <path d="M847 359v4l2 3 4 4-3-3 3 4-5-3 4 3-4-7-1-5zM841 374l-1 1h-3v3l4 6-4-5v-4h3l1-1zM837 383l-1-2v-3l1 5z"/>
    </g>
    <g fill="#666" stroke="none">
      <path d="M887 370l-1 1-2 1-3-1-2-2 2 2h5l1-1zM891 375v3l2 4 2 1-4-8z"/>
      <path fill="gray" d="M898 384l-2-1-2-2-2-4 2 3 4 4z"/>
      <path d="M880 371l1 9v4l2 2 1 3 1-1 2 1-2-2-1-3-2-2-1-5v-4h1v-1l-2-1z"/>
      <path fill="gray" d="M921 385h3l3-3 1-1 1-2v4l1 1 2 1 1 1h2l4-2 2-2 2-2 1-1 1-3h1v-4l-1-2-1-2-3-2h-1l3 3 2 2v4l-1 1-3 4-3 4-2 1-4-1-1-2-1-1v-4l-4 5h-1l-4 3zM972 357h1l1 1v6l-1 3-3 4-4 1-4 1-2-1-1-1v-6 4l2 1 2 1 2-1h3l2-2h-1l1-1h1l2-3v-5h-1v-2z"/>
      <path d="M887 407l-5 2-5 2-3-1 6 2 2-1 3-2 2-2z"/>
      <path fill="#999" d="M892 418h2l2 1h3l-2 2h2l-3 1-2 1 1 1h5l1 1v1h-5l1 1h3l-3 2h4l3 1v1l-3 1-1-1-4 1-1 1-1-1 1-3v-3l-1-2-1-3-1-3z"/>
    </g>
    <g fill="#e2d67e" stroke="none">
      <path fill="#e4cb5e" d="M869 275h-4l-2 1-2 1-1-1h-1l-3-1-3 2-2 1h-1v-1l-2 1-1-1h-1l-6 4-2-1-1 1-1 1v1l-1-3-1 1-1-1-1 2-1 3 1 5 2 5 1 2 1 1 1-2v3l1 1v5l4 9 1 4v8l-2 2-1 2v1l-2 4v11h2l1 2 3-1v-1 2l2 2 2 2h1l1-1v-6 6h1l2-1h3l1 1 1 1 1 1 1 1v-14l-1-10-1-14v-22h-1v-2l2-1h1v-2l-1-5v-2l1-1h1l1 1 2 9h5l8 13 3 4 3 7 6 8 1 2h1l1-8 2-2-2-13-2-1-2-2-1 1-1 2-2-2v-2l-1-1h-1l-1-2h-1l-1 1v-6l-1-3-1-2-2-3-3-1-1-3v-1l-2-2z"/>
      <path fill="#dcc56a" d="M871 356l-2-2v-2l-1-5v-5l-1-7-2-10-1-7v-4l-1-5-1-4v-7l1 4 2 8 2 7 1 4v2l1 3 1 5 2 8 3 8 1 5v2l-2 1h-2l-1 1z"/>
      <path fill="#e2cc75" d="M883 354l1-6 1-4 1-3v-7l-1-2-4-9-3-6-1-3-2-3-3-6-3-4-2-4-2-3v1l2 7 1 5 1 7 3 8 1 6 2 3 1 5 4 12v3l2 3h1z"/>
      <path fill="#ddd690" d="M864 358l-2 1v1h3v-1l-1-1zM862 355v2h2l1-2-1-1h-1l-1 1zM866 354v2h3v-2h-3zM865 352v1h2l1-1-1-1-2 1zM861 352v1l1 1 2-1v-1h-3zM861 350v1h2l1-1-1-1-2 1zM866 349l-1 1h2l1-1-1-1-1 1zM861 346v1l1 1 1-1 1-2h-2l-1 1zM865 345v2h2v-2h-2zM863 343h-2v2l2-1v-1zM865 342l-1 2h2l1-3h-1l-1 1zM864 339v1h3l-1-2-2 1zM862 340l-2-1 1 2h2l-1-1zM860 336v2h3l-1-2h-2zM864 336v2h2v-2h-2zM862 334l-1 2-1-2 1-2 1 2zM864 333l-1 1h3v-1l-1-1-1 1zM861 331h-1v1h2l-1-1z"/>
      <path d="M863 330v2h2v-2h-2zM863 327v1h2v-1h-2zM860 328v2l2-1v-1h-2zM860 325l-1 1h1l1-1v-1l-1 1zM863 323l-1 2 1 1h1l1-2-2-1zM860 322v2l1-1v-1h-1zM862 321v1l1 1h1v-1l-1-1h-1zM860 319v2h1v-1-1h-1zM862 319v1h1v-1h-1zM860 317l-1 1 1 1 1-1-1-1zM862 317v1h1v-1h-1zM859 314v2h2l-1-1v-1h-1zM862 314l-1 1h2v-1h-1zM859 312v1h1v-1h-1zM862 312l-1 1h1l1-1h-1zM859 309v2l1-1-1-1zM861 309v1h1v-1h-1zM859 307l-1 1 1 1 1-1-1-1zM861 306l-1 1 1 1 1-1h-1v-1zM859 306v1l1-1h-1zM860 305v1l1-1h-1zM859 304h-1l1 1h1v-1h-1zM859 302l-1 1h2l-1-1zM859 301l-1 1h1v-1zM860 302h1-1zM860 303v1h1l-1-1z"/>
      <path fill="#d3c55f" d="M886 327l-1 1v2l2 1 1-2-2-2z"/>
      <path fill="#d3c75f" d="M888 324l-1 2 1 2h1v-2l-1-2z"/>
      <path d="M886 322l-1 1 1 1v2l1-1 1-2-1-1h-1z"/>
      <path fill="#d3c95f" d="M884 324h-1l1 2 1 1 1-1-1-2h-1z"/>
      <path d="M882 320l-1 1 1 2 1 1 1-1v-1l-1-1-1-1zM884 320v1l1 1 1-1-1-2-1 1zM883 317l-1 1 1 1h1v-1l-1-1zM881 318l-1 1v1h1l1-1-1-1zM880 316h-1v1l1 1 1-1v-1h-1zM882 315v2h1v-1l-1-1zM880 313v2h1l1-1-1-1h-1zM879 313l-1 1v1h2l-1-1v-1zM878 312h-1l1 1h1l-1-1zM880 311l-1 1h1v-1zM876 310v1h1v-1h-1zM878 309v1h1l-1-1zM875 308v1h1v-1h-1zM877 308v1h1v-1h-1zM876 307h-1v1h1v-1zM876 306v1h1v-1h-1zM875 305v1h2l-1-1h-1zM875 305h-1v1h1v-1zM872 301v1l1 2h1l-1-1v-1l-1-1zM873 301h-1l2 1v1l1 1h1l-1-1v-1h-1v-1h-1z"/>
    </g>
    <g fill="none" stroke="none">
      <path fill="#000" d="M852 283l-1 8 1 3v16l-4-5 4 5 1 5 1 2-1 2v17l-3-10v20-11l2-2 2 5v3-10"/>
      <path d="M836 283l-1 5 1 3v5-5l-1-3 1-5zM841 286v6l1 2-1 7 1 2v11M847 278l-1 3 1 4v3l-1 6M878 291v7l1 5 1 4M886 302l1 17M842 327v10l1 4v5"/>
    </g>
    <g fill="#d38d5f" stroke="none">
      <path d="M893 345v-1l8-2-1 1v5M914 341v-2l7-1h-2l1 5M898 358v-2l6-1v6M912 355v-2l7-2 1 6M890 333v4l-1 1v-2l1-3zM894 332v5h-1v-4l1-1zM897 332h-2v4l2-1v-3zM900 330l-1 1v3h2l-1-4zM904 329l-2 1v4l2-1v-4zM907 328l-1 1v4h2l-1-5zM912 328h-2v3h2v-3zM916 326l-2 1v3h2v-4zM919 325l-1 1v3h2l-1-4zM923 325l-1 1v2h2l-1-3zM927 324h-1v3h1v-3zM932 323l-2 1v2h2v-3z"/>
    </g>
    <g stroke-width="1">
      <path fill="#fffcfc" d="M892 369l26-6"/>
      <path fill="#c87137" d="M885 352l3 1 45-11M888 341l7-1 38-11"/>
      <path fill="none" d="M935 328l7-1"/>
      <path fill="#fffcfc" d="M935 342l15-4"/>
    </g>
  </g>
  <path fill="none" stroke="#000" stroke-width="8" d="M767 145v254c3 36 79 59 132 98 69-47 136-56 139-108l1-244H767z"/>
</svg>
