<svg xmlns="http://www.w3.org/2000/svg" xmlns:xlink="http://www.w3.org/1999/xlink" width="600" height="300" viewBox="0 0 10080 5040">
  <defs>
    <path id="a" d="M0-360l69 216 212-80L156-36 351 80l-226 20 31 224L0 160l-156 164 31-224-226-20 195-116-125-188 212 80z"/>
    <path id="b" d="M0-210L55-76l145 11L89 29l34 141L0 93l-123 77 34-141-111-94 145-11z"/>
  </defs>
  <path fill="green" d="M0 0h10080v5040H0z"/>
  <circle cx="5040" cy="2520" r="1050" fill="#ffe000"/>
  <circle cx="5367" cy="2520" r="864" fill="green"/>
  <circle cx="1730" cy="1470" r="1100" fill="#ffe000"/>
  <path fill="#802000" stroke="#7b3100" stroke-width="23" d="M1654 2299h275s12-25-3-37-74-16-58-60c33-92 37-64 58-281s30-559 30-559h-39s7 107-16 245-29 150-55 256-29 115-52 177-25 65-61 122l-42 70c-10 17-22 13-29 25-7 13-8 42-8 42z"/>
  <path fill="green" d="M1864 669c2 42-2 99-20 145-18 51-37 102-36 155-29 10-58-62-86-20 21 58 68 104 101 157 6 16 53 58 25 68-68-24-85-110-127-163a299 299 0 0 0-244-156c-39 1-164-10-131 56 48 33 107 54 154 91 35 3 99 62 96 85-62-26-92-56-158-82-91-35-217-14-267 76-9 23-23 92 7 98 34-54 83-114 156-98 57 5-64 107-18 86 15-6 49-28 73-31 23-2 36 16 54 18 36 5 46 20 42 29-4 10-15 1-51 13-18 5-28 21-49 29-21 7-65 7-82 1-57-25-152-21-169 51-1 32-29-3-42 11-10 34-12 70-63 67-32 32-63 66-103 89 23 54 115-53 111-8-40 55 21 66 47 24 45-48 101-106 168-58 32 31 51-15 74-13 15 37 33 2 50-9 27-3 19 34 52 11 64-42 143-7 206-48 67-30 9 25-9 46-30 57-4 132-68 167-25 68 30 158-27 208-8 31 74 28 97 41 40 1-2-92 38-105 53 33 50-59 39-87 6-65 9-135 41-194 34-71 66 29 28 58-22 66-53 148-4 210 14 3 26 37 44 48s44-3 48-34c24-95 12-196 46-288 24-28 56-5 71 22 47 54 81 123 138 168 52 25 98 61 122 115-1 41 117 48 82 2-34-45-11-90 23-120 18 5 13-28-2-15-23-5-24-47 8-27 54 17-4-39-24-41-45-28-98-61-120-110 59 1 121 33 181 13 49-25 98 2 115 45 37-6 22-44 0-56 27-12 46-35 13-56-17-23 24-62-27-60 2-39-13-74-56-88-42-35-165 53-162-27-12-44 50-6 68-28 18-46-86-42-52-78 23-14 128-35 45-50-41 11-76 2-109-18-30 50-114-27-99 61-12 33-88 120-108 54 17-52 107-69 79-139-4-44-40 8-57 4-9-27 26-59 50-65 48 37 50-47 95-40 34-8-11-22-20-28 9-25 61-37 10-58-44-33-77 33-113 36-35-40 31-59 50-79 1-16-39-5-27-19 10-18 81-20 48-48-50-17-114-13-162 10-30 9-39 78-65 75-13-31 4-91-38-99zm236 667c38-7 1 58-18 57 2-23-55-21-19-41 11-8 24-13 37-16z"/>
  <g fill="#ffe000">
    <use xlink:href="#a" x="7560" y="4200"/>
    <use xlink:href="#a" x="6300" y="2205"/>
    <use xlink:href="#a" x="7560" y="840"/>
    <use xlink:href="#a" x="8680" y="1869"/>
    <use xlink:href="#b" x="8064" y="2730"/>
  </g>
</svg>
