<svg xmlns="http://www.w3.org/2000/svg" width="1200" height="800" viewBox="0 0 3600 2400">
  <path fill="#e32118" d="M0 0h3600v2400H0z"/>
  <path fill="#fff" d="M0 0h3600v1600H0z"/>
  <path fill="#3e9a00" d="M0 0h3600v800H0z"/>
  <path d="M0 0v2400l900-1200z" fill="#0073ce"/>
  <g stroke="#000">
    <path fill="#fff" stroke-width="5" d="M1608 959h383v401c0 135-176 31-191 103-26-74-191 33-191-111l-1-393z"/>
    <path fill="#73452b" d="M1827 1399s-5 5-14 1-10-257-10-257c20-22 36-29 36-29l12 10c-45 23-41 56-37 113 1 21 1 48 6 74 7 33 21 61 22 82 1 13-15 6-15 6z"/>
    <path fill="#73452b" d="M1796 1108h18c-15 145-2 231-2 273 0 14 8 19 7 19-18 20-27-1-27-1z"/>
    <path fill="#a36629" d="M1768 1399c-17 8-19-8-18-10 37-75 53-240 19-258l2-16c13 4 25 21 25 21 5 185 0 261-3 264-18 19-25-3-26-5"/>
    <path fill="none" d="M1767 1396c-3-16 26-57 24-100M1816 1331c9 25 13 47 11 68"/>
    <path fill="#009a3b" d="M1855 1040c6-7 6-7 17-7 2-15 27-15 29 4 20-4 24 8 16 20 19-5 36 0 31 22 34 9 21 33 6 38-2 15-16 20-35 14-24 17-38 11-49-6-27 4-29-2-41-17-21 9-25 9-43-2-1 14-6 10-15 9 1 18-6 26-22 20 12 25-19 36-34 15-14 1-15-3-22-8-6 20-28 17-32 6-28-4-25-19-2-20 2-16 16-13 25-11 1-10 7-8 12-6-3-7-1-11 8-13-13-17-5-23 8-29-7-16 5-15 14-16-1-17 4-20 22-22-2-6 1-11 11-11-6-17 2-21 20-18 3-25 56-13 52 21 15 2 20 5 24 17z"/>
    <g fill="none">
      <path d="M1748 1031c4 2 9 0 10 11 8-14 18-6 18 10M1831 1023c-4 6-19 6-17 22-5-7-15-9-19-2M1855 1040c0 4-1 16-5 22M1917 1057c1 1-14 0-21 5M1954 1117c-4-2-12-7-18 1 0-4 0-15-11-15M1919 1131c0-10-2-13-4-16M1886 1117c-8-6-16 3-16 8M1828 1108c0-4-3-12 4-15M1714 1150c2-10 9-10 8-15-1-8-10-15-21-4M1722 1135c6-2 12-1 14 2M1705 1098c4-4 14-3 20 0M1725 1074c5 0 14-2 17 7 11-17 19-15 21-11M1783 1068c8-3 22 5 30 19 4-11 10-9 16-10M1867 1087c13-6 21 6 25 11 6-8 11-8 17-8M1746 1111c3-5 10-6 15-3-1-9 5-13 9-11"/>
    </g>
    <g fill="gold" stroke-width="4">
      <path d="M1787 903l-22 1-11 19-12-18h-22l10-19-12-19 23-1 10-20 12 19 22-1-10 20zM1693 910l-22 5-6 22-16-16-21 5 6-21-15-17 21-5 6-21 16 16 22-6-7 22zM1602 929l-20 10-1 22-19-12-20 9 2-22-19-12 20-10 2-22 18 12 20-10-1 22zM1816 903l22 1 10 19 12-18h22l-10-19 12-19-22-1-11-20-12 19-22-1 10 20zM1910 910l21 5 6 22 16-16 21 5-6-21 16-17-22-5-6-21-16 16-21-6 6 22zM2000 929l20 10 1 22 19-12 20 9-1-22 18-12-20-10-1-22-19 12-20-10 2 22z"/>
    </g>
    <g>
      <g fill="#fff" stroke-width="4">
        <path d="M2027 1352l25 36 23-34-16-29zM1868 1457l2 36s10 0 19-3c8-3 15-9 15-9l-1-19zM1734 1457l-2 35-18-2c-8-2-15-7-15-7l-10-24zM1573 1352l-26 36-28-46 21-22z"/>
        <path d="M1698 1529c0 34 206 34 206 0v-48c0 25-206 20-206 0z"/>
        <path d="M1514 1418c18 92 184 94 184 94v-31c-4-12 3-16 30-20 11-1 6-17 6-17s-72 13-123-7c-69-28-79-82-79-82s-5 42-18 63zM2087 1418c-17 92-183 94-183 94v-31c3-12-4-16-31-20-11-1-5-17-5-17s72 13 123-7c68-28 76-82 76-82s7 42 20 63z"/>
        <path d="M1527 1383c-46-25-10-51-6-125 7 45 58 64 52 93-21 1-31-31-41 4l-5 28zM2074 1383c46-26 8-51 4-125-7 45-57 64-51 93 20 1 30-31 40 4l7 27z"/>
      </g>
      <g stroke="none">
        <path d="M1555 1417l5 4-11 12c-4 5-5 8-2 11 3 4 6 2 10-2l12-13 4 4-12 14c-6 8-13 6-18 1-4-4-7-10 0-17l12-14zM1575 1434l5 3-1 24 11-17 5 3-16 26-6-3 1-24-11 17-5-3zM1584 1476l14-28 5 3-13 27zM1606 1452l-11 29 11 4c10 4 15-1 18-9 4-9 2-16-8-20l-10-4zm4 7c10 4 11 8 8 15-3 6-5 9-15 4l7-19zM1639 1463l-18 27 7 2 4-7 12 3 1 7 7 1-7-32-6-1zm2 7l2 12-8-1 6-11zM1656 1466l-1 31h12c11 0 14-6 14-15 0-10-3-15-14-16h-11zm6 5c11 0 13 4 13 11-1 7-2 11-13 9v-20zM1761 1509v32h7v-12l11-1c4-1 7-4 7-10s-4-9-10-9h-15zm7 5h7c6 0 5 9 0 9h-7v-9zM1797 1509l-13 32h7l3-8h13l3 8h7l-13-32h-7zm3 7l5 12h-9l4-12zM1817 1535l17-21h-15v-5h24v5l-18 21h18v6h-26zM1918 1473l6-1 3 18c1 6-2 11-6 12-6 2-12 1-13-8l5-1c1 5 3 6 6 5 2-1 3-4 2-7zM1928 1471l6-1 3 15c1 6 3 9 7 8 5 0 6-3 5-9l-4-16 6-1 4 17c2 9-3 13-9 15-6 1-13-1-15-10zM1959 1485l5-2c2 4 6 4 9 3 4-2 5-6 3-7-3-2-10 1-14 0-4-2-6-5-6-8 0-5 4-8 9-9 5-2 10-1 13 5l-6 2c-2-3-4-3-7-2-2 1-4 2-3 5 1 2 9 1 13 1s7 3 7 7c1 5-1 8-7 10-8 3-15 0-16-5zM1986 1460l-8 4-2-5 22-9 2 4-8 4 9 22-5 3zM1999 1449l5-3 14 26-5 3zM2033 1451l6-2c3 6-1 17-12 16-15 0-17-17-14-22 4-9 15-9 20-4l-5 4c-3-4-10-2-11 2 0 6 2 12 8 15 4 2 11-4 8-9zM2030 1430l5-4 18 24-5 4zM2049 1415l-5 4 11 30 5-5-3-6 9-8 6 3 5-4-28-14zm2 7l10 5-6 6-4-11z"/>
      </g>
    </g>
  </g>
</svg>
