<svg version="1" xmlns="http://www.w3.org/2000/svg" xmlns:xlink="http://www.w3.org/1999/xlink" width="1000" height="600">
  <path fill="#002b7f" d="M0 0h1000v600H0z"/>
  <path fill="#ce1126" d="M0 300h1000v300H0z"/>
  <g fill="#ffd83d" stroke="#000" stroke-width="2" stroke-linecap="round" stroke-linejoin="round">
    <g id="a">
      <path d="M216 122l-1 63h-64c-8-15-14-28-14-46 0-14 11-26 28-26s37 6 51 9z" stroke="none"/>
      <path d="M144 125v36M150 121v49M155 119v57M160 118v45M165 118v45M170 116v47M175 116v47M180 116v47M185 117v47M190 120v47M195 120v53M200 120v47M206 120v47"/>
      <path d="M176 118c11 2 35 13 32 28-4 21-16 12-33 9l-12 5c-4 4-11 8-15 3h-8v28h82v-69z" fill="#000"/>
      <circle cx="213" cy="113" r="5"/>
      <circle cx="202" cy="110" r="5"/>
      <circle cx="190" cy="107" r="5"/>
      <circle cx="179" cy="106" r="5"/>
      <circle cx="168" cy="104" r="5"/>
      <circle cx="157" cy="105" r="5"/>
      <circle cx="146" cy="109" r="5"/>
      <circle cx="137" cy="115" r="5"/>
      <circle cx="131" cy="124" r="5"/>
      <circle cx="128" cy="135" r="5"/>
      <circle cx="128" cy="146" r="5"/>
      <circle cx="130" cy="157" r="5"/>
      <path d="M215 120v6c-13-2-30-9-46-9-15 0-27 6-27 21s6 29 15 43l-9 4c-8-15-14-28-14-46 0-14 11-29 31-29 17 0 35 6 50 10z"/>
    </g>
    <use xlink:href="#a" transform="matrix(-1 0 0 1 444 0)"/>
    <path d="M222 53l-5 10 5 9 5-9-5-10zm0 25l-5 9 5 10 5-10-5-9zM204 75l8 5 8-5-8-5-8 5zm20 0l8 5 8-5-8-5-8 5z"/>
    <circle cx="222" cy="75" r="4"/>
    <circle cx="222" cy="100" r="10"/>
    <path d="M219 90v7h-7m20 0h-7v-7m-13 13a61 61 0 0 1 20 0" fill="none"/>
    <path d="M212 118c-1 17-3 34-10 47l11-5c4-14 4-32 6-41l-7-1zm20 0l-7 1c1 9 2 27 6 41l11 5c-7-13-9-30-10-47z"/>
    <path d="M222 155c-13 0-22 6-23 21-3-5-17-23-29-20-7 1-14 11-13 23-6-18-24-20-37-10 12 10 17 38 27 50h150c10-12 15-40 27-50-13-10-31-8-37 10 1-12-6-22-13-23-13-3-26 15-29 20-1-15-10-21-23-21z"/>
    <path d="M297 219c0 6-34 12-75 12-42 0-75-6-75-12s33-8 75-8c41 0 75 2 75 8z" fill="#000"/>
    <circle cx="222" cy="114" r="4"/>
    <circle cx="222" cy="122" r="4"/>
    <circle cx="222" cy="130" r="4"/>
    <circle cx="222" cy="139" r="5"/>
    <circle cx="222" cy="149" r="5"/>
    <path d="M220 159l-1 2 1 4h1v-4l-1-2zm4 0l-1 2v4h1l1-4-1-2zm-8 1l-1 1 1 4h1v-4-1h-1zm11 0v5h1l1-4-1-1h-1zm-15 2l-1 1 1 4h1v-4l-1-1zm20 0l-1 1v4h1l1-4-1-1c0-1 0-1 0 0zm-59 0l-1 1 2 4 1-1-1-3-1-1zm98 0l-1 1-1 3 1 1 2-4-1-1zm-94 0l-1 1 2 4h1l-1-4-1-1zm90 0l-1 1-1 4h1l2-4-1-1zm-85 1l-1 2 2 3c0 2 1 1 1 1l-1-5-1-1zm80 0l-1 1-1 5s1 1 1-1l2-3-1-2zm-93 0l-1 2 2 3 1-1-1-3-1-1zm106 0l-1 1-1 3c0 1 0 2 1 1l1-3v-2zm-67 3l-1 2 1 3c0 2 1 1 1 0v-4l-1-1zm28 0l-1 1v4c0 1 1 2 1 0l1-3-1-2zm-14 1l-1 2-2 6c-1 2-2 1-3 1l-4-2c-1-1-2-1 0 1 4 7 9 13 9 23l1 2 1-2c0-10 5-16 9-23 2-2 1-2 0-1l-4 2c-1 0-2 1-3-1l-2-6-1-2zm-35-1l-1 1 1 4c1 1 2 0 1-1v-3l-1-1zm70 0l-1 1-1 3c0 1 1 2 2 1l1-4-1-1zm-91 0l-1 2 3 3c0 1 1 1 0 0l-1-4-1-1zm112 0l-1 1-1 4c-1 1 0 1 0 0l3-3-1-2zm-144 4v1l2 3c1 1 1 0 1-1l-2-3h-1zm176 0h-1l-2 3c-1 1 0 2 1 1l2-3v-1zm-171 1v1l1 4c1 1 2 1 2-1l-1-3-2-1zm166 0l-2 1-1 3c-1 2 1 2 1 1l2-4v-1zm-176 0v1l3 2h1l-3-3h-1zm186 0h-1l-3 3h1l3-2v-1zm-110 1l-1 1 1 3c1 2 2 2 2 0l-1-3-1-1zm34 0l-1 1-1 3c0 2 1 2 2 0l1-3-1-1zm-64-2v1l1 9c0 1-1 2-2 1l-2-1c-1-1-2 0-1 1 6 5 10 10 12 17 0 2 1 2 1 0-1-8-2-16 0-20 1-2 0-3-1-1s-2 3-3 1l-4-7-1-1zm94 0l-1 1-4 7c-1 2-2 1-3-1s-2-1-1 1c2 4 1 12 0 20 0 2 1 2 1 0 2-7 6-12 12-17 1-1 0-2-1-1l-2 1c-1 1-2 0-2-1l1-9v-1zm-125 2v1l1 4 1-1v-3l-2-1zm156 0l-2 1v3c0 1 0 2 1 1l1-4v-1zm-137-2v2l3 4c1 1 1 0 1-1l-3-4-1-1zm118 0l-1 1-3 4c0 1 0 2 1 1l3-4v-2zm-132 4l-1 1 1 3h1v-3l-1-1zm146 0l-1 1v3h1l1-3-1-1zm-133 2l-1 1 3 3h1l-2-4h-1zm120 0h-1l-2 4h1l3-3-1-1zm-141 4v1c2 2 3 5 3 7 1 1 0 1-1 1l-4-2c-2 0-2 1-1 1l15 14 1 1c-2-5-2-10-2-13l1-6h-1l-1 3c-1 1-2 1-3-1l-6-6h-1zm162 0h-1l-6 6c-1 2-2 2-3 1l-1-3h-1l1 6c0 3 0 8-2 13l1-1 15-14c1 0 1-1-1-1l-4 2c-1 0-2 0-1-1 0-2 1-5 3-7v-1z" fill="#000" stroke="none"/>
    <path d="M150 213l2 6m2-8l2 7m2-7l2 6m2-7l2 6m4-7l1 7m4-7l1 7m4-8l1 6m5-6v6m4-7l1 7m4-7l1 6m5-6v6m4-7l1 7m4-7l1 7m5-7l1 6m79 1l-2 6m-2-8l-2 7m-3-7l-1 6m-3-7l-1 6m-4-7l-1 7m-4-7l-1 7m-5-8v6m-5-6v6m-4-7l-1 7m-4-7l-1 6m-5-6v6m-4-7l-1 7m-5-7v7m-6-7v6m-7-6v7"/>
  </g>
</svg>
