<svg xmlns="http://www.w3.org/2000/svg" xmlns:xlink="http://www.w3.org/1999/xlink" width="1200" height="600">
  <path fill="#ffb700" d="M0 0h1200v600H0z"/>
  <path d="M50 300L215 50h165v500H215z" fill="#ff5b00"/>
  <path fill="#005641" d="M50 50h165v500H50z"/>
  <path fill="#8d2029" d="M430 50h725v500H430z"/>
  <path id="a" d="M1086 466s7 14 14 20c12 8 34 7 44 17 12 12-1 27-1 28l1 8-11 1c-5 0-7 4-16 4-24-2-23-23-24-40l-5-23c-2-6-2-15-2-15z" fill="#ffb700" stroke="#000" stroke-width="2"/>
  <use xlink:href="#a" transform="matrix(-1 0 0 1 1585 0)"/>
  <use xlink:href="#a" transform="matrix(1 0 0 -1 0 600)"/>
  <use xlink:href="#a" transform="rotate(180 793 300)"/>
  <use xlink:href="#b" stroke="#000" stroke-width="6"/>
  <g id="b" fill="#ffb700">
    <path d="M682 480l4-3 2 3c2 3 9 3 14-1l3-2 3 2c4 4 11 4 16 0 3-2 3-2 5 0l9 3c6 0 6 0 9-5 3-4 3-6 3-10l-1-10c-1-5-1-5 7-7l10-4c2-2 10-11 10-13l-7-2c-14-1-17-9-7-24a136 136 0 0 0 26-70c4 6-2 31-12 49l-4 7 4-1 26-11c34-16 46-19 68-18 19 1 26 5 39 18 7 8 14 13 26 21 26 16 27 17 29 36 1 20 0 21-14 24-13 3-21 9-23 17-1 4 1 4 8 0l4-3 2 3c3 4 9 4 14 0l3-3 4 3c6 5 13 4 15-2 1-1 2-1 4 1 4 4 15 5 16 2 1-1 0-3-2-6-6-9-8-13-8-18 0-8 2-11 10-17 10-7 13-16 5-16-4 0-9-4-12-10-6-14-5-29 4-54 10-26 11-30 11-47 0-14-1-17-4-24l-8-15-6-7 7-6c20-17 16-44-8-55-8-3-10-3-23-3l-26 2c-7 2-19 3-27 3-12 0-15-1-20-3-5-3-6-4-7-11l-2-2c-1-1-9 6-11 9 0 2-1 1-2-1l-4-6c-2-7 1-11 8-15l5-2-3-2c-7-5-18-2-22 5l-3 4-5-4c-9-9-6-22 6-26 6-2 11 0 13 4 1 7 7-2 6-9-1-5-1-6 3-6 5 0 15 7 18 12 4 5 4 15 0 21l-4 6 5-1c6-1 12-5 15-10s3-14 0-19c-2-5-2-6 2-5 7 3 11 6 13 12 3 5 3 6 2 11l-4 9c-3 3-3 4-1 4 3 0 10-3 13-6l4-7 1-5 2 4c3 5 9 9 16 12s10 4 6 1c-2-2-7-16-6-18 1 0 11 7 22 17s18 13 28 13c12 0 19-11 14-21-3-6-11-7-15-2-2 3-3 4-2 7s0 3-2 3c-4 0-11-4-24-15-19-16-43-30-60-35-11-3-35-4-46-2-12 2-26 9-34 16-14 13-14 31 0 46l3 5-2 4c-4 6-4 14 1 20l4 4 1-3c0-5 2-9 6-10s6-1 21 5c17 7 43 7 72 2 14-3 30-3 38 0 13 5 16 20 6 31-4 5-8 7-22 10-10 3-13 3-36 3-21 0-28 0-36 2-9 2-15 2-41 1h-30l3 3 6 4c2 1 2 1-1 2l-10 2h-7v5 8c0 2 0 2-2 1l-8-2-9-3c-4-2-4-2-5 1-1 2-12 9-14 9v-3l-4-11-4-9c0-2-1-3-2-1l-1 6-4 9-3 4-1-4c-2-4-5-8-7-8l-1 3c-1 3-8 12-10 12l-1-6-1-5-2 2c0 2-6 9-8 9l-3 2c-3 2-5 2-4-1v-7l-2-6c-1-1-3 0-8 1-7 2-10 2-6-1 2-1 4-5 5-9l4-7v2l-2 5-2 6-2 4 7-3 6-3v3l1 8 2 6 4-2c4-2 8-9 8-14 0-3 2-2 2 0l2 7 2 6 3-4c2-2 4-5 4-8 2-4 4-6 4-3 0 2 7 11 8 10 0 0 2-3 2-7 2-7 5-12 7-11l1 1a4796 4796 0 0 1 8 23c1 2 1 2 6-3l6-6h4c3 3 16 7 17 6l1-8v-7l4 1h9l6-1-5-3-6-6-6-2c-8-1-22-9-22-12l4 2c6 5 13 8 19 8h5l-3-4c-2-2-3-6-4-10 0-5-1-6-7-10l-9-8-3-4-2 5-2 4-4-3-4-3-3 5-3 5-2-3-6-6-2-4 6 5 4 4 2-3 1-7v-2l6 6 4 3 3-5c3-5 3-5 4-2 2 4 14 14 24 20 2 1 1-2-2-9l-1-8c0-3-1-5-6-8-6-5-8-8-9-16l-2-8c-2-1-2 0-2 5 1 4 0 9-1 11l-1 4-1-3-7-7c-3-2-5-3-4-4l6 4c5 4 6 4 7 3 1-2 0-11-2-17 0-3 0-3 3 1 3 2 5 6 6 11 1 8 2 9 9 15l7 6 2-21c0-20-1-25-6-32l-2-3 4-5c5-5 8-10 9-16v-5l-4 4c-4 4-6 5-10 5s-6-1-9-4c-3-4-9-8-15-9-3-1-3-1-3 1l-3 7-3 5-5-6-11-7c-8-2-8-1-8 4 0 9-4 11-11 5-5-5-9-6-19-4h-7l1 4c1 3 1 4-2 7-3 5-9 8-16 8l-11 1-10 3-9 1c-2 1-3 0-2-4 1-6-4-11-11-11-9 0-13 8-9 19l2 7c0 2 4 7 9 12l10 11 6 5 4 2v-4c-1-5 0-6 3-2l5 4 3 1 2-6 1-3 3 4c1 3 5 9 9 13 8 9 13 19 10 22-1 1-3 1-9-1l-12-1c-4 1-4 0-2-3 3-4 3-4-3-4s-23-3-29-6c-6-2-8-2-9 4l-4 11-1 5h6l11-2 4-1-2 5-3 5 4-1 8-3c3-1 3-1 6 3 3 5 6 5 6 0 1-6 3-5 6 2 4 7 7 10 8 6 0-2 2-4 4-5 4-3 7-2 9 2 1 5-3 9-14 16a81 81 0 0 0-41 59c-4 22 7 45 29 61 11 8 27 17 26 13-4-13-4-39 1-43l-1 6c-4 14-2 26 7 53 9 25 8 36-4 43-4 2-7 2-17 2-11 0-12 0-16 3s-8 12-8 16c0 3 3 2 8 0z"/>
    <path d="M863 479l5-3 3 3c5 4 9 4 13 0l4-3 2 3c1 2 3 3 6 3 5 0 6 0 8-3l2-3 5 3c12 8 19 0 13-17-3-9-1-14 8-25 4-4 7-9 7-11s0-2-6-2c-5 0-6-1-9-4-4-4-4-10 1-16l4-4-7-5-15-13a48 48 0 0 0-33-17l-8-1v7c0 8 4 16 15 30 12 16 13 18 13 39l1 17-4 4c-3 3-5 3-15 4s-12 1-15 4c-4 3-5 5-6 10-1 2-1 3 1 3s5-1 7-3zM597 434l2-5c0-3 1-3 6-4l5-1-3-3c-5-3-5-6-1-6s11-5 12-8l-1-4c-2-3-7-2-7 1-1 3-3 3-6 0-5-5-5-15 0-20 2-3 2-3-1-6s-5-8-4-10l6 1h6c5-3 0-8-7-7-3 1-4 0-5-1l-5-4c-5-1-6-1-6 3 0 3-2 4-6 2-3-2-6-1-6 3 0 3 3 5 9 4 5 0 5 4 0 9l-3 3 3 4c3 5 3 14-1 18l-3 4-2-3c-3-4-7-4-8 0-1 3 0 4 3 7l7 4c5 0 5 3 0 7l-4 2 6 1 5 2c0 2 4 10 6 10l3-3z"/>
    <path d="M668 403c5-2 16-11 16-13l-6-8c-8-7-16-18-19-25-1-4-6-10-21-25l-21-20-6 2-9 1c-2 0-2 1 1 3l4 3 6-3c5-3 5-3 6 0l-2 5-2 4-3 4c-4 1-7 8-3 8 2 0 8-8 8-10v-3c2-2 2 4 0 7l-2 4-3 3c-4 2-7 8-4 8s9-7 9-9v-3c2-1 2 3 1 5v5c1 2 0 7-2 8-1 1-1 2 2 4s3 3 3 15c0 10 1 12 3 14s2 2 2 0 4-4 7-4l12 10c6 6 12 11 14 11l4 1 5-2zM606 354c0-3-7-7-15-8-6 0-6 0-6 3s1 4 5 6c7 3 16 2 16-1z"/>
    <path d="M613 354c4-3 5-7 3-7s-8 6-8 8c0 3 1 3 5-1zM606 344c1-2-1-3-4-5-7-3-16-4-18-3-4 3-1 7 5 8l7 2c5 2 10 1 10-2zM606 334c1-2-1-3-15-8-10-4-14-2-11 4 1 2 3 3 7 4l10 2c6 2 9 1 9-2zM613 325l4-6c0-3-8 3-9 6-1 5 1 5 5 0zM606 324c1-3-4-5-14-7-7-2-10-1-10 2 1 2 3 3 10 6 11 3 14 3 14-1zM616 310c12-5 14-19 2-23-5-1-8-1-10 3-2 2-1 7 1 7l1 2c0 5-19 7-26 3-3-1-4-5-2-5s3-4 2-6c-1-4-5-5-10-4-12 3-12 17 0 23 10 5 32 5 42 0z"/>
    <path d="M608 300c1-1 1-2-1-3-2-2-2-5 1-9 2-3 2-7 3-47 1-70 6-122 13-134 3-5 3-5-4-1-9 6-16 14-22 26-12 22-16 51-16 113 0 35 0 40 2 43s2 4 1 8l-1 4c3 3 21 2 24 0zM713 233l-2-6c-2-5-3-6-6-6-10 0-26-5-43-12-10-4-13-5-14-4-3 2 2 9 9 13 7 3 26 7 35 7 5 0 5 0 2 4l-2 3h5l10 1h6z"/>
    <path fill="#000" d="M772 265c0-2-5-7-10-10-4-3-5-3-5-1 0 3-3 11-4 11l-2-3c0-2-2-6-5-8l-3-5-3 4c-3 4-7 8-9 8v-4l-1-6h-2c0 2-6 9-7 9l-2-4a467 467 0 0 0 0-6l3 8 3-5 3-6 2-1 2 7 1 6 3-3 5-6c1-3 1-3 4 0l6 7 3 4 1-6v-6l14 9 5 4 1-7c0-6-1-7-4-10-4-3-4-3-5-1-2 3-4 3-4 0 0-2-7-11-9-11l-3 4-3 5c-2 0-12-11-12-13s0-2 2 1l6 7c4 3 5 2 7-4l2-4c1 0 10 10 11 13l1 3 1-4c1-4 3-4 4 0l9 7 7 5 1-5 2-3c1 1-1 8-2 10l-5-3-5-3v6l-1 8c0 3-3 4-3 2zM738 217c-8-7-10-8-9-12v-3 3l6 7 4 4 3-3 3-5c0-3 1-2 6 3 5 4 5 4 6 1v-6c-2-6-2-7 1-3l4 5c2 2 2 2 3-1l1-6v-4l4 5c5 5 5 5 6 3l2-7c0-3 0-4 1-3 1 2 0 8-2 13l-2 3-3-3c-3-5-4-5-6 0s-3 5-5 2c-1-3-1-3-2 3l-1 5-6-4-6-4-2 2-3 5c0 2-1 2-3 0zM811 191l-5-5 2-1 5 6c7 7 5 7-2 0zM714 181c-3-3-3-6 0-10 3-3 4-3 8-3l13 6c5 3 10 5 14 5l7 1-4-6c-4-6-4-7 1-3s11 5 24 5l6-1-4-3c-5-5-3-6 3-1 5 5 5 5-7 6-4 1-10 0-14-1-6-1-7-1-5 1l2 2 1 2c0 2-13 0-20-4-15-7-17-8-21-7-2 1-4 3-4 5-3 6 6 11 10 5 1-1 0-3-1-4-3-3-3-3 1-2 2 1 2 6 0 9-2 2-8 1-10-2zM773 166c-2-2 0-2 8-2 11-1 17-2 25-7 6-4 7-3 2 1-6 3-14 6-22 7a174 174 0 0 0-13 1z"/>
  </g>
</svg>
