<svg xmlns="http://www.w3.org/2000/svg" width="1200" height="600" viewBox="0 0 252 126">
  <path fill="#319208" d="M0 0h252v126H0z"/>
  <path fill="#FFD200" d="M0 18h252v90H0z"/>
  <path fill="#DE2010" d="M0 36h252v54H0z"/>
  <path d="M0 54h252v18H0z"/>
  <path d="M5 0l84 63-84 63H0V0h5z"/>
  <path fill="#FFF" d="M0 0l84 63-84 63"/>
  <path fill="#DE2010" d="M46 66l18-13-21-3-9-19-9 19-21 3 18 13-4 19 16-9 16 9z"/>
  <path fill="#FFC618" d="M29 55c2 4 2 5 7 6l20 4-20-15-4-3-4-7c-1-2-2-4-5-4s-4 2-4 4c-1 0-3 1-3 3 1 0 4-1 6 3v15c-2 3-4 6-4 9l1 1 3 11h28l4-17"/>
  <g fill="none" stroke="none" stroke-width="0">
    <path d="M29 55c2 4 2 5 7 6l20 4-20-15-4-3-4-7c-1-2-2-4-5-4s-4 2-4 4c-1 0-3 1-3 3 1 0 4-1 6 3v15c-2 3-4 6-4 9l1 1 3 11h28l4-17"/>
    <path d="M19 71h8c2 0 17 0 25 2M22 71l-1-2c1-2 5-5 5-11"/>
    <path d="M25 71s0-3 5-5c2 0 6-3 6-5M29 66l24 3"/>
    <path d="M33 65h5l3-2M35 65s3-1 3-3M28 82l-1-11 3 2 2-2 3 2 3-2 2 3 3-3 2 3 3-2 4 3M51 77l-24-1M23 51l9-4"/>
  </g>
  <g transform="translate(16 36) scale(.21174)" fill="none" stroke="#000">
    <path d="M52 177l14 12 11-12 12 12 13-11 12 13 13-11 11 12 13-10 14 12"/>
    <circle cx="89" cy="155" r="5"/>
    <circle cx="111" cy="156" r="5"/>
    <circle cx="30" cy="17" r="4"/>
  </g>
</svg>
